<?xml version="1.0" encoding="UTF-8" standalone="no"?>
<!DOCTYPE svg PUBLIC "-//W3C//DTD SVG 1.1//EN"
 "http://www.w3.org/Graphics/SVG/1.1/DTD/svg11.dtd">
<!-- Generated by graphviz version 2.40.1
 -->
<!-- Title: %3 Pages: 1 -->
<svg width="2315pt" height="476pt"
 viewBox="0.00 0.00 2315.09 476.00" xmlns="http://www.w3.org/2000/svg" xmlns:xlink="http://www.w3.org/1999/xlink">
<g id="graph0" class="graph" transform="scale(1 1) rotate(0) translate(4 472)">
<title>%3</title>
<polygon fill="#ffffff" stroke="transparent" points="-4,4 -4,-472 2311.0891,-472 2311.0891,4 -4,4"/>
<!-- core -->
<g id="node1" class="node">
<title>core</title>
<ellipse fill="#ffffff" stroke="#000000" cx="897" cy="-162" rx="27.8073" ry="18"/>
<text text-anchor="middle" x="897" y="-157.8" font-family="Times,serif" font-size="14.00" fill="#000000">core</text>
</g>
<!-- data -->
<g id="node2" class="node">
<title>data</title>
<ellipse fill="#ffffff" stroke="#000000" cx="1031" cy="-18" rx="27.2447" ry="18"/>
<text text-anchor="middle" x="1031" y="-13.8" font-family="Times,serif" font-size="14.00" fill="#000000">data</text>
</g>
<!-- core&#45;&gt;data -->
<g id="edge1" class="edge">
<title>core&#45;&gt;data</title>
<path fill="none" stroke="#000000" d="M914.8598,-147.893C927.6755,-137.4321 945.0689,-122.526 959,-108 978.9676,-87.1798 999.2799,-61.2666 1013.216,-42.5997"/>
<polygon fill="#000000" stroke="#000000" points="1016.2024,-44.4476 1019.3308,-34.3251 1010.5728,-40.2874 1016.2024,-44.4476"/>
</g>
<!-- iface -->
<g id="node8" class="node">
<title>iface</title>
<ellipse fill="#ffffff" stroke="#000000" cx="920" cy="-90" rx="29.5916" ry="18"/>
<text text-anchor="middle" x="920" y="-85.8" font-family="Times,serif" font-size="14.00" fill="#000000">iface</text>
</g>
<!-- core&#45;&gt;iface -->
<g id="edge2" class="edge">
<title>core&#45;&gt;iface</title>
<path fill="none" stroke="#000000" d="M902.6854,-144.2022C905.2563,-136.1541 908.3534,-126.4588 911.2132,-117.5067"/>
<polygon fill="#000000" stroke="#000000" points="914.5913,-118.4334 914.3003,-107.8425 907.9232,-116.3033 914.5913,-118.4334"/>
</g>
<!-- process -->
<g id="node14" class="node">
<title>process</title>
<ellipse fill="#ffffff" stroke="#000000" cx="1398" cy="-90" rx="39.9857" ry="18"/>
<text text-anchor="middle" x="1398" y="-85.8" font-family="Times,serif" font-size="14.00" fill="#000000">process</text>
</g>
<!-- core&#45;&gt;process -->
<g id="edge3" class="edge">
<title>core&#45;&gt;process</title>
<path fill="none" stroke="#000000" d="M924.2917,-158.0778C1005.4291,-146.4174 1245.9435,-111.8524 1349.5867,-96.9576"/>
<polygon fill="#000000" stroke="#000000" points="1350.3684,-100.3813 1359.7688,-95.4943 1349.3726,-93.4525 1350.3684,-100.3813"/>
</g>
<!-- defaults -->
<g id="node3" class="node">
<title>defaults</title>
<ellipse fill="#ffffff" stroke="#000000" cx="1080" cy="-378" rx="41.7095" ry="18"/>
<text text-anchor="middle" x="1080" y="-373.8" font-family="Times,serif" font-size="14.00" fill="#000000">defaults</text>
</g>
<!-- defaults&#45;&gt;core -->
<g id="edge4" class="edge">
<title>defaults&#45;&gt;core</title>
<path fill="none" stroke="#000000" d="M1052.9608,-364.1493C1035.6812,-354.4428 1013.5021,-340.3182 997,-324 956.1446,-283.5998 924.6634,-223.3658 908.6645,-188.8643"/>
<polygon fill="#000000" stroke="#000000" points="911.7075,-187.1004 904.3851,-179.4432 905.3342,-189.9954 911.7075,-187.1004"/>
</g>
<!-- engine/null -->
<g id="node5" class="node">
<title>engine/null</title>
<ellipse fill="#ffffff" stroke="#000000" cx="896" cy="-306" rx="54.4739" ry="18"/>
<text text-anchor="middle" x="896" y="-301.8" font-family="Times,serif" font-size="14.00" fill="#000000">engine/null</text>
</g>
<!-- defaults&#45;&gt;engine/null -->
<g id="edge5" class="edge">
<title>defaults&#45;&gt;engine/null</title>
<path fill="none" stroke="#000000" d="M1048.7869,-365.7862C1019.2046,-354.2105 974.4451,-336.6959 941.0074,-323.6116"/>
<polygon fill="#000000" stroke="#000000" points="942.0496,-320.261 931.4617,-319.8763 939.4987,-326.7797 942.0496,-320.261"/>
</g>
<!-- engine/vc -->
<g id="node6" class="node">
<title>engine/vc</title>
<ellipse fill="#ffffff" stroke="#000000" cx="1405" cy="-234" rx="48.6559" ry="18"/>
<text text-anchor="middle" x="1405" y="-229.8" font-family="Times,serif" font-size="14.00" fill="#000000">engine/vc</text>
</g>
<!-- defaults&#45;&gt;engine/vc -->
<g id="edge6" class="edge">
<title>defaults&#45;&gt;engine/vc</title>
<path fill="none" stroke="#000000" d="M1109.1276,-365.0942C1167.1913,-339.3675 1297.4825,-281.6385 1364.0938,-252.1246"/>
<polygon fill="#000000" stroke="#000000" points="1365.7185,-255.2329 1373.4435,-247.982 1362.8828,-248.833 1365.7185,-255.2329"/>
</g>
<!-- engine/wave -->
<g id="node7" class="node">
<title>engine/wave</title>
<ellipse fill="#ffffff" stroke="#000000" cx="1240" cy="-234" rx="59.6723" ry="18"/>
<text text-anchor="middle" x="1240" y="-229.8" font-family="Times,serif" font-size="14.00" fill="#000000">engine/wave</text>
</g>
<!-- defaults&#45;&gt;engine/wave -->
<g id="edge7" class="edge">
<title>defaults&#45;&gt;engine/wave</title>
<path fill="none" stroke="#000000" d="M1098.043,-361.7613C1126.0702,-336.5369 1180.2386,-287.7853 1212.9555,-258.34"/>
<polygon fill="#000000" stroke="#000000" points="1215.6907,-260.5872 1220.7823,-251.296 1211.0079,-255.3841 1215.6907,-260.5872"/>
</g>
<!-- defaults&#45;&gt;iface -->
<g id="edge8" class="edge">
<title>defaults&#45;&gt;iface</title>
<path fill="none" stroke="#000000" d="M1087.4261,-359.9389C1098.9908,-328.8602 1117.7395,-263.9859 1095,-216 1067.4099,-157.7782 997.8296,-120.8939 955.1828,-102.9703"/>
<polygon fill="#000000" stroke="#000000" points="956.3214,-99.655 945.7398,-99.1259 953.6819,-106.1383 956.3214,-99.655"/>
</g>
<!-- pragma -->
<g id="node13" class="node">
<title>pragma</title>
<ellipse fill="#ffffff" stroke="#000000" cx="1046" cy="-306" rx="39.9876" ry="18"/>
<text text-anchor="middle" x="1046" y="-301.8" font-family="Times,serif" font-size="14.00" fill="#000000">pragma</text>
</g>
<!-- defaults&#45;&gt;pragma -->
<g id="edge9" class="edge">
<title>defaults&#45;&gt;pragma</title>
<path fill="none" stroke="#000000" d="M1071.5955,-360.2022C1067.7132,-351.981 1063.0194,-342.041 1058.717,-332.9301"/>
<polygon fill="#000000" stroke="#000000" points="1061.8606,-331.3905 1054.4256,-323.8425 1055.5309,-334.3796 1061.8606,-331.3905"/>
</g>
<!-- engine/constant -->
<g id="node4" class="node">
<title>engine/constant</title>
<ellipse fill="#ffffff" stroke="#000000" cx="376" cy="-234" rx="71.7892" ry="18"/>
<text text-anchor="middle" x="376" y="-229.8" font-family="Times,serif" font-size="14.00" fill="#000000">engine/constant</text>
</g>
<!-- engine/constant&#45;&gt;core -->
<g id="edge10" class="edge">
<title>engine/constant&#45;&gt;core</title>
<path fill="none" stroke="#000000" d="M438.8448,-225.3151C548.4654,-210.166 771.3678,-179.3618 859.719,-167.1521"/>
<polygon fill="#000000" stroke="#000000" points="860.3832,-170.5936 869.8099,-165.7576 859.4248,-163.6595 860.3832,-170.5936"/>
</g>
<!-- engine/constant&#45;&gt;data -->
<g id="edge11" class="edge">
<title>engine/constant&#45;&gt;data</title>
<path fill="none" stroke="#000000" d="M381.8275,-216.0417C394.1138,-181.3992 426.2321,-105.7875 482,-72 525.6379,-45.5615 877.0336,-25.7213 993.5876,-19.8139"/>
<polygon fill="#000000" stroke="#000000" points="993.9883,-23.2983 1003.8004,-19.3016 993.6376,-16.3071 993.9883,-23.2983"/>
</g>
<!-- engine/constant&#45;&gt;iface -->
<g id="edge12" class="edge">
<title>engine/constant&#45;&gt;iface</title>
<path fill="none" stroke="#000000" d="M402.4153,-217.0997C436.0214,-196.4329 496.5003,-161.9893 553,-144 668.043,-107.3707 811.4049,-95.4304 879.9149,-91.6626"/>
<polygon fill="#000000" stroke="#000000" points="880.4469,-95.1398 890.2518,-91.1255 880.0837,-88.1492 880.4469,-95.1398"/>
</g>
<!-- engine/null&#45;&gt;core -->
<g id="edge13" class="edge">
<title>engine/null&#45;&gt;core</title>
<path fill="none" stroke="#000000" d="M896.1267,-287.7623C896.2972,-263.201 896.6024,-219.2474 896.8031,-190.3541"/>
<polygon fill="#000000" stroke="#000000" points="900.3048,-190.1137 896.8744,-180.0896 893.3049,-190.065 900.3048,-190.1137"/>
</g>
<!-- engine/vc&#45;&gt;core -->
<g id="edge14" class="edge">
<title>engine/vc&#45;&gt;core</title>
<path fill="none" stroke="#000000" d="M1362.0778,-225.4301C1345.5255,-222.2624 1326.4162,-218.772 1309,-216 1171.4958,-194.1148 1007.1412,-174.535 934.5835,-166.2243"/>
<polygon fill="#000000" stroke="#000000" points="934.8907,-162.7368 924.5584,-165.081 934.0974,-169.6917 934.8907,-162.7368"/>
</g>
<!-- engine/vc&#45;&gt;data -->
<g id="edge15" class="edge">
<title>engine/vc&#45;&gt;data</title>
<path fill="none" stroke="#000000" d="M1418.4662,-216.5453C1441.7849,-184.0791 1483.8198,-113.9082 1447,-72 1422.1294,-43.6924 1165.5883,-25.8619 1068.2117,-20.0693"/>
<polygon fill="#000000" stroke="#000000" points="1068.4077,-16.5749 1058.2201,-19.4841 1067.9983,-23.5629 1068.4077,-16.5749"/>
</g>
<!-- engine/vc&#45;&gt;iface -->
<g id="edge16" class="edge">
<title>engine/vc&#45;&gt;iface</title>
<path fill="none" stroke="#000000" d="M1362.9227,-224.9872C1322.6919,-215.7709 1260.683,-199.9897 1209,-180 1176.002,-167.2372 1171.1612,-156.3324 1138,-144 1077.1,-121.3519 1003.1129,-105.3078 958.8813,-96.8667"/>
<polygon fill="#000000" stroke="#000000" points="959.3129,-93.3867 948.8391,-94.9837 958.0227,-100.2668 959.3129,-93.3867"/>
</g>
<!-- engine/vc&#45;&gt;process -->
<g id="edge17" class="edge">
<title>engine/vc&#45;&gt;process</title>
<path fill="none" stroke="#000000" d="M1404.1134,-215.7623C1402.9195,-191.201 1400.7829,-147.2474 1399.3783,-118.3541"/>
<polygon fill="#000000" stroke="#000000" points="1402.8609,-117.9079 1398.8794,-108.0896 1395.8691,-118.2478 1402.8609,-117.9079"/>
</g>
<!-- engine/wave&#45;&gt;core -->
<g id="edge18" class="edge">
<title>engine/wave&#45;&gt;core</title>
<path fill="none" stroke="#000000" d="M1190.8565,-223.6842C1121.3381,-209.0914 995.8518,-182.7502 933.7951,-169.7237"/>
<polygon fill="#000000" stroke="#000000" points="934.1906,-166.2306 923.6849,-167.6015 932.7525,-173.0813 934.1906,-166.2306"/>
</g>
<!-- engine/wave&#45;&gt;data -->
<g id="edge19" class="edge">
<title>engine/wave&#45;&gt;data</title>
<path fill="none" stroke="#000000" d="M1271.8345,-218.569C1286.6285,-209.5555 1302.745,-196.6497 1311,-180 1333.3534,-134.9148 1316.3546,-103.3618 1277,-72 1245.0642,-46.5502 1128.7706,-29.4909 1068.2205,-22.1266"/>
<polygon fill="#000000" stroke="#000000" points="1068.2904,-18.6103 1057.9471,-20.9052 1067.4639,-25.5613 1068.2904,-18.6103"/>
</g>
<!-- engine/wave&#45;&gt;iface -->
<g id="edge20" class="edge">
<title>engine/wave&#45;&gt;iface</title>
<path fill="none" stroke="#000000" d="M1216.2666,-217.3715C1187.4648,-197.7664 1136.9183,-165.1776 1090,-144 1046.0715,-124.1719 992.7224,-108.4941 957.6438,-99.2488"/>
<polygon fill="#000000" stroke="#000000" points="958.3747,-95.8227 947.8164,-96.7012 956.6181,-102.5987 958.3747,-95.8227"/>
</g>
<!-- iface&#45;&gt;data -->
<g id="edge21" class="edge">
<title>iface&#45;&gt;data</title>
<path fill="none" stroke="#000000" d="M940.3591,-76.7941C957.9442,-65.3875 983.5252,-48.7945 1003.0305,-36.1424"/>
<polygon fill="#000000" stroke="#000000" points="1005.0295,-39.0176 1011.5144,-30.6393 1001.2201,-33.1449 1005.0295,-39.0176"/>
</g>
<!-- main_shell -->
<g id="node9" class="node">
<title>main_shell</title>
<ellipse fill="#ffffff" stroke="#000000" cx="157" cy="-234" rx="53.3283" ry="18"/>
<text text-anchor="middle" x="157" y="-229.8" font-family="Times,serif" font-size="14.00" fill="#000000">main_shell</text>
</g>
<!-- main_shell&#45;&gt;core -->
<g id="edge22" class="edge">
<title>main_shell&#45;&gt;core</title>
<path fill="none" stroke="#000000" d="M206.4425,-227.061C232.717,-223.4975 265.58,-219.2369 295,-216 508.1349,-192.5503 764.5708,-172.1309 859.3877,-164.8447"/>
<polygon fill="#000000" stroke="#000000" points="859.6553,-168.3346 869.3588,-164.0812 859.1207,-161.355 859.6553,-168.3346"/>
</g>
<!-- main_shell&#45;&gt;data -->
<g id="edge23" class="edge">
<title>main_shell&#45;&gt;data</title>
<path fill="none" stroke="#000000" d="M157.2541,-215.8692C158.5347,-195.6063 163.7267,-163.1376 183,-144 266.8692,-60.7213 322.7721,-93.4582 439,-72 646.173,-33.7514 899.3645,-22.166 993.4565,-19.0415"/>
<polygon fill="#000000" stroke="#000000" points="993.7316,-22.5346 1003.6147,-18.7169 993.5079,-15.5382 993.7316,-22.5346"/>
</g>
<!-- main_shell&#45;&gt;iface -->
<g id="edge24" class="edge">
<title>main_shell&#45;&gt;iface</title>
<path fill="none" stroke="#000000" d="M164.6081,-216.1444C174.7381,-194.8415 194.8345,-160.0905 224,-144 281.4648,-112.2968 739.9659,-95.5834 879.7128,-91.1904"/>
<polygon fill="#000000" stroke="#000000" points="880.0865,-94.6806 889.9731,-90.8721 879.8693,-87.6839 880.0865,-94.6806"/>
</g>
<!-- mdb -->
<g id="node10" class="node">
<title>mdb</title>
<ellipse fill="#ffffff" stroke="#000000" cx="1058" cy="-234" rx="28.4127" ry="18"/>
<text text-anchor="middle" x="1058" y="-229.8" font-family="Times,serif" font-size="14.00" fill="#000000">mdb</text>
</g>
<!-- mdb&#45;&gt;core -->
<g id="edge25" class="edge">
<title>mdb&#45;&gt;core</title>
<path fill="none" stroke="#000000" d="M1034.5892,-223.5306C1006.7683,-211.0889 960.2045,-190.2654 929.0529,-176.3342"/>
<polygon fill="#000000" stroke="#000000" points="930.4754,-173.1363 919.9177,-172.2489 927.6176,-179.5265 930.4754,-173.1363"/>
</g>
<!-- mdb&#45;&gt;data -->
<g id="edge26" class="edge">
<title>mdb&#45;&gt;data</title>
<path fill="none" stroke="#000000" d="M1055.7444,-215.9555C1051.0393,-178.3144 1040.1483,-91.1867 1034.5156,-46.1246"/>
<polygon fill="#000000" stroke="#000000" points="1037.9815,-45.6337 1033.2681,-36.1451 1031.0356,-46.502 1037.9815,-45.6337"/>
</g>
<!-- mdb&#45;&gt;iface -->
<g id="edge27" class="edge">
<title>mdb&#45;&gt;iface</title>
<path fill="none" stroke="#000000" d="M1044.0802,-218.1079C1028.0037,-199.8992 1000.6053,-169.3117 976,-144 965.6474,-133.3502 953.8556,-121.8856 943.7713,-112.2713"/>
<polygon fill="#000000" stroke="#000000" points="946.1095,-109.6651 936.4448,-105.324 941.2929,-114.7446 946.1095,-109.6651"/>
</g>
<!-- mock -->
<g id="node11" class="node">
<title>mock</title>
<ellipse fill="#ffffff" stroke="#000000" cx="594" cy="-162" rx="32.4846" ry="18"/>
<text text-anchor="middle" x="594" y="-157.8" font-family="Times,serif" font-size="14.00" fill="#000000">mock</text>
</g>
<!-- mock&#45;&gt;iface -->
<g id="edge28" class="edge">
<title>mock&#45;&gt;iface</title>
<path fill="none" stroke="#000000" d="M624.3765,-155.2911C684.092,-142.1024 816.6355,-112.829 882.0198,-98.3883"/>
<polygon fill="#000000" stroke="#000000" points="882.9057,-101.777 891.9155,-96.2027 881.396,-94.9418 882.9057,-101.777"/>
</g>
<!-- pattern -->
<g id="node12" class="node">
<title>pattern</title>
<ellipse fill="#ffffff" stroke="#000000" cx="1879" cy="-90" rx="37.6986" ry="18"/>
<text text-anchor="middle" x="1879" y="-85.8" font-family="Times,serif" font-size="14.00" fill="#000000">pattern</text>
</g>
<!-- pragma&#45;&gt;core -->
<g id="edge29" class="edge">
<title>pragma&#45;&gt;core</title>
<path fill="none" stroke="#000000" d="M1028.3582,-289.8315C1016.7977,-279.1736 1001.4013,-264.8599 988,-252 964.4322,-229.3842 937.9253,-203.0658 919.6257,-184.754"/>
<polygon fill="#000000" stroke="#000000" points="921.859,-182.037 912.318,-177.4305 916.9039,-186.9814 921.859,-182.037"/>
</g>
<!-- pragma&#45;&gt;data -->
<g id="edge30" class="edge">
<title>pragma&#45;&gt;data</title>
<path fill="none" stroke="#000000" d="M1066.1229,-290.3374C1076.9139,-280.6165 1089.1639,-267.1165 1095,-252 1100.7627,-237.0738 1097.161,-231.8534 1095,-216 1086.0289,-150.1853 1077.4382,-134.5186 1055,-72 1051.7266,-62.8795 1047.6016,-53.1381 1043.699,-44.4756"/>
<polygon fill="#000000" stroke="#000000" points="1046.8089,-42.8613 1039.4445,-35.2444 1040.4515,-45.7913 1046.8089,-42.8613"/>
</g>
<!-- pragma&#45;&gt;iface -->
<g id="edge31" class="edge">
<title>pragma&#45;&gt;iface</title>
<path fill="none" stroke="#000000" d="M1035.6889,-288.3238C1013.466,-250.2274 960.9733,-160.2399 935.038,-115.7795"/>
<polygon fill="#000000" stroke="#000000" points="937.9893,-113.8924 929.9273,-107.0182 931.9428,-117.4195 937.9893,-113.8924"/>
</g>
<!-- pragma&#45;&gt;mdb -->
<g id="edge32" class="edge">
<title>pragma&#45;&gt;mdb</title>
<path fill="none" stroke="#000000" d="M1049.0281,-287.8314C1050.3313,-280.0125 1051.8846,-270.6923 1053.3297,-262.0221"/>
<polygon fill="#000000" stroke="#000000" points="1056.8227,-262.3528 1055.0144,-251.9134 1049.918,-261.2019 1056.8227,-262.3528"/>
</g>
<!-- process&#45;&gt;data -->
<g id="edge33" class="edge">
<title>process&#45;&gt;data</title>
<path fill="none" stroke="#000000" d="M1366.8266,-78.7205C1359.4086,-76.2845 1351.4754,-73.8793 1344,-72 1245.6228,-47.2679 1127.0109,-30.1967 1068.0417,-22.5469"/>
<polygon fill="#000000" stroke="#000000" points="1068.4458,-19.0701 1058.0822,-21.2712 1067.5565,-26.0134 1068.4458,-19.0701"/>
</g>
<!-- readline -->
<g id="node15" class="node">
<title>readline</title>
<ellipse fill="#ffffff" stroke="#000000" cx="1260" cy="-162" rx="42.2719" ry="18"/>
<text text-anchor="middle" x="1260" y="-157.8" font-family="Times,serif" font-size="14.00" fill="#000000">readline</text>
</g>
<!-- readline&#45;&gt;data -->
<g id="edge34" class="edge">
<title>readline&#45;&gt;data</title>
<path fill="none" stroke="#000000" d="M1265.2348,-143.9036C1269.8031,-123.976 1273.4148,-92.1011 1257,-72 1233.3996,-43.0997 1125.8997,-27.7699 1068.0753,-21.4889"/>
<polygon fill="#000000" stroke="#000000" points="1068.1984,-17.9827 1057.8877,-20.4202 1067.468,-24.9445 1068.1984,-17.9827"/>
</g>
<!-- readline&#45;&gt;iface -->
<g id="edge35" class="edge">
<title>readline&#45;&gt;iface</title>
<path fill="none" stroke="#000000" d="M1227.0309,-150.6591C1219.5119,-148.2808 1211.521,-145.916 1204,-144 1117.6444,-122.0006 1014.4586,-104.541 959.3305,-95.9066"/>
<polygon fill="#000000" stroke="#000000" points="959.7063,-92.4232 949.2878,-94.3483 958.6329,-99.3404 959.7063,-92.4232"/>
</g>
<!-- replace_part -->
<g id="node16" class="node">
<title>replace_part</title>
<ellipse fill="#ffffff" stroke="#000000" cx="2240" cy="-378" rx="58.5059" ry="18"/>
<text text-anchor="middle" x="2240" y="-373.8" font-family="Times,serif" font-size="14.00" fill="#000000">replace_part</text>
</g>
<!-- system_test -->
<g id="node17" class="node">
<title>system_test</title>
<ellipse fill="#ffffff" stroke="#000000" cx="1798" cy="-162" rx="56.1937" ry="18"/>
<text text-anchor="middle" x="1798" y="-157.8" font-family="Times,serif" font-size="14.00" fill="#000000">system_test</text>
</g>
<!-- system_test&#45;&gt;pattern -->
<g id="edge36" class="edge">
<title>system_test&#45;&gt;pattern</title>
<path fill="none" stroke="#000000" d="M1817.1959,-144.937C1827.991,-135.3413 1841.6091,-123.2363 1853.3131,-112.8328"/>
<polygon fill="#000000" stroke="#000000" points="1855.9029,-115.2136 1861.0517,-105.954 1851.2523,-109.9817 1855.9029,-115.2136"/>
</g>
<!-- system_test&#45;&gt;process -->
<g id="edge37" class="edge">
<title>system_test&#45;&gt;process</title>
<path fill="none" stroke="#000000" d="M1748.9521,-153.1714C1671.5455,-139.2382 1522.0145,-112.3226 1445.5501,-98.559"/>
<polygon fill="#000000" stroke="#000000" points="1445.7225,-95.0339 1435.2606,-96.7069 1444.4824,-101.9232 1445.7225,-95.0339"/>
</g>
<!-- app/metashell -->
<g id="node18" class="node">
<title>app/metashell</title>
<polygon fill="none" stroke="#000000" points="821.7563,-468 728.2437,-468 728.2437,-432 821.7563,-432 821.7563,-468"/>
<text text-anchor="middle" x="775" y="-445.8" font-family="Times,serif" font-size="14.00" fill="#000000">app/metashell</text>
</g>
<!-- app/metashell&#45;&gt;core -->
<g id="edge38" class="edge">
<title>app/metashell&#45;&gt;core</title>
<path fill="none" stroke="#000000" d="M780.7057,-431.7324C790.3565,-401.4244 811.0101,-339.0277 833,-288 848.2397,-252.6362 868.8487,-213.2746 882.5152,-188.1094"/>
<polygon fill="#000000" stroke="#000000" points="885.6613,-189.6509 887.3874,-179.1976 879.5193,-186.2929 885.6613,-189.6509"/>
</g>
<!-- app/metashell&#45;&gt;data -->
<g id="edge39" class="edge">
<title>app/metashell&#45;&gt;data</title>
<path fill="none" stroke="#000000" d="M728.2339,-447.2243C612.5206,-440.0732 315.2419,-419.8959 219,-396 116.869,-370.6419 0,-411.232 0,-306 0,-306 0,-306 0,-162 0,-102.8638 43.5399,-95.0473 98,-72 181.4314,-36.6921 829.4483,-21.8899 993.4051,-18.6882"/>
<polygon fill="#000000" stroke="#000000" points="993.5627,-22.1859 1003.4935,-18.494 993.4279,-15.1872 993.5627,-22.1859"/>
</g>
<!-- app/metashell&#45;&gt;defaults -->
<g id="edge40" class="edge">
<title>app/metashell&#45;&gt;defaults</title>
<path fill="none" stroke="#000000" d="M821.9878,-438.9078C879.3669,-425.3626 975.8345,-402.5899 1033.1506,-389.0595"/>
<polygon fill="#000000" stroke="#000000" points="1034.1059,-392.4303 1043.0343,-386.7263 1032.4976,-385.6175 1034.1059,-392.4303"/>
</g>
<!-- app/metashell&#45;&gt;iface -->
<g id="edge41" class="edge">
<title>app/metashell&#45;&gt;iface</title>
<path fill="none" stroke="#000000" d="M766.7291,-431.7881C755.281,-404.8727 736,-352.6212 736,-306 736,-306 736,-306 736,-234 736,-160.1076 829.1653,-118.4626 882.9084,-100.5865"/>
<polygon fill="#000000" stroke="#000000" points="884.0015,-103.9116 892.4533,-97.5229 881.8621,-97.2466 884.0015,-103.9116"/>
</g>
<!-- app/metashell&#45;&gt;main_shell -->
<g id="edge42" class="edge">
<title>app/metashell&#45;&gt;main_shell</title>
<path fill="none" stroke="#000000" d="M727.9603,-447.5679C598.2114,-439.7846 240.1559,-410.6986 169,-324 154.9931,-306.9335 152.721,-281.6013 153.5359,-262.1567"/>
<polygon fill="#000000" stroke="#000000" points="157.0364,-262.2719 154.2512,-252.0497 150.0538,-261.7776 157.0364,-262.2719"/>
</g>
<!-- app/metashell&#45;&gt;readline -->
<g id="edge43" class="edge">
<title>app/metashell&#45;&gt;readline</title>
<path fill="none" stroke="#000000" d="M821.9613,-445.9529C905.5404,-438.2451 1076.4484,-420.0588 1131,-396 1224.1048,-354.9382 1265.1702,-343.8342 1309,-252 1315.8916,-237.5603 1314.7627,-230.9262 1309,-216 1304.5214,-204.3997 1296.2657,-193.7513 1287.7908,-185.0322"/>
<polygon fill="#000000" stroke="#000000" points="1290.0068,-182.3072 1280.3761,-177.8912 1285.1509,-187.3491 1290.0068,-182.3072"/>
</g>
<!-- app/reference_gen -->
<g id="node19" class="node">
<title>app/reference_gen</title>
<polygon fill="none" stroke="#000000" points="1702.8752,-468 1583.1248,-468 1583.1248,-432 1702.8752,-432 1702.8752,-468"/>
<text text-anchor="middle" x="1643" y="-445.8" font-family="Times,serif" font-size="14.00" fill="#000000">app/reference_gen</text>
</g>
<!-- app/reference_gen&#45;&gt;data -->
<g id="edge44" class="edge">
<title>app/reference_gen&#45;&gt;data</title>
<path fill="none" stroke="#000000" d="M1702.7522,-445.7821C1837.4259,-434.6364 2153,-398.6359 2153,-306 2153,-306 2153,-306 2153,-162 2153,-74.5393 2062.3851,-94.99 1978,-72 1889.1865,-47.8036 1233.1123,-24.6807 1068.4199,-19.2139"/>
<polygon fill="#000000" stroke="#000000" points="1068.4038,-15.7115 1058.2937,-18.8795 1068.1727,-22.7077 1068.4038,-15.7115"/>
</g>
<!-- app/reference_gen&#45;&gt;defaults -->
<g id="edge45" class="edge">
<title>app/reference_gen&#45;&gt;defaults</title>
<path fill="none" stroke="#000000" d="M1583.2821,-442.3629C1471.7896,-428.1045 1233.8909,-397.6805 1130.1314,-384.4111"/>
<polygon fill="#000000" stroke="#000000" points="1130.2894,-380.9029 1119.9262,-383.106 1129.4014,-387.8464 1130.2894,-380.9029"/>
</g>
<!-- app/reference_gen&#45;&gt;mdb -->
<g id="edge46" class="edge">
<title>app/reference_gen&#45;&gt;mdb</title>
<path fill="none" stroke="#000000" d="M1594.1294,-431.9555C1478.6416,-389.3138 1191.152,-283.1638 1092.1443,-246.6071"/>
<polygon fill="#000000" stroke="#000000" points="1093.2183,-243.2728 1082.625,-243.0923 1090.7937,-249.8395 1093.2183,-243.2728"/>
</g>
<!-- app/reference_gen&#45;&gt;replace_part -->
<g id="edge47" class="edge">
<title>app/reference_gen&#45;&gt;replace_part</title>
<path fill="none" stroke="#000000" d="M1702.7,-446.559C1800.3522,-440.3246 2000.0878,-425.0336 2167,-396 2173.1608,-394.9284 2179.5722,-393.6275 2185.9247,-392.2206"/>
<polygon fill="#000000" stroke="#000000" points="2186.8561,-395.5978 2195.8141,-389.9404 2185.2834,-388.7767 2186.8561,-395.5978"/>
</g>
<!-- test/system/core -->
<g id="node20" class="node">
<title>test/system/core</title>
<polygon fill="none" stroke="#000000" points="1726.1966,-252 1619.8034,-252 1619.8034,-216 1726.1966,-216 1726.1966,-252"/>
<text text-anchor="middle" x="1673" y="-229.8" font-family="Times,serif" font-size="14.00" fill="#000000">test/system/core</text>
</g>
<!-- test/system/core&#45;&gt;system_test -->
<g id="edge48" class="edge">
<title>test/system/core&#45;&gt;system_test</title>
<path fill="none" stroke="#000000" d="M1704.5428,-215.8314C1721.7877,-205.8983 1743.2393,-193.5422 1761.2395,-183.1741"/>
<polygon fill="#000000" stroke="#000000" points="1763.3788,-185.9809 1770.2972,-177.9568 1759.885,-179.9152 1763.3788,-185.9809"/>
</g>
<!-- test/system/mdb -->
<g id="node21" class="node">
<title>test/system/mdb</title>
<polygon fill="none" stroke="#000000" points="1851.4972,-252 1744.5028,-252 1744.5028,-216 1851.4972,-216 1851.4972,-252"/>
<text text-anchor="middle" x="1798" y="-229.8" font-family="Times,serif" font-size="14.00" fill="#000000">test/system/mdb</text>
</g>
<!-- test/system/mdb&#45;&gt;system_test -->
<g id="edge49" class="edge">
<title>test/system/mdb&#45;&gt;system_test</title>
<path fill="none" stroke="#000000" d="M1798,-215.8314C1798,-208.131 1798,-198.9743 1798,-190.4166"/>
<polygon fill="#000000" stroke="#000000" points="1801.5001,-190.4132 1798,-180.4133 1794.5001,-190.4133 1801.5001,-190.4132"/>
</g>
<!-- test/system/pdb -->
<g id="node22" class="node">
<title>test/system/pdb</title>
<polygon fill="none" stroke="#000000" points="1972.6067,-252 1869.3933,-252 1869.3933,-216 1972.6067,-216 1972.6067,-252"/>
<text text-anchor="middle" x="1921" y="-229.8" font-family="Times,serif" font-size="14.00" fill="#000000">test/system/pdb</text>
</g>
<!-- test/system/pdb&#45;&gt;system_test -->
<g id="edge50" class="edge">
<title>test/system/pdb&#45;&gt;system_test</title>
<path fill="none" stroke="#000000" d="M1889.9619,-215.8314C1872.9929,-205.8983 1851.8846,-193.5422 1834.1724,-183.1741"/>
<polygon fill="#000000" stroke="#000000" points="1835.6578,-179.9881 1825.2595,-177.9568 1832.1215,-186.0292 1835.6578,-179.9881"/>
</g>
<!-- test/system/pp -->
<g id="node23" class="node">
<title>test/system/pp</title>
<polygon fill="none" stroke="#000000" points="2087.1067,-252 1990.8933,-252 1990.8933,-216 2087.1067,-216 2087.1067,-252"/>
<text text-anchor="middle" x="2039" y="-229.8" font-family="Times,serif" font-size="14.00" fill="#000000">test/system/pp</text>
</g>
<!-- test/system/pp&#45;&gt;pattern -->
<g id="edge51" class="edge">
<title>test/system/pp&#45;&gt;pattern</title>
<path fill="none" stroke="#000000" d="M2018.7359,-215.7623C1989.7434,-189.6691 1936.4322,-141.689 1904.702,-113.1318"/>
<polygon fill="#000000" stroke="#000000" points="1906.9022,-110.4032 1897.1278,-106.3151 1902.2194,-115.6063 1906.9022,-110.4032"/>
</g>
<!-- test/system/pp&#45;&gt;system_test -->
<g id="edge52" class="edge">
<title>test/system/pp&#45;&gt;system_test</title>
<path fill="none" stroke="#000000" d="M1990.8194,-218.7091C1987.837,-217.7861 1984.8789,-216.8769 1982,-216 1937.6069,-202.4779 1887.0044,-187.6711 1850.1169,-176.9879"/>
<polygon fill="#000000" stroke="#000000" points="1850.6717,-173.5049 1840.0929,-174.0885 1848.7266,-180.2293 1850.6717,-173.5049"/>
</g>
<!-- test/unit/core -->
<g id="node24" class="node">
<title>test/unit/core</title>
<polygon fill="none" stroke="#000000" points="631.5926,-252 542.4074,-252 542.4074,-216 631.5926,-216 631.5926,-252"/>
<text text-anchor="middle" x="587" y="-229.8" font-family="Times,serif" font-size="14.00" fill="#000000">test/unit/core</text>
</g>
<!-- test/unit/core&#45;&gt;core -->
<g id="edge53" class="edge">
<title>test/unit/core&#45;&gt;core</title>
<path fill="none" stroke="#000000" d="M631.7456,-223.6075C693.6221,-209.2362 804.1018,-183.5764 860.9769,-170.3667"/>
<polygon fill="#000000" stroke="#000000" points="862.0002,-173.7222 870.9491,-168.0505 860.4165,-166.9037 862.0002,-173.7222"/>
</g>
<!-- test/unit/core&#45;&gt;data -->
<g id="edge54" class="edge">
<title>test/unit/core&#45;&gt;data</title>
<path fill="none" stroke="#000000" d="M604.4616,-215.6414C624.171,-195.7785 657.9466,-164.2418 692,-144 794.5087,-83.0673 931.5063,-43.1941 995.3955,-26.6707"/>
<polygon fill="#000000" stroke="#000000" points="996.5419,-29.9904 1005.3673,-24.1286 994.8126,-23.2074 996.5419,-29.9904"/>
</g>
<!-- test/unit/core&#45;&gt;mock -->
<g id="edge55" class="edge">
<title>test/unit/core&#45;&gt;mock</title>
<path fill="none" stroke="#000000" d="M588.7664,-215.8314C589.515,-208.131 590.4053,-198.9743 591.2373,-190.4166"/>
<polygon fill="#000000" stroke="#000000" points="594.7256,-190.7051 592.2098,-180.4133 587.7585,-190.0276 594.7256,-190.7051"/>
</g>
<!-- test/unit/data -->
<g id="node25" class="node">
<title>test/unit/data</title>
<polygon fill="none" stroke="#000000" points="1248.3232,-108 1159.6768,-108 1159.6768,-72 1248.3232,-72 1248.3232,-108"/>
<text text-anchor="middle" x="1204" y="-85.8" font-family="Times,serif" font-size="14.00" fill="#000000">test/unit/data</text>
</g>
<!-- test/unit/data&#45;&gt;data -->
<g id="edge56" class="edge">
<title>test/unit/data&#45;&gt;data</title>
<path fill="none" stroke="#000000" d="M1160.3448,-71.8314C1130.3907,-59.3649 1091.266,-43.0818 1063.9233,-31.7022"/>
<polygon fill="#000000" stroke="#000000" points="1064.9987,-28.3588 1054.4215,-27.7477 1062.309,-34.8214 1064.9987,-28.3588"/>
</g>
<!-- test/unit/engine/vc -->
<g id="node26" class="node">
<title>test/unit/engine/vc</title>
<polygon fill="none" stroke="#000000" points="1829.9286,-324 1710.0714,-324 1710.0714,-288 1829.9286,-288 1829.9286,-324"/>
<text text-anchor="middle" x="1770" y="-301.8" font-family="Times,serif" font-size="14.00" fill="#000000">test/unit/engine/vc</text>
</g>
<!-- test/unit/engine/vc&#45;&gt;data -->
<g id="edge57" class="edge">
<title>test/unit/engine/vc&#45;&gt;data</title>
<path fill="none" stroke="#000000" d="M1829.9,-300.2522C1919.2971,-291.0624 2079.0021,-272.0452 2096,-252 2106.3481,-239.7968 2102.7281,-230.5166 2096,-216 2054.3619,-126.1618 2017.8988,-108.868 1926,-72 1845.5889,-39.7407 1228.1338,-22.7498 1068.5491,-18.8688"/>
<polygon fill="#000000" stroke="#000000" points="1068.3673,-15.3635 1058.286,-18.622 1068.1989,-22.3615 1068.3673,-15.3635"/>
</g>
<!-- test/unit/engine/vc&#45;&gt;engine/vc -->
<g id="edge58" class="edge">
<title>test/unit/engine/vc&#45;&gt;engine/vc</title>
<path fill="none" stroke="#000000" d="M1710.1099,-297.7641C1647.8942,-288.6732 1547.945,-272.5641 1463,-252 1459.1333,-251.0639 1455.1463,-250.0127 1451.1586,-248.9007"/>
<polygon fill="#000000" stroke="#000000" points="1451.8918,-245.4691 1441.3125,-246.042 1449.94,-252.1915 1451.8918,-245.4691"/>
</g>
<!-- test/unit/main_shell -->
<g id="node27" class="node">
<title>test/unit/main_shell</title>
<polygon fill="none" stroke="#000000" points="332.4398,-324 205.5602,-324 205.5602,-288 332.4398,-288 332.4398,-324"/>
<text text-anchor="middle" x="269" y="-301.8" font-family="Times,serif" font-size="14.00" fill="#000000">test/unit/main_shell</text>
</g>
<!-- test/unit/main_shell&#45;&gt;core -->
<g id="edge59" class="edge">
<title>test/unit/main_shell&#45;&gt;core</title>
<path fill="none" stroke="#000000" d="M332.2786,-300.7294C406.9097,-293.617 534.3165,-278.6569 641,-252 686.8278,-240.5491 696.4579,-231.7261 741,-216 782.8219,-201.2343 831.0867,-184.5876 862.7223,-173.7298"/>
<polygon fill="#000000" stroke="#000000" points="864.0563,-176.9725 872.3801,-170.4176 861.7854,-170.351 864.0563,-176.9725"/>
</g>
<!-- test/unit/main_shell&#45;&gt;data -->
<g id="edge60" class="edge">
<title>test/unit/main_shell&#45;&gt;data</title>
<path fill="none" stroke="#000000" d="M205.524,-294.466C161.5036,-285.0263 108.4606,-270.2713 95,-252 36.1583,-172.1286 137.4221,-114.633 227,-72 296.7756,-38.7915 845.0067,-22.6813 993.8314,-18.8922"/>
<polygon fill="#000000" stroke="#000000" points="993.9355,-22.3908 1003.8444,-18.6406 993.7596,-15.393 993.9355,-22.3908"/>
</g>
<!-- test/unit/main_shell&#45;&gt;engine/constant -->
<g id="edge61" class="edge">
<title>test/unit/main_shell&#45;&gt;engine/constant</title>
<path fill="none" stroke="#000000" d="M296.0006,-287.8314C310.0774,-278.3591 327.4287,-266.6835 342.3699,-256.6296"/>
<polygon fill="#000000" stroke="#000000" points="344.503,-259.4129 350.8456,-250.9263 340.5951,-253.6053 344.503,-259.4129"/>
</g>
<!-- test/unit/main_shell&#45;&gt;iface -->
<g id="edge62" class="edge">
<title>test/unit/main_shell&#45;&gt;iface</title>
<path fill="none" stroke="#000000" d="M263.8818,-287.9122C259.4852,-268.2864 255.972,-236.9561 271,-216 325.5683,-139.906 377.9137,-165.7089 469,-144 618.0288,-108.4814 800.6042,-95.7728 879.9803,-91.7093"/>
<polygon fill="#000000" stroke="#000000" points="880.22,-95.2019 890.0353,-91.213 879.8749,-88.2104 880.22,-95.2019"/>
</g>
<!-- test/unit/main_shell&#45;&gt;main_shell -->
<g id="edge63" class="edge">
<title>test/unit/main_shell&#45;&gt;main_shell</title>
<path fill="none" stroke="#000000" d="M240.7377,-287.8314C225.428,-277.9894 206.418,-265.7687 190.3821,-255.4599"/>
<polygon fill="#000000" stroke="#000000" points="192.1261,-252.4203 181.8217,-249.9568 188.3408,-258.3085 192.1261,-252.4203"/>
</g>
<!-- test/unit/main_shell&#45;&gt;mock -->
<g id="edge64" class="edge">
<title>test/unit/main_shell&#45;&gt;mock</title>
<path fill="none" stroke="#000000" d="M268.9136,-287.896C269.8565,-267.3444 274.7145,-234.3049 295,-216 332.0466,-182.5704 477.6448,-169.0587 551.1113,-164.2832"/>
<polygon fill="#000000" stroke="#000000" points="551.6433,-167.7569 561.4058,-163.6407 551.2071,-160.7705 551.6433,-167.7569"/>
</g>
<!-- test/unit/mdb -->
<g id="node28" class="node">
<title>test/unit/mdb</title>
<polygon fill="none" stroke="#000000" points="704.8935,-324 615.1065,-324 615.1065,-288 704.8935,-288 704.8935,-324"/>
<text text-anchor="middle" x="660" y="-301.8" font-family="Times,serif" font-size="14.00" fill="#000000">test/unit/mdb</text>
</g>
<!-- test/unit/mdb&#45;&gt;core -->
<g id="edge65" class="edge">
<title>test/unit/mdb&#45;&gt;core</title>
<path fill="none" stroke="#000000" d="M686.3204,-287.9493C713.8026,-269.3125 758.3462,-239.6955 798,-216 820.488,-202.562 846.5148,-188.4188 866.2371,-177.9789"/>
<polygon fill="#000000" stroke="#000000" points="867.8766,-181.0712 875.094,-173.3149 864.615,-174.8775 867.8766,-181.0712"/>
</g>
<!-- test/unit/mdb&#45;&gt;data -->
<g id="edge66" class="edge">
<title>test/unit/mdb&#45;&gt;data</title>
<path fill="none" stroke="#000000" d="M614.9247,-299.5897C586.2069,-292.9171 551.1083,-279.3768 533,-252 516.1478,-226.5222 548.9685,-148.272 553,-144 614.4405,-78.8953 893.1741,-36.2256 994.2503,-22.6606"/>
<polygon fill="#000000" stroke="#000000" points="994.8425,-26.1128 1004.2964,-21.33 993.9234,-19.1734 994.8425,-26.1128"/>
</g>
<!-- test/unit/mdb&#45;&gt;engine/constant -->
<g id="edge67" class="edge">
<title>test/unit/mdb&#45;&gt;engine/constant</title>
<path fill="none" stroke="#000000" d="M614.9994,-294.5914C566.7039,-282.3475 489.7335,-262.8338 436.241,-249.2724"/>
<polygon fill="#000000" stroke="#000000" points="437.0917,-245.8774 426.5382,-246.8125 435.3714,-252.6627 437.0917,-245.8774"/>
</g>
<!-- test/unit/mdb&#45;&gt;iface -->
<g id="edge68" class="edge">
<title>test/unit/mdb&#45;&gt;iface</title>
<path fill="none" stroke="#000000" d="M661.6507,-287.9636C665.6936,-254.528 679.1373,-182.8059 722,-144 745.2902,-122.9141 830.4517,-105.2539 881.1899,-96.3057"/>
<polygon fill="#000000" stroke="#000000" points="881.8977,-99.7354 891.1548,-94.5821 880.7046,-92.8378 881.8977,-99.7354"/>
</g>
<!-- test/unit/mdb&#45;&gt;mdb -->
<g id="edge69" class="edge">
<title>test/unit/mdb&#45;&gt;mdb</title>
<path fill="none" stroke="#000000" d="M705.2682,-297.8108C784.498,-283.4777 946.8557,-254.1065 1020.361,-240.8091"/>
<polygon fill="#000000" stroke="#000000" points="1021.3236,-244.1918 1030.5408,-238.9675 1020.0775,-237.3036 1021.3236,-244.1918"/>
</g>
<!-- test/unit/pragma -->
<g id="node29" class="node">
<title>test/unit/pragma</title>
<polygon fill="none" stroke="#000000" points="495.4832,-396 388.5168,-396 388.5168,-360 495.4832,-360 495.4832,-396"/>
<text text-anchor="middle" x="442" y="-373.8" font-family="Times,serif" font-size="14.00" fill="#000000">test/unit/pragma</text>
</g>
<!-- test/unit/pragma&#45;&gt;core -->
<g id="edge70" class="edge">
<title>test/unit/pragma&#45;&gt;core</title>
<path fill="none" stroke="#000000" d="M495.708,-370.7392C563.6575,-360.9709 676.3663,-342.6593 714,-324 714.1466,-323.9273 822.9918,-227.5415 872.7257,-183.4977"/>
<polygon fill="#000000" stroke="#000000" points="875.2873,-185.9043 880.4532,-176.6542 870.6464,-180.6639 875.2873,-185.9043"/>
</g>
<!-- test/unit/pragma&#45;&gt;data -->
<g id="edge71" class="edge">
<title>test/unit/pragma&#45;&gt;data</title>
<path fill="none" stroke="#000000" d="M388.5037,-374.6388C331.818,-369.4562 240.7637,-356.4323 169,-324 121.0449,-302.3276 98.2958,-299.1878 75,-252 67.1885,-236.177 72.1145,-160.8561 80,-144 99.5798,-102.1462 112.683,-90.5575 155,-72 232.5828,-37.9772 836.4533,-22.3148 993.6786,-18.7886"/>
<polygon fill="#000000" stroke="#000000" points="993.877,-22.2852 1003.7971,-18.5647 993.722,-15.2869 993.877,-22.2852"/>
</g>
<!-- test/unit/pragma&#45;&gt;engine/constant -->
<g id="edge72" class="edge">
<title>test/unit/pragma&#45;&gt;engine/constant</title>
<path fill="none" stroke="#000000" d="M433.6411,-359.7623C422.235,-334.8764 401.7044,-290.0822 388.4742,-261.2165"/>
<polygon fill="#000000" stroke="#000000" points="391.6394,-259.722 384.2911,-252.0896 385.2759,-262.6386 391.6394,-259.722"/>
</g>
<!-- test/unit/pragma&#45;&gt;main_shell -->
<g id="edge73" class="edge">
<title>test/unit/pragma&#45;&gt;main_shell</title>
<path fill="none" stroke="#000000" d="M388.4465,-371.8837C325.4696,-363.735 225.8452,-347.5537 197,-324 178.0525,-308.5283 167.7902,-282.2419 162.4231,-262.06"/>
<polygon fill="#000000" stroke="#000000" points="165.782,-261.0579 160.0426,-252.1523 158.9757,-262.6932 165.782,-261.0579"/>
</g>
<!-- test/unit/pragma&#45;&gt;mock -->
<g id="edge74" class="edge">
<title>test/unit/pragma&#45;&gt;mock</title>
<path fill="none" stroke="#000000" d="M449.7892,-359.7715C463.6896,-328.44 494.9135,-263.1949 533,-216 542.7207,-203.9546 555.278,-192.3394 566.4703,-182.9878"/>
<polygon fill="#000000" stroke="#000000" points="568.7689,-185.6298 574.3186,-176.6047 564.3521,-180.1991 568.7689,-185.6298"/>
</g>
<!-- test/unit/pragma&#45;&gt;pragma -->
<g id="edge75" class="edge">
<title>test/unit/pragma&#45;&gt;pragma</title>
<path fill="none" stroke="#000000" d="M495.8155,-374.161C590.048,-367.0421 790.9021,-350.1014 959,-324 972.4815,-321.9067 987.0332,-319.111 1000.306,-316.3482"/>
<polygon fill="#000000" stroke="#000000" points="1001.1127,-319.755 1010.1676,-314.2541 999.6587,-312.9077 1001.1127,-319.755"/>
</g>
<!-- test/unit/replace_part -->
<g id="node30" class="node">
<title>test/unit/replace_part</title>
<polygon fill="none" stroke="#000000" points="2307.1783,-468 2172.8217,-468 2172.8217,-432 2307.1783,-432 2307.1783,-468"/>
<text text-anchor="middle" x="2240" y="-445.8" font-family="Times,serif" font-size="14.00" fill="#000000">test/unit/replace_part</text>
</g>
<!-- test/unit/replace_part&#45;&gt;replace_part -->
<g id="edge76" class="edge">
<title>test/unit/replace_part&#45;&gt;replace_part</title>
<path fill="none" stroke="#000000" d="M2240,-431.8314C2240,-424.131 2240,-414.9743 2240,-406.4166"/>
<polygon fill="#000000" stroke="#000000" points="2243.5001,-406.4132 2240,-396.4133 2236.5001,-406.4133 2243.5001,-406.4132"/>
</g>
<!-- test/unit/system_test -->
<g id="node31" class="node">
<title>test/unit/system_test</title>
<polygon fill="none" stroke="#000000" points="1602.3286,-252 1471.6714,-252 1471.6714,-216 1602.3286,-216 1602.3286,-252"/>
<text text-anchor="middle" x="1537" y="-229.8" font-family="Times,serif" font-size="14.00" fill="#000000">test/unit/system_test</text>
</g>
<!-- test/unit/system_test&#45;&gt;system_test -->
<g id="edge77" class="edge">
<title>test/unit/system_test&#45;&gt;system_test</title>
<path fill="none" stroke="#000000" d="M1602.1881,-216.0171C1646.4057,-203.8191 1704.1021,-187.9029 1745.3919,-176.5126"/>
<polygon fill="#000000" stroke="#000000" points="1746.5447,-179.8254 1755.2538,-173.792 1744.6831,-173.0774 1746.5447,-179.8254"/>
</g>
</g>
</svg>
