<?xml version="1.0" encoding="UTF-8" standalone="no"?>
<!DOCTYPE svg PUBLIC "-//W3C//DTD SVG 1.1//EN"
 "http://www.w3.org/Graphics/SVG/1.1/DTD/svg11.dtd">
<!-- Generated by graphviz version 2.40.1
 -->
<!-- Title: %3 Pages: 1 -->
<svg width="1867pt" height="476pt"
 viewBox="0.00 0.00 1867.46 476.00" xmlns="http://www.w3.org/2000/svg" xmlns:xlink="http://www.w3.org/1999/xlink">
<g id="graph0" class="graph" transform="scale(1 1) rotate(0) translate(4 472)">
<title>%3</title>
<polygon fill="#ffffff" stroke="transparent" points="-4,4 -4,-472 1863.4572,-472 1863.4572,4 -4,4"/>
<!-- core -->
<g id="node1" class="node">
<title>core</title>
<ellipse fill="#ffffff" stroke="#000000" cx="646.0891" cy="-162" rx="27.8073" ry="18"/>
<text text-anchor="middle" x="646.0891" y="-157.8" font-family="Times,serif" font-size="14.00" fill="#000000">core</text>
</g>
<!-- data -->
<g id="node2" class="node">
<title>data</title>
<ellipse fill="#ffffff" stroke="#000000" cx="861.0891" cy="-18" rx="27.2447" ry="18"/>
<text text-anchor="middle" x="861.0891" y="-13.8" font-family="Times,serif" font-size="14.00" fill="#000000">data</text>
</g>
<!-- core&#45;&gt;data -->
<g id="edge1" class="edge">
<title>core&#45;&gt;data</title>
<path fill="none" stroke="#000000" d="M653.2251,-144.2365C662.2131,-124.0046 679.5109,-91.2652 704.0891,-72 739.5532,-44.2021 790.2501,-30.2174 824.3511,-23.5416"/>
<polygon fill="#000000" stroke="#000000" points="825.1654,-26.9506 834.3661,-21.6973 823.8976,-20.0664 825.1654,-26.9506"/>
</g>
<!-- iface -->
<g id="node4" class="node">
<title>iface</title>
<ellipse fill="#ffffff" stroke="#000000" cx="743.0891" cy="-90" rx="29.5916" ry="18"/>
<text text-anchor="middle" x="743.0891" y="-85.8" font-family="Times,serif" font-size="14.00" fill="#000000">iface</text>
</g>
<!-- core&#45;&gt;iface -->
<g id="edge2" class="edge">
<title>core&#45;&gt;iface</title>
<path fill="none" stroke="#000000" d="M664.3341,-148.4574C678.915,-137.6344 699.5703,-122.3026 716.0694,-110.0559"/>
<polygon fill="#000000" stroke="#000000" points="718.3207,-112.7437 724.2643,-103.973 714.1485,-107.1229 718.3207,-112.7437"/>
</g>
<!-- process -->
<g id="node10" class="node">
<title>process</title>
<ellipse fill="#ffffff" stroke="#000000" cx="1174.0891" cy="-90" rx="39.9857" ry="18"/>
<text text-anchor="middle" x="1174.0891" y="-85.8" font-family="Times,serif" font-size="14.00" fill="#000000">process</text>
</g>
<!-- core&#45;&gt;process -->
<g id="edge3" class="edge">
<title>core&#45;&gt;process</title>
<path fill="none" stroke="#000000" d="M673.2564,-158.385C737.8838,-149.774 905.8641,-127.3246 1046.0891,-108 1072.4464,-104.3677 1101.845,-100.239 1125.8143,-96.8528"/>
<polygon fill="#000000" stroke="#000000" points="1126.3183,-100.3164 1135.7297,-95.4506 1125.3382,-93.3854 1126.3183,-100.3164"/>
</g>
<!-- defaults -->
<g id="node3" class="node">
<title>defaults</title>
<ellipse fill="#ffffff" stroke="#000000" cx="440.0891" cy="-378" rx="41.7095" ry="18"/>
<text text-anchor="middle" x="440.0891" y="-373.8" font-family="Times,serif" font-size="14.00" fill="#000000">defaults</text>
</g>
<!-- defaults&#45;&gt;core -->
<g id="edge4" class="edge">
<title>defaults&#45;&gt;core</title>
<path fill="none" stroke="#000000" d="M456.8142,-361.1824C466.6999,-350.8601 479.1809,-337.1402 489.0891,-324 523.0973,-278.8983 515.8518,-255.6444 556.0891,-216 572.7795,-199.5555 595.4096,-186.0069 613.8016,-176.5939"/>
<polygon fill="#000000" stroke="#000000" points="615.5671,-179.6255 622.9792,-172.055 612.4639,-173.3509 615.5671,-179.6255"/>
</g>
<!-- defaults&#45;&gt;iface -->
<g id="edge5" class="edge">
<title>defaults&#45;&gt;iface</title>
<path fill="none" stroke="#000000" d="M399.9078,-373.0388C365.2778,-366.877 315.8315,-353.3281 283.0891,-324 245.6051,-290.4248 226.9293,-261.1806 249.0891,-216 272.1077,-169.0683 293.8683,-164.1792 342.0891,-144 406.8498,-116.8992 614.9303,-99.1991 703.0559,-92.7407"/>
<polygon fill="#000000" stroke="#000000" points="703.4687,-96.2201 713.1906,-92.0089 702.9645,-89.2383 703.4687,-96.2201"/>
</g>
<!-- pragma -->
<g id="node9" class="node">
<title>pragma</title>
<ellipse fill="#ffffff" stroke="#000000" cx="440.0891" cy="-306" rx="39.9876" ry="18"/>
<text text-anchor="middle" x="440.0891" y="-301.8" font-family="Times,serif" font-size="14.00" fill="#000000">pragma</text>
</g>
<!-- defaults&#45;&gt;pragma -->
<g id="edge6" class="edge">
<title>defaults&#45;&gt;pragma</title>
<path fill="none" stroke="#000000" d="M440.0891,-359.8314C440.0891,-352.131 440.0891,-342.9743 440.0891,-334.4166"/>
<polygon fill="#000000" stroke="#000000" points="443.5892,-334.4132 440.0891,-324.4133 436.5892,-334.4133 443.5892,-334.4132"/>
</g>
<!-- iface&#45;&gt;data -->
<g id="edge7" class="edge">
<title>iface&#45;&gt;data</title>
<path fill="none" stroke="#000000" d="M764.1851,-77.1278C783.2106,-65.5191 811.3552,-48.3461 832.4175,-35.4945"/>
<polygon fill="#000000" stroke="#000000" points="834.25,-38.4766 840.9634,-30.2801 830.6039,-32.5011 834.25,-38.4766"/>
</g>
<!-- main_shell -->
<g id="node5" class="node">
<title>main_shell</title>
<ellipse fill="#ffffff" stroke="#000000" cx="803.0891" cy="-234" rx="53.3283" ry="18"/>
<text text-anchor="middle" x="803.0891" y="-229.8" font-family="Times,serif" font-size="14.00" fill="#000000">main_shell</text>
</g>
<!-- main_shell&#45;&gt;core -->
<g id="edge8" class="edge">
<title>main_shell&#45;&gt;core</title>
<path fill="none" stroke="#000000" d="M771.3178,-219.4297C744.2267,-207.0058 705.4613,-189.228 678.2571,-176.7522"/>
<polygon fill="#000000" stroke="#000000" points="679.7036,-173.5651 669.1548,-172.5779 676.7856,-179.9279 679.7036,-173.5651"/>
</g>
<!-- main_shell&#45;&gt;data -->
<g id="edge9" class="edge">
<title>main_shell&#45;&gt;data</title>
<path fill="none" stroke="#000000" d="M805.8059,-215.9214C808.7158,-197.6416 813.7789,-168.6471 820.0891,-144 828.9149,-109.5276 842.0445,-70.7104 851.0543,-45.3855"/>
<polygon fill="#000000" stroke="#000000" points="854.4349,-46.3273 854.5217,-35.7328 847.847,-43.9608 854.4349,-46.3273"/>
</g>
<!-- main_shell&#45;&gt;iface -->
<g id="edge10" class="edge">
<title>main_shell&#45;&gt;iface</title>
<path fill="none" stroke="#000000" d="M795.6114,-216.0535C785.2702,-191.2347 766.5151,-146.2224 754.4403,-117.2428"/>
<polygon fill="#000000" stroke="#000000" points="757.5496,-115.605 750.4726,-107.7204 751.088,-118.2973 757.5496,-115.605"/>
</g>
<!-- mdb -->
<g id="node6" class="node">
<title>mdb</title>
<ellipse fill="#ffffff" stroke="#000000" cx="286.0891" cy="-234" rx="28.4127" ry="18"/>
<text text-anchor="middle" x="286.0891" y="-229.8" font-family="Times,serif" font-size="14.00" fill="#000000">mdb</text>
</g>
<!-- mdb&#45;&gt;core -->
<g id="edge11" class="edge">
<title>mdb&#45;&gt;core</title>
<path fill="none" stroke="#000000" d="M313.1476,-228.5883C376.8922,-215.8394 536.5763,-183.9026 609.1534,-169.3871"/>
<polygon fill="#000000" stroke="#000000" points="610.0883,-172.7696 619.2077,-167.3763 608.7154,-165.9055 610.0883,-172.7696"/>
</g>
<!-- mdb&#45;&gt;data -->
<g id="edge12" class="edge">
<title>mdb&#45;&gt;data</title>
<path fill="none" stroke="#000000" d="M284.724,-215.7644C283.2815,-181.6664 285.6387,-108.4169 328.0891,-72 365.6109,-39.8112 708.4496,-23.8421 823.582,-19.3538"/>
<polygon fill="#000000" stroke="#000000" points="823.8241,-22.8471 833.6828,-18.9668 823.5561,-15.8523 823.8241,-22.8471"/>
</g>
<!-- mdb&#45;&gt;iface -->
<g id="edge13" class="edge">
<title>mdb&#45;&gt;iface</title>
<path fill="none" stroke="#000000" d="M301.2459,-218.3578C322.2647,-197.7002 362.4075,-161.8578 404.0891,-144 457.3895,-121.1643 625.539,-101.8432 703.1356,-93.8884"/>
<polygon fill="#000000" stroke="#000000" points="703.8662,-97.3324 713.4624,-92.8422 703.1606,-90.368 703.8662,-97.3324"/>
</g>
<!-- mock -->
<g id="node7" class="node">
<title>mock</title>
<ellipse fill="#ffffff" stroke="#000000" cx="861.0891" cy="-162" rx="32.4846" ry="18"/>
<text text-anchor="middle" x="861.0891" y="-157.8" font-family="Times,serif" font-size="14.00" fill="#000000">mock</text>
</g>
<!-- mock&#45;&gt;iface -->
<g id="edge14" class="edge">
<title>mock&#45;&gt;iface</title>
<path fill="none" stroke="#000000" d="M839.1707,-148.6261C820.476,-137.2191 793.4281,-120.7153 772.7901,-108.1227"/>
<polygon fill="#000000" stroke="#000000" points="774.4564,-105.0393 764.0969,-102.8183 770.8103,-111.0148 774.4564,-105.0393"/>
</g>
<!-- pattern -->
<g id="node8" class="node">
<title>pattern</title>
<ellipse fill="#ffffff" stroke="#000000" cx="1568.0891" cy="-90" rx="37.6986" ry="18"/>
<text text-anchor="middle" x="1568.0891" y="-85.8" font-family="Times,serif" font-size="14.00" fill="#000000">pattern</text>
</g>
<!-- pragma&#45;&gt;core -->
<g id="edge15" class="edge">
<title>pragma&#45;&gt;core</title>
<path fill="none" stroke="#000000" d="M451.4383,-288.6414C465.1719,-268.79 489.9794,-236.4076 518.0891,-216 546.3854,-195.4569 583.6843,-180.8629 610.7139,-172.0684"/>
<polygon fill="#000000" stroke="#000000" points="612.0408,-175.3202 620.5302,-168.9814 609.9408,-168.6426 612.0408,-175.3202"/>
</g>
<!-- pragma&#45;&gt;data -->
<g id="edge16" class="edge">
<title>pragma&#45;&gt;data</title>
<path fill="none" stroke="#000000" d="M439.4526,-287.8984C439.4728,-269.09 441.453,-239.2161 452.0891,-216 469.9216,-177.0758 481.7668,-169.5943 516.0891,-144 613.6178,-71.2725 757.4033,-36.9638 824.3243,-24.2044"/>
<polygon fill="#000000" stroke="#000000" points="825.1915,-27.6034 834.3859,-22.339 823.9154,-20.7206 825.1915,-27.6034"/>
</g>
<!-- pragma&#45;&gt;iface -->
<g id="edge17" class="edge">
<title>pragma&#45;&gt;iface</title>
<path fill="none" stroke="#000000" d="M443.7386,-287.837C448.4919,-268.1453 458.4846,-236.7577 477.0891,-216 539.1839,-146.7184 647.5005,-112.2513 704.8842,-98.1217"/>
<polygon fill="#000000" stroke="#000000" points="705.7331,-101.5175 714.6486,-95.7934 704.1095,-94.7084 705.7331,-101.5175"/>
</g>
<!-- pragma&#45;&gt;mdb -->
<g id="edge18" class="edge">
<title>pragma&#45;&gt;mdb</title>
<path fill="none" stroke="#000000" d="M412.2009,-292.9613C385.8389,-280.6363 346.2958,-262.1486 318.5336,-249.1689"/>
<polygon fill="#000000" stroke="#000000" points="319.7872,-245.8914 309.246,-244.8266 316.8225,-252.2325 319.7872,-245.8914"/>
</g>
<!-- process&#45;&gt;data -->
<g id="edge19" class="edge">
<title>process&#45;&gt;data</title>
<path fill="none" stroke="#000000" d="M1142.5813,-78.8143C1135.2478,-76.4016 1127.4354,-73.983 1120.0891,-72 1041.6357,-50.8228 947.9216,-33.126 897.5079,-24.2131"/>
<polygon fill="#000000" stroke="#000000" points="897.8827,-20.7255 887.4285,-22.4464 896.6741,-27.6204 897.8827,-20.7255"/>
</g>
<!-- readline -->
<g id="node11" class="node">
<title>readline</title>
<ellipse fill="#ffffff" stroke="#000000" cx="1138.0891" cy="-162" rx="42.2719" ry="18"/>
<text text-anchor="middle" x="1138.0891" y="-157.8" font-family="Times,serif" font-size="14.00" fill="#000000">readline</text>
</g>
<!-- readline&#45;&gt;data -->
<g id="edge20" class="edge">
<title>readline&#45;&gt;data</title>
<path fill="none" stroke="#000000" d="M1131.6624,-143.8367C1123.4195,-123.2292 1107.1266,-90.1374 1082.0891,-72 1052.8661,-50.8305 952.7693,-32.3703 897.8609,-23.5367"/>
<polygon fill="#000000" stroke="#000000" points="898.2629,-20.0569 887.8387,-21.9506 897.1687,-26.9708 898.2629,-20.0569"/>
</g>
<!-- readline&#45;&gt;iface -->
<g id="edge21" class="edge">
<title>readline&#45;&gt;iface</title>
<path fill="none" stroke="#000000" d="M1099.6912,-154.5421C1082.6664,-151.2626 1062.387,-147.3931 1044.0891,-144 949.981,-126.5487 839.1458,-106.8967 781.8126,-96.7979"/>
<polygon fill="#000000" stroke="#000000" points="782.2013,-93.3126 771.7459,-95.0262 780.9878,-100.2067 782.2013,-93.3126"/>
</g>
<!-- replace_part -->
<g id="node12" class="node">
<title>replace_part</title>
<ellipse fill="#ffffff" stroke="#000000" cx="67.0891" cy="-378" rx="58.5059" ry="18"/>
<text text-anchor="middle" x="67.0891" y="-373.8" font-family="Times,serif" font-size="14.00" fill="#000000">replace_part</text>
</g>
<!-- system_test -->
<g id="node13" class="node">
<title>system_test</title>
<ellipse fill="#ffffff" stroke="#000000" cx="1483.0891" cy="-162" rx="56.1937" ry="18"/>
<text text-anchor="middle" x="1483.0891" y="-157.8" font-family="Times,serif" font-size="14.00" fill="#000000">system_test</text>
</g>
<!-- system_test&#45;&gt;pattern -->
<g id="edge22" class="edge">
<title>system_test&#45;&gt;pattern</title>
<path fill="none" stroke="#000000" d="M1503.2329,-144.937C1514.7506,-135.1808 1529.3306,-122.8307 1541.7482,-112.3123"/>
<polygon fill="#000000" stroke="#000000" points="1544.1739,-114.8445 1549.5422,-105.7103 1539.6495,-109.5032 1544.1739,-114.8445"/>
</g>
<!-- system_test&#45;&gt;process -->
<g id="edge23" class="edge">
<title>system_test&#45;&gt;process</title>
<path fill="none" stroke="#000000" d="M1437.4951,-151.3762C1379.0568,-137.7595 1278.3241,-114.2878 1219.8199,-100.6557"/>
<polygon fill="#000000" stroke="#000000" points="1220.2903,-97.1716 1209.7569,-98.3109 1218.7017,-103.989 1220.2903,-97.1716"/>
</g>
<!-- app/metashell -->
<g id="node14" class="node">
<title>app/metashell</title>
<polygon fill="none" stroke="#000000" points="1034.8454,-468 941.3328,-468 941.3328,-432 1034.8454,-432 1034.8454,-468"/>
<text text-anchor="middle" x="988.0891" y="-445.8" font-family="Times,serif" font-size="14.00" fill="#000000">app/metashell</text>
</g>
<!-- app/metashell&#45;&gt;core -->
<g id="edge24" class="edge">
<title>app/metashell&#45;&gt;core</title>
<path fill="none" stroke="#000000" d="M941.3261,-445.5222C855.2351,-436.8189 678.7108,-416.6543 660.0891,-396 608.4227,-338.694 625.6042,-237.9277 637.9957,-189.5029"/>
<polygon fill="#000000" stroke="#000000" points="641.4077,-190.2919 640.6169,-179.7267 634.6465,-188.4791 641.4077,-190.2919"/>
</g>
<!-- app/metashell&#45;&gt;data -->
<g id="edge25" class="edge">
<title>app/metashell&#45;&gt;data</title>
<path fill="none" stroke="#000000" d="M1034.8478,-447.2005C1214.7281,-435.8183 1852.0891,-389.5905 1852.0891,-306 1852.0891,-306 1852.0891,-306 1852.0891,-162 1852.0891,-140.326 1906.4965,-134.6021 1717.0891,-72 1638.7341,-46.1024 1054.2121,-24.5645 898.894,-19.255"/>
<polygon fill="#000000" stroke="#000000" points="898.5787,-15.7424 888.4657,-18.901 898.3411,-22.7384 898.5787,-15.7424"/>
</g>
<!-- app/metashell&#45;&gt;defaults -->
<g id="edge26" class="edge">
<title>app/metashell&#45;&gt;defaults</title>
<path fill="none" stroke="#000000" d="M940.8926,-443.799C838.2561,-430.3139 595.5402,-398.4242 490.2584,-384.5916"/>
<polygon fill="#000000" stroke="#000000" points="490.5791,-381.1037 480.2083,-383.2711 489.6671,-388.0441 490.5791,-381.1037"/>
</g>
<!-- app/metashell&#45;&gt;iface -->
<g id="edge27" class="edge">
<title>app/metashell&#45;&gt;iface</title>
<path fill="none" stroke="#000000" d="M1006.8568,-431.6906C1034.5794,-402.3284 1081.426,-342.4693 1064.0891,-288 1040.2238,-213.0196 1026.2946,-188.0437 961.0891,-144 932.1006,-124.4194 836.6483,-105.7581 782.1456,-96.3471"/>
<polygon fill="#000000" stroke="#000000" points="782.5923,-92.8728 772.1467,-94.645 781.4175,-99.7736 782.5923,-92.8728"/>
</g>
<!-- app/metashell&#45;&gt;main_shell -->
<g id="edge28" class="edge">
<title>app/metashell&#45;&gt;main_shell</title>
<path fill="none" stroke="#000000" d="M972.6343,-431.9555C939.6878,-393.4882 862.4759,-303.3381 824.6888,-259.2191"/>
<polygon fill="#000000" stroke="#000000" points="827.2748,-256.8579 818.1114,-251.5396 821.9582,-261.4114 827.2748,-256.8579"/>
</g>
<!-- app/metashell&#45;&gt;readline -->
<g id="edge29" class="edge">
<title>app/metashell&#45;&gt;readline</title>
<path fill="none" stroke="#000000" d="M1035.1637,-443.3944C1064.5106,-436.6562 1100.3335,-423.1167 1120.0891,-396 1165.146,-334.1545 1153.7836,-237.1213 1144.5313,-189.8081"/>
<polygon fill="#000000" stroke="#000000" points="1147.9478,-189.0461 1142.4935,-179.963 1141.0931,-190.4649 1147.9478,-189.0461"/>
</g>
<!-- app/reference_gen -->
<g id="node15" class="node">
<title>app/reference_gen</title>
<polygon fill="none" stroke="#000000" points="323.9643,-468 204.2139,-468 204.2139,-432 323.9643,-432 323.9643,-468"/>
<text text-anchor="middle" x="264.0891" y="-445.8" font-family="Times,serif" font-size="14.00" fill="#000000">app/reference_gen</text>
</g>
<!-- app/reference_gen&#45;&gt;core -->
<g id="edge30" class="edge">
<title>app/reference_gen&#45;&gt;core</title>
<path fill="none" stroke="#000000" d="M323.8934,-440.8788C381.72,-431.165 464.3953,-414.643 491.0891,-396 530.743,-368.3057 602.103,-242.8525 632.151,-187.9082"/>
<polygon fill="#000000" stroke="#000000" points="635.2316,-189.5696 636.9371,-179.113 629.083,-186.2238 635.2316,-189.5696"/>
</g>
<!-- app/reference_gen&#45;&gt;data -->
<g id="edge31" class="edge">
<title>app/reference_gen&#45;&gt;data</title>
<path fill="none" stroke="#000000" d="M237.4612,-431.9905C204.9064,-407.592 154.0891,-360.7396 154.0891,-306 154.0891,-306 154.0891,-306 154.0891,-162 154.0891,-100.1982 203.0887,-95.8832 260.0891,-72 362.6871,-29.0114 708.6613,-20.1848 823.6094,-18.4249"/>
<polygon fill="#000000" stroke="#000000" points="823.7365,-21.9235 833.6851,-18.2799 823.6357,-14.9242 823.7365,-21.9235"/>
</g>
<!-- app/reference_gen&#45;&gt;defaults -->
<g id="edge32" class="edge">
<title>app/reference_gen&#45;&gt;defaults</title>
<path fill="none" stroke="#000000" d="M308.5013,-431.8314C336.8312,-420.2419 373.2243,-405.3538 400.554,-394.1734"/>
<polygon fill="#000000" stroke="#000000" points="401.8846,-397.4107 409.8148,-390.3849 399.2341,-390.9319 401.8846,-397.4107"/>
</g>
<!-- app/reference_gen&#45;&gt;mdb -->
<g id="edge33" class="edge">
<title>app/reference_gen&#45;&gt;mdb</title>
<path fill="none" stroke="#000000" d="M265.927,-431.9555C269.7608,-394.3144 278.6349,-307.1867 283.2246,-262.1246"/>
<polygon fill="#000000" stroke="#000000" points="286.7096,-262.4483 284.241,-252.1451 279.7456,-261.7389 286.7096,-262.4483"/>
</g>
<!-- app/reference_gen&#45;&gt;replace_part -->
<g id="edge34" class="edge">
<title>app/reference_gen&#45;&gt;replace_part</title>
<path fill="none" stroke="#000000" d="M214.632,-431.9243C183.9843,-420.7231 144.8321,-406.4137 114.562,-395.3505"/>
<polygon fill="#000000" stroke="#000000" points="115.662,-392.0261 105.0681,-391.8807 113.259,-398.6008 115.662,-392.0261"/>
</g>
<!-- test/system/core -->
<g id="node16" class="node">
<title>test/system/core</title>
<polygon fill="none" stroke="#000000" points="1672.2857,-252 1565.8925,-252 1565.8925,-216 1672.2857,-216 1672.2857,-252"/>
<text text-anchor="middle" x="1619.0891" y="-229.8" font-family="Times,serif" font-size="14.00" fill="#000000">test/system/core</text>
</g>
<!-- test/system/core&#45;&gt;system_test -->
<g id="edge35" class="edge">
<title>test/system/core&#45;&gt;system_test</title>
<path fill="none" stroke="#000000" d="M1584.7706,-215.8314C1565.4782,-205.6177 1541.3467,-192.8423 1521.4343,-182.3004"/>
<polygon fill="#000000" stroke="#000000" points="1522.8027,-179.0646 1512.3271,-177.479 1519.5274,-185.2512 1522.8027,-179.0646"/>
</g>
<!-- test/system/mdb -->
<g id="node17" class="node">
<title>test/system/mdb</title>
<polygon fill="none" stroke="#000000" points="1278.5863,-252 1171.5919,-252 1171.5919,-216 1278.5863,-216 1278.5863,-252"/>
<text text-anchor="middle" x="1225.0891" y="-229.8" font-family="Times,serif" font-size="14.00" fill="#000000">test/system/mdb</text>
</g>
<!-- test/system/mdb&#45;&gt;system_test -->
<g id="edge36" class="edge">
<title>test/system/mdb&#45;&gt;system_test</title>
<path fill="none" stroke="#000000" d="M1278.8447,-218.3447C1281.6319,-217.5482 1284.3928,-216.7628 1287.0891,-216 1335.6186,-202.2709 1391.0368,-187.0444 1430.5342,-176.2693"/>
<polygon fill="#000000" stroke="#000000" points="1431.4915,-179.6362 1440.2191,-173.6294 1429.6506,-172.8826 1431.4915,-179.6362"/>
</g>
<!-- test/system/pdb -->
<g id="node18" class="node">
<title>test/system/pdb</title>
<polygon fill="none" stroke="#000000" points="1399.6958,-252 1296.4824,-252 1296.4824,-216 1399.6958,-216 1399.6958,-252"/>
<text text-anchor="middle" x="1348.0891" y="-229.8" font-family="Times,serif" font-size="14.00" fill="#000000">test/system/pdb</text>
</g>
<!-- test/system/pdb&#45;&gt;system_test -->
<g id="edge37" class="edge">
<title>test/system/pdb&#45;&gt;system_test</title>
<path fill="none" stroke="#000000" d="M1382.1553,-215.8314C1401.3058,-205.6177 1425.2598,-192.8423 1445.0258,-182.3004"/>
<polygon fill="#000000" stroke="#000000" points="1446.8896,-185.2731 1454.066,-177.479 1443.5954,-179.0967 1446.8896,-185.2731"/>
</g>
<!-- test/system/pp -->
<g id="node19" class="node">
<title>test/system/pp</title>
<polygon fill="none" stroke="#000000" points="1786.1958,-252 1689.9824,-252 1689.9824,-216 1786.1958,-216 1786.1958,-252"/>
<text text-anchor="middle" x="1738.0891" y="-229.8" font-family="Times,serif" font-size="14.00" fill="#000000">test/system/pp</text>
</g>
<!-- test/system/pp&#45;&gt;pattern -->
<g id="edge38" class="edge">
<title>test/system/pp&#45;&gt;pattern</title>
<path fill="none" stroke="#000000" d="M1716.5585,-215.7623C1685.5893,-189.5296 1628.5043,-141.1752 1594.8585,-112.6753"/>
<polygon fill="#000000" stroke="#000000" points="1596.7324,-109.6757 1586.8397,-105.8829 1592.208,-115.017 1596.7324,-109.6757"/>
</g>
<!-- test/system/pp&#45;&gt;system_test -->
<g id="edge39" class="edge">
<title>test/system/pp&#45;&gt;system_test</title>
<path fill="none" stroke="#000000" d="M1689.9281,-218.6438C1686.9408,-217.737 1683.9763,-216.8492 1681.0891,-216 1632.4031,-201.6798 1576.602,-186.5788 1536.6735,-175.9986"/>
<polygon fill="#000000" stroke="#000000" points="1537.4405,-172.5812 1526.8781,-173.4093 1535.6516,-179.3488 1537.4405,-172.5812"/>
</g>
<!-- test/unit/core -->
<g id="node20" class="node">
<title>test/unit/core</title>
<polygon fill="none" stroke="#000000" points="963.6817,-252 874.4965,-252 874.4965,-216 963.6817,-216 963.6817,-252"/>
<text text-anchor="middle" x="919.0891" y="-229.8" font-family="Times,serif" font-size="14.00" fill="#000000">test/unit/core</text>
</g>
<!-- test/unit/core&#45;&gt;core -->
<g id="edge40" class="edge">
<title>test/unit/core&#45;&gt;core</title>
<path fill="none" stroke="#000000" d="M874.3864,-218.7929C871.2486,-217.8199 868.1267,-216.8792 865.0891,-216 801.3616,-197.554 726.0682,-179.8726 682.4276,-170.0225"/>
<polygon fill="#000000" stroke="#000000" points="683.0882,-166.5838 672.5643,-167.8082 681.5548,-173.4138 683.0882,-166.5838"/>
</g>
<!-- test/unit/core&#45;&gt;data -->
<g id="edge41" class="edge">
<title>test/unit/core&#45;&gt;data</title>
<path fill="none" stroke="#000000" d="M916.3723,-215.9214C913.4624,-197.6416 908.3993,-168.6471 902.0891,-144 893.2633,-109.5276 880.1337,-70.7104 871.1239,-45.3855"/>
<polygon fill="#000000" stroke="#000000" points="874.3312,-43.9608 867.6565,-35.7328 867.7433,-46.3273 874.3312,-43.9608"/>
</g>
<!-- test/unit/core&#45;&gt;mock -->
<g id="edge42" class="edge">
<title>test/unit/core&#45;&gt;mock</title>
<path fill="none" stroke="#000000" d="M904.4533,-215.8314C897.2895,-206.9385 888.5613,-196.1034 880.8184,-186.4916"/>
<polygon fill="#000000" stroke="#000000" points="883.3308,-184.0312 874.3319,-178.4393 877.8795,-188.4225 883.3308,-184.0312"/>
</g>
<!-- test/unit/data -->
<g id="node21" class="node">
<title>test/unit/data</title>
<polygon fill="none" stroke="#000000" points="1037.4123,-108 948.7659,-108 948.7659,-72 1037.4123,-72 1037.4123,-108"/>
<text text-anchor="middle" x="993.0891" y="-85.8" font-family="Times,serif" font-size="14.00" fill="#000000">test/unit/data</text>
</g>
<!-- test/unit/data&#45;&gt;data -->
<g id="edge43" class="edge">
<title>test/unit/data&#45;&gt;data</title>
<path fill="none" stroke="#000000" d="M959.7799,-71.8314C938.7184,-60.3432 911.7148,-45.614 891.2799,-34.4677"/>
<polygon fill="#000000" stroke="#000000" points="892.853,-31.339 882.398,-29.623 889.501,-37.4842 892.853,-31.339"/>
</g>
<!-- test/unit/main_shell -->
<g id="node22" class="node">
<title>test/unit/main_shell</title>
<polygon fill="none" stroke="#000000" points="1055.5289,-324 928.6493,-324 928.6493,-288 1055.5289,-288 1055.5289,-324"/>
<text text-anchor="middle" x="992.0891" y="-301.8" font-family="Times,serif" font-size="14.00" fill="#000000">test/unit/main_shell</text>
</g>
<!-- test/unit/main_shell&#45;&gt;core -->
<g id="edge44" class="edge">
<title>test/unit/main_shell&#45;&gt;core</title>
<path fill="none" stroke="#000000" d="M928.7826,-301.9013C875.9893,-296.3158 800.1356,-283.1273 741.0891,-252 710.3948,-235.819 682.512,-206.9122 665.0108,-186.2228"/>
<polygon fill="#000000" stroke="#000000" points="667.6734,-183.9504 658.6078,-178.4671 662.2753,-188.4069 667.6734,-183.9504"/>
</g>
<!-- test/unit/main_shell&#45;&gt;data -->
<g id="edge45" class="edge">
<title>test/unit/main_shell&#45;&gt;data</title>
<path fill="none" stroke="#000000" d="M1005.242,-287.8381C1034.093,-245.591 1096.4886,-139.2139 1046.0891,-72 1028.324,-48.3081 946.6767,-31.5621 897.9838,-23.4837"/>
<polygon fill="#000000" stroke="#000000" points="898.2657,-19.984 887.8358,-21.8462 897.1505,-26.8946 898.2657,-19.984"/>
</g>
<!-- test/unit/main_shell&#45;&gt;iface -->
<g id="edge46" class="edge">
<title>test/unit/main_shell&#45;&gt;iface</title>
<path fill="none" stroke="#000000" d="M997.5165,-287.7054C1002.078,-268.7394 1006.2418,-238.7388 995.0891,-216 955.4857,-135.2544 842.7797,-105.4992 782.4068,-95.1416"/>
<polygon fill="#000000" stroke="#000000" points="782.9097,-91.6775 772.4786,-93.5326 781.7898,-98.5874 782.9097,-91.6775"/>
</g>
<!-- test/unit/main_shell&#45;&gt;main_shell -->
<g id="edge47" class="edge">
<title>test/unit/main_shell&#45;&gt;main_shell</title>
<path fill="none" stroke="#000000" d="M944.3964,-287.8314C914.8236,-276.5655 877.069,-262.1828 848.0257,-251.1187"/>
<polygon fill="#000000" stroke="#000000" points="849.1255,-247.7923 838.5346,-247.503 846.6334,-254.3338 849.1255,-247.7923"/>
</g>
<!-- test/unit/main_shell&#45;&gt;mock -->
<g id="edge48" class="edge">
<title>test/unit/main_shell&#45;&gt;mock</title>
<path fill="none" stroke="#000000" d="M992.7554,-287.8296C992.5384,-268.1314 989.3441,-236.7382 973.0891,-216 955.2988,-193.3031 925.5756,-179.5893 901.2185,-171.6639"/>
<polygon fill="#000000" stroke="#000000" points="902.0875,-168.2699 891.5018,-168.7093 900.0511,-174.9672 902.0875,-168.2699"/>
</g>
<!-- test/unit/mdb -->
<g id="node23" class="node">
<title>test/unit/mdb</title>
<polygon fill="none" stroke="#000000" points="381.9826,-324 292.1956,-324 292.1956,-288 381.9826,-288 381.9826,-324"/>
<text text-anchor="middle" x="337.0891" y="-301.8" font-family="Times,serif" font-size="14.00" fill="#000000">test/unit/mdb</text>
</g>
<!-- test/unit/mdb&#45;&gt;core -->
<g id="edge49" class="edge">
<title>test/unit/mdb&#45;&gt;core</title>
<path fill="none" stroke="#000000" d="M361.2339,-287.6712C388.2683,-267.8343 433.9602,-236.3203 477.0891,-216 521.0895,-195.2691 575.1111,-179.5668 610.0488,-170.5775"/>
<polygon fill="#000000" stroke="#000000" points="610.9703,-173.9547 619.8093,-168.1133 609.2567,-167.1677 610.9703,-173.9547"/>
</g>
<!-- test/unit/mdb&#45;&gt;data -->
<g id="edge50" class="edge">
<title>test/unit/mdb&#45;&gt;data</title>
<path fill="none" stroke="#000000" d="M291.8771,-289.4246C275.3657,-280.9166 258.4556,-268.737 249.0891,-252 218.1438,-196.7039 237.8256,-119.6671 298.0891,-72 339.2518,-39.4412 704.3357,-23.6018 823.5881,-19.2643"/>
<polygon fill="#000000" stroke="#000000" points="823.8297,-22.7579 833.6982,-18.9028 823.5795,-15.7624 823.8297,-22.7579"/>
</g>
<!-- test/unit/mdb&#45;&gt;iface -->
<g id="edge51" class="edge">
<title>test/unit/mdb&#45;&gt;iface</title>
<path fill="none" stroke="#000000" d="M351.4873,-287.9799C379.4577,-254.2456 444.6938,-181.5845 516.0891,-144 576.7415,-112.0709 656.3835,-98.7587 703.4165,-93.4021"/>
<polygon fill="#000000" stroke="#000000" points="703.9368,-96.8665 713.506,-92.3187 703.1894,-89.9065 703.9368,-96.8665"/>
</g>
<!-- test/unit/mdb&#45;&gt;mdb -->
<g id="edge52" class="edge">
<title>test/unit/mdb&#45;&gt;mdb</title>
<path fill="none" stroke="#000000" d="M324.2196,-287.8314C317.9841,-279.0283 310.4006,-268.3221 303.6439,-258.7832"/>
<polygon fill="#000000" stroke="#000000" points="306.3699,-256.5765 297.7336,-250.4393 300.6577,-260.6226 306.3699,-256.5765"/>
</g>
<!-- test/unit/pragma -->
<g id="node24" class="node">
<title>test/unit/pragma</title>
<polygon fill="none" stroke="#000000" points="775.5723,-396 668.6059,-396 668.6059,-360 775.5723,-360 775.5723,-396"/>
<text text-anchor="middle" x="722.0891" y="-373.8" font-family="Times,serif" font-size="14.00" fill="#000000">test/unit/pragma</text>
</g>
<!-- test/unit/pragma&#45;&gt;core -->
<g id="edge53" class="edge">
<title>test/unit/pragma&#45;&gt;core</title>
<path fill="none" stroke="#000000" d="M715.7401,-359.9555C702.435,-322.1409 671.557,-234.3825 655.7665,-189.5042"/>
<polygon fill="#000000" stroke="#000000" points="658.9873,-188.1127 652.3666,-179.8413 652.3841,-190.4361 658.9873,-188.1127"/>
</g>
<!-- test/unit/pragma&#45;&gt;data -->
<g id="edge54" class="edge">
<title>test/unit/pragma&#45;&gt;data</title>
<path fill="none" stroke="#000000" d="M775.8691,-376.6391C995.6616,-370.378 1814.0891,-339.9504 1814.0891,-234 1814.0891,-234 1814.0891,-234 1814.0891,-162 1814.0891,-64.9309 1709.1857,-95.8379 1615.0891,-72 1476.9799,-37.0122 1030.7737,-22.5294 898.4246,-18.9373"/>
<polygon fill="#000000" stroke="#000000" points="898.4647,-15.4372 888.3749,-18.6692 898.278,-22.4347 898.4647,-15.4372"/>
</g>
<!-- test/unit/pragma&#45;&gt;main_shell -->
<g id="edge55" class="edge">
<title>test/unit/pragma&#45;&gt;main_shell</title>
<path fill="none" stroke="#000000" d="M732.3478,-359.7623C746.407,-334.7682 771.7622,-289.6924 787.9911,-260.8409"/>
<polygon fill="#000000" stroke="#000000" points="791.0615,-262.5213 792.9137,-252.0896 784.9605,-259.0895 791.0615,-262.5213"/>
</g>
<!-- test/unit/pragma&#45;&gt;mock -->
<g id="edge56" class="edge">
<title>test/unit/pragma&#45;&gt;mock</title>
<path fill="none" stroke="#000000" d="M718.8856,-359.9031C714.2262,-327.6148 709.289,-259.4004 741.0891,-216 759.7071,-190.5903 793.0818,-176.887 819.9157,-169.6511"/>
<polygon fill="#000000" stroke="#000000" points="820.976,-172.9941 829.8353,-167.1836 819.2862,-166.2011 820.976,-172.9941"/>
</g>
<!-- test/unit/pragma&#45;&gt;pragma -->
<g id="edge57" class="edge">
<title>test/unit/pragma&#45;&gt;pragma</title>
<path fill="none" stroke="#000000" d="M668.3833,-364.2879C615.1598,-350.6989 534.5778,-330.1248 484.7519,-317.4033"/>
<polygon fill="#000000" stroke="#000000" points="485.4659,-313.9734 474.9108,-314.8907 483.7342,-320.7558 485.4659,-313.9734"/>
</g>
<!-- test/unit/replace_part -->
<g id="node25" class="node">
<title>test/unit/replace_part</title>
<polygon fill="none" stroke="#000000" points="134.2674,-468 -.0892,-468 -.0892,-432 134.2674,-432 134.2674,-468"/>
<text text-anchor="middle" x="67.0891" y="-445.8" font-family="Times,serif" font-size="14.00" fill="#000000">test/unit/replace_part</text>
</g>
<!-- test/unit/replace_part&#45;&gt;replace_part -->
<g id="edge58" class="edge">
<title>test/unit/replace_part&#45;&gt;replace_part</title>
<path fill="none" stroke="#000000" d="M67.0891,-431.8314C67.0891,-424.131 67.0891,-414.9743 67.0891,-406.4166"/>
<polygon fill="#000000" stroke="#000000" points="70.5892,-406.4132 67.0891,-396.4133 63.5892,-406.4133 70.5892,-406.4132"/>
</g>
<!-- test/unit/system_test -->
<g id="node26" class="node">
<title>test/unit/system_test</title>
<polygon fill="none" stroke="#000000" points="1548.4177,-252 1417.7605,-252 1417.7605,-216 1548.4177,-216 1548.4177,-252"/>
<text text-anchor="middle" x="1483.0891" y="-229.8" font-family="Times,serif" font-size="14.00" fill="#000000">test/unit/system_test</text>
</g>
<!-- test/unit/system_test&#45;&gt;system_test -->
<g id="edge59" class="edge">
<title>test/unit/system_test&#45;&gt;system_test</title>
<path fill="none" stroke="#000000" d="M1483.0891,-215.8314C1483.0891,-208.131 1483.0891,-198.9743 1483.0891,-190.4166"/>
<polygon fill="#000000" stroke="#000000" points="1486.5892,-190.4132 1483.0891,-180.4133 1479.5892,-190.4133 1486.5892,-190.4132"/>
</g>
</g>
</svg>
