<?xml version="1.0" encoding="UTF-8" standalone="no"?>
<!DOCTYPE svg PUBLIC "-//W3C//DTD SVG 1.1//EN"
 "http://www.w3.org/Graphics/SVG/1.1/DTD/svg11.dtd">
<!-- Generated by graphviz version 2.40.1
 -->
<!-- Title: %3 Pages: 1 -->
<svg width="2220pt" height="476pt"
 viewBox="0.00 0.00 2220.38 476.00" xmlns="http://www.w3.org/2000/svg" xmlns:xlink="http://www.w3.org/1999/xlink">
<g id="graph0" class="graph" transform="scale(1 1) rotate(0) translate(4 472)">
<title>%3</title>
<polygon fill="#ffffff" stroke="transparent" points="-4,4 -4,-472 2216.3787,-472 2216.3787,4 -4,4"/>
<!-- compiler_stub -->
<g id="node1" class="node">
<title>compiler_stub</title>
<ellipse fill="#ffffff" stroke="#000000" cx="268.8254" cy="-90" rx="66.0723" ry="18"/>
<text text-anchor="middle" x="268.8254" y="-85.8" font-family="Times,serif" font-size="14.00" fill="#000000">compiler_stub</text>
</g>
<!-- data -->
<g id="node3" class="node">
<title>data</title>
<ellipse fill="#ffffff" stroke="#000000" cx="528.8254" cy="-18" rx="27.2447" ry="18"/>
<text text-anchor="middle" x="528.8254" y="-13.8" font-family="Times,serif" font-size="14.00" fill="#000000">data</text>
</g>
<!-- compiler_stub&#45;&gt;data -->
<g id="edge1" class="edge">
<title>compiler_stub&#45;&gt;data</title>
<path fill="none" stroke="#000000" d="M315.3082,-77.1278C366.5028,-62.9509 447.6638,-40.4755 493.7734,-27.7067"/>
<polygon fill="#000000" stroke="#000000" points="494.9024,-31.0259 503.6056,-24.9839 493.0342,-24.2797 494.9024,-31.0259"/>
</g>
<!-- core -->
<g id="node2" class="node">
<title>core</title>
<ellipse fill="#ffffff" stroke="#000000" cx="756.8254" cy="-162" rx="27.8073" ry="18"/>
<text text-anchor="middle" x="756.8254" y="-157.8" font-family="Times,serif" font-size="14.00" fill="#000000">core</text>
</g>
<!-- iface -->
<g id="node13" class="node">
<title>iface</title>
<ellipse fill="#ffffff" stroke="#000000" cx="499.8254" cy="-90" rx="29.5916" ry="18"/>
<text text-anchor="middle" x="499.8254" y="-85.8" font-family="Times,serif" font-size="14.00" fill="#000000">iface</text>
</g>
<!-- core&#45;&gt;iface -->
<g id="edge2" class="edge">
<title>core&#45;&gt;iface</title>
<path fill="none" stroke="#000000" d="M730.2518,-156.5191C689.6061,-147.8554 609.7689,-129.729 543.8254,-108 540.5111,-106.9079 537.0913,-105.6855 533.6913,-104.4057"/>
<polygon fill="#000000" stroke="#000000" points="534.8533,-101.1019 524.2658,-100.7073 532.2963,-107.6182 534.8533,-101.1019"/>
</g>
<!-- defaults -->
<g id="node4" class="node">
<title>defaults</title>
<ellipse fill="#ffffff" stroke="#000000" cx="952.8254" cy="-378" rx="41.7095" ry="18"/>
<text text-anchor="middle" x="952.8254" y="-373.8" font-family="Times,serif" font-size="14.00" fill="#000000">defaults</text>
</g>
<!-- engine/auto -->
<g id="node5" class="node">
<title>engine/auto</title>
<ellipse fill="#ffffff" stroke="#000000" cx="885.8254" cy="-234" rx="56.1802" ry="18"/>
<text text-anchor="middle" x="885.8254" y="-229.8" font-family="Times,serif" font-size="14.00" fill="#000000">engine/auto</text>
</g>
<!-- defaults&#45;&gt;engine/auto -->
<g id="edge3" class="edge">
<title>defaults&#45;&gt;engine/auto</title>
<path fill="none" stroke="#000000" d="M920.6622,-366.3202C885.1853,-353.1159 832.3443,-332.3697 826.8254,-324 818.0175,-310.6425 820.3772,-302.6431 826.8254,-288 832.2125,-275.7665 841.891,-265.0977 851.8716,-256.5467"/>
<polygon fill="#000000" stroke="#000000" points="854.2414,-259.1331 859.8644,-250.1535 849.869,-253.6666 854.2414,-259.1331"/>
</g>
<!-- engine/gcc -->
<g id="node8" class="node">
<title>engine/gcc</title>
<ellipse fill="#ffffff" stroke="#000000" cx="1058.8254" cy="-306" rx="52.7295" ry="18"/>
<text text-anchor="middle" x="1058.8254" y="-301.8" font-family="Times,serif" font-size="14.00" fill="#000000">engine/gcc</text>
</g>
<!-- defaults&#45;&gt;engine/gcc -->
<g id="edge4" class="edge">
<title>defaults&#45;&gt;engine/gcc</title>
<path fill="none" stroke="#000000" d="M975.3053,-362.7307C990.2096,-352.6069 1009.9988,-339.1653 1026.5733,-327.9071"/>
<polygon fill="#000000" stroke="#000000" points="1028.5992,-330.7621 1034.9048,-322.248 1024.666,-324.9716 1028.5992,-330.7621"/>
</g>
<!-- engine/null -->
<g id="node9" class="node">
<title>engine/null</title>
<ellipse fill="#ffffff" stroke="#000000" cx="756.8254" cy="-234" rx="54.4739" ry="18"/>
<text text-anchor="middle" x="756.8254" y="-229.8" font-family="Times,serif" font-size="14.00" fill="#000000">engine/null</text>
</g>
<!-- defaults&#45;&gt;engine/null -->
<g id="edge5" class="edge">
<title>defaults&#45;&gt;engine/null</title>
<path fill="none" stroke="#000000" d="M920.5941,-366.3533C883.1123,-352.6308 825.2675,-330.8321 816.8254,-324 795.8757,-307.0456 779.5583,-280.8154 769.2634,-261.0381"/>
<polygon fill="#000000" stroke="#000000" points="772.3042,-259.2934 764.6995,-251.9165 766.0441,-262.4257 772.3042,-259.2934"/>
</g>
<!-- engine/templight -->
<g id="node10" class="node">
<title>engine/templight</title>
<ellipse fill="#ffffff" stroke="#000000" cx="911.8254" cy="-306" rx="76.4632" ry="18"/>
<text text-anchor="middle" x="911.8254" y="-301.8" font-family="Times,serif" font-size="14.00" fill="#000000">engine/templight</text>
</g>
<!-- defaults&#45;&gt;engine/templight -->
<g id="edge6" class="edge">
<title>defaults&#45;&gt;engine/templight</title>
<path fill="none" stroke="#000000" d="M942.6906,-360.2022C937.9597,-351.8944 932.2295,-341.8316 926.9969,-332.6427"/>
<polygon fill="#000000" stroke="#000000" points="929.9756,-330.8005 921.9857,-323.8425 923.8927,-334.2644 929.9756,-330.8005"/>
</g>
<!-- engine/vc -->
<g id="node11" class="node">
<title>engine/vc</title>
<ellipse fill="#ffffff" stroke="#000000" cx="1308.8254" cy="-234" rx="48.6559" ry="18"/>
<text text-anchor="middle" x="1308.8254" y="-229.8" font-family="Times,serif" font-size="14.00" fill="#000000">engine/vc</text>
</g>
<!-- defaults&#45;&gt;engine/vc -->
<g id="edge7" class="edge">
<title>defaults&#45;&gt;engine/vc</title>
<path fill="none" stroke="#000000" d="M986.4319,-367.2991C996.1528,-364.5453 1006.8368,-361.8425 1016.8254,-360 1060.2738,-351.9853 1383.0322,-356.6246 1412.8254,-324 1423.6148,-312.1852 1421.133,-301.6742 1412.8254,-288 1400.9706,-268.4871 1379.5229,-255.7047 1359.1713,-247.5017"/>
<polygon fill="#000000" stroke="#000000" points="1360.2195,-244.1572 1349.6269,-243.9404 1357.7724,-250.7155 1360.2195,-244.1572"/>
</g>
<!-- engine/wave -->
<g id="node12" class="node">
<title>engine/wave</title>
<ellipse fill="#ffffff" stroke="#000000" cx="1189.8254" cy="-306" rx="59.6723" ry="18"/>
<text text-anchor="middle" x="1189.8254" y="-301.8" font-family="Times,serif" font-size="14.00" fill="#000000">engine/wave</text>
</g>
<!-- defaults&#45;&gt;engine/wave -->
<g id="edge8" class="edge">
<title>defaults&#45;&gt;engine/wave</title>
<path fill="none" stroke="#000000" d="M987.0341,-367.6075C1026.564,-355.5984 1092.0404,-335.7068 1137.8689,-321.7843"/>
<polygon fill="#000000" stroke="#000000" points="1139.0708,-325.0772 1147.6216,-318.8214 1137.036,-318.3794 1139.0708,-325.0772"/>
</g>
<!-- pragma -->
<g id="node18" class="node">
<title>pragma</title>
<ellipse fill="#ffffff" stroke="#000000" cx="701.8254" cy="-306" rx="39.9876" ry="18"/>
<text text-anchor="middle" x="701.8254" y="-301.8" font-family="Times,serif" font-size="14.00" fill="#000000">pragma</text>
</g>
<!-- defaults&#45;&gt;pragma -->
<g id="edge9" class="edge">
<title>defaults&#45;&gt;pragma</title>
<path fill="none" stroke="#000000" d="M921.1523,-366.2831C914.7892,-364.0817 908.1226,-361.8827 901.8254,-360 837.7937,-340.8557 820.0226,-342.582 755.8254,-324 751.7674,-322.8254 747.5588,-321.5411 743.3631,-320.2166"/>
<polygon fill="#000000" stroke="#000000" points="744.2653,-316.83 733.6735,-317.0856 742.1129,-323.4909 744.2653,-316.83"/>
</g>
<!-- engine/auto&#45;&gt;core -->
<g id="edge10" class="edge">
<title>engine/auto&#45;&gt;core</title>
<path fill="none" stroke="#000000" d="M857.8343,-218.3771C836.9203,-206.7042 808.3706,-190.7694 786.9583,-178.8183"/>
<polygon fill="#000000" stroke="#000000" points="788.4069,-175.6187 777.9692,-173.8012 784.9953,-181.7311 788.4069,-175.6187"/>
</g>
<!-- engine/clang -->
<g id="node6" class="node">
<title>engine/clang</title>
<ellipse fill="#ffffff" stroke="#000000" cx="1124.8254" cy="-234" rx="60.2537" ry="18"/>
<text text-anchor="middle" x="1124.8254" y="-229.8" font-family="Times,serif" font-size="14.00" fill="#000000">engine/clang</text>
</g>
<!-- engine/clang&#45;&gt;core -->
<g id="edge11" class="edge">
<title>engine/clang&#45;&gt;core</title>
<path fill="none" stroke="#000000" d="M1074.0429,-224.0643C998.8049,-209.3438 859.516,-182.0916 793.4395,-169.1636"/>
<polygon fill="#000000" stroke="#000000" points="793.9703,-165.7012 783.4843,-167.2159 792.6261,-172.5709 793.9703,-165.7012"/>
</g>
<!-- process -->
<g id="node19" class="node">
<title>process</title>
<ellipse fill="#ffffff" stroke="#000000" cx="1308.8254" cy="-162" rx="39.9857" ry="18"/>
<text text-anchor="middle" x="1308.8254" y="-157.8" font-family="Times,serif" font-size="14.00" fill="#000000">process</text>
</g>
<!-- engine/clang&#45;&gt;process -->
<g id="edge12" class="edge">
<title>engine/clang&#45;&gt;process</title>
<path fill="none" stroke="#000000" d="M1161.6183,-219.6028C1192.6973,-207.4414 1237.1146,-190.0607 1269.0183,-177.5767"/>
<polygon fill="#000000" stroke="#000000" points="1270.4521,-180.7741 1278.4891,-173.8707 1267.9012,-174.2554 1270.4521,-180.7741"/>
</g>
<!-- engine/constant -->
<g id="node7" class="node">
<title>engine/constant</title>
<ellipse fill="#ffffff" stroke="#000000" cx="364.8254" cy="-306" rx="71.7892" ry="18"/>
<text text-anchor="middle" x="364.8254" y="-301.8" font-family="Times,serif" font-size="14.00" fill="#000000">engine/constant</text>
</g>
<!-- engine/constant&#45;&gt;core -->
<g id="edge13" class="edge">
<title>engine/constant&#45;&gt;core</title>
<path fill="none" stroke="#000000" d="M418.3965,-293.9975C427.5435,-291.9761 436.954,-289.914 445.8254,-288 522.1696,-271.5285 549.9545,-290.6431 617.8254,-252 636.6875,-241.2607 633.5464,-229.1358 650.8254,-216 673.1679,-199.0148 701.6585,-184.8462 723.4746,-175.2898"/>
<polygon fill="#000000" stroke="#000000" points="724.8595,-178.5043 732.6797,-171.3562 722.1088,-172.0674 724.8595,-178.5043"/>
</g>
<!-- engine/gcc&#45;&gt;engine/clang -->
<g id="edge14" class="edge">
<title>engine/gcc&#45;&gt;engine/clang</title>
<path fill="none" stroke="#000000" d="M1074.8022,-288.5708C1082.9299,-279.7041 1092.9549,-268.7678 1101.891,-259.0194"/>
<polygon fill="#000000" stroke="#000000" points="1104.5898,-261.2549 1108.767,-251.5182 1099.4297,-256.5248 1104.5898,-261.2549"/>
</g>
<!-- engine/null&#45;&gt;core -->
<g id="edge15" class="edge">
<title>engine/null&#45;&gt;core</title>
<path fill="none" stroke="#000000" d="M756.8254,-215.8314C756.8254,-208.131 756.8254,-198.9743 756.8254,-190.4166"/>
<polygon fill="#000000" stroke="#000000" points="760.3255,-190.4132 756.8254,-180.4133 753.3255,-190.4133 760.3255,-190.4132"/>
</g>
<!-- engine/templight&#45;&gt;engine/clang -->
<g id="edge16" class="edge">
<title>engine/templight&#45;&gt;engine/clang</title>
<path fill="none" stroke="#000000" d="M955.7009,-291.1689C990.3206,-279.4664 1038.6332,-263.1354 1074.7614,-250.923"/>
<polygon fill="#000000" stroke="#000000" points="1076.2542,-254.1131 1084.6068,-247.595 1074.0125,-247.4817 1076.2542,-254.1131"/>
</g>
<!-- engine/vc&#45;&gt;core -->
<g id="edge17" class="edge">
<title>engine/vc&#45;&gt;core</title>
<path fill="none" stroke="#000000" d="M1264.367,-226.6983C1243.0515,-223.2854 1217.1407,-219.2643 1193.8254,-216 1046.1408,-195.3229 869.7822,-174.8025 794.2039,-166.2063"/>
<polygon fill="#000000" stroke="#000000" points="794.5527,-162.7235 784.2218,-165.0738 793.7635,-169.6789 794.5527,-162.7235"/>
</g>
<!-- engine/vc&#45;&gt;process -->
<g id="edge18" class="edge">
<title>engine/vc&#45;&gt;process</title>
<path fill="none" stroke="#000000" d="M1308.8254,-215.8314C1308.8254,-208.131 1308.8254,-198.9743 1308.8254,-190.4166"/>
<polygon fill="#000000" stroke="#000000" points="1312.3255,-190.4132 1308.8254,-180.4133 1305.3255,-190.4133 1312.3255,-190.4132"/>
</g>
<!-- engine/wave&#45;&gt;engine/clang -->
<g id="edge19" class="edge">
<title>engine/wave&#45;&gt;engine/clang</title>
<path fill="none" stroke="#000000" d="M1174.0907,-288.5708C1166.0861,-279.7041 1156.213,-268.7678 1147.4123,-259.0194"/>
<polygon fill="#000000" stroke="#000000" points="1149.9395,-256.5956 1140.6405,-251.5182 1144.7436,-261.2863 1149.9395,-256.5956"/>
</g>
<!-- iface&#45;&gt;data -->
<g id="edge20" class="edge">
<title>iface&#45;&gt;data</title>
<path fill="none" stroke="#000000" d="M506.9939,-72.2022C510.2951,-64.0064 514.2842,-54.1024 517.9445,-45.0145"/>
<polygon fill="#000000" stroke="#000000" points="521.2497,-46.1766 521.7393,-35.593 514.7566,-43.5612 521.2497,-46.1766"/>
</g>
<!-- main_shell -->
<g id="node14" class="node">
<title>main_shell</title>
<ellipse fill="#ffffff" stroke="#000000" cx="590.8254" cy="-306" rx="53.3283" ry="18"/>
<text text-anchor="middle" x="590.8254" y="-301.8" font-family="Times,serif" font-size="14.00" fill="#000000">main_shell</text>
</g>
<!-- main_shell&#45;&gt;core -->
<g id="edge21" class="edge">
<title>main_shell&#45;&gt;core</title>
<path fill="none" stroke="#000000" d="M610.1408,-289.0256C630.8028,-270.8906 664.557,-241.3298 693.8254,-216 706.4814,-205.0471 720.6266,-192.913 732.3021,-182.9261"/>
<polygon fill="#000000" stroke="#000000" points="734.6145,-185.554 739.942,-176.396 730.0663,-180.2328 734.6145,-185.554"/>
</g>
<!-- mdb -->
<g id="node15" class="node">
<title>mdb</title>
<ellipse fill="#ffffff" stroke="#000000" cx="580.8254" cy="-234" rx="28.4127" ry="18"/>
<text text-anchor="middle" x="580.8254" y="-229.8" font-family="Times,serif" font-size="14.00" fill="#000000">mdb</text>
</g>
<!-- mdb&#45;&gt;core -->
<g id="edge22" class="edge">
<title>mdb&#45;&gt;core</title>
<path fill="none" stroke="#000000" d="M604.3335,-223.8181C610.3508,-221.2413 616.8186,-218.4971 622.8254,-216 657.0664,-201.7653 696.4501,-185.9619 723.6164,-175.1492"/>
<polygon fill="#000000" stroke="#000000" points="725.0401,-178.3498 733.0402,-171.4036 722.4545,-171.8448 725.0401,-178.3498"/>
</g>
<!-- mock -->
<g id="node16" class="node">
<title>mock</title>
<ellipse fill="#ffffff" stroke="#000000" cx="486.8254" cy="-306" rx="32.4846" ry="18"/>
<text text-anchor="middle" x="486.8254" y="-301.8" font-family="Times,serif" font-size="14.00" fill="#000000">mock</text>
</g>
<!-- mock&#45;&gt;iface -->
<g id="edge23" class="edge">
<title>mock&#45;&gt;iface</title>
<path fill="none" stroke="#000000" d="M487.9114,-287.9555C490.1721,-250.3938 495.3985,-163.5541 498.1155,-118.4103"/>
<polygon fill="#000000" stroke="#000000" points="501.6262,-118.3373 498.7333,-108.1451 494.6388,-117.9167 501.6262,-118.3373"/>
</g>
<!-- pattern -->
<g id="node17" class="node">
<title>pattern</title>
<ellipse fill="#ffffff" stroke="#000000" cx="1834.8254" cy="-162" rx="37.6986" ry="18"/>
<text text-anchor="middle" x="1834.8254" y="-157.8" font-family="Times,serif" font-size="14.00" fill="#000000">pattern</text>
</g>
<!-- pragma&#45;&gt;mdb -->
<g id="edge24" class="edge">
<title>pragma&#45;&gt;mdb</title>
<path fill="none" stroke="#000000" d="M677.6301,-291.6028C658.2855,-280.0919 631.0828,-263.9052 610.4376,-251.6205"/>
<polygon fill="#000000" stroke="#000000" points="612.1333,-248.5568 601.7498,-246.4509 608.5538,-254.5723 612.1333,-248.5568"/>
</g>
<!-- process&#45;&gt;data -->
<g id="edge25" class="edge">
<title>process&#45;&gt;data</title>
<path fill="none" stroke="#000000" d="M1268.8261,-161.284C1124.3569,-158.3955 634.9881,-145.8772 576.8254,-108 555.1464,-93.882 542.5785,-66.567 535.783,-45.7154"/>
<polygon fill="#000000" stroke="#000000" points="539.1201,-44.6584 532.8961,-36.0845 532.4149,-46.6684 539.1201,-44.6584"/>
</g>
<!-- readline -->
<g id="node20" class="node">
<title>readline</title>
<ellipse fill="#ffffff" stroke="#000000" cx="288.8254" cy="-234" rx="42.2719" ry="18"/>
<text text-anchor="middle" x="288.8254" y="-229.8" font-family="Times,serif" font-size="14.00" fill="#000000">readline</text>
</g>
<!-- readline&#45;&gt;iface -->
<g id="edge26" class="edge">
<title>readline&#45;&gt;iface</title>
<path fill="none" stroke="#000000" d="M328.3946,-227.6363C361.7767,-220.6283 409.3386,-206.625 442.8254,-180 463.7263,-163.3819 479.1817,-136.8827 488.686,-116.9332"/>
<polygon fill="#000000" stroke="#000000" points="491.9142,-118.2894 492.8715,-107.7379 485.5431,-115.3894 491.9142,-118.2894"/>
</g>
<!-- replace_part -->
<g id="node21" class="node">
<title>replace_part</title>
<ellipse fill="#ffffff" stroke="#000000" cx="1084.8254" cy="-378" rx="58.5059" ry="18"/>
<text text-anchor="middle" x="1084.8254" y="-373.8" font-family="Times,serif" font-size="14.00" fill="#000000">replace_part</text>
</g>
<!-- system_test -->
<g id="node22" class="node">
<title>system_test</title>
<ellipse fill="#ffffff" stroke="#000000" cx="1834.8254" cy="-234" rx="56.1937" ry="18"/>
<text text-anchor="middle" x="1834.8254" y="-229.8" font-family="Times,serif" font-size="14.00" fill="#000000">system_test</text>
</g>
<!-- system_test&#45;&gt;pattern -->
<g id="edge27" class="edge">
<title>system_test&#45;&gt;pattern</title>
<path fill="none" stroke="#000000" d="M1834.8254,-215.8314C1834.8254,-208.131 1834.8254,-198.9743 1834.8254,-190.4166"/>
<polygon fill="#000000" stroke="#000000" points="1838.3255,-190.4132 1834.8254,-180.4133 1831.3255,-190.4133 1838.3255,-190.4132"/>
</g>
<!-- system_test&#45;&gt;process -->
<g id="edge28" class="edge">
<title>system_test&#45;&gt;process</title>
<path fill="none" stroke="#000000" d="M1782.951,-226.8993C1681.0689,-212.9535 1456.1573,-182.1671 1357.182,-168.6192"/>
<polygon fill="#000000" stroke="#000000" points="1357.5405,-165.1357 1347.1582,-167.2471 1356.5911,-172.071 1357.5405,-165.1357"/>
</g>
<!-- app/metashell -->
<g id="node23" class="node">
<title>app/metashell</title>
<polygon fill="none" stroke="#000000" points="751.5817,-468 658.0691,-468 658.0691,-432 751.5817,-432 751.5817,-468"/>
<text text-anchor="middle" x="704.8254" y="-445.8" font-family="Times,serif" font-size="14.00" fill="#000000">app/metashell</text>
</g>
<!-- app/metashell&#45;&gt;defaults -->
<g id="edge29" class="edge">
<title>app/metashell&#45;&gt;defaults</title>
<path fill="none" stroke="#000000" d="M751.6703,-438.1706C791.7585,-427.8067 850.8915,-411.9466 901.8254,-396 904.9168,-395.0321 908.1012,-393.9982 911.2974,-392.9337"/>
<polygon fill="#000000" stroke="#000000" points="912.5028,-396.2206 920.8403,-389.6833 910.2458,-389.5944 912.5028,-396.2206"/>
</g>
<!-- app/metashell&#45;&gt;main_shell -->
<g id="edge30" class="edge">
<title>app/metashell&#45;&gt;main_shell</title>
<path fill="none" stroke="#000000" d="M705.2138,-431.6772C704.728,-412.1353 701.2759,-381.1468 685.8254,-360 674.0213,-343.844 655.8188,-331.8345 638.4936,-323.2971"/>
<polygon fill="#000000" stroke="#000000" points="639.5503,-319.9296 629.0049,-318.9071 636.611,-326.2826 639.5503,-319.9296"/>
</g>
<!-- app/metashell&#45;&gt;readline -->
<g id="edge31" class="edge">
<title>app/metashell&#45;&gt;readline</title>
<path fill="none" stroke="#000000" d="M657.7826,-448.4595C538.5915,-444.0745 232.0171,-429.6064 201.8254,-396 163.2836,-353.0991 222.4599,-290.0754 260.6341,-256.692"/>
<polygon fill="#000000" stroke="#000000" points="263.0926,-259.1949 268.4186,-250.0361 258.5435,-253.8745 263.0926,-259.1949"/>
</g>
<!-- app/reference_gen -->
<g id="node24" class="node">
<title>app/reference_gen</title>
<polygon fill="none" stroke="#000000" points="1012.7006,-468 892.9502,-468 892.9502,-432 1012.7006,-432 1012.7006,-468"/>
<text text-anchor="middle" x="952.8254" y="-445.8" font-family="Times,serif" font-size="14.00" fill="#000000">app/reference_gen</text>
</g>
<!-- app/reference_gen&#45;&gt;defaults -->
<g id="edge32" class="edge">
<title>app/reference_gen&#45;&gt;defaults</title>
<path fill="none" stroke="#000000" d="M952.8254,-431.8314C952.8254,-424.131 952.8254,-414.9743 952.8254,-406.4166"/>
<polygon fill="#000000" stroke="#000000" points="956.3255,-406.4132 952.8254,-396.4133 949.3255,-406.4133 956.3255,-406.4132"/>
</g>
<!-- app/reference_gen&#45;&gt;replace_part -->
<g id="edge33" class="edge">
<title>app/reference_gen&#45;&gt;replace_part</title>
<path fill="none" stroke="#000000" d="M986.1346,-431.8314C1004.7277,-421.6897 1027.9516,-409.0221 1047.199,-398.5235"/>
<polygon fill="#000000" stroke="#000000" points="1048.9074,-401.5785 1056.0104,-393.7173 1045.5554,-395.4332 1048.9074,-401.5785"/>
</g>
<!-- app/stub/cl_de -->
<g id="node25" class="node">
<title>app/stub/cl_de</title>
<polygon fill="none" stroke="#000000" points="317.4768,-180 220.174,-180 220.174,-144 317.4768,-144 317.4768,-180"/>
<text text-anchor="middle" x="268.8254" y="-157.8" font-family="Times,serif" font-size="14.00" fill="#000000">app/stub/cl_de</text>
</g>
<!-- app/stub/cl_de&#45;&gt;compiler_stub -->
<g id="edge34" class="edge">
<title>app/stub/cl_de&#45;&gt;compiler_stub</title>
<path fill="none" stroke="#000000" d="M268.8254,-143.8314C268.8254,-136.131 268.8254,-126.9743 268.8254,-118.4166"/>
<polygon fill="#000000" stroke="#000000" points="272.3255,-118.4132 268.8254,-108.4133 265.3255,-118.4133 272.3255,-118.4132"/>
</g>
<!-- app/stub/cl_en -->
<g id="node26" class="node">
<title>app/stub/cl_en</title>
<polygon fill="none" stroke="#000000" points="433.4768,-180 336.174,-180 336.174,-144 433.4768,-144 433.4768,-180"/>
<text text-anchor="middle" x="384.8254" y="-157.8" font-family="Times,serif" font-size="14.00" fill="#000000">app/stub/cl_en</text>
</g>
<!-- app/stub/cl_en&#45;&gt;compiler_stub -->
<g id="edge35" class="edge">
<title>app/stub/cl_en&#45;&gt;compiler_stub</title>
<path fill="none" stroke="#000000" d="M355.5537,-143.8314C340.037,-134.2003 320.8503,-122.2913 304.4716,-112.1252"/>
<polygon fill="#000000" stroke="#000000" points="306.0445,-108.9822 295.7023,-106.6822 302.353,-114.9296 306.0445,-108.9822"/>
</g>
<!-- app/stub/clang -->
<g id="node27" class="node">
<title>app/stub/clang</title>
<polygon fill="none" stroke="#000000" points="97.4768,-180 .174,-180 .174,-144 97.4768,-144 97.4768,-180"/>
<text text-anchor="middle" x="48.8254" y="-157.8" font-family="Times,serif" font-size="14.00" fill="#000000">app/stub/clang</text>
</g>
<!-- app/stub/clang&#45;&gt;compiler_stub -->
<g id="edge36" class="edge">
<title>app/stub/clang&#45;&gt;compiler_stub</title>
<path fill="none" stroke="#000000" d="M97.6505,-146.0209C132.9423,-134.4708 180.5524,-118.8893 216.6023,-107.0912"/>
<polygon fill="#000000" stroke="#000000" points="218.0285,-110.3072 226.4438,-103.8703 215.8512,-103.6544 218.0285,-110.3072"/>
</g>
<!-- app/stub/gcc -->
<g id="node28" class="node">
<title>app/stub/gcc</title>
<polygon fill="none" stroke="#000000" points="202.0859,-180 115.5649,-180 115.5649,-144 202.0859,-144 202.0859,-180"/>
<text text-anchor="middle" x="158.8254" y="-157.8" font-family="Times,serif" font-size="14.00" fill="#000000">app/stub/gcc</text>
</g>
<!-- app/stub/gcc&#45;&gt;compiler_stub -->
<g id="edge37" class="edge">
<title>app/stub/gcc&#45;&gt;compiler_stub</title>
<path fill="none" stroke="#000000" d="M186.583,-143.8314C201.1609,-134.2895 219.1548,-122.5117 234.5909,-112.4081"/>
<polygon fill="#000000" stroke="#000000" points="236.8885,-115.0873 243.3387,-106.6822 233.0548,-109.2304 236.8885,-115.0873"/>
</g>
<!-- test/system/auto_engine -->
<g id="node29" class="node">
<title>test/system/auto_engine</title>
<polygon fill="none" stroke="#000000" points="1563.8577,-252 1413.7931,-252 1413.7931,-216 1563.8577,-216 1563.8577,-252"/>
<text text-anchor="middle" x="1488.8254" y="-229.8" font-family="Times,serif" font-size="14.00" fill="#000000">test/system/auto_engine</text>
</g>
<!-- test/system/auto_engine&#45;&gt;process -->
<g id="edge38" class="edge">
<title>test/system/auto_engine&#45;&gt;process</title>
<path fill="none" stroke="#000000" d="M1443.4038,-215.8314C1414.1506,-204.1301 1376.4911,-189.0663 1348.4527,-177.8509"/>
<polygon fill="#000000" stroke="#000000" points="1349.5507,-174.5205 1338.966,-174.0563 1346.9509,-181.0199 1349.5507,-174.5205"/>
</g>
<!-- test/system/core -->
<g id="node30" class="node">
<title>test/system/core</title>
<polygon fill="none" stroke="#000000" points="1704.022,-324 1597.6288,-324 1597.6288,-288 1704.022,-288 1704.022,-324"/>
<text text-anchor="middle" x="1650.8254" y="-301.8" font-family="Times,serif" font-size="14.00" fill="#000000">test/system/core</text>
</g>
<!-- test/system/core&#45;&gt;core -->
<g id="edge39" class="edge">
<title>test/system/core&#45;&gt;core</title>
<path fill="none" stroke="#000000" d="M1597.4722,-290.1822C1594.5539,-289.4196 1591.6575,-288.6867 1588.8254,-288 1507.8437,-268.364 1478.8983,-290.1681 1404.8254,-252 1384.145,-241.3438 1388.0361,-225.5571 1366.8254,-216 1314.7285,-192.5262 919.9393,-170.3955 794.7717,-163.9066"/>
<polygon fill="#000000" stroke="#000000" points="794.6964,-160.3982 784.5297,-163.3795 794.3365,-167.389 794.6964,-160.3982"/>
</g>
<!-- test/system/core&#45;&gt;system_test -->
<g id="edge40" class="edge">
<title>test/system/core&#45;&gt;system_test</title>
<path fill="none" stroke="#000000" d="M1697.2564,-287.8314C1725.5407,-276.7636 1761.5128,-262.6875 1789.5787,-251.7052"/>
<polygon fill="#000000" stroke="#000000" points="1791.1136,-254.8631 1799.1507,-247.9597 1788.5628,-248.3444 1791.1136,-254.8631"/>
</g>
<!-- test/system/mdb -->
<g id="node31" class="node">
<title>test/system/mdb</title>
<polygon fill="none" stroke="#000000" points="2091.3226,-324 1984.3282,-324 1984.3282,-288 2091.3226,-288 2091.3226,-324"/>
<text text-anchor="middle" x="2037.8254" y="-301.8" font-family="Times,serif" font-size="14.00" fill="#000000">test/system/mdb</text>
</g>
<!-- test/system/mdb&#45;&gt;system_test -->
<g id="edge41" class="edge">
<title>test/system/mdb&#45;&gt;system_test</title>
<path fill="none" stroke="#000000" d="M1986.862,-287.9243C1954.8569,-276.5728 1913.8516,-262.029 1882.4931,-250.9068"/>
<polygon fill="#000000" stroke="#000000" points="1883.2691,-247.4684 1872.6743,-247.4243 1880.9291,-254.0658 1883.2691,-247.4684"/>
</g>
<!-- test/system/pdb -->
<g id="node32" class="node">
<title>test/system/pdb</title>
<polygon fill="none" stroke="#000000" points="2212.4321,-324 2109.2187,-324 2109.2187,-288 2212.4321,-288 2212.4321,-324"/>
<text text-anchor="middle" x="2160.8254" y="-301.8" font-family="Times,serif" font-size="14.00" fill="#000000">test/system/pdb</text>
</g>
<!-- test/system/pdb&#45;&gt;system_test -->
<g id="edge42" class="edge">
<title>test/system/pdb&#45;&gt;system_test</title>
<path fill="none" stroke="#000000" d="M2108.9942,-290.3761C2105.8991,-289.5457 2102.8255,-288.7468 2099.8254,-288 2029.6281,-270.5251 1947.9403,-254.5251 1894.019,-244.5542"/>
<polygon fill="#000000" stroke="#000000" points="1894.418,-241.069 1883.9499,-242.7027 1893.152,-247.9535 1894.418,-241.069"/>
</g>
<!-- test/system/pp -->
<g id="node33" class="node">
<title>test/system/pp</title>
<polygon fill="none" stroke="#000000" points="1817.9321,-324 1721.7187,-324 1721.7187,-288 1817.9321,-288 1817.9321,-324"/>
<text text-anchor="middle" x="1769.8254" y="-301.8" font-family="Times,serif" font-size="14.00" fill="#000000">test/system/pp</text>
</g>
<!-- test/system/pp&#45;&gt;system_test -->
<g id="edge43" class="edge">
<title>test/system/pp&#45;&gt;system_test</title>
<path fill="none" stroke="#000000" d="M1786.2276,-287.8314C1794.102,-279.109 1803.6631,-268.5183 1812.2145,-259.0459"/>
<polygon fill="#000000" stroke="#000000" points="1814.998,-261.1858 1819.1011,-251.4177 1809.8021,-256.495 1814.998,-261.1858"/>
</g>
<!-- test/unit/core -->
<g id="node34" class="node">
<title>test/unit/core</title>
<polygon fill="none" stroke="#000000" points="407.418,-396 318.2328,-396 318.2328,-360 407.418,-360 407.418,-396"/>
<text text-anchor="middle" x="362.8254" y="-373.8" font-family="Times,serif" font-size="14.00" fill="#000000">test/unit/core</text>
</g>
<!-- test/unit/core&#45;&gt;engine/constant -->
<g id="edge44" class="edge">
<title>test/unit/core&#45;&gt;engine/constant</title>
<path fill="none" stroke="#000000" d="M363.3301,-359.8314C363.544,-352.131 363.7983,-342.9743 364.036,-334.4166"/>
<polygon fill="#000000" stroke="#000000" points="367.5348,-334.5066 364.3139,-324.4133 360.5375,-334.3122 367.5348,-334.5066"/>
</g>
<!-- test/unit/core&#45;&gt;mock -->
<g id="edge45" class="edge">
<title>test/unit/core&#45;&gt;mock</title>
<path fill="none" stroke="#000000" d="M394.1158,-359.8314C412.8595,-348.9479 436.6129,-335.1557 455.3834,-324.2566"/>
<polygon fill="#000000" stroke="#000000" points="457.2636,-327.2122 464.154,-319.164 453.7486,-321.1587 457.2636,-327.2122"/>
</g>
<!-- test/unit/data -->
<g id="node35" class="node">
<title>test/unit/data</title>
<polygon fill="none" stroke="#000000" points="674.1486,-108 585.5022,-108 585.5022,-72 674.1486,-72 674.1486,-108"/>
<text text-anchor="middle" x="629.8254" y="-85.8" font-family="Times,serif" font-size="14.00" fill="#000000">test/unit/data</text>
</g>
<!-- test/unit/data&#45;&gt;data -->
<g id="edge46" class="edge">
<title>test/unit/data&#45;&gt;data</title>
<path fill="none" stroke="#000000" d="M604.3388,-71.8314C589.5859,-61.3144 571.0226,-48.0812 555.9933,-37.3672"/>
<polygon fill="#000000" stroke="#000000" points="557.7826,-34.3445 547.6082,-31.3897 553.7193,-40.0445 557.7826,-34.3445"/>
</g>
<!-- test/unit/engine/clang -->
<g id="node36" class="node">
<title>test/unit/engine/clang</title>
<polygon fill="none" stroke="#000000" points="1403.8592,-324 1267.7916,-324 1267.7916,-288 1403.8592,-288 1403.8592,-324"/>
<text text-anchor="middle" x="1335.8254" y="-301.8" font-family="Times,serif" font-size="14.00" fill="#000000">test/unit/engine/clang</text>
</g>
<!-- test/unit/engine/clang&#45;&gt;engine/clang -->
<g id="edge47" class="edge">
<title>test/unit/engine/clang&#45;&gt;engine/clang</title>
<path fill="none" stroke="#000000" d="M1282.8535,-287.9243C1249.6645,-276.5991 1207.1638,-262.0965 1174.5988,-250.9843"/>
<polygon fill="#000000" stroke="#000000" points="1175.4273,-247.5689 1164.8327,-247.6518 1173.1666,-254.1938 1175.4273,-247.5689"/>
</g>
<!-- test/unit/engine/templight -->
<g id="node37" class="node">
<title>test/unit/engine/templight</title>
<polygon fill="none" stroke="#000000" points="892.7062,-396 732.9446,-396 732.9446,-360 892.7062,-360 892.7062,-396"/>
<text text-anchor="middle" x="812.8254" y="-373.8" font-family="Times,serif" font-size="14.00" fill="#000000">test/unit/engine/templight</text>
</g>
<!-- test/unit/engine/templight&#45;&gt;engine/templight -->
<g id="edge48" class="edge">
<title>test/unit/engine/templight&#45;&gt;engine/templight</title>
<path fill="none" stroke="#000000" d="M837.8073,-359.8314C850.615,-350.5167 866.3525,-339.0712 880.0182,-329.1325"/>
<polygon fill="#000000" stroke="#000000" points="882.1859,-331.8838 888.2146,-323.1715 878.0686,-326.2226 882.1859,-331.8838"/>
</g>
<!-- test/unit/engine/templight&#45;&gt;mock -->
<g id="edge49" class="edge">
<title>test/unit/engine/templight&#45;&gt;mock</title>
<path fill="none" stroke="#000000" d="M732.7439,-367.5197C675.2244,-358.8499 596.2661,-344.5957 528.8254,-324 526.3691,-323.2499 523.8623,-322.4016 521.3571,-321.4919"/>
<polygon fill="#000000" stroke="#000000" points="522.4007,-318.1419 511.8128,-317.7576 519.85,-324.6607 522.4007,-318.1419"/>
</g>
<!-- test/unit/engine/vc -->
<g id="node38" class="node">
<title>test/unit/engine/vc</title>
<polygon fill="none" stroke="#000000" points="1579.754,-324 1459.8968,-324 1459.8968,-288 1579.754,-288 1579.754,-324"/>
<text text-anchor="middle" x="1519.8254" y="-301.8" font-family="Times,serif" font-size="14.00" fill="#000000">test/unit/engine/vc</text>
</g>
<!-- test/unit/engine/vc&#45;&gt;engine/vc -->
<g id="edge50" class="edge">
<title>test/unit/engine/vc&#45;&gt;engine/vc</title>
<path fill="none" stroke="#000000" d="M1466.8535,-287.9243C1432.2263,-276.1084 1387.4629,-260.8337 1354.4229,-249.5593"/>
<polygon fill="#000000" stroke="#000000" points="1355.1642,-246.1142 1344.5697,-246.1971 1352.9035,-252.7391 1355.1642,-246.1142"/>
</g>
<!-- test/unit/main_shell -->
<g id="node39" class="node">
<title>test/unit/main_shell</title>
<polygon fill="none" stroke="#000000" points="552.2652,-396 425.3856,-396 425.3856,-360 552.2652,-360 552.2652,-396"/>
<text text-anchor="middle" x="488.8254" y="-373.8" font-family="Times,serif" font-size="14.00" fill="#000000">test/unit/main_shell</text>
</g>
<!-- test/unit/main_shell&#45;&gt;engine/constant -->
<g id="edge51" class="edge">
<title>test/unit/main_shell&#45;&gt;engine/constant</title>
<path fill="none" stroke="#000000" d="M457.535,-359.8314C440.7946,-350.1111 420.0581,-338.0706 402.4444,-327.8433"/>
<polygon fill="#000000" stroke="#000000" points="403.9613,-324.6769 393.5559,-322.6822 400.4463,-330.7304 403.9613,-324.6769"/>
</g>
<!-- test/unit/main_shell&#45;&gt;main_shell -->
<g id="edge52" class="edge">
<title>test/unit/main_shell&#45;&gt;main_shell</title>
<path fill="none" stroke="#000000" d="M514.5643,-359.8314C528.0534,-350.3097 544.6966,-338.5615 558.9898,-328.4722"/>
<polygon fill="#000000" stroke="#000000" points="561.3851,-331.0655 567.5364,-322.4393 557.3483,-325.3468 561.3851,-331.0655"/>
</g>
<!-- test/unit/main_shell&#45;&gt;mock -->
<g id="edge53" class="edge">
<title>test/unit/main_shell&#45;&gt;mock</title>
<path fill="none" stroke="#000000" d="M488.3207,-359.8314C488.1068,-352.131 487.8525,-342.9743 487.6148,-334.4166"/>
<polygon fill="#000000" stroke="#000000" points="491.1133,-334.3122 487.3369,-324.4133 484.116,-334.5066 491.1133,-334.3122"/>
</g>
<!-- test/unit/mdb -->
<g id="node40" class="node">
<title>test/unit/mdb</title>
<polygon fill="none" stroke="#000000" points="300.7189,-396 210.9319,-396 210.9319,-360 300.7189,-360 300.7189,-396"/>
<text text-anchor="middle" x="255.8254" y="-373.8" font-family="Times,serif" font-size="14.00" fill="#000000">test/unit/mdb</text>
</g>
<!-- test/unit/mdb&#45;&gt;engine/constant -->
<g id="edge54" class="edge">
<title>test/unit/mdb&#45;&gt;engine/constant</title>
<path fill="none" stroke="#000000" d="M283.3307,-359.8314C297.6706,-350.3591 315.3462,-338.6835 330.5667,-328.6296"/>
<polygon fill="#000000" stroke="#000000" points="332.786,-331.3584 339.2009,-322.9263 328.9278,-325.5176 332.786,-331.3584"/>
</g>
<!-- test/unit/mdb&#45;&gt;mdb -->
<g id="edge55" class="edge">
<title>test/unit/mdb&#45;&gt;mdb</title>
<path fill="none" stroke="#000000" d="M256.179,-359.8661C257.614,-339.2862 263.2395,-306.2203 283.8254,-288 321.6199,-254.5486 470.6716,-240.8653 542.1673,-236.14"/>
<polygon fill="#000000" stroke="#000000" points="542.7811,-239.6081 552.5392,-235.4816 542.3376,-232.6222 542.7811,-239.6081"/>
</g>
<!-- test/unit/pragma -->
<g id="node41" class="node">
<title>test/unit/pragma</title>
<polygon fill="none" stroke="#000000" points="677.3086,-396 570.3422,-396 570.3422,-360 677.3086,-360 677.3086,-396"/>
<text text-anchor="middle" x="623.8254" y="-373.8" font-family="Times,serif" font-size="14.00" fill="#000000">test/unit/pragma</text>
</g>
<!-- test/unit/pragma&#45;&gt;engine/constant -->
<g id="edge56" class="edge">
<title>test/unit/pragma&#45;&gt;engine/constant</title>
<path fill="none" stroke="#000000" d="M570.2189,-362.6466C567.0415,-361.7481 563.892,-360.8605 560.8254,-360 514.8122,-347.0884 462.6428,-332.7288 423.7012,-322.0648"/>
<polygon fill="#000000" stroke="#000000" points="424.1614,-318.5621 413.5922,-319.2981 422.3136,-325.3138 424.1614,-318.5621"/>
</g>
<!-- test/unit/pragma&#45;&gt;main_shell -->
<g id="edge57" class="edge">
<title>test/unit/pragma&#45;&gt;main_shell</title>
<path fill="none" stroke="#000000" d="M615.4981,-359.8314C611.7963,-351.7547 607.3603,-342.0761 603.2769,-333.1668"/>
<polygon fill="#000000" stroke="#000000" points="606.384,-331.5458 599.0357,-323.9134 600.0206,-334.4624 606.384,-331.5458"/>
</g>
<!-- test/unit/pragma&#45;&gt;mock -->
<g id="edge58" class="edge">
<title>test/unit/pragma&#45;&gt;mock</title>
<path fill="none" stroke="#000000" d="M589.2545,-359.8314C567.8491,-348.5818 540.5301,-334.2244 519.4897,-323.1667"/>
<polygon fill="#000000" stroke="#000000" points="521.0812,-320.0492 510.601,-318.4952 517.8247,-326.2456 521.0812,-320.0492"/>
</g>
<!-- test/unit/pragma&#45;&gt;pragma -->
<g id="edge59" class="edge">
<title>test/unit/pragma&#45;&gt;pragma</title>
<path fill="none" stroke="#000000" d="M643.5081,-359.8314C653.6039,-350.5121 666.0104,-339.06 676.781,-329.1179"/>
<polygon fill="#000000" stroke="#000000" points="679.3041,-331.5521 684.2781,-322.1975 674.5561,-326.4085 679.3041,-331.5521"/>
</g>
<!-- test/unit/replace_part -->
<g id="node42" class="node">
<title>test/unit/replace_part</title>
<polygon fill="none" stroke="#000000" points="1165.0037,-468 1030.6471,-468 1030.6471,-432 1165.0037,-432 1165.0037,-468"/>
<text text-anchor="middle" x="1097.8254" y="-445.8" font-family="Times,serif" font-size="14.00" fill="#000000">test/unit/replace_part</text>
</g>
<!-- test/unit/replace_part&#45;&gt;replace_part -->
<g id="edge60" class="edge">
<title>test/unit/replace_part&#45;&gt;replace_part</title>
<path fill="none" stroke="#000000" d="M1094.545,-431.8314C1093.1546,-424.131 1091.5013,-414.9743 1089.9562,-406.4166"/>
<polygon fill="#000000" stroke="#000000" points="1093.3712,-405.6322 1088.15,-396.4133 1086.4826,-406.8761 1093.3712,-405.6322"/>
</g>
<!-- test/unit/system_test -->
<g id="node43" class="node">
<title>test/unit/system_test</title>
<polygon fill="none" stroke="#000000" points="1966.154,-324 1835.4968,-324 1835.4968,-288 1966.154,-288 1966.154,-324"/>
<text text-anchor="middle" x="1900.8254" y="-301.8" font-family="Times,serif" font-size="14.00" fill="#000000">test/unit/system_test</text>
</g>
<!-- test/unit/system_test&#45;&gt;system_test -->
<g id="edge61" class="edge">
<title>test/unit/system_test&#45;&gt;system_test</title>
<path fill="none" stroke="#000000" d="M1884.1708,-287.8314C1876.1753,-279.109 1866.4672,-268.5183 1857.7842,-259.0459"/>
<polygon fill="#000000" stroke="#000000" points="1860.129,-256.4242 1850.7916,-251.4177 1854.9689,-261.1543 1860.129,-256.4242"/>
</g>
</g>
</svg>
