<?xml version="1.0" encoding="UTF-8" standalone="no"?>
<!DOCTYPE svg PUBLIC "-//W3C//DTD SVG 1.1//EN"
 "http://www.w3.org/Graphics/SVG/1.1/DTD/svg11.dtd">
<!-- Generated by graphviz version 2.40.1
 -->
<!-- Title: %3 Pages: 1 -->
<svg width="2867pt" height="476pt"
 viewBox="0.00 0.00 2867.09 476.00" xmlns="http://www.w3.org/2000/svg" xmlns:xlink="http://www.w3.org/1999/xlink">
<g id="graph0" class="graph" transform="scale(1 1) rotate(0) translate(4 472)">
<title>%3</title>
<polygon fill="#ffffff" stroke="transparent" points="-4,4 -4,-472 2863.0891,-472 2863.0891,4 -4,4"/>
<!-- core -->
<g id="node1" class="node">
<title>core</title>
<ellipse fill="#ffffff" stroke="#000000" cx="1012" cy="-162" rx="27.8073" ry="18"/>
<text text-anchor="middle" x="1012" y="-157.8" font-family="Times,serif" font-size="14.00" fill="#000000">core</text>
</g>
<!-- data -->
<g id="node2" class="node">
<title>data</title>
<ellipse fill="#ffffff" stroke="#000000" cx="738" cy="-18" rx="27.2447" ry="18"/>
<text text-anchor="middle" x="738" y="-13.8" font-family="Times,serif" font-size="14.00" fill="#000000">data</text>
</g>
<!-- core&#45;&gt;data -->
<g id="edge1" class="edge">
<title>core&#45;&gt;data</title>
<path fill="none" stroke="#000000" d="M993.2107,-148.2885C966.9647,-129.5217 917.4298,-95.4902 872,-72 839.0608,-54.9683 799.4752,-39.5984 771.906,-29.6514"/>
<polygon fill="#000000" stroke="#000000" points="772.9219,-26.2979 762.3272,-26.2391 770.5728,-32.892 772.9219,-26.2979"/>
</g>
<!-- iface -->
<g id="node11" class="node">
<title>iface</title>
<ellipse fill="#ffffff" stroke="#000000" cx="833" cy="-90" rx="29.5916" ry="18"/>
<text text-anchor="middle" x="833" y="-85.8" font-family="Times,serif" font-size="14.00" fill="#000000">iface</text>
</g>
<!-- core&#45;&gt;iface -->
<g id="edge2" class="edge">
<title>core&#45;&gt;iface</title>
<path fill="none" stroke="#000000" d="M988.2302,-152.439C957.2839,-139.9913 902.971,-118.1448 867.4936,-103.8745"/>
<polygon fill="#000000" stroke="#000000" points="868.6054,-100.5492 858.0216,-100.0646 865.9931,-107.0436 868.6054,-100.5492"/>
</g>
<!-- defaults -->
<g id="node3" class="node">
<title>defaults</title>
<ellipse fill="#ffffff" stroke="#000000" cx="1339" cy="-378" rx="41.7095" ry="18"/>
<text text-anchor="middle" x="1339" y="-373.8" font-family="Times,serif" font-size="14.00" fill="#000000">defaults</text>
</g>
<!-- defaults&#45;&gt;core -->
<g id="edge3" class="edge">
<title>defaults&#45;&gt;core</title>
<path fill="none" stroke="#000000" d="M1299.9244,-371.4269C1272.7009,-364.5901 1238.2855,-350.9198 1221,-324 1194.9054,-283.3612 1262.8229,-253.9873 1233,-216 1210.6134,-187.4848 1106.6919,-172.0978 1049.6822,-165.6738"/>
<polygon fill="#000000" stroke="#000000" points="1049.9335,-162.1806 1039.6134,-164.5775 1049.1757,-169.1394 1049.9335,-162.1806"/>
</g>
<!-- engine/clang -->
<g id="node4" class="node">
<title>engine/clang</title>
<ellipse fill="#ffffff" stroke="#000000" cx="1644" cy="-234" rx="60.2537" ry="18"/>
<text text-anchor="middle" x="1644" y="-229.8" font-family="Times,serif" font-size="14.00" fill="#000000">engine/clang</text>
</g>
<!-- defaults&#45;&gt;engine/clang -->
<g id="edge4" class="edge">
<title>defaults&#45;&gt;engine/clang</title>
<path fill="none" stroke="#000000" d="M1380.0134,-374.5872C1467.5346,-366.8892 1666.2701,-347.0378 1686,-324 1702.4624,-304.7776 1686.2408,-278.0119 1669.4022,-258.6717"/>
<polygon fill="#000000" stroke="#000000" points="1671.8308,-256.1416 1662.4909,-251.1398 1666.673,-260.8743 1671.8308,-256.1416"/>
</g>
<!-- engine/gcc -->
<g id="node6" class="node">
<title>engine/gcc</title>
<ellipse fill="#ffffff" stroke="#000000" cx="1624" cy="-306" rx="52.7295" ry="18"/>
<text text-anchor="middle" x="1624" y="-301.8" font-family="Times,serif" font-size="14.00" fill="#000000">engine/gcc</text>
</g>
<!-- defaults&#45;&gt;engine/gcc -->
<g id="edge5" class="edge">
<title>defaults&#45;&gt;engine/gcc</title>
<path fill="none" stroke="#000000" d="M1375.8262,-369.6175C1420.1456,-359.406 1496.7515,-341.3622 1562,-324 1566.0212,-322.93 1570.1799,-321.7918 1574.3518,-320.6276"/>
<polygon fill="#000000" stroke="#000000" points="1575.3816,-323.9738 1584.0515,-317.8842 1573.4764,-317.238 1575.3816,-323.9738"/>
</g>
<!-- engine/null -->
<g id="node7" class="node">
<title>engine/null</title>
<ellipse fill="#ffffff" stroke="#000000" cx="1170" cy="-234" rx="54.4739" ry="18"/>
<text text-anchor="middle" x="1170" y="-229.8" font-family="Times,serif" font-size="14.00" fill="#000000">engine/null</text>
</g>
<!-- defaults&#45;&gt;engine/null -->
<g id="edge6" class="edge">
<title>defaults&#45;&gt;engine/null</title>
<path fill="none" stroke="#000000" d="M1301.808,-369.8235C1260.7254,-360.0156 1198.3336,-342.5596 1183,-324 1168.9164,-306.9534 1166.3522,-281.6193 1166.9182,-262.1689"/>
<polygon fill="#000000" stroke="#000000" points="1170.4196,-262.2434 1167.5014,-252.0585 1163.4313,-261.8403 1170.4196,-262.2434"/>
</g>
<!-- engine/templight -->
<g id="node8" class="node">
<title>engine/templight</title>
<ellipse fill="#ffffff" stroke="#000000" cx="1339" cy="-306" rx="76.4632" ry="18"/>
<text text-anchor="middle" x="1339" y="-301.8" font-family="Times,serif" font-size="14.00" fill="#000000">engine/templight</text>
</g>
<!-- defaults&#45;&gt;engine/templight -->
<g id="edge7" class="edge">
<title>defaults&#45;&gt;engine/templight</title>
<path fill="none" stroke="#000000" d="M1339,-359.8314C1339,-352.131 1339,-342.9743 1339,-334.4166"/>
<polygon fill="#000000" stroke="#000000" points="1342.5001,-334.4132 1339,-324.4133 1335.5001,-334.4133 1342.5001,-334.4132"/>
</g>
<!-- engine/vc -->
<g id="node9" class="node">
<title>engine/vc</title>
<ellipse fill="#ffffff" stroke="#000000" cx="1789" cy="-234" rx="48.6559" ry="18"/>
<text text-anchor="middle" x="1789" y="-229.8" font-family="Times,serif" font-size="14.00" fill="#000000">engine/vc</text>
</g>
<!-- defaults&#45;&gt;engine/vc -->
<g id="edge8" class="edge">
<title>defaults&#45;&gt;engine/vc</title>
<path fill="none" stroke="#000000" d="M1380.8809,-376.9667C1501.7674,-373.5556 1844.7946,-360.6983 1878,-324 1888.735,-312.1358 1885.8488,-301.9426 1878,-288 1868.4999,-271.1238 1851.3593,-258.9144 1834.639,-250.4218"/>
<polygon fill="#000000" stroke="#000000" points="1835.9815,-247.1852 1825.4444,-246.08 1832.9925,-253.5149 1835.9815,-247.1852"/>
</g>
<!-- engine/wave -->
<g id="node10" class="node">
<title>engine/wave</title>
<ellipse fill="#ffffff" stroke="#000000" cx="1493" cy="-306" rx="59.6723" ry="18"/>
<text text-anchor="middle" x="1493" y="-301.8" font-family="Times,serif" font-size="14.00" fill="#000000">engine/wave</text>
</g>
<!-- defaults&#45;&gt;engine/wave -->
<g id="edge9" class="edge">
<title>defaults&#45;&gt;engine/wave</title>
<path fill="none" stroke="#000000" d="M1367.6053,-364.6261C1391.1816,-353.6034 1424.9374,-337.8215 1451.4878,-325.4083"/>
<polygon fill="#000000" stroke="#000000" points="1452.9736,-328.5774 1460.55,-321.1714 1450.0088,-322.2362 1452.9736,-328.5774"/>
</g>
<!-- defaults&#45;&gt;iface -->
<g id="edge10" class="edge">
<title>defaults&#45;&gt;iface</title>
<path fill="none" stroke="#000000" d="M1306.5103,-366.3913C1287.6355,-357.7993 1265.3926,-344.0695 1254,-324 1230.2949,-282.2406 1279.2155,-254.8544 1251,-216 1205.6042,-153.4874 967.4431,-110.635 872.3091,-95.7721"/>
<polygon fill="#000000" stroke="#000000" points="872.6472,-92.283 862.2308,-94.219 871.581,-99.2013 872.6472,-92.283"/>
</g>
<!-- pragma -->
<g id="node16" class="node">
<title>pragma</title>
<ellipse fill="#ffffff" stroke="#000000" cx="774" cy="-306" rx="39.9876" ry="18"/>
<text text-anchor="middle" x="774" y="-301.8" font-family="Times,serif" font-size="14.00" fill="#000000">pragma</text>
</g>
<!-- defaults&#45;&gt;pragma -->
<g id="edge11" class="edge">
<title>defaults&#45;&gt;pragma</title>
<path fill="none" stroke="#000000" d="M1301.5455,-369.7889C1284.9063,-366.3699 1265.0417,-362.5996 1247,-360 1076.4612,-335.4274 1031.4036,-349.4937 861,-324 847.5071,-321.9814 832.9519,-319.2088 819.6794,-316.4442"/>
<polygon fill="#000000" stroke="#000000" points="820.3283,-313.004 809.8186,-314.3444 818.8703,-319.8505 820.3283,-313.004"/>
</g>
<!-- engine/clang&#45;&gt;core -->
<g id="edge12" class="edge">
<title>engine/clang&#45;&gt;core</title>
<path fill="none" stroke="#000000" d="M1591.6683,-224.9688C1572.8849,-221.8917 1551.5242,-218.5806 1532,-216 1351.902,-192.1955 1135.5558,-172.6047 1049.7323,-165.1899"/>
<polygon fill="#000000" stroke="#000000" points="1049.9499,-161.6958 1039.6868,-164.3262 1049.3502,-168.6701 1049.9499,-161.6958"/>
</g>
<!-- engine/clang&#45;&gt;data -->
<g id="edge13" class="edge">
<title>engine/clang&#45;&gt;data</title>
<path fill="none" stroke="#000000" d="M1639.669,-215.9581C1630.2598,-181.1688 1604.3714,-105.312 1551,-72 1484.6422,-30.5825 926.0126,-20.4233 775.3245,-18.4264"/>
<polygon fill="#000000" stroke="#000000" points="775.2365,-14.9251 765.1924,-18.2964 775.1466,-21.9245 775.2365,-14.9251"/>
</g>
<!-- engine/clang&#45;&gt;iface -->
<g id="edge14" class="edge">
<title>engine/clang&#45;&gt;iface</title>
<path fill="none" stroke="#000000" d="M1622.6951,-216.8224C1594.9365,-195.5255 1544.0194,-160.0759 1494,-144 1377.3687,-106.5155 997.9087,-94.0364 873.1562,-90.892"/>
<polygon fill="#000000" stroke="#000000" points="872.993,-87.387 862.9101,-90.6405 872.8211,-94.3849 872.993,-87.387"/>
</g>
<!-- process -->
<g id="node17" class="node">
<title>process</title>
<ellipse fill="#ffffff" stroke="#000000" cx="1806" cy="-162" rx="39.9857" ry="18"/>
<text text-anchor="middle" x="1806" y="-157.8" font-family="Times,serif" font-size="14.00" fill="#000000">process</text>
</g>
<!-- engine/clang&#45;&gt;process -->
<g id="edge15" class="edge">
<title>engine/clang&#45;&gt;process</title>
<path fill="none" stroke="#000000" d="M1677.9605,-218.9064C1704.3529,-207.1765 1740.9417,-190.9148 1768.2501,-178.7777"/>
<polygon fill="#000000" stroke="#000000" points="1769.7738,-181.9307 1777.4905,-174.6709 1766.9308,-175.534 1769.7738,-181.9307"/>
</g>
<!-- engine/constant -->
<g id="node5" class="node">
<title>engine/constant</title>
<ellipse fill="#ffffff" stroke="#000000" cx="572" cy="-234" rx="71.7892" ry="18"/>
<text text-anchor="middle" x="572" y="-229.8" font-family="Times,serif" font-size="14.00" fill="#000000">engine/constant</text>
</g>
<!-- engine/constant&#45;&gt;core -->
<g id="edge16" class="edge">
<title>engine/constant&#45;&gt;core</title>
<path fill="none" stroke="#000000" d="M626.5053,-222.1209C636.9401,-219.9803 647.7927,-217.8453 658,-216 773.0336,-195.2041 910.0626,-175.8249 974.7161,-167.0004"/>
<polygon fill="#000000" stroke="#000000" points="975.3873,-170.4415 984.8247,-165.6264 974.4444,-163.5053 975.3873,-170.4415"/>
</g>
<!-- engine/constant&#45;&gt;data -->
<g id="edge17" class="edge">
<title>engine/constant&#45;&gt;data</title>
<path fill="none" stroke="#000000" d="M555.1347,-216.0624C547.0493,-206.2224 538.2212,-193.3334 534,-180 519.5125,-134.2385 504.7218,-110.0367 534,-72 554.2169,-45.7352 647.7635,-29.6221 700.8835,-22.431"/>
<polygon fill="#000000" stroke="#000000" points="701.4755,-25.8834 710.9348,-21.1114 700.5643,-18.9429 701.4755,-25.8834"/>
</g>
<!-- engine/constant&#45;&gt;iface -->
<g id="edge18" class="edge">
<title>engine/constant&#45;&gt;iface</title>
<path fill="none" stroke="#000000" d="M624.4095,-221.6261C669.5558,-210.3644 730.7096,-193.4884 752,-180 778.451,-163.2421 801.5441,-135.515 816.2315,-115.2574"/>
<polygon fill="#000000" stroke="#000000" points="819.2821,-117.0045 822.1833,-106.8147 813.5609,-112.9712 819.2821,-117.0045"/>
</g>
<!-- engine/gcc&#45;&gt;core -->
<g id="edge19" class="edge">
<title>engine/gcc&#45;&gt;core</title>
<path fill="none" stroke="#000000" d="M1589.5692,-292.2885C1539.2395,-272.7315 1442.2849,-236.8878 1357,-216 1246.8356,-189.0188 1113.4336,-172.6336 1049.5936,-165.7671"/>
<polygon fill="#000000" stroke="#000000" points="1049.9073,-162.2808 1039.5944,-164.7086 1049.1704,-169.242 1049.9073,-162.2808"/>
</g>
<!-- engine/gcc&#45;&gt;engine/clang -->
<g id="edge20" class="edge">
<title>engine/gcc&#45;&gt;engine/clang</title>
<path fill="none" stroke="#000000" d="M1629.0468,-287.8314C1631.2094,-280.0463 1633.7853,-270.7729 1636.1848,-262.1347"/>
<polygon fill="#000000" stroke="#000000" points="1639.581,-262.9852 1638.8852,-252.4133 1632.8364,-261.1117 1639.581,-262.9852"/>
</g>
<!-- engine/null&#45;&gt;core -->
<g id="edge21" class="edge">
<title>engine/null&#45;&gt;core</title>
<path fill="none" stroke="#000000" d="M1137.6451,-219.256C1110.3478,-206.8167 1071.4746,-189.1023 1044.2165,-176.6809"/>
<polygon fill="#000000" stroke="#000000" points="1045.6485,-173.4873 1035.0975,-172.5254 1042.7458,-179.8571 1045.6485,-173.4873"/>
</g>
<!-- engine/templight&#45;&gt;core -->
<g id="edge22" class="edge">
<title>engine/templight&#45;&gt;core</title>
<path fill="none" stroke="#000000" d="M1329.4843,-288.0332C1317.5228,-267.2899 1294.997,-233.7542 1266,-216 1230.0178,-193.9689 1110.8719,-175.2869 1049.4058,-166.8337"/>
<polygon fill="#000000" stroke="#000000" points="1049.7239,-163.3449 1039.3445,-165.4707 1048.7841,-170.2816 1049.7239,-163.3449"/>
</g>
<!-- engine/templight&#45;&gt;data -->
<g id="edge23" class="edge">
<title>engine/templight&#45;&gt;data</title>
<path fill="none" stroke="#000000" d="M1345.8195,-287.7996C1349.3281,-277.4645 1353.2317,-264.1925 1355,-252 1362.0575,-203.3382 1367.6669,-176.7615 1331,-144 1247.3751,-69.2822 892.0757,-31.6498 775.3363,-21.1348"/>
<polygon fill="#000000" stroke="#000000" points="775.386,-17.6256 765.1161,-20.229 774.768,-24.5982 775.386,-17.6256"/>
</g>
<!-- engine/templight&#45;&gt;engine/clang -->
<g id="edge24" class="edge">
<title>engine/templight&#45;&gt;engine/clang</title>
<path fill="none" stroke="#000000" d="M1393.1764,-293.2108C1447.4844,-280.3906 1530.7935,-260.7242 1586.3119,-247.6182"/>
<polygon fill="#000000" stroke="#000000" points="1587.4134,-250.9544 1596.3418,-245.2505 1585.8051,-244.1417 1587.4134,-250.9544"/>
</g>
<!-- engine/templight&#45;&gt;iface -->
<g id="edge25" class="edge">
<title>engine/templight&#45;&gt;iface</title>
<path fill="none" stroke="#000000" d="M1341.185,-287.9068C1344.1546,-254.0491 1345.0495,-181.1882 1304,-144 1272.2704,-115.255 980.9723,-97.5638 873.0099,-91.947"/>
<polygon fill="#000000" stroke="#000000" points="873.017,-88.4428 862.8508,-91.4261 872.6585,-95.4336 873.017,-88.4428"/>
</g>
<!-- engine/vc&#45;&gt;core -->
<g id="edge26" class="edge">
<title>engine/vc&#45;&gt;core</title>
<path fill="none" stroke="#000000" d="M1749.3928,-223.3882C1737.7425,-220.6019 1724.9238,-217.8597 1713,-216 1462.0196,-176.8557 1155.8563,-165.6686 1050.0772,-162.8528"/>
<polygon fill="#000000" stroke="#000000" points="1049.9847,-159.3493 1039.8981,-162.5915 1049.805,-166.347 1049.9847,-159.3493"/>
</g>
<!-- engine/vc&#45;&gt;data -->
<g id="edge27" class="edge">
<title>engine/vc&#45;&gt;data</title>
<path fill="none" stroke="#000000" d="M1777.4242,-216.48C1770.8989,-206.1401 1762.8989,-192.6401 1757,-180 1735.4811,-133.8896 1759.7006,-102.5401 1719,-72 1680.5817,-43.1725 950.1383,-23.2648 775.3454,-18.9012"/>
<polygon fill="#000000" stroke="#000000" points="775.4231,-15.4021 765.3394,-18.6533 775.2496,-22.4 775.4231,-15.4021"/>
</g>
<!-- engine/vc&#45;&gt;iface -->
<g id="edge28" class="edge">
<title>engine/vc&#45;&gt;iface</title>
<path fill="none" stroke="#000000" d="M1759.0037,-219.8318C1713.7609,-199.1847 1624.8497,-161.3982 1545,-144 1415.2592,-115.7312 1004.0613,-96.9595 873.3224,-91.5861"/>
<polygon fill="#000000" stroke="#000000" points="873.1078,-88.0746 862.9736,-91.1648 872.8229,-95.0688 873.1078,-88.0746"/>
</g>
<!-- engine/vc&#45;&gt;process -->
<g id="edge29" class="edge">
<title>engine/vc&#45;&gt;process</title>
<path fill="none" stroke="#000000" d="M1793.2898,-215.8314C1795.1562,-207.9266 1797.385,-198.4872 1799.4511,-189.7365"/>
<polygon fill="#000000" stroke="#000000" points="1802.8788,-190.4501 1801.7704,-179.9134 1796.0661,-188.8415 1802.8788,-190.4501"/>
</g>
<!-- engine/wave&#45;&gt;core -->
<g id="edge30" class="edge">
<title>engine/wave&#45;&gt;core</title>
<path fill="none" stroke="#000000" d="M1464.6549,-290.1095C1427.6469,-270.0118 1360.3439,-235.6618 1299,-216 1211.9126,-188.0869 1105.0668,-172.7002 1049.5399,-166.0454"/>
<polygon fill="#000000" stroke="#000000" points="1049.8015,-162.5522 1039.4625,-164.8665 1048.9881,-169.5048 1049.8015,-162.5522"/>
</g>
<!-- engine/wave&#45;&gt;data -->
<g id="edge31" class="edge">
<title>engine/wave&#45;&gt;data</title>
<path fill="none" stroke="#000000" d="M1487.7694,-287.8797C1481.6856,-268.7878 1470.3435,-238.4355 1454,-216 1425.4435,-176.799 1412.6933,-170.3866 1372,-144 1307.5902,-102.235 1288.9565,-92.576 1215,-72 1132.0952,-48.9345 872.5498,-27.9426 775.2947,-20.6882"/>
<polygon fill="#000000" stroke="#000000" points="775.2903,-17.1784 765.0592,-19.9308 774.7737,-24.1593 775.2903,-17.1784"/>
</g>
<!-- engine/wave&#45;&gt;engine/clang -->
<g id="edge32" class="edge">
<title>engine/wave&#45;&gt;engine/clang</title>
<path fill="none" stroke="#000000" d="M1525.0232,-290.7307C1547.6688,-279.9328 1578.2305,-265.3603 1602.7086,-253.6886"/>
<polygon fill="#000000" stroke="#000000" points="1604.243,-256.8346 1611.763,-249.3713 1601.2302,-250.5161 1604.243,-256.8346"/>
</g>
<!-- engine/wave&#45;&gt;iface -->
<g id="edge33" class="edge">
<title>engine/wave&#45;&gt;iface</title>
<path fill="none" stroke="#000000" d="M1481.5238,-288.2301C1458.0362,-253.5708 1400.7708,-177.42 1331,-144 1250.1489,-105.2725 976.5279,-93.8996 873.0703,-90.9395"/>
<polygon fill="#000000" stroke="#000000" points="873.1203,-87.4396 863.0279,-90.6635 872.9279,-94.437 873.1203,-87.4396"/>
</g>
<!-- iface&#45;&gt;data -->
<g id="edge34" class="edge">
<title>iface&#45;&gt;data</title>
<path fill="none" stroke="#000000" d="M814.2311,-75.7751C799.9961,-64.9865 780.2467,-50.0186 764.4167,-38.0211"/>
<polygon fill="#000000" stroke="#000000" points="766.1692,-34.9576 756.0854,-31.7068 761.941,-40.5364 766.1692,-34.9576"/>
</g>
<!-- main_shell -->
<g id="node12" class="node">
<title>main_shell</title>
<ellipse fill="#ffffff" stroke="#000000" cx="233" cy="-234" rx="53.3283" ry="18"/>
<text text-anchor="middle" x="233" y="-229.8" font-family="Times,serif" font-size="14.00" fill="#000000">main_shell</text>
</g>
<!-- main_shell&#45;&gt;core -->
<g id="edge35" class="edge">
<title>main_shell&#45;&gt;core</title>
<path fill="none" stroke="#000000" d="M278.903,-224.7565C295.8473,-221.6039 315.2434,-218.2985 333,-216 575.9583,-184.5507 870.357,-168.6382 973.829,-163.712"/>
<polygon fill="#000000" stroke="#000000" points="974.2616,-167.1956 984.0863,-163.23 973.9331,-160.2033 974.2616,-167.1956"/>
</g>
<!-- main_shell&#45;&gt;data -->
<g id="edge36" class="edge">
<title>main_shell&#45;&gt;data</title>
<path fill="none" stroke="#000000" d="M247.1109,-216.6186C275.756,-182.649 344.4501,-107.6641 420,-72 469.3521,-48.7028 627.8984,-29.5778 700.7521,-21.7771"/>
<polygon fill="#000000" stroke="#000000" points="701.2793,-25.241 710.856,-20.7093 700.5435,-18.2798 701.2793,-25.241"/>
</g>
<!-- main_shell&#45;&gt;iface -->
<g id="edge37" class="edge">
<title>main_shell&#45;&gt;iface</title>
<path fill="none" stroke="#000000" d="M273.5291,-222.1143C282.21,-219.8493 291.3674,-217.6687 300,-216 431.8492,-190.5137 470.1526,-214.2553 600,-180 640.0652,-169.4303 647.432,-159.1477 686,-144 723.8559,-129.132 767.6635,-113.2016 797.5415,-102.5271"/>
<polygon fill="#000000" stroke="#000000" points="798.8659,-105.7708 807.1113,-99.1176 796.5166,-99.1768 798.8659,-105.7708"/>
</g>
<!-- mdb -->
<g id="node13" class="node">
<title>mdb</title>
<ellipse fill="#ffffff" stroke="#000000" cx="842" cy="-234" rx="28.4127" ry="18"/>
<text text-anchor="middle" x="842" y="-229.8" font-family="Times,serif" font-size="14.00" fill="#000000">mdb</text>
</g>
<!-- mdb&#45;&gt;core -->
<g id="edge38" class="edge">
<title>mdb&#45;&gt;core</title>
<path fill="none" stroke="#000000" d="M865.6378,-223.9887C895.1987,-211.4688 945.9614,-189.9693 979.2523,-175.8696"/>
<polygon fill="#000000" stroke="#000000" points="980.7198,-179.0491 988.563,-171.9263 977.9898,-172.6034 980.7198,-179.0491"/>
</g>
<!-- mdb&#45;&gt;data -->
<g id="edge39" class="edge">
<title>mdb&#45;&gt;data</title>
<path fill="none" stroke="#000000" d="M833.665,-216.6889C815.5231,-179.0095 772.3564,-89.3555 750.7614,-44.5045"/>
<polygon fill="#000000" stroke="#000000" points="753.8664,-42.8852 746.3746,-35.3935 747.5594,-45.9219 753.8664,-42.8852"/>
</g>
<!-- mdb&#45;&gt;iface -->
<g id="edge40" class="edge">
<title>mdb&#45;&gt;iface</title>
<path fill="none" stroke="#000000" d="M840.8601,-215.7623C839.3251,-191.201 836.578,-147.2474 834.7721,-118.3541"/>
<polygon fill="#000000" stroke="#000000" points="838.2477,-117.8518 834.1306,-108.0896 831.2613,-118.2885 838.2477,-117.8518"/>
</g>
<!-- mock -->
<g id="node14" class="node">
<title>mock</title>
<ellipse fill="#ffffff" stroke="#000000" cx="374" cy="-234" rx="32.4846" ry="18"/>
<text text-anchor="middle" x="374" y="-229.8" font-family="Times,serif" font-size="14.00" fill="#000000">mock</text>
</g>
<!-- mock&#45;&gt;iface -->
<g id="edge41" class="edge">
<title>mock&#45;&gt;iface</title>
<path fill="none" stroke="#000000" d="M405.3101,-229.1511C488.7741,-216.2094 710.5196,-181.7155 714,-180 734.8674,-169.7147 733.811,-158.505 752,-144 768.1271,-131.1393 787.2873,-118.2677 802.9232,-108.3187"/>
<polygon fill="#000000" stroke="#000000" points="805.0676,-111.1048 811.6725,-102.8207 801.3432,-105.1779 805.0676,-111.1048"/>
</g>
<!-- pattern -->
<g id="node15" class="node">
<title>pattern</title>
<ellipse fill="#ffffff" stroke="#000000" cx="2459" cy="-162" rx="37.6986" ry="18"/>
<text text-anchor="middle" x="2459" y="-157.8" font-family="Times,serif" font-size="14.00" fill="#000000">pattern</text>
</g>
<!-- pragma&#45;&gt;core -->
<g id="edge42" class="edge">
<title>pragma&#45;&gt;core</title>
<path fill="none" stroke="#000000" d="M801.6806,-292.8937C823.14,-282.4646 853.4297,-267.153 879,-252 916.9262,-229.5249 958.7428,-200.4774 985.1741,-181.5514"/>
<polygon fill="#000000" stroke="#000000" points="987.4478,-184.2273 993.5201,-175.5452 983.3589,-178.5456 987.4478,-184.2273"/>
</g>
<!-- pragma&#45;&gt;data -->
<g id="edge43" class="edge">
<title>pragma&#45;&gt;data</title>
<path fill="none" stroke="#000000" d="M734.1429,-304.428C663.6221,-300.7188 521.4074,-288.7581 491,-252 460.2732,-214.8557 422.725,-170.7044 514,-72 538.9928,-44.9729 643.8249,-28.8966 700.7817,-21.9946"/>
<polygon fill="#000000" stroke="#000000" points="701.3073,-25.457 710.8296,-20.812 700.489,-18.505 701.3073,-25.457"/>
</g>
<!-- pragma&#45;&gt;iface -->
<g id="edge44" class="edge">
<title>pragma&#45;&gt;iface</title>
<path fill="none" stroke="#000000" d="M778.9288,-287.9555C789.2578,-250.1409 813.2288,-162.3825 825.4873,-117.5042"/>
<polygon fill="#000000" stroke="#000000" points="828.868,-118.4101 828.1267,-107.8413 822.1154,-116.5656 828.868,-118.4101"/>
</g>
<!-- pragma&#45;&gt;mdb -->
<g id="edge45" class="edge">
<title>pragma&#45;&gt;mdb</title>
<path fill="none" stroke="#000000" d="M789.7715,-289.3008C798.864,-279.6734 810.4259,-267.4314 820.3588,-256.9142"/>
<polygon fill="#000000" stroke="#000000" points="822.9233,-259.2963 827.245,-249.6229 817.8342,-254.4899 822.9233,-259.2963"/>
</g>
<!-- process&#45;&gt;data -->
<g id="edge46" class="edge">
<title>process&#45;&gt;data</title>
<path fill="none" stroke="#000000" d="M1800.9232,-144.137C1793.8221,-122.8265 1778.6967,-88.0679 1752,-72 1709.3748,-46.3454 953.3185,-23.9426 775.3125,-19.0084"/>
<polygon fill="#000000" stroke="#000000" points="775.2307,-15.5049 765.1381,-18.728 775.0378,-22.5022 775.2307,-15.5049"/>
</g>
<!-- readline -->
<g id="node18" class="node">
<title>readline</title>
<ellipse fill="#ffffff" stroke="#000000" cx="108" cy="-162" rx="42.2719" ry="18"/>
<text text-anchor="middle" x="108" y="-157.8" font-family="Times,serif" font-size="14.00" fill="#000000">readline</text>
</g>
<!-- readline&#45;&gt;data -->
<g id="edge47" class="edge">
<title>readline&#45;&gt;data</title>
<path fill="none" stroke="#000000" d="M113.7058,-143.9258C121.4297,-122.7463 137.3946,-88.4586 164,-72 209.5486,-43.8227 580.1878,-25.0143 700.4642,-19.6056"/>
<polygon fill="#000000" stroke="#000000" points="700.8198,-23.0934 710.6544,-19.1526 700.5088,-16.1003 700.8198,-23.0934"/>
</g>
<!-- readline&#45;&gt;iface -->
<g id="edge48" class="edge">
<title>readline&#45;&gt;iface</title>
<path fill="none" stroke="#000000" d="M149.0564,-157.9227C276.9627,-145.2203 667.2218,-106.4635 793.2804,-93.9446"/>
<polygon fill="#000000" stroke="#000000" points="793.6686,-97.4233 803.2737,-92.9521 792.9768,-90.4576 793.6686,-97.4233"/>
</g>
<!-- replace_part -->
<g id="node19" class="node">
<title>replace_part</title>
<ellipse fill="#ffffff" stroke="#000000" cx="2792" cy="-378" rx="58.5059" ry="18"/>
<text text-anchor="middle" x="2792" y="-373.8" font-family="Times,serif" font-size="14.00" fill="#000000">replace_part</text>
</g>
<!-- system_test -->
<g id="node20" class="node">
<title>system_test</title>
<ellipse fill="#ffffff" stroke="#000000" cx="2374" cy="-234" rx="56.1937" ry="18"/>
<text text-anchor="middle" x="2374" y="-229.8" font-family="Times,serif" font-size="14.00" fill="#000000">system_test</text>
</g>
<!-- system_test&#45;&gt;pattern -->
<g id="edge49" class="edge">
<title>system_test&#45;&gt;pattern</title>
<path fill="none" stroke="#000000" d="M2394.1438,-216.937C2405.6615,-207.1808 2420.2415,-194.8307 2432.6591,-184.3123"/>
<polygon fill="#000000" stroke="#000000" points="2435.0848,-186.8445 2440.4531,-177.7103 2430.5604,-181.5032 2435.0848,-186.8445"/>
</g>
<!-- system_test&#45;&gt;process -->
<g id="edge50" class="edge">
<title>system_test&#45;&gt;process</title>
<path fill="none" stroke="#000000" d="M2321.582,-227.3555C2212.2116,-213.4916 1961.0588,-181.6553 1854.851,-168.1924"/>
<polygon fill="#000000" stroke="#000000" points="1855.0945,-164.6953 1844.7337,-166.9099 1854.2141,-171.6397 1855.0945,-164.6953"/>
</g>
<!-- app/metashell -->
<g id="node21" class="node">
<title>app/metashell</title>
<polygon fill="none" stroke="#000000" points="180.7563,-468 87.2437,-468 87.2437,-432 180.7563,-432 180.7563,-468"/>
<text text-anchor="middle" x="134" y="-445.8" font-family="Times,serif" font-size="14.00" fill="#000000">app/metashell</text>
</g>
<!-- app/metashell&#45;&gt;core -->
<g id="edge51" class="edge">
<title>app/metashell&#45;&gt;core</title>
<path fill="none" stroke="#000000" d="M180.7617,-449.2888C341.7072,-445.9339 869.8437,-427.1244 997,-324 1035.5133,-292.7655 1030.8437,-265.2414 1025,-216 1023.9659,-207.2862 1022.0243,-197.944 1019.9511,-189.5212"/>
<polygon fill="#000000" stroke="#000000" points="1023.3268,-188.5955 1017.4091,-179.8074 1016.5548,-190.3677 1023.3268,-188.5955"/>
</g>
<!-- app/metashell&#45;&gt;data -->
<g id="edge52" class="edge">
<title>app/metashell&#45;&gt;data</title>
<path fill="none" stroke="#000000" d="M98.7931,-431.8208C59.0912,-408.5064 0,-364.0547 0,-306 0,-306 0,-306 0,-162 0,-114.6526 16.4551,-96.4517 57,-72 112.2508,-38.6795 565.6261,-22.9882 700.3714,-19.0311"/>
<polygon fill="#000000" stroke="#000000" points="700.7087,-22.5229 710.6034,-18.7353 700.5064,-15.5258 700.7087,-22.5229"/>
</g>
<!-- app/metashell&#45;&gt;defaults -->
<g id="edge53" class="edge">
<title>app/metashell&#45;&gt;defaults</title>
<path fill="none" stroke="#000000" d="M180.9934,-448.6281C364.8455,-443.1198 1035.6298,-421.6682 1247,-396 1261.6909,-394.216 1277.5526,-391.4284 1291.8998,-388.5752"/>
<polygon fill="#000000" stroke="#000000" points="1292.9458,-391.9337 1302.0408,-386.4995 1291.5421,-385.0759 1292.9458,-391.9337"/>
</g>
<!-- app/metashell&#45;&gt;iface -->
<g id="edge54" class="edge">
<title>app/metashell&#45;&gt;iface</title>
<path fill="none" stroke="#000000" d="M130.6291,-431.7731C123.6738,-387.9639 112.8913,-275.9543 171,-216 258.2163,-126.0137 663.047,-98.3981 792.8403,-91.7818"/>
<polygon fill="#000000" stroke="#000000" points="793.3068,-95.2631 803.1214,-91.2727 792.9605,-88.2717 793.3068,-95.2631"/>
</g>
<!-- app/metashell&#45;&gt;main_shell -->
<g id="edge55" class="edge">
<title>app/metashell&#45;&gt;main_shell</title>
<path fill="none" stroke="#000000" d="M142.2704,-431.9555C159.6751,-393.9817 200.1638,-305.6426 220.6527,-260.9396"/>
<polygon fill="#000000" stroke="#000000" points="223.8379,-262.3902 224.8228,-251.8413 217.4744,-259.4736 223.8379,-262.3902"/>
</g>
<!-- app/metashell&#45;&gt;readline -->
<g id="edge56" class="edge">
<title>app/metashell&#45;&gt;readline</title>
<path fill="none" stroke="#000000" d="M118.886,-431.7768C111.6451,-421.8586 103.7476,-408.9858 100,-396 79.2353,-324.049 92.5004,-234.4693 101.5702,-189.8971"/>
<polygon fill="#000000" stroke="#000000" points="105.0019,-190.5856 103.6509,-180.0773 98.154,-189.1345 105.0019,-190.5856"/>
</g>
<!-- app/reference_gen -->
<g id="node22" class="node">
<title>app/reference_gen</title>
<polygon fill="none" stroke="#000000" points="2052.8752,-468 1933.1248,-468 1933.1248,-432 2052.8752,-432 2052.8752,-468"/>
<text text-anchor="middle" x="1993" y="-445.8" font-family="Times,serif" font-size="14.00" fill="#000000">app/reference_gen</text>
</g>
<!-- app/reference_gen&#45;&gt;data -->
<g id="edge57" class="edge">
<title>app/reference_gen&#45;&gt;data</title>
<path fill="none" stroke="#000000" d="M2052.7853,-444.229C2224.1736,-426.8881 2705,-372.328 2705,-306 2705,-306 2705,-306 2705,-162 2705,-61.4241 1047.6771,-24.1588 775.5868,-18.7185"/>
<polygon fill="#000000" stroke="#000000" points="775.498,-15.2162 765.4306,-18.5174 775.3594,-22.2148 775.498,-15.2162"/>
</g>
<!-- app/reference_gen&#45;&gt;defaults -->
<g id="edge58" class="edge">
<title>app/reference_gen&#45;&gt;defaults</title>
<path fill="none" stroke="#000000" d="M1933.2281,-443.4196C1805.7421,-429.3844 1509.0694,-396.7232 1389.897,-383.6033"/>
<polygon fill="#000000" stroke="#000000" points="1389.9244,-380.0853 1379.6014,-382.4699 1389.1583,-387.0432 1389.9244,-380.0853"/>
</g>
<!-- app/reference_gen&#45;&gt;mdb -->
<g id="edge59" class="edge">
<title>app/reference_gen&#45;&gt;mdb</title>
<path fill="none" stroke="#000000" d="M1933.115,-448.6462C1755.7839,-444.2981 1235.3873,-429.0031 1069,-396 973.0432,-376.9668 925.7111,-397.3652 861,-324 846.2044,-307.2257 841.9112,-281.8659 841.0573,-262.3365"/>
<polygon fill="#000000" stroke="#000000" points="844.5543,-262.1198 840.8918,-252.1781 837.5552,-262.2338 844.5543,-262.1198"/>
</g>
<!-- app/reference_gen&#45;&gt;replace_part -->
<g id="edge60" class="edge">
<title>app/reference_gen&#45;&gt;replace_part</title>
<path fill="none" stroke="#000000" d="M2053.154,-448.9262C2178.0037,-445.9523 2474.0495,-435.027 2719,-396 2725.26,-395.0026 2731.7719,-393.7359 2738.2149,-392.3379"/>
<polygon fill="#000000" stroke="#000000" points="2739.265,-395.6884 2748.2367,-390.0529 2737.7088,-388.8636 2739.265,-395.6884"/>
</g>
<!-- test/system/core -->
<g id="node23" class="node">
<title>test/system/core</title>
<polygon fill="none" stroke="#000000" points="2563.1966,-324 2456.8034,-324 2456.8034,-288 2563.1966,-288 2563.1966,-324"/>
<text text-anchor="middle" x="2510" y="-301.8" font-family="Times,serif" font-size="14.00" fill="#000000">test/system/core</text>
</g>
<!-- test/system/core&#45;&gt;system_test -->
<g id="edge61" class="edge">
<title>test/system/core&#45;&gt;system_test</title>
<path fill="none" stroke="#000000" d="M2475.6815,-287.8314C2456.3891,-277.6177 2432.2576,-264.8423 2412.3452,-254.3004"/>
<polygon fill="#000000" stroke="#000000" points="2413.7136,-251.0646 2403.238,-249.479 2410.4383,-257.2512 2413.7136,-251.0646"/>
</g>
<!-- test/system/mdb -->
<g id="node24" class="node">
<title>test/system/mdb</title>
<polygon fill="none" stroke="#000000" points="2169.4972,-324 2062.5028,-324 2062.5028,-288 2169.4972,-288 2169.4972,-324"/>
<text text-anchor="middle" x="2116" y="-301.8" font-family="Times,serif" font-size="14.00" fill="#000000">test/system/mdb</text>
</g>
<!-- test/system/mdb&#45;&gt;system_test -->
<g id="edge62" class="edge">
<title>test/system/mdb&#45;&gt;system_test</title>
<path fill="none" stroke="#000000" d="M2169.7556,-290.3447C2172.5428,-289.5482 2175.3037,-288.7628 2178,-288 2226.5295,-274.2709 2281.9477,-259.0444 2321.4451,-248.2693"/>
<polygon fill="#000000" stroke="#000000" points="2322.4024,-251.6362 2331.13,-245.6294 2320.5615,-244.8826 2322.4024,-251.6362"/>
</g>
<!-- test/system/pdb -->
<g id="node25" class="node">
<title>test/system/pdb</title>
<polygon fill="none" stroke="#000000" points="2290.6067,-324 2187.3933,-324 2187.3933,-288 2290.6067,-288 2290.6067,-324"/>
<text text-anchor="middle" x="2239" y="-301.8" font-family="Times,serif" font-size="14.00" fill="#000000">test/system/pdb</text>
</g>
<!-- test/system/pdb&#45;&gt;system_test -->
<g id="edge63" class="edge">
<title>test/system/pdb&#45;&gt;system_test</title>
<path fill="none" stroke="#000000" d="M2273.0662,-287.8314C2292.2167,-277.6177 2316.1707,-264.8423 2335.9367,-254.3004"/>
<polygon fill="#000000" stroke="#000000" points="2337.8005,-257.2731 2344.9769,-249.479 2334.5063,-251.0967 2337.8005,-257.2731"/>
</g>
<!-- test/system/pp -->
<g id="node26" class="node">
<title>test/system/pp</title>
<polygon fill="none" stroke="#000000" points="2677.1067,-324 2580.8933,-324 2580.8933,-288 2677.1067,-288 2677.1067,-324"/>
<text text-anchor="middle" x="2629" y="-301.8" font-family="Times,serif" font-size="14.00" fill="#000000">test/system/pp</text>
</g>
<!-- test/system/pp&#45;&gt;pattern -->
<g id="edge64" class="edge">
<title>test/system/pp&#45;&gt;pattern</title>
<path fill="none" stroke="#000000" d="M2607.4694,-287.7623C2576.5002,-261.5296 2519.4152,-213.1752 2485.7694,-184.6753"/>
<polygon fill="#000000" stroke="#000000" points="2487.6433,-181.6757 2477.7506,-177.8829 2483.1189,-187.017 2487.6433,-181.6757"/>
</g>
<!-- test/system/pp&#45;&gt;system_test -->
<g id="edge65" class="edge">
<title>test/system/pp&#45;&gt;system_test</title>
<path fill="none" stroke="#000000" d="M2580.839,-290.6438C2577.8517,-289.737 2574.8872,-288.8492 2572,-288 2523.314,-273.6798 2467.5129,-258.5788 2427.5844,-247.9986"/>
<polygon fill="#000000" stroke="#000000" points="2428.3514,-244.5812 2417.789,-245.4093 2426.5625,-251.3488 2428.3514,-244.5812"/>
</g>
<!-- test/unit/core -->
<g id="node27" class="node">
<title>test/unit/core</title>
<polygon fill="none" stroke="#000000" points="560.5926,-324 471.4074,-324 471.4074,-288 560.5926,-288 560.5926,-324"/>
<text text-anchor="middle" x="516" y="-301.8" font-family="Times,serif" font-size="14.00" fill="#000000">test/unit/core</text>
</g>
<!-- test/unit/core&#45;&gt;core -->
<g id="edge66" class="edge">
<title>test/unit/core&#45;&gt;core</title>
<path fill="none" stroke="#000000" d="M560.6915,-291.8016C629.5555,-269.9714 758.5171,-229.293 805,-216 864.748,-198.9136 934.8216,-181.0943 976.1997,-170.7992"/>
<polygon fill="#000000" stroke="#000000" points="977.2144,-174.1537 986.0776,-168.349 975.5291,-167.3596 977.2144,-174.1537"/>
</g>
<!-- test/unit/core&#45;&gt;data -->
<g id="edge67" class="edge">
<title>test/unit/core&#45;&gt;data</title>
<path fill="none" stroke="#000000" d="M491.5558,-287.8527C480.6804,-278.4117 468.8153,-265.9348 462,-252 426.6135,-179.6473 421.0022,-123.4138 483,-72 515.7637,-44.8296 638.0704,-28.4317 700.6301,-21.6458"/>
<polygon fill="#000000" stroke="#000000" points="701.2823,-25.0965 710.8588,-20.5644 700.5462,-18.1353 701.2823,-25.0965"/>
</g>
<!-- test/unit/core&#45;&gt;mock -->
<g id="edge68" class="edge">
<title>test/unit/core&#45;&gt;mock</title>
<path fill="none" stroke="#000000" d="M480.1674,-287.8314C457.7375,-276.4585 429.043,-261.9091 407.1415,-250.8041"/>
<polygon fill="#000000" stroke="#000000" points="408.7109,-247.6757 398.209,-246.275 405.5452,-253.919 408.7109,-247.6757"/>
</g>
<!-- test/unit/data -->
<g id="node28" class="node">
<title>test/unit/data</title>
<polygon fill="none" stroke="#000000" points="1710.3232,-108 1621.6768,-108 1621.6768,-72 1710.3232,-72 1710.3232,-108"/>
<text text-anchor="middle" x="1666" y="-85.8" font-family="Times,serif" font-size="14.00" fill="#000000">test/unit/data</text>
</g>
<!-- test/unit/data&#45;&gt;data -->
<g id="edge69" class="edge">
<title>test/unit/data&#45;&gt;data</title>
<path fill="none" stroke="#000000" d="M1621.6203,-75.052C1617.0567,-73.8693 1612.4592,-72.8181 1608,-72 1444.4529,-41.9935 920.622,-23.7122 775.5536,-19.1366"/>
<polygon fill="#000000" stroke="#000000" points="775.4902,-15.633 765.3857,-18.8189 775.2715,-22.6296 775.4902,-15.633"/>
</g>
<!-- test/unit/engine/clang -->
<g id="node29" class="node">
<title>test/unit/engine/clang</title>
<polygon fill="none" stroke="#000000" points="1869.0338,-324 1732.9662,-324 1732.9662,-288 1869.0338,-288 1869.0338,-324"/>
<text text-anchor="middle" x="1801" y="-301.8" font-family="Times,serif" font-size="14.00" fill="#000000">test/unit/engine/clang</text>
</g>
<!-- test/unit/engine/clang&#45;&gt;engine/clang -->
<g id="edge70" class="edge">
<title>test/unit/engine/clang&#45;&gt;engine/clang</title>
<path fill="none" stroke="#000000" d="M1761.3823,-287.8314C1738.4683,-277.323 1709.641,-264.1029 1686.2888,-253.3936"/>
<polygon fill="#000000" stroke="#000000" points="1687.5269,-250.1109 1676.9781,-249.1237 1684.6089,-256.4737 1687.5269,-250.1109"/>
</g>
<!-- test/unit/engine/templight -->
<g id="node30" class="node">
<title>test/unit/engine/templight</title>
<polygon fill="none" stroke="#000000" points="1237.8808,-396 1078.1192,-396 1078.1192,-360 1237.8808,-360 1237.8808,-396"/>
<text text-anchor="middle" x="1158" y="-373.8" font-family="Times,serif" font-size="14.00" fill="#000000">test/unit/engine/templight</text>
</g>
<!-- test/unit/engine/templight&#45;&gt;core -->
<g id="edge71" class="edge">
<title>test/unit/engine/templight&#45;&gt;core</title>
<path fill="none" stroke="#000000" d="M1149.2963,-359.8663C1134.0714,-328.9539 1100.7105,-264.6781 1064,-216 1055.4667,-204.6848 1044.7846,-193.2256 1035.3256,-183.792"/>
<polygon fill="#000000" stroke="#000000" points="1037.6659,-181.1853 1028.0663,-176.7022 1032.7749,-186.1932 1037.6659,-181.1853"/>
</g>
<!-- test/unit/engine/templight&#45;&gt;engine/templight -->
<g id="edge72" class="edge">
<title>test/unit/engine/templight&#45;&gt;engine/templight</title>
<path fill="none" stroke="#000000" d="M1203.6739,-359.8314C1230.0698,-349.3313 1263.2722,-336.1238 1290.1829,-325.419"/>
<polygon fill="#000000" stroke="#000000" points="1291.7903,-328.5464 1299.7884,-321.598 1289.2029,-322.0421 1291.7903,-328.5464"/>
</g>
<!-- test/unit/engine/templight&#45;&gt;mock -->
<g id="edge73" class="edge">
<title>test/unit/engine/templight&#45;&gt;mock</title>
<path fill="none" stroke="#000000" d="M1077.9136,-375.0868C906.7077,-368.385 516.2101,-350.3967 462,-324 442.4855,-314.4977 444.0825,-303.6086 429,-288 419.0214,-277.6733 407.744,-266.5155 398.0102,-257.0379"/>
<polygon fill="#000000" stroke="#000000" points="400.2058,-254.2916 390.5891,-249.8452 395.334,-259.3182 400.2058,-254.2916"/>
</g>
<!-- test/unit/engine/vc -->
<g id="node31" class="node">
<title>test/unit/engine/vc</title>
<polygon fill="none" stroke="#000000" points="2044.9286,-324 1925.0714,-324 1925.0714,-288 2044.9286,-288 2044.9286,-324"/>
<text text-anchor="middle" x="1985" y="-301.8" font-family="Times,serif" font-size="14.00" fill="#000000">test/unit/engine/vc</text>
</g>
<!-- test/unit/engine/vc&#45;&gt;data -->
<g id="edge74" class="edge">
<title>test/unit/engine/vc&#45;&gt;data</title>
<path fill="none" stroke="#000000" d="M1976.4532,-287.8496C1953.2582,-241.071 1884.0145,-116.9303 1783,-72 1689.4683,-30.398 950.5587,-20.1926 775.224,-18.347"/>
<polygon fill="#000000" stroke="#000000" points="775.2298,-14.847 765.1944,-18.2442 775.1579,-21.8467 775.2298,-14.847"/>
</g>
<!-- test/unit/engine/vc&#45;&gt;engine/vc -->
<g id="edge75" class="edge">
<title>test/unit/engine/vc&#45;&gt;engine/vc</title>
<path fill="none" stroke="#000000" d="M1935.7939,-287.9243C1904.2786,-276.3472 1863.7246,-261.4498 1833.2305,-250.248"/>
<polygon fill="#000000" stroke="#000000" points="1834.3012,-246.9126 1823.7076,-246.7497 1831.8874,-253.4833 1834.3012,-246.9126"/>
</g>
<!-- test/unit/main_shell -->
<g id="node32" class="node">
<title>test/unit/main_shell</title>
<polygon fill="none" stroke="#000000" points="377.4398,-324 250.5602,-324 250.5602,-288 377.4398,-288 377.4398,-324"/>
<text text-anchor="middle" x="314" y="-301.8" font-family="Times,serif" font-size="14.00" fill="#000000">test/unit/main_shell</text>
</g>
<!-- test/unit/main_shell&#45;&gt;core -->
<g id="edge76" class="edge">
<title>test/unit/main_shell&#45;&gt;core</title>
<path fill="none" stroke="#000000" d="M377.3447,-298.1509C468.6817,-286.4947 629.089,-264.6301 653,-252 672.4599,-241.721 667.5746,-226.344 687,-216 736.2619,-189.7682 899.2825,-172.1495 973.995,-165.256"/>
<polygon fill="#000000" stroke="#000000" points="974.7102,-168.7057 984.3533,-164.317 974.0781,-161.7342 974.7102,-168.7057"/>
</g>
<!-- test/unit/main_shell&#45;&gt;data -->
<g id="edge77" class="edge">
<title>test/unit/main_shell&#45;&gt;data</title>
<path fill="none" stroke="#000000" d="M250.5243,-289.7119C216.9682,-279.6816 180.7334,-266.0798 171,-252 161.9016,-238.8387 163.9172,-230.3469 171,-216 217.5915,-121.6244 261.9596,-112.7517 359,-72 420.4101,-46.2111 617.9754,-27.7034 700.8562,-20.8834"/>
<polygon fill="#000000" stroke="#000000" points="701.1577,-24.3706 710.8417,-20.0728 700.5912,-17.3935 701.1577,-24.3706"/>
</g>
<!-- test/unit/main_shell&#45;&gt;engine/constant -->
<g id="edge78" class="edge">
<title>test/unit/main_shell&#45;&gt;engine/constant</title>
<path fill="none" stroke="#000000" d="M377.4443,-288.2946C419.2089,-276.6394 473.4595,-261.4997 514.0599,-250.1693"/>
<polygon fill="#000000" stroke="#000000" points="515.1185,-253.5077 523.8097,-247.4485 513.2369,-246.7653 515.1185,-253.5077"/>
</g>
<!-- test/unit/main_shell&#45;&gt;iface -->
<g id="edge79" class="edge">
<title>test/unit/main_shell&#45;&gt;iface</title>
<path fill="none" stroke="#000000" d="M312.1475,-287.7967C311.1556,-267.1517 313.1283,-234.0247 333,-216 386.6579,-167.3294 588.6315,-203.9529 657,-180 685.2777,-170.0929 687.6286,-158.2243 714,-144 741.7288,-129.0436 774.3906,-114.4238 798.4743,-104.1763"/>
<polygon fill="#000000" stroke="#000000" points="800.0503,-107.3103 807.9051,-100.2003 797.3308,-100.8601 800.0503,-107.3103"/>
</g>
<!-- test/unit/main_shell&#45;&gt;main_shell -->
<g id="edge80" class="edge">
<title>test/unit/main_shell&#45;&gt;main_shell</title>
<path fill="none" stroke="#000000" d="M293.5603,-287.8314C283.3024,-278.7132 270.7475,-267.5534 259.7342,-257.7637"/>
<polygon fill="#000000" stroke="#000000" points="261.8415,-254.954 252.0421,-250.9263 257.1909,-260.1859 261.8415,-254.954"/>
</g>
<!-- test/unit/main_shell&#45;&gt;mock -->
<g id="edge81" class="edge">
<title>test/unit/main_shell&#45;&gt;mock</title>
<path fill="none" stroke="#000000" d="M329.1405,-287.8314C336.6261,-278.8486 345.763,-267.8843 353.8327,-258.2007"/>
<polygon fill="#000000" stroke="#000000" points="356.5875,-260.3622 360.3006,-250.4393 351.2099,-255.8809 356.5875,-260.3622"/>
</g>
<!-- test/unit/mdb -->
<g id="node33" class="node">
<title>test/unit/mdb</title>
<polygon fill="none" stroke="#000000" points="959.8935,-324 870.1065,-324 870.1065,-288 959.8935,-288 959.8935,-324"/>
<text text-anchor="middle" x="915" y="-301.8" font-family="Times,serif" font-size="14.00" fill="#000000">test/unit/mdb</text>
</g>
<!-- test/unit/mdb&#45;&gt;core -->
<g id="edge82" class="edge">
<title>test/unit/mdb&#45;&gt;core</title>
<path fill="none" stroke="#000000" d="M927.2851,-287.7623C944.4715,-262.2485 975.7536,-215.8091 995.1176,-187.0625"/>
<polygon fill="#000000" stroke="#000000" points="998.0317,-189.0011 1000.7157,-178.7519 992.226,-185.0903 998.0317,-189.0011"/>
</g>
<!-- test/unit/mdb&#45;&gt;data -->
<g id="edge83" class="edge">
<title>test/unit/mdb&#45;&gt;data</title>
<path fill="none" stroke="#000000" d="M869.9687,-293.344C847.6005,-284.9492 821.8293,-271.759 805,-252 753.6513,-191.7124 741.5771,-94.294 738.7932,-46.4145"/>
<polygon fill="#000000" stroke="#000000" points="742.2768,-45.9877 738.2976,-36.1685 735.2849,-46.3259 742.2768,-45.9877"/>
</g>
<!-- test/unit/mdb&#45;&gt;engine/constant -->
<g id="edge84" class="edge">
<title>test/unit/mdb&#45;&gt;engine/constant</title>
<path fill="none" stroke="#000000" d="M869.806,-296.5132C810.3701,-284.0369 705.5178,-262.0271 637.4167,-247.7318"/>
<polygon fill="#000000" stroke="#000000" points="637.7363,-244.2227 627.2305,-245.5936 636.2982,-251.0734 637.7363,-244.2227"/>
</g>
<!-- test/unit/mdb&#45;&gt;iface -->
<g id="edge85" class="edge">
<title>test/unit/mdb&#45;&gt;iface</title>
<path fill="none" stroke="#000000" d="M908.1498,-287.9555C893.764,-250.0613 860.3382,-162.0128 843.334,-117.2213"/>
<polygon fill="#000000" stroke="#000000" points="846.5944,-115.948 839.7731,-107.8413 840.0501,-118.4325 846.5944,-115.948"/>
</g>
<!-- test/unit/mdb&#45;&gt;mdb -->
<g id="edge86" class="edge">
<title>test/unit/mdb&#45;&gt;mdb</title>
<path fill="none" stroke="#000000" d="M896.579,-287.8314C887.0201,-278.4034 875.248,-266.7926 865.0869,-256.7706"/>
<polygon fill="#000000" stroke="#000000" points="867.2714,-254.0092 857.694,-249.479 862.3559,-258.993 867.2714,-254.0092"/>
</g>
<!-- test/unit/pragma -->
<g id="node34" class="node">
<title>test/unit/pragma</title>
<polygon fill="none" stroke="#000000" points="550.4832,-396 443.5168,-396 443.5168,-360 550.4832,-360 550.4832,-396"/>
<text text-anchor="middle" x="497" y="-373.8" font-family="Times,serif" font-size="14.00" fill="#000000">test/unit/pragma</text>
</g>
<!-- test/unit/pragma&#45;&gt;core -->
<g id="edge87" class="edge">
<title>test/unit/pragma&#45;&gt;core</title>
<path fill="none" stroke="#000000" d="M550.836,-375.2249C667.9384,-368.711 937.8353,-350.9297 969,-324 1007.5759,-290.6662 1013.4905,-227.0792 1013.3815,-190.2626"/>
<polygon fill="#000000" stroke="#000000" points="1016.8798,-190.1321 1013.1988,-180.1973 1009.881,-190.2592 1016.8798,-190.1321"/>
</g>
<!-- test/unit/pragma&#45;&gt;data -->
<g id="edge88" class="edge">
<title>test/unit/pragma&#45;&gt;data</title>
<path fill="none" stroke="#000000" d="M443.4486,-372.6403C322.3694,-359.0406 38,-318.1434 38,-234 38,-234 38,-234 38,-162 38,-105.4315 76.7438,-95.9332 128,-72 179.8335,-47.7972 575.6761,-26.1218 700.4524,-19.8312"/>
<polygon fill="#000000" stroke="#000000" points="700.8439,-23.3161 710.6565,-19.3207 700.4941,-16.3249 700.8439,-23.3161"/>
</g>
<!-- test/unit/pragma&#45;&gt;engine/constant -->
<g id="edge89" class="edge">
<title>test/unit/pragma&#45;&gt;engine/constant</title>
<path fill="none" stroke="#000000" d="M534.1314,-359.8806C547.9511,-351.0894 562.1673,-339.1166 570,-324 579.843,-305.0036 579.7309,-280.588 577.496,-261.981"/>
<polygon fill="#000000" stroke="#000000" points="580.9533,-261.4344 576.0401,-252.0477 574.0273,-262.4495 580.9533,-261.4344"/>
</g>
<!-- test/unit/pragma&#45;&gt;main_shell -->
<g id="edge90" class="edge">
<title>test/unit/pragma&#45;&gt;main_shell</title>
<path fill="none" stroke="#000000" d="M443.3608,-373.9509C376.6397,-367.7259 268.2806,-353.3139 242,-324 227.1615,-307.4489 225.9814,-281.6829 227.8916,-261.9539"/>
<polygon fill="#000000" stroke="#000000" points="231.3691,-262.352 229.1597,-251.9901 224.4251,-261.4682 231.3691,-262.352"/>
</g>
<!-- test/unit/pragma&#45;&gt;mock -->
<g id="edge91" class="edge">
<title>test/unit/pragma&#45;&gt;mock</title>
<path fill="none" stroke="#000000" d="M469.9633,-359.9457C456.6745,-350.2635 440.9841,-337.5513 429,-324 411.8771,-304.6379 396.9157,-279.266 386.9378,-260.398"/>
<polygon fill="#000000" stroke="#000000" points="390.0173,-258.7332 382.3208,-251.452 383.7968,-261.9435 390.0173,-258.7332"/>
</g>
<!-- test/unit/pragma&#45;&gt;pragma -->
<g id="edge92" class="edge">
<title>test/unit/pragma&#45;&gt;pragma</title>
<path fill="none" stroke="#000000" d="M550.7368,-364.0323C602.7333,-350.517 680.6281,-330.27 729.3219,-317.6131"/>
<polygon fill="#000000" stroke="#000000" points="730.4518,-320.9358 739.2496,-315.0326 728.6907,-314.1609 730.4518,-320.9358"/>
</g>
<!-- test/unit/replace_part -->
<g id="node35" class="node">
<title>test/unit/replace_part</title>
<polygon fill="none" stroke="#000000" points="2859.1783,-468 2724.8217,-468 2724.8217,-432 2859.1783,-432 2859.1783,-468"/>
<text text-anchor="middle" x="2792" y="-445.8" font-family="Times,serif" font-size="14.00" fill="#000000">test/unit/replace_part</text>
</g>
<!-- test/unit/replace_part&#45;&gt;replace_part -->
<g id="edge93" class="edge">
<title>test/unit/replace_part&#45;&gt;replace_part</title>
<path fill="none" stroke="#000000" d="M2792,-431.8314C2792,-424.131 2792,-414.9743 2792,-406.4166"/>
<polygon fill="#000000" stroke="#000000" points="2795.5001,-406.4132 2792,-396.4133 2788.5001,-406.4133 2795.5001,-406.4132"/>
</g>
<!-- test/unit/system_test -->
<g id="node36" class="node">
<title>test/unit/system_test</title>
<polygon fill="none" stroke="#000000" points="2439.3286,-324 2308.6714,-324 2308.6714,-288 2439.3286,-288 2439.3286,-324"/>
<text text-anchor="middle" x="2374" y="-301.8" font-family="Times,serif" font-size="14.00" fill="#000000">test/unit/system_test</text>
</g>
<!-- test/unit/system_test&#45;&gt;system_test -->
<g id="edge94" class="edge">
<title>test/unit/system_test&#45;&gt;system_test</title>
<path fill="none" stroke="#000000" d="M2374,-287.8314C2374,-280.131 2374,-270.9743 2374,-262.4166"/>
<polygon fill="#000000" stroke="#000000" points="2377.5001,-262.4132 2374,-252.4133 2370.5001,-262.4133 2377.5001,-262.4132"/>
</g>
</g>
</svg>
