<?xml version="1.0" encoding="UTF-8" standalone="no"?>
<!DOCTYPE svg PUBLIC "-//W3C//DTD SVG 1.1//EN"
 "http://www.w3.org/Graphics/SVG/1.1/DTD/svg11.dtd">
<!-- Generated by graphviz version 2.40.1
 -->
<!-- Title: %3 Pages: 1 -->
<svg width="2423pt" height="476pt"
 viewBox="0.00 0.00 2422.94 476.00" xmlns="http://www.w3.org/2000/svg" xmlns:xlink="http://www.w3.org/1999/xlink">
<g id="graph0" class="graph" transform="scale(1 1) rotate(0) translate(4 472)">
<title>%3</title>
<polygon fill="#ffffff" stroke="transparent" points="-4,4 -4,-472 2418.9379,-472 2418.9379,4 -4,4"/>
<!-- core -->
<g id="node1" class="node">
<title>core</title>
<ellipse fill="#ffffff" stroke="#000000" cx="1307.0891" cy="-162" rx="27.8073" ry="18"/>
<text text-anchor="middle" x="1307.0891" y="-157.8" font-family="Times,serif" font-size="14.00" fill="#000000">core</text>
</g>
<!-- data -->
<g id="node2" class="node">
<title>data</title>
<ellipse fill="#ffffff" stroke="#000000" cx="1674.0891" cy="-18" rx="27.2447" ry="18"/>
<text text-anchor="middle" x="1674.0891" y="-13.8" font-family="Times,serif" font-size="14.00" fill="#000000">data</text>
</g>
<!-- core&#45;&gt;data -->
<g id="edge1" class="edge">
<title>core&#45;&gt;data</title>
<path fill="none" stroke="#000000" d="M1317.8194,-145.3904C1332.1313,-124.6935 1359.4877,-89.8772 1392.0891,-72 1433.8885,-49.079 1570.6451,-30.2647 1637.1333,-22.2154"/>
<polygon fill="#000000" stroke="#000000" points="1637.6608,-25.6773 1647.1756,-21.0169 1636.8313,-18.7266 1637.6608,-25.6773"/>
</g>
<!-- iface -->
<g id="node9" class="node">
<title>iface</title>
<ellipse fill="#ffffff" stroke="#000000" cx="1624.0891" cy="-90" rx="29.5916" ry="18"/>
<text text-anchor="middle" x="1624.0891" y="-85.8" font-family="Times,serif" font-size="14.00" fill="#000000">iface</text>
</g>
<!-- core&#45;&gt;iface -->
<g id="edge2" class="edge">
<title>core&#45;&gt;iface</title>
<path fill="none" stroke="#000000" d="M1333.3002,-156.0467C1389.3408,-143.3182 1521.0004,-113.4145 1586.1738,-98.6117"/>
<polygon fill="#000000" stroke="#000000" points="1587.0648,-101.9985 1596.0412,-96.3705 1585.5143,-95.1724 1587.0648,-101.9985"/>
</g>
<!-- process -->
<g id="node15" class="node">
<title>process</title>
<ellipse fill="#ffffff" stroke="#000000" cx="835.0891" cy="-90" rx="39.9857" ry="18"/>
<text text-anchor="middle" x="835.0891" y="-85.8" font-family="Times,serif" font-size="14.00" fill="#000000">process</text>
</g>
<!-- core&#45;&gt;process -->
<g id="edge3" class="edge">
<title>core&#45;&gt;process</title>
<path fill="none" stroke="#000000" d="M1280.0171,-157.8704C1202.9216,-146.11 981.4476,-112.3259 883.1163,-97.3262"/>
<polygon fill="#000000" stroke="#000000" points="883.5646,-93.8542 873.1512,-95.8061 882.509,-100.7741 883.5646,-93.8542"/>
</g>
<!-- defaults -->
<g id="node3" class="node">
<title>defaults</title>
<ellipse fill="#ffffff" stroke="#000000" cx="1112.0891" cy="-378" rx="41.7095" ry="18"/>
<text text-anchor="middle" x="1112.0891" y="-373.8" font-family="Times,serif" font-size="14.00" fill="#000000">defaults</text>
</g>
<!-- defaults&#45;&gt;core -->
<g id="edge4" class="edge">
<title>defaults&#45;&gt;core</title>
<path fill="none" stroke="#000000" d="M1134.5644,-362.6353C1147.5384,-352.8281 1163.3589,-339.1394 1174.0891,-324 1203.9642,-281.8489 1183.6227,-255.3603 1217.0891,-216 1232.3362,-198.0677 1255.1114,-184.4833 1273.9353,-175.4247"/>
<polygon fill="#000000" stroke="#000000" points="1275.4571,-178.5773 1283.0825,-171.2218 1272.5344,-172.2166 1275.4571,-178.5773"/>
</g>
<!-- engine/gcc -->
<g id="node5" class="node">
<title>engine/gcc</title>
<ellipse fill="#ffffff" stroke="#000000" cx="1112.0891" cy="-306" rx="52.7295" ry="18"/>
<text text-anchor="middle" x="1112.0891" y="-301.8" font-family="Times,serif" font-size="14.00" fill="#000000">engine/gcc</text>
</g>
<!-- defaults&#45;&gt;engine/gcc -->
<g id="edge5" class="edge">
<title>defaults&#45;&gt;engine/gcc</title>
<path fill="none" stroke="#000000" d="M1112.0891,-359.8314C1112.0891,-352.131 1112.0891,-342.9743 1112.0891,-334.4166"/>
<polygon fill="#000000" stroke="#000000" points="1115.5892,-334.4132 1112.0891,-324.4133 1108.5892,-334.4133 1115.5892,-334.4132"/>
</g>
<!-- engine/null -->
<g id="node6" class="node">
<title>engine/null</title>
<ellipse fill="#ffffff" stroke="#000000" cx="987.0891" cy="-306" rx="54.4739" ry="18"/>
<text text-anchor="middle" x="987.0891" y="-301.8" font-family="Times,serif" font-size="14.00" fill="#000000">engine/null</text>
</g>
<!-- defaults&#45;&gt;engine/null -->
<g id="edge6" class="edge">
<title>defaults&#45;&gt;engine/null</title>
<path fill="none" stroke="#000000" d="M1087.0939,-363.6028C1068.7235,-353.0214 1043.4931,-338.4887 1022.9712,-326.6681"/>
<polygon fill="#000000" stroke="#000000" points="1024.6197,-323.5786 1014.2074,-321.6202 1021.1258,-329.6443 1024.6197,-323.5786"/>
</g>
<!-- engine/vc -->
<g id="node7" class="node">
<title>engine/vc</title>
<ellipse fill="#ffffff" stroke="#000000" cx="864.0891" cy="-234" rx="48.6559" ry="18"/>
<text text-anchor="middle" x="864.0891" y="-229.8" font-family="Times,serif" font-size="14.00" fill="#000000">engine/vc</text>
</g>
<!-- defaults&#45;&gt;engine/vc -->
<g id="edge7" class="edge">
<title>defaults&#45;&gt;engine/vc</title>
<path fill="none" stroke="#000000" d="M1070.7916,-374.8782C979.9115,-367.5895 768.9793,-348.2179 748.0891,-324 737.6384,-311.8846 739.4879,-301.4915 748.0891,-288 756.3503,-275.0418 789.5658,-260.3169 818.3485,-249.5202"/>
<polygon fill="#000000" stroke="#000000" points="819.7142,-252.7473 827.8972,-246.0175 817.3035,-246.1755 819.7142,-252.7473"/>
</g>
<!-- engine/wave -->
<g id="node8" class="node">
<title>engine/wave</title>
<ellipse fill="#ffffff" stroke="#000000" cx="1029.0891" cy="-234" rx="59.6723" ry="18"/>
<text text-anchor="middle" x="1029.0891" y="-229.8" font-family="Times,serif" font-size="14.00" fill="#000000">engine/wave</text>
</g>
<!-- defaults&#45;&gt;engine/wave -->
<g id="edge8" class="edge">
<title>defaults&#45;&gt;engine/wave</title>
<path fill="none" stroke="#000000" d="M1072.4785,-372.2617C1022.7903,-364.1593 941.9149,-347.6667 924.0891,-324 914.4629,-311.2197 915.7549,-301.658 924.0891,-288 935.192,-269.8047 954.5991,-257.4814 973.7323,-249.2619"/>
<polygon fill="#000000" stroke="#000000" points="975.0676,-252.4976 983.0654,-245.5488 972.4799,-245.9934 975.0676,-252.4976"/>
</g>
<!-- defaults&#45;&gt;iface -->
<g id="edge9" class="edge">
<title>defaults&#45;&gt;iface</title>
<path fill="none" stroke="#000000" d="M1153.9041,-377.1524C1243.8335,-374.5699 1452.0221,-364.2855 1508.0891,-324 1578.3915,-273.486 1608.3514,-168.1685 1619.0408,-117.8856"/>
<polygon fill="#000000" stroke="#000000" points="1622.482,-118.5265 1621.0369,-108.0307 1615.6213,-117.1368 1622.482,-118.5265"/>
</g>
<!-- pragma -->
<g id="node14" class="node">
<title>pragma</title>
<ellipse fill="#ffffff" stroke="#000000" cx="1459.0891" cy="-306" rx="39.9876" ry="18"/>
<text text-anchor="middle" x="1459.0891" y="-301.8" font-family="Times,serif" font-size="14.00" fill="#000000">pragma</text>
</g>
<!-- defaults&#45;&gt;pragma -->
<g id="edge10" class="edge">
<title>defaults&#45;&gt;pragma</title>
<path fill="none" stroke="#000000" d="M1149.8847,-370.1577C1213.7917,-356.8974 1343.0052,-330.0866 1412.4433,-315.6787"/>
<polygon fill="#000000" stroke="#000000" points="1413.5672,-319.0201 1422.6475,-313.5614 1412.145,-312.1661 1413.5672,-319.0201"/>
</g>
<!-- engine/constant -->
<g id="node4" class="node">
<title>engine/constant</title>
<ellipse fill="#ffffff" stroke="#000000" cx="1709.0891" cy="-234" rx="71.7892" ry="18"/>
<text text-anchor="middle" x="1709.0891" y="-229.8" font-family="Times,serif" font-size="14.00" fill="#000000">engine/constant</text>
</g>
<!-- engine/constant&#45;&gt;core -->
<g id="edge11" class="edge">
<title>engine/constant&#45;&gt;core</title>
<path fill="none" stroke="#000000" d="M1650.6348,-223.5306C1566.5407,-208.469 1413.862,-181.1235 1343.8989,-168.5928"/>
<polygon fill="#000000" stroke="#000000" points="1344.2592,-165.1017 1333.7987,-166.7838 1343.025,-171.9921 1344.2592,-165.1017"/>
</g>
<!-- engine/constant&#45;&gt;data -->
<g id="edge12" class="edge">
<title>engine/constant&#45;&gt;data</title>
<path fill="none" stroke="#000000" d="M1706.1652,-215.9555C1700.066,-178.3144 1685.9481,-91.1867 1678.6463,-46.1246"/>
<polygon fill="#000000" stroke="#000000" points="1682.0838,-45.4565 1677.0293,-36.1451 1675.1739,-46.5762 1682.0838,-45.4565"/>
</g>
<!-- engine/constant&#45;&gt;iface -->
<g id="edge13" class="edge">
<title>engine/constant&#45;&gt;iface</title>
<path fill="none" stroke="#000000" d="M1698.4957,-216.0535C1683.6374,-190.8819 1656.5181,-144.9386 1639.4462,-116.0167"/>
<polygon fill="#000000" stroke="#000000" points="1642.3821,-114.105 1634.2847,-107.2725 1636.3539,-117.6633 1642.3821,-114.105"/>
</g>
<!-- engine/gcc&#45;&gt;core -->
<g id="edge14" class="edge">
<title>engine/gcc&#45;&gt;core</title>
<path fill="none" stroke="#000000" d="M1121.4707,-288.2088C1132.7785,-268.2576 1153.4912,-236.0742 1179.0891,-216 1206.6044,-194.4221 1244.007,-179.9654 1271.2733,-171.4845"/>
<polygon fill="#000000" stroke="#000000" points="1272.605,-174.7396 1281.1853,-168.5244 1270.6019,-168.0323 1272.605,-174.7396"/>
</g>
<!-- engine/null&#45;&gt;core -->
<g id="edge15" class="edge">
<title>engine/null&#45;&gt;core</title>
<path fill="none" stroke="#000000" d="M1021.2105,-291.8832C1043.7472,-281.9677 1073.5401,-267.7093 1098.0891,-252 1119.3716,-238.381 1119.9275,-228.136 1142.0891,-216 1164.6192,-203.6623 1230.292,-183.8155 1271.6707,-171.9282"/>
<polygon fill="#000000" stroke="#000000" points="1272.7175,-175.2692 1281.3727,-169.1588 1270.7961,-168.5381 1272.7175,-175.2692"/>
</g>
<!-- engine/vc&#45;&gt;core -->
<g id="edge16" class="edge">
<title>engine/vc&#45;&gt;core</title>
<path fill="none" stroke="#000000" d="M907.5261,-225.5607C923.9719,-222.4431 942.8747,-218.9526 960.0891,-216 1072.7943,-196.6691 1206.6141,-176.6778 1270.1116,-167.3702"/>
<polygon fill="#000000" stroke="#000000" points="1270.6586,-170.8275 1280.0468,-165.917 1269.6455,-163.9012 1270.6586,-170.8275"/>
</g>
<!-- engine/vc&#45;&gt;data -->
<g id="edge17" class="edge">
<title>engine/vc&#45;&gt;data</title>
<path fill="none" stroke="#000000" d="M865.1212,-215.9492C868.1591,-181.4907 880.115,-106.6856 927.0891,-72 984.5541,-29.568 1493.7921,-20.1933 1636.8548,-18.3892"/>
<polygon fill="#000000" stroke="#000000" points="1636.9376,-21.8886 1646.8944,-18.2676 1636.8527,-14.8891 1636.9376,-21.8886"/>
</g>
<!-- engine/vc&#45;&gt;iface -->
<g id="edge18" class="edge">
<title>engine/vc&#45;&gt;iface</title>
<path fill="none" stroke="#000000" d="M898.5259,-221.2661C953.0408,-201.618 1062.9074,-164.0848 1159.0891,-144 1314.2187,-111.6056 1502.8106,-97.2307 1583.8843,-92.2193"/>
<polygon fill="#000000" stroke="#000000" points="1584.3706,-95.6964 1594.1415,-91.6001 1583.9487,-88.7091 1584.3706,-95.6964"/>
</g>
<!-- engine/vc&#45;&gt;process -->
<g id="edge19" class="edge">
<title>engine/vc&#45;&gt;process</title>
<path fill="none" stroke="#000000" d="M860.4162,-215.7623C855.4481,-191.0928 846.54,-146.8598 840.7226,-117.9731"/>
<polygon fill="#000000" stroke="#000000" points="844.1376,-117.2018 838.7321,-108.0896 837.2754,-118.5838 844.1376,-117.2018"/>
</g>
<!-- engine/wave&#45;&gt;core -->
<g id="edge20" class="edge">
<title>engine/wave&#45;&gt;core</title>
<path fill="none" stroke="#000000" d="M1075.4659,-222.4259C1118.4547,-211.6406 1184.1649,-195.011 1241.0891,-180 1250.9763,-177.3927 1261.6779,-174.5033 1271.5279,-171.8164"/>
<polygon fill="#000000" stroke="#000000" points="1272.6935,-175.1262 1281.4145,-169.11 1270.8453,-168.3746 1272.6935,-175.1262"/>
</g>
<!-- engine/wave&#45;&gt;data -->
<g id="edge21" class="edge">
<title>engine/wave&#45;&gt;data</title>
<path fill="none" stroke="#000000" d="M1050.1751,-217.077C1075.1037,-197.6348 1118.3632,-165.6364 1159.0891,-144 1237.0056,-102.6054 1258.978,-95.2508 1344.0891,-72 1448.3789,-43.5099 1575.5674,-27.8942 1637.1513,-21.4984"/>
<polygon fill="#000000" stroke="#000000" points="1637.569,-24.974 1647.1635,-20.4802 1636.8607,-18.0099 1637.569,-24.974"/>
</g>
<!-- engine/wave&#45;&gt;iface -->
<g id="edge22" class="edge">
<title>engine/wave&#45;&gt;iface</title>
<path fill="none" stroke="#000000" d="M1062.6971,-218.9214C1108.6312,-198.9026 1194.0127,-163.7817 1270.0891,-144 1382.0306,-114.8925 1518.2345,-99.5719 1584.3126,-93.3725"/>
<polygon fill="#000000" stroke="#000000" points="1584.6633,-96.8551 1594.3012,-92.4551 1584.023,-89.8844 1584.6633,-96.8551"/>
</g>
<!-- iface&#45;&gt;data -->
<g id="edge23" class="edge">
<title>iface&#45;&gt;data</title>
<path fill="none" stroke="#000000" d="M1635.6858,-73.3008C1641.9333,-64.3043 1649.7664,-53.0247 1656.726,-43.0029"/>
<polygon fill="#000000" stroke="#000000" points="1659.7261,-44.8188 1662.5553,-34.6087 1653.9765,-40.826 1659.7261,-44.8188"/>
</g>
<!-- main_shell -->
<g id="node10" class="node">
<title>main_shell</title>
<ellipse fill="#ffffff" stroke="#000000" cx="2111.0891" cy="-234" rx="53.3283" ry="18"/>
<text text-anchor="middle" x="2111.0891" y="-229.8" font-family="Times,serif" font-size="14.00" fill="#000000">main_shell</text>
</g>
<!-- main_shell&#45;&gt;core -->
<g id="edge24" class="edge">
<title>main_shell&#45;&gt;core</title>
<path fill="none" stroke="#000000" d="M2059.2645,-229.359C1909.1195,-215.9132 1476.2053,-177.1447 1345.1383,-165.4074"/>
<polygon fill="#000000" stroke="#000000" points="1345.0854,-161.8887 1334.8131,-164.4827 1344.461,-168.8608 1345.0854,-161.8887"/>
</g>
<!-- main_shell&#45;&gt;data -->
<g id="edge25" class="edge">
<title>main_shell&#45;&gt;data</title>
<path fill="none" stroke="#000000" d="M2097.2238,-216.603C2069.3834,-182.9442 2003.0691,-108.9774 1930.0891,-72 1858.2558,-35.6037 1763.1402,-23.7202 1711.4398,-19.8534"/>
<polygon fill="#000000" stroke="#000000" points="1711.6109,-16.3569 1701.3944,-19.1629 1711.1308,-23.3405 1711.6109,-16.3569"/>
</g>
<!-- main_shell&#45;&gt;iface -->
<g id="edge26" class="edge">
<title>main_shell&#45;&gt;iface</title>
<path fill="none" stroke="#000000" d="M2075.7216,-220.2696C2026.5253,-201.4809 1934.4201,-167.424 1854.0891,-144 1787.4629,-124.5722 1708.4333,-107.2359 1662.5023,-97.7134"/>
<polygon fill="#000000" stroke="#000000" points="1663.1689,-94.2773 1652.6686,-95.6894 1661.7577,-101.1336 1663.1689,-94.2773"/>
</g>
<!-- mdb -->
<g id="node11" class="node">
<title>mdb</title>
<ellipse fill="#ffffff" stroke="#000000" cx="1401.0891" cy="-234" rx="28.4127" ry="18"/>
<text text-anchor="middle" x="1401.0891" y="-229.8" font-family="Times,serif" font-size="14.00" fill="#000000">mdb</text>
</g>
<!-- mdb&#45;&gt;core -->
<g id="edge27" class="edge">
<title>mdb&#45;&gt;core</title>
<path fill="none" stroke="#000000" d="M1382.965,-220.1177C1368.9205,-209.3602 1349.2597,-194.3009 1333.4707,-182.2072"/>
<polygon fill="#000000" stroke="#000000" points="1335.2247,-179.1419 1325.1576,-175.8397 1330.9681,-184.6991 1335.2247,-179.1419"/>
</g>
<!-- mdb&#45;&gt;data -->
<g id="edge28" class="edge">
<title>mdb&#45;&gt;data</title>
<path fill="none" stroke="#000000" d="M1404.8353,-216.1581C1412.7984,-182.7246 1434.6141,-110.5499 1481.0891,-72 1504.9032,-52.2468 1588.7789,-33.8769 1637.7699,-24.5021"/>
<polygon fill="#000000" stroke="#000000" points="1638.4801,-27.93 1647.6603,-22.6409 1637.1855,-21.0507 1638.4801,-27.93"/>
</g>
<!-- mdb&#45;&gt;iface -->
<g id="edge29" class="edge">
<title>mdb&#45;&gt;iface</title>
<path fill="none" stroke="#000000" d="M1417.9867,-219.5818C1440.2937,-200.9134 1481.1849,-167.9386 1519.0891,-144 1542.2348,-129.3822 1569.8062,-115.3203 1590.887,-105.2123"/>
<polygon fill="#000000" stroke="#000000" points="1592.5382,-108.303 1600.0768,-100.8585 1589.5411,-101.977 1592.5382,-108.303"/>
</g>
<!-- mock -->
<g id="node12" class="node">
<title>mock</title>
<ellipse fill="#ffffff" stroke="#000000" cx="1780.0891" cy="-162" rx="32.4846" ry="18"/>
<text text-anchor="middle" x="1780.0891" y="-157.8" font-family="Times,serif" font-size="14.00" fill="#000000">mock</text>
</g>
<!-- mock&#45;&gt;iface -->
<g id="edge30" class="edge">
<title>mock&#45;&gt;iface</title>
<path fill="none" stroke="#000000" d="M1755.025,-150.432C1728.4834,-138.182 1686.4584,-118.7859 1657.2035,-105.2836"/>
<polygon fill="#000000" stroke="#000000" points="1658.3589,-101.9621 1647.8126,-100.9493 1655.4255,-108.3178 1658.3589,-101.9621"/>
</g>
<!-- pattern -->
<g id="node13" class="node">
<title>pattern</title>
<ellipse fill="#ffffff" stroke="#000000" cx="392.0891" cy="-90" rx="37.6986" ry="18"/>
<text text-anchor="middle" x="392.0891" y="-85.8" font-family="Times,serif" font-size="14.00" fill="#000000">pattern</text>
</g>
<!-- pragma&#45;&gt;core -->
<g id="edge31" class="edge">
<title>pragma&#45;&gt;core</title>
<path fill="none" stroke="#000000" d="M1421.5984,-299.443C1392.8499,-292.4871 1354.2838,-278.6553 1331.0891,-252 1316.2211,-234.9137 1310.4381,-209.5833 1308.2495,-190.1445"/>
<polygon fill="#000000" stroke="#000000" points="1311.724,-189.6992 1307.3685,-180.041 1304.7505,-190.3073 1311.724,-189.6992"/>
</g>
<!-- pragma&#45;&gt;data -->
<g id="edge32" class="edge">
<title>pragma&#45;&gt;data</title>
<path fill="none" stroke="#000000" d="M1464.3401,-287.9561C1477.6742,-245.0327 1516.7203,-135.6832 1585.0891,-72 1602.0942,-56.1603 1624.4706,-42.6089 1642.532,-33.0433"/>
<polygon fill="#000000" stroke="#000000" points="1644.241,-36.1002 1651.5324,-28.4135 1641.0389,-29.8755 1644.241,-36.1002"/>
</g>
<!-- pragma&#45;&gt;iface -->
<g id="edge33" class="edge">
<title>pragma&#45;&gt;iface</title>
<path fill="none" stroke="#000000" d="M1476.8619,-289.7125C1487.1998,-279.5782 1499.9507,-265.8697 1509.0891,-252 1537.989,-208.1376 1525.0781,-185.6462 1557.0891,-144 1567.4454,-130.5264 1581.8265,-118.365 1594.6109,-109.0098"/>
<polygon fill="#000000" stroke="#000000" points="1596.9803,-111.6218 1603.1375,-102.9998 1592.9474,-105.9002 1596.9803,-111.6218"/>
</g>
<!-- pragma&#45;&gt;mdb -->
<g id="edge34" class="edge">
<title>pragma&#45;&gt;mdb</title>
<path fill="none" stroke="#000000" d="M1445.3439,-288.937C1438.016,-279.8403 1428.8715,-268.4886 1420.8003,-258.4691"/>
<polygon fill="#000000" stroke="#000000" points="1423.3354,-256.0368 1414.3364,-250.4449 1417.8841,-260.4281 1423.3354,-256.0368"/>
</g>
<!-- process&#45;&gt;data -->
<g id="edge35" class="edge">
<title>process&#45;&gt;data</title>
<path fill="none" stroke="#000000" d="M865.8523,-78.2563C873.3563,-75.8082 881.4305,-73.5144 889.0891,-72 1035.062,-43.1362 1501.0637,-24.2925 1636.7111,-19.3172"/>
<polygon fill="#000000" stroke="#000000" points="1637.1256,-22.8046 1646.9919,-18.9436 1636.8713,-15.8092 1637.1256,-22.8046"/>
</g>
<!-- readline -->
<g id="node16" class="node">
<title>readline</title>
<ellipse fill="#ffffff" stroke="#000000" cx="2338.0891" cy="-162" rx="42.2719" ry="18"/>
<text text-anchor="middle" x="2338.0891" y="-157.8" font-family="Times,serif" font-size="14.00" fill="#000000">readline</text>
</g>
<!-- readline&#45;&gt;data -->
<g id="edge36" class="edge">
<title>readline&#45;&gt;data</title>
<path fill="none" stroke="#000000" d="M2325.7831,-144.511C2309.713,-123.2368 2279.4274,-88.1667 2244.0891,-72 2148.6414,-28.3344 1822.7627,-19.9634 1711.5981,-18.3707"/>
<polygon fill="#000000" stroke="#000000" points="1711.5712,-14.8701 1701.5255,-18.2368 1711.478,-21.8695 1711.5712,-14.8701"/>
</g>
<!-- readline&#45;&gt;iface -->
<g id="edge37" class="edge">
<title>readline&#45;&gt;iface</title>
<path fill="none" stroke="#000000" d="M2305.848,-150.2497C2298.1517,-147.833 2289.9014,-145.5547 2282.0891,-144 2162.6165,-120.2241 1787.9224,-98.7033 1664.1866,-92.0835"/>
<polygon fill="#000000" stroke="#000000" points="1664.1913,-88.5789 1654.0196,-91.543 1663.8196,-95.5691 1664.1913,-88.5789"/>
</g>
<!-- replace_part -->
<g id="node17" class="node">
<title>replace_part</title>
<ellipse fill="#ffffff" stroke="#000000" cx="67.0891" cy="-378" rx="58.5059" ry="18"/>
<text text-anchor="middle" x="67.0891" y="-373.8" font-family="Times,serif" font-size="14.00" fill="#000000">replace_part</text>
</g>
<!-- system_test -->
<g id="node18" class="node">
<title>system_test</title>
<ellipse fill="#ffffff" stroke="#000000" cx="474.0891" cy="-162" rx="56.1937" ry="18"/>
<text text-anchor="middle" x="474.0891" y="-157.8" font-family="Times,serif" font-size="14.00" fill="#000000">system_test</text>
</g>
<!-- system_test&#45;&gt;pattern -->
<g id="edge38" class="edge">
<title>system_test&#45;&gt;pattern</title>
<path fill="none" stroke="#000000" d="M454.6562,-144.937C443.7278,-135.3413 429.9416,-123.2363 418.0932,-112.8328"/>
<polygon fill="#000000" stroke="#000000" points="420.0827,-109.922 410.2589,-105.954 415.464,-115.1821 420.0827,-109.922"/>
</g>
<!-- system_test&#45;&gt;process -->
<g id="edge39" class="edge">
<title>system_test&#45;&gt;process</title>
<path fill="none" stroke="#000000" d="M522.0271,-152.439C591.533,-138.5763 719.4861,-113.0566 788.3262,-99.3267"/>
<polygon fill="#000000" stroke="#000000" points="789.3224,-102.697 798.4447,-97.3086 787.9532,-95.8322 789.3224,-102.697"/>
</g>
<!-- app/metashell -->
<g id="node19" class="node">
<title>app/metashell</title>
<polygon fill="none" stroke="#000000" points="2295.8454,-468 2202.3328,-468 2202.3328,-432 2295.8454,-432 2295.8454,-468"/>
<text text-anchor="middle" x="2249.0891" y="-445.8" font-family="Times,serif" font-size="14.00" fill="#000000">app/metashell</text>
</g>
<!-- app/metashell&#45;&gt;core -->
<g id="edge40" class="edge">
<title>app/metashell&#45;&gt;core</title>
<path fill="none" stroke="#000000" d="M2202.1385,-449.3108C2035.3087,-446.0022 1473.5982,-427.2584 1333.0891,-324 1292.4299,-294.1201 1293.9273,-266.2857 1298.0891,-216 1298.7946,-207.4753 1300.1164,-198.2703 1301.534,-189.917"/>
<polygon fill="#000000" stroke="#000000" points="1305.0088,-190.3698 1303.3417,-179.9069 1298.1202,-189.1258 1305.0088,-190.3698"/>
</g>
<!-- app/metashell&#45;&gt;data -->
<g id="edge41" class="edge">
<title>app/metashell&#45;&gt;data</title>
<path fill="none" stroke="#000000" d="M2294.6521,-431.844C2341.6363,-409.7623 2408.0891,-367.636 2408.0891,-306 2408.0891,-306 2408.0891,-306 2408.0891,-162 2408.0891,-132.5574 2458.5855,-134.5834 2283.0891,-72 2176.8071,-34.099 1826.9996,-21.9059 1711.4801,-18.8615"/>
<polygon fill="#000000" stroke="#000000" points="1711.4469,-15.3596 1701.3606,-18.6026 1711.2678,-22.3573 1711.4469,-15.3596"/>
</g>
<!-- app/metashell&#45;&gt;defaults -->
<g id="edge42" class="edge">
<title>app/metashell&#45;&gt;defaults</title>
<path fill="none" stroke="#000000" d="M2202.1285,-449.5045C2055.8509,-447.5415 1595.5459,-438.1929 1217.0891,-396 1198.2555,-393.9003 1177.6778,-390.5979 1159.769,-387.392"/>
<polygon fill="#000000" stroke="#000000" points="1160.3118,-383.9333 1149.8453,-385.5774 1159.0526,-390.8191 1160.3118,-383.9333"/>
</g>
<!-- app/metashell&#45;&gt;iface -->
<g id="edge43" class="edge">
<title>app/metashell&#45;&gt;iface</title>
<path fill="none" stroke="#000000" d="M2253.0259,-431.9156C2258.5911,-404.7281 2268.0891,-351.6422 2268.0891,-306 2268.0891,-306 2268.0891,-306 2268.0891,-234 2268.0891,-171.7509 1803.9194,-111.4083 1663.7179,-94.6017"/>
<polygon fill="#000000" stroke="#000000" points="1663.7775,-91.0842 1653.4339,-93.3776 1662.9501,-98.0351 1663.7775,-91.0842"/>
</g>
<!-- app/metashell&#45;&gt;main_shell -->
<g id="edge44" class="edge">
<title>app/metashell&#45;&gt;main_shell</title>
<path fill="none" stroke="#000000" d="M2237.5607,-431.9555C2213.1979,-393.8225 2156.3869,-304.901 2127.9427,-260.3796"/>
<polygon fill="#000000" stroke="#000000" points="2130.8211,-258.3839 2122.4877,-251.8413 2124.9222,-262.1526 2130.8211,-258.3839"/>
</g>
<!-- app/metashell&#45;&gt;readline -->
<g id="edge45" class="edge">
<title>app/metashell&#45;&gt;readline</title>
<path fill="none" stroke="#000000" d="M2262.2136,-431.7782C2268.9828,-421.6548 2276.8877,-408.5919 2282.0891,-396 2311.4079,-325.0224 2327.4971,-235.3104 2334.2378,-190.3756"/>
<polygon fill="#000000" stroke="#000000" points="2337.7406,-190.6093 2335.7167,-180.2095 2330.8135,-189.6015 2337.7406,-190.6093"/>
</g>
<!-- app/reference_gen -->
<g id="node20" class="node">
<title>app/reference_gen</title>
<polygon fill="none" stroke="#000000" points="721.9643,-468 602.2139,-468 602.2139,-432 721.9643,-432 721.9643,-468"/>
<text text-anchor="middle" x="662.0891" y="-445.8" font-family="Times,serif" font-size="14.00" fill="#000000">app/reference_gen</text>
</g>
<!-- app/reference_gen&#45;&gt;data -->
<g id="edge46" class="edge">
<title>app/reference_gen&#45;&gt;data</title>
<path fill="none" stroke="#000000" d="M602.3212,-445.7152C468.0355,-434.4479 154.0891,-398.2422 154.0891,-306 154.0891,-306 154.0891,-306 154.0891,-162 154.0891,-68.1591 253.9485,-94.3498 345.0891,-72 473.3638,-40.544 1433.785,-22.1834 1636.5632,-18.6347"/>
<polygon fill="#000000" stroke="#000000" points="1636.7735,-22.1317 1646.7112,-18.4585 1636.6519,-15.1328 1636.7735,-22.1317"/>
</g>
<!-- app/reference_gen&#45;&gt;defaults -->
<g id="edge47" class="edge">
<title>app/reference_gen&#45;&gt;defaults</title>
<path fill="none" stroke="#000000" d="M721.8456,-440.439C811.6977,-426.0626 979.9058,-399.1493 1063.0255,-385.8502"/>
<polygon fill="#000000" stroke="#000000" points="1063.6487,-389.2951 1072.9701,-384.259 1062.5427,-382.383 1063.6487,-389.2951"/>
</g>
<!-- app/reference_gen&#45;&gt;mdb -->
<g id="edge48" class="edge">
<title>app/reference_gen&#45;&gt;mdb</title>
<path fill="none" stroke="#000000" d="M721.9995,-447.1874C836.799,-441.2019 1083.4485,-425.2972 1163.0891,-396 1250.825,-363.7248 1337.3984,-292.1399 1377.6777,-255.9113"/>
<polygon fill="#000000" stroke="#000000" points="1380.0593,-258.4764 1385.103,-249.1591 1375.3498,-253.2975 1380.0593,-258.4764"/>
</g>
<!-- app/reference_gen&#45;&gt;replace_part -->
<g id="edge49" class="edge">
<title>app/reference_gen&#45;&gt;replace_part</title>
<path fill="none" stroke="#000000" d="M602.2228,-446.5159C504.8011,-440.2406 306.1409,-424.9173 140.0891,-396 133.9285,-394.9272 127.5173,-393.6255 121.1649,-392.2182"/>
<polygon fill="#000000" stroke="#000000" points="121.8063,-388.7744 111.2755,-389.9376 120.2332,-395.5953 121.8063,-388.7744"/>
</g>
<!-- test/system/core -->
<g id="node21" class="node">
<title>test/system/core</title>
<polygon fill="none" stroke="#000000" points="402.2857,-252 295.8925,-252 295.8925,-216 402.2857,-216 402.2857,-252"/>
<text text-anchor="middle" x="349.0891" y="-229.8" font-family="Times,serif" font-size="14.00" fill="#000000">test/system/core</text>
</g>
<!-- test/system/core&#45;&gt;system_test -->
<g id="edge50" class="edge">
<title>test/system/core&#45;&gt;system_test</title>
<path fill="none" stroke="#000000" d="M380.6319,-215.8314C397.8768,-205.8983 419.3284,-193.5422 437.3286,-183.1741"/>
<polygon fill="#000000" stroke="#000000" points="439.4679,-185.9809 446.3863,-177.9568 435.9741,-179.9152 439.4679,-185.9809"/>
</g>
<!-- test/system/mdb -->
<g id="node22" class="node">
<title>test/system/mdb</title>
<polygon fill="none" stroke="#000000" points="527.5863,-252 420.5919,-252 420.5919,-216 527.5863,-216 527.5863,-252"/>
<text text-anchor="middle" x="474.0891" y="-229.8" font-family="Times,serif" font-size="14.00" fill="#000000">test/system/mdb</text>
</g>
<!-- test/system/mdb&#45;&gt;system_test -->
<g id="edge51" class="edge">
<title>test/system/mdb&#45;&gt;system_test</title>
<path fill="none" stroke="#000000" d="M474.0891,-215.8314C474.0891,-208.131 474.0891,-198.9743 474.0891,-190.4166"/>
<polygon fill="#000000" stroke="#000000" points="477.5892,-190.4132 474.0891,-180.4133 470.5892,-190.4133 477.5892,-190.4132"/>
</g>
<!-- test/system/pdb -->
<g id="node23" class="node">
<title>test/system/pdb</title>
<polygon fill="none" stroke="#000000" points="648.6958,-252 545.4824,-252 545.4824,-216 648.6958,-216 648.6958,-252"/>
<text text-anchor="middle" x="597.0891" y="-229.8" font-family="Times,serif" font-size="14.00" fill="#000000">test/system/pdb</text>
</g>
<!-- test/system/pdb&#45;&gt;system_test -->
<g id="edge52" class="edge">
<title>test/system/pdb&#45;&gt;system_test</title>
<path fill="none" stroke="#000000" d="M566.051,-215.8314C549.082,-205.8983 527.9737,-193.5422 510.2615,-183.1741"/>
<polygon fill="#000000" stroke="#000000" points="511.7469,-179.9881 501.3486,-177.9568 508.2106,-186.0292 511.7469,-179.9881"/>
</g>
<!-- test/system/pp -->
<g id="node24" class="node">
<title>test/system/pp</title>
<polygon fill="none" stroke="#000000" points="278.1958,-252 181.9824,-252 181.9824,-216 278.1958,-216 278.1958,-252"/>
<text text-anchor="middle" x="230.0891" y="-229.8" font-family="Times,serif" font-size="14.00" fill="#000000">test/system/pp</text>
</g>
<!-- test/system/pp&#45;&gt;pattern -->
<g id="edge53" class="edge">
<title>test/system/pp&#45;&gt;pattern</title>
<path fill="none" stroke="#000000" d="M250.6065,-215.7623C280.1183,-189.5296 334.517,-141.1752 366.5794,-112.6753"/>
<polygon fill="#000000" stroke="#000000" points="369.072,-115.1425 374.2209,-105.8829 364.4215,-109.9106 369.072,-115.1425"/>
</g>
<!-- test/system/pp&#45;&gt;system_test -->
<g id="edge54" class="edge">
<title>test/system/pp&#45;&gt;system_test</title>
<path fill="none" stroke="#000000" d="M278.2652,-218.6943C281.2487,-217.775 284.2083,-216.8707 287.0891,-216 332.5199,-202.2695 384.3873,-187.3512 421.9543,-176.6813"/>
<polygon fill="#000000" stroke="#000000" points="423.0024,-180.0221 431.668,-173.9265 421.0925,-173.2877 423.0024,-180.0221"/>
</g>
<!-- test/unit/core -->
<g id="node25" class="node">
<title>test/unit/core</title>
<polygon fill="none" stroke="#000000" points="1887.6817,-252 1798.4965,-252 1798.4965,-216 1887.6817,-216 1887.6817,-252"/>
<text text-anchor="middle" x="1843.0891" y="-229.8" font-family="Times,serif" font-size="14.00" fill="#000000">test/unit/core</text>
</g>
<!-- test/unit/core&#45;&gt;core -->
<g id="edge55" class="edge">
<title>test/unit/core&#45;&gt;core</title>
<path fill="none" stroke="#000000" d="M1798.4634,-218.0872C1795.6472,-217.3186 1792.8397,-216.6133 1790.0891,-216 1626.9711,-179.6316 1427.1309,-167.2146 1345.038,-163.4572"/>
<polygon fill="#000000" stroke="#000000" points="1345.0791,-159.9557 1334.9346,-163.0117 1344.7707,-166.9489 1345.0791,-159.9557"/>
</g>
<!-- test/unit/core&#45;&gt;data -->
<g id="edge56" class="edge">
<title>test/unit/core&#45;&gt;data</title>
<path fill="none" stroke="#000000" d="M1841.9226,-215.8414C1839.9806,-196.7176 1834.8146,-166.3389 1821.0891,-144 1791.4941,-95.8327 1737.3369,-56.5707 1703.6653,-35.303"/>
<polygon fill="#000000" stroke="#000000" points="1705.0949,-32.0719 1694.7489,-29.7891 1701.4132,-38.0255 1705.0949,-32.0719"/>
</g>
<!-- test/unit/core&#45;&gt;mock -->
<g id="edge57" class="edge">
<title>test/unit/core&#45;&gt;mock</title>
<path fill="none" stroke="#000000" d="M1827.1915,-215.8314C1819.3317,-206.8486 1809.7379,-195.8843 1801.2647,-186.2007"/>
<polygon fill="#000000" stroke="#000000" points="1803.6926,-183.6603 1794.4735,-178.4393 1798.4245,-188.2698 1803.6926,-183.6603"/>
</g>
<!-- test/unit/data -->
<g id="node26" class="node">
<title>test/unit/data</title>
<polygon fill="none" stroke="#000000" points="2202.4123,-108 2113.7659,-108 2113.7659,-72 2202.4123,-72 2202.4123,-108"/>
<text text-anchor="middle" x="2158.0891" y="-85.8" font-family="Times,serif" font-size="14.00" fill="#000000">test/unit/data</text>
</g>
<!-- test/unit/data&#45;&gt;data -->
<g id="edge58" class="edge">
<title>test/unit/data&#45;&gt;data</title>
<path fill="none" stroke="#000000" d="M2113.6502,-75.3479C2109.0984,-74.1063 2104.5197,-72.9606 2100.0891,-72 1958.4269,-41.2864 1786.2078,-26.077 1711.5702,-20.538"/>
<polygon fill="#000000" stroke="#000000" points="1711.5088,-17.0244 1701.2813,-19.7903 1711.0013,-24.006 1711.5088,-17.0244"/>
</g>
<!-- test/unit/engine/vc -->
<g id="node27" class="node">
<title>test/unit/engine/vc</title>
<polygon fill="none" stroke="#000000" points="877.0177,-324 757.1605,-324 757.1605,-288 877.0177,-288 877.0177,-324"/>
<text text-anchor="middle" x="817.0891" y="-301.8" font-family="Times,serif" font-size="14.00" fill="#000000">test/unit/engine/vc</text>
</g>
<!-- test/unit/engine/vc&#45;&gt;data -->
<g id="edge59" class="edge">
<title>test/unit/engine/vc&#45;&gt;data</title>
<path fill="none" stroke="#000000" d="M858.7808,-287.9169C878.7081,-278.4485 902.44,-265.9299 922.0891,-252 941.0681,-238.5452 941.2112,-229.5963 960.0891,-216 1070.4463,-136.5186 1100.386,-112.9037 1230.0891,-72 1305.9428,-48.0784 1544.7106,-27.8631 1637.0875,-20.7404"/>
<polygon fill="#000000" stroke="#000000" points="1637.3936,-24.2274 1647.098,-19.9758 1636.8604,-17.2477 1637.3936,-24.2274"/>
</g>
<!-- test/unit/engine/vc&#45;&gt;engine/vc -->
<g id="edge60" class="edge">
<title>test/unit/engine/vc&#45;&gt;engine/vc</title>
<path fill="none" stroke="#000000" d="M828.9492,-287.8314C834.3897,-279.497 840.9438,-269.4567 846.9105,-260.3162"/>
<polygon fill="#000000" stroke="#000000" points="849.8602,-262.2004 852.3956,-251.9134 843.9985,-258.374 849.8602,-262.2004"/>
</g>
<!-- test/unit/main_shell -->
<g id="node28" class="node">
<title>test/unit/main_shell</title>
<polygon fill="none" stroke="#000000" points="2093.5289,-324 1966.6493,-324 1966.6493,-288 2093.5289,-288 2093.5289,-324"/>
<text text-anchor="middle" x="2030.0891" y="-301.8" font-family="Times,serif" font-size="14.00" fill="#000000">test/unit/main_shell</text>
</g>
<!-- test/unit/main_shell&#45;&gt;core -->
<g id="edge61" class="edge">
<title>test/unit/main_shell&#45;&gt;core</title>
<path fill="none" stroke="#000000" d="M1966.6149,-300.2434C1886.9951,-292.3893 1746.5387,-276.4357 1628.0891,-252 1522.2108,-230.1577 1399.9491,-192.2767 1341.5768,-173.3895"/>
<polygon fill="#000000" stroke="#000000" points="1342.3631,-169.9648 1331.7709,-170.2004 1340.1982,-176.6216 1342.3631,-169.9648"/>
</g>
<!-- test/unit/main_shell&#45;&gt;data -->
<g id="edge62" class="edge">
<title>test/unit/main_shell&#45;&gt;data</title>
<path fill="none" stroke="#000000" d="M2093.5648,-289.7119C2127.1209,-279.6816 2163.3557,-266.0798 2173.0891,-252 2182.1875,-238.8387 2180.4004,-230.2318 2173.0891,-216 2122.8731,-118.2514 2073.2874,-114.841 1972.0891,-72 1883.6607,-34.565 1769.7356,-23.0595 1711.6989,-19.5394"/>
<polygon fill="#000000" stroke="#000000" points="1711.7112,-16.0348 1701.5313,-18.9707 1711.3202,-23.0238 1711.7112,-16.0348"/>
</g>
<!-- test/unit/main_shell&#45;&gt;engine/constant -->
<g id="edge63" class="edge">
<title>test/unit/main_shell&#45;&gt;engine/constant</title>
<path fill="none" stroke="#000000" d="M1966.6584,-291.8035C1918.0565,-280.9219 1849.3331,-265.5268 1789.0891,-252 1783.7066,-250.7915 1778.1206,-249.5364 1772.5161,-248.2765"/>
<polygon fill="#000000" stroke="#000000" points="1772.972,-244.7917 1762.4478,-246.0126 1771.4364,-251.6212 1772.972,-244.7917"/>
</g>
<!-- test/unit/main_shell&#45;&gt;iface -->
<g id="edge64" class="edge">
<title>test/unit/main_shell&#45;&gt;iface</title>
<path fill="none" stroke="#000000" d="M2028.8355,-287.6866C2026.4363,-267.2562 2019.4469,-234.634 1999.0891,-216 1950.1086,-171.167 1911.1744,-213.9169 1854.0891,-180 1835.4291,-168.9133 1839.6137,-155.3115 1821.0891,-144 1771.8422,-113.9287 1705.614,-100.2688 1663.8853,-94.3065"/>
<polygon fill="#000000" stroke="#000000" points="1664.2073,-90.8183 1653.8294,-92.9512 1663.2723,-97.7556 1664.2073,-90.8183"/>
</g>
<!-- test/unit/main_shell&#45;&gt;main_shell -->
<g id="edge65" class="edge">
<title>test/unit/main_shell&#45;&gt;main_shell</title>
<path fill="none" stroke="#000000" d="M2050.5288,-287.8314C2060.7867,-278.7132 2073.3416,-267.5534 2084.3549,-257.7637"/>
<polygon fill="#000000" stroke="#000000" points="2086.8982,-260.1859 2092.047,-250.9263 2082.2476,-254.954 2086.8982,-260.1859"/>
</g>
<!-- test/unit/main_shell&#45;&gt;mock -->
<g id="edge66" class="edge">
<title>test/unit/main_shell&#45;&gt;mock</title>
<path fill="none" stroke="#000000" d="M2022.4225,-287.8612C2012.7785,-267.2767 1994.2538,-234.2065 1968.0891,-216 1914.6465,-178.8126 1888.0806,-199.9013 1826.0891,-180 1822.7209,-178.9187 1819.2438,-177.7185 1815.7804,-176.4658"/>
<polygon fill="#000000" stroke="#000000" points="1816.7498,-173.0912 1806.1576,-172.8516 1814.2885,-179.6443 1816.7498,-173.0912"/>
</g>
<!-- test/unit/mdb -->
<g id="node29" class="node">
<title>test/unit/mdb</title>
<polygon fill="none" stroke="#000000" points="1688.9826,-324 1599.1956,-324 1599.1956,-288 1688.9826,-288 1688.9826,-324"/>
<text text-anchor="middle" x="1644.0891" y="-301.8" font-family="Times,serif" font-size="14.00" fill="#000000">test/unit/mdb</text>
</g>
<!-- test/unit/mdb&#45;&gt;core -->
<g id="edge67" class="edge">
<title>test/unit/mdb&#45;&gt;core</title>
<path fill="none" stroke="#000000" d="M1599.0904,-299.3232C1524.9311,-288.0245 1383.289,-265.0895 1364.0891,-252 1341.7636,-236.7796 1326.356,-209.6204 1317.2414,-189.1058"/>
<polygon fill="#000000" stroke="#000000" points="1320.3693,-187.5145 1313.2698,-179.6502 1313.9155,-190.2253 1320.3693,-187.5145"/>
</g>
<!-- test/unit/mdb&#45;&gt;data -->
<g id="edge68" class="edge">
<title>test/unit/mdb&#45;&gt;data</title>
<path fill="none" stroke="#000000" d="M1689.1136,-303.0148C1754.674,-297.6242 1871.417,-283.7298 1897.0891,-252 1955.9154,-179.2929 1860.7866,-130.8382 1788.0891,-72 1764.1507,-52.6253 1732.1124,-38.2418 1708.0965,-29.2124"/>
<polygon fill="#000000" stroke="#000000" points="1709.263,-25.9124 1698.669,-25.7861 1706.872,-32.4914 1709.263,-25.9124"/>
</g>
<!-- test/unit/mdb&#45;&gt;engine/constant -->
<g id="edge69" class="edge">
<title>test/unit/mdb&#45;&gt;engine/constant</title>
<path fill="none" stroke="#000000" d="M1660.4913,-287.8314C1668.2482,-279.2392 1677.6417,-268.834 1686.0946,-259.4708"/>
<polygon fill="#000000" stroke="#000000" points="1688.8142,-261.6815 1692.9173,-251.9134 1683.6183,-256.9907 1688.8142,-261.6815"/>
</g>
<!-- test/unit/mdb&#45;&gt;iface -->
<g id="edge70" class="edge">
<title>test/unit/mdb&#45;&gt;iface</title>
<path fill="none" stroke="#000000" d="M1637.3859,-287.782C1633.9137,-277.4414 1630.0078,-264.1698 1628.0891,-252 1620.7674,-205.5598 1621.3001,-150.7194 1622.5527,-118.2343"/>
<polygon fill="#000000" stroke="#000000" points="1626.0547,-118.2623 1622.9948,-108.119 1619.0614,-117.9566 1626.0547,-118.2623"/>
</g>
<!-- test/unit/mdb&#45;&gt;mdb -->
<g id="edge71" class="edge">
<title>test/unit/mdb&#45;&gt;mdb</title>
<path fill="none" stroke="#000000" d="M1598.8288,-295.7931C1557.723,-286.0643 1495.6651,-270.2248 1443.0891,-252 1440.0159,-250.9347 1436.8498,-249.749 1433.6994,-248.5087"/>
<polygon fill="#000000" stroke="#000000" points="1434.9836,-245.2524 1424.4037,-244.6899 1432.3236,-251.7274 1434.9836,-245.2524"/>
</g>
<!-- test/unit/pragma -->
<g id="node30" class="node">
<title>test/unit/pragma</title>
<polygon fill="none" stroke="#000000" points="1927.5723,-396 1820.6059,-396 1820.6059,-360 1927.5723,-360 1927.5723,-396"/>
<text text-anchor="middle" x="1874.0891" y="-373.8" font-family="Times,serif" font-size="14.00" fill="#000000">test/unit/pragma</text>
</g>
<!-- test/unit/pragma&#45;&gt;core -->
<g id="edge72" class="edge">
<title>test/unit/pragma&#45;&gt;core</title>
<path fill="none" stroke="#000000" d="M1820.5727,-375.1565C1715.0341,-368.9981 1483.9061,-352.6258 1410.0891,-324 1359.0281,-304.1988 1335.8656,-300.3206 1310.0891,-252 1300.016,-233.1171 1299.8581,-208.6936 1301.8917,-190.0547"/>
<polygon fill="#000000" stroke="#000000" points="1305.3659,-190.4806 1303.2405,-180.1012 1298.4293,-189.5406 1305.3659,-190.4806"/>
</g>
<!-- test/unit/pragma&#45;&gt;data -->
<g id="edge73" class="edge">
<title>test/unit/pragma&#45;&gt;data</title>
<path fill="none" stroke="#000000" d="M1927.5949,-370.1979C1990.4094,-360.3845 2090.1996,-342.5598 2123.0891,-324 2226.4064,-265.6973 2290.6678,-159.9824 2211.0891,-72 2177.6043,-34.9791 1827.7735,-22.1744 1711.4588,-18.9223"/>
<polygon fill="#000000" stroke="#000000" points="1711.3563,-15.4183 1701.2648,-18.6452 1711.166,-22.4157 1711.3563,-15.4183"/>
</g>
<!-- test/unit/pragma&#45;&gt;engine/constant -->
<g id="edge74" class="edge">
<title>test/unit/pragma&#45;&gt;engine/constant</title>
<path fill="none" stroke="#000000" d="M1853.1917,-359.7623C1823.693,-334.0179 1769.7816,-286.968 1736.9184,-258.2874"/>
<polygon fill="#000000" stroke="#000000" points="1738.8802,-255.3541 1729.0446,-251.4157 1734.2775,-260.628 1738.8802,-255.3541"/>
</g>
<!-- test/unit/pragma&#45;&gt;main_shell -->
<g id="edge75" class="edge">
<title>test/unit/pragma&#45;&gt;main_shell</title>
<path fill="none" stroke="#000000" d="M1927.6117,-372.4582C1987.6108,-365.069 2079.4844,-349.8274 2102.0891,-324 2116.5742,-307.4497 2117.9032,-282.0688 2116.1361,-262.4743"/>
<polygon fill="#000000" stroke="#000000" points="2119.5779,-261.7826 2114.8997,-252.2766 2112.6288,-262.6252 2119.5779,-261.7826"/>
</g>
<!-- test/unit/pragma&#45;&gt;mock -->
<g id="edge76" class="edge">
<title>test/unit/pragma&#45;&gt;mock</title>
<path fill="none" stroke="#000000" d="M1883.9368,-359.8121C1899.6989,-327.9717 1926.0251,-261.2244 1897.0891,-216 1892.3154,-208.5392 1848.6729,-189.6438 1816.0786,-176.3164"/>
<polygon fill="#000000" stroke="#000000" points="1817.3793,-173.0671 1806.7972,-172.5488 1814.7464,-179.5531 1817.3793,-173.0671"/>
</g>
<!-- test/unit/pragma&#45;&gt;pragma -->
<g id="edge77" class="edge">
<title>test/unit/pragma&#45;&gt;pragma</title>
<path fill="none" stroke="#000000" d="M1820.2605,-368.6611C1738.5082,-354.4775 1584.3526,-327.7325 1506.5546,-314.235"/>
<polygon fill="#000000" stroke="#000000" points="1507.002,-310.7604 1496.5509,-312.4994 1505.8054,-317.6574 1507.002,-310.7604"/>
</g>
<!-- test/unit/replace_part -->
<g id="node31" class="node">
<title>test/unit/replace_part</title>
<polygon fill="none" stroke="#000000" points="134.2674,-468 -.0892,-468 -.0892,-432 134.2674,-432 134.2674,-468"/>
<text text-anchor="middle" x="67.0891" y="-445.8" font-family="Times,serif" font-size="14.00" fill="#000000">test/unit/replace_part</text>
</g>
<!-- test/unit/replace_part&#45;&gt;replace_part -->
<g id="edge78" class="edge">
<title>test/unit/replace_part&#45;&gt;replace_part</title>
<path fill="none" stroke="#000000" d="M67.0891,-431.8314C67.0891,-424.131 67.0891,-414.9743 67.0891,-406.4166"/>
<polygon fill="#000000" stroke="#000000" points="70.5892,-406.4132 67.0891,-396.4133 63.5892,-406.4133 70.5892,-406.4132"/>
</g>
<!-- test/unit/system_test -->
<g id="node32" class="node">
<title>test/unit/system_test</title>
<polygon fill="none" stroke="#000000" points="797.4177,-252 666.7605,-252 666.7605,-216 797.4177,-216 797.4177,-252"/>
<text text-anchor="middle" x="732.0891" y="-229.8" font-family="Times,serif" font-size="14.00" fill="#000000">test/unit/system_test</text>
</g>
<!-- test/unit/system_test&#45;&gt;system_test -->
<g id="edge79" class="edge">
<title>test/unit/system_test&#45;&gt;system_test</title>
<path fill="none" stroke="#000000" d="M667.3178,-215.9243C623.7424,-203.7637 567.0396,-187.9397 526.3456,-176.5832"/>
<polygon fill="#000000" stroke="#000000" points="527.1953,-173.1867 516.6225,-173.8698 525.3137,-179.929 527.1953,-173.1867"/>
</g>
</g>
</svg>
