<?xml version="1.0" encoding="UTF-8" standalone="no"?>
<!DOCTYPE svg PUBLIC "-//W3C//DTD SVG 1.1//EN"
 "http://www.w3.org/Graphics/SVG/1.1/DTD/svg11.dtd">
<!-- Generated by graphviz version 2.40.1
 -->
<!-- Title: %3 Pages: 1 -->
<svg width="1876pt" height="476pt"
 viewBox="0.00 0.00 1876.09 476.00" xmlns="http://www.w3.org/2000/svg" xmlns:xlink="http://www.w3.org/1999/xlink">
<g id="graph0" class="graph" transform="scale(1 1) rotate(0) translate(4 472)">
<title>%3</title>
<polygon fill="#ffffff" stroke="transparent" points="-4,4 -4,-472 1872.0891,-472 1872.0891,4 -4,4"/>
<!-- boost -->
<g id="node1" class="node">
<title>boost</title>
<ellipse fill="#ffffff" stroke="#000000" cx="562" cy="-18" rx="31.9224" ry="18"/>
<text text-anchor="middle" x="562" y="-13.8" font-family="Times,serif" font-size="14.00" fill="#000000">boost</text>
</g>
<!-- core -->
<g id="node2" class="node">
<title>core</title>
<ellipse fill="#ffffff" stroke="#000000" cx="720" cy="-162" rx="27.8073" ry="18"/>
<text text-anchor="middle" x="720" y="-157.8" font-family="Times,serif" font-size="14.00" fill="#000000">core</text>
</g>
<!-- data -->
<g id="node3" class="node">
<title>data</title>
<ellipse fill="#ffffff" stroke="#000000" cx="646" cy="-18" rx="27.2447" ry="18"/>
<text text-anchor="middle" x="646" y="-13.8" font-family="Times,serif" font-size="14.00" fill="#000000">data</text>
</g>
<!-- core&#45;&gt;data -->
<g id="edge1" class="edge">
<title>core&#45;&gt;data</title>
<path fill="none" stroke="#000000" d="M720.9377,-143.9632C721.1489,-124.941 719.22,-94.6465 707,-72 699.3054,-57.7402 686.2815,-45.4288 674.239,-36.1778"/>
<polygon fill="#000000" stroke="#000000" points="676.28,-33.3345 666.1363,-30.2759 672.1587,-38.9926 676.28,-33.3345"/>
</g>
<!-- iface -->
<g id="node5" class="node">
<title>iface</title>
<ellipse fill="#ffffff" stroke="#000000" cx="562" cy="-90" rx="29.5916" ry="18"/>
<text text-anchor="middle" x="562" y="-85.8" font-family="Times,serif" font-size="14.00" fill="#000000">iface</text>
</g>
<!-- core&#45;&gt;iface -->
<g id="edge2" class="edge">
<title>core&#45;&gt;iface</title>
<path fill="none" stroke="#000000" d="M697.1671,-151.6912C673.1965,-140.8565 634.4199,-123.2947 601,-108 599.1692,-107.1621 597.2907,-106.3007 595.395,-105.4302"/>
<polygon fill="#000000" stroke="#000000" points="596.4614,-102.0681 585.914,-101.0666 593.5347,-108.4269 596.4614,-102.0681"/>
</g>
<!-- process -->
<g id="node11" class="node">
<title>process</title>
<ellipse fill="#ffffff" stroke="#000000" cx="1020" cy="-90" rx="39.9857" ry="18"/>
<text text-anchor="middle" x="1020" y="-85.8" font-family="Times,serif" font-size="14.00" fill="#000000">process</text>
</g>
<!-- core&#45;&gt;process -->
<g id="edge3" class="edge">
<title>core&#45;&gt;process</title>
<path fill="none" stroke="#000000" d="M746.0982,-155.7364C797.2476,-143.4606 911.2221,-116.1067 974.8475,-100.8366"/>
<polygon fill="#000000" stroke="#000000" points="975.7023,-104.2309 984.6093,-98.4938 974.0686,-97.4242 975.7023,-104.2309"/>
</g>
<!-- defaults -->
<g id="node4" class="node">
<title>defaults</title>
<ellipse fill="#ffffff" stroke="#000000" cx="802" cy="-378" rx="41.7095" ry="18"/>
<text text-anchor="middle" x="802" y="-373.8" font-family="Times,serif" font-size="14.00" fill="#000000">defaults</text>
</g>
<!-- defaults&#45;&gt;core -->
<g id="edge4" class="edge">
<title>defaults&#45;&gt;core</title>
<path fill="none" stroke="#000000" d="M782.9922,-361.8411C772.573,-351.9548 760.323,-338.4548 753,-324 730.9951,-280.5647 723.6629,-223.5581 721.22,-190.0396"/>
<polygon fill="#000000" stroke="#000000" points="724.7112,-189.7881 720.5863,-180.0293 717.7252,-190.2305 724.7112,-189.7881"/>
</g>
<!-- defaults&#45;&gt;iface -->
<g id="edge5" class="edge">
<title>defaults&#45;&gt;iface</title>
<path fill="none" stroke="#000000" d="M820.5688,-361.5159C843.8278,-339.3825 882.1868,-297.5394 895,-252 909.5353,-200.3403 887.082,-171.5036 841,-144 748.3819,-88.7219 704.3361,-138.9099 601,-108 598.7093,-107.3148 596.3807,-106.5189 594.0595,-105.6508"/>
<polygon fill="#000000" stroke="#000000" points="595.2547,-102.3576 584.6759,-101.7738 592.5816,-108.8272 595.2547,-102.3576"/>
</g>
<!-- pragma -->
<g id="node10" class="node">
<title>pragma</title>
<ellipse fill="#ffffff" stroke="#000000" cx="802" cy="-306" rx="39.9876" ry="18"/>
<text text-anchor="middle" x="802" y="-301.8" font-family="Times,serif" font-size="14.00" fill="#000000">pragma</text>
</g>
<!-- defaults&#45;&gt;pragma -->
<g id="edge6" class="edge">
<title>defaults&#45;&gt;pragma</title>
<path fill="none" stroke="#000000" d="M802,-359.8314C802,-352.131 802,-342.9743 802,-334.4166"/>
<polygon fill="#000000" stroke="#000000" points="805.5001,-334.4132 802,-324.4133 798.5001,-334.4133 805.5001,-334.4132"/>
</g>
<!-- iface&#45;&gt;boost -->
<g id="edge7" class="edge">
<title>iface&#45;&gt;boost</title>
<path fill="none" stroke="#000000" d="M562,-71.8314C562,-64.131 562,-54.9743 562,-46.4166"/>
<polygon fill="#000000" stroke="#000000" points="565.5001,-46.4132 562,-36.4133 558.5001,-46.4133 565.5001,-46.4132"/>
</g>
<!-- iface&#45;&gt;data -->
<g id="edge8" class="edge">
<title>iface&#45;&gt;data</title>
<path fill="none" stroke="#000000" d="M579.4049,-75.0816C591.5027,-64.712 607.8041,-50.7393 621.2504,-39.2139"/>
<polygon fill="#000000" stroke="#000000" points="623.8758,-41.5734 629.1906,-32.408 619.3203,-36.2586 623.8758,-41.5734"/>
</g>
<!-- main_shell -->
<g id="node6" class="node">
<title>main_shell</title>
<ellipse fill="#ffffff" stroke="#000000" cx="271" cy="-234" rx="53.3283" ry="18"/>
<text text-anchor="middle" x="271" y="-229.8" font-family="Times,serif" font-size="14.00" fill="#000000">main_shell</text>
</g>
<!-- main_shell&#45;&gt;core -->
<g id="edge9" class="edge">
<title>main_shell&#45;&gt;core</title>
<path fill="none" stroke="#000000" d="M318.0145,-225.2916C334.7277,-222.261 353.6888,-218.8968 371,-216 484.4176,-197.0209 618.9794,-176.866 682.8228,-167.4457"/>
<polygon fill="#000000" stroke="#000000" points="683.4288,-170.8943 692.812,-165.9742 682.4087,-163.969 683.4288,-170.8943"/>
</g>
<!-- main_shell&#45;&gt;data -->
<g id="edge10" class="edge">
<title>main_shell&#45;&gt;data</title>
<path fill="none" stroke="#000000" d="M260.6021,-216.3439C251.0387,-197.6397 239.8936,-167.608 251,-144 272.3659,-98.5841 292.0329,-92.1528 338,-72 446.8574,-24.2751 488.3123,-67.2144 603,-36 606.6507,-35.0064 610.402,-33.7754 614.0955,-32.4269"/>
<polygon fill="#000000" stroke="#000000" points="615.6112,-35.5915 623.6283,-28.665 613.0416,-29.0802 615.6112,-35.5915"/>
</g>
<!-- main_shell&#45;&gt;iface -->
<g id="edge11" class="edge">
<title>main_shell&#45;&gt;iface</title>
<path fill="none" stroke="#000000" d="M316.1909,-224.165C351.6384,-215.4175 401.572,-200.7751 442,-180 478.0518,-161.4737 514.6245,-132.2055 537.7574,-112.1061"/>
<polygon fill="#000000" stroke="#000000" points="540.1665,-114.6483 545.3565,-105.4117 535.5392,-109.3958 540.1665,-114.6483"/>
</g>
<!-- mdb -->
<g id="node7" class="node">
<title>mdb</title>
<ellipse fill="#ffffff" stroke="#000000" cx="858" cy="-234" rx="28.4127" ry="18"/>
<text text-anchor="middle" x="858" y="-229.8" font-family="Times,serif" font-size="14.00" fill="#000000">mdb</text>
</g>
<!-- mdb&#45;&gt;core -->
<g id="edge12" class="edge">
<title>mdb&#45;&gt;core</title>
<path fill="none" stroke="#000000" d="M836.1335,-222.5914C813.1196,-210.5841 776.7056,-191.5855 750.792,-178.0654"/>
<polygon fill="#000000" stroke="#000000" points="752.2491,-174.8779 741.7642,-173.3552 749.0111,-181.084 752.2491,-174.8779"/>
</g>
<!-- mdb&#45;&gt;data -->
<g id="edge13" class="edge">
<title>mdb&#45;&gt;data</title>
<path fill="none" stroke="#000000" d="M858.6289,-215.8689C858.4348,-196.491 855.5502,-165.6416 841,-144 801.4845,-85.2256 724.3481,-47.774 679.8505,-30.0635"/>
<polygon fill="#000000" stroke="#000000" points="680.9341,-26.7299 670.3449,-26.3832 678.4067,-33.2577 680.9341,-26.7299"/>
</g>
<!-- mdb&#45;&gt;iface -->
<g id="edge14" class="edge">
<title>mdb&#45;&gt;iface</title>
<path fill="none" stroke="#000000" d="M854.3668,-215.9779C849.1789,-195.1815 837.5452,-161.5947 814,-144 737.0921,-86.5287 692.7234,-136.3653 601,-108 598.7158,-107.2936 596.392,-106.4818 594.0743,-105.6021"/>
<polygon fill="#000000" stroke="#000000" points="595.2758,-102.3111 584.6986,-101.6992 592.5856,-108.7736 595.2758,-102.3111"/>
</g>
<!-- mock -->
<g id="node8" class="node">
<title>mock</title>
<ellipse fill="#ffffff" stroke="#000000" cx="292" cy="-162" rx="32.4846" ry="18"/>
<text text-anchor="middle" x="292" y="-157.8" font-family="Times,serif" font-size="14.00" fill="#000000">mock</text>
</g>
<!-- mock&#45;&gt;iface -->
<g id="edge15" class="edge">
<title>mock&#45;&gt;iface</title>
<path fill="none" stroke="#000000" d="M321.4087,-154.1577C370.843,-140.9752 470.4977,-114.4006 524.7495,-99.9335"/>
<polygon fill="#000000" stroke="#000000" points="525.8871,-103.2525 534.6476,-97.294 524.0834,-96.4888 525.8871,-103.2525"/>
</g>
<!-- pattern -->
<g id="node9" class="node">
<title>pattern</title>
<ellipse fill="#ffffff" stroke="#000000" cx="1120" cy="-162" rx="37.6986" ry="18"/>
<text text-anchor="middle" x="1120" y="-157.8" font-family="Times,serif" font-size="14.00" fill="#000000">pattern</text>
</g>
<!-- pragma&#45;&gt;core -->
<g id="edge16" class="edge">
<title>pragma&#45;&gt;core</title>
<path fill="none" stroke="#000000" d="M791.9452,-288.3428C777.5897,-263.1332 751.1337,-216.6738 734.6139,-187.6634"/>
<polygon fill="#000000" stroke="#000000" points="737.6173,-185.8645 729.6274,-178.9066 731.5344,-189.3284 737.6173,-185.8645"/>
</g>
<!-- pragma&#45;&gt;data -->
<g id="edge17" class="edge">
<title>pragma&#45;&gt;data</title>
<path fill="none" stroke="#000000" d="M835.7954,-296.0335C856.8761,-287.8703 882.3314,-274.0054 895,-252 920.1074,-208.3885 888.0691,-186.4218 861,-144 838.5934,-108.8851 835.2457,-95.7138 801,-72 764.7454,-46.8952 715.6825,-32.4094 682.5447,-24.878"/>
<polygon fill="#000000" stroke="#000000" points="682.8965,-21.373 672.3816,-22.6725 681.4119,-28.2137 682.8965,-21.373"/>
</g>
<!-- pragma&#45;&gt;iface -->
<g id="edge18" class="edge">
<title>pragma&#45;&gt;iface</title>
<path fill="none" stroke="#000000" d="M802.5615,-287.9522C802.5598,-254.4976 797.4946,-182.7452 757,-144 705.5871,-94.8082 668.3253,-131.0308 601,-108 598.8789,-107.2744 596.7181,-106.471 594.5562,-105.618"/>
<polygon fill="#000000" stroke="#000000" points="595.7638,-102.3285 585.1908,-101.6492 593.0324,-108.7737 595.7638,-102.3285"/>
</g>
<!-- pragma&#45;&gt;mdb -->
<g id="edge19" class="edge">
<title>pragma&#45;&gt;mdb</title>
<path fill="none" stroke="#000000" d="M815.2712,-288.937C822.3464,-279.8403 831.1756,-268.4886 838.9685,-258.4691"/>
<polygon fill="#000000" stroke="#000000" points="841.8328,-260.4873 845.2095,-250.4449 836.3073,-256.1897 841.8328,-260.4873"/>
</g>
<!-- process&#45;&gt;data -->
<g id="edge20" class="edge">
<title>process&#45;&gt;data</title>
<path fill="none" stroke="#000000" d="M988.8315,-78.7006C981.4134,-76.2654 973.4789,-73.8656 966,-72 864.9237,-46.7863 742.9232,-29.8247 682.9513,-22.3478"/>
<polygon fill="#000000" stroke="#000000" points="683.1902,-18.8509 672.8377,-21.1039 682.3356,-25.7986 683.1902,-18.8509"/>
</g>
<!-- readline -->
<g id="node12" class="node">
<title>readline</title>
<ellipse fill="#ffffff" stroke="#000000" cx="1022" cy="-162" rx="42.2719" ry="18"/>
<text text-anchor="middle" x="1022" y="-157.8" font-family="Times,serif" font-size="14.00" fill="#000000">readline</text>
</g>
<!-- readline&#45;&gt;data -->
<g id="edge21" class="edge">
<title>readline&#45;&gt;data</title>
<path fill="none" stroke="#000000" d="M1006.4804,-144.9883C984.7669,-121.5803 945.9693,-81.2736 928,-72 885.6374,-50.1374 749.1592,-30.7999 682.8478,-22.4184"/>
<polygon fill="#000000" stroke="#000000" points="683.1893,-18.9339 672.8328,-21.1685 682.3224,-25.88 683.1893,-18.9339"/>
</g>
<!-- readline&#45;&gt;iface -->
<g id="edge22" class="edge">
<title>readline&#45;&gt;iface</title>
<path fill="none" stroke="#000000" d="M989.74,-150.3427C982.0445,-147.9222 973.7992,-145.6188 966,-144 806.3925,-110.8717 758.3037,-150.7503 601,-108 598.6927,-107.373 596.3516,-106.6206 594.0214,-105.7842"/>
<polygon fill="#000000" stroke="#000000" points="595.2003,-102.4856 584.6176,-101.9782 592.574,-108.9743 595.2003,-102.4856"/>
</g>
<!-- replace_part -->
<g id="node13" class="node">
<title>replace_part</title>
<ellipse fill="#ffffff" stroke="#000000" cx="1796" cy="-378" rx="58.5059" ry="18"/>
<text text-anchor="middle" x="1796" y="-373.8" font-family="Times,serif" font-size="14.00" fill="#000000">replace_part</text>
</g>
<!-- system_test -->
<g id="node14" class="node">
<title>system_test</title>
<ellipse fill="#ffffff" stroke="#000000" cx="1186" cy="-234" rx="56.1937" ry="18"/>
<text text-anchor="middle" x="1186" y="-229.8" font-family="Times,serif" font-size="14.00" fill="#000000">system_test</text>
</g>
<!-- system_test&#45;&gt;core -->
<g id="edge23" class="edge">
<title>system_test&#45;&gt;core</title>
<path fill="none" stroke="#000000" d="M1135.2427,-226.1577C1040.797,-211.5652 840.1407,-180.5625 757.1374,-167.738"/>
<polygon fill="#000000" stroke="#000000" points="757.5676,-164.263 747.1504,-166.1949 756.4987,-171.1809 757.5676,-164.263"/>
</g>
<!-- system_test&#45;&gt;pattern -->
<g id="edge24" class="edge">
<title>system_test&#45;&gt;pattern</title>
<path fill="none" stroke="#000000" d="M1170.0232,-216.5708C1161.7149,-207.5071 1151.424,-196.2807 1142.3403,-186.3713"/>
<polygon fill="#000000" stroke="#000000" points="1144.7125,-183.7794 1135.3752,-178.7729 1139.5524,-188.5095 1144.7125,-183.7794"/>
</g>
<!-- system_test&#45;&gt;process -->
<g id="edge25" class="edge">
<title>system_test&#45;&gt;process</title>
<path fill="none" stroke="#000000" d="M1187.0386,-215.8827C1187.1867,-195.9363 1184.3479,-164.0446 1167,-144 1142.5164,-115.7105 1101.8803,-102.2312 1069.5308,-95.8142"/>
<polygon fill="#000000" stroke="#000000" points="1069.8137,-92.3086 1059.3499,-93.9691 1068.5654,-99.1964 1069.8137,-92.3086"/>
</g>
<!-- app/metashell -->
<g id="node15" class="node">
<title>app/metashell</title>
<polygon fill="none" stroke="#000000" points="538.7563,-468 445.2437,-468 445.2437,-432 538.7563,-432 538.7563,-468"/>
<text text-anchor="middle" x="492" y="-445.8" font-family="Times,serif" font-size="14.00" fill="#000000">app/metashell</text>
</g>
<!-- app/metashell&#45;&gt;core -->
<g id="edge26" class="edge">
<title>app/metashell&#45;&gt;core</title>
<path fill="none" stroke="#000000" d="M525.2536,-431.8777C561.8153,-410.4438 620.121,-371.5938 656,-324 687.2621,-282.5306 705.3821,-223.796 713.9237,-189.6226"/>
<polygon fill="#000000" stroke="#000000" points="717.3382,-190.3928 716.271,-179.8519 710.5319,-188.7576 717.3382,-190.3928"/>
</g>
<!-- app/metashell&#45;&gt;data -->
<g id="edge27" class="edge">
<title>app/metashell&#45;&gt;data</title>
<path fill="none" stroke="#000000" d="M444.9299,-445.9159C359.2415,-438.0176 181.3364,-419.3521 124,-396 60.9329,-370.3139 0,-374.0972 0,-306 0,-306 0,-306 0,-162 0,-29.8282 483.698,-65.8077 603,-36 606.8645,-35.0345 610.8324,-33.7748 614.7212,-32.3699"/>
<polygon fill="#000000" stroke="#000000" points="616.1021,-35.5877 624.1208,-28.663 613.534,-29.0758 616.1021,-35.5877"/>
</g>
<!-- app/metashell&#45;&gt;defaults -->
<g id="edge28" class="edge">
<title>app/metashell&#45;&gt;defaults</title>
<path fill="none" stroke="#000000" d="M539.0823,-439.0647C597.5634,-425.4821 696.7334,-402.449 755.1203,-388.8882"/>
<polygon fill="#000000" stroke="#000000" points="756.2296,-392.2238 765.1785,-386.5521 754.6459,-385.4053 756.2296,-392.2238"/>
</g>
<!-- app/metashell&#45;&gt;iface -->
<g id="edge29" class="edge">
<title>app/metashell&#45;&gt;iface</title>
<path fill="none" stroke="#000000" d="M445.0882,-443.9002C336.2936,-428.4449 76,-383.3821 76,-306 76,-306 76,-306 76,-234 76,-141.1963 405.8933,-103.5663 522.0891,-93.1905"/>
<polygon fill="#000000" stroke="#000000" points="522.672,-96.653 532.3301,-92.2976 522.0639,-89.6795 522.672,-96.653"/>
</g>
<!-- app/metashell&#45;&gt;main_shell -->
<g id="edge30" class="edge">
<title>app/metashell&#45;&gt;main_shell</title>
<path fill="none" stroke="#000000" d="M444.8322,-440.9717C398.7755,-431.2421 333.0587,-414.6257 315,-396 296.5242,-376.9442 282.0652,-302.9948 275.2602,-261.9123"/>
<polygon fill="#000000" stroke="#000000" points="278.7073,-261.3038 273.6595,-251.9888 271.7967,-262.4186 278.7073,-261.3038"/>
</g>
<!-- app/metashell&#45;&gt;readline -->
<g id="edge31" class="edge">
<title>app/metashell&#45;&gt;readline</title>
<path fill="none" stroke="#000000" d="M538.9969,-447.4737C624.4171,-442.1557 801.105,-427.596 853,-396 935.2621,-345.9152 989.2588,-239.1488 1011.0668,-189.0339"/>
<polygon fill="#000000" stroke="#000000" points="1014.3011,-190.3718 1014.998,-179.7999 1007.8605,-187.6298 1014.3011,-190.3718"/>
</g>
<!-- app/reference_gen -->
<g id="node16" class="node">
<title>app/reference_gen</title>
<polygon fill="none" stroke="#000000" points="1715.8752,-468 1596.1248,-468 1596.1248,-432 1715.8752,-432 1715.8752,-468"/>
<text text-anchor="middle" x="1656" y="-445.8" font-family="Times,serif" font-size="14.00" fill="#000000">app/reference_gen</text>
</g>
<!-- app/reference_gen&#45;&gt;core -->
<g id="edge32" class="edge">
<title>app/reference_gen&#45;&gt;core</title>
<path fill="none" stroke="#000000" d="M1660.7042,-431.951C1668.1511,-398.8146 1678.3501,-328.0145 1642,-288 1523.1869,-157.2095 1425.9279,-240.959 1251,-216 1066.9526,-189.7398 845.2401,-171.4732 757.9446,-164.8002"/>
<polygon fill="#000000" stroke="#000000" points="757.9717,-161.2923 747.7356,-164.026 757.4423,-168.2722 757.9717,-161.2923"/>
</g>
<!-- app/reference_gen&#45;&gt;data -->
<g id="edge33" class="edge">
<title>app/reference_gen&#45;&gt;data</title>
<path fill="none" stroke="#000000" d="M1665.6683,-431.9404C1670.8418,-421.6493 1676.9611,-408.3745 1681,-396 1693.657,-357.2211 1699,-346.7922 1699,-306 1699,-306 1699,-306 1699,-162 1699,-57.3026 871.2841,-25.0622 683.5539,-19.0963"/>
<polygon fill="#000000" stroke="#000000" points="683.4594,-15.5917 673.3551,-18.7782 683.2411,-22.5883 683.4594,-15.5917"/>
</g>
<!-- app/reference_gen&#45;&gt;defaults -->
<g id="edge34" class="edge">
<title>app/reference_gen&#45;&gt;defaults</title>
<path fill="none" stroke="#000000" d="M1595.9234,-445.7125C1477.3327,-437.1422 1204.7948,-416.9157 976,-396 934.4767,-392.2041 887.4442,-387.3023 852.7553,-383.5728"/>
<polygon fill="#000000" stroke="#000000" points="852.7238,-380.0491 842.4059,-382.4555 851.9724,-387.0087 852.7238,-380.0491"/>
</g>
<!-- app/reference_gen&#45;&gt;mdb -->
<g id="edge35" class="edge">
<title>app/reference_gen&#45;&gt;mdb</title>
<path fill="none" stroke="#000000" d="M1596.126,-445.267C1479.6493,-434.5724 1215.8542,-403.0234 1009,-324 962.4947,-306.2338 913.9454,-274.5661 884.8398,-253.9269"/>
<polygon fill="#000000" stroke="#000000" points="886.6186,-250.8953 876.455,-247.9033 882.5344,-256.5803 886.6186,-250.8953"/>
</g>
<!-- app/reference_gen&#45;&gt;replace_part -->
<g id="edge36" class="edge">
<title>app/reference_gen&#45;&gt;replace_part</title>
<path fill="none" stroke="#000000" d="M1691.3279,-431.8314C1711.2776,-421.5715 1736.2538,-408.7266 1756.8049,-398.1575"/>
<polygon fill="#000000" stroke="#000000" points="1758.6099,-401.165 1765.902,-393.479 1755.4084,-394.94 1758.6099,-401.165"/>
</g>
<!-- test/system/core -->
<g id="node17" class="node">
<title>test/system/core</title>
<polygon fill="none" stroke="#000000" points="1633.1966,-324 1526.8034,-324 1526.8034,-288 1633.1966,-288 1633.1966,-324"/>
<text text-anchor="middle" x="1580" y="-301.8" font-family="Times,serif" font-size="14.00" fill="#000000">test/system/core</text>
</g>
<!-- test/system/core&#45;&gt;system_test -->
<g id="edge37" class="edge">
<title>test/system/core&#45;&gt;system_test</title>
<path fill="none" stroke="#000000" d="M1526.6725,-290.0724C1523.7475,-289.3381 1520.8427,-288.6414 1518,-288 1424.9405,-267.0047 1315.4532,-250.8152 1248.4003,-241.8478"/>
<polygon fill="#000000" stroke="#000000" points="1248.7907,-238.369 1238.4174,-240.5242 1247.8706,-245.3083 1248.7907,-238.369"/>
</g>
<!-- test/system/mdb -->
<g id="node18" class="node">
<title>test/system/mdb</title>
<polygon fill="none" stroke="#000000" points="1239.4972,-324 1132.5028,-324 1132.5028,-288 1239.4972,-288 1239.4972,-324"/>
<text text-anchor="middle" x="1186" y="-301.8" font-family="Times,serif" font-size="14.00" fill="#000000">test/system/mdb</text>
</g>
<!-- test/system/mdb&#45;&gt;system_test -->
<g id="edge38" class="edge">
<title>test/system/mdb&#45;&gt;system_test</title>
<path fill="none" stroke="#000000" d="M1186,-287.8314C1186,-280.131 1186,-270.9743 1186,-262.4166"/>
<polygon fill="#000000" stroke="#000000" points="1189.5001,-262.4132 1186,-252.4133 1182.5001,-262.4133 1189.5001,-262.4132"/>
</g>
<!-- test/system/pdb -->
<g id="node19" class="node">
<title>test/system/pdb</title>
<polygon fill="none" stroke="#000000" points="1360.6067,-324 1257.3933,-324 1257.3933,-288 1360.6067,-288 1360.6067,-324"/>
<text text-anchor="middle" x="1309" y="-301.8" font-family="Times,serif" font-size="14.00" fill="#000000">test/system/pdb</text>
</g>
<!-- test/system/pdb&#45;&gt;system_test -->
<g id="edge39" class="edge">
<title>test/system/pdb&#45;&gt;system_test</title>
<path fill="none" stroke="#000000" d="M1277.9619,-287.8314C1260.9929,-277.8983 1239.8846,-265.5422 1222.1724,-255.1741"/>
<polygon fill="#000000" stroke="#000000" points="1223.6578,-251.9881 1213.2595,-249.9568 1220.1215,-258.0292 1223.6578,-251.9881"/>
</g>
<!-- test/system/pp -->
<g id="node20" class="node">
<title>test/system/pp</title>
<polygon fill="none" stroke="#000000" points="1114.1067,-324 1017.8933,-324 1017.8933,-288 1114.1067,-288 1114.1067,-324"/>
<text text-anchor="middle" x="1066" y="-301.8" font-family="Times,serif" font-size="14.00" fill="#000000">test/system/pp</text>
</g>
<!-- test/system/pp&#45;&gt;pattern -->
<g id="edge40" class="edge">
<title>test/system/pp&#45;&gt;pattern</title>
<path fill="none" stroke="#000000" d="M1072.8391,-287.7623C1082.1308,-262.9846 1098.8232,-218.4714 1109.6523,-189.5939"/>
<polygon fill="#000000" stroke="#000000" points="1112.9822,-190.6819 1113.2164,-180.0896 1106.4279,-188.224 1112.9822,-190.6819"/>
</g>
<!-- test/system/pp&#45;&gt;system_test -->
<g id="edge41" class="edge">
<title>test/system/pp&#45;&gt;system_test</title>
<path fill="none" stroke="#000000" d="M1096.2811,-287.8314C1112.8362,-277.8983 1133.4297,-265.5422 1150.7099,-255.1741"/>
<polygon fill="#000000" stroke="#000000" points="1152.6312,-258.103 1159.4053,-249.9568 1149.0296,-252.1006 1152.6312,-258.103"/>
</g>
<!-- test/unit/core -->
<g id="node21" class="node">
<title>test/unit/core</title>
<polygon fill="none" stroke="#000000" points="469.5926,-252 380.4074,-252 380.4074,-216 469.5926,-216 469.5926,-252"/>
<text text-anchor="middle" x="425" y="-229.8" font-family="Times,serif" font-size="14.00" fill="#000000">test/unit/core</text>
</g>
<!-- test/unit/core&#45;&gt;core -->
<g id="edge42" class="edge">
<title>test/unit/core&#45;&gt;core</title>
<path fill="none" stroke="#000000" d="M469.6818,-220.0029C474.501,-218.6025 479.3435,-217.2414 484,-216 554.0395,-197.3284 636.8144,-179.3072 683.3809,-169.5337"/>
<polygon fill="#000000" stroke="#000000" points="684.2308,-172.9318 693.3039,-167.461 682.7995,-166.0797 684.2308,-172.9318"/>
</g>
<!-- test/unit/core&#45;&gt;data -->
<g id="edge43" class="edge">
<title>test/unit/core&#45;&gt;data</title>
<path fill="none" stroke="#000000" d="M426.8115,-215.8416C431.1052,-182.5251 444.9262,-111.4401 487,-72 526.3833,-35.0821 552.2671,-54.4431 603,-36 606.475,-34.7367 610.0792,-33.3511 613.6558,-31.9269"/>
<polygon fill="#000000" stroke="#000000" points="615.0206,-35.1502 622.9512,-28.1249 612.3705,-28.6712 615.0206,-35.1502"/>
</g>
<!-- test/unit/core&#45;&gt;mock -->
<g id="edge44" class="edge">
<title>test/unit/core&#45;&gt;mock</title>
<path fill="none" stroke="#000000" d="M391.4385,-215.8314C370.8847,-204.7045 344.7145,-190.5372 324.3812,-179.5296"/>
<polygon fill="#000000" stroke="#000000" points="325.951,-176.3996 315.4907,-174.7168 322.6185,-182.5554 325.951,-176.3996"/>
</g>
<!-- test/unit/data -->
<g id="node22" class="node">
<title>test/unit/data</title>
<polygon fill="none" stroke="#000000" points="698.3232,-108 609.6768,-108 609.6768,-72 698.3232,-72 698.3232,-108"/>
<text text-anchor="middle" x="654" y="-85.8" font-family="Times,serif" font-size="14.00" fill="#000000">test/unit/data</text>
</g>
<!-- test/unit/data&#45;&gt;data -->
<g id="edge45" class="edge">
<title>test/unit/data&#45;&gt;data</title>
<path fill="none" stroke="#000000" d="M651.9813,-71.8314C651.1257,-64.131 650.1083,-54.9743 649.1574,-46.4166"/>
<polygon fill="#000000" stroke="#000000" points="652.6289,-45.9656 648.0459,-36.4133 645.6717,-46.7386 652.6289,-45.9656"/>
</g>
<!-- test/unit/main_shell -->
<g id="node23" class="node">
<title>test/unit/main_shell</title>
<polygon fill="none" stroke="#000000" points="268.4398,-324 141.5602,-324 141.5602,-288 268.4398,-288 268.4398,-324"/>
<text text-anchor="middle" x="205" y="-301.8" font-family="Times,serif" font-size="14.00" fill="#000000">test/unit/main_shell</text>
</g>
<!-- test/unit/main_shell&#45;&gt;core -->
<g id="edge46" class="edge">
<title>test/unit/main_shell&#45;&gt;core</title>
<path fill="none" stroke="#000000" d="M268.2613,-296.5376C324.244,-287.4547 407.8595,-272.1487 479,-252 555.2662,-230.3995 641.6168,-195.4928 687.4138,-176.1112"/>
<polygon fill="#000000" stroke="#000000" points="688.9899,-179.2442 696.8199,-172.1069 686.248,-172.8036 688.9899,-179.2442"/>
</g>
<!-- test/unit/main_shell&#45;&gt;data -->
<g id="edge47" class="edge">
<title>test/unit/main_shell&#45;&gt;data</title>
<path fill="none" stroke="#000000" d="M187.7365,-287.5761C179.7611,-277.7997 171.152,-265.1148 167,-252 162.1708,-236.7462 162.0773,-231.2239 167,-216 191.2893,-140.8833 202.7518,-111.6823 271,-72 399.308,2.6036 459.2757,-73.0399 603,-36 606.6637,-35.0558 610.4234,-33.8562 614.1217,-32.5259"/>
<polygon fill="#000000" stroke="#000000" points="615.6283,-35.6946 623.6601,-28.7851 613.0726,-29.1778 615.6283,-35.6946"/>
</g>
<!-- test/unit/main_shell&#45;&gt;iface -->
<g id="edge48" class="edge">
<title>test/unit/main_shell&#45;&gt;iface</title>
<path fill="none" stroke="#000000" d="M200.1103,-287.6584C195.998,-267.8103 193.0488,-236.2866 209,-216 244.4709,-170.8885 278.6821,-198.515 333,-180 403.293,-156.0397 483.7249,-123.1158 528.1066,-104.453"/>
<polygon fill="#000000" stroke="#000000" points="529.6852,-107.5858 537.5378,-100.4733 526.9637,-101.1364 529.6852,-107.5858"/>
</g>
<!-- test/unit/main_shell&#45;&gt;main_shell -->
<g id="edge49" class="edge">
<title>test/unit/main_shell&#45;&gt;main_shell</title>
<path fill="none" stroke="#000000" d="M221.6546,-287.8314C229.6501,-279.109 239.3582,-268.5183 248.0412,-259.0459"/>
<polygon fill="#000000" stroke="#000000" points="250.8565,-261.1543 255.0338,-251.4177 245.6964,-256.4242 250.8565,-261.1543"/>
</g>
<!-- test/unit/main_shell&#45;&gt;mock -->
<g id="edge50" class="edge">
<title>test/unit/main_shell&#45;&gt;mock</title>
<path fill="none" stroke="#000000" d="M190.6039,-287.9302C177.3056,-268.8804 161.6155,-238.563 176,-216 192.4128,-190.2555 224.6381,-176.5894 250.9662,-169.453"/>
<polygon fill="#000000" stroke="#000000" points="251.8634,-172.8366 260.7227,-167.0261 250.1735,-166.0436 251.8634,-172.8366"/>
</g>
<!-- test/unit/mdb -->
<g id="node24" class="node">
<title>test/unit/mdb</title>
<polygon fill="none" stroke="#000000" points="619.8935,-324 530.1065,-324 530.1065,-288 619.8935,-288 619.8935,-324"/>
<text text-anchor="middle" x="575" y="-301.8" font-family="Times,serif" font-size="14.00" fill="#000000">test/unit/mdb</text>
</g>
<!-- test/unit/mdb&#45;&gt;core -->
<g id="edge51" class="edge">
<title>test/unit/mdb&#45;&gt;core</title>
<path fill="none" stroke="#000000" d="M584.3885,-287.8611C595.0425,-268.4766 613.8461,-237.6216 636,-216 651.5981,-200.7767 672.1342,-187.4823 688.9966,-177.8937"/>
<polygon fill="#000000" stroke="#000000" points="690.8701,-180.8573 697.9319,-172.9592 687.486,-174.7296 690.8701,-180.8573"/>
</g>
<!-- test/unit/mdb&#45;&gt;data -->
<g id="edge52" class="edge">
<title>test/unit/mdb&#45;&gt;data</title>
<path fill="none" stroke="#000000" d="M562.4969,-287.9362C535.4026,-246.3471 477.2601,-142.0348 523,-72 524.3441,-69.9419 577.2962,-47.1608 613.2777,-31.8531"/>
<polygon fill="#000000" stroke="#000000" points="615.0839,-34.8886 622.9193,-27.7572 612.3468,-28.4459 615.0839,-34.8886"/>
</g>
<!-- test/unit/mdb&#45;&gt;iface -->
<g id="edge53" class="edge">
<title>test/unit/mdb&#45;&gt;iface</title>
<path fill="none" stroke="#000000" d="M573.914,-287.9555C571.6533,-250.3938 566.4269,-163.5541 563.7099,-118.4103"/>
<polygon fill="#000000" stroke="#000000" points="567.1866,-117.9167 563.0921,-108.1451 560.1992,-118.3373 567.1866,-117.9167"/>
</g>
<!-- test/unit/mdb&#45;&gt;mdb -->
<g id="edge54" class="edge">
<title>test/unit/mdb&#45;&gt;mdb</title>
<path fill="none" stroke="#000000" d="M620.1551,-294.5118C676.0708,-280.2859 770.2116,-256.3349 821.6895,-243.238"/>
<polygon fill="#000000" stroke="#000000" points="822.8668,-246.5501 831.695,-240.6924 821.1408,-239.7662 822.8668,-246.5501"/>
</g>
<!-- test/unit/pragma -->
<g id="node25" class="node">
<title>test/unit/pragma</title>
<polygon fill="none" stroke="#000000" points="430.4832,-396 323.5168,-396 323.5168,-360 430.4832,-360 430.4832,-396"/>
<text text-anchor="middle" x="377" y="-373.8" font-family="Times,serif" font-size="14.00" fill="#000000">test/unit/pragma</text>
</g>
<!-- test/unit/pragma&#45;&gt;core -->
<g id="edge55" class="edge">
<title>test/unit/pragma&#45;&gt;core</title>
<path fill="none" stroke="#000000" d="M430.7505,-372.3528C495.5236,-364.5655 599.3672,-348.6343 629,-324 668.9871,-290.7579 646.8123,-260.3264 674,-216 680.6734,-205.1198 689.4828,-194.1986 697.605,-185.0528"/>
<polygon fill="#000000" stroke="#000000" points="700.3293,-187.2601 704.4947,-177.5184 695.1635,-182.5362 700.3293,-187.2601"/>
</g>
<!-- test/unit/pragma&#45;&gt;data -->
<g id="edge56" class="edge">
<title>test/unit/pragma&#45;&gt;data</title>
<path fill="none" stroke="#000000" d="M372.7768,-359.6058C366.5538,-329.1157 357.0781,-266.4632 371,-216 390.8251,-144.1397 397.0785,-116.3435 457,-72 510.722,-32.2443 539.5414,-56.9659 603,-36 606.5925,-34.8131 610.3068,-33.4594 613.9788,-32.0394"/>
<polygon fill="#000000" stroke="#000000" points="615.528,-35.1884 623.4868,-28.1949 612.9039,-28.6988 615.528,-35.1884"/>
</g>
<!-- test/unit/pragma&#45;&gt;main_shell -->
<g id="edge57" class="edge">
<title>test/unit/pragma&#45;&gt;main_shell</title>
<path fill="none" stroke="#000000" d="M363.575,-359.7623C344.996,-334.5229 311.3429,-288.8054 290.1359,-259.9959"/>
<polygon fill="#000000" stroke="#000000" points="292.7313,-257.6177 283.9844,-251.6392 287.0939,-261.7675 292.7313,-257.6177"/>
</g>
<!-- test/unit/pragma&#45;&gt;mock -->
<g id="edge58" class="edge">
<title>test/unit/pragma&#45;&gt;mock</title>
<path fill="none" stroke="#000000" d="M323.2547,-373.7985C258.7724,-367.5117 156.3938,-353.1371 133,-324 107.5764,-292.3347 162.934,-219.9324 167,-216 190.4303,-193.3394 224.8838,-179.4238 251.6888,-171.4068"/>
<polygon fill="#000000" stroke="#000000" points="252.8793,-174.7074 261.5487,-168.617 250.9735,-167.9718 252.8793,-174.7074"/>
</g>
<!-- test/unit/pragma&#45;&gt;pragma -->
<g id="edge59" class="edge">
<title>test/unit/pragma&#45;&gt;pragma</title>
<path fill="none" stroke="#000000" d="M430.8265,-368.8812C514.5155,-354.7033 674.4894,-327.6018 754.2817,-314.084"/>
<polygon fill="#000000" stroke="#000000" points="755.2553,-317.4691 764.5302,-312.3478 754.086,-310.5674 755.2553,-317.4691"/>
</g>
<!-- test/unit/replace_part -->
<g id="node26" class="node">
<title>test/unit/replace_part</title>
<polygon fill="none" stroke="#000000" points="1868.1783,-468 1733.8217,-468 1733.8217,-432 1868.1783,-432 1868.1783,-468"/>
<text text-anchor="middle" x="1801" y="-445.8" font-family="Times,serif" font-size="14.00" fill="#000000">test/unit/replace_part</text>
</g>
<!-- test/unit/replace_part&#45;&gt;replace_part -->
<g id="edge60" class="edge">
<title>test/unit/replace_part&#45;&gt;replace_part</title>
<path fill="none" stroke="#000000" d="M1799.7383,-431.8314C1799.2035,-424.131 1798.5677,-414.9743 1797.9734,-406.4166"/>
<polygon fill="#000000" stroke="#000000" points="1801.4632,-406.1467 1797.2787,-396.4133 1794.48,-406.6317 1801.4632,-406.1467"/>
</g>
<!-- test/unit/system_test -->
<g id="node27" class="node">
<title>test/unit/system_test</title>
<polygon fill="none" stroke="#000000" points="1509.3286,-324 1378.6714,-324 1378.6714,-288 1509.3286,-288 1509.3286,-324"/>
<text text-anchor="middle" x="1444" y="-301.8" font-family="Times,serif" font-size="14.00" fill="#000000">test/unit/system_test</text>
</g>
<!-- test/unit/system_test&#45;&gt;system_test -->
<g id="edge61" class="edge">
<title>test/unit/system_test&#45;&gt;system_test</title>
<path fill="none" stroke="#000000" d="M1379.2287,-287.9243C1335.6533,-275.7637 1278.9505,-259.9397 1238.2565,-248.5832"/>
<polygon fill="#000000" stroke="#000000" points="1239.1062,-245.1867 1228.5334,-245.8698 1237.2246,-251.929 1239.1062,-245.1867"/>
</g>
</g>
</svg>
