<?xml version="1.0" encoding="UTF-8" standalone="no"?>
<!DOCTYPE svg PUBLIC "-//W3C//DTD SVG 1.1//EN"
 "http://www.w3.org/Graphics/SVG/1.1/DTD/svg11.dtd">
<!-- Generated by graphviz version 2.40.1
 -->
<!-- Title: %3 Pages: 1 -->
<svg width="798pt" height="404pt"
 viewBox="0.00 0.00 798.25 404.00" xmlns="http://www.w3.org/2000/svg" xmlns:xlink="http://www.w3.org/1999/xlink">
<g id="graph0" class="graph" transform="scale(1 1) rotate(0) translate(4 400)">
<title>%3</title>
<polygon fill="#ffffff" stroke="transparent" points="-4,4 -4,-400 794.2532,-400 794.2532,4 -4,4"/>
<!-- boost -->
<g id="node1" class="node">
<title>boost</title>
<ellipse fill="#ffffff" stroke="#000000" cx="299.1641" cy="-18" rx="31.9224" ry="18"/>
<text text-anchor="middle" x="299.1641" y="-13.8" font-family="Times,serif" font-size="14.00" fill="#000000">boost</text>
</g>
<!-- core -->
<g id="node2" class="node">
<title>core</title>
<ellipse fill="#ffffff" stroke="#000000" cx="374.1641" cy="-234" rx="27.8073" ry="18"/>
<text text-anchor="middle" x="374.1641" y="-229.8" font-family="Times,serif" font-size="14.00" fill="#000000">core</text>
</g>
<!-- core&#45;&gt;boost -->
<g id="edge1" class="edge">
<title>core&#45;&gt;boost</title>
<path fill="none" stroke="#000000" d="M372.1009,-215.7568C368.1165,-184.9537 357.6895,-121.1836 335.1641,-72 330.5897,-62.012 324.2778,-51.7991 318.2154,-42.9815"/>
<polygon fill="#000000" stroke="#000000" points="320.9616,-40.8041 312.3097,-34.6889 315.2598,-44.8648 320.9616,-40.8041"/>
</g>
<!-- data -->
<g id="node3" class="node">
<title>data</title>
<ellipse fill="#ffffff" stroke="#000000" cx="299.1641" cy="-90" rx="27.2447" ry="18"/>
<text text-anchor="middle" x="299.1641" y="-85.8" font-family="Times,serif" font-size="14.00" fill="#000000">data</text>
</g>
<!-- core&#45;&gt;data -->
<g id="edge2" class="edge">
<title>core&#45;&gt;data</title>
<path fill="none" stroke="#000000" d="M366.6776,-216.4631C358.684,-198.1152 345.3739,-168.6122 332.1641,-144 327.0738,-134.5159 321.0466,-124.3823 315.5451,-115.4853"/>
<polygon fill="#000000" stroke="#000000" points="318.3403,-113.3546 310.0635,-106.7405 312.4091,-117.0724 318.3403,-113.3546"/>
</g>
<!-- iface -->
<g id="node4" class="node">
<title>iface</title>
<ellipse fill="#ffffff" stroke="#000000" cx="116.1641" cy="-162" rx="29.5916" ry="18"/>
<text text-anchor="middle" x="116.1641" y="-157.8" font-family="Times,serif" font-size="14.00" fill="#000000">iface</text>
</g>
<!-- core&#45;&gt;iface -->
<g id="edge3" class="edge">
<title>core&#45;&gt;iface</title>
<path fill="none" stroke="#000000" d="M348.2171,-227.742C292.2315,-214.22 164.38,-183.2297 155.1641,-180 153.0484,-179.2586 150.8919,-178.443 148.7331,-177.581"/>
<polygon fill="#000000" stroke="#000000" points="149.9468,-174.2937 139.3753,-173.59 147.2006,-180.7325 149.9468,-174.2937"/>
</g>
<!-- process -->
<g id="node7" class="node">
<title>process</title>
<ellipse fill="#ffffff" stroke="#000000" cx="462.1641" cy="-162" rx="39.9857" ry="18"/>
<text text-anchor="middle" x="462.1641" y="-157.8" font-family="Times,serif" font-size="14.00" fill="#000000">process</text>
</g>
<!-- core&#45;&gt;process -->
<g id="edge4" class="edge">
<title>core&#45;&gt;process</title>
<path fill="none" stroke="#000000" d="M391.5501,-219.7751C403.8604,-209.703 420.6227,-195.9884 434.7267,-184.4488"/>
<polygon fill="#000000" stroke="#000000" points="437.1466,-186.9911 442.6699,-177.9498 432.7139,-181.5734 437.1466,-186.9911"/>
</g>
<!-- data&#45;&gt;boost -->
<g id="edge5" class="edge">
<title>data&#45;&gt;boost</title>
<path fill="none" stroke="#000000" d="M299.1641,-71.8314C299.1641,-64.131 299.1641,-54.9743 299.1641,-46.4166"/>
<polygon fill="#000000" stroke="#000000" points="302.6642,-46.4132 299.1641,-36.4133 295.6642,-46.4133 302.6642,-46.4132"/>
</g>
<!-- iface&#45;&gt;boost -->
<g id="edge6" class="edge">
<title>iface&#45;&gt;boost</title>
<path fill="none" stroke="#000000" d="M134.3799,-147.6663C166.8228,-122.1374 234.7388,-68.6953 272.4641,-39.0098"/>
<polygon fill="#000000" stroke="#000000" points="274.7828,-41.639 280.4772,-32.7045 270.454,-36.1379 274.7828,-41.639"/>
</g>
<!-- iface&#45;&gt;data -->
<g id="edge7" class="edge">
<title>iface&#45;&gt;data</title>
<path fill="none" stroke="#000000" d="M139.966,-150.6772C144.957,-148.3981 150.2096,-146.069 155.1641,-144 192.4107,-128.4457 235.8834,-112.4307 265.2399,-101.9234"/>
<polygon fill="#000000" stroke="#000000" points="266.7558,-105.0989 275.0016,-98.4463 264.4069,-98.5048 266.7558,-105.0989"/>
</g>
<!-- mock -->
<g id="node5" class="node">
<title>mock</title>
<ellipse fill="#ffffff" stroke="#000000" cx="80.1641" cy="-234" rx="32.4846" ry="18"/>
<text text-anchor="middle" x="80.1641" y="-229.8" font-family="Times,serif" font-size="14.00" fill="#000000">mock</text>
</g>
<!-- mock&#45;&gt;iface -->
<g id="edge8" class="edge">
<title>mock&#45;&gt;iface</title>
<path fill="none" stroke="#000000" d="M88.8787,-216.5708C93.1238,-208.0807 98.3177,-197.6929 103.0304,-188.2674"/>
<polygon fill="#000000" stroke="#000000" points="106.1881,-189.7782 107.5298,-179.2687 99.9271,-186.6477 106.1881,-189.7782"/>
</g>
<!-- pattern -->
<g id="node6" class="node">
<title>pattern</title>
<ellipse fill="#ffffff" stroke="#000000" cx="496.1641" cy="-234" rx="37.6986" ry="18"/>
<text text-anchor="middle" x="496.1641" y="-229.8" font-family="Times,serif" font-size="14.00" fill="#000000">pattern</text>
</g>
<!-- process&#45;&gt;data -->
<g id="edge9" class="edge">
<title>process&#45;&gt;data</title>
<path fill="none" stroke="#000000" d="M433.3982,-149.2936C404.8231,-136.6714 361.091,-117.3542 331.3691,-104.2255"/>
<polygon fill="#000000" stroke="#000000" points="332.4303,-100.8681 321.8687,-100.029 329.6019,-107.2712 332.4303,-100.8681"/>
</g>
<!-- readline -->
<g id="node8" class="node">
<title>readline</title>
<ellipse fill="#ffffff" stroke="#000000" cx="248.1641" cy="-234" rx="42.2719" ry="18"/>
<text text-anchor="middle" x="248.1641" y="-229.8" font-family="Times,serif" font-size="14.00" fill="#000000">readline</text>
</g>
<!-- readline&#45;&gt;data -->
<g id="edge10" class="edge">
<title>readline&#45;&gt;data</title>
<path fill="none" stroke="#000000" d="M254.5202,-216.0535C263.3101,-191.2347 279.252,-146.2224 289.5156,-117.2428"/>
<polygon fill="#000000" stroke="#000000" points="292.8488,-118.3151 292.8881,-107.7204 286.2504,-115.9781 292.8488,-118.3151"/>
</g>
<!-- readline&#45;&gt;iface -->
<g id="edge11" class="edge">
<title>readline&#45;&gt;iface</title>
<path fill="none" stroke="#000000" d="M222.0851,-219.7751C200.6894,-208.1047 170.328,-191.544 147.5926,-179.1428"/>
<polygon fill="#000000" stroke="#000000" points="149.1279,-175.9935 138.673,-174.2776 145.7759,-182.1388 149.1279,-175.9935"/>
</g>
<!-- replace_part -->
<g id="node9" class="node">
<title>replace_part</title>
<ellipse fill="#ffffff" stroke="#000000" cx="692.1641" cy="-234" rx="58.5059" ry="18"/>
<text text-anchor="middle" x="692.1641" y="-229.8" font-family="Times,serif" font-size="14.00" fill="#000000">replace_part</text>
</g>
<!-- system_test -->
<g id="node10" class="node">
<title>system_test</title>
<ellipse fill="#ffffff" stroke="#000000" cx="387.1641" cy="-306" rx="56.1937" ry="18"/>
<text text-anchor="middle" x="387.1641" y="-301.8" font-family="Times,serif" font-size="14.00" fill="#000000">system_test</text>
</g>
<!-- system_test&#45;&gt;core -->
<g id="edge12" class="edge">
<title>system_test&#45;&gt;core</title>
<path fill="none" stroke="#000000" d="M383.8837,-287.8314C382.4719,-280.0125 380.7891,-270.6923 379.2236,-262.0221"/>
<polygon fill="#000000" stroke="#000000" points="382.6197,-261.1324 377.3985,-251.9134 375.7311,-262.3762 382.6197,-261.1324"/>
</g>
<!-- system_test&#45;&gt;pattern -->
<g id="edge13" class="edge">
<title>system_test&#45;&gt;pattern</title>
<path fill="none" stroke="#000000" d="M411.8979,-289.6621C427.7304,-279.2039 448.3974,-265.5523 465.3014,-254.3863"/>
<polygon fill="#000000" stroke="#000000" points="467.3377,-257.236 473.7526,-248.8039 463.4796,-251.3952 467.3377,-257.236"/>
</g>
<!-- system_test&#45;&gt;process -->
<g id="edge14" class="edge">
<title>system_test&#45;&gt;process</title>
<path fill="none" stroke="#000000" d="M396.5113,-288.0535C409.4941,-263.1263 433.0865,-217.8289 448.1724,-188.8641"/>
<polygon fill="#000000" stroke="#000000" points="451.4196,-190.2063 452.9347,-179.7204 445.2111,-186.9727 451.4196,-190.2063"/>
</g>
<!-- app/metashell -->
<g id="node11" class="node">
<title>app/metashell</title>
<polygon fill="none" stroke="#000000" points="296.9204,-324 203.4078,-324 203.4078,-288 296.9204,-288 296.9204,-324"/>
<text text-anchor="middle" x="250.1641" y="-301.8" font-family="Times,serif" font-size="14.00" fill="#000000">app/metashell</text>
</g>
<!-- app/metashell&#45;&gt;core -->
<g id="edge15" class="edge">
<title>app/metashell&#45;&gt;core</title>
<path fill="none" stroke="#000000" d="M281.4545,-287.8314C300.8148,-276.5899 325.5197,-262.2451 344.558,-251.1907"/>
<polygon fill="#000000" stroke="#000000" points="346.5101,-254.1044 353.4006,-246.0563 342.9952,-248.0509 346.5101,-254.1044"/>
</g>
<!-- app/metashell&#45;&gt;data -->
<g id="edge16" class="edge">
<title>app/metashell&#45;&gt;data</title>
<path fill="none" stroke="#000000" d="M272.8391,-287.9909C282.9529,-278.4972 293.7839,-265.9355 299.1641,-252 316.2567,-207.7273 310.8167,-151.4358 305.1221,-118.204"/>
<polygon fill="#000000" stroke="#000000" points="308.5458,-117.4699 303.2925,-108.2693 301.6616,-118.7378 308.5458,-117.4699"/>
</g>
<!-- app/metashell&#45;&gt;iface -->
<g id="edge17" class="edge">
<title>app/metashell&#45;&gt;iface</title>
<path fill="none" stroke="#000000" d="M231.8126,-287.6974C221.5161,-277.3302 208.4998,-264.0604 197.1641,-252 176.4392,-229.9502 153.41,-204.2403 137.2212,-185.9588"/>
<polygon fill="#000000" stroke="#000000" points="139.5413,-183.2985 130.2973,-178.1217 134.2953,-187.9332 139.5413,-183.2985"/>
</g>
<!-- app/metashell&#45;&gt;readline -->
<g id="edge18" class="edge">
<title>app/metashell&#45;&gt;readline</title>
<path fill="none" stroke="#000000" d="M249.6594,-287.8314C249.4455,-280.131 249.1912,-270.9743 248.9535,-262.4166"/>
<polygon fill="#000000" stroke="#000000" points="252.452,-262.3122 248.6756,-252.4133 245.4547,-262.5066 252.452,-262.3122"/>
</g>
<!-- app/reference_gen -->
<g id="node12" class="node">
<title>app/reference_gen</title>
<polygon fill="none" stroke="#000000" points="638.0393,-324 518.2889,-324 518.2889,-288 638.0393,-288 638.0393,-324"/>
<text text-anchor="middle" x="578.1641" y="-301.8" font-family="Times,serif" font-size="14.00" fill="#000000">app/reference_gen</text>
</g>
<!-- app/reference_gen&#45;&gt;core -->
<g id="edge19" class="edge">
<title>app/reference_gen&#45;&gt;core</title>
<path fill="none" stroke="#000000" d="M526.9496,-287.9243C489.7275,-274.7871 440.3914,-257.3744 407.9876,-245.9377"/>
<polygon fill="#000000" stroke="#000000" points="409.1018,-242.6194 398.507,-242.5916 406.772,-249.2204 409.1018,-242.6194"/>
</g>
<!-- app/reference_gen&#45;&gt;data -->
<g id="edge20" class="edge">
<title>app/reference_gen&#45;&gt;data</title>
<path fill="none" stroke="#000000" d="M576.0685,-287.7544C571.1801,-253.97 555.8211,-181.6899 511.1641,-144 484.8375,-121.7807 389.3683,-103.9359 335.9675,-95.423"/>
<polygon fill="#000000" stroke="#000000" points="336.3018,-91.9329 325.8812,-93.8464 335.2207,-98.8489 336.3018,-91.9329"/>
</g>
<!-- app/reference_gen&#45;&gt;replace_part -->
<g id="edge21" class="edge">
<title>app/reference_gen&#45;&gt;replace_part</title>
<path fill="none" stroke="#000000" d="M606.9311,-287.8314C622.4029,-278.0597 641.5874,-265.9432 657.8357,-255.6811"/>
<polygon fill="#000000" stroke="#000000" points="659.9322,-258.4967 666.5181,-250.1975 656.1942,-252.5782 659.9322,-258.4967"/>
</g>
<!-- test/system/core -->
<g id="node13" class="node">
<title>test/system/core</title>
<polygon fill="none" stroke="#000000" points="254.3607,-396 147.9675,-396 147.9675,-360 254.3607,-360 254.3607,-396"/>
<text text-anchor="middle" x="201.1641" y="-373.8" font-family="Times,serif" font-size="14.00" fill="#000000">test/system/core</text>
</g>
<!-- test/system/core&#45;&gt;system_test -->
<g id="edge22" class="edge">
<title>test/system/core&#45;&gt;system_test</title>
<path fill="none" stroke="#000000" d="M248.0998,-359.8314C276.6915,-348.7636 313.0547,-334.6875 341.4256,-323.7052"/>
<polygon fill="#000000" stroke="#000000" points="343.0394,-326.8337 351.1016,-319.9597 340.5124,-320.3057 343.0394,-326.8337"/>
</g>
<!-- test/system/mdb -->
<g id="node14" class="node">
<title>test/system/mdb</title>
<polygon fill="none" stroke="#000000" points="379.6613,-396 272.6669,-396 272.6669,-360 379.6613,-360 379.6613,-396"/>
<text text-anchor="middle" x="326.1641" y="-373.8" font-family="Times,serif" font-size="14.00" fill="#000000">test/system/mdb</text>
</g>
<!-- test/system/mdb&#45;&gt;system_test -->
<g id="edge23" class="edge">
<title>test/system/mdb&#45;&gt;system_test</title>
<path fill="none" stroke="#000000" d="M341.557,-359.8314C348.8728,-351.1962 357.7401,-340.7299 365.7036,-331.3304"/>
<polygon fill="#000000" stroke="#000000" points="368.6137,-333.31 372.4074,-323.4177 363.2728,-328.7851 368.6137,-333.31"/>
</g>
<!-- test/system/pdb -->
<g id="node15" class="node">
<title>test/system/pdb</title>
<polygon fill="none" stroke="#000000" points="500.7708,-396 397.5574,-396 397.5574,-360 500.7708,-360 500.7708,-396"/>
<text text-anchor="middle" x="449.1641" y="-373.8" font-family="Times,serif" font-size="14.00" fill="#000000">test/system/pdb</text>
</g>
<!-- test/system/pdb&#45;&gt;system_test -->
<g id="edge24" class="edge">
<title>test/system/pdb&#45;&gt;system_test</title>
<path fill="none" stroke="#000000" d="M433.5189,-359.8314C426.008,-351.109 416.8882,-340.5183 408.7314,-331.0459"/>
<polygon fill="#000000" stroke="#000000" points="411.3402,-328.7116 402.1627,-323.4177 406.0358,-333.2793 411.3402,-328.7116"/>
</g>
<!-- test/system/pp -->
<g id="node16" class="node">
<title>test/system/pp</title>
<polygon fill="none" stroke="#000000" points="615.2708,-396 519.0574,-396 519.0574,-360 615.2708,-360 615.2708,-396"/>
<text text-anchor="middle" x="567.1641" y="-373.8" font-family="Times,serif" font-size="14.00" fill="#000000">test/system/pp</text>
</g>
<!-- test/system/pp&#45;&gt;pattern -->
<g id="edge25" class="edge">
<title>test/system/pp&#45;&gt;pattern</title>
<path fill="none" stroke="#000000" d="M540.739,-359.9001C529.1686,-350.552 516.566,-338.1391 509.1641,-324 499.2485,-305.0592 496.1856,-280.9726 495.5001,-262.4845"/>
<polygon fill="#000000" stroke="#000000" points="498.9972,-262.2698 495.3374,-252.3272 491.9981,-262.3821 498.9972,-262.2698"/>
</g>
<!-- test/system/pp&#45;&gt;system_test -->
<g id="edge26" class="edge">
<title>test/system/pp&#45;&gt;system_test</title>
<path fill="none" stroke="#000000" d="M521.7425,-359.8314C494.1662,-348.8008 459.1198,-334.7823 431.7048,-323.8163"/>
<polygon fill="#000000" stroke="#000000" points="432.9354,-320.539 422.3508,-320.0747 430.3356,-327.0383 432.9354,-320.539"/>
</g>
<!-- test/unit/core -->
<g id="node17" class="node">
<title>test/unit/core</title>
<polygon fill="none" stroke="#000000" points="156.7567,-324 67.5715,-324 67.5715,-288 156.7567,-288 156.7567,-324"/>
<text text-anchor="middle" x="112.1641" y="-301.8" font-family="Times,serif" font-size="14.00" fill="#000000">test/unit/core</text>
</g>
<!-- test/unit/core&#45;&gt;core -->
<g id="edge27" class="edge">
<title>test/unit/core&#45;&gt;core</title>
<path fill="none" stroke="#000000" d="M156.9058,-293.7046C208.3751,-279.5603 291.8238,-256.6279 338.9109,-243.6879"/>
<polygon fill="#000000" stroke="#000000" points="339.9466,-247.0331 348.6617,-241.0083 338.0917,-240.2833 339.9466,-247.0331"/>
</g>
<!-- test/unit/core&#45;&gt;data -->
<g id="edge28" class="edge">
<title>test/unit/core&#45;&gt;data</title>
<path fill="none" stroke="#000000" d="M74.8639,-287.9669C61.0183,-279.189 46.8283,-267.2027 39.1641,-252 16.2576,-206.5629 37.0248,-175.2741 77.1641,-144 105.8241,-121.6698 207.1482,-103.6461 262.4634,-95.2004"/>
<polygon fill="#000000" stroke="#000000" points="263.1825,-98.6318 272.5533,-93.6882 262.145,-91.7091 263.1825,-98.6318"/>
</g>
<!-- test/unit/core&#45;&gt;iface -->
<g id="edge29" class="edge">
<title>test/unit/core&#45;&gt;iface</title>
<path fill="none" stroke="#000000" d="M116.0054,-287.6001C117.9807,-277.2025 120.1764,-263.9346 121.1641,-252 122.8824,-231.2381 121.4615,-207.7316 119.7016,-189.9494"/>
<polygon fill="#000000" stroke="#000000" points="123.175,-189.5138 118.6174,-179.9494 116.2158,-190.2685 123.175,-189.5138"/>
</g>
<!-- test/unit/core&#45;&gt;mock -->
<g id="edge30" class="edge">
<title>test/unit/core&#45;&gt;mock</title>
<path fill="none" stroke="#000000" d="M104.0891,-287.8314C100.4995,-279.7547 96.1979,-270.0761 92.2382,-261.1668"/>
<polygon fill="#000000" stroke="#000000" points="95.3854,-259.63 88.1256,-251.9134 88.9887,-262.473 95.3854,-259.63"/>
</g>
<!-- test/unit/data -->
<g id="node18" class="node">
<title>test/unit/data</title>
<polygon fill="none" stroke="#000000" points="252.4873,-180 163.8409,-180 163.8409,-144 252.4873,-144 252.4873,-180"/>
<text text-anchor="middle" x="208.1641" y="-157.8" font-family="Times,serif" font-size="14.00" fill="#000000">test/unit/data</text>
</g>
<!-- test/unit/data&#45;&gt;data -->
<g id="edge31" class="edge">
<title>test/unit/data&#45;&gt;data</title>
<path fill="none" stroke="#000000" d="M231.1272,-143.8314C244.1209,-133.5507 260.395,-120.6744 273.7686,-110.0931"/>
<polygon fill="#000000" stroke="#000000" points="275.995,-112.7947 281.6655,-103.845 271.6516,-107.3051 275.995,-112.7947"/>
</g>
<!-- test/unit/replace_part -->
<g id="node19" class="node">
<title>test/unit/replace_part</title>
<polygon fill="none" stroke="#000000" points="790.3424,-324 655.9858,-324 655.9858,-288 790.3424,-288 790.3424,-324"/>
<text text-anchor="middle" x="723.1641" y="-301.8" font-family="Times,serif" font-size="14.00" fill="#000000">test/unit/replace_part</text>
</g>
<!-- test/unit/replace_part&#45;&gt;replace_part -->
<g id="edge32" class="edge">
<title>test/unit/replace_part&#45;&gt;replace_part</title>
<path fill="none" stroke="#000000" d="M715.3415,-287.8314C711.864,-279.7547 707.6969,-270.0761 703.8609,-261.1668"/>
<polygon fill="#000000" stroke="#000000" points="707.0462,-259.7141 699.8768,-251.9134 700.6168,-262.4824 707.0462,-259.7141"/>
</g>
<!-- test/unit/system_test -->
<g id="node20" class="node">
<title>test/unit/system_test</title>
<polygon fill="none" stroke="#000000" points="130.4927,-396 -.1645,-396 -.1645,-360 130.4927,-360 130.4927,-396"/>
<text text-anchor="middle" x="65.1641" y="-373.8" font-family="Times,serif" font-size="14.00" fill="#000000">test/unit/system_test</text>
</g>
<!-- test/unit/system_test&#45;&gt;system_test -->
<g id="edge33" class="edge">
<title>test/unit/system_test&#45;&gt;system_test</title>
<path fill="none" stroke="#000000" d="M130.512,-362.0059C133.4345,-361.3217 136.3289,-360.6503 139.1641,-360 213.1696,-343.0258 231.993,-340.2355 306.1641,-324 314.1677,-322.2481 322.6131,-320.3861 330.9089,-318.5495"/>
<polygon fill="#000000" stroke="#000000" points="331.9089,-321.9129 340.914,-316.3309 330.3935,-315.0789 331.9089,-321.9129"/>
</g>
</g>
</svg>
