<?xml version="1.0" encoding="UTF-8" standalone="no"?>
<!DOCTYPE svg PUBLIC "-//W3C//DTD SVG 1.1//EN"
 "http://www.w3.org/Graphics/SVG/1.1/DTD/svg11.dtd">
<!-- Generated by graphviz version 2.40.1
 -->
<!-- Title: %3 Pages: 1 -->
<svg width="1992pt" height="476pt"
 viewBox="0.00 0.00 1991.82 476.00" xmlns="http://www.w3.org/2000/svg" xmlns:xlink="http://www.w3.org/1999/xlink">
<g id="graph0" class="graph" transform="scale(1 1) rotate(0) translate(4 472)">
<title>%3</title>
<polygon fill="#ffffff" stroke="transparent" points="-4,4 -4,-472 1987.8236,-472 1987.8236,4 -4,4"/>
<!-- compiler_stub -->
<g id="node1" class="node">
<title>compiler_stub</title>
<ellipse fill="#ffffff" stroke="#000000" cx="1701.2703" cy="-90" rx="66.0723" ry="18"/>
<text text-anchor="middle" x="1701.2703" y="-85.8" font-family="Times,serif" font-size="14.00" fill="#000000">compiler_stub</text>
</g>
<!-- data -->
<g id="node3" class="node">
<title>data</title>
<ellipse fill="#ffffff" stroke="#000000" cx="1299.2703" cy="-18" rx="27.2447" ry="18"/>
<text text-anchor="middle" x="1299.2703" y="-13.8" font-family="Times,serif" font-size="14.00" fill="#000000">data</text>
</g>
<!-- compiler_stub&#45;&gt;data -->
<g id="edge1" class="edge">
<title>compiler_stub&#45;&gt;data</title>
<path fill="none" stroke="#000000" d="M1645.796,-80.0643C1562.2082,-65.0934 1406.2508,-37.1607 1335.6532,-24.5163"/>
<polygon fill="#000000" stroke="#000000" points="1335.9375,-21.0116 1325.477,-22.6937 1334.7033,-27.902 1335.9375,-21.0116"/>
</g>
<!-- core -->
<g id="node2" class="node">
<title>core</title>
<ellipse fill="#ffffff" stroke="#000000" cx="630.2703" cy="-162" rx="27.8073" ry="18"/>
<text text-anchor="middle" x="630.2703" y="-157.8" font-family="Times,serif" font-size="14.00" fill="#000000">core</text>
</g>
<!-- iface -->
<g id="node12" class="node">
<title>iface</title>
<ellipse fill="#ffffff" stroke="#000000" cx="464.2703" cy="-90" rx="29.5916" ry="18"/>
<text text-anchor="middle" x="464.2703" y="-85.8" font-family="Times,serif" font-size="14.00" fill="#000000">iface</text>
</g>
<!-- core&#45;&gt;iface -->
<g id="edge2" class="edge">
<title>core&#45;&gt;iface</title>
<path fill="none" stroke="#000000" d="M607.1887,-151.9887C578.8508,-139.6976 530.5599,-118.7521 498.0467,-104.65"/>
<polygon fill="#000000" stroke="#000000" points="499.0694,-101.2786 488.5025,-100.5104 496.284,-107.7006 499.0694,-101.2786"/>
</g>
<!-- defaults -->
<g id="node4" class="node">
<title>defaults</title>
<ellipse fill="#ffffff" stroke="#000000" cx="764.2703" cy="-378" rx="41.7095" ry="18"/>
<text text-anchor="middle" x="764.2703" y="-373.8" font-family="Times,serif" font-size="14.00" fill="#000000">defaults</text>
</g>
<!-- engine/gcc -->
<g id="node7" class="node">
<title>engine/gcc</title>
<ellipse fill="#ffffff" stroke="#000000" cx="984.2703" cy="-306" rx="52.7295" ry="18"/>
<text text-anchor="middle" x="984.2703" y="-301.8" font-family="Times,serif" font-size="14.00" fill="#000000">engine/gcc</text>
</g>
<!-- defaults&#45;&gt;engine/gcc -->
<g id="edge3" class="edge">
<title>defaults&#45;&gt;engine/gcc</title>
<path fill="none" stroke="#000000" d="M797.6835,-367.0647C834.6293,-354.9734 894.4581,-335.3931 936.3817,-321.6726"/>
<polygon fill="#000000" stroke="#000000" points="937.6831,-324.9295 946.0984,-318.4926 935.5058,-318.2767 937.6831,-324.9295"/>
</g>
<!-- engine/null -->
<g id="node8" class="node">
<title>engine/null</title>
<ellipse fill="#ffffff" stroke="#000000" cx="705.2703" cy="-234" rx="54.4739" ry="18"/>
<text text-anchor="middle" x="705.2703" y="-229.8" font-family="Times,serif" font-size="14.00" fill="#000000">engine/null</text>
</g>
<!-- defaults&#45;&gt;engine/null -->
<g id="edge4" class="edge">
<title>defaults&#45;&gt;engine/null</title>
<path fill="none" stroke="#000000" d="M757.8758,-359.9192C751.3086,-341.6377 740.6131,-312.6419 730.2703,-288 726.5519,-279.1409 722.2358,-269.592 718.2471,-261.0235"/>
<polygon fill="#000000" stroke="#000000" points="721.3572,-259.4127 713.932,-251.8551 715.0237,-262.3936 721.3572,-259.4127"/>
</g>
<!-- engine/templight -->
<g id="node9" class="node">
<title>engine/templight</title>
<ellipse fill="#ffffff" stroke="#000000" cx="645.2703" cy="-306" rx="76.4632" ry="18"/>
<text text-anchor="middle" x="645.2703" y="-301.8" font-family="Times,serif" font-size="14.00" fill="#000000">engine/templight</text>
</g>
<!-- defaults&#45;&gt;engine/templight -->
<g id="edge5" class="edge">
<title>defaults&#45;&gt;engine/templight</title>
<path fill="none" stroke="#000000" d="M739.9017,-363.256C723.2305,-353.1692 700.8265,-339.6138 682.0027,-328.2247"/>
<polygon fill="#000000" stroke="#000000" points="683.7333,-325.181 673.3656,-322.9989 680.1096,-331.1701 683.7333,-325.181"/>
</g>
<!-- engine/vc -->
<g id="node10" class="node">
<title>engine/vc</title>
<ellipse fill="#ffffff" stroke="#000000" cx="1203.2703" cy="-234" rx="48.6559" ry="18"/>
<text text-anchor="middle" x="1203.2703" y="-229.8" font-family="Times,serif" font-size="14.00" fill="#000000">engine/vc</text>
</g>
<!-- defaults&#45;&gt;engine/vc -->
<g id="edge6" class="edge">
<title>defaults&#45;&gt;engine/vc</title>
<path fill="none" stroke="#000000" d="M797.889,-367.3644C807.6101,-364.6116 818.2911,-361.8931 828.2703,-360 906.3916,-345.1802 1125.1115,-377.1301 1184.2703,-324 1201.1899,-308.8046 1205.165,-282.6651 1205.3613,-262.4595"/>
<polygon fill="#000000" stroke="#000000" points="1208.8562,-262.1652 1205.1543,-252.2382 1201.8576,-262.307 1208.8562,-262.1652"/>
</g>
<!-- engine/wave -->
<g id="node11" class="node">
<title>engine/wave</title>
<ellipse fill="#ffffff" stroke="#000000" cx="1115.2703" cy="-306" rx="59.6723" ry="18"/>
<text text-anchor="middle" x="1115.2703" y="-301.8" font-family="Times,serif" font-size="14.00" fill="#000000">engine/wave</text>
</g>
<!-- defaults&#45;&gt;engine/wave -->
<g id="edge7" class="edge">
<title>defaults&#45;&gt;engine/wave</title>
<path fill="none" stroke="#000000" d="M798.6366,-367.5811C808.1789,-364.8944 818.5809,-362.1557 828.2703,-360 924.1277,-338.6737 950.2147,-344.4154 1046.2703,-324 1051.0157,-322.9914 1055.9252,-321.8698 1060.8372,-320.6935"/>
<polygon fill="#000000" stroke="#000000" points="1061.9997,-324.0118 1070.8717,-318.2206 1060.3247,-317.2151 1061.9997,-324.0118"/>
</g>
<!-- pragma -->
<g id="node17" class="node">
<title>pragma</title>
<ellipse fill="#ffffff" stroke="#000000" cx="511.2703" cy="-306" rx="39.9876" ry="18"/>
<text text-anchor="middle" x="511.2703" y="-301.8" font-family="Times,serif" font-size="14.00" fill="#000000">pragma</text>
</g>
<!-- defaults&#45;&gt;pragma -->
<g id="edge8" class="edge">
<title>defaults&#45;&gt;pragma</title>
<path fill="none" stroke="#000000" d="M732.6129,-366.2299C726.2485,-364.0329 719.5774,-361.8491 713.2703,-360 646.235,-340.3463 627.1789,-344.0807 560.2703,-324 557.3271,-323.1167 554.304,-322.1516 551.2738,-321.1419"/>
<polygon fill="#000000" stroke="#000000" points="552.255,-317.7778 541.6602,-317.8105 549.9629,-324.3919 552.255,-317.7778"/>
</g>
<!-- engine/clang -->
<g id="node5" class="node">
<title>engine/clang</title>
<ellipse fill="#ffffff" stroke="#000000" cx="888.2703" cy="-234" rx="60.2537" ry="18"/>
<text text-anchor="middle" x="888.2703" y="-229.8" font-family="Times,serif" font-size="14.00" fill="#000000">engine/clang</text>
</g>
<!-- engine/clang&#45;&gt;core -->
<g id="edge9" class="edge">
<title>engine/clang&#45;&gt;core</title>
<path fill="none" stroke="#000000" d="M843.9185,-221.6228C793.5555,-207.568 712.3737,-184.9126 665.9313,-171.9519"/>
<polygon fill="#000000" stroke="#000000" points="666.5912,-168.5024 656.0184,-169.1855 664.7095,-175.2448 666.5912,-168.5024"/>
</g>
<!-- process -->
<g id="node18" class="node">
<title>process</title>
<ellipse fill="#ffffff" stroke="#000000" cx="1263.2703" cy="-162" rx="39.9857" ry="18"/>
<text text-anchor="middle" x="1263.2703" y="-157.8" font-family="Times,serif" font-size="14.00" fill="#000000">process</text>
</g>
<!-- engine/clang&#45;&gt;process -->
<g id="edge10" class="edge">
<title>engine/clang&#45;&gt;process</title>
<path fill="none" stroke="#000000" d="M939.2347,-224.2148C1012.2427,-210.1973 1145.5714,-184.5982 1216.3016,-171.018"/>
<polygon fill="#000000" stroke="#000000" points="1217.1077,-174.4272 1226.2684,-169.1044 1215.7878,-167.5528 1217.1077,-174.4272"/>
</g>
<!-- engine/constant -->
<g id="node6" class="node">
<title>engine/constant</title>
<ellipse fill="#ffffff" stroke="#000000" cx="174.2703" cy="-306" rx="71.7892" ry="18"/>
<text text-anchor="middle" x="174.2703" y="-301.8" font-family="Times,serif" font-size="14.00" fill="#000000">engine/constant</text>
</g>
<!-- engine/constant&#45;&gt;core -->
<g id="edge11" class="edge">
<title>engine/constant&#45;&gt;core</title>
<path fill="none" stroke="#000000" d="M214.9802,-290.9958C265.9356,-272.4271 356.0345,-240.2906 434.2703,-216 489.8133,-198.7551 555.0562,-181.338 594.5014,-171.1148"/>
<polygon fill="#000000" stroke="#000000" points="595.6246,-174.4397 604.4327,-168.5517 593.8753,-167.6618 595.6246,-174.4397"/>
</g>
<!-- engine/gcc&#45;&gt;engine/clang -->
<g id="edge12" class="edge">
<title>engine/gcc&#45;&gt;engine/clang</title>
<path fill="none" stroke="#000000" d="M962.0047,-289.3008C949.253,-279.737 933.061,-267.5931 919.1008,-257.1229"/>
<polygon fill="#000000" stroke="#000000" points="920.8477,-254.0581 910.7477,-250.8581 916.6477,-259.6581 920.8477,-254.0581"/>
</g>
<!-- engine/null&#45;&gt;core -->
<g id="edge13" class="edge">
<title>engine/null&#45;&gt;core</title>
<path fill="none" stroke="#000000" d="M687.4963,-216.937C677.2193,-207.071 664.179,-194.5524 653.143,-183.9578"/>
<polygon fill="#000000" stroke="#000000" points="655.5193,-181.3873 645.8815,-176.9868 650.6715,-186.437 655.5193,-181.3873"/>
</g>
<!-- engine/templight&#45;&gt;engine/clang -->
<g id="edge14" class="edge">
<title>engine/templight&#45;&gt;engine/clang</title>
<path fill="none" stroke="#000000" d="M692.9893,-291.861C734.023,-279.7029 793.1262,-262.1908 835.5484,-249.6213"/>
<polygon fill="#000000" stroke="#000000" points="836.5481,-252.9756 845.1417,-246.7788 834.5594,-246.264 836.5481,-252.9756"/>
</g>
<!-- engine/vc&#45;&gt;core -->
<g id="edge15" class="edge">
<title>engine/vc&#45;&gt;core</title>
<path fill="none" stroke="#000000" d="M1156.8646,-228.1689C1046.216,-214.2654 768.5999,-179.3817 667.6843,-166.7012"/>
<polygon fill="#000000" stroke="#000000" points="668.0079,-163.2145 657.6495,-165.4403 667.1351,-170.1598 668.0079,-163.2145"/>
</g>
<!-- engine/vc&#45;&gt;process -->
<g id="edge16" class="edge">
<title>engine/vc&#45;&gt;process</title>
<path fill="none" stroke="#000000" d="M1217.7946,-216.5708C1225.1645,-207.7269 1234.2504,-196.8239 1242.3582,-187.0945"/>
<polygon fill="#000000" stroke="#000000" points="1245.1666,-189.1916 1248.8797,-179.2687 1239.789,-184.7103 1245.1666,-189.1916"/>
</g>
<!-- engine/wave&#45;&gt;engine/clang -->
<g id="edge17" class="edge">
<title>engine/wave&#45;&gt;engine/clang</title>
<path fill="none" stroke="#000000" d="M1073.8989,-292.8778C1036.0944,-280.8869 980.0607,-263.1141 939.4519,-250.2338"/>
<polygon fill="#000000" stroke="#000000" points="940.3308,-246.8408 929.7405,-247.1536 938.2143,-253.5132 940.3308,-246.8408"/>
</g>
<!-- iface&#45;&gt;data -->
<g id="edge18" class="edge">
<title>iface&#45;&gt;data</title>
<path fill="none" stroke="#000000" d="M493.9884,-87.4375C621.2615,-76.463 1120.2958,-33.4325 1261.7261,-21.2373"/>
<polygon fill="#000000" stroke="#000000" points="1262.3764,-24.6943 1272.0387,-20.3481 1261.775,-17.7202 1262.3764,-24.6943"/>
</g>
<!-- main_shell -->
<g id="node13" class="node">
<title>main_shell</title>
<ellipse fill="#ffffff" stroke="#000000" cx="400.2703" cy="-306" rx="53.3283" ry="18"/>
<text text-anchor="middle" x="400.2703" y="-301.8" font-family="Times,serif" font-size="14.00" fill="#000000">main_shell</text>
</g>
<!-- main_shell&#45;&gt;core -->
<g id="edge19" class="edge">
<title>main_shell&#45;&gt;core</title>
<path fill="none" stroke="#000000" d="M410.6026,-288.2882C423.2235,-268.1049 446.3756,-235.411 474.2703,-216 510.7263,-190.6314 560.2106,-176.1884 593.5909,-168.7396"/>
<polygon fill="#000000" stroke="#000000" points="594.3506,-172.1564 603.401,-166.6481 592.891,-165.3102 594.3506,-172.1564"/>
</g>
<!-- mdb -->
<g id="node14" class="node">
<title>mdb</title>
<ellipse fill="#ffffff" stroke="#000000" cx="511.2703" cy="-234" rx="28.4127" ry="18"/>
<text text-anchor="middle" x="511.2703" y="-229.8" font-family="Times,serif" font-size="14.00" fill="#000000">mdb</text>
</g>
<!-- mdb&#45;&gt;core -->
<g id="edge20" class="edge">
<title>mdb&#45;&gt;core</title>
<path fill="none" stroke="#000000" d="M531.9985,-221.4586C551.1099,-209.8953 579.6739,-192.6129 601.0882,-179.6564"/>
<polygon fill="#000000" stroke="#000000" points="603.0356,-182.569 609.7796,-174.3977 599.4119,-176.5799 603.0356,-182.569"/>
</g>
<!-- mock -->
<g id="node15" class="node">
<title>mock</title>
<ellipse fill="#ffffff" stroke="#000000" cx="296.2703" cy="-306" rx="32.4846" ry="18"/>
<text text-anchor="middle" x="296.2703" y="-301.8" font-family="Times,serif" font-size="14.00" fill="#000000">mock</text>
</g>
<!-- mock&#45;&gt;iface -->
<g id="edge21" class="edge">
<title>mock&#45;&gt;iface</title>
<path fill="none" stroke="#000000" d="M309.174,-289.4095C338.6244,-251.5446 410.9026,-158.6156 445.3792,-114.2885"/>
<polygon fill="#000000" stroke="#000000" points="448.1758,-116.3937 451.5526,-106.3514 442.6504,-112.0961 448.1758,-116.3937"/>
</g>
<!-- pattern -->
<g id="node16" class="node">
<title>pattern</title>
<ellipse fill="#ffffff" stroke="#000000" cx="1480.2703" cy="-162" rx="37.6986" ry="18"/>
<text text-anchor="middle" x="1480.2703" y="-157.8" font-family="Times,serif" font-size="14.00" fill="#000000">pattern</text>
</g>
<!-- pragma&#45;&gt;mdb -->
<g id="edge22" class="edge">
<title>pragma&#45;&gt;mdb</title>
<path fill="none" stroke="#000000" d="M511.2703,-287.8314C511.2703,-280.131 511.2703,-270.9743 511.2703,-262.4166"/>
<polygon fill="#000000" stroke="#000000" points="514.7704,-262.4132 511.2703,-252.4133 507.7704,-262.4133 514.7704,-262.4132"/>
</g>
<!-- process&#45;&gt;data -->
<g id="edge23" class="edge">
<title>process&#45;&gt;data</title>
<path fill="none" stroke="#000000" d="M1266.5471,-143.9501C1269.9863,-125.6925 1275.7875,-96.7149 1282.2703,-72 1284.5396,-63.3486 1287.3436,-54.0245 1290.0155,-45.5991"/>
<polygon fill="#000000" stroke="#000000" points="1293.4139,-46.4652 1293.1642,-35.8733 1286.7542,-44.3091 1293.4139,-46.4652"/>
</g>
<!-- readline -->
<g id="node19" class="node">
<title>readline</title>
<ellipse fill="#ffffff" stroke="#000000" cx="80.2703" cy="-234" rx="42.2719" ry="18"/>
<text text-anchor="middle" x="80.2703" y="-229.8" font-family="Times,serif" font-size="14.00" fill="#000000">readline</text>
</g>
<!-- readline&#45;&gt;iface -->
<g id="edge24" class="edge">
<title>readline&#45;&gt;iface</title>
<path fill="none" stroke="#000000" d="M109.2093,-220.7481C149.8626,-202.3682 226.4029,-168.6232 293.2703,-144 338.8721,-127.2076 392.4376,-110.8171 427.3016,-100.5814"/>
<polygon fill="#000000" stroke="#000000" points="428.4346,-103.8969 437.0538,-97.7357 426.4737,-97.1771 428.4346,-103.8969"/>
</g>
<!-- replace_part -->
<g id="node20" class="node">
<title>replace_part</title>
<ellipse fill="#ffffff" stroke="#000000" cx="896.2703" cy="-378" rx="58.5059" ry="18"/>
<text text-anchor="middle" x="896.2703" y="-373.8" font-family="Times,serif" font-size="14.00" fill="#000000">replace_part</text>
</g>
<!-- system_test -->
<g id="node21" class="node">
<title>system_test</title>
<ellipse fill="#ffffff" stroke="#000000" cx="1541.2703" cy="-234" rx="56.1937" ry="18"/>
<text text-anchor="middle" x="1541.2703" y="-229.8" font-family="Times,serif" font-size="14.00" fill="#000000">system_test</text>
</g>
<!-- system_test&#45;&gt;pattern -->
<g id="edge25" class="edge">
<title>system_test&#45;&gt;pattern</title>
<path fill="none" stroke="#000000" d="M1526.5039,-216.5708C1518.9009,-207.5968 1509.5018,-196.5028 1501.1678,-186.666"/>
<polygon fill="#000000" stroke="#000000" points="1503.6153,-184.1403 1494.4807,-178.7729 1498.2744,-188.6652 1503.6153,-184.1403"/>
</g>
<!-- system_test&#45;&gt;process -->
<g id="edge26" class="edge">
<title>system_test&#45;&gt;process</title>
<path fill="none" stroke="#000000" d="M1497.527,-222.6708C1445.7773,-209.268 1360.0868,-187.0748 1307.9373,-173.5684"/>
<polygon fill="#000000" stroke="#000000" points="1308.5327,-170.1072 1297.9745,-170.9882 1306.7776,-176.8836 1308.5327,-170.1072"/>
</g>
<!-- app/metashell -->
<g id="node22" class="node">
<title>app/metashell</title>
<polygon fill="none" stroke="#000000" points="563.0266,-468 469.514,-468 469.514,-432 563.0266,-432 563.0266,-468"/>
<text text-anchor="middle" x="516.2703" y="-445.8" font-family="Times,serif" font-size="14.00" fill="#000000">app/metashell</text>
</g>
<!-- app/metashell&#45;&gt;defaults -->
<g id="edge27" class="edge">
<title>app/metashell&#45;&gt;defaults</title>
<path fill="none" stroke="#000000" d="M563.1152,-438.1706C603.2034,-427.8067 662.3364,-411.9466 713.2703,-396 716.3617,-395.0321 719.5461,-393.9982 722.7423,-392.9337"/>
<polygon fill="#000000" stroke="#000000" points="723.9476,-396.2206 732.2852,-389.6833 721.6907,-389.5944 723.9476,-396.2206"/>
</g>
<!-- app/metashell&#45;&gt;main_shell -->
<g id="edge28" class="edge">
<title>app/metashell&#45;&gt;main_shell</title>
<path fill="none" stroke="#000000" d="M516.6951,-431.6504C516.2405,-412.0857 512.8147,-381.0778 497.2703,-360 484.9958,-343.3562 465.9707,-331.1781 448.0099,-322.6461"/>
<polygon fill="#000000" stroke="#000000" points="449.3139,-319.3953 438.7559,-318.5124 446.4589,-325.7866 449.3139,-319.3953"/>
</g>
<!-- app/metashell&#45;&gt;readline -->
<g id="edge29" class="edge">
<title>app/metashell&#45;&gt;readline</title>
<path fill="none" stroke="#000000" d="M469.2275,-448.4595C350.0364,-444.0745 43.4619,-429.6064 13.2703,-396 -23.0726,-355.5467 23.9539,-292.6461 55.6781,-258.3388"/>
<polygon fill="#000000" stroke="#000000" points="58.6159,-260.3277 62.9621,-250.6653 53.539,-255.5084 58.6159,-260.3277"/>
</g>
<!-- app/reference_gen -->
<g id="node23" class="node">
<title>app/reference_gen</title>
<polygon fill="none" stroke="#000000" points="824.1455,-468 704.3951,-468 704.3951,-432 824.1455,-432 824.1455,-468"/>
<text text-anchor="middle" x="764.2703" y="-445.8" font-family="Times,serif" font-size="14.00" fill="#000000">app/reference_gen</text>
</g>
<!-- app/reference_gen&#45;&gt;defaults -->
<g id="edge30" class="edge">
<title>app/reference_gen&#45;&gt;defaults</title>
<path fill="none" stroke="#000000" d="M764.2703,-431.8314C764.2703,-424.131 764.2703,-414.9743 764.2703,-406.4166"/>
<polygon fill="#000000" stroke="#000000" points="767.7704,-406.4132 764.2703,-396.4133 760.7704,-406.4133 767.7704,-406.4132"/>
</g>
<!-- app/reference_gen&#45;&gt;replace_part -->
<g id="edge31" class="edge">
<title>app/reference_gen&#45;&gt;replace_part</title>
<path fill="none" stroke="#000000" d="M797.5794,-431.8314C816.1725,-421.6897 839.3964,-409.0221 858.6439,-398.5235"/>
<polygon fill="#000000" stroke="#000000" points="860.3523,-401.5785 867.4552,-393.7173 857.0003,-395.4332 860.3523,-401.5785"/>
</g>
<!-- app/stub/cl_de -->
<g id="node24" class="node">
<title>app/stub/cl_de</title>
<polygon fill="none" stroke="#000000" points="1969.9217,-180 1872.6189,-180 1872.6189,-144 1969.9217,-144 1969.9217,-180"/>
<text text-anchor="middle" x="1921.2703" y="-157.8" font-family="Times,serif" font-size="14.00" fill="#000000">app/stub/cl_de</text>
</g>
<!-- app/stub/cl_de&#45;&gt;compiler_stub -->
<g id="edge32" class="edge">
<title>app/stub/cl_de&#45;&gt;compiler_stub</title>
<path fill="none" stroke="#000000" d="M1872.4451,-146.0209C1837.1534,-134.4708 1789.5432,-118.8893 1753.4934,-107.0912"/>
<polygon fill="#000000" stroke="#000000" points="1754.2445,-103.6544 1743.6518,-103.8703 1752.0672,-110.3072 1754.2445,-103.6544"/>
</g>
<!-- app/stub/cl_en -->
<g id="node25" class="node">
<title>app/stub/cl_en</title>
<polygon fill="none" stroke="#000000" points="1633.9217,-180 1536.6189,-180 1536.6189,-144 1633.9217,-144 1633.9217,-180"/>
<text text-anchor="middle" x="1585.2703" y="-157.8" font-family="Times,serif" font-size="14.00" fill="#000000">app/stub/cl_en</text>
</g>
<!-- app/stub/cl_en&#45;&gt;compiler_stub -->
<g id="edge33" class="edge">
<title>app/stub/cl_en&#45;&gt;compiler_stub</title>
<path fill="none" stroke="#000000" d="M1614.542,-143.8314C1630.0586,-134.2003 1649.2453,-122.2913 1665.6241,-112.1252"/>
<polygon fill="#000000" stroke="#000000" points="1667.7427,-114.9296 1674.3934,-106.6822 1664.0512,-108.9822 1667.7427,-114.9296"/>
</g>
<!-- app/stub/clang -->
<g id="node26" class="node">
<title>app/stub/clang</title>
<polygon fill="none" stroke="#000000" points="1749.9217,-180 1652.6189,-180 1652.6189,-144 1749.9217,-144 1749.9217,-180"/>
<text text-anchor="middle" x="1701.2703" y="-157.8" font-family="Times,serif" font-size="14.00" fill="#000000">app/stub/clang</text>
</g>
<!-- app/stub/clang&#45;&gt;compiler_stub -->
<g id="edge34" class="edge">
<title>app/stub/clang&#45;&gt;compiler_stub</title>
<path fill="none" stroke="#000000" d="M1701.2703,-143.8314C1701.2703,-136.131 1701.2703,-126.9743 1701.2703,-118.4166"/>
<polygon fill="#000000" stroke="#000000" points="1704.7704,-118.4132 1701.2703,-108.4133 1697.7704,-118.4133 1704.7704,-118.4132"/>
</g>
<!-- app/stub/gcc -->
<g id="node27" class="node">
<title>app/stub/gcc</title>
<polygon fill="none" stroke="#000000" points="1854.5308,-180 1768.0097,-180 1768.0097,-144 1854.5308,-144 1854.5308,-180"/>
<text text-anchor="middle" x="1811.2703" y="-157.8" font-family="Times,serif" font-size="14.00" fill="#000000">app/stub/gcc</text>
</g>
<!-- app/stub/gcc&#45;&gt;compiler_stub -->
<g id="edge35" class="edge">
<title>app/stub/gcc&#45;&gt;compiler_stub</title>
<path fill="none" stroke="#000000" d="M1783.5126,-143.8314C1768.9348,-134.2895 1750.9409,-122.5117 1735.5048,-112.4081"/>
<polygon fill="#000000" stroke="#000000" points="1737.0409,-109.2304 1726.757,-106.6822 1733.2072,-115.0873 1737.0409,-109.2304"/>
</g>
<!-- test/system/auto_engine -->
<g id="node28" class="node">
<title>test/system/auto_engine</title>
<polygon fill="none" stroke="#000000" points="1458.3026,-252 1308.2379,-252 1308.2379,-216 1458.3026,-216 1458.3026,-252"/>
<text text-anchor="middle" x="1383.2703" y="-229.8" font-family="Times,serif" font-size="14.00" fill="#000000">test/system/auto_engine</text>
</g>
<!-- test/system/auto_engine&#45;&gt;process -->
<g id="edge36" class="edge">
<title>test/system/auto_engine&#45;&gt;process</title>
<path fill="none" stroke="#000000" d="M1352.9892,-215.8314C1335.7246,-205.4726 1314.068,-192.4786 1296.3575,-181.8523"/>
<polygon fill="#000000" stroke="#000000" points="1297.8756,-178.6815 1287.4999,-176.5378 1294.2741,-184.684 1297.8756,-178.6815"/>
</g>
<!-- test/system/core -->
<g id="node29" class="node">
<title>test/system/core</title>
<polygon fill="none" stroke="#000000" points="1475.4669,-324 1369.0737,-324 1369.0737,-288 1475.4669,-288 1475.4669,-324"/>
<text text-anchor="middle" x="1422.2703" y="-301.8" font-family="Times,serif" font-size="14.00" fill="#000000">test/system/core</text>
</g>
<!-- test/system/core&#45;&gt;core -->
<g id="edge37" class="edge">
<title>test/system/core&#45;&gt;core</title>
<path fill="none" stroke="#000000" d="M1370.5618,-287.919C1347.7645,-278.8043 1321.2263,-266.575 1299.2703,-252 1279.8877,-239.1333 1282.495,-225.5261 1261.2703,-216 1207.182,-191.724 796.3204,-170.0224 668.2612,-163.7896"/>
<polygon fill="#000000" stroke="#000000" points="668.303,-160.2876 658.1458,-163.3009 667.9652,-167.2794 668.303,-160.2876"/>
</g>
<!-- test/system/core&#45;&gt;system_test -->
<g id="edge38" class="edge">
<title>test/system/core&#45;&gt;system_test</title>
<path fill="none" stroke="#000000" d="M1452.299,-287.8314C1468.7162,-277.8983 1489.1381,-265.5422 1506.2742,-255.1741"/>
<polygon fill="#000000" stroke="#000000" points="1508.1532,-258.128 1514.8972,-249.9568 1504.5295,-252.1389 1508.1532,-258.128"/>
</g>
<!-- test/system/mdb -->
<g id="node30" class="node">
<title>test/system/mdb</title>
<polygon fill="none" stroke="#000000" points="1862.7675,-324 1755.7731,-324 1755.7731,-288 1862.7675,-288 1862.7675,-324"/>
<text text-anchor="middle" x="1809.2703" y="-301.8" font-family="Times,serif" font-size="14.00" fill="#000000">test/system/mdb</text>
</g>
<!-- test/system/mdb&#45;&gt;system_test -->
<g id="edge39" class="edge">
<title>test/system/mdb&#45;&gt;system_test</title>
<path fill="none" stroke="#000000" d="M1755.6752,-290.6054C1752.4949,-289.7173 1749.3417,-288.8432 1746.2703,-288 1695.1214,-273.958 1636.5929,-258.6123 1595.2039,-247.881"/>
<polygon fill="#000000" stroke="#000000" points="1595.8874,-244.4427 1585.3293,-245.324 1594.1326,-251.2191 1595.8874,-244.4427"/>
</g>
<!-- test/system/pdb -->
<g id="node31" class="node">
<title>test/system/pdb</title>
<polygon fill="none" stroke="#000000" points="1983.8769,-324 1880.6636,-324 1880.6636,-288 1983.8769,-288 1983.8769,-324"/>
<text text-anchor="middle" x="1932.2703" y="-301.8" font-family="Times,serif" font-size="14.00" fill="#000000">test/system/pdb</text>
</g>
<!-- test/system/pdb&#45;&gt;system_test -->
<g id="edge40" class="edge">
<title>test/system/pdb&#45;&gt;system_test</title>
<path fill="none" stroke="#000000" d="M1880.4722,-290.2372C1877.3688,-289.4417 1874.2843,-288.6885 1871.2703,-288 1778.9476,-266.9115 1670.2905,-250.7726 1603.6024,-241.8382"/>
<polygon fill="#000000" stroke="#000000" points="1604.0456,-238.3664 1593.6719,-240.5195 1603.1241,-245.3055 1604.0456,-238.3664"/>
</g>
<!-- test/system/pp -->
<g id="node32" class="node">
<title>test/system/pp</title>
<polygon fill="none" stroke="#000000" points="1589.3769,-324 1493.1636,-324 1493.1636,-288 1589.3769,-288 1589.3769,-324"/>
<text text-anchor="middle" x="1541.2703" y="-301.8" font-family="Times,serif" font-size="14.00" fill="#000000">test/system/pp</text>
</g>
<!-- test/system/pp&#45;&gt;system_test -->
<g id="edge41" class="edge">
<title>test/system/pp&#45;&gt;system_test</title>
<path fill="none" stroke="#000000" d="M1541.2703,-287.8314C1541.2703,-280.131 1541.2703,-270.9743 1541.2703,-262.4166"/>
<polygon fill="#000000" stroke="#000000" points="1544.7704,-262.4132 1541.2703,-252.4133 1537.7704,-262.4133 1544.7704,-262.4132"/>
</g>
<!-- test/unit/core -->
<g id="node33" class="node">
<title>test/unit/core</title>
<polygon fill="none" stroke="#000000" points="218.8629,-396 129.6776,-396 129.6776,-360 218.8629,-360 218.8629,-396"/>
<text text-anchor="middle" x="174.2703" y="-373.8" font-family="Times,serif" font-size="14.00" fill="#000000">test/unit/core</text>
</g>
<!-- test/unit/core&#45;&gt;engine/constant -->
<g id="edge42" class="edge">
<title>test/unit/core&#45;&gt;engine/constant</title>
<path fill="none" stroke="#000000" d="M174.2703,-359.8314C174.2703,-352.131 174.2703,-342.9743 174.2703,-334.4166"/>
<polygon fill="#000000" stroke="#000000" points="177.7704,-334.4132 174.2703,-324.4133 170.7704,-334.4133 177.7704,-334.4132"/>
</g>
<!-- test/unit/core&#45;&gt;mock -->
<g id="edge43" class="edge">
<title>test/unit/core&#45;&gt;mock</title>
<path fill="none" stroke="#000000" d="M205.056,-359.8314C223.4974,-348.9479 246.8676,-335.1557 265.3354,-324.2566"/>
<polygon fill="#000000" stroke="#000000" points="267.1314,-327.2608 273.9646,-319.164 263.5736,-321.2324 267.1314,-327.2608"/>
</g>
<!-- test/unit/data -->
<g id="node34" class="node">
<title>test/unit/data</title>
<polygon fill="none" stroke="#000000" points="1379.5935,-108 1290.9471,-108 1290.9471,-72 1379.5935,-72 1379.5935,-108"/>
<text text-anchor="middle" x="1335.2703" y="-85.8" font-family="Times,serif" font-size="14.00" fill="#000000">test/unit/data</text>
</g>
<!-- test/unit/data&#45;&gt;data -->
<g id="edge44" class="edge">
<title>test/unit/data&#45;&gt;data</title>
<path fill="none" stroke="#000000" d="M1326.186,-71.8314C1322.0428,-63.5451 1317.0566,-53.5727 1312.5077,-44.4748"/>
<polygon fill="#000000" stroke="#000000" points="1315.5818,-42.7967 1307.9791,-35.4177 1309.3208,-45.9273 1315.5818,-42.7967"/>
</g>
<!-- test/unit/engine/clang -->
<g id="node35" class="node">
<title>test/unit/engine/clang</title>
<polygon fill="none" stroke="#000000" points="913.3041,-324 777.2365,-324 777.2365,-288 913.3041,-288 913.3041,-324"/>
<text text-anchor="middle" x="845.2703" y="-301.8" font-family="Times,serif" font-size="14.00" fill="#000000">test/unit/engine/clang</text>
</g>
<!-- test/unit/engine/clang&#45;&gt;engine/clang -->
<g id="edge45" class="edge">
<title>test/unit/engine/clang&#45;&gt;engine/clang</title>
<path fill="none" stroke="#000000" d="M856.121,-287.8314C861.0472,-279.5829 866.9712,-269.6635 872.3846,-260.5992"/>
<polygon fill="#000000" stroke="#000000" points="875.4494,-262.2935 877.572,-251.9134 869.4396,-258.7042 875.4494,-262.2935"/>
</g>
<!-- test/unit/engine/templight -->
<g id="node36" class="node">
<title>test/unit/engine/templight</title>
<polygon fill="none" stroke="#000000" points="704.1511,-396 544.3894,-396 544.3894,-360 704.1511,-360 704.1511,-396"/>
<text text-anchor="middle" x="624.2703" y="-373.8" font-family="Times,serif" font-size="14.00" fill="#000000">test/unit/engine/templight</text>
</g>
<!-- test/unit/engine/templight&#45;&gt;engine/templight -->
<g id="edge46" class="edge">
<title>test/unit/engine/templight&#45;&gt;engine/templight</title>
<path fill="none" stroke="#000000" d="M629.5695,-359.8314C631.8401,-352.0463 634.5448,-342.7729 637.0643,-334.1347"/>
<polygon fill="#000000" stroke="#000000" points="640.4597,-334.9933 639.8997,-324.4133 633.7397,-333.0332 640.4597,-334.9933"/>
</g>
<!-- test/unit/engine/templight&#45;&gt;mock -->
<g id="edge47" class="edge">
<title>test/unit/engine/templight&#45;&gt;mock</title>
<path fill="none" stroke="#000000" d="M544.362,-364.9191C473.614,-352.9706 375.9121,-335.469 338.2703,-324 335.8134,-323.2514 333.3063,-322.4043 330.8009,-321.4956"/>
<polygon fill="#000000" stroke="#000000" points="331.844,-318.1454 321.256,-317.763 329.2945,-324.6647 331.844,-318.1454"/>
</g>
<!-- test/unit/engine/vc -->
<g id="node37" class="node">
<title>test/unit/engine/vc</title>
<polygon fill="none" stroke="#000000" points="1351.1988,-324 1231.3417,-324 1231.3417,-288 1351.1988,-288 1351.1988,-324"/>
<text text-anchor="middle" x="1291.2703" y="-301.8" font-family="Times,serif" font-size="14.00" fill="#000000">test/unit/engine/vc</text>
</g>
<!-- test/unit/engine/vc&#45;&gt;engine/vc -->
<g id="edge48" class="edge">
<title>test/unit/engine/vc&#45;&gt;engine/vc</title>
<path fill="none" stroke="#000000" d="M1269.0642,-287.8314C1257.6461,-278.4893 1243.6085,-267.004 1231.4364,-257.045"/>
<polygon fill="#000000" stroke="#000000" points="1233.3187,-254.0628 1223.3627,-250.4393 1228.886,-259.4805 1233.3187,-254.0628"/>
</g>
<!-- test/unit/main_shell -->
<g id="node38" class="node">
<title>test/unit/main_shell</title>
<polygon fill="none" stroke="#000000" points="363.71,-396 236.8305,-396 236.8305,-360 363.71,-360 363.71,-396"/>
<text text-anchor="middle" x="300.2703" y="-373.8" font-family="Times,serif" font-size="14.00" fill="#000000">test/unit/main_shell</text>
</g>
<!-- test/unit/main_shell&#45;&gt;engine/constant -->
<g id="edge49" class="edge">
<title>test/unit/main_shell&#45;&gt;engine/constant</title>
<path fill="none" stroke="#000000" d="M268.4752,-359.8314C251.4648,-350.1111 230.3939,-338.0706 212.496,-327.8433"/>
<polygon fill="#000000" stroke="#000000" points="213.8831,-324.6048 203.4642,-322.6822 210.4101,-330.6825 213.8831,-324.6048"/>
</g>
<!-- test/unit/main_shell&#45;&gt;main_shell -->
<g id="edge50" class="edge">
<title>test/unit/main_shell&#45;&gt;main_shell</title>
<path fill="none" stroke="#000000" d="M325.5045,-359.8314C338.7291,-350.3097 355.046,-338.5615 369.0589,-328.4722"/>
<polygon fill="#000000" stroke="#000000" points="371.3677,-331.1227 377.4379,-322.4393 367.2775,-325.442 371.3677,-331.1227"/>
</g>
<!-- test/unit/main_shell&#45;&gt;mock -->
<g id="edge51" class="edge">
<title>test/unit/main_shell&#45;&gt;mock</title>
<path fill="none" stroke="#000000" d="M299.2609,-359.8314C298.8331,-352.131 298.3244,-342.9743 297.849,-334.4166"/>
<polygon fill="#000000" stroke="#000000" points="301.3426,-334.2037 297.2932,-324.4133 294.3534,-334.592 301.3426,-334.2037"/>
</g>
<!-- test/unit/mdb -->
<g id="node39" class="node">
<title>test/unit/mdb</title>
<polygon fill="none" stroke="#000000" points="112.1637,-396 22.3768,-396 22.3768,-360 112.1637,-360 112.1637,-396"/>
<text text-anchor="middle" x="67.2703" y="-373.8" font-family="Times,serif" font-size="14.00" fill="#000000">test/unit/mdb</text>
</g>
<!-- test/unit/mdb&#45;&gt;engine/constant -->
<g id="edge52" class="edge">
<title>test/unit/mdb&#45;&gt;engine/constant</title>
<path fill="none" stroke="#000000" d="M94.2709,-359.8314C108.3477,-350.3591 125.6989,-338.6835 140.6402,-328.6296"/>
<polygon fill="#000000" stroke="#000000" points="142.7733,-331.4129 149.1159,-322.9263 138.8654,-325.6053 142.7733,-331.4129"/>
</g>
<!-- test/unit/mdb&#45;&gt;mdb -->
<g id="edge53" class="edge">
<title>test/unit/mdb&#45;&gt;mdb</title>
<path fill="none" stroke="#000000" d="M67.0233,-359.7135C67.8153,-338.9904 72.5318,-305.79 93.2703,-288 121.8715,-263.4651 375.0927,-243.4507 472.9276,-236.5679"/>
<polygon fill="#000000" stroke="#000000" points="473.2518,-240.0539 482.9848,-235.8682 472.7659,-233.0707 473.2518,-240.0539"/>
</g>
<!-- test/unit/pragma -->
<g id="node40" class="node">
<title>test/unit/pragma</title>
<polygon fill="none" stroke="#000000" points="488.7535,-396 381.7871,-396 381.7871,-360 488.7535,-360 488.7535,-396"/>
<text text-anchor="middle" x="435.2703" y="-373.8" font-family="Times,serif" font-size="14.00" fill="#000000">test/unit/pragma</text>
</g>
<!-- test/unit/pragma&#45;&gt;engine/constant -->
<g id="edge54" class="edge">
<title>test/unit/pragma&#45;&gt;engine/constant</title>
<path fill="none" stroke="#000000" d="M381.6665,-362.6371C378.4883,-361.741 375.338,-360.8565 372.2703,-360 325.606,-346.9709 272.6523,-332.5478 233.256,-321.8875"/>
<polygon fill="#000000" stroke="#000000" points="234.1111,-318.4931 223.5442,-319.2615 232.2839,-325.2505 234.1111,-318.4931"/>
</g>
<!-- test/unit/pragma&#45;&gt;main_shell -->
<g id="edge55" class="edge">
<title>test/unit/pragma&#45;&gt;main_shell</title>
<path fill="none" stroke="#000000" d="M426.4383,-359.8314C422.5122,-351.7547 417.8073,-342.0761 413.4764,-333.1668"/>
<polygon fill="#000000" stroke="#000000" points="416.498,-331.3769 408.9782,-323.9134 410.2024,-334.4373 416.498,-331.3769"/>
</g>
<!-- test/unit/pragma&#45;&gt;mock -->
<g id="edge56" class="edge">
<title>test/unit/pragma&#45;&gt;mock</title>
<path fill="none" stroke="#000000" d="M400.1947,-359.8314C378.4768,-348.5818 350.759,-334.2244 329.4115,-323.1667"/>
<polygon fill="#000000" stroke="#000000" points="330.8822,-319.9869 320.3929,-318.4952 327.6626,-326.2025 330.8822,-319.9869"/>
</g>
<!-- test/unit/pragma&#45;&gt;pragma -->
<g id="edge57" class="edge">
<title>test/unit/pragma&#45;&gt;pragma</title>
<path fill="none" stroke="#000000" d="M454.4483,-359.8314C464.2145,-350.5792 476.1998,-339.2247 486.6413,-329.3327"/>
<polygon fill="#000000" stroke="#000000" points="489.0653,-331.8576 493.9177,-322.4393 484.251,-326.7759 489.0653,-331.8576"/>
</g>
<!-- test/unit/replace_part -->
<g id="node41" class="node">
<title>test/unit/replace_part</title>
<polygon fill="none" stroke="#000000" points="976.4486,-468 842.092,-468 842.092,-432 976.4486,-432 976.4486,-468"/>
<text text-anchor="middle" x="909.2703" y="-445.8" font-family="Times,serif" font-size="14.00" fill="#000000">test/unit/replace_part</text>
</g>
<!-- test/unit/replace_part&#45;&gt;replace_part -->
<g id="edge58" class="edge">
<title>test/unit/replace_part&#45;&gt;replace_part</title>
<path fill="none" stroke="#000000" d="M905.9898,-431.8314C904.5995,-424.131 902.9462,-414.9743 901.4011,-406.4166"/>
<polygon fill="#000000" stroke="#000000" points="904.8161,-405.6322 899.5949,-396.4133 897.9275,-406.8761 904.8161,-405.6322"/>
</g>
<!-- test/unit/system_test -->
<g id="node42" class="node">
<title>test/unit/system_test</title>
<polygon fill="none" stroke="#000000" points="1737.5989,-324 1606.9417,-324 1606.9417,-288 1737.5989,-288 1737.5989,-324"/>
<text text-anchor="middle" x="1672.2703" y="-301.8" font-family="Times,serif" font-size="14.00" fill="#000000">test/unit/system_test</text>
</g>
<!-- test/unit/system_test&#45;&gt;system_test -->
<g id="edge59" class="edge">
<title>test/unit/system_test&#45;&gt;system_test</title>
<path fill="none" stroke="#000000" d="M1639.2134,-287.8314C1620.8447,-277.7356 1597.9217,-265.1367 1578.8711,-254.6661"/>
<polygon fill="#000000" stroke="#000000" points="1580.3164,-251.4667 1569.867,-249.7173 1576.9448,-257.6012 1580.3164,-251.4667"/>
</g>
</g>
</svg>
