<?xml version="1.0" encoding="UTF-8" standalone="no"?>
<!DOCTYPE svg PUBLIC "-//W3C//DTD SVG 1.1//EN"
 "http://www.w3.org/Graphics/SVG/1.1/DTD/svg11.dtd">
<!-- Generated by graphviz version 2.40.1
 -->
<!-- Title: %3 Pages: 1 -->
<svg width="1912pt" height="476pt"
 viewBox="0.00 0.00 1912.09 476.00" xmlns="http://www.w3.org/2000/svg" xmlns:xlink="http://www.w3.org/1999/xlink">
<g id="graph0" class="graph" transform="scale(1 1) rotate(0) translate(4 472)">
<title>%3</title>
<polygon fill="#ffffff" stroke="transparent" points="-4,4 -4,-472 1908.0891,-472 1908.0891,4 -4,4"/>
<!-- core -->
<g id="node1" class="node">
<title>core</title>
<ellipse fill="#ffffff" stroke="#000000" cx="758" cy="-162" rx="27.8073" ry="18"/>
<text text-anchor="middle" x="758" y="-157.8" font-family="Times,serif" font-size="14.00" fill="#000000">core</text>
</g>
<!-- data -->
<g id="node2" class="node">
<title>data</title>
<ellipse fill="#ffffff" stroke="#000000" cx="508" cy="-18" rx="27.2447" ry="18"/>
<text text-anchor="middle" x="508" y="-13.8" font-family="Times,serif" font-size="14.00" fill="#000000">data</text>
</g>
<!-- core&#45;&gt;data -->
<g id="edge1" class="edge">
<title>core&#45;&gt;data</title>
<path fill="none" stroke="#000000" d="M747.1263,-145.2746C733.1906,-125.1106 707.1927,-91.5075 677,-72 635.7926,-45.376 580.4411,-30.978 544.4974,-23.8989"/>
<polygon fill="#000000" stroke="#000000" points="544.9271,-20.4184 534.4528,-22.0117 543.6345,-27.2981 544.9271,-20.4184"/>
</g>
<!-- iface -->
<g id="node5" class="node">
<title>iface</title>
<ellipse fill="#ffffff" stroke="#000000" cx="537" cy="-90" rx="29.5916" ry="18"/>
<text text-anchor="middle" x="537" y="-85.8" font-family="Times,serif" font-size="14.00" fill="#000000">iface</text>
</g>
<!-- core&#45;&gt;iface -->
<g id="edge2" class="edge">
<title>core&#45;&gt;iface</title>
<path fill="none" stroke="#000000" d="M733.0781,-153.8806C694.0375,-141.1615 618.2747,-116.4786 573.2127,-101.7978"/>
<polygon fill="#000000" stroke="#000000" points="574.1368,-98.4179 563.5445,-98.648 571.9684,-105.0736 574.1368,-98.4179"/>
</g>
<!-- process -->
<g id="node11" class="node">
<title>process</title>
<ellipse fill="#ffffff" stroke="#000000" cx="1011" cy="-90" rx="39.9857" ry="18"/>
<text text-anchor="middle" x="1011" y="-85.8" font-family="Times,serif" font-size="14.00" fill="#000000">process</text>
</g>
<!-- core&#45;&gt;process -->
<g id="edge3" class="edge">
<title>core&#45;&gt;process</title>
<path fill="none" stroke="#000000" d="M783.6513,-154.7C826.7281,-142.441 914.0793,-117.5822 967.0798,-102.499"/>
<polygon fill="#000000" stroke="#000000" points="968.2182,-105.8141 976.8783,-99.7105 966.3021,-99.0814 968.2182,-105.8141"/>
</g>
<!-- defaults -->
<g id="node3" class="node">
<title>defaults</title>
<ellipse fill="#ffffff" stroke="#000000" cx="847" cy="-378" rx="41.7095" ry="18"/>
<text text-anchor="middle" x="847" y="-373.8" font-family="Times,serif" font-size="14.00" fill="#000000">defaults</text>
</g>
<!-- defaults&#45;&gt;core -->
<g id="edge4" class="edge">
<title>defaults&#45;&gt;core</title>
<path fill="none" stroke="#000000" d="M842.1616,-360.0068C833.6764,-329.5722 814.7369,-266.3309 791,-216 786.3603,-206.1621 780.3739,-195.8574 774.7763,-186.9182"/>
<polygon fill="#000000" stroke="#000000" points="777.7207,-185.0259 769.3725,-178.5021 771.8303,-188.808 777.7207,-185.0259"/>
</g>
<!-- engine/null -->
<g id="node4" class="node">
<title>engine/null</title>
<ellipse fill="#ffffff" stroke="#000000" cx="897" cy="-306" rx="54.4739" ry="18"/>
<text text-anchor="middle" x="897" y="-301.8" font-family="Times,serif" font-size="14.00" fill="#000000">engine/null</text>
</g>
<!-- defaults&#45;&gt;engine/null -->
<g id="edge5" class="edge">
<title>defaults&#45;&gt;engine/null</title>
<path fill="none" stroke="#000000" d="M859.1036,-360.5708C865.0339,-352.0312 872.2973,-341.5719 878.873,-332.1029"/>
<polygon fill="#000000" stroke="#000000" points="881.8313,-333.979 884.6605,-323.7689 876.0817,-329.9862 881.8313,-333.979"/>
</g>
<!-- defaults&#45;&gt;iface -->
<g id="edge6" class="edge">
<title>defaults&#45;&gt;iface</title>
<path fill="none" stroke="#000000" d="M808.746,-370.646C760.9866,-360.8474 682.7859,-342.5767 660,-324 592.5599,-269.0179 557.5489,-167.1334 543.9225,-117.9721"/>
<polygon fill="#000000" stroke="#000000" points="547.231,-116.7961 541.264,-108.0414 540.4691,-118.6064 547.231,-116.7961"/>
</g>
<!-- pragma -->
<g id="node10" class="node">
<title>pragma</title>
<ellipse fill="#ffffff" stroke="#000000" cx="709" cy="-306" rx="39.9876" ry="18"/>
<text text-anchor="middle" x="709" y="-301.8" font-family="Times,serif" font-size="14.00" fill="#000000">pragma</text>
</g>
<!-- defaults&#45;&gt;pragma -->
<g id="edge7" class="edge">
<title>defaults&#45;&gt;pragma</title>
<path fill="none" stroke="#000000" d="M820.3922,-364.1177C798.8192,-352.8622 768.2197,-336.8972 744.5489,-324.5473"/>
<polygon fill="#000000" stroke="#000000" points="746.011,-321.3624 735.5261,-319.8397 742.773,-327.5685 746.011,-321.3624"/>
</g>
<!-- engine/null&#45;&gt;core -->
<g id="edge8" class="edge">
<title>engine/null&#45;&gt;core</title>
<path fill="none" stroke="#000000" d="M885.7506,-288.2968C873.2041,-269.2848 851.6739,-238.7461 829,-216 816.0852,-203.0441 799.972,-190.5472 786.3617,-180.8442"/>
<polygon fill="#000000" stroke="#000000" points="788.0414,-177.7484 777.8381,-174.8947 784.0348,-183.4884 788.0414,-177.7484"/>
</g>
<!-- iface&#45;&gt;data -->
<g id="edge9" class="edge">
<title>iface&#45;&gt;data</title>
<path fill="none" stroke="#000000" d="M529.8315,-72.2022C526.5303,-64.0064 522.5412,-54.1024 518.8809,-45.0145"/>
<polygon fill="#000000" stroke="#000000" points="522.0688,-43.5612 515.0861,-35.593 515.5757,-46.1766 522.0688,-43.5612"/>
</g>
<!-- main_shell -->
<g id="node6" class="node">
<title>main_shell</title>
<ellipse fill="#ffffff" stroke="#000000" cx="468" cy="-234" rx="53.3283" ry="18"/>
<text text-anchor="middle" x="468" y="-229.8" font-family="Times,serif" font-size="14.00" fill="#000000">main_shell</text>
</g>
<!-- main_shell&#45;&gt;core -->
<g id="edge10" class="edge">
<title>main_shell&#45;&gt;core</title>
<path fill="none" stroke="#000000" d="M509.7742,-222.6051C518.12,-220.3771 526.8311,-218.086 535,-216 600.7453,-199.2111 677.7325,-180.8558 721.891,-170.4522"/>
<polygon fill="#000000" stroke="#000000" points="722.9229,-173.8051 731.8558,-168.1083 721.32,-166.991 722.9229,-173.8051"/>
</g>
<!-- main_shell&#45;&gt;data -->
<g id="edge11" class="edge">
<title>main_shell&#45;&gt;data</title>
<path fill="none" stroke="#000000" d="M471.3416,-215.9555C478.3122,-178.3144 494.4469,-91.1867 502.7917,-46.1246"/>
<polygon fill="#000000" stroke="#000000" points="506.2603,-46.6152 504.6398,-36.1451 499.3773,-45.3405 506.2603,-46.6152"/>
</g>
<!-- main_shell&#45;&gt;iface -->
<g id="edge12" class="edge">
<title>main_shell&#45;&gt;iface</title>
<path fill="none" stroke="#000000" d="M476.5994,-216.0535C488.5436,-191.1263 510.2486,-145.8289 524.1276,-116.8641"/>
<polygon fill="#000000" stroke="#000000" points="527.3441,-118.251 528.509,-107.7204 521.0314,-115.2261 527.3441,-118.251"/>
</g>
<!-- mdb -->
<g id="node7" class="node">
<title>mdb</title>
<ellipse fill="#ffffff" stroke="#000000" cx="985" cy="-234" rx="28.4127" ry="18"/>
<text text-anchor="middle" x="985" y="-229.8" font-family="Times,serif" font-size="14.00" fill="#000000">mdb</text>
</g>
<!-- mdb&#45;&gt;core -->
<g id="edge13" class="edge">
<title>mdb&#45;&gt;core</title>
<path fill="none" stroke="#000000" d="M959.4015,-225.8806C918.5686,-212.9292 838.6262,-187.5731 792.6918,-173.0036"/>
<polygon fill="#000000" stroke="#000000" points="793.7488,-169.667 783.1586,-169.9798 791.6324,-176.3395 793.7488,-169.667"/>
</g>
<!-- mdb&#45;&gt;data -->
<g id="edge14" class="edge">
<title>mdb&#45;&gt;data</title>
<path fill="none" stroke="#000000" d="M980.1975,-216.1567C973.8348,-195.8498 960.6816,-163.0401 938,-144 876.7568,-92.5895 636.582,-42.4948 544.3462,-24.7555"/>
<polygon fill="#000000" stroke="#000000" points="544.8387,-21.2864 534.36,-22.8505 543.5269,-28.1624 544.8387,-21.2864"/>
</g>
<!-- mdb&#45;&gt;iface -->
<g id="edge15" class="edge">
<title>mdb&#45;&gt;iface</title>
<path fill="none" stroke="#000000" d="M974.7345,-217.1729C960.9835,-196.2461 934.5074,-161.1873 902,-144 846.0638,-114.4254 659.1022,-98.3385 576.645,-92.5344"/>
<polygon fill="#000000" stroke="#000000" points="576.8739,-89.042 566.6568,-91.8458 576.3924,-96.0254 576.8739,-89.042"/>
</g>
<!-- mock -->
<g id="node8" class="node">
<title>mock</title>
<ellipse fill="#ffffff" stroke="#000000" cx="369" cy="-162" rx="32.4846" ry="18"/>
<text text-anchor="middle" x="369" y="-157.8" font-family="Times,serif" font-size="14.00" fill="#000000">mock</text>
</g>
<!-- mock&#45;&gt;iface -->
<g id="edge16" class="edge">
<title>mock&#45;&gt;iface</title>
<path fill="none" stroke="#000000" d="M394.8818,-150.9078C423.9095,-138.4674 471.0988,-118.2434 503.0622,-104.5448"/>
<polygon fill="#000000" stroke="#000000" points="504.6434,-107.6751 512.4562,-100.5188 501.886,-101.241 504.6434,-107.6751"/>
</g>
<!-- pattern -->
<g id="node9" class="node">
<title>pattern</title>
<ellipse fill="#ffffff" stroke="#000000" cx="1514" cy="-90" rx="37.6986" ry="18"/>
<text text-anchor="middle" x="1514" y="-85.8" font-family="Times,serif" font-size="14.00" fill="#000000">pattern</text>
</g>
<!-- pragma&#45;&gt;core -->
<g id="edge17" class="edge">
<title>pragma&#45;&gt;core</title>
<path fill="none" stroke="#000000" d="M715.1068,-288.0535C723.5521,-263.2347 738.8688,-218.2224 748.7299,-189.2428"/>
<polygon fill="#000000" stroke="#000000" points="752.0621,-190.3148 751.9702,-179.7204 745.4353,-188.0598 752.0621,-190.3148"/>
</g>
<!-- pragma&#45;&gt;data -->
<g id="edge18" class="edge">
<title>pragma&#45;&gt;data</title>
<path fill="none" stroke="#000000" d="M702.1964,-288.0788C685.6854,-246.3446 640.0855,-140.9838 576,-72 563.8799,-58.9535 548.4667,-46.4496 535.38,-36.7654"/>
<polygon fill="#000000" stroke="#000000" points="537.3283,-33.8551 527.1741,-30.8313 533.2264,-39.5273 537.3283,-33.8551"/>
</g>
<!-- pragma&#45;&gt;iface -->
<g id="edge19" class="edge">
<title>pragma&#45;&gt;iface</title>
<path fill="none" stroke="#000000" d="M687.7705,-290.574C675.2462,-280.6468 659.7877,-266.8547 649,-252 618.1344,-209.4979 632.5408,-186.0034 601,-144 591.1412,-130.8708 577.5251,-118.8162 565.3856,-109.4432"/>
<polygon fill="#000000" stroke="#000000" points="567.3911,-106.5726 557.2816,-103.4024 563.2075,-112.185 567.3911,-106.5726"/>
</g>
<!-- pragma&#45;&gt;mdb -->
<g id="edge20" class="edge">
<title>pragma&#45;&gt;mdb</title>
<path fill="none" stroke="#000000" d="M743.6761,-296.9541C796.3139,-283.2225 895.8798,-257.2487 949.1853,-243.343"/>
<polygon fill="#000000" stroke="#000000" points="950.0977,-246.7222 958.8904,-240.8112 948.3307,-239.9488 950.0977,-246.7222"/>
</g>
<!-- process&#45;&gt;data -->
<g id="edge21" class="edge">
<title>process&#45;&gt;data</title>
<path fill="none" stroke="#000000" d="M979.8927,-78.4424C972.472,-76.0178 964.5211,-73.6876 957,-72 806.6419,-38.2631 622.9178,-24.516 545.3682,-19.9376"/>
<polygon fill="#000000" stroke="#000000" points="545.3289,-16.4296 535.1448,-19.3512 544.928,-23.4182 545.3289,-16.4296"/>
</g>
<!-- readline -->
<g id="node12" class="node">
<title>readline</title>
<ellipse fill="#ffffff" stroke="#000000" cx="108" cy="-162" rx="42.2719" ry="18"/>
<text text-anchor="middle" x="108" y="-157.8" font-family="Times,serif" font-size="14.00" fill="#000000">readline</text>
</g>
<!-- readline&#45;&gt;data -->
<g id="edge22" class="edge">
<title>readline&#45;&gt;data</title>
<path fill="none" stroke="#000000" d="M114.0228,-143.8316C121.9706,-122.8945 138.0701,-89.1725 164,-72 213.8232,-39.0037 391.8545,-24.7658 470.3567,-19.9923"/>
<polygon fill="#000000" stroke="#000000" points="470.9724,-23.4622 480.7494,-19.3806 470.561,-16.4743 470.9724,-23.4622"/>
</g>
<!-- readline&#45;&gt;iface -->
<g id="edge23" class="edge">
<title>readline&#45;&gt;iface</title>
<path fill="none" stroke="#000000" d="M148.0476,-156.2556C227.1144,-144.8484 400.7392,-119.4543 460,-108 472.8472,-105.5168 486.8015,-102.3876 499.2578,-99.4375"/>
<polygon fill="#000000" stroke="#000000" points="500.4071,-102.761 509.3116,-97.0198 498.7704,-95.955 500.4071,-102.761"/>
</g>
<!-- replace_part -->
<g id="node13" class="node">
<title>replace_part</title>
<ellipse fill="#ffffff" stroke="#000000" cx="1837" cy="-378" rx="58.5059" ry="18"/>
<text text-anchor="middle" x="1837" y="-373.8" font-family="Times,serif" font-size="14.00" fill="#000000">replace_part</text>
</g>
<!-- system_test -->
<g id="node14" class="node">
<title>system_test</title>
<ellipse fill="#ffffff" stroke="#000000" cx="1433" cy="-162" rx="56.1937" ry="18"/>
<text text-anchor="middle" x="1433" y="-157.8" font-family="Times,serif" font-size="14.00" fill="#000000">system_test</text>
</g>
<!-- system_test&#45;&gt;pattern -->
<g id="edge24" class="edge">
<title>system_test&#45;&gt;pattern</title>
<path fill="none" stroke="#000000" d="M1452.1959,-144.937C1462.991,-135.3413 1476.6091,-123.2363 1488.3131,-112.8328"/>
<polygon fill="#000000" stroke="#000000" points="1490.9029,-115.2136 1496.0517,-105.954 1486.2523,-109.9817 1490.9029,-115.2136"/>
</g>
<!-- system_test&#45;&gt;process -->
<g id="edge25" class="edge">
<title>system_test&#45;&gt;process</title>
<path fill="none" stroke="#000000" d="M1383.3503,-153.529C1301.5087,-139.5655 1139.3341,-111.8959 1058.753,-98.1474"/>
<polygon fill="#000000" stroke="#000000" points="1058.8536,-94.6141 1048.4073,-96.3823 1057.6762,-101.5144 1058.8536,-94.6141"/>
</g>
<!-- app/metashell -->
<g id="node15" class="node">
<title>app/metashell</title>
<polygon fill="none" stroke="#000000" points="344.7563,-468 251.2437,-468 251.2437,-432 344.7563,-432 344.7563,-468"/>
<text text-anchor="middle" x="298" y="-445.8" font-family="Times,serif" font-size="14.00" fill="#000000">app/metashell</text>
</g>
<!-- app/metashell&#45;&gt;core -->
<g id="edge26" class="edge">
<title>app/metashell&#45;&gt;core</title>
<path fill="none" stroke="#000000" d="M344.788,-444.3177C451.466,-430.3023 707.3988,-390.3254 758,-324 787.5287,-285.2953 777.1259,-224.8684 767.2909,-189.7889"/>
<polygon fill="#000000" stroke="#000000" points="770.5143,-188.3503 764.3018,-179.768 763.8064,-190.3513 770.5143,-188.3503"/>
</g>
<!-- app/metashell&#45;&gt;data -->
<g id="edge27" class="edge">
<title>app/metashell&#45;&gt;data</title>
<path fill="none" stroke="#000000" d="M250.9683,-444.8395C207.2039,-438.4462 141.3513,-424.6642 91,-396 41.5655,-367.8578 0,-362.8837 0,-306 0,-306 0,-306 0,-162 0,-110.4962 27.9604,-96.9815 73,-72 141.0846,-34.2364 378.2279,-22.3424 470.6861,-19.0891"/>
<polygon fill="#000000" stroke="#000000" points="470.8372,-22.5861 480.7134,-18.7505 470.6009,-15.5901 470.8372,-22.5861"/>
</g>
<!-- app/metashell&#45;&gt;defaults -->
<g id="edge28" class="edge">
<title>app/metashell&#45;&gt;defaults</title>
<path fill="none" stroke="#000000" d="M345.0606,-448.0083C433.3577,-443.5756 629.5278,-430.4247 791,-396 795.6255,-395.0139 800.4102,-393.7954 805.1451,-392.461"/>
<polygon fill="#000000" stroke="#000000" points="806.1487,-395.8141 814.7272,-389.5964 804.1437,-389.1074 806.1487,-395.8141"/>
</g>
<!-- app/metashell&#45;&gt;iface -->
<g id="edge29" class="edge">
<title>app/metashell&#45;&gt;iface</title>
<path fill="none" stroke="#000000" d="M265.4152,-431.9368C221.0374,-404.6778 149.2303,-349.621 169,-288 193.038,-213.0748 205.7342,-186.4317 272,-144 343.6445,-98.1241 376.7851,-125.6862 460,-108 472.799,-105.2797 486.7411,-102.0899 499.201,-99.1573"/>
<polygon fill="#000000" stroke="#000000" points="500.3391,-102.4845 509.261,-96.7703 498.723,-95.6736 500.3391,-102.4845"/>
</g>
<!-- app/metashell&#45;&gt;main_shell -->
<g id="edge30" class="edge">
<title>app/metashell&#45;&gt;main_shell</title>
<path fill="none" stroke="#000000" d="M344.8387,-439.0036C384.0575,-428.805 435.6964,-412.7215 449,-396 479.4373,-357.7429 477.4631,-297.4101 472.9501,-262.175"/>
<polygon fill="#000000" stroke="#000000" points="476.3888,-261.498 471.5011,-252.098 469.4601,-262.4944 476.3888,-261.498"/>
</g>
<!-- app/metashell&#45;&gt;readline -->
<g id="edge31" class="edge">
<title>app/metashell&#45;&gt;readline</title>
<path fill="none" stroke="#000000" d="M250.8567,-442.685C201.7927,-434.0066 129.7945,-417.9061 113,-396 66.3581,-335.1624 85.7456,-236.9108 99.1732,-189.429"/>
<polygon fill="#000000" stroke="#000000" points="102.5318,-190.4136 102.0043,-179.8319 95.8178,-188.433 102.5318,-190.4136"/>
</g>
<!-- app/reference_gen -->
<g id="node16" class="node">
<title>app/reference_gen</title>
<polygon fill="none" stroke="#000000" points="1184.8752,-468 1065.1248,-468 1065.1248,-432 1184.8752,-432 1184.8752,-468"/>
<text text-anchor="middle" x="1125" y="-445.8" font-family="Times,serif" font-size="14.00" fill="#000000">app/reference_gen</text>
</g>
<!-- app/reference_gen&#45;&gt;core -->
<g id="edge32" class="edge">
<title>app/reference_gen&#45;&gt;core</title>
<path fill="none" stroke="#000000" d="M1122.8228,-431.9568C1120.4732,-413.7044 1116.3393,-384.7309 1111,-360 1095.1224,-286.4572 1087.8742,-252.3488 1022,-216 983.3936,-194.6974 858.4988,-175.4877 795.3255,-166.8392"/>
<polygon fill="#000000" stroke="#000000" points="795.753,-163.3652 785.3743,-165.4945 794.8155,-170.3022 795.753,-163.3652"/>
</g>
<!-- app/reference_gen&#45;&gt;data -->
<g id="edge33" class="edge">
<title>app/reference_gen&#45;&gt;data</title>
<path fill="none" stroke="#000000" d="M1184.9276,-448.8594C1341.3601,-444.2686 1750,-421.2469 1750,-306 1750,-306 1750,-306 1750,-162 1750,-68.9624 1651.1951,-94.822 1561,-72 1461.0033,-46.6979 720.8114,-24.0898 545.2625,-19.0459"/>
<polygon fill="#000000" stroke="#000000" points="545.317,-15.5461 535.221,-18.7589 545.1169,-22.5433 545.317,-15.5461"/>
</g>
<!-- app/reference_gen&#45;&gt;defaults -->
<g id="edge34" class="edge">
<title>app/reference_gen&#45;&gt;defaults</title>
<path fill="none" stroke="#000000" d="M1065.0204,-434.4657C1013.4192,-421.1014 940.0619,-402.1024 892.9942,-389.9122"/>
<polygon fill="#000000" stroke="#000000" points="893.6351,-386.4627 883.077,-387.3437 891.88,-393.2392 893.6351,-386.4627"/>
</g>
<!-- app/reference_gen&#45;&gt;mdb -->
<g id="edge35" class="edge">
<title>app/reference_gen&#45;&gt;mdb</title>
<path fill="none" stroke="#000000" d="M1120.2047,-431.8311C1110.1195,-394.5755 1086.1486,-311.0891 1068,-288 1054.7338,-271.1224 1034.6608,-257.8615 1017.5781,-248.7048"/>
<polygon fill="#000000" stroke="#000000" points="1018.9548,-245.4778 1008.4576,-244.043 1015.7689,-251.7108 1018.9548,-245.4778"/>
</g>
<!-- app/reference_gen&#45;&gt;replace_part -->
<g id="edge36" class="edge">
<title>app/reference_gen&#45;&gt;replace_part</title>
<path fill="none" stroke="#000000" d="M1184.8515,-448.0847C1298.4386,-443.7564 1552.8006,-430.7401 1764,-396 1770.1704,-394.985 1776.5878,-393.7196 1782.9437,-392.333"/>
<polygon fill="#000000" stroke="#000000" points="1783.8673,-395.7122 1792.8365,-390.0728 1782.3081,-388.8881 1783.8673,-395.7122"/>
</g>
<!-- test/system/core -->
<g id="node17" class="node">
<title>test/system/core</title>
<polygon fill="none" stroke="#000000" points="1361.1966,-252 1254.8034,-252 1254.8034,-216 1361.1966,-216 1361.1966,-252"/>
<text text-anchor="middle" x="1308" y="-229.8" font-family="Times,serif" font-size="14.00" fill="#000000">test/system/core</text>
</g>
<!-- test/system/core&#45;&gt;system_test -->
<g id="edge37" class="edge">
<title>test/system/core&#45;&gt;system_test</title>
<path fill="none" stroke="#000000" d="M1339.5428,-215.8314C1356.7877,-205.8983 1378.2393,-193.5422 1396.2395,-183.1741"/>
<polygon fill="#000000" stroke="#000000" points="1398.3788,-185.9809 1405.2972,-177.9568 1394.885,-179.9152 1398.3788,-185.9809"/>
</g>
<!-- test/system/mdb -->
<g id="node18" class="node">
<title>test/system/mdb</title>
<polygon fill="none" stroke="#000000" points="1486.4972,-252 1379.5028,-252 1379.5028,-216 1486.4972,-216 1486.4972,-252"/>
<text text-anchor="middle" x="1433" y="-229.8" font-family="Times,serif" font-size="14.00" fill="#000000">test/system/mdb</text>
</g>
<!-- test/system/mdb&#45;&gt;system_test -->
<g id="edge38" class="edge">
<title>test/system/mdb&#45;&gt;system_test</title>
<path fill="none" stroke="#000000" d="M1433,-215.8314C1433,-208.131 1433,-198.9743 1433,-190.4166"/>
<polygon fill="#000000" stroke="#000000" points="1436.5001,-190.4132 1433,-180.4133 1429.5001,-190.4133 1436.5001,-190.4132"/>
</g>
<!-- test/system/pdb -->
<g id="node19" class="node">
<title>test/system/pdb</title>
<polygon fill="none" stroke="#000000" points="1607.6067,-252 1504.3933,-252 1504.3933,-216 1607.6067,-216 1607.6067,-252"/>
<text text-anchor="middle" x="1556" y="-229.8" font-family="Times,serif" font-size="14.00" fill="#000000">test/system/pdb</text>
</g>
<!-- test/system/pdb&#45;&gt;system_test -->
<g id="edge39" class="edge">
<title>test/system/pdb&#45;&gt;system_test</title>
<path fill="none" stroke="#000000" d="M1524.9619,-215.8314C1507.9929,-205.8983 1486.8846,-193.5422 1469.1724,-183.1741"/>
<polygon fill="#000000" stroke="#000000" points="1470.6578,-179.9881 1460.2595,-177.9568 1467.1215,-186.0292 1470.6578,-179.9881"/>
</g>
<!-- test/system/pp -->
<g id="node20" class="node">
<title>test/system/pp</title>
<polygon fill="none" stroke="#000000" points="1722.1067,-252 1625.8933,-252 1625.8933,-216 1722.1067,-216 1722.1067,-252"/>
<text text-anchor="middle" x="1674" y="-229.8" font-family="Times,serif" font-size="14.00" fill="#000000">test/system/pp</text>
</g>
<!-- test/system/pp&#45;&gt;pattern -->
<g id="edge40" class="edge">
<title>test/system/pp&#45;&gt;pattern</title>
<path fill="none" stroke="#000000" d="M1653.7359,-215.7623C1624.7434,-189.6691 1571.4322,-141.689 1539.702,-113.1318"/>
<polygon fill="#000000" stroke="#000000" points="1541.9022,-110.4032 1532.1278,-106.3151 1537.2194,-115.6063 1541.9022,-110.4032"/>
</g>
<!-- test/system/pp&#45;&gt;system_test -->
<g id="edge41" class="edge">
<title>test/system/pp&#45;&gt;system_test</title>
<path fill="none" stroke="#000000" d="M1625.8194,-218.7091C1622.837,-217.7861 1619.8789,-216.8769 1617,-216 1572.6069,-202.4779 1522.0044,-187.6711 1485.1169,-176.9879"/>
<polygon fill="#000000" stroke="#000000" points="1485.6717,-173.5049 1475.0929,-174.0885 1483.7266,-180.2293 1485.6717,-173.5049"/>
</g>
<!-- test/unit/core -->
<g id="node21" class="node">
<title>test/unit/core</title>
<polygon fill="none" stroke="#000000" points="358.5926,-252 269.4074,-252 269.4074,-216 358.5926,-216 358.5926,-252"/>
<text text-anchor="middle" x="314" y="-229.8" font-family="Times,serif" font-size="14.00" fill="#000000">test/unit/core</text>
</g>
<!-- test/unit/core&#45;&gt;core -->
<g id="edge42" class="edge">
<title>test/unit/core&#45;&gt;core</title>
<path fill="none" stroke="#000000" d="M358.8536,-224.842C373.823,-221.8877 390.6084,-218.6851 406,-216 520.2347,-196.0712 656.0267,-176.3581 720.4694,-167.242"/>
<polygon fill="#000000" stroke="#000000" points="721.1395,-170.6822 730.5527,-165.8198 720.1618,-163.7508 721.1395,-170.6822"/>
</g>
<!-- test/unit/core&#45;&gt;data -->
<g id="edge43" class="edge">
<title>test/unit/core&#45;&gt;data</title>
<path fill="none" stroke="#000000" d="M312.8329,-215.7665C311.7582,-182.3263 314.5902,-111.0455 354,-72 385.5548,-40.7368 436.2198,-27.5129 470.7527,-21.9585"/>
<polygon fill="#000000" stroke="#000000" points="471.5261,-25.3826 480.9129,-20.4695 470.511,-18.4566 471.5261,-25.3826"/>
</g>
<!-- test/unit/core&#45;&gt;mock -->
<g id="edge44" class="edge">
<title>test/unit/core&#45;&gt;mock</title>
<path fill="none" stroke="#000000" d="M327.8788,-215.8314C334.5736,-207.0673 342.7092,-196.4171 349.9713,-186.9103"/>
<polygon fill="#000000" stroke="#000000" points="352.7811,-188.9977 356.0702,-178.9263 347.2184,-184.7484 352.7811,-188.9977"/>
</g>
<!-- test/unit/data -->
<g id="node22" class="node">
<title>test/unit/data</title>
<polygon fill="none" stroke="#000000" points="451.3232,-108 362.6768,-108 362.6768,-72 451.3232,-72 451.3232,-108"/>
<text text-anchor="middle" x="407" y="-85.8" font-family="Times,serif" font-size="14.00" fill="#000000">test/unit/data</text>
</g>
<!-- test/unit/data&#45;&gt;data -->
<g id="edge45" class="edge">
<title>test/unit/data&#45;&gt;data</title>
<path fill="none" stroke="#000000" d="M432.4866,-71.8314C447.2395,-61.3144 465.8028,-48.0812 480.8321,-37.3672"/>
<polygon fill="#000000" stroke="#000000" points="483.1061,-40.0445 489.2172,-31.3897 479.0428,-34.3445 483.1061,-40.0445"/>
</g>
<!-- test/unit/main_shell -->
<g id="node23" class="node">
<title>test/unit/main_shell</title>
<polygon fill="none" stroke="#000000" points="304.4398,-324 177.5602,-324 177.5602,-288 304.4398,-288 304.4398,-324"/>
<text text-anchor="middle" x="241" y="-301.8" font-family="Times,serif" font-size="14.00" fill="#000000">test/unit/main_shell</text>
</g>
<!-- test/unit/main_shell&#45;&gt;core -->
<g id="edge46" class="edge">
<title>test/unit/main_shell&#45;&gt;core</title>
<path fill="none" stroke="#000000" d="M304.3847,-297.7208C363.485,-289.1663 453.7283,-273.9604 530,-252 602.0458,-231.2563 682.9107,-196.4396 726.3354,-176.7438"/>
<polygon fill="#000000" stroke="#000000" points="727.883,-179.8848 735.5255,-172.5471 724.9752,-173.5173 727.883,-179.8848"/>
</g>
<!-- test/unit/main_shell&#45;&gt;data -->
<g id="edge47" class="edge">
<title>test/unit/main_shell&#45;&gt;data</title>
<path fill="none" stroke="#000000" d="M234.4161,-287.6855C228.7797,-269.2221 222.6437,-240.0878 230,-216 252.5383,-142.199 264.8288,-117.7089 327,-72 369.9865,-40.3959 431.4444,-27.1518 470.5306,-21.696"/>
<polygon fill="#000000" stroke="#000000" points="471.4576,-25.1055 480.9277,-20.355 470.5621,-18.1631 471.4576,-25.1055"/>
</g>
<!-- test/unit/main_shell&#45;&gt;iface -->
<g id="edge48" class="edge">
<title>test/unit/main_shell&#45;&gt;iface</title>
<path fill="none" stroke="#000000" d="M236.6416,-287.7724C233.0868,-268.8611 230.2246,-238.9044 241,-216 251.683,-193.292 305.6496,-155.4121 328,-144 343.2394,-136.2188 443.1061,-112.0565 499.0962,-98.8462"/>
<polygon fill="#000000" stroke="#000000" points="500.0774,-102.211 509.0098,-96.5134 498.474,-95.3971 500.0774,-102.211"/>
</g>
<!-- test/unit/main_shell&#45;&gt;main_shell -->
<g id="edge49" class="edge">
<title>test/unit/main_shell&#45;&gt;main_shell</title>
<path fill="none" stroke="#000000" d="M297.9887,-287.9243C335.3228,-276.0826 383.609,-260.7672 419.1767,-249.4858"/>
<polygon fill="#000000" stroke="#000000" points="420.3778,-252.7767 428.8517,-246.4171 418.2614,-246.1043 420.3778,-252.7767"/>
</g>
<!-- test/unit/main_shell&#45;&gt;mock -->
<g id="edge50" class="edge">
<title>test/unit/main_shell&#45;&gt;mock</title>
<path fill="none" stroke="#000000" d="M240.3759,-287.8625C240.6299,-268.1931 243.8563,-236.8249 260,-216 277.0954,-193.9474 305.5791,-180.2739 329.1421,-172.2046"/>
<polygon fill="#000000" stroke="#000000" points="330.4362,-175.4654 338.8917,-169.0814 328.3006,-168.7991 330.4362,-175.4654"/>
</g>
<!-- test/unit/mdb -->
<g id="node24" class="node">
<title>test/unit/mdb</title>
<polygon fill="none" stroke="#000000" points="1058.8935,-324 969.1065,-324 969.1065,-288 1058.8935,-288 1058.8935,-324"/>
<text text-anchor="middle" x="1014" y="-301.8" font-family="Times,serif" font-size="14.00" fill="#000000">test/unit/mdb</text>
</g>
<!-- test/unit/mdb&#45;&gt;core -->
<g id="edge51" class="edge">
<title>test/unit/mdb&#45;&gt;core</title>
<path fill="none" stroke="#000000" d="M979.2953,-287.8582C960.1455,-277.6515 936.0487,-264.4843 915,-252 889.5514,-236.9061 884.5115,-230.9874 859,-216 835.9118,-202.4362 809.1644,-188.1992 788.9972,-177.7509"/>
<polygon fill="#000000" stroke="#000000" points="790.4437,-174.559 779.9513,-173.0896 787.2373,-180.7815 790.4437,-174.559"/>
</g>
<!-- test/unit/mdb&#45;&gt;data -->
<g id="edge52" class="edge">
<title>test/unit/mdb&#45;&gt;data</title>
<path fill="none" stroke="#000000" d="M1026.5671,-287.749C1054.7592,-244.3722 1116.324,-134.1029 1060,-72 1025.4244,-33.877 663.5974,-21.7672 545.2398,-18.8106"/>
<polygon fill="#000000" stroke="#000000" points="545.2862,-15.3108 535.2043,-18.5674 545.1165,-22.3087 545.2862,-15.3108"/>
</g>
<!-- test/unit/mdb&#45;&gt;iface -->
<g id="edge53" class="edge">
<title>test/unit/mdb&#45;&gt;iface</title>
<path fill="none" stroke="#000000" d="M992.2993,-287.9069C969.8278,-269.3647 933.517,-239.9395 901,-216 855.1372,-182.2352 847.4225,-166.2561 795,-144 721.7007,-112.8806 628.8437,-99.1169 576.8841,-93.4928"/>
<polygon fill="#000000" stroke="#000000" points="577.0544,-89.9918 566.7471,-92.4433 576.3335,-96.9546 577.0544,-89.9918"/>
</g>
<!-- test/unit/mdb&#45;&gt;mdb -->
<g id="edge54" class="edge">
<title>test/unit/mdb&#45;&gt;mdb</title>
<path fill="none" stroke="#000000" d="M1006.6821,-287.8314C1003.4636,-279.8406 999.6135,-270.2819 996.0568,-261.4514"/>
<polygon fill="#000000" stroke="#000000" points="999.1978,-259.8816 992.2151,-251.9134 992.7047,-262.4969 999.1978,-259.8816"/>
</g>
<!-- test/unit/pragma -->
<g id="node25" class="node">
<title>test/unit/pragma</title>
<polygon fill="none" stroke="#000000" points="440.4832,-396 333.5168,-396 333.5168,-360 440.4832,-360 440.4832,-396"/>
<text text-anchor="middle" x="387" y="-373.8" font-family="Times,serif" font-size="14.00" fill="#000000">test/unit/pragma</text>
</g>
<!-- test/unit/pragma&#45;&gt;core -->
<g id="edge55" class="edge">
<title>test/unit/pragma&#45;&gt;core</title>
<path fill="none" stroke="#000000" d="M417.9931,-359.9555C488.3276,-319.006 659.2578,-219.4887 728.3204,-179.2798"/>
<polygon fill="#000000" stroke="#000000" points="730.1073,-182.2894 736.9883,-174.2332 726.5853,-176.24 730.1073,-182.2894"/>
</g>
<!-- test/unit/pragma&#45;&gt;data -->
<g id="edge56" class="edge">
<title>test/unit/pragma&#45;&gt;data</title>
<path fill="none" stroke="#000000" d="M333.4123,-368.887C277.986,-358.7366 195.8497,-341.4489 169,-324 89.9954,-272.657 21.2473,-231.1755 57,-144 74.0532,-102.4194 87.866,-92.2242 128,-72 187.7053,-41.9136 387.294,-25.8147 470.784,-20.261"/>
<polygon fill="#000000" stroke="#000000" points="471.0881,-23.7487 480.8394,-19.606 470.633,-16.7635 471.0881,-23.7487"/>
</g>
<!-- test/unit/pragma&#45;&gt;main_shell -->
<g id="edge57" class="edge">
<title>test/unit/pragma&#45;&gt;main_shell</title>
<path fill="none" stroke="#000000" d="M397.2587,-359.7623C411.3179,-334.7682 436.6731,-289.6924 452.902,-260.8409"/>
<polygon fill="#000000" stroke="#000000" points="455.9724,-262.5213 457.8246,-252.0896 449.8714,-259.0895 455.9724,-262.5213"/>
</g>
<!-- test/unit/pragma&#45;&gt;mock -->
<g id="edge58" class="edge">
<title>test/unit/pragma&#45;&gt;mock</title>
<path fill="none" stroke="#000000" d="M385.4963,-359.9555C382.3595,-322.3144 375.0989,-235.1867 371.3437,-190.1246"/>
<polygon fill="#000000" stroke="#000000" points="374.8305,-189.8198 370.5121,-180.1451 367.8547,-190.4012 374.8305,-189.8198"/>
</g>
<!-- test/unit/pragma&#45;&gt;pragma -->
<g id="edge59" class="edge">
<title>test/unit/pragma&#45;&gt;pragma</title>
<path fill="none" stroke="#000000" d="M440.5837,-369.2033C495.0057,-359.8025 581.5028,-343.5747 655,-324 659.136,-322.8984 663.4182,-321.6544 667.6788,-320.3476"/>
<polygon fill="#000000" stroke="#000000" points="669.0339,-323.5894 677.5019,-317.222 666.9114,-316.9189 669.0339,-323.5894"/>
</g>
<!-- test/unit/replace_part -->
<g id="node26" class="node">
<title>test/unit/replace_part</title>
<polygon fill="none" stroke="#000000" points="1904.1783,-468 1769.8217,-468 1769.8217,-432 1904.1783,-432 1904.1783,-468"/>
<text text-anchor="middle" x="1837" y="-445.8" font-family="Times,serif" font-size="14.00" fill="#000000">test/unit/replace_part</text>
</g>
<!-- test/unit/replace_part&#45;&gt;replace_part -->
<g id="edge60" class="edge">
<title>test/unit/replace_part&#45;&gt;replace_part</title>
<path fill="none" stroke="#000000" d="M1837,-431.8314C1837,-424.131 1837,-414.9743 1837,-406.4166"/>
<polygon fill="#000000" stroke="#000000" points="1840.5001,-406.4132 1837,-396.4133 1833.5001,-406.4133 1840.5001,-406.4132"/>
</g>
<!-- test/unit/system_test -->
<g id="node27" class="node">
<title>test/unit/system_test</title>
<polygon fill="none" stroke="#000000" points="1237.3286,-252 1106.6714,-252 1106.6714,-216 1237.3286,-216 1237.3286,-252"/>
<text text-anchor="middle" x="1172" y="-229.8" font-family="Times,serif" font-size="14.00" fill="#000000">test/unit/system_test</text>
</g>
<!-- test/unit/system_test&#45;&gt;system_test -->
<g id="edge61" class="edge">
<title>test/unit/system_test&#45;&gt;system_test</title>
<path fill="none" stroke="#000000" d="M1237.1881,-216.0171C1281.4057,-203.8191 1339.1021,-187.9029 1380.3919,-176.5126"/>
<polygon fill="#000000" stroke="#000000" points="1381.5447,-179.8254 1390.2538,-173.792 1379.6831,-173.0774 1381.5447,-179.8254"/>
</g>
</g>
</svg>
