<?xml version="1.0" encoding="UTF-8" standalone="no"?>
<!DOCTYPE svg PUBLIC "-//W3C//DTD SVG 1.1//EN"
 "http://www.w3.org/Graphics/SVG/1.1/DTD/svg11.dtd">
<!-- Generated by graphviz version 2.40.1
 -->
<!-- Title: %3 Pages: 1 -->
<svg width="2468pt" height="476pt"
 viewBox="0.00 0.00 2467.98 476.00" xmlns="http://www.w3.org/2000/svg" xmlns:xlink="http://www.w3.org/1999/xlink">
<g id="graph0" class="graph" transform="scale(1 1) rotate(0) translate(4 472)">
<title>%3</title>
<polygon fill="#ffffff" stroke="transparent" points="-4,4 -4,-472 2463.9839,-472 2463.9839,4 -4,4"/>
<!-- compiler_stub -->
<g id="node1" class="node">
<title>compiler_stub</title>
<ellipse fill="#ffffff" stroke="#000000" cx="375.4853" cy="-90" rx="66.0723" ry="18"/>
<text text-anchor="middle" x="375.4853" y="-85.8" font-family="Times,serif" font-size="14.00" fill="#000000">compiler_stub</text>
</g>
<!-- data -->
<g id="node3" class="node">
<title>data</title>
<ellipse fill="#ffffff" stroke="#000000" cx="681.4853" cy="-18" rx="27.2447" ry="18"/>
<text text-anchor="middle" x="681.4853" y="-13.8" font-family="Times,serif" font-size="14.00" fill="#000000">data</text>
</g>
<!-- compiler_stub&#45;&gt;data -->
<g id="edge1" class="edge">
<title>compiler_stub&#45;&gt;data</title>
<path fill="none" stroke="#000000" d="M425.6723,-78.1913C487.6352,-63.6118 591.4706,-39.1799 645.8368,-26.3879"/>
<polygon fill="#000000" stroke="#000000" points="646.7749,-29.7628 655.7074,-24.0654 645.1716,-22.9489 646.7749,-29.7628"/>
</g>
<!-- core -->
<g id="node2" class="node">
<title>core</title>
<ellipse fill="#ffffff" stroke="#000000" cx="881.4853" cy="-162" rx="27.8073" ry="18"/>
<text text-anchor="middle" x="881.4853" y="-157.8" font-family="Times,serif" font-size="14.00" fill="#000000">core</text>
</g>
<!-- iface -->
<g id="node12" class="node">
<title>iface</title>
<ellipse fill="#ffffff" stroke="#000000" cx="652.4853" cy="-90" rx="29.5916" ry="18"/>
<text text-anchor="middle" x="652.4853" y="-85.8" font-family="Times,serif" font-size="14.00" fill="#000000">iface</text>
</g>
<!-- core&#45;&gt;iface -->
<g id="edge2" class="edge">
<title>core&#45;&gt;iface</title>
<path fill="none" stroke="#000000" d="M855.4779,-155.3275C819.428,-145.8711 752.3918,-127.535 696.4853,-108 693.191,-106.8489 689.7846,-105.587 686.3931,-104.2824"/>
<polygon fill="#000000" stroke="#000000" points="687.5655,-100.9822 676.9795,-100.5487 684.9846,-107.489 687.5655,-100.9822"/>
</g>
<!-- defaults -->
<g id="node4" class="node">
<title>defaults</title>
<ellipse fill="#ffffff" stroke="#000000" cx="1107.4853" cy="-378" rx="41.7095" ry="18"/>
<text text-anchor="middle" x="1107.4853" y="-373.8" font-family="Times,serif" font-size="14.00" fill="#000000">defaults</text>
</g>
<!-- engine/gcc -->
<g id="node7" class="node">
<title>engine/gcc</title>
<ellipse fill="#ffffff" stroke="#000000" cx="1003.4853" cy="-306" rx="52.7295" ry="18"/>
<text text-anchor="middle" x="1003.4853" y="-301.8" font-family="Times,serif" font-size="14.00" fill="#000000">engine/gcc</text>
</g>
<!-- defaults&#45;&gt;engine/gcc -->
<g id="edge3" class="edge">
<title>defaults&#45;&gt;engine/gcc</title>
<path fill="none" stroke="#000000" d="M1085.4296,-362.7307C1070.9406,-352.6998 1051.7465,-339.4116 1035.5773,-328.2175"/>
<polygon fill="#000000" stroke="#000000" points="1037.1688,-325.0624 1026.9546,-322.248 1033.1843,-330.8178 1037.1688,-325.0624"/>
</g>
<!-- engine/null -->
<g id="node8" class="node">
<title>engine/null</title>
<ellipse fill="#ffffff" stroke="#000000" cx="922.4853" cy="-234" rx="54.4739" ry="18"/>
<text text-anchor="middle" x="922.4853" y="-229.8" font-family="Times,serif" font-size="14.00" fill="#000000">engine/null</text>
</g>
<!-- defaults&#45;&gt;engine/null -->
<g id="edge4" class="edge">
<title>defaults&#45;&gt;engine/null</title>
<path fill="none" stroke="#000000" d="M1075.4431,-366.4935C1069.1708,-364.297 1062.6324,-362.0462 1056.4853,-360 1005.6697,-343.0849 977.5085,-363.6318 941.4853,-324 926.4408,-307.4485 922.1712,-282.0677 921.3895,-262.4735"/>
<polygon fill="#000000" stroke="#000000" points="924.887,-262.2335 921.2678,-252.276 917.8875,-262.3171 924.887,-262.2335"/>
</g>
<!-- engine/templight -->
<g id="node9" class="node">
<title>engine/templight</title>
<ellipse fill="#ffffff" stroke="#000000" cx="1305.4853" cy="-306" rx="76.4632" ry="18"/>
<text text-anchor="middle" x="1305.4853" y="-301.8" font-family="Times,serif" font-size="14.00" fill="#000000">engine/templight</text>
</g>
<!-- defaults&#45;&gt;engine/templight -->
<g id="edge5" class="edge">
<title>defaults&#45;&gt;engine/templight</title>
<path fill="none" stroke="#000000" d="M1139.7381,-366.2717C1170.7205,-355.0054 1218.0283,-337.8026 1254.1833,-324.6553"/>
<polygon fill="#000000" stroke="#000000" points="1255.3873,-327.9417 1263.5892,-321.235 1252.9951,-321.3632 1255.3873,-327.9417"/>
</g>
<!-- engine/vc -->
<g id="node10" class="node">
<title>engine/vc</title>
<ellipse fill="#ffffff" stroke="#000000" cx="1449.4853" cy="-234" rx="48.6559" ry="18"/>
<text text-anchor="middle" x="1449.4853" y="-229.8" font-family="Times,serif" font-size="14.00" fill="#000000">engine/vc</text>
</g>
<!-- defaults&#45;&gt;engine/vc -->
<g id="edge6" class="edge">
<title>defaults&#45;&gt;engine/vc</title>
<path fill="none" stroke="#000000" d="M1141.1037,-367.3626C1150.8248,-364.6098 1161.5059,-361.8917 1171.4853,-360 1249.8259,-345.15 1475.0068,-383.1425 1528.4853,-324 1539.2164,-312.1323 1535.9531,-302.1503 1528.4853,-288 1520.3944,-272.6691 1505.7747,-260.8646 1491.2925,-252.2588"/>
<polygon fill="#000000" stroke="#000000" points="1492.7969,-249.0912 1482.3527,-247.3109 1489.4071,-255.2157 1492.7969,-249.0912"/>
</g>
<!-- engine/wave -->
<g id="node11" class="node">
<title>engine/wave</title>
<ellipse fill="#ffffff" stroke="#000000" cx="1459.4853" cy="-306" rx="59.6723" ry="18"/>
<text text-anchor="middle" x="1459.4853" y="-301.8" font-family="Times,serif" font-size="14.00" fill="#000000">engine/wave</text>
</g>
<!-- defaults&#45;&gt;engine/wave -->
<g id="edge7" class="edge">
<title>defaults&#45;&gt;engine/wave</title>
<path fill="none" stroke="#000000" d="M1141.8506,-367.5764C1151.3929,-364.8897 1161.7951,-362.1521 1171.4853,-360 1267.7786,-338.6138 1293.9933,-344.4712 1390.4853,-324 1395.2311,-322.9932 1400.1408,-321.8728 1405.053,-320.6972"/>
<polygon fill="#000000" stroke="#000000" points="1406.2152,-324.0157 1415.0878,-318.2254 1404.5409,-317.2188 1406.2152,-324.0157"/>
</g>
<!-- pragma -->
<g id="node17" class="node">
<title>pragma</title>
<ellipse fill="#ffffff" stroke="#000000" cx="854.4853" cy="-306" rx="39.9876" ry="18"/>
<text text-anchor="middle" x="854.4853" y="-301.8" font-family="Times,serif" font-size="14.00" fill="#000000">pragma</text>
</g>
<!-- defaults&#45;&gt;pragma -->
<g id="edge8" class="edge">
<title>defaults&#45;&gt;pragma</title>
<path fill="none" stroke="#000000" d="M1075.8169,-366.2675C1069.4534,-364.0673 1062.7854,-361.8728 1056.4853,-360 991.596,-340.7103 973.5413,-342.7198 908.4853,-324 904.4254,-322.8318 900.2156,-321.5518 896.0192,-320.2299"/>
<polygon fill="#000000" stroke="#000000" points="896.9202,-316.843 886.3286,-317.1024 894.7702,-323.5046 896.9202,-316.843"/>
</g>
<!-- engine/clang -->
<g id="node5" class="node">
<title>engine/clang</title>
<ellipse fill="#ffffff" stroke="#000000" cx="1223.4853" cy="-234" rx="60.2537" ry="18"/>
<text text-anchor="middle" x="1223.4853" y="-229.8" font-family="Times,serif" font-size="14.00" fill="#000000">engine/clang</text>
</g>
<!-- engine/clang&#45;&gt;core -->
<g id="edge9" class="edge">
<title>engine/clang&#45;&gt;core</title>
<path fill="none" stroke="#000000" d="M1174.1208,-223.6075C1104.6994,-208.9925 979.8239,-182.7029 918.0864,-169.7055"/>
<polygon fill="#000000" stroke="#000000" points="918.5351,-166.2233 908.0286,-167.5881 917.093,-173.0732 918.5351,-166.2233"/>
</g>
<!-- process -->
<g id="node18" class="node">
<title>process</title>
<ellipse fill="#ffffff" stroke="#000000" cx="1449.4853" cy="-162" rx="39.9857" ry="18"/>
<text text-anchor="middle" x="1449.4853" y="-157.8" font-family="Times,serif" font-size="14.00" fill="#000000">process</text>
</g>
<!-- engine/clang&#45;&gt;process -->
<g id="edge10" class="edge">
<title>engine/clang&#45;&gt;process</title>
<path fill="none" stroke="#000000" d="M1264.9372,-220.7941C1305.3164,-207.9299 1366.4019,-188.469 1407.0974,-175.5041"/>
<polygon fill="#000000" stroke="#000000" points="1408.2592,-178.8074 1416.7249,-172.437 1406.1343,-172.1377 1408.2592,-178.8074"/>
</g>
<!-- engine/constant -->
<g id="node6" class="node">
<title>engine/constant</title>
<ellipse fill="#ffffff" stroke="#000000" cx="517.4853" cy="-306" rx="71.7892" ry="18"/>
<text text-anchor="middle" x="517.4853" y="-301.8" font-family="Times,serif" font-size="14.00" fill="#000000">engine/constant</text>
</g>
<!-- engine/constant&#45;&gt;core -->
<g id="edge11" class="edge">
<title>engine/constant&#45;&gt;core</title>
<path fill="none" stroke="#000000" d="M556.0951,-290.7258C627.9445,-262.3019 780.9889,-201.7568 848.4158,-175.0824"/>
<polygon fill="#000000" stroke="#000000" points="849.7117,-178.3338 857.7229,-171.4005 847.1366,-171.8246 849.7117,-178.3338"/>
</g>
<!-- engine/gcc&#45;&gt;engine/clang -->
<g id="edge12" class="edge">
<title>engine/gcc&#45;&gt;engine/clang</title>
<path fill="none" stroke="#000000" d="M1041.8064,-293.4586C1078.2003,-281.5478 1133.1356,-263.569 1173.0678,-250.5003"/>
<polygon fill="#000000" stroke="#000000" points="1174.2053,-253.8108 1182.6206,-247.3739 1172.0279,-247.158 1174.2053,-253.8108"/>
</g>
<!-- engine/null&#45;&gt;core -->
<g id="edge13" class="edge">
<title>engine/null&#45;&gt;core</title>
<path fill="none" stroke="#000000" d="M912.3505,-216.2022C907.5129,-207.7071 901.6304,-197.3767 896.3035,-188.0223"/>
<polygon fill="#000000" stroke="#000000" points="899.2111,-186.0551 891.2212,-179.0972 893.1282,-189.519 899.2111,-186.0551"/>
</g>
<!-- engine/templight&#45;&gt;engine/clang -->
<g id="edge14" class="edge">
<title>engine/templight&#45;&gt;engine/clang</title>
<path fill="none" stroke="#000000" d="M1285.6354,-288.5708C1275.1603,-279.3732 1262.1487,-267.9484 1250.742,-257.9328"/>
<polygon fill="#000000" stroke="#000000" points="1252.9762,-255.2367 1243.1524,-251.2687 1248.3575,-260.4968 1252.9762,-255.2367"/>
</g>
<!-- engine/vc&#45;&gt;core -->
<g id="edge15" class="edge">
<title>engine/vc&#45;&gt;core</title>
<path fill="none" stroke="#000000" d="M1403.4846,-228.1689C1293.929,-214.2816 1019.2476,-179.4628 918.9226,-166.7456"/>
<polygon fill="#000000" stroke="#000000" points="919.3022,-163.2658 908.9414,-165.4804 918.4219,-170.2102 919.3022,-163.2658"/>
</g>
<!-- engine/vc&#45;&gt;process -->
<g id="edge16" class="edge">
<title>engine/vc&#45;&gt;process</title>
<path fill="none" stroke="#000000" d="M1449.4853,-215.8314C1449.4853,-208.131 1449.4853,-198.9743 1449.4853,-190.4166"/>
<polygon fill="#000000" stroke="#000000" points="1452.9854,-190.4132 1449.4853,-180.4133 1445.9854,-190.4133 1452.9854,-190.4132"/>
</g>
<!-- engine/wave&#45;&gt;engine/clang -->
<g id="edge17" class="edge">
<title>engine/wave&#45;&gt;engine/clang</title>
<path fill="none" stroke="#000000" d="M1417.2932,-293.1278C1377.564,-281.007 1317.9522,-262.8204 1275.3402,-249.8201"/>
<polygon fill="#000000" stroke="#000000" points="1276.2954,-246.4524 1265.7093,-246.8819 1274.2527,-253.1477 1276.2954,-246.4524"/>
</g>
<!-- iface&#45;&gt;data -->
<g id="edge18" class="edge">
<title>iface&#45;&gt;data</title>
<path fill="none" stroke="#000000" d="M659.6538,-72.2022C662.955,-64.0064 666.9441,-54.1024 670.6044,-45.0145"/>
<polygon fill="#000000" stroke="#000000" points="673.9096,-46.1766 674.3992,-35.593 667.4165,-43.5612 673.9096,-46.1766"/>
</g>
<!-- main_shell -->
<g id="node13" class="node">
<title>main_shell</title>
<ellipse fill="#ffffff" stroke="#000000" cx="743.4853" cy="-306" rx="53.3283" ry="18"/>
<text text-anchor="middle" x="743.4853" y="-301.8" font-family="Times,serif" font-size="14.00" fill="#000000">main_shell</text>
</g>
<!-- main_shell&#45;&gt;core -->
<g id="edge19" class="edge">
<title>main_shell&#45;&gt;core</title>
<path fill="none" stroke="#000000" d="M771.0337,-290.5056C786.9045,-280.7481 806.5941,-267.1548 821.4853,-252 840.2613,-232.8917 856.7431,-207.1321 867.6572,-188.0677"/>
<polygon fill="#000000" stroke="#000000" points="870.7309,-189.742 872.5534,-179.3051 864.6201,-186.3275 870.7309,-189.742"/>
</g>
<!-- mdb -->
<g id="node14" class="node">
<title>mdb</title>
<ellipse fill="#ffffff" stroke="#000000" cx="784.4853" cy="-234" rx="28.4127" ry="18"/>
<text text-anchor="middle" x="784.4853" y="-229.8" font-family="Times,serif" font-size="14.00" fill="#000000">mdb</text>
</g>
<!-- mdb&#45;&gt;core -->
<g id="edge20" class="edge">
<title>mdb&#45;&gt;core</title>
<path fill="none" stroke="#000000" d="M803.1879,-220.1177C817.9085,-209.191 838.6085,-193.8261 855.0276,-181.6387"/>
<polygon fill="#000000" stroke="#000000" points="857.2255,-184.3662 863.1691,-175.5955 853.0533,-178.7454 857.2255,-184.3662"/>
</g>
<!-- mock -->
<g id="node15" class="node">
<title>mock</title>
<ellipse fill="#ffffff" stroke="#000000" cx="639.4853" cy="-306" rx="32.4846" ry="18"/>
<text text-anchor="middle" x="639.4853" y="-301.8" font-family="Times,serif" font-size="14.00" fill="#000000">mock</text>
</g>
<!-- mock&#45;&gt;iface -->
<g id="edge21" class="edge">
<title>mock&#45;&gt;iface</title>
<path fill="none" stroke="#000000" d="M640.5713,-287.9555C642.832,-250.3938 648.0584,-163.5541 650.7754,-118.4103"/>
<polygon fill="#000000" stroke="#000000" points="654.2861,-118.3373 651.3932,-108.1451 647.2987,-117.9167 654.2861,-118.3373"/>
</g>
<!-- pattern -->
<g id="node16" class="node">
<title>pattern</title>
<ellipse fill="#ffffff" stroke="#000000" cx="2007.4853" cy="-162" rx="37.6986" ry="18"/>
<text text-anchor="middle" x="2007.4853" y="-157.8" font-family="Times,serif" font-size="14.00" fill="#000000">pattern</text>
</g>
<!-- pragma&#45;&gt;mdb -->
<g id="edge22" class="edge">
<title>pragma&#45;&gt;mdb</title>
<path fill="none" stroke="#000000" d="M838.2499,-289.3008C828.89,-279.6734 816.9881,-267.4314 806.763,-256.9142"/>
<polygon fill="#000000" stroke="#000000" points="809.1546,-254.3531 799.6743,-249.6229 804.1356,-259.2327 809.1546,-254.3531"/>
</g>
<!-- process&#45;&gt;data -->
<g id="edge23" class="edge">
<title>process&#45;&gt;data</title>
<path fill="none" stroke="#000000" d="M1409.4038,-161.2295C1266.3798,-158.1774 786.5785,-145.2304 729.4853,-108 707.8149,-93.8688 695.2458,-66.5556 688.4477,-45.7081"/>
<polygon fill="#000000" stroke="#000000" points="691.7851,-44.652 685.5594,-36.0793 685.0802,-46.6633 691.7851,-44.652"/>
</g>
<!-- readline -->
<g id="node19" class="node">
<title>readline</title>
<ellipse fill="#ffffff" stroke="#000000" cx="441.4853" cy="-234" rx="42.2719" ry="18"/>
<text text-anchor="middle" x="441.4853" y="-229.8" font-family="Times,serif" font-size="14.00" fill="#000000">readline</text>
</g>
<!-- readline&#45;&gt;iface -->
<g id="edge24" class="edge">
<title>readline&#45;&gt;iface</title>
<path fill="none" stroke="#000000" d="M481.0545,-227.6363C514.4366,-220.6283 561.9985,-206.625 595.4853,-180 616.3862,-163.3819 631.8416,-136.8827 641.3459,-116.9332"/>
<polygon fill="#000000" stroke="#000000" points="644.5741,-118.2894 645.5314,-107.7379 638.203,-115.3894 644.5741,-118.2894"/>
</g>
<!-- replace_part -->
<g id="node20" class="node">
<title>replace_part</title>
<ellipse fill="#ffffff" stroke="#000000" cx="1239.4853" cy="-378" rx="58.5059" ry="18"/>
<text text-anchor="middle" x="1239.4853" y="-373.8" font-family="Times,serif" font-size="14.00" fill="#000000">replace_part</text>
</g>
<!-- system_test -->
<g id="node21" class="node">
<title>system_test</title>
<ellipse fill="#ffffff" stroke="#000000" cx="2007.4853" cy="-234" rx="56.1937" ry="18"/>
<text text-anchor="middle" x="2007.4853" y="-229.8" font-family="Times,serif" font-size="14.00" fill="#000000">system_test</text>
</g>
<!-- system_test&#45;&gt;pattern -->
<g id="edge25" class="edge">
<title>system_test&#45;&gt;pattern</title>
<path fill="none" stroke="#000000" d="M2007.4853,-215.8314C2007.4853,-208.131 2007.4853,-198.9743 2007.4853,-190.4166"/>
<polygon fill="#000000" stroke="#000000" points="2010.9854,-190.4132 2007.4853,-180.4133 2003.9854,-190.4133 2010.9854,-190.4132"/>
</g>
<!-- system_test&#45;&gt;process -->
<g id="edge26" class="edge">
<title>system_test&#45;&gt;process</title>
<path fill="none" stroke="#000000" d="M1955.2408,-227.2588C1847.6088,-213.3708 1602.5135,-181.7456 1498.0759,-168.2698"/>
<polygon fill="#000000" stroke="#000000" points="1498.4866,-164.7938 1488.1209,-166.9852 1497.5907,-171.7363 1498.4866,-164.7938"/>
</g>
<!-- app/config_tester -->
<g id="node22" class="node">
<title>app/config_tester</title>
<polygon fill="none" stroke="#000000" points="2335.1721,-324 2221.7985,-324 2221.7985,-288 2335.1721,-288 2335.1721,-324"/>
<text text-anchor="middle" x="2278.4853" y="-301.8" font-family="Times,serif" font-size="14.00" fill="#000000">app/config_tester</text>
</g>
<!-- app/config_tester&#45;&gt;system_test -->
<g id="edge27" class="edge">
<title>app/config_tester&#45;&gt;system_test</title>
<path fill="none" stroke="#000000" d="M2221.6121,-290.4555C2218.5256,-289.6224 2215.468,-288.7996 2212.4853,-288 2161.0886,-274.2223 2102.3597,-258.7832 2060.9738,-247.9538"/>
<polygon fill="#000000" stroke="#000000" points="2061.6644,-244.5168 2051.1042,-245.3726 2059.8932,-251.289 2061.6644,-244.5168"/>
</g>
<!-- app/metashell -->
<g id="node23" class="node">
<title>app/metashell</title>
<polygon fill="none" stroke="#000000" points="906.2416,-468 812.729,-468 812.729,-432 906.2416,-432 906.2416,-468"/>
<text text-anchor="middle" x="859.4853" y="-445.8" font-family="Times,serif" font-size="14.00" fill="#000000">app/metashell</text>
</g>
<!-- app/metashell&#45;&gt;defaults -->
<g id="edge28" class="edge">
<title>app/metashell&#45;&gt;defaults</title>
<path fill="none" stroke="#000000" d="M906.3302,-438.1706C946.4184,-427.8067 1005.5514,-411.9466 1056.4853,-396 1059.5767,-395.0321 1062.7611,-393.9982 1065.9573,-392.9337"/>
<polygon fill="#000000" stroke="#000000" points="1067.1627,-396.2206 1075.5002,-389.6833 1064.9057,-389.5944 1067.1627,-396.2206"/>
</g>
<!-- app/metashell&#45;&gt;main_shell -->
<g id="edge29" class="edge">
<title>app/metashell&#45;&gt;main_shell</title>
<path fill="none" stroke="#000000" d="M859.9102,-431.6504C859.4555,-412.0857 856.0298,-381.0778 840.4853,-360 828.2109,-343.3562 809.1857,-331.1781 791.2249,-322.6461"/>
<polygon fill="#000000" stroke="#000000" points="792.5289,-319.3953 781.9709,-318.5124 789.6739,-325.7866 792.5289,-319.3953"/>
</g>
<!-- app/metashell&#45;&gt;readline -->
<g id="edge30" class="edge">
<title>app/metashell&#45;&gt;readline</title>
<path fill="none" stroke="#000000" d="M812.4425,-448.4595C693.2514,-444.0745 386.677,-429.6064 356.4853,-396 318.1401,-353.3179 376.2396,-290.2042 413.7629,-256.7488"/>
<polygon fill="#000000" stroke="#000000" points="416.1773,-259.2873 421.4156,-250.078 411.5776,-254.0107 416.1773,-259.2873"/>
</g>
<!-- app/reference_gen -->
<g id="node24" class="node">
<title>app/reference_gen</title>
<polygon fill="none" stroke="#000000" points="1167.3605,-468 1047.6101,-468 1047.6101,-432 1167.3605,-432 1167.3605,-468"/>
<text text-anchor="middle" x="1107.4853" y="-445.8" font-family="Times,serif" font-size="14.00" fill="#000000">app/reference_gen</text>
</g>
<!-- app/reference_gen&#45;&gt;defaults -->
<g id="edge31" class="edge">
<title>app/reference_gen&#45;&gt;defaults</title>
<path fill="none" stroke="#000000" d="M1107.4853,-431.8314C1107.4853,-424.131 1107.4853,-414.9743 1107.4853,-406.4166"/>
<polygon fill="#000000" stroke="#000000" points="1110.9854,-406.4132 1107.4853,-396.4133 1103.9854,-406.4133 1110.9854,-406.4132"/>
</g>
<!-- app/reference_gen&#45;&gt;replace_part -->
<g id="edge32" class="edge">
<title>app/reference_gen&#45;&gt;replace_part</title>
<path fill="none" stroke="#000000" d="M1140.7945,-431.8314C1159.3876,-421.6897 1182.6115,-409.0221 1201.8589,-398.5235"/>
<polygon fill="#000000" stroke="#000000" points="1203.5673,-401.5785 1210.6703,-393.7173 1200.2153,-395.4332 1203.5673,-401.5785"/>
</g>
<!-- app/stub/apple_clang -->
<g id="node25" class="node">
<title>app/stub/apple_clang</title>
<polygon fill="none" stroke="#000000" points="134.9559,-180 .0147,-180 .0147,-144 134.9559,-144 134.9559,-180"/>
<text text-anchor="middle" x="67.4853" y="-157.8" font-family="Times,serif" font-size="14.00" fill="#000000">app/stub/apple_clang</text>
</g>
<!-- app/stub/apple_clang&#45;&gt;compiler_stub -->
<g id="edge33" class="edge">
<title>app/stub/apple_clang&#45;&gt;compiler_stub</title>
<path fill="none" stroke="#000000" d="M135.0271,-145.9889C137.8845,-145.3161 140.7132,-144.6509 143.4853,-144 201.6218,-130.3496 267.9902,-114.917 314.8053,-104.0562"/>
<polygon fill="#000000" stroke="#000000" points="315.8332,-107.4107 324.7837,-101.7418 314.2515,-100.5918 315.8332,-107.4107"/>
</g>
<!-- app/stub/cl_de -->
<g id="node26" class="node">
<title>app/stub/cl_de</title>
<polygon fill="none" stroke="#000000" points="250.1367,-180 152.8339,-180 152.8339,-144 250.1367,-144 250.1367,-180"/>
<text text-anchor="middle" x="201.4853" y="-157.8" font-family="Times,serif" font-size="14.00" fill="#000000">app/stub/cl_de</text>
</g>
<!-- app/stub/cl_de&#45;&gt;compiler_stub -->
<g id="edge34" class="edge">
<title>app/stub/cl_de&#45;&gt;compiler_stub</title>
<path fill="none" stroke="#000000" d="M245.3928,-143.8314C271.1266,-133.1829 303.5898,-119.7499 329.6494,-108.9666"/>
<polygon fill="#000000" stroke="#000000" points="331.0344,-112.1814 338.9363,-105.1237 328.3579,-105.7132 331.0344,-112.1814"/>
</g>
<!-- app/stub/cl_en -->
<g id="node27" class="node">
<title>app/stub/cl_en</title>
<polygon fill="none" stroke="#000000" points="366.1367,-180 268.8339,-180 268.8339,-144 366.1367,-144 366.1367,-180"/>
<text text-anchor="middle" x="317.4853" y="-157.8" font-family="Times,serif" font-size="14.00" fill="#000000">app/stub/cl_en</text>
</g>
<!-- app/stub/cl_en&#45;&gt;compiler_stub -->
<g id="edge35" class="edge">
<title>app/stub/cl_en&#45;&gt;compiler_stub</title>
<path fill="none" stroke="#000000" d="M332.1211,-143.8314C338.9734,-135.3251 347.2571,-125.0419 354.7406,-115.752"/>
<polygon fill="#000000" stroke="#000000" points="357.5074,-117.8966 361.0551,-107.9134 352.0561,-113.5053 357.5074,-117.8966"/>
</g>
<!-- app/stub/clang -->
<g id="node28" class="node">
<title>app/stub/clang</title>
<polygon fill="none" stroke="#000000" points="482.1367,-180 384.8339,-180 384.8339,-144 482.1367,-144 482.1367,-180"/>
<text text-anchor="middle" x="433.4853" y="-157.8" font-family="Times,serif" font-size="14.00" fill="#000000">app/stub/clang</text>
</g>
<!-- app/stub/clang&#45;&gt;compiler_stub -->
<g id="edge36" class="edge">
<title>app/stub/clang&#45;&gt;compiler_stub</title>
<path fill="none" stroke="#000000" d="M418.8495,-143.8314C411.9972,-135.3251 403.7135,-125.0419 396.23,-115.752"/>
<polygon fill="#000000" stroke="#000000" points="398.9145,-113.5053 389.9155,-107.9134 393.4632,-117.8966 398.9145,-113.5053"/>
</g>
<!-- app/stub/gcc -->
<g id="node29" class="node">
<title>app/stub/gcc</title>
<polygon fill="none" stroke="#000000" points="586.7458,-180 500.2248,-180 500.2248,-144 586.7458,-144 586.7458,-180"/>
<text text-anchor="middle" x="543.4853" y="-157.8" font-family="Times,serif" font-size="14.00" fill="#000000">app/stub/gcc</text>
</g>
<!-- app/stub/gcc&#45;&gt;compiler_stub -->
<g id="edge37" class="edge">
<title>app/stub/gcc&#45;&gt;compiler_stub</title>
<path fill="none" stroke="#000000" d="M501.0918,-143.8314C476.4406,-133.2666 445.3937,-119.9607 420.3347,-109.2212"/>
<polygon fill="#000000" stroke="#000000" points="421.6198,-105.9641 411.0496,-105.2418 418.8623,-112.3981 421.6198,-105.9641"/>
</g>
<!-- test/system/auto_engine -->
<g id="node30" class="node">
<title>test/system/auto_engine</title>
<polygon fill="none" stroke="#000000" points="1704.5176,-252 1554.453,-252 1554.453,-216 1704.5176,-216 1704.5176,-252"/>
<text text-anchor="middle" x="1629.4853" y="-229.8" font-family="Times,serif" font-size="14.00" fill="#000000">test/system/auto_engine</text>
</g>
<!-- test/system/auto_engine&#45;&gt;process -->
<g id="edge38" class="edge">
<title>test/system/auto_engine&#45;&gt;process</title>
<path fill="none" stroke="#000000" d="M1584.0637,-215.8314C1554.8105,-204.1301 1517.151,-189.0663 1489.1126,-177.8509"/>
<polygon fill="#000000" stroke="#000000" points="1490.2106,-174.5205 1479.6259,-174.0563 1487.6108,-181.0199 1490.2106,-174.5205"/>
</g>
<!-- test/system/core -->
<g id="node31" class="node">
<title>test/system/core</title>
<polygon fill="none" stroke="#000000" points="1819.6819,-324 1713.2887,-324 1713.2887,-288 1819.6819,-288 1819.6819,-324"/>
<text text-anchor="middle" x="1766.4853" y="-301.8" font-family="Times,serif" font-size="14.00" fill="#000000">test/system/core</text>
</g>
<!-- test/system/core&#45;&gt;core -->
<g id="edge39" class="edge">
<title>test/system/core&#45;&gt;core</title>
<path fill="none" stroke="#000000" d="M1713.1069,-290.283C1710.195,-289.4944 1707.307,-288.7283 1704.4853,-288 1634.3294,-269.8912 1609.3973,-286.1326 1545.4853,-252 1524.964,-241.0405 1528.7068,-225.5333 1507.4853,-216 1453.8307,-191.8967 1046.2212,-170.0768 919.1756,-163.8024"/>
<polygon fill="#000000" stroke="#000000" points="919.2996,-160.3044 909.1402,-163.3104 918.9568,-167.296 919.2996,-160.3044"/>
</g>
<!-- test/system/core&#45;&gt;system_test -->
<g id="edge40" class="edge">
<title>test/system/core&#45;&gt;system_test</title>
<path fill="none" stroke="#000000" d="M1819.6721,-290.1102C1860.5227,-277.9058 1916.5699,-261.1614 1956.7859,-249.1467"/>
<polygon fill="#000000" stroke="#000000" points="1957.8137,-252.4926 1966.3933,-246.2764 1955.8099,-245.7855 1957.8137,-252.4926"/>
</g>
<!-- test/system/mdb -->
<g id="node32" class="node">
<title>test/system/mdb</title>
<polygon fill="none" stroke="#000000" points="2459.9825,-324 2352.9881,-324 2352.9881,-288 2459.9825,-288 2459.9825,-324"/>
<text text-anchor="middle" x="2406.4853" y="-301.8" font-family="Times,serif" font-size="14.00" fill="#000000">test/system/mdb</text>
</g>
<!-- test/system/mdb&#45;&gt;system_test -->
<g id="edge41" class="edge">
<title>test/system/mdb&#45;&gt;system_test</title>
<path fill="none" stroke="#000000" d="M2352.8222,-289.98C2350.0108,-289.2788 2347.2194,-288.6135 2344.4853,-288 2249.7603,-266.7459 2138.2487,-250.5787 2070.2363,-241.6928"/>
<polygon fill="#000000" stroke="#000000" points="2070.4809,-238.1954 2060.1142,-240.3822 2069.5819,-245.1374 2070.4809,-238.1954"/>
</g>
<!-- test/system/pdb -->
<g id="node33" class="node">
<title>test/system/pdb</title>
<polygon fill="none" stroke="#000000" points="1941.092,-324 1837.8786,-324 1837.8786,-288 1941.092,-288 1941.092,-324"/>
<text text-anchor="middle" x="1889.4853" y="-301.8" font-family="Times,serif" font-size="14.00" fill="#000000">test/system/pdb</text>
</g>
<!-- test/system/pdb&#45;&gt;system_test -->
<g id="edge42" class="edge">
<title>test/system/pdb&#45;&gt;system_test</title>
<path fill="none" stroke="#000000" d="M1919.2617,-287.8314C1935.5409,-277.8983 1955.7912,-265.5422 1972.7833,-255.1741"/>
<polygon fill="#000000" stroke="#000000" points="1974.6205,-258.1532 1981.3339,-249.9568 1970.9744,-252.1777 1974.6205,-258.1532"/>
</g>
<!-- test/system/pp -->
<g id="node34" class="node">
<title>test/system/pp</title>
<polygon fill="none" stroke="#000000" points="2055.592,-324 1959.3786,-324 1959.3786,-288 2055.592,-288 2055.592,-324"/>
<text text-anchor="middle" x="2007.4853" y="-301.8" font-family="Times,serif" font-size="14.00" fill="#000000">test/system/pp</text>
</g>
<!-- test/system/pp&#45;&gt;system_test -->
<g id="edge43" class="edge">
<title>test/system/pp&#45;&gt;system_test</title>
<path fill="none" stroke="#000000" d="M2007.4853,-287.8314C2007.4853,-280.131 2007.4853,-270.9743 2007.4853,-262.4166"/>
<polygon fill="#000000" stroke="#000000" points="2010.9854,-262.4132 2007.4853,-252.4133 2003.9854,-262.4133 2010.9854,-262.4132"/>
</g>
<!-- test/unit/core -->
<g id="node35" class="node">
<title>test/unit/core</title>
<polygon fill="none" stroke="#000000" points="562.0779,-396 472.8927,-396 472.8927,-360 562.0779,-360 562.0779,-396"/>
<text text-anchor="middle" x="517.4853" y="-373.8" font-family="Times,serif" font-size="14.00" fill="#000000">test/unit/core</text>
</g>
<!-- test/unit/core&#45;&gt;engine/constant -->
<g id="edge44" class="edge">
<title>test/unit/core&#45;&gt;engine/constant</title>
<path fill="none" stroke="#000000" d="M517.4853,-359.8314C517.4853,-352.131 517.4853,-342.9743 517.4853,-334.4166"/>
<polygon fill="#000000" stroke="#000000" points="520.9854,-334.4132 517.4853,-324.4133 513.9854,-334.4133 520.9854,-334.4132"/>
</g>
<!-- test/unit/core&#45;&gt;mock -->
<g id="edge45" class="edge">
<title>test/unit/core&#45;&gt;mock</title>
<path fill="none" stroke="#000000" d="M548.2711,-359.8314C566.7124,-348.9479 590.0827,-335.1557 608.5505,-324.2566"/>
<polygon fill="#000000" stroke="#000000" points="610.3464,-327.2608 617.1796,-319.164 606.7886,-321.2324 610.3464,-327.2608"/>
</g>
<!-- test/unit/data -->
<g id="node36" class="node">
<title>test/unit/data</title>
<polygon fill="none" stroke="#000000" points="826.8085,-108 738.1621,-108 738.1621,-72 826.8085,-72 826.8085,-108"/>
<text text-anchor="middle" x="782.4853" y="-85.8" font-family="Times,serif" font-size="14.00" fill="#000000">test/unit/data</text>
</g>
<!-- test/unit/data&#45;&gt;data -->
<g id="edge46" class="edge">
<title>test/unit/data&#45;&gt;data</title>
<path fill="none" stroke="#000000" d="M756.9987,-71.8314C742.2458,-61.3144 723.6825,-48.0812 708.6532,-37.3672"/>
<polygon fill="#000000" stroke="#000000" points="710.4425,-34.3445 700.2681,-31.3897 706.3792,-40.0445 710.4425,-34.3445"/>
</g>
<!-- test/unit/engine/clang -->
<g id="node37" class="node">
<title>test/unit/engine/clang</title>
<polygon fill="none" stroke="#000000" points="1210.5191,-324 1074.4515,-324 1074.4515,-288 1210.5191,-288 1210.5191,-324"/>
<text text-anchor="middle" x="1142.4853" y="-301.8" font-family="Times,serif" font-size="14.00" fill="#000000">test/unit/engine/clang</text>
</g>
<!-- test/unit/engine/clang&#45;&gt;engine/clang -->
<g id="edge47" class="edge">
<title>test/unit/engine/clang&#45;&gt;engine/clang</title>
<path fill="none" stroke="#000000" d="M1162.925,-287.8314C1173.1075,-278.7803 1185.5532,-267.7174 1196.5079,-257.9799"/>
<polygon fill="#000000" stroke="#000000" points="1199.0186,-260.4311 1204.1674,-251.1715 1194.368,-255.1992 1199.0186,-260.4311"/>
</g>
<!-- test/unit/engine/templight -->
<g id="node38" class="node">
<title>test/unit/engine/templight</title>
<polygon fill="none" stroke="#000000" points="1047.3661,-396 887.6045,-396 887.6045,-360 1047.3661,-360 1047.3661,-396"/>
<text text-anchor="middle" x="967.4853" y="-373.8" font-family="Times,serif" font-size="14.00" fill="#000000">test/unit/engine/templight</text>
</g>
<!-- test/unit/engine/templight&#45;&gt;engine/templight -->
<g id="edge48" class="edge">
<title>test/unit/engine/templight&#45;&gt;engine/templight</title>
<path fill="none" stroke="#000000" d="M1047.5866,-360.937C1105.8444,-348.5271 1183.8053,-331.92 1238.709,-320.2245"/>
<polygon fill="#000000" stroke="#000000" points="1239.6311,-323.6067 1248.6824,-318.1 1238.1727,-316.7603 1239.6311,-323.6067"/>
</g>
<!-- test/unit/engine/templight&#45;&gt;mock -->
<g id="edge49" class="edge">
<title>test/unit/engine/templight&#45;&gt;mock</title>
<path fill="none" stroke="#000000" d="M887.577,-364.9191C816.829,-352.9706 719.1271,-335.469 681.4853,-324 679.0285,-323.2514 676.5213,-322.4043 674.0159,-321.4956"/>
<polygon fill="#000000" stroke="#000000" points="675.059,-318.1454 664.471,-317.763 672.5096,-324.6647 675.059,-318.1454"/>
</g>
<!-- test/unit/engine/vc -->
<g id="node39" class="node">
<title>test/unit/engine/vc</title>
<polygon fill="none" stroke="#000000" points="1695.4139,-324 1575.5567,-324 1575.5567,-288 1695.4139,-288 1695.4139,-324"/>
<text text-anchor="middle" x="1635.4853" y="-301.8" font-family="Times,serif" font-size="14.00" fill="#000000">test/unit/engine/vc</text>
</g>
<!-- test/unit/engine/vc&#45;&gt;engine/vc -->
<g id="edge50" class="edge">
<title>test/unit/engine/vc&#45;&gt;engine/vc</title>
<path fill="none" stroke="#000000" d="M1588.5496,-287.8314C1559.0595,-276.4158 1521.302,-261.8 1492.5737,-250.6794"/>
<polygon fill="#000000" stroke="#000000" points="1493.7914,-247.3977 1483.2022,-247.0517 1491.2644,-253.9257 1493.7914,-247.3977"/>
</g>
<!-- test/unit/main_shell -->
<g id="node40" class="node">
<title>test/unit/main_shell</title>
<polygon fill="none" stroke="#000000" points="706.9251,-396 580.0455,-396 580.0455,-360 706.9251,-360 706.9251,-396"/>
<text text-anchor="middle" x="643.4853" y="-373.8" font-family="Times,serif" font-size="14.00" fill="#000000">test/unit/main_shell</text>
</g>
<!-- test/unit/main_shell&#45;&gt;engine/constant -->
<g id="edge51" class="edge">
<title>test/unit/main_shell&#45;&gt;engine/constant</title>
<path fill="none" stroke="#000000" d="M611.6902,-359.8314C594.6798,-350.1111 573.6089,-338.0706 555.7111,-327.8433"/>
<polygon fill="#000000" stroke="#000000" points="557.0981,-324.6048 546.6792,-322.6822 553.6251,-330.6825 557.0981,-324.6048"/>
</g>
<!-- test/unit/main_shell&#45;&gt;main_shell -->
<g id="edge52" class="edge">
<title>test/unit/main_shell&#45;&gt;main_shell</title>
<path fill="none" stroke="#000000" d="M668.7195,-359.8314C681.9441,-350.3097 698.261,-338.5615 712.2739,-328.4722"/>
<polygon fill="#000000" stroke="#000000" points="714.5827,-331.1227 720.653,-322.4393 710.4925,-325.442 714.5827,-331.1227"/>
</g>
<!-- test/unit/main_shell&#45;&gt;mock -->
<g id="edge53" class="edge">
<title>test/unit/main_shell&#45;&gt;mock</title>
<path fill="none" stroke="#000000" d="M642.4759,-359.8314C642.0481,-352.131 641.5394,-342.9743 641.064,-334.4166"/>
<polygon fill="#000000" stroke="#000000" points="644.5577,-334.2037 640.5083,-324.4133 637.5684,-334.592 644.5577,-334.2037"/>
</g>
<!-- test/unit/mdb -->
<g id="node41" class="node">
<title>test/unit/mdb</title>
<polygon fill="none" stroke="#000000" points="455.3788,-396 365.5918,-396 365.5918,-360 455.3788,-360 455.3788,-396"/>
<text text-anchor="middle" x="410.4853" y="-373.8" font-family="Times,serif" font-size="14.00" fill="#000000">test/unit/mdb</text>
</g>
<!-- test/unit/mdb&#45;&gt;engine/constant -->
<g id="edge54" class="edge">
<title>test/unit/mdb&#45;&gt;engine/constant</title>
<path fill="none" stroke="#000000" d="M437.4859,-359.8314C451.5627,-350.3591 468.914,-338.6835 483.8552,-328.6296"/>
<polygon fill="#000000" stroke="#000000" points="485.9883,-331.4129 492.3309,-322.9263 482.0804,-325.6053 485.9883,-331.4129"/>
</g>
<!-- test/unit/mdb&#45;&gt;mdb -->
<g id="edge55" class="edge">
<title>test/unit/mdb&#45;&gt;mdb</title>
<path fill="none" stroke="#000000" d="M410.3192,-359.8066C411.1872,-339.171 415.975,-306.0527 436.4853,-288 481.89,-248.0358 665.0011,-237.59 745.8233,-234.9067"/>
<polygon fill="#000000" stroke="#000000" points="746.182,-238.3974 756.0692,-234.5902 745.9659,-231.4007 746.182,-238.3974"/>
</g>
<!-- test/unit/pragma -->
<g id="node42" class="node">
<title>test/unit/pragma</title>
<polygon fill="none" stroke="#000000" points="831.9685,-396 725.0021,-396 725.0021,-360 831.9685,-360 831.9685,-396"/>
<text text-anchor="middle" x="778.4853" y="-373.8" font-family="Times,serif" font-size="14.00" fill="#000000">test/unit/pragma</text>
</g>
<!-- test/unit/pragma&#45;&gt;engine/constant -->
<g id="edge56" class="edge">
<title>test/unit/pragma&#45;&gt;engine/constant</title>
<path fill="none" stroke="#000000" d="M724.8815,-362.6371C721.7033,-361.741 718.553,-360.8565 715.4853,-360 668.821,-346.9709 615.8674,-332.5478 576.471,-321.8875"/>
<polygon fill="#000000" stroke="#000000" points="577.3261,-318.4931 566.7592,-319.2615 575.4989,-325.2505 577.3261,-318.4931"/>
</g>
<!-- test/unit/pragma&#45;&gt;main_shell -->
<g id="edge57" class="edge">
<title>test/unit/pragma&#45;&gt;main_shell</title>
<path fill="none" stroke="#000000" d="M769.6533,-359.8314C765.7272,-351.7547 761.0223,-342.0761 756.6914,-333.1668"/>
<polygon fill="#000000" stroke="#000000" points="759.713,-331.3769 752.1932,-323.9134 753.4174,-334.4373 759.713,-331.3769"/>
</g>
<!-- test/unit/pragma&#45;&gt;mock -->
<g id="edge58" class="edge">
<title>test/unit/pragma&#45;&gt;mock</title>
<path fill="none" stroke="#000000" d="M743.4097,-359.8314C721.6918,-348.5818 693.974,-334.2244 672.6265,-323.1667"/>
<polygon fill="#000000" stroke="#000000" points="674.0973,-319.9869 663.6079,-318.4952 670.8776,-326.2025 674.0973,-319.9869"/>
</g>
<!-- test/unit/pragma&#45;&gt;pragma -->
<g id="edge59" class="edge">
<title>test/unit/pragma&#45;&gt;pragma</title>
<path fill="none" stroke="#000000" d="M797.6633,-359.8314C807.4295,-350.5792 819.4148,-339.2247 829.8563,-329.3327"/>
<polygon fill="#000000" stroke="#000000" points="832.2803,-331.8576 837.1327,-322.4393 827.4661,-326.7759 832.2803,-331.8576"/>
</g>
<!-- test/unit/replace_part -->
<g id="node43" class="node">
<title>test/unit/replace_part</title>
<polygon fill="none" stroke="#000000" points="1319.6636,-468 1185.307,-468 1185.307,-432 1319.6636,-432 1319.6636,-468"/>
<text text-anchor="middle" x="1252.4853" y="-445.8" font-family="Times,serif" font-size="14.00" fill="#000000">test/unit/replace_part</text>
</g>
<!-- test/unit/replace_part&#45;&gt;replace_part -->
<g id="edge60" class="edge">
<title>test/unit/replace_part&#45;&gt;replace_part</title>
<path fill="none" stroke="#000000" d="M1249.2049,-431.8314C1247.8145,-424.131 1246.1612,-414.9743 1244.6161,-406.4166"/>
<polygon fill="#000000" stroke="#000000" points="1248.0311,-405.6322 1242.8099,-396.4133 1241.1425,-406.8761 1248.0311,-405.6322"/>
</g>
<!-- test/unit/system_test -->
<g id="node44" class="node">
<title>test/unit/system_test</title>
<polygon fill="none" stroke="#000000" points="2203.8139,-324 2073.1567,-324 2073.1567,-288 2203.8139,-288 2203.8139,-324"/>
<text text-anchor="middle" x="2138.4853" y="-301.8" font-family="Times,serif" font-size="14.00" fill="#000000">test/unit/system_test</text>
</g>
<!-- test/unit/system_test&#45;&gt;system_test -->
<g id="edge61" class="edge">
<title>test/unit/system_test&#45;&gt;system_test</title>
<path fill="none" stroke="#000000" d="M2105.4285,-287.8314C2087.0597,-277.7356 2064.1368,-265.1367 2045.0862,-254.6661"/>
<polygon fill="#000000" stroke="#000000" points="2046.5315,-251.4667 2036.082,-249.7173 2043.1598,-257.6012 2046.5315,-251.4667"/>
</g>
</g>
</svg>
