<?xml version="1.0" encoding="UTF-8" standalone="no"?>
<!DOCTYPE svg PUBLIC "-//W3C//DTD SVG 1.1//EN"
 "http://www.w3.org/Graphics/SVG/1.1/DTD/svg11.dtd">
<!-- Generated by graphviz version 2.40.1
 -->
<!-- Title: %3 Pages: 1 -->
<svg width="1044pt" height="404pt"
 viewBox="0.00 0.00 1044.20 404.00" xmlns="http://www.w3.org/2000/svg" xmlns:xlink="http://www.w3.org/1999/xlink">
<g id="graph0" class="graph" transform="scale(1 1) rotate(0) translate(4 400)">
<title>%3</title>
<polygon fill="#ffffff" stroke="transparent" points="-4,4 -4,-400 1040.2011,-400 1040.2011,4 -4,4"/>
<!-- boost -->
<g id="node1" class="node">
<title>boost</title>
<ellipse fill="#ffffff" stroke="#000000" cx="520.1478" cy="-18" rx="31.9224" ry="18"/>
<text text-anchor="middle" x="520.1478" y="-13.8" font-family="Times,serif" font-size="14.00" fill="#000000">boost</text>
</g>
<!-- core -->
<g id="node2" class="node">
<title>core</title>
<ellipse fill="#ffffff" stroke="#000000" cx="414.1478" cy="-234" rx="27.8073" ry="18"/>
<text text-anchor="middle" x="414.1478" y="-229.8" font-family="Times,serif" font-size="14.00" fill="#000000">core</text>
</g>
<!-- core&#45;&gt;boost -->
<g id="edge1" class="edge">
<title>core&#45;&gt;boost</title>
<path fill="none" stroke="#000000" d="M422.643,-216.6889C441.1339,-179.0095 485.1307,-89.3555 507.1409,-44.5045"/>
<polygon fill="#000000" stroke="#000000" points="510.3486,-45.9127 511.6121,-35.3935 504.0645,-42.8288 510.3486,-45.9127"/>
</g>
<!-- data -->
<g id="node3" class="node">
<title>data</title>
<ellipse fill="#ffffff" stroke="#000000" cx="366.1478" cy="-90" rx="27.2447" ry="18"/>
<text text-anchor="middle" x="366.1478" y="-85.8" font-family="Times,serif" font-size="14.00" fill="#000000">data</text>
</g>
<!-- core&#45;&gt;data -->
<g id="edge2" class="edge">
<title>core&#45;&gt;data</title>
<path fill="none" stroke="#000000" d="M408.262,-216.3428C400.0212,-191.6202 384.9681,-146.4608 375.2691,-117.3639"/>
<polygon fill="#000000" stroke="#000000" points="378.5644,-116.1817 372.0817,-107.8017 371.9236,-118.3953 378.5644,-116.1817"/>
</g>
<!-- iface -->
<g id="node4" class="node">
<title>iface</title>
<ellipse fill="#ffffff" stroke="#000000" cx="318.1478" cy="-162" rx="29.5916" ry="18"/>
<text text-anchor="middle" x="318.1478" y="-157.8" font-family="Times,serif" font-size="14.00" fill="#000000">iface</text>
</g>
<!-- core&#45;&gt;iface -->
<g id="edge3" class="edge">
<title>core&#45;&gt;iface</title>
<path fill="none" stroke="#000000" d="M395.638,-220.1177C381.2547,-209.3302 361.1035,-194.2168 344.9558,-182.106"/>
<polygon fill="#000000" stroke="#000000" points="347.0283,-179.2854 336.9283,-176.0854 342.8283,-184.8854 347.0283,-179.2854"/>
</g>
<!-- process -->
<g id="node6" class="node">
<title>process</title>
<ellipse fill="#ffffff" stroke="#000000" cx="520.1478" cy="-162" rx="39.9857" ry="18"/>
<text text-anchor="middle" x="520.1478" y="-157.8" font-family="Times,serif" font-size="14.00" fill="#000000">process</text>
</g>
<!-- core&#45;&gt;process -->
<g id="edge4" class="edge">
<title>core&#45;&gt;process</title>
<path fill="none" stroke="#000000" d="M433.5898,-220.7941C449.2042,-210.1881 471.4202,-195.098 489.4354,-182.8613"/>
<polygon fill="#000000" stroke="#000000" points="491.5888,-185.6296 497.8944,-177.1155 487.6556,-179.8391 491.5888,-185.6296"/>
</g>
<!-- data&#45;&gt;boost -->
<g id="edge5" class="edge">
<title>data&#45;&gt;boost</title>
<path fill="none" stroke="#000000" d="M388.5407,-79.5306C414.2093,-67.5297 456.5582,-47.7302 486.2677,-33.84"/>
<polygon fill="#000000" stroke="#000000" points="487.8559,-36.9612 495.4324,-29.5552 484.8912,-30.62 487.8559,-36.9612"/>
</g>
<!-- iface&#45;&gt;boost -->
<g id="edge6" class="edge">
<title>iface&#45;&gt;boost</title>
<path fill="none" stroke="#000000" d="M315.2064,-143.7879C313.0644,-123.7566 313.0274,-91.7891 330.1478,-72 349.5235,-49.6041 429.2383,-32.8482 479.0552,-24.3162"/>
<polygon fill="#000000" stroke="#000000" points="479.9129,-27.7215 489.1994,-22.6213 478.7593,-20.8172 479.9129,-27.7215"/>
</g>
<!-- iface&#45;&gt;data -->
<g id="edge7" class="edge">
<title>iface&#45;&gt;data</title>
<path fill="none" stroke="#000000" d="M329.2806,-145.3008C335.2782,-136.3043 342.798,-125.0247 349.4792,-115.0029"/>
<polygon fill="#000000" stroke="#000000" points="352.4405,-116.8706 355.0753,-106.6087 346.6161,-112.9877 352.4405,-116.8706"/>
</g>
<!-- pattern -->
<g id="node5" class="node">
<title>pattern</title>
<ellipse fill="#ffffff" stroke="#000000" cx="748.1478" cy="-234" rx="37.6986" ry="18"/>
<text text-anchor="middle" x="748.1478" y="-229.8" font-family="Times,serif" font-size="14.00" fill="#000000">pattern</text>
</g>
<!-- process&#45;&gt;boost -->
<g id="edge8" class="edge">
<title>process&#45;&gt;boost</title>
<path fill="none" stroke="#000000" d="M520.1478,-143.7623C520.1478,-119.201 520.1478,-75.2474 520.1478,-46.3541"/>
<polygon fill="#000000" stroke="#000000" points="523.6479,-46.0896 520.1478,-36.0896 516.6479,-46.0897 523.6479,-46.0896"/>
</g>
<!-- process&#45;&gt;data -->
<g id="edge9" class="edge">
<title>process&#45;&gt;data</title>
<path fill="none" stroke="#000000" d="M492.2595,-148.9613C465.5874,-136.4913 425.4222,-117.7127 397.6174,-104.7131"/>
<polygon fill="#000000" stroke="#000000" points="398.8815,-101.4405 388.3403,-100.3757 395.9168,-107.7817 398.8815,-101.4405"/>
</g>
<!-- readline -->
<g id="node7" class="node">
<title>readline</title>
<ellipse fill="#ffffff" stroke="#000000" cx="368.1478" cy="-306" rx="42.2719" ry="18"/>
<text text-anchor="middle" x="368.1478" y="-301.8" font-family="Times,serif" font-size="14.00" fill="#000000">readline</text>
</g>
<!-- readline&#45;&gt;core -->
<g id="edge10" class="edge">
<title>readline&#45;&gt;core</title>
<path fill="none" stroke="#000000" d="M379.2831,-288.5708C384.9018,-279.7763 391.8214,-268.9457 398.0109,-259.2577"/>
<polygon fill="#000000" stroke="#000000" points="400.9973,-261.0843 403.4318,-250.7729 395.0984,-257.3155 400.9973,-261.0843"/>
</g>
<!-- readline&#45;&gt;iface -->
<g id="edge11" class="edge">
<title>readline&#45;&gt;iface</title>
<path fill="none" stroke="#000000" d="M361.9163,-288.0535C353.2987,-263.2347 337.6695,-218.2224 327.6071,-189.2428"/>
<polygon fill="#000000" stroke="#000000" points="330.8872,-188.019 324.3007,-179.7204 324.2745,-190.3152 330.8872,-188.019"/>
</g>
<!-- replace_part -->
<g id="node8" class="node">
<title>replace_part</title>
<ellipse fill="#ffffff" stroke="#000000" cx="81.1478" cy="-234" rx="58.5059" ry="18"/>
<text text-anchor="middle" x="81.1478" y="-229.8" font-family="Times,serif" font-size="14.00" fill="#000000">replace_part</text>
</g>
<!-- replace_part&#45;&gt;boost -->
<g id="edge12" class="edge">
<title>replace_part&#45;&gt;boost</title>
<path fill="none" stroke="#000000" d="M83.6036,-215.9159C89.2743,-181.7398 106.6413,-107.8871 154.1478,-72 204.4529,-33.9988 392.8318,-22.5249 477.9405,-19.2403"/>
<polygon fill="#000000" stroke="#000000" points="478.1682,-22.7344 488.0334,-18.8707 477.912,-15.7391 478.1682,-22.7344"/>
</g>
<!-- system_test -->
<g id="node9" class="node">
<title>system_test</title>
<ellipse fill="#ffffff" stroke="#000000" cx="710.1478" cy="-306" rx="56.1937" ry="18"/>
<text text-anchor="middle" x="710.1478" y="-301.8" font-family="Times,serif" font-size="14.00" fill="#000000">system_test</text>
</g>
<!-- system_test&#45;&gt;boost -->
<g id="edge13" class="edge">
<title>system_test&#45;&gt;boost</title>
<path fill="none" stroke="#000000" d="M706.7523,-287.9042C697.2547,-238.9171 669.2036,-105.1747 640.1478,-72 619.3932,-48.3034 586.1836,-34.4677 559.9568,-26.7451"/>
<polygon fill="#000000" stroke="#000000" points="560.8583,-23.3631 550.2875,-24.0768 558.9961,-30.1109 560.8583,-23.3631"/>
</g>
<!-- system_test&#45;&gt;core -->
<g id="edge14" class="edge">
<title>system_test&#45;&gt;core</title>
<path fill="none" stroke="#000000" d="M665.1918,-295.0647C606.2404,-280.7252 503.9875,-255.8529 449.9674,-242.7129"/>
<polygon fill="#000000" stroke="#000000" points="450.6922,-239.2872 440.1483,-240.3244 449.0377,-246.0889 450.6922,-239.2872"/>
</g>
<!-- system_test&#45;&gt;pattern -->
<g id="edge15" class="edge">
<title>system_test&#45;&gt;pattern</title>
<path fill="none" stroke="#000000" d="M719.541,-288.2022C723.9127,-279.9192 729.2051,-269.8915 734.043,-260.7248"/>
<polygon fill="#000000" stroke="#000000" points="737.2903,-262.0706 738.8626,-251.593 731.0996,-258.8032 737.2903,-262.0706"/>
</g>
<!-- system_test&#45;&gt;process -->
<g id="edge16" class="edge">
<title>system_test&#45;&gt;process</title>
<path fill="none" stroke="#000000" d="M687.9805,-289.1995C653.4887,-263.0584 586.9847,-212.6554 548.8647,-183.7644"/>
<polygon fill="#000000" stroke="#000000" points="550.8126,-180.8491 540.7288,-177.5982 546.5844,-186.4279 550.8126,-180.8491"/>
</g>
<!-- app/metashell -->
<g id="node10" class="node">
<title>app/metashell</title>
<polygon fill="none" stroke="#000000" points="430.9041,-396 337.3915,-396 337.3915,-360 430.9041,-360 430.9041,-396"/>
<text text-anchor="middle" x="384.1478" y="-373.8" font-family="Times,serif" font-size="14.00" fill="#000000">app/metashell</text>
</g>
<!-- app/metashell&#45;&gt;boost -->
<g id="edge17" class="edge">
<title>app/metashell&#45;&gt;boost</title>
<path fill="none" stroke="#000000" d="M422.9988,-359.9346C482.1875,-331.1345 588.1478,-273.9916 588.1478,-234 588.1478,-234 588.1478,-234 588.1478,-162 588.1478,-116.5959 560.1634,-70.1851 540.0991,-42.7446"/>
<polygon fill="#000000" stroke="#000000" points="542.7213,-40.4084 533.9086,-34.5273 537.1303,-44.6204 542.7213,-40.4084"/>
</g>
<!-- app/metashell&#45;&gt;core -->
<g id="edge18" class="edge">
<title>app/metashell&#45;&gt;core</title>
<path fill="none" stroke="#000000" d="M399.7002,-359.8462C407.1524,-349.947 415.2825,-337.0702 419.1478,-324 425.1206,-303.8032 423.4314,-279.9674 420.4855,-261.9011"/>
<polygon fill="#000000" stroke="#000000" points="423.915,-261.1982 418.6543,-252.0017 417.0317,-262.4715 423.915,-261.1982"/>
</g>
<!-- app/metashell&#45;&gt;data -->
<g id="edge19" class="edge">
<title>app/metashell&#45;&gt;data</title>
<path fill="none" stroke="#000000" d="M406.1541,-359.8039C416.4306,-350.1773 427.9563,-337.5559 435.1478,-324 457.8881,-281.1345 464.7563,-262.5766 451.1478,-216 439.3131,-175.4946 409.0939,-136.4255 388.0779,-112.8052"/>
<polygon fill="#000000" stroke="#000000" points="390.6634,-110.4461 381.3435,-105.4074 385.487,-115.1584 390.6634,-110.4461"/>
</g>
<!-- app/metashell&#45;&gt;iface -->
<g id="edge20" class="edge">
<title>app/metashell&#45;&gt;iface</title>
<path fill="none" stroke="#000000" d="M350.5481,-359.8076C337.6073,-350.8793 324.2397,-338.8246 317.1478,-324 296.5574,-280.9593 303.6949,-223.8243 310.8537,-190.1743"/>
<polygon fill="#000000" stroke="#000000" points="314.335,-190.6495 313.1435,-180.1218 307.5099,-189.0947 314.335,-190.6495"/>
</g>
<!-- app/metashell&#45;&gt;readline -->
<g id="edge21" class="edge">
<title>app/metashell&#45;&gt;readline</title>
<path fill="none" stroke="#000000" d="M380.1103,-359.8314C378.3991,-352.131 376.3643,-342.9743 374.4626,-334.4166"/>
<polygon fill="#000000" stroke="#000000" points="377.8257,-333.4159 372.2396,-324.4133 370.9923,-334.9344 377.8257,-333.4159"/>
</g>
<!-- app/reference_gen -->
<g id="node11" class="node">
<title>app/reference_gen</title>
<polygon fill="none" stroke="#000000" points="164.023,-324 44.2726,-324 44.2726,-288 164.023,-288 164.023,-324"/>
<text text-anchor="middle" x="104.1478" y="-301.8" font-family="Times,serif" font-size="14.00" fill="#000000">app/reference_gen</text>
</g>
<!-- app/reference_gen&#45;&gt;boost -->
<g id="edge22" class="edge">
<title>app/reference_gen&#45;&gt;boost</title>
<path fill="none" stroke="#000000" d="M53.6037,-287.8142C37.7951,-279.4611 22.147,-267.8046 13.1478,-252 -31.22,-174.0804 49.5972,-113.2241 119.1478,-72 179.1644,-36.4268 387.4671,-23.5467 477.8069,-19.5606"/>
<polygon fill="#000000" stroke="#000000" points="478.1243,-23.0503 487.9663,-19.1281 477.8265,-16.0567 478.1243,-23.0503"/>
</g>
<!-- app/reference_gen&#45;&gt;core -->
<g id="edge23" class="edge">
<title>app/reference_gen&#45;&gt;core</title>
<path fill="none" stroke="#000000" d="M163.9189,-292.1177C227.423,-277.3683 325.7464,-254.5319 378.2378,-242.3404"/>
<polygon fill="#000000" stroke="#000000" points="379.1522,-245.7213 388.1011,-240.0496 377.5685,-238.9027 379.1522,-245.7213"/>
</g>
<!-- app/reference_gen&#45;&gt;data -->
<g id="edge24" class="edge">
<title>app/reference_gen&#45;&gt;data</title>
<path fill="none" stroke="#000000" d="M119.9007,-287.7633C152.4246,-250.3794 226.5147,-166.6635 257.1478,-144 280.5141,-126.7127 310.2614,-112.4053 332.7747,-102.8704"/>
<polygon fill="#000000" stroke="#000000" points="334.3435,-106.0093 342.25,-98.9568 331.6712,-99.5395 334.3435,-106.0093"/>
</g>
<!-- app/reference_gen&#45;&gt;replace_part -->
<g id="edge25" class="edge">
<title>app/reference_gen&#45;&gt;replace_part</title>
<path fill="none" stroke="#000000" d="M98.3439,-287.8314C95.857,-280.0463 92.8947,-270.7729 90.1353,-262.1347"/>
<polygon fill="#000000" stroke="#000000" points="93.4068,-260.874 87.0298,-252.4133 86.7388,-263.0041 93.4068,-260.874"/>
</g>
<!-- test/system/core -->
<g id="node12" class="node">
<title>test/system/core</title>
<polygon fill="none" stroke="#000000" points="555.3444,-396 448.9512,-396 448.9512,-360 555.3444,-360 555.3444,-396"/>
<text text-anchor="middle" x="502.1478" y="-373.8" font-family="Times,serif" font-size="14.00" fill="#000000">test/system/core</text>
</g>
<!-- test/system/core&#45;&gt;boost -->
<g id="edge26" class="edge">
<title>test/system/core&#45;&gt;boost</title>
<path fill="none" stroke="#000000" d="M553.8963,-359.9127C571.4523,-351.4639 589.7409,-339.7205 602.1478,-324 627.7946,-291.5036 626.1478,-275.3978 626.1478,-234 626.1478,-234 626.1478,-234 626.1478,-162 626.1478,-120.6022 626.3535,-105.5836 602.1478,-72 590.2063,-55.4321 571.4811,-42.5441 554.9377,-33.5206"/>
<polygon fill="#000000" stroke="#000000" points="556.5177,-30.3974 546.0284,-28.9063 553.2984,-36.6132 556.5177,-30.3974"/>
</g>
<!-- test/system/core&#45;&gt;system_test -->
<g id="edge27" class="edge">
<title>test/system/core&#45;&gt;system_test</title>
<path fill="none" stroke="#000000" d="M554.3665,-359.9243C587.4108,-348.4859 629.8189,-333.8062 662.0421,-322.652"/>
<polygon fill="#000000" stroke="#000000" points="663.3889,-325.8896 671.6938,-319.311 661.099,-319.2747 663.3889,-325.8896"/>
</g>
<!-- test/system/mdb -->
<g id="node13" class="node">
<title>test/system/mdb</title>
<polygon fill="none" stroke="#000000" points="800.645,-396 693.6506,-396 693.6506,-360 800.645,-360 800.645,-396"/>
<text text-anchor="middle" x="747.1478" y="-373.8" font-family="Times,serif" font-size="14.00" fill="#000000">test/system/mdb</text>
</g>
<!-- test/system/mdb&#45;&gt;boost -->
<g id="edge28" class="edge">
<title>test/system/mdb&#45;&gt;boost</title>
<path fill="none" stroke="#000000" d="M766.8621,-359.5704C791.972,-333.996 832.1478,-285.0936 832.1478,-234 832.1478,-234 832.1478,-234 832.1478,-162 832.1478,-102.655 643.7087,-48.5788 559.7237,-27.4247"/>
<polygon fill="#000000" stroke="#000000" points="560.3304,-23.969 549.7813,-24.9516 558.6407,-30.762 560.3304,-23.969"/>
</g>
<!-- test/system/mdb&#45;&gt;system_test -->
<g id="edge29" class="edge">
<title>test/system/mdb&#45;&gt;system_test</title>
<path fill="none" stroke="#000000" d="M737.8111,-359.8314C733.6165,-351.6688 728.581,-341.87 723.9625,-332.8827"/>
<polygon fill="#000000" stroke="#000000" points="727.037,-331.208 719.3533,-323.9134 720.811,-334.4075 727.037,-331.208"/>
</g>
<!-- test/system/pdb -->
<g id="node14" class="node">
<title>test/system/pdb</title>
<polygon fill="none" stroke="#000000" points="921.7544,-396 818.5411,-396 818.5411,-360 921.7544,-360 921.7544,-396"/>
<text text-anchor="middle" x="870.1478" y="-373.8" font-family="Times,serif" font-size="14.00" fill="#000000">test/system/pdb</text>
</g>
<!-- test/system/pdb&#45;&gt;boost -->
<g id="edge30" class="edge">
<title>test/system/pdb&#45;&gt;boost</title>
<path fill="none" stroke="#000000" d="M870.1478,-359.8146C870.1478,-332.4983 870.1478,-279.25 870.1478,-234 870.1478,-234 870.1478,-234 870.1478,-162 870.1478,-98.8326 816.9296,-99.6758 760.1478,-72 695.2746,-40.3804 611.4751,-26.9756 562.0006,-21.516"/>
<polygon fill="#000000" stroke="#000000" points="562.2934,-18.0277 551.9834,-20.4679 561.5649,-24.9896 562.2934,-18.0277"/>
</g>
<!-- test/system/pdb&#45;&gt;system_test -->
<g id="edge31" class="edge">
<title>test/system/pdb&#45;&gt;system_test</title>
<path fill="none" stroke="#000000" d="M829.773,-359.8314C806.0722,-349.166 776.1637,-335.7072 752.1815,-324.9152"/>
<polygon fill="#000000" stroke="#000000" points="753.5282,-321.6832 742.9727,-320.7712 750.6557,-328.0667 753.5282,-321.6832"/>
</g>
<!-- test/system/pp -->
<g id="node15" class="node">
<title>test/system/pp</title>
<polygon fill="none" stroke="#000000" points="1036.2544,-396 940.0411,-396 940.0411,-360 1036.2544,-360 1036.2544,-396"/>
<text text-anchor="middle" x="988.1478" y="-373.8" font-family="Times,serif" font-size="14.00" fill="#000000">test/system/pp</text>
</g>
<!-- test/system/pp&#45;&gt;boost -->
<g id="edge32" class="edge">
<title>test/system/pp&#45;&gt;boost</title>
<path fill="none" stroke="#000000" d="M979.6648,-359.81C967.9232,-332.9218 948.1478,-280.7039 948.1478,-234 948.1478,-234 948.1478,-234 948.1478,-162 948.1478,-90.6269 881.2161,-99.0017 815.1478,-72 729.6706,-37.066 621.0438,-24.6182 562.3667,-20.2669"/>
<polygon fill="#000000" stroke="#000000" points="562.5732,-16.7729 552.3536,-19.5676 562.0854,-23.7559 562.5732,-16.7729"/>
</g>
<!-- test/system/pp&#45;&gt;pattern -->
<g id="edge33" class="edge">
<title>test/system/pp&#45;&gt;pattern</title>
<path fill="none" stroke="#000000" d="M957.7516,-359.7623C912.3434,-332.5173 827.1655,-281.4106 780.5932,-253.4673"/>
<polygon fill="#000000" stroke="#000000" points="782.1924,-250.3451 771.8167,-248.2014 778.5909,-256.3476 782.1924,-250.3451"/>
</g>
<!-- test/system/pp&#45;&gt;system_test -->
<g id="edge34" class="edge">
<title>test/system/pp&#45;&gt;system_test</title>
<path fill="none" stroke="#000000" d="M940.0181,-362.5338C937.0231,-361.6544 934.0483,-360.8026 931.1478,-360 864.6545,-341.6003 847.1151,-340.5916 780.1478,-324 774.8191,-322.6798 769.2673,-321.2851 763.7243,-319.88"/>
<polygon fill="#000000" stroke="#000000" points="764.361,-316.4304 753.8064,-317.3532 762.6328,-323.2138 764.361,-316.4304"/>
</g>
<!-- test/system/self -->
<g id="node16" class="node">
<title>test/system/self</title>
<polygon fill="none" stroke="#000000" points="675.4653,-396 572.8303,-396 572.8303,-360 675.4653,-360 675.4653,-396"/>
<text text-anchor="middle" x="624.1478" y="-373.8" font-family="Times,serif" font-size="14.00" fill="#000000">test/system/self</text>
</g>
<!-- test/system/self&#45;&gt;system_test -->
<g id="edge35" class="edge">
<title>test/system/self&#45;&gt;system_test</title>
<path fill="none" stroke="#000000" d="M645.8492,-359.8314C656.846,-350.6247 670.3292,-339.3365 682.1034,-329.479"/>
<polygon fill="#000000" stroke="#000000" points="684.5095,-332.0294 689.9303,-322.9263 680.0159,-326.662 684.5095,-332.0294"/>
</g>
<!-- test/unit -->
<g id="node17" class="node">
<title>test/unit</title>
<polygon fill="none" stroke="#000000" points="269.7601,-324 208.5355,-324 208.5355,-288 269.7601,-288 269.7601,-324"/>
<text text-anchor="middle" x="239.1478" y="-301.8" font-family="Times,serif" font-size="14.00" fill="#000000">test/unit</text>
</g>
<!-- test/unit&#45;&gt;boost -->
<g id="edge36" class="edge">
<title>test/unit&#45;&gt;boost</title>
<path fill="none" stroke="#000000" d="M237.8591,-287.9913C236.8568,-269.7658 236.0932,-240.8127 239.1478,-216 247.9149,-144.7836 252.3746,-111.6965 312.1478,-72 362.9307,-38.2741 433.6261,-25.6017 478.1252,-20.8467"/>
<polygon fill="#000000" stroke="#000000" points="478.688,-24.3083 488.2987,-19.8489 478.0048,-17.3418 478.688,-24.3083"/>
</g>
<!-- test/unit&#45;&gt;core -->
<g id="edge37" class="edge">
<title>test/unit&#45;&gt;core</title>
<path fill="none" stroke="#000000" d="M270.0314,-293.2936C301.2438,-280.4519 349.2998,-260.6803 381.2229,-247.5462"/>
<polygon fill="#000000" stroke="#000000" points="382.6595,-250.7399 390.5756,-243.6983 379.996,-244.2664 382.6595,-250.7399"/>
</g>
<!-- test/unit&#45;&gt;data -->
<g id="edge38" class="edge">
<title>test/unit&#45;&gt;data</title>
<path fill="none" stroke="#000000" d="M239.3074,-287.8732C240.4572,-255.8352 246.8635,-188.4011 279.1478,-144 292.5907,-125.5117 314.4788,-111.9725 332.9366,-103.0751"/>
<polygon fill="#000000" stroke="#000000" points="334.5675,-106.1781 342.2133,-98.8438 331.6625,-99.8093 334.5675,-106.1781"/>
</g>
<!-- test/unit&#45;&gt;iface -->
<g id="edge39" class="edge">
<title>test/unit&#45;&gt;iface</title>
<path fill="none" stroke="#000000" d="M249.1532,-287.7623C262.9551,-262.6045 287.9189,-217.1008 303.7326,-188.2758"/>
<polygon fill="#000000" stroke="#000000" points="306.974,-189.644 308.7154,-179.1933 300.8369,-186.2771 306.974,-189.644"/>
</g>
<!-- test/unit&#45;&gt;replace_part -->
<g id="edge40" class="edge">
<title>test/unit&#45;&gt;replace_part</title>
<path fill="none" stroke="#000000" d="M208.3087,-291.9468C184.0476,-280.8911 149.9872,-265.3699 123.2226,-253.1733"/>
<polygon fill="#000000" stroke="#000000" points="124.639,-249.9726 114.0879,-249.0107 121.7363,-256.3424 124.639,-249.9726"/>
</g>
</g>
</svg>
