<?xml version="1.0" encoding="UTF-8" standalone="no"?>
<!DOCTYPE svg PUBLIC "-//W3C//DTD SVG 1.1//EN"
 "http://www.w3.org/Graphics/SVG/1.1/DTD/svg11.dtd">
<!-- Generated by graphviz version 2.40.1
 -->
<!-- Title: %3 Pages: 1 -->
<svg width="2540pt" height="476pt"
 viewBox="0.00 0.00 2540.28 476.00" xmlns="http://www.w3.org/2000/svg" xmlns:xlink="http://www.w3.org/1999/xlink">
<g id="graph0" class="graph" transform="scale(1 1) rotate(0) translate(4 472)">
<title>%3</title>
<polygon fill="#ffffff" stroke="transparent" points="-4,4 -4,-472 2536.2847,-472 2536.2847,4 -4,4"/>
<!-- core -->
<g id="node1" class="node">
<title>core</title>
<ellipse fill="#ffffff" stroke="#000000" cx="979.1956" cy="-162" rx="27.8073" ry="18"/>
<text text-anchor="middle" x="979.1956" y="-157.8" font-family="Times,serif" font-size="14.00" fill="#000000">core</text>
</g>
<!-- data -->
<g id="node2" class="node">
<title>data</title>
<ellipse fill="#ffffff" stroke="#000000" cx="1235.1956" cy="-18" rx="27.2447" ry="18"/>
<text text-anchor="middle" x="1235.1956" y="-13.8" font-family="Times,serif" font-size="14.00" fill="#000000">data</text>
</g>
<!-- core&#45;&gt;data -->
<g id="edge1" class="edge">
<title>core&#45;&gt;data</title>
<path fill="none" stroke="#000000" d="M1000.1451,-150.2159C1045.5435,-124.6793 1153.117,-64.1692 1205.5021,-34.7026"/>
<polygon fill="#000000" stroke="#000000" points="1207.3158,-37.6982 1214.3156,-29.745 1203.8839,-31.5971 1207.3158,-37.6982"/>
</g>
<!-- iface -->
<g id="node10" class="node">
<title>iface</title>
<ellipse fill="#ffffff" stroke="#000000" cx="677.1956" cy="-90" rx="29.5916" ry="18"/>
<text text-anchor="middle" x="677.1956" y="-85.8" font-family="Times,serif" font-size="14.00" fill="#000000">iface</text>
</g>
<!-- core&#45;&gt;iface -->
<g id="edge2" class="edge">
<title>core&#45;&gt;iface</title>
<path fill="none" stroke="#000000" d="M953.1859,-155.799C899.6516,-143.0359 776.9651,-113.7861 714.7904,-98.963"/>
<polygon fill="#000000" stroke="#000000" points="715.5306,-95.5414 704.9915,-96.6268 713.9072,-102.3506 715.5306,-95.5414"/>
</g>
<!-- process -->
<g id="node16" class="node">
<title>process</title>
<ellipse fill="#ffffff" stroke="#000000" cx="1563.1956" cy="-90" rx="39.9857" ry="18"/>
<text text-anchor="middle" x="1563.1956" y="-85.8" font-family="Times,serif" font-size="14.00" fill="#000000">process</text>
</g>
<!-- core&#45;&gt;process -->
<g id="edge3" class="edge">
<title>core&#45;&gt;process</title>
<path fill="none" stroke="#000000" d="M1006.5798,-158.6239C1098.4081,-147.3026 1396.2574,-110.5814 1514.3312,-96.0244"/>
<polygon fill="#000000" stroke="#000000" points="1515.0236,-99.4656 1524.5202,-94.7682 1514.167,-92.5182 1515.0236,-99.4656"/>
</g>
<!-- defaults -->
<g id="node3" class="node">
<title>defaults</title>
<ellipse fill="#ffffff" stroke="#000000" cx="1271.1956" cy="-378" rx="41.7095" ry="18"/>
<text text-anchor="middle" x="1271.1956" y="-373.8" font-family="Times,serif" font-size="14.00" fill="#000000">defaults</text>
</g>
<!-- defaults&#45;&gt;core -->
<g id="edge4" class="edge">
<title>defaults&#45;&gt;core</title>
<path fill="none" stroke="#000000" d="M1238.0231,-367.136C1212.0965,-357.8209 1175.7851,-342.9173 1147.1956,-324 1127.7939,-311.1622 1126.2876,-303.7828 1109.1956,-288 1091.6238,-271.7741 1086.5466,-268.4618 1069.1956,-252 1045.631,-229.643 1019.4534,-203.2862 1001.4336,-184.8948"/>
<polygon fill="#000000" stroke="#000000" points="1003.7341,-182.2411 994.2417,-177.5353 998.7277,-187.1336 1003.7341,-182.2411"/>
</g>
<!-- engine/gcc -->
<g id="node5" class="node">
<title>engine/gcc</title>
<ellipse fill="#ffffff" stroke="#000000" cx="1209.1956" cy="-306" rx="52.7295" ry="18"/>
<text text-anchor="middle" x="1209.1956" y="-301.8" font-family="Times,serif" font-size="14.00" fill="#000000">engine/gcc</text>
</g>
<!-- defaults&#45;&gt;engine/gcc -->
<g id="edge5" class="edge">
<title>defaults&#45;&gt;engine/gcc</title>
<path fill="none" stroke="#000000" d="M1256.5025,-360.937C1248.8169,-352.0119 1239.262,-340.9159 1230.7555,-331.0373"/>
<polygon fill="#000000" stroke="#000000" points="1233.3914,-328.7345 1224.2139,-323.4407 1228.087,-333.3022 1233.3914,-328.7345"/>
</g>
<!-- engine/null -->
<g id="node6" class="node">
<title>engine/null</title>
<ellipse fill="#ffffff" stroke="#000000" cx="1334.1956" cy="-306" rx="54.4739" ry="18"/>
<text text-anchor="middle" x="1334.1956" y="-301.8" font-family="Times,serif" font-size="14.00" fill="#000000">engine/null</text>
</g>
<!-- defaults&#45;&gt;engine/null -->
<g id="edge6" class="edge">
<title>defaults&#45;&gt;engine/null</title>
<path fill="none" stroke="#000000" d="M1286.1257,-360.937C1293.9352,-352.0119 1303.6442,-340.9159 1312.2879,-331.0373"/>
<polygon fill="#000000" stroke="#000000" points="1314.9839,-333.2712 1318.935,-323.4407 1309.7159,-328.6617 1314.9839,-333.2712"/>
</g>
<!-- engine/templight -->
<g id="node7" class="node">
<title>engine/templight</title>
<ellipse fill="#ffffff" stroke="#000000" cx="1235.1956" cy="-234" rx="76.4632" ry="18"/>
<text text-anchor="middle" x="1235.1956" y="-229.8" font-family="Times,serif" font-size="14.00" fill="#000000">engine/templight</text>
</g>
<!-- defaults&#45;&gt;engine/templight -->
<g id="edge7" class="edge">
<title>defaults&#45;&gt;engine/templight</title>
<path fill="none" stroke="#000000" d="M1311.0042,-372.5961C1340.2989,-366.3073 1378.1987,-352.8095 1397.1956,-324 1406.0034,-310.6425 1406.551,-300.9799 1397.1956,-288 1385.6099,-271.9257 1341.9545,-257.9151 1302.879,-248.1956"/>
<polygon fill="#000000" stroke="#000000" points="1303.6085,-244.7711 1293.0655,-245.8183 1301.9604,-251.5744 1303.6085,-244.7711"/>
</g>
<!-- engine/vc -->
<g id="node8" class="node">
<title>engine/vc</title>
<ellipse fill="#ffffff" stroke="#000000" cx="1592.1956" cy="-234" rx="48.6559" ry="18"/>
<text text-anchor="middle" x="1592.1956" y="-229.8" font-family="Times,serif" font-size="14.00" fill="#000000">engine/vc</text>
</g>
<!-- defaults&#45;&gt;engine/vc -->
<g id="edge8" class="edge">
<title>defaults&#45;&gt;engine/vc</title>
<path fill="none" stroke="#000000" d="M1306.6969,-368.32C1340.0242,-358.7328 1390.9369,-342.7911 1433.1956,-324 1478.4361,-303.8829 1527.6195,-274.8382 1559.1183,-255.2319"/>
<polygon fill="#000000" stroke="#000000" points="1561.2962,-257.9974 1567.9085,-249.7192 1557.5771,-252.0671 1561.2962,-257.9974"/>
</g>
<!-- engine/wave -->
<g id="node9" class="node">
<title>engine/wave</title>
<ellipse fill="#ffffff" stroke="#000000" cx="1389.1956" cy="-234" rx="59.6723" ry="18"/>
<text text-anchor="middle" x="1389.1956" y="-229.8" font-family="Times,serif" font-size="14.00" fill="#000000">engine/wave</text>
</g>
<!-- defaults&#45;&gt;engine/wave -->
<g id="edge9" class="edge">
<title>defaults&#45;&gt;engine/wave</title>
<path fill="none" stroke="#000000" d="M1307.7419,-369.3343C1346.1141,-359.4084 1402.6108,-342.1598 1415.1956,-324 1428.3912,-304.9588 1418.8529,-279.2436 1407.7944,-260.1765"/>
<polygon fill="#000000" stroke="#000000" points="1410.7602,-258.3179 1402.5102,-251.6706 1404.8142,-262.0119 1410.7602,-258.3179"/>
</g>
<!-- defaults&#45;&gt;iface -->
<g id="edge10" class="edge">
<title>defaults&#45;&gt;iface</title>
<path fill="none" stroke="#000000" d="M1229.5591,-376.6673C1108.4715,-372.4112 762.6382,-357.4183 725.1956,-324 666.3929,-271.5174 668.4449,-167.9898 673.4041,-118.1352"/>
<polygon fill="#000000" stroke="#000000" points="676.8968,-118.3939 674.5198,-108.0692 669.9394,-117.6227 676.8968,-118.3939"/>
</g>
<!-- pragma -->
<g id="node15" class="node">
<title>pragma</title>
<ellipse fill="#ffffff" stroke="#000000" cx="952.1956" cy="-306" rx="39.9876" ry="18"/>
<text text-anchor="middle" x="952.1956" y="-301.8" font-family="Times,serif" font-size="14.00" fill="#000000">pragma</text>
</g>
<!-- defaults&#45;&gt;pragma -->
<g id="edge11" class="edge">
<title>defaults&#45;&gt;pragma</title>
<path fill="none" stroke="#000000" d="M1231.8461,-372.0906C1178.8722,-363.6918 1081.9444,-346.7588 1001.1956,-324 998.1957,-323.1545 995.1176,-322.2113 992.0363,-321.212"/>
<polygon fill="#000000" stroke="#000000" points="992.8706,-317.7985 982.2761,-317.8796 990.6088,-324.423 992.8706,-317.7985"/>
</g>
<!-- engine/constant -->
<g id="node4" class="node">
<title>engine/constant</title>
<ellipse fill="#ffffff" stroke="#000000" cx="381.1956" cy="-234" rx="71.7892" ry="18"/>
<text text-anchor="middle" x="381.1956" y="-229.8" font-family="Times,serif" font-size="14.00" fill="#000000">engine/constant</text>
</g>
<!-- engine/constant&#45;&gt;core -->
<g id="edge12" class="edge">
<title>engine/constant&#45;&gt;core</title>
<path fill="none" stroke="#000000" d="M434.7161,-221.9238C445.437,-219.752 456.6469,-217.6559 467.1956,-216 643.5395,-188.3188 856.3374,-170.9635 941.3946,-164.6694"/>
<polygon fill="#000000" stroke="#000000" points="941.8768,-168.1436 951.5944,-163.9226 941.3655,-161.1622 941.8768,-168.1436"/>
</g>
<!-- engine/constant&#45;&gt;data -->
<g id="edge13" class="edge">
<title>engine/constant&#45;&gt;data</title>
<path fill="none" stroke="#000000" d="M388.8565,-215.8469C404.7081,-180.8629 444.7532,-104.6804 505.1956,-72 566.4119,-38.9012 1057.3157,-22.9093 1197.7752,-18.9818"/>
<polygon fill="#000000" stroke="#000000" points="1198.1259,-22.4736 1208.0256,-18.6994 1197.933,-15.4763 1198.1259,-22.4736"/>
</g>
<!-- engine/constant&#45;&gt;iface -->
<g id="edge14" class="edge">
<title>engine/constant&#45;&gt;iface</title>
<path fill="none" stroke="#000000" d="M414.289,-217.9005C471.3328,-190.1495 587.5144,-133.6287 644.3715,-105.9685"/>
<polygon fill="#000000" stroke="#000000" points="646.1595,-108.9909 653.6207,-101.4689 643.0972,-102.6962 646.1595,-108.9909"/>
</g>
<!-- engine/gcc&#45;&gt;core -->
<g id="edge15" class="edge">
<title>engine/gcc&#45;&gt;core</title>
<path fill="none" stroke="#000000" d="M1180.9159,-290.4956C1162.4569,-280.1103 1138.0109,-265.8509 1117.1956,-252 1094.9948,-237.2272 1091.3249,-230.8797 1069.1956,-216 1049.623,-202.8394 1026.8346,-189.1823 1009.086,-178.8952"/>
<polygon fill="#000000" stroke="#000000" points="1010.7207,-175.7978 1000.3077,-173.8434 1007.2292,-181.8649 1010.7207,-175.7978"/>
</g>
<!-- engine/null&#45;&gt;core -->
<g id="edge16" class="edge">
<title>engine/null&#45;&gt;core</title>
<path fill="none" stroke="#000000" d="M1292.9191,-294.1125C1239.6704,-278.7446 1153.4338,-253.7324 1150.1956,-252 1128.2184,-240.2425 1128.4688,-228.9878 1107.1956,-216 1077.4422,-197.8349 1040.4842,-182.9683 1013.9412,-173.466"/>
<polygon fill="#000000" stroke="#000000" points="1014.9098,-170.0968 1004.3149,-170.0911 1012.5938,-176.7025 1014.9098,-170.0968"/>
</g>
<!-- engine/templight&#45;&gt;core -->
<g id="edge17" class="edge">
<title>engine/templight&#45;&gt;core</title>
<path fill="none" stroke="#000000" d="M1185.8362,-220.1177C1135.5579,-205.9769 1058.8495,-184.4027 1014.4046,-171.9025"/>
<polygon fill="#000000" stroke="#000000" points="1015.2077,-168.4927 1004.6336,-169.1544 1013.3125,-175.2312 1015.2077,-168.4927"/>
</g>
<!-- engine/templight&#45;&gt;data -->
<g id="edge18" class="edge">
<title>engine/templight&#45;&gt;data</title>
<path fill="none" stroke="#000000" d="M1235.1956,-215.9555C1235.1956,-178.3938 1235.1956,-91.5541 1235.1956,-46.4103"/>
<polygon fill="#000000" stroke="#000000" points="1238.6957,-46.145 1235.1956,-36.1451 1231.6957,-46.1451 1238.6957,-46.145"/>
</g>
<!-- engine/templight&#45;&gt;iface -->
<g id="edge19" class="edge">
<title>engine/templight&#45;&gt;iface</title>
<path fill="none" stroke="#000000" d="M1202.2851,-217.6438C1160.1631,-197.3777 1084.4599,-163.1827 1016.1956,-144 910.488,-114.2955 781.3448,-99.3774 717.2523,-93.3481"/>
<polygon fill="#000000" stroke="#000000" points="717.4463,-89.8513 707.1683,-92.4228 716.8066,-96.822 717.4463,-89.8513"/>
</g>
<!-- engine/vc&#45;&gt;core -->
<g id="edge20" class="edge">
<title>engine/vc&#45;&gt;core</title>
<path fill="none" stroke="#000000" d="M1546.6409,-227.6361C1520.7296,-224.0778 1487.6648,-219.64 1458.1956,-216 1294.0559,-195.7259 1097.8797,-174.5727 1016.9497,-165.9801"/>
<polygon fill="#000000" stroke="#000000" points="1017.0724,-162.4736 1006.7592,-164.9 1016.3345,-169.4346 1017.0724,-162.4736"/>
</g>
<!-- engine/vc&#45;&gt;data -->
<g id="edge21" class="edge">
<title>engine/vc&#45;&gt;data</title>
<path fill="none" stroke="#000000" d="M1602.1347,-216.1394C1618.9175,-183.3131 1647.7446,-113.0038 1612.1956,-72 1590.0883,-46.5006 1363.4542,-27.3275 1272.5847,-20.6088"/>
<polygon fill="#000000" stroke="#000000" points="1272.6789,-17.1064 1262.4507,-19.8697 1272.1696,-24.0879 1272.6789,-17.1064"/>
</g>
<!-- engine/vc&#45;&gt;iface -->
<g id="edge22" class="edge">
<title>engine/vc&#45;&gt;iface</title>
<path fill="none" stroke="#000000" d="M1551.5271,-224.1324C1475.4882,-205.9859 1306.4203,-167.0683 1162.1956,-144 997.7302,-117.6942 799.8453,-99.9455 716.8587,-93.1246"/>
<polygon fill="#000000" stroke="#000000" points="717.1041,-89.633 706.8529,-92.3095 716.5357,-96.6099 717.1041,-89.633"/>
</g>
<!-- engine/vc&#45;&gt;process -->
<g id="edge23" class="edge">
<title>engine/vc&#45;&gt;process</title>
<path fill="none" stroke="#000000" d="M1588.5227,-215.7623C1583.5546,-191.0928 1574.6465,-146.8598 1568.8291,-117.9731"/>
<polygon fill="#000000" stroke="#000000" points="1572.2441,-117.2018 1566.8386,-108.0896 1565.3819,-118.5838 1572.2441,-117.2018"/>
</g>
<!-- engine/wave&#45;&gt;core -->
<g id="edge24" class="edge">
<title>engine/wave&#45;&gt;core</title>
<path fill="none" stroke="#000000" d="M1344.8063,-221.7358C1336.6537,-219.6787 1328.1935,-217.6723 1320.1956,-216 1210.9358,-193.1552 1080.1872,-174.9714 1017.0318,-166.7564"/>
<polygon fill="#000000" stroke="#000000" points="1017.1326,-163.2405 1006.7669,-165.4318 1016.2367,-170.1829 1017.1326,-163.2405"/>
</g>
<!-- engine/wave&#45;&gt;data -->
<g id="edge25" class="edge">
<title>engine/wave&#45;&gt;data</title>
<path fill="none" stroke="#000000" d="M1376.5931,-216.3238C1349.1834,-177.8791 1284.0977,-86.59 1252.7141,-42.5714"/>
<polygon fill="#000000" stroke="#000000" points="1255.5631,-40.5383 1246.9079,-34.4277 1249.8633,-44.602 1255.5631,-40.5383"/>
</g>
<!-- engine/wave&#45;&gt;iface -->
<g id="edge26" class="edge">
<title>engine/wave&#45;&gt;iface</title>
<path fill="none" stroke="#000000" d="M1349.5492,-220.4222C1291.058,-200.8655 1177.8955,-164.8352 1079.1956,-144 948.019,-116.3091 789.613,-99.9388 717.0306,-93.3664"/>
<polygon fill="#000000" stroke="#000000" points="717.2295,-89.8704 706.9579,-92.4676 716.6073,-96.8426 717.2295,-89.8704"/>
</g>
<!-- iface&#45;&gt;data -->
<g id="edge27" class="edge">
<title>iface&#45;&gt;data</title>
<path fill="none" stroke="#000000" d="M706.4104,-86.2303C800.3923,-74.1036 1094.827,-36.1121 1198.5735,-22.7254"/>
<polygon fill="#000000" stroke="#000000" points="1199.1021,-26.1863 1208.5719,-21.4353 1198.2062,-19.2439 1199.1021,-26.1863"/>
</g>
<!-- main_shell -->
<g id="node11" class="node">
<title>main_shell</title>
<ellipse fill="#ffffff" stroke="#000000" cx="200.1956" cy="-234" rx="53.3283" ry="18"/>
<text text-anchor="middle" x="200.1956" y="-229.8" font-family="Times,serif" font-size="14.00" fill="#000000">main_shell</text>
</g>
<!-- main_shell&#45;&gt;core -->
<g id="edge28" class="edge">
<title>main_shell&#45;&gt;core</title>
<path fill="none" stroke="#000000" d="M246.0986,-224.7565C263.0429,-221.6039 282.439,-218.2985 300.1956,-216 543.1539,-184.5507 837.5526,-168.6382 941.0246,-163.712"/>
<polygon fill="#000000" stroke="#000000" points="941.4572,-167.1956 951.2819,-163.23 941.1286,-160.2033 941.4572,-167.1956"/>
</g>
<!-- main_shell&#45;&gt;data -->
<g id="edge29" class="edge">
<title>main_shell&#45;&gt;data</title>
<path fill="none" stroke="#000000" d="M200.5431,-215.962C201.9095,-195.7844 207.18,-163.3937 226.1956,-144 301.7814,-66.9112 352.0784,-91.8756 458.1956,-72 602.8063,-44.9146 1062.9892,-24.8584 1197.7666,-19.4518"/>
<polygon fill="#000000" stroke="#000000" points="1198.1349,-22.94 1207.9878,-19.0449 1197.8564,-15.9455 1198.1349,-22.94"/>
</g>
<!-- main_shell&#45;&gt;iface -->
<g id="edge30" class="edge">
<title>main_shell&#45;&gt;iface</title>
<path fill="none" stroke="#000000" d="M208.1309,-216.0301C218.4636,-194.9531 238.6391,-160.7665 267.1956,-144 329.4301,-107.4599 546.771,-95.0079 637.2233,-91.3455"/>
<polygon fill="#000000" stroke="#000000" points="637.497,-94.8376 647.3531,-90.9509 637.2244,-87.8429 637.497,-94.8376"/>
</g>
<!-- mdb -->
<g id="node12" class="node">
<title>mdb</title>
<ellipse fill="#ffffff" stroke="#000000" cx="809.1956" cy="-234" rx="28.4127" ry="18"/>
<text text-anchor="middle" x="809.1956" y="-229.8" font-family="Times,serif" font-size="14.00" fill="#000000">mdb</text>
</g>
<!-- mdb&#45;&gt;core -->
<g id="edge31" class="edge">
<title>mdb&#45;&gt;core</title>
<path fill="none" stroke="#000000" d="M832.7318,-223.8852C838.7486,-221.3071 845.2092,-218.5455 851.1956,-216 883.4728,-202.2751 920.3833,-186.7182 946.2479,-175.8394"/>
<polygon fill="#000000" stroke="#000000" points="947.7254,-179.015 955.5872,-171.9126 945.0123,-172.5622 947.7254,-179.015"/>
</g>
<!-- mdb&#45;&gt;data -->
<g id="edge32" class="edge">
<title>mdb&#45;&gt;data</title>
<path fill="none" stroke="#000000" d="M828.2125,-220.3146C853.7024,-202.1616 900.5684,-169.4492 942.1956,-144 998.8785,-109.3463 1012.3223,-98.6132 1073.1956,-72 1115.7834,-53.381 1166.9681,-37.314 1200.2466,-27.6565"/>
<polygon fill="#000000" stroke="#000000" points="1201.3217,-30.9893 1209.9702,-24.8694 1199.3928,-24.2603 1201.3217,-30.9893"/>
</g>
<!-- mdb&#45;&gt;iface -->
<g id="edge33" class="edge">
<title>mdb&#45;&gt;iface</title>
<path fill="none" stroke="#000000" d="M804.2676,-215.9796C798.1844,-196.4127 786.2424,-165.1339 767.1956,-144 751.821,-126.9408 729.7714,-113.5905 711.3454,-104.4318"/>
<polygon fill="#000000" stroke="#000000" points="712.628,-101.1661 702.0946,-100.0271 709.6187,-107.4863 712.628,-101.1661"/>
</g>
<!-- mock -->
<g id="node13" class="node">
<title>mock</title>
<ellipse fill="#ffffff" stroke="#000000" cx="579.1956" cy="-234" rx="32.4846" ry="18"/>
<text text-anchor="middle" x="579.1956" y="-229.8" font-family="Times,serif" font-size="14.00" fill="#000000">mock</text>
</g>
<!-- mock&#45;&gt;iface -->
<g id="edge34" class="edge">
<title>mock&#45;&gt;iface</title>
<path fill="none" stroke="#000000" d="M586.4217,-216.2169C594.4801,-197.4065 608.5878,-167.2871 625.1956,-144 633.3053,-132.6288 643.7534,-121.3021 653.1544,-111.9808"/>
<polygon fill="#000000" stroke="#000000" points="655.6471,-114.4392 660.4047,-104.9726 650.7821,-109.4061 655.6471,-114.4392"/>
</g>
<!-- pattern -->
<g id="node14" class="node">
<title>pattern</title>
<ellipse fill="#ffffff" stroke="#000000" cx="1960.1956" cy="-90" rx="37.6986" ry="18"/>
<text text-anchor="middle" x="1960.1956" y="-85.8" font-family="Times,serif" font-size="14.00" fill="#000000">pattern</text>
</g>
<!-- pragma&#45;&gt;core -->
<g id="edge35" class="edge">
<title>pragma&#45;&gt;core</title>
<path fill="none" stroke="#000000" d="M955.5606,-288.0535C960.1686,-263.4774 968.4892,-219.1008 973.9273,-190.0974"/>
<polygon fill="#000000" stroke="#000000" points="977.3853,-190.6465 975.7882,-180.1727 970.5052,-189.3564 977.3853,-190.6465"/>
</g>
<!-- pragma&#45;&gt;data -->
<g id="edge36" class="edge">
<title>pragma&#45;&gt;data</title>
<path fill="none" stroke="#000000" d="M981.6069,-293.7233C987.9711,-291.4846 994.7326,-289.4136 1001.1956,-288 1050.9544,-277.1168 1423.6222,-289.404 1458.1956,-252 1536.277,-167.5259 1346.3415,-68.3035 1267.5378,-32.1111"/>
<polygon fill="#000000" stroke="#000000" points="1268.6192,-28.7586 1258.066,-27.8193 1265.73,-35.1346 1268.6192,-28.7586"/>
</g>
<!-- pragma&#45;&gt;iface -->
<g id="edge37" class="edge">
<title>pragma&#45;&gt;iface</title>
<path fill="none" stroke="#000000" d="M921.4883,-294.2728C915.4552,-292.0956 909.1506,-289.9083 903.1956,-288 845.6952,-269.5736 820.1059,-288.7482 772.1956,-252 726.6746,-217.0845 698.8493,-153.6331 685.8993,-117.3681"/>
<polygon fill="#000000" stroke="#000000" points="689.206,-116.2208 682.6388,-107.9068 682.5879,-118.5015 689.206,-116.2208"/>
</g>
<!-- pragma&#45;&gt;mdb -->
<g id="edge38" class="edge">
<title>pragma&#45;&gt;mdb</title>
<path fill="none" stroke="#000000" d="M925.2984,-292.4574C901.3371,-280.3929 866.2485,-262.7259 840.9231,-249.9747"/>
<polygon fill="#000000" stroke="#000000" points="842.2443,-246.7213 831.7385,-245.3503 839.0963,-252.9735 842.2443,-246.7213"/>
</g>
<!-- process&#45;&gt;data -->
<g id="edge39" class="edge">
<title>process&#45;&gt;data</title>
<path fill="none" stroke="#000000" d="M1531.7035,-78.7552C1524.3693,-76.3452 1516.5526,-73.9427 1509.1956,-72 1425.2553,-49.8346 1324.6872,-32.2575 1271.82,-23.6945"/>
<polygon fill="#000000" stroke="#000000" points="1272.3298,-20.2316 1261.9016,-22.1033 1271.221,-27.1432 1272.3298,-20.2316"/>
</g>
<!-- readline -->
<g id="node17" class="node">
<title>readline</title>
<ellipse fill="#ffffff" stroke="#000000" cx="59.1956" cy="-162" rx="42.2719" ry="18"/>
<text text-anchor="middle" x="59.1956" y="-157.8" font-family="Times,serif" font-size="14.00" fill="#000000">readline</text>
</g>
<!-- readline&#45;&gt;data -->
<g id="edge40" class="edge">
<title>readline&#45;&gt;data</title>
<path fill="none" stroke="#000000" d="M64.6433,-144.0949C72.1917,-122.742 88.063,-87.9407 115.1956,-72 162.8906,-43.9786 1009.0431,-23.1419 1197.9878,-18.8259"/>
<polygon fill="#000000" stroke="#000000" points="1198.0716,-22.325 1207.9896,-18.5989 1197.9127,-15.3268 1198.0716,-22.325"/>
</g>
<!-- readline&#45;&gt;iface -->
<g id="edge41" class="edge">
<title>readline&#45;&gt;iface</title>
<path fill="none" stroke="#000000" d="M99.3099,-156.266C125.4539,-152.5942 160.3228,-147.8195 191.1956,-144 356.8279,-123.5083 554.6772,-102.644 637.5844,-94.0639"/>
<polygon fill="#000000" stroke="#000000" points="637.9925,-97.5404 647.5799,-93.0314 637.2732,-90.5775 637.9925,-97.5404"/>
</g>
<!-- replace_part -->
<g id="node18" class="node">
<title>replace_part</title>
<ellipse fill="#ffffff" stroke="#000000" cx="2465.1956" cy="-378" rx="58.5059" ry="18"/>
<text text-anchor="middle" x="2465.1956" y="-373.8" font-family="Times,serif" font-size="14.00" fill="#000000">replace_part</text>
</g>
<!-- system_test -->
<g id="node19" class="node">
<title>system_test</title>
<ellipse fill="#ffffff" stroke="#000000" cx="1960.1956" cy="-162" rx="56.1937" ry="18"/>
<text text-anchor="middle" x="1960.1956" y="-157.8" font-family="Times,serif" font-size="14.00" fill="#000000">system_test</text>
</g>
<!-- system_test&#45;&gt;pattern -->
<g id="edge42" class="edge">
<title>system_test&#45;&gt;pattern</title>
<path fill="none" stroke="#000000" d="M1960.1956,-143.8314C1960.1956,-136.131 1960.1956,-126.9743 1960.1956,-118.4166"/>
<polygon fill="#000000" stroke="#000000" points="1963.6957,-118.4132 1960.1956,-108.4133 1956.6957,-118.4133 1963.6957,-118.4132"/>
</g>
<!-- system_test&#45;&gt;process -->
<g id="edge43" class="edge">
<title>system_test&#45;&gt;process</title>
<path fill="none" stroke="#000000" d="M1911.1174,-153.0992C1834.2403,-139.1567 1686.3894,-112.3425 1610.5737,-98.5925"/>
<polygon fill="#000000" stroke="#000000" points="1610.8328,-95.0825 1600.3687,-96.7417 1609.5836,-101.9701 1610.8328,-95.0825"/>
</g>
<!-- app/metashell -->
<g id="node20" class="node">
<title>app/metashell</title>
<polygon fill="none" stroke="#000000" points="455.9519,-468 362.4393,-468 362.4393,-432 455.9519,-432 455.9519,-468"/>
<text text-anchor="middle" x="409.1956" y="-445.8" font-family="Times,serif" font-size="14.00" fill="#000000">app/metashell</text>
</g>
<!-- app/metashell&#45;&gt;core -->
<g id="edge44" class="edge">
<title>app/metashell&#45;&gt;core</title>
<path fill="none" stroke="#000000" d="M438.5699,-431.7716C493.1127,-398.6576 614.5649,-328.3286 725.1956,-288 792.4548,-263.4818 819.8025,-287.1004 882.1956,-252 901.6445,-241.0586 900.9901,-231.3413 917.1956,-216 929.0403,-204.7869 942.6634,-192.8254 954.1175,-183.0176"/>
<polygon fill="#000000" stroke="#000000" points="956.6682,-185.443 962.0181,-176.2981 952.133,-180.1107 956.6682,-185.443"/>
</g>
<!-- app/metashell&#45;&gt;data -->
<g id="edge45" class="edge">
<title>app/metashell&#45;&gt;data</title>
<path fill="none" stroke="#000000" d="M456.2895,-449.6634C685.0309,-447.4208 1669.1956,-430.5359 1669.1956,-306 1669.1956,-306 1669.1956,-306 1669.1956,-162 1669.1956,-118.9187 1667.1614,-98.5013 1633.1956,-72 1604.974,-49.9805 1365.9691,-28.5432 1272.4741,-20.9205"/>
<polygon fill="#000000" stroke="#000000" points="1272.5825,-17.418 1262.3331,-20.1015 1272.0189,-24.3953 1272.5825,-17.418"/>
</g>
<!-- app/metashell&#45;&gt;defaults -->
<g id="edge46" class="edge">
<title>app/metashell&#45;&gt;defaults</title>
<path fill="none" stroke="#000000" d="M456.1526,-446.0778C605.0326,-433.6424 1065.7928,-395.1566 1220.1836,-382.2609"/>
<polygon fill="#000000" stroke="#000000" points="1220.6592,-385.7334 1230.3331,-381.4131 1220.0765,-378.7577 1220.6592,-385.7334"/>
</g>
<!-- app/metashell&#45;&gt;iface -->
<g id="edge47" class="edge">
<title>app/metashell&#45;&gt;iface</title>
<path fill="none" stroke="#000000" d="M362.3281,-442.8269C326.9614,-435.6059 278.6418,-421.7161 243.1956,-396 168.2302,-341.6129 98.5345,-299.6945 138.1956,-216 159.8357,-170.334 179.6991,-163.7927 226.1956,-144 299.9779,-112.5922 541.1693,-97.0064 637.2115,-91.9259"/>
<polygon fill="#000000" stroke="#000000" points="637.5788,-95.4116 647.3842,-91.3985 637.2163,-88.421 637.5788,-95.4116"/>
</g>
<!-- app/metashell&#45;&gt;main_shell -->
<g id="edge48" class="edge">
<title>app/metashell&#45;&gt;main_shell</title>
<path fill="none" stroke="#000000" d="M362.243,-432.6274C316.9681,-413.3075 250.2983,-377.5821 215.1956,-324 203.2395,-305.7498 199.8067,-281.0853 199.1866,-262.1916"/>
<polygon fill="#000000" stroke="#000000" points="202.6858,-262.0659 199.0992,-252.0967 195.686,-262.1267 202.6858,-262.0659"/>
</g>
<!-- app/metashell&#45;&gt;readline -->
<g id="edge49" class="edge">
<title>app/metashell&#45;&gt;readline</title>
<path fill="none" stroke="#000000" d="M362.1311,-445.8747C272.955,-437.5885 86.5106,-417.8372 67.1956,-396 16.2632,-338.4167 36.2185,-238.2041 50.1205,-189.7752"/>
<polygon fill="#000000" stroke="#000000" points="53.5354,-190.5723 53.0526,-179.9885 46.8298,-188.5633 53.5354,-190.5723"/>
</g>
<!-- app/reference_gen -->
<g id="node21" class="node">
<title>app/reference_gen</title>
<polygon fill="none" stroke="#000000" points="1855.0708,-468 1735.3204,-468 1735.3204,-432 1855.0708,-432 1855.0708,-468"/>
<text text-anchor="middle" x="1795.1956" y="-445.8" font-family="Times,serif" font-size="14.00" fill="#000000">app/reference_gen</text>
</g>
<!-- app/reference_gen&#45;&gt;data -->
<g id="edge50" class="edge">
<title>app/reference_gen&#45;&gt;data</title>
<path fill="none" stroke="#000000" d="M1855.1188,-447.8681C2003.8904,-440.9527 2378.1956,-412.9286 2378.1956,-306 2378.1956,-306 2378.1956,-306 2378.1956,-162 2378.1956,-63.7144 2271.7052,-95.194 2176.1956,-72 2000.3317,-29.2924 1425.871,-20.0725 1272.9023,-18.3548"/>
<polygon fill="#000000" stroke="#000000" points="1272.6655,-14.8522 1262.6283,-18.2438 1272.5898,-21.8518 1272.6655,-14.8522"/>
</g>
<!-- app/reference_gen&#45;&gt;defaults -->
<g id="edge51" class="edge">
<title>app/reference_gen&#45;&gt;defaults</title>
<path fill="none" stroke="#000000" d="M1735.3414,-441.7758C1631.0565,-427.4465 1417.9407,-398.1634 1321.0861,-384.8552"/>
<polygon fill="#000000" stroke="#000000" points="1321.3561,-381.3595 1310.9728,-383.4656 1320.4032,-388.2943 1321.3561,-381.3595"/>
</g>
<!-- app/reference_gen&#45;&gt;mdb -->
<g id="edge52" class="edge">
<title>app/reference_gen&#45;&gt;mdb</title>
<path fill="none" stroke="#000000" d="M1735.5048,-447.5755C1520.0793,-438.2154 791.8511,-401.0523 725.1956,-324 714.7277,-311.8994 717.5286,-302.0434 725.1956,-288 735.7365,-268.6926 756.4635,-255.2587 774.69,-246.6191"/>
<polygon fill="#000000" stroke="#000000" points="776.1976,-249.7794 783.9262,-242.5324 773.3651,-243.378 776.1976,-249.7794"/>
</g>
<!-- app/reference_gen&#45;&gt;replace_part -->
<g id="edge53" class="edge">
<title>app/reference_gen&#45;&gt;replace_part</title>
<path fill="none" stroke="#000000" d="M1854.8919,-447.5972C1962.7889,-442.5904 2197.182,-428.6689 2392.1956,-396 2398.3629,-394.9668 2404.7785,-393.69 2411.1333,-392.2969"/>
<polygon fill="#000000" stroke="#000000" points="2412.0594,-395.6755 2421.025,-390.0303 2410.4959,-388.8523 2412.0594,-395.6755"/>
</g>
<!-- test/system/core -->
<g id="node22" class="node">
<title>test/system/core</title>
<polygon fill="none" stroke="#000000" points="1951.3922,-252 1844.999,-252 1844.999,-216 1951.3922,-216 1951.3922,-252"/>
<text text-anchor="middle" x="1898.1956" y="-229.8" font-family="Times,serif" font-size="14.00" fill="#000000">test/system/core</text>
</g>
<!-- test/system/core&#45;&gt;system_test -->
<g id="edge54" class="edge">
<title>test/system/core&#45;&gt;system_test</title>
<path fill="none" stroke="#000000" d="M1913.8408,-215.8314C1921.3517,-207.109 1930.4715,-196.5183 1938.6283,-187.0459"/>
<polygon fill="#000000" stroke="#000000" points="1941.3239,-189.2793 1945.197,-179.4177 1936.0195,-184.7116 1941.3239,-189.2793"/>
</g>
<!-- test/system/mdb -->
<g id="node23" class="node">
<title>test/system/mdb</title>
<polygon fill="none" stroke="#000000" points="2076.6928,-252 1969.6984,-252 1969.6984,-216 2076.6928,-216 2076.6928,-252"/>
<text text-anchor="middle" x="2023.1956" y="-229.8" font-family="Times,serif" font-size="14.00" fill="#000000">test/system/mdb</text>
</g>
<!-- test/system/mdb&#45;&gt;system_test -->
<g id="edge55" class="edge">
<title>test/system/mdb&#45;&gt;system_test</title>
<path fill="none" stroke="#000000" d="M2007.298,-215.8314C1999.666,-207.109 1990.3991,-196.5183 1982.1108,-187.0459"/>
<polygon fill="#000000" stroke="#000000" points="1984.6552,-184.6387 1975.4361,-179.4177 1979.3871,-189.2483 1984.6552,-184.6387"/>
</g>
<!-- test/system/pdb -->
<g id="node24" class="node">
<title>test/system/pdb</title>
<polygon fill="none" stroke="#000000" points="2197.8022,-252 2094.5889,-252 2094.5889,-216 2197.8022,-216 2197.8022,-252"/>
<text text-anchor="middle" x="2146.1956" y="-229.8" font-family="Times,serif" font-size="14.00" fill="#000000">test/system/pdb</text>
</g>
<!-- test/system/pdb&#45;&gt;system_test -->
<g id="edge56" class="edge">
<title>test/system/pdb&#45;&gt;system_test</title>
<path fill="none" stroke="#000000" d="M2099.2599,-215.8314C2070.6682,-204.7636 2034.305,-190.6875 2005.9341,-179.7052"/>
<polygon fill="#000000" stroke="#000000" points="2006.8473,-176.3057 1996.2581,-175.9597 2004.3203,-182.8337 2006.8473,-176.3057"/>
</g>
<!-- test/system/pp -->
<g id="node25" class="node">
<title>test/system/pp</title>
<polygon fill="none" stroke="#000000" points="2312.3022,-252 2216.0889,-252 2216.0889,-216 2312.3022,-216 2312.3022,-252"/>
<text text-anchor="middle" x="2264.1956" y="-229.8" font-family="Times,serif" font-size="14.00" fill="#000000">test/system/pp</text>
</g>
<!-- test/system/pp&#45;&gt;pattern -->
<g id="edge57" class="edge">
<title>test/system/pp&#45;&gt;pattern</title>
<path fill="none" stroke="#000000" d="M2226.0016,-215.9081C2166.9373,-187.9303 2054.2289,-134.5421 1996.3975,-107.1483"/>
<polygon fill="#000000" stroke="#000000" points="1997.8037,-103.9416 1987.268,-102.8238 1994.8071,-110.2678 1997.8037,-103.9416"/>
</g>
<!-- test/system/pp&#45;&gt;system_test -->
<g id="edge58" class="edge">
<title>test/system/pp&#45;&gt;system_test</title>
<path fill="none" stroke="#000000" d="M2216.0834,-218.4694C2213.084,-217.6059 2210.1035,-216.7753 2207.1956,-216 2143.3116,-198.9673 2069.096,-183.2839 2018.8218,-173.2585"/>
<polygon fill="#000000" stroke="#000000" points="2019.2729,-169.7799 2008.7832,-171.2684 2017.9117,-176.6463 2019.2729,-169.7799"/>
</g>
<!-- test/unit/core -->
<g id="node26" class="node">
<title>test/unit/core</title>
<polygon fill="none" stroke="#000000" points="1099.7882,-324 1010.6029,-324 1010.6029,-288 1099.7882,-288 1099.7882,-324"/>
<text text-anchor="middle" x="1055.1956" y="-301.8" font-family="Times,serif" font-size="14.00" fill="#000000">test/unit/core</text>
</g>
<!-- test/unit/core&#45;&gt;core -->
<g id="edge59" class="edge">
<title>test/unit/core&#45;&gt;core</title>
<path fill="none" stroke="#000000" d="M1045.5701,-287.7623C1032.2924,-262.6045 1008.2765,-217.1008 993.0634,-188.2758"/>
<polygon fill="#000000" stroke="#000000" points="996.0328,-186.4035 988.2698,-179.1933 989.8421,-189.6708 996.0328,-186.4035"/>
</g>
<!-- test/unit/core&#45;&gt;data -->
<g id="edge60" class="edge">
<title>test/unit/core&#45;&gt;data</title>
<path fill="none" stroke="#000000" d="M1099.9789,-296.4087C1114.9437,-293.4255 1131.744,-290.3154 1147.1956,-288 1223.2088,-276.6095 1439.7521,-309.108 1491.1956,-252 1522.5191,-217.2274 1568.8245,-178.5079 1471.1956,-72 1444.7382,-43.1364 1331.7885,-27.6835 1272.2562,-21.4094"/>
<polygon fill="#000000" stroke="#000000" points="1272.4445,-17.9105 1262.1409,-20.3776 1271.7341,-24.8744 1272.4445,-17.9105"/>
</g>
<!-- test/unit/core&#45;&gt;mock -->
<g id="edge61" class="edge">
<title>test/unit/core&#45;&gt;mock</title>
<path fill="none" stroke="#000000" d="M1010.597,-290.3905C1007.4344,-289.5133 1004.2785,-288.704 1001.1956,-288 929.3467,-271.5926 713.0803,-247.9514 621.2112,-238.3245"/>
<polygon fill="#000000" stroke="#000000" points="621.4685,-234.8324 611.1591,-237.2751 620.7416,-241.7946 621.4685,-234.8324"/>
</g>
<!-- test/unit/data -->
<g id="node27" class="node">
<title>test/unit/data</title>
<polygon fill="none" stroke="#000000" points="2104.5188,-108 2015.8724,-108 2015.8724,-72 2104.5188,-72 2104.5188,-108"/>
<text text-anchor="middle" x="2060.1956" y="-85.8" font-family="Times,serif" font-size="14.00" fill="#000000">test/unit/data</text>
</g>
<!-- test/unit/data&#45;&gt;data -->
<g id="edge62" class="edge">
<title>test/unit/data&#45;&gt;data</title>
<path fill="none" stroke="#000000" d="M2015.8907,-74.0286C2012.9695,-73.2628 2010.0535,-72.5752 2007.1956,-72 1864.0466,-43.1883 1407.4281,-24.373 1272.8596,-19.3499"/>
<polygon fill="#000000" stroke="#000000" points="1272.7705,-15.8443 1262.6479,-18.9723 1272.5117,-22.8396 1272.7705,-15.8443"/>
</g>
<!-- test/unit/engine/templight -->
<g id="node28" class="node">
<title>test/unit/engine/templight</title>
<polygon fill="none" stroke="#000000" points="894.0764,-324 734.3147,-324 734.3147,-288 894.0764,-288 894.0764,-324"/>
<text text-anchor="middle" x="814.1956" y="-301.8" font-family="Times,serif" font-size="14.00" fill="#000000">test/unit/engine/templight</text>
</g>
<!-- test/unit/engine/templight&#45;&gt;core -->
<g id="edge63" class="edge">
<title>test/unit/engine/templight&#45;&gt;core</title>
<path fill="none" stroke="#000000" d="M859.7532,-287.96C878.8321,-278.992 900.424,-266.8655 917.1956,-252 937.5734,-233.9381 954.5887,-207.8422 965.6073,-188.3966"/>
<polygon fill="#000000" stroke="#000000" points="968.7754,-189.8989 970.5231,-179.4492 962.6403,-186.5282 968.7754,-189.8989"/>
</g>
<!-- test/unit/engine/templight&#45;&gt;engine/templight -->
<g id="edge64" class="edge">
<title>test/unit/engine/templight&#45;&gt;engine/templight</title>
<path fill="none" stroke="#000000" d="M894.2213,-289.6645C897.2495,-289.0942 900.249,-288.5374 903.1956,-288 991.445,-271.9051 1093.3275,-255.6823 1160.7061,-245.2803"/>
<polygon fill="#000000" stroke="#000000" points="1161.4528,-248.7066 1170.8034,-243.7251 1160.3872,-241.7882 1161.4528,-248.7066"/>
</g>
<!-- test/unit/engine/templight&#45;&gt;mock -->
<g id="edge65" class="edge">
<title>test/unit/engine/templight&#45;&gt;mock</title>
<path fill="none" stroke="#000000" d="M755.1985,-287.9243C712.199,-274.75 655.1658,-257.276 617.8432,-245.841"/>
<polygon fill="#000000" stroke="#000000" points="618.4537,-242.3675 607.867,-242.7844 616.403,-249.0604 618.4537,-242.3675"/>
</g>
<!-- test/unit/engine/vc -->
<g id="node29" class="node">
<title>test/unit/engine/vc</title>
<polygon fill="none" stroke="#000000" points="1641.1242,-324 1521.267,-324 1521.267,-288 1641.1242,-288 1641.1242,-324"/>
<text text-anchor="middle" x="1581.1956" y="-301.8" font-family="Times,serif" font-size="14.00" fill="#000000">test/unit/engine/vc</text>
</g>
<!-- test/unit/engine/vc&#45;&gt;data -->
<g id="edge66" class="edge">
<title>test/unit/engine/vc&#45;&gt;data</title>
<path fill="none" stroke="#000000" d="M1641.1341,-303.8298C1813.2391,-297.3102 2298.1311,-276.8089 2321.1956,-252 2332.0898,-240.2818 2328.6213,-230.1725 2321.1956,-216 2269.013,-116.406 2219.4377,-108.8048 2113.1956,-72 2032.9656,-44.2064 1429.5379,-23.9504 1272.4745,-19.1107"/>
<polygon fill="#000000" stroke="#000000" points="1272.469,-15.609 1262.3667,-18.8016 1272.255,-22.6058 1272.469,-15.609"/>
</g>
<!-- test/unit/engine/vc&#45;&gt;engine/vc -->
<g id="edge67" class="edge">
<title>test/unit/engine/vc&#45;&gt;engine/vc</title>
<path fill="none" stroke="#000000" d="M1583.9714,-287.8314C1585.1478,-280.131 1586.5467,-270.9743 1587.8542,-262.4166"/>
<polygon fill="#000000" stroke="#000000" points="1591.332,-262.8272 1589.3825,-252.4133 1584.4123,-261.7699 1591.332,-262.8272"/>
</g>
<!-- test/unit/main_shell -->
<g id="node30" class="node">
<title>test/unit/main_shell</title>
<polygon fill="none" stroke="#000000" points="380.6354,-324 253.7558,-324 253.7558,-288 380.6354,-288 380.6354,-324"/>
<text text-anchor="middle" x="317.1956" y="-301.8" font-family="Times,serif" font-size="14.00" fill="#000000">test/unit/main_shell</text>
</g>
<!-- test/unit/main_shell&#45;&gt;core -->
<g id="edge68" class="edge">
<title>test/unit/main_shell&#45;&gt;core</title>
<path fill="none" stroke="#000000" d="M368.9543,-287.9455C396.8113,-277.923 431.6318,-264.9019 462.1956,-252 496.629,-237.4646 502.2974,-226.4047 538.1956,-216 613.8118,-194.0835 849.2403,-172.784 941.5348,-165.0528"/>
<polygon fill="#000000" stroke="#000000" points="941.875,-168.5367 951.5507,-164.2201 941.295,-161.5607 941.875,-168.5367"/>
</g>
<!-- test/unit/main_shell&#45;&gt;data -->
<g id="edge69" class="edge">
<title>test/unit/main_shell&#45;&gt;data</title>
<path fill="none" stroke="#000000" d="M253.8065,-295.0982C208.1748,-285.8086 152.2772,-270.9565 138.1956,-252 76.4105,-168.8255 119.2974,-143.2142 268.1956,-72 353.1204,-31.3826 1029.4719,-20.5046 1197.5077,-18.4174"/>
<polygon fill="#000000" stroke="#000000" points="1197.6499,-21.916 1207.6067,-18.295 1197.565,-14.9165 1197.6499,-21.916"/>
</g>
<!-- test/unit/main_shell&#45;&gt;engine/constant -->
<g id="edge70" class="edge">
<title>test/unit/main_shell&#45;&gt;engine/constant</title>
<path fill="none" stroke="#000000" d="M333.3455,-287.8314C340.983,-279.2392 350.232,-268.834 358.5549,-259.4708"/>
<polygon fill="#000000" stroke="#000000" points="361.2448,-261.7128 365.2726,-251.9134 356.0129,-257.0622 361.2448,-261.7128"/>
</g>
<!-- test/unit/main_shell&#45;&gt;iface -->
<g id="edge71" class="edge">
<title>test/unit/main_shell&#45;&gt;iface</title>
<path fill="none" stroke="#000000" d="M306.4461,-287.7985C296.5227,-268.3604 285.3787,-237.4599 300.1956,-216 339.7035,-158.7791 550.6265,-113.5673 638.6098,-96.9158"/>
<polygon fill="#000000" stroke="#000000" points="639.2778,-100.3517 648.4641,-95.0733 637.9912,-93.4709 639.2778,-100.3517"/>
</g>
<!-- test/unit/main_shell&#45;&gt;main_shell -->
<g id="edge72" class="edge">
<title>test/unit/main_shell&#45;&gt;main_shell</title>
<path fill="none" stroke="#000000" d="M287.6716,-287.8314C271.6784,-277.9894 251.8197,-265.7687 235.068,-255.4599"/>
<polygon fill="#000000" stroke="#000000" points="236.4763,-252.217 226.1254,-249.9568 232.8076,-258.1786 236.4763,-252.217"/>
</g>
<!-- test/unit/main_shell&#45;&gt;mock -->
<g id="edge73" class="edge">
<title>test/unit/main_shell&#45;&gt;mock</title>
<path fill="none" stroke="#000000" d="M380.6185,-288.5708C430.2861,-274.9217 497.8008,-256.368 539.9203,-244.7932"/>
<polygon fill="#000000" stroke="#000000" points="541.0817,-248.1039 549.7967,-242.0791 539.2267,-241.3541 541.0817,-248.1039"/>
</g>
<!-- test/unit/mdb -->
<g id="node31" class="node">
<title>test/unit/mdb</title>
<polygon fill="none" stroke="#000000" points="564.0891,-324 474.3021,-324 474.3021,-288 564.0891,-288 564.0891,-324"/>
<text text-anchor="middle" x="519.1956" y="-301.8" font-family="Times,serif" font-size="14.00" fill="#000000">test/unit/mdb</text>
</g>
<!-- test/unit/mdb&#45;&gt;core -->
<g id="edge74" class="edge">
<title>test/unit/mdb&#45;&gt;core</title>
<path fill="none" stroke="#000000" d="M564.5034,-288.5431C614.8247,-269.4695 698.6737,-238.6203 772.1956,-216 831.4274,-197.7762 901.3864,-180.3676 942.9248,-170.4537"/>
<polygon fill="#000000" stroke="#000000" points="943.9276,-173.813 952.8493,-168.0987 942.3114,-167.0021 943.9276,-173.813"/>
</g>
<!-- test/unit/mdb&#45;&gt;data -->
<g id="edge75" class="edge">
<title>test/unit/mdb&#45;&gt;data</title>
<path fill="none" stroke="#000000" d="M520.8933,-287.7688C523.1177,-269.1165 528.0055,-239.6052 538.1956,-216 569.0775,-144.4625 570.8493,-111.1891 638.1956,-72 686.5393,-43.8686 1074.711,-24.9031 1197.8544,-19.5479"/>
<polygon fill="#000000" stroke="#000000" points="1198.091,-23.0411 1207.9314,-19.1145 1197.7902,-16.0476 1198.091,-23.0411"/>
</g>
<!-- test/unit/mdb&#45;&gt;engine/constant -->
<g id="edge76" class="edge">
<title>test/unit/mdb&#45;&gt;engine/constant</title>
<path fill="none" stroke="#000000" d="M484.3724,-287.8314C465.3477,-277.9055 441.6856,-265.56 421.8222,-255.1965"/>
<polygon fill="#000000" stroke="#000000" points="423.1891,-251.9619 412.7042,-250.4393 419.9511,-258.168 423.1891,-251.9619"/>
</g>
<!-- test/unit/mdb&#45;&gt;iface -->
<g id="edge77" class="edge">
<title>test/unit/mdb&#45;&gt;iface</title>
<path fill="none" stroke="#000000" d="M564.3244,-290.4677C583.7934,-281.7938 605.4363,-269.2038 620.1956,-252 637.8312,-231.4435 659.1445,-158.4687 670.0326,-117.8326"/>
<polygon fill="#000000" stroke="#000000" points="673.4567,-118.5742 672.6297,-108.0117 666.6894,-116.7845 673.4567,-118.5742"/>
</g>
<!-- test/unit/mdb&#45;&gt;mdb -->
<g id="edge78" class="edge">
<title>test/unit/mdb&#45;&gt;mdb</title>
<path fill="none" stroke="#000000" d="M564.2046,-291.9316C568.9165,-290.5598 573.6454,-289.2245 578.1956,-288 614.6062,-278.2017 717.1065,-254.7945 772.5285,-242.2585"/>
<polygon fill="#000000" stroke="#000000" points="773.3199,-245.668 782.3026,-240.05 771.7771,-238.8401 773.3199,-245.668"/>
</g>
<!-- test/unit/pragma -->
<g id="node32" class="node">
<title>test/unit/pragma</title>
<polygon fill="none" stroke="#000000" points="480.6788,-396 373.7124,-396 373.7124,-360 480.6788,-360 480.6788,-396"/>
<text text-anchor="middle" x="427.1956" y="-373.8" font-family="Times,serif" font-size="14.00" fill="#000000">test/unit/pragma</text>
</g>
<!-- test/unit/pragma&#45;&gt;core -->
<g id="edge79" class="edge">
<title>test/unit/pragma&#45;&gt;core</title>
<path fill="none" stroke="#000000" d="M478.5172,-359.9261C506.6442,-349.7934 542.0277,-336.675 573.1956,-324 609.6888,-309.1594 616.5806,-299.7094 654.1956,-288 737.0923,-262.1947 767.6886,-289.0733 846.1956,-252 868.7336,-241.3569 868.8915,-230.4561 889.1956,-216 908.409,-202.3204 931.2015,-188.6691 949.0419,-178.5147"/>
<polygon fill="#000000" stroke="#000000" points="950.8779,-181.4976 957.8746,-173.5416 947.4437,-175.3979 950.8779,-181.4976"/>
</g>
<!-- test/unit/pragma&#45;&gt;data -->
<g id="edge80" class="edge">
<title>test/unit/pragma&#45;&gt;data</title>
<path fill="none" stroke="#000000" d="M373.6399,-372.5295C277.5735,-359.3815 79.3618,-316.1992 8.1956,-180 -18.2944,-129.303 26.038,-95.4838 78.1956,-72 182.181,-25.1808 1010.3628,-18.9352 1197.6435,-18.1199"/>
<polygon fill="#000000" stroke="#000000" points="1197.8302,-21.6192 1207.8158,-18.0783 1197.8015,-14.6193 1197.8302,-21.6192"/>
</g>
<!-- test/unit/pragma&#45;&gt;engine/constant -->
<g id="edge81" class="edge">
<title>test/unit/pragma&#45;&gt;engine/constant</title>
<path fill="none" stroke="#000000" d="M421.3697,-359.7623C413.4891,-335.0928 399.3591,-290.8598 390.1314,-261.9731"/>
<polygon fill="#000000" stroke="#000000" points="393.3513,-260.5503 386.9742,-252.0896 386.6832,-262.6805 393.3513,-260.5503"/>
</g>
<!-- test/unit/pragma&#45;&gt;main_shell -->
<g id="edge82" class="edge">
<title>test/unit/pragma&#45;&gt;main_shell</title>
<path fill="none" stroke="#000000" d="M373.7013,-367.0801C327.3595,-356.7461 264.7683,-340.412 245.1956,-324 226.1591,-308.0376 214.3859,-282.0364 207.6808,-262.0757"/>
<polygon fill="#000000" stroke="#000000" points="210.9426,-260.7783 204.6249,-252.2732 204.2598,-262.8618 210.9426,-260.7783"/>
</g>
<!-- test/unit/pragma&#45;&gt;mock -->
<g id="edge83" class="edge">
<title>test/unit/pragma&#45;&gt;mock</title>
<path fill="none" stroke="#000000" d="M430.7613,-359.9886C435.5228,-340.1372 445.7184,-308.3304 465.1956,-288 485.4352,-266.8738 515.5961,-253.0913 539.8116,-244.7412"/>
<polygon fill="#000000" stroke="#000000" points="541.0227,-248.0276 549.4406,-241.5942 538.8481,-241.374 541.0227,-248.0276"/>
</g>
<!-- test/unit/pragma&#45;&gt;pragma -->
<g id="edge84" class="edge">
<title>test/unit/pragma&#45;&gt;pragma</title>
<path fill="none" stroke="#000000" d="M480.7364,-376.0906C569.5964,-371.9989 752.6637,-359.6438 903.1956,-324 906.3704,-323.2483 909.6213,-322.352 912.8641,-321.3667"/>
<polygon fill="#000000" stroke="#000000" points="914.0802,-324.6512 922.4839,-318.1993 911.8909,-318.0023 914.0802,-324.6512"/>
</g>
<!-- test/unit/replace_part -->
<g id="node33" class="node">
<title>test/unit/replace_part</title>
<polygon fill="none" stroke="#000000" points="2532.3739,-468 2398.0173,-468 2398.0173,-432 2532.3739,-432 2532.3739,-468"/>
<text text-anchor="middle" x="2465.1956" y="-445.8" font-family="Times,serif" font-size="14.00" fill="#000000">test/unit/replace_part</text>
</g>
<!-- test/unit/replace_part&#45;&gt;replace_part -->
<g id="edge85" class="edge">
<title>test/unit/replace_part&#45;&gt;replace_part</title>
<path fill="none" stroke="#000000" d="M2465.1956,-431.8314C2465.1956,-424.131 2465.1956,-414.9743 2465.1956,-406.4166"/>
<polygon fill="#000000" stroke="#000000" points="2468.6957,-406.4132 2465.1956,-396.4133 2461.6957,-406.4133 2468.6957,-406.4132"/>
</g>
<!-- test/unit/system_test -->
<g id="node34" class="node">
<title>test/unit/system_test</title>
<polygon fill="none" stroke="#000000" points="1827.5242,-252 1696.867,-252 1696.867,-216 1827.5242,-216 1827.5242,-252"/>
<text text-anchor="middle" x="1762.1956" y="-229.8" font-family="Times,serif" font-size="14.00" fill="#000000">test/unit/system_test</text>
</g>
<!-- test/unit/system_test&#45;&gt;system_test -->
<g id="edge86" class="edge">
<title>test/unit/system_test&#45;&gt;system_test</title>
<path fill="none" stroke="#000000" d="M1811.9038,-215.9243C1843.0172,-204.6103 1882.8511,-190.1253 1913.3979,-179.0174"/>
<polygon fill="#000000" stroke="#000000" points="1914.7647,-182.2446 1922.9665,-175.5379 1912.3724,-175.6661 1914.7647,-182.2446"/>
</g>
</g>
</svg>
