<?xml version="1.0" encoding="UTF-8" standalone="no"?>
<!DOCTYPE svg PUBLIC "-//W3C//DTD SVG 1.1//EN"
 "http://www.w3.org/Graphics/SVG/1.1/DTD/svg11.dtd">
<!-- Generated by graphviz version 2.40.1
 -->
<!-- Title: %3 Pages: 1 -->
<svg width="2175pt" height="476pt"
 viewBox="0.00 0.00 2175.00 476.00" xmlns="http://www.w3.org/2000/svg" xmlns:xlink="http://www.w3.org/1999/xlink">
<g id="graph0" class="graph" transform="scale(1 1) rotate(0) translate(4 472)">
<title>%3</title>
<polygon fill="#ffffff" stroke="transparent" points="-4,4 -4,-472 2171.0045,-472 2171.0045,4 -4,4"/>
<!-- core -->
<g id="node1" class="node">
<title>core</title>
<ellipse fill="#ffffff" stroke="#000000" cx="1216.0533" cy="-162" rx="27.8073" ry="18"/>
<text text-anchor="middle" x="1216.0533" y="-157.8" font-family="Times,serif" font-size="14.00" fill="#000000">core</text>
</g>
<!-- data -->
<g id="node2" class="node">
<title>data</title>
<ellipse fill="#ffffff" stroke="#000000" cx="1397.0533" cy="-18" rx="27.2447" ry="18"/>
<text text-anchor="middle" x="1397.0533" y="-13.8" font-family="Times,serif" font-size="14.00" fill="#000000">data</text>
</g>
<!-- core&#45;&gt;data -->
<g id="edge1" class="edge">
<title>core&#45;&gt;data</title>
<path fill="none" stroke="#000000" d="M1231.3736,-146.9261C1250.4888,-128.4266 1284.5107,-96.5011 1316.0533,-72 1332.6782,-59.0865 1352.3002,-45.9558 1368.0674,-35.8763"/>
<polygon fill="#000000" stroke="#000000" points="1370.2733,-38.6225 1376.8537,-30.3189 1366.5314,-32.7065 1370.2733,-38.6225"/>
</g>
<!-- iface -->
<g id="node7" class="node">
<title>iface</title>
<ellipse fill="#ffffff" stroke="#000000" cx="1397.0533" cy="-90" rx="29.5916" ry="18"/>
<text text-anchor="middle" x="1397.0533" y="-85.8" font-family="Times,serif" font-size="14.00" fill="#000000">iface</text>
</g>
<!-- core&#45;&gt;iface -->
<g id="edge2" class="edge">
<title>core&#45;&gt;iface</title>
<path fill="none" stroke="#000000" d="M1239.7159,-152.5873C1270.9854,-140.1486 1326.3077,-118.1419 1362.3211,-103.8161"/>
<polygon fill="#000000" stroke="#000000" points="1363.9325,-106.942 1371.9306,-99.9936 1361.3451,-100.4377 1363.9325,-106.942"/>
</g>
<!-- process -->
<g id="node13" class="node">
<title>process</title>
<ellipse fill="#ffffff" stroke="#000000" cx="732.0533" cy="-90" rx="39.9857" ry="18"/>
<text text-anchor="middle" x="732.0533" y="-85.8" font-family="Times,serif" font-size="14.00" fill="#000000">process</text>
</g>
<!-- core&#45;&gt;process -->
<g id="edge3" class="edge">
<title>core&#45;&gt;process</title>
<path fill="none" stroke="#000000" d="M1188.9943,-157.9747C1110.3546,-146.2762 881.0657,-112.1671 780.3969,-97.1916"/>
<polygon fill="#000000" stroke="#000000" points="780.611,-93.685 770.2048,-95.6754 779.5809,-100.6088 780.611,-93.685"/>
</g>
<!-- defaults -->
<g id="node3" class="node">
<title>defaults</title>
<ellipse fill="#ffffff" stroke="#000000" cx="1100.0533" cy="-378" rx="41.7095" ry="18"/>
<text text-anchor="middle" x="1100.0533" y="-373.8" font-family="Times,serif" font-size="14.00" fill="#000000">defaults</text>
</g>
<!-- defaults&#45;&gt;core -->
<g id="edge4" class="edge">
<title>defaults&#45;&gt;core</title>
<path fill="none" stroke="#000000" d="M1114.5184,-361.0273C1122.5068,-350.8697 1132.0068,-337.3697 1138.0533,-324 1158.3978,-279.0152 1140.3233,-259.2945 1164.0533,-216 1170.7663,-203.7523 1180.9887,-192.284 1190.5987,-183.0937"/>
<polygon fill="#000000" stroke="#000000" points="1193.0764,-185.5708 1198.0957,-176.2404 1188.3534,-180.4043 1193.0764,-185.5708"/>
</g>
<!-- engine/null -->
<g id="node5" class="node">
<title>engine/null</title>
<ellipse fill="#ffffff" stroke="#000000" cx="1075.0533" cy="-306" rx="54.4739" ry="18"/>
<text text-anchor="middle" x="1075.0533" y="-301.8" font-family="Times,serif" font-size="14.00" fill="#000000">engine/null</text>
</g>
<!-- defaults&#45;&gt;engine/null -->
<g id="edge5" class="edge">
<title>defaults&#45;&gt;engine/null</title>
<path fill="none" stroke="#000000" d="M1093.7447,-359.8314C1090.9702,-351.8406 1087.6512,-342.2819 1084.585,-333.4514"/>
<polygon fill="#000000" stroke="#000000" points="1087.8598,-332.2121 1081.2732,-323.9134 1081.2471,-334.5082 1087.8598,-332.2121"/>
</g>
<!-- engine/vc -->
<g id="node6" class="node">
<title>engine/vc</title>
<ellipse fill="#ffffff" stroke="#000000" cx="799.0533" cy="-234" rx="48.6559" ry="18"/>
<text text-anchor="middle" x="799.0533" y="-229.8" font-family="Times,serif" font-size="14.00" fill="#000000">engine/vc</text>
</g>
<!-- defaults&#45;&gt;engine/vc -->
<g id="edge6" class="edge">
<title>defaults&#45;&gt;engine/vc</title>
<path fill="none" stroke="#000000" d="M1069.4497,-365.7274C1063.1169,-363.5449 1056.4309,-361.4947 1050.0533,-360 982.1013,-344.074 784.4902,-376.1031 738.0533,-324 719.0672,-302.6972 743.7771,-275.169 767.1964,-256.1967"/>
<polygon fill="#000000" stroke="#000000" points="769.5982,-258.7631 775.3525,-249.8671 765.3065,-253.2331 769.5982,-258.7631"/>
</g>
<!-- defaults&#45;&gt;iface -->
<g id="edge7" class="edge">
<title>defaults&#45;&gt;iface</title>
<path fill="none" stroke="#000000" d="M1069.4538,-365.7098C1063.1207,-363.5286 1056.4335,-361.4834 1050.0533,-360 979.9226,-343.6942 776.0543,-377.6666 728.0533,-324 712.1877,-306.2618 728.9853,-231.8432 741.0533,-216 785.8623,-157.1732 819.9216,-164.2171 891.0533,-144 978.7577,-119.0726 1253.9864,-99.2369 1357.3227,-92.4876"/>
<polygon fill="#000000" stroke="#000000" points="1357.5936,-95.9775 1367.3467,-91.8389 1357.1415,-88.9921 1357.5936,-95.9775"/>
</g>
<!-- pragma -->
<g id="node12" class="node">
<title>pragma</title>
<ellipse fill="#ffffff" stroke="#000000" cx="963.0533" cy="-306" rx="39.9876" ry="18"/>
<text text-anchor="middle" x="963.0533" y="-301.8" font-family="Times,serif" font-size="14.00" fill="#000000">pragma</text>
</g>
<!-- defaults&#45;&gt;pragma -->
<g id="edge8" class="edge">
<title>defaults&#45;&gt;pragma</title>
<path fill="none" stroke="#000000" d="M1073.3131,-363.9468C1051.8647,-352.6746 1021.5835,-336.7604 998.1802,-324.4609"/>
<polygon fill="#000000" stroke="#000000" points="999.7409,-321.3272 989.2606,-319.7732 996.4844,-327.5236 999.7409,-321.3272"/>
</g>
<!-- engine/constant -->
<g id="node4" class="node">
<title>engine/constant</title>
<ellipse fill="#ffffff" stroke="#000000" cx="1814.0533" cy="-234" rx="71.7892" ry="18"/>
<text text-anchor="middle" x="1814.0533" y="-229.8" font-family="Times,serif" font-size="14.00" fill="#000000">engine/constant</text>
</g>
<!-- engine/constant&#45;&gt;core -->
<g id="edge9" class="edge">
<title>engine/constant&#45;&gt;core</title>
<path fill="none" stroke="#000000" d="M1753.2721,-224.3528C1734.6149,-221.5137 1714.0077,-218.501 1695.0533,-216 1531.0874,-194.3648 1334.8166,-173.952 1253.8345,-165.7678"/>
<polygon fill="#000000" stroke="#000000" points="1253.9378,-162.2606 1243.6373,-164.7404 1253.236,-169.2253 1253.9378,-162.2606"/>
</g>
<!-- engine/constant&#45;&gt;data -->
<g id="edge10" class="edge">
<title>engine/constant&#45;&gt;data</title>
<path fill="none" stroke="#000000" d="M1812.3294,-215.9401C1809.4584,-195.7422 1801.8824,-163.3331 1782.0533,-144 1683.341,-47.7569 1510.0563,-25.0271 1434.2865,-19.6593"/>
<polygon fill="#000000" stroke="#000000" points="1434.4651,-16.1637 1424.2602,-19.0113 1434.0136,-23.1491 1434.4651,-16.1637"/>
</g>
<!-- engine/constant&#45;&gt;iface -->
<g id="edge11" class="edge">
<title>engine/constant&#45;&gt;iface</title>
<path fill="none" stroke="#000000" d="M1806.2633,-215.7688C1796.2694,-194.7713 1776.8436,-160.9912 1749.0533,-144 1697.3098,-112.3635 1518.1368,-97.502 1437.2416,-92.2847"/>
<polygon fill="#000000" stroke="#000000" points="1437.1598,-88.7728 1426.9603,-91.6397 1436.7214,-95.7591 1437.1598,-88.7728"/>
</g>
<!-- engine/null&#45;&gt;core -->
<g id="edge12" class="edge">
<title>engine/null&#45;&gt;core</title>
<path fill="none" stroke="#000000" d="M1081.961,-288.0094C1090.1565,-268.4686 1105.3619,-237.2125 1126.0533,-216 1142.4139,-199.2273 1165.0455,-185.6802 1183.5207,-176.35"/>
<polygon fill="#000000" stroke="#000000" points="1185.2871,-179.3829 1192.7479,-171.8605 1182.2245,-173.0884 1185.2871,-179.3829"/>
</g>
<!-- engine/vc&#45;&gt;core -->
<g id="edge13" class="edge">
<title>engine/vc&#45;&gt;core</title>
<path fill="none" stroke="#000000" d="M843.2848,-226.3629C925.8646,-212.1045 1102.0702,-181.6805 1178.9223,-168.4111"/>
<polygon fill="#000000" stroke="#000000" points="1179.8283,-171.8066 1189.0869,-166.6561 1178.6372,-164.9086 1179.8283,-171.8066"/>
</g>
<!-- engine/vc&#45;&gt;data -->
<g id="edge14" class="edge">
<title>engine/vc&#45;&gt;data</title>
<path fill="none" stroke="#000000" d="M800.1993,-215.8017C803.4297,-181.4305 815.6971,-107.2585 862.0533,-72 901.5479,-41.9605 1244.462,-24.5706 1359.5633,-19.539"/>
<polygon fill="#000000" stroke="#000000" points="1359.8209,-23.0312 1369.6609,-19.1038 1359.5195,-16.0377 1359.8209,-23.0312"/>
</g>
<!-- engine/vc&#45;&gt;iface -->
<g id="edge15" class="edge">
<title>engine/vc&#45;&gt;iface</title>
<path fill="none" stroke="#000000" d="M824.1707,-218.4098C858.6267,-197.8112 923.1207,-162.0354 983.0533,-144 1116.0261,-103.9847 1281.8307,-93.6188 1356.8588,-90.9357"/>
<polygon fill="#000000" stroke="#000000" points="1357.3759,-94.4207 1367.2551,-90.593 1357.1452,-87.4245 1357.3759,-94.4207"/>
</g>
<!-- engine/vc&#45;&gt;process -->
<g id="edge16" class="edge">
<title>engine/vc&#45;&gt;process</title>
<path fill="none" stroke="#000000" d="M790.7032,-216.0535C779.1051,-191.1263 758.0293,-145.8289 744.5526,-116.8641"/>
<polygon fill="#000000" stroke="#000000" points="747.6901,-115.3105 740.2982,-107.7204 741.3434,-118.2635 747.6901,-115.3105"/>
</g>
<!-- iface&#45;&gt;data -->
<g id="edge17" class="edge">
<title>iface&#45;&gt;data</title>
<path fill="none" stroke="#000000" d="M1397.0533,-71.8314C1397.0533,-64.131 1397.0533,-54.9743 1397.0533,-46.4166"/>
<polygon fill="#000000" stroke="#000000" points="1400.5534,-46.4132 1397.0533,-36.4133 1393.5534,-46.4133 1400.5534,-46.4132"/>
</g>
<!-- main_shell -->
<g id="node8" class="node">
<title>main_shell</title>
<ellipse fill="#ffffff" stroke="#000000" cx="1487.0533" cy="-234" rx="53.3283" ry="18"/>
<text text-anchor="middle" x="1487.0533" y="-229.8" font-family="Times,serif" font-size="14.00" fill="#000000">main_shell</text>
</g>
<!-- main_shell&#45;&gt;core -->
<g id="edge18" class="edge">
<title>main_shell&#45;&gt;core</title>
<path fill="none" stroke="#000000" d="M1445.0069,-222.829C1391.8755,-208.7129 1301.3672,-184.6664 1251.5468,-171.43"/>
<polygon fill="#000000" stroke="#000000" points="1252.4183,-168.0402 1241.8548,-168.855 1250.6208,-174.8055 1252.4183,-168.0402"/>
</g>
<!-- main_shell&#45;&gt;data -->
<g id="edge19" class="edge">
<title>main_shell&#45;&gt;data</title>
<path fill="none" stroke="#000000" d="M1483.3268,-215.7774C1476.601,-185.0046 1460.7904,-121.278 1436.0533,-72 1430.7848,-61.5049 1423.5596,-50.8393 1416.7589,-41.7898"/>
<polygon fill="#000000" stroke="#000000" points="1419.3463,-39.4153 1410.4464,-33.667 1413.8191,-43.7107 1419.3463,-39.4153"/>
</g>
<!-- main_shell&#45;&gt;iface -->
<g id="edge20" class="edge">
<title>main_shell&#45;&gt;iface</title>
<path fill="none" stroke="#000000" d="M1476.0175,-216.3428C1460.2615,-191.1332 1431.2244,-144.6738 1413.0929,-115.6634"/>
<polygon fill="#000000" stroke="#000000" points="1415.888,-113.5316 1407.6199,-106.9066 1409.952,-117.2416 1415.888,-113.5316"/>
</g>
<!-- mdb -->
<g id="node9" class="node">
<title>mdb</title>
<ellipse fill="#ffffff" stroke="#000000" cx="970.0533" cy="-234" rx="28.4127" ry="18"/>
<text text-anchor="middle" x="970.0533" y="-229.8" font-family="Times,serif" font-size="14.00" fill="#000000">mdb</text>
</g>
<!-- mdb&#45;&gt;core -->
<g id="edge21" class="edge">
<title>mdb&#45;&gt;core</title>
<path fill="none" stroke="#000000" d="M995.9147,-226.4308C1040.2312,-213.4601 1130.7376,-186.9704 1180.7965,-172.3191"/>
<polygon fill="#000000" stroke="#000000" points="1181.9242,-175.6359 1190.5384,-169.4678 1179.9579,-168.9177 1181.9242,-175.6359"/>
</g>
<!-- mdb&#45;&gt;data -->
<g id="edge22" class="edge">
<title>mdb&#45;&gt;data</title>
<path fill="none" stroke="#000000" d="M967.4142,-215.8232C965.5844,-195.8236 965.9827,-163.8843 983.0533,-144 1033.2974,-85.474 1269.2902,-39.7719 1360.7304,-23.9748"/>
<polygon fill="#000000" stroke="#000000" points="1361.3715,-27.4161 1370.6396,-22.2826 1360.1931,-20.516 1361.3715,-27.4161"/>
</g>
<!-- mdb&#45;&gt;iface -->
<g id="edge23" class="edge">
<title>mdb&#45;&gt;iface</title>
<path fill="none" stroke="#000000" d="M973.6039,-215.8657C978.7123,-194.9614 990.2696,-161.271 1014.0533,-144 1068.1695,-104.7026 1269.9502,-93.8661 1356.8383,-90.9918"/>
<polygon fill="#000000" stroke="#000000" points="1357.2057,-94.4822 1367.0917,-90.6723 1356.9875,-87.4856 1357.2057,-94.4822"/>
</g>
<!-- mock -->
<g id="node10" class="node">
<title>mock</title>
<ellipse fill="#ffffff" stroke="#000000" cx="1708.0533" cy="-162" rx="32.4846" ry="18"/>
<text text-anchor="middle" x="1708.0533" y="-157.8" font-family="Times,serif" font-size="14.00" fill="#000000">mock</text>
</g>
<!-- mock&#45;&gt;iface -->
<g id="edge24" class="edge">
<title>mock&#45;&gt;iface</title>
<path fill="none" stroke="#000000" d="M1677.9507,-155.0309C1620.9124,-141.8259 1497.2226,-113.1903 1434.7616,-98.7299"/>
<polygon fill="#000000" stroke="#000000" points="1435.4531,-95.2975 1424.9214,-96.4518 1433.8742,-102.1171 1435.4531,-95.2975"/>
</g>
<!-- pattern -->
<g id="node11" class="node">
<title>pattern</title>
<ellipse fill="#ffffff" stroke="#000000" cx="210.0533" cy="-90" rx="37.6986" ry="18"/>
<text text-anchor="middle" x="210.0533" y="-85.8" font-family="Times,serif" font-size="14.00" fill="#000000">pattern</text>
</g>
<!-- pragma&#45;&gt;core -->
<g id="edge25" class="edge">
<title>pragma&#45;&gt;core</title>
<path fill="none" stroke="#000000" d="M984.8503,-290.7171C1016.7693,-268.4488 1074.8419,-228.3868 1097.0533,-216 1125.0915,-200.3638 1158.4918,-185.5147 1182.7599,-175.3599"/>
<polygon fill="#000000" stroke="#000000" points="1184.3307,-178.4977 1192.2327,-171.4401 1181.6543,-172.0296 1184.3307,-178.4977"/>
</g>
<!-- pragma&#45;&gt;data -->
<g id="edge26" class="edge">
<title>pragma&#45;&gt;data</title>
<path fill="none" stroke="#000000" d="M950.324,-288.487C943.7633,-278.3668 936.4429,-265.081 933.0533,-252 929.0398,-236.5115 929.7318,-231.6514 933.0533,-216 949.6054,-138.0028 968.5211,-107.2232 1040.0533,-72 1095.9585,-44.4717 1280.3648,-27.131 1359.949,-20.7583"/>
<polygon fill="#000000" stroke="#000000" points="1360.3189,-24.2401 1370.0135,-19.9663 1359.7697,-17.2616 1360.3189,-24.2401"/>
</g>
<!-- pragma&#45;&gt;iface -->
<g id="edge27" class="edge">
<title>pragma&#45;&gt;iface</title>
<path fill="none" stroke="#000000" d="M977.1305,-288.8407C997.2898,-264.3782 1032.7629,-221.7819 1040.0533,-216 1137.7731,-138.5001 1286.7759,-106.6631 1357.3436,-95.376"/>
<polygon fill="#000000" stroke="#000000" points="1358.2247,-98.7815 1367.5736,-93.7968 1357.1567,-91.8635 1358.2247,-98.7815"/>
</g>
<!-- pragma&#45;&gt;mdb -->
<g id="edge28" class="edge">
<title>pragma&#45;&gt;mdb</title>
<path fill="none" stroke="#000000" d="M964.8197,-287.8314C965.5683,-280.131 966.4586,-270.9743 967.2906,-262.4166"/>
<polygon fill="#000000" stroke="#000000" points="970.7789,-262.7051 968.2631,-252.4133 963.8118,-262.0276 970.7789,-262.7051"/>
</g>
<!-- process&#45;&gt;data -->
<g id="edge29" class="edge">
<title>process&#45;&gt;data</title>
<path fill="none" stroke="#000000" d="M762.8381,-78.3631C770.3414,-75.9112 778.4098,-73.5888 786.0533,-72 896.8894,-48.9606 1245.066,-26.9434 1359.9018,-20.1422"/>
<polygon fill="#000000" stroke="#000000" points="1360.1833,-23.6318 1369.9603,-19.5501 1359.7719,-16.6439 1360.1833,-23.6318"/>
</g>
<!-- readline -->
<g id="node14" class="node">
<title>readline</title>
<ellipse fill="#ffffff" stroke="#000000" cx="2052.0533" cy="-162" rx="42.2719" ry="18"/>
<text text-anchor="middle" x="2052.0533" y="-157.8" font-family="Times,serif" font-size="14.00" fill="#000000">readline</text>
</g>
<!-- readline&#45;&gt;data -->
<g id="edge30" class="edge">
<title>readline&#45;&gt;data</title>
<path fill="none" stroke="#000000" d="M2046.3584,-143.9083C2038.6451,-122.7114 2022.6907,-88.4068 1996.0533,-72 1948.2709,-42.5693 1558.3073,-24.4867 1434.5753,-19.4479"/>
<polygon fill="#000000" stroke="#000000" points="1434.5826,-15.9455 1424.45,-19.0406 1434.3012,-22.9398 1434.5826,-15.9455"/>
</g>
<!-- readline&#45;&gt;iface -->
<g id="edge31" class="edge">
<title>readline&#45;&gt;iface</title>
<path fill="none" stroke="#000000" d="M2011.0801,-157.4961C1893.074,-144.5244 1553.4529,-107.192 1436.8869,-94.3787"/>
<polygon fill="#000000" stroke="#000000" points="1436.9581,-90.8655 1426.6355,-93.2518 1436.1932,-97.8236 1436.9581,-90.8655"/>
</g>
<!-- replace_part -->
<g id="node15" class="node">
<title>replace_part</title>
<ellipse fill="#ffffff" stroke="#000000" cx="982.0533" cy="-378" rx="58.5059" ry="18"/>
<text text-anchor="middle" x="982.0533" y="-373.8" font-family="Times,serif" font-size="14.00" fill="#000000">replace_part</text>
</g>
<!-- system_test -->
<g id="node16" class="node">
<title>system_test</title>
<ellipse fill="#ffffff" stroke="#000000" cx="292.0533" cy="-162" rx="56.1937" ry="18"/>
<text text-anchor="middle" x="292.0533" y="-157.8" font-family="Times,serif" font-size="14.00" fill="#000000">system_test</text>
</g>
<!-- system_test&#45;&gt;pattern -->
<g id="edge32" class="edge">
<title>system_test&#45;&gt;pattern</title>
<path fill="none" stroke="#000000" d="M272.6204,-144.937C261.692,-135.3413 247.9058,-123.2363 236.0574,-112.8328"/>
<polygon fill="#000000" stroke="#000000" points="238.0469,-109.922 228.2231,-105.954 233.4282,-115.1821 238.0469,-109.922"/>
</g>
<!-- system_test&#45;&gt;process -->
<g id="edge33" class="edge">
<title>system_test&#45;&gt;process</title>
<path fill="none" stroke="#000000" d="M342.0985,-153.8108C427.5066,-139.8349 600.2918,-111.561 684.1873,-97.8326"/>
<polygon fill="#000000" stroke="#000000" points="684.9047,-101.2619 694.2083,-96.1928 683.7743,-94.3537 684.9047,-101.2619"/>
</g>
<!-- app/metashell -->
<g id="node17" class="node">
<title>app/metashell</title>
<polygon fill="none" stroke="#000000" points="1482.8096,-468 1389.297,-468 1389.297,-432 1482.8096,-432 1482.8096,-468"/>
<text text-anchor="middle" x="1436.0533" y="-445.8" font-family="Times,serif" font-size="14.00" fill="#000000">app/metashell</text>
</g>
<!-- app/metashell&#45;&gt;core -->
<g id="edge34" class="edge">
<title>app/metashell&#45;&gt;core</title>
<path fill="none" stroke="#000000" d="M1392.8386,-431.9842C1349.2413,-411.7405 1282.8446,-374.9217 1243.0533,-324 1212.7441,-285.2128 1211.0354,-225.0648 1213.1363,-190.0064"/>
<polygon fill="#000000" stroke="#000000" points="1216.6303,-190.2156 1213.8832,-179.9831 1209.6497,-189.6954 1216.6303,-190.2156"/>
</g>
<!-- app/metashell&#45;&gt;data -->
<g id="edge35" class="edge">
<title>app/metashell&#45;&gt;data</title>
<path fill="none" stroke="#000000" d="M1483.0663,-447.6316C1566.6356,-442.7207 1746.1684,-429.0011 1894.0533,-396 2017.5079,-368.4507 2164.0533,-432.4911 2164.0533,-306 2164.0533,-306 2164.0533,-306 2164.0533,-162 2164.0533,-121.1184 2175.8582,-98.8768 2145.0533,-72 2118.0147,-48.4092 1582.7082,-25.3985 1434.6913,-19.4676"/>
<polygon fill="#000000" stroke="#000000" points="1434.4519,-15.9554 1424.3206,-19.0547 1434.1734,-22.9499 1434.4519,-15.9554"/>
</g>
<!-- app/metashell&#45;&gt;defaults -->
<g id="edge36" class="edge">
<title>app/metashell&#45;&gt;defaults</title>
<path fill="none" stroke="#000000" d="M1389.0246,-440.1877C1337.8338,-429.4729 1253.5798,-411.7374 1181.0533,-396 1170.0593,-393.6144 1158.2352,-391.0093 1147.1104,-388.5405"/>
<polygon fill="#000000" stroke="#000000" points="1147.6557,-385.0763 1137.1343,-386.3218 1146.1359,-391.9094 1147.6557,-385.0763"/>
</g>
<!-- app/metashell&#45;&gt;iface -->
<g id="edge37" class="edge">
<title>app/metashell&#45;&gt;iface</title>
<path fill="none" stroke="#000000" d="M1429.6911,-431.615C1420.8848,-404.4838 1406.0533,-351.9662 1406.0533,-306 1406.0533,-306 1406.0533,-306 1406.0533,-234 1406.0533,-193.7977 1402.5158,-147.4047 1399.8765,-118.385"/>
<polygon fill="#000000" stroke="#000000" points="1403.3363,-117.7923 1398.9181,-108.1626 1396.3669,-118.4457 1403.3363,-117.7923"/>
</g>
<!-- app/metashell&#45;&gt;main_shell -->
<g id="edge38" class="edge">
<title>app/metashell&#45;&gt;main_shell</title>
<path fill="none" stroke="#000000" d="M1440.3138,-431.9555C1449.2013,-394.3144 1469.7731,-307.1867 1480.4128,-262.1246"/>
<polygon fill="#000000" stroke="#000000" points="1483.8774,-262.6818 1482.769,-252.1451 1477.0647,-261.0732 1483.8774,-262.6818"/>
</g>
<!-- app/metashell&#45;&gt;readline -->
<g id="edge39" class="edge">
<title>app/metashell&#45;&gt;readline</title>
<path fill="none" stroke="#000000" d="M1483.1434,-445.8236C1605.4898,-434.0303 1929.1063,-396.5229 2004.0533,-324 2040.6371,-288.5994 2049.6788,-226.7455 2051.708,-190.5737"/>
<polygon fill="#000000" stroke="#000000" points="2055.2195,-190.3662 2052.1354,-180.2302 2048.2254,-190.0772 2055.2195,-190.3662"/>
</g>
<!-- app/reference_gen -->
<g id="node18" class="node">
<title>app/reference_gen</title>
<polygon fill="none" stroke="#000000" points="954.9285,-468 835.1781,-468 835.1781,-432 954.9285,-432 954.9285,-468"/>
<text text-anchor="middle" x="895.0533" y="-445.8" font-family="Times,serif" font-size="14.00" fill="#000000">app/reference_gen</text>
</g>
<!-- app/reference_gen&#45;&gt;data -->
<g id="edge40" class="edge">
<title>app/reference_gen&#45;&gt;data</title>
<path fill="none" stroke="#000000" d="M835.3328,-442.3582C760.813,-429.0933 643.0533,-394.1809 643.0533,-306 643.0533,-306 643.0533,-306 643.0533,-162 643.0533,-118.2273 647.2764,-97.2203 683.0533,-72 738.631,-32.8214 1220.7751,-21.1672 1359.7254,-18.6075"/>
<polygon fill="#000000" stroke="#000000" points="1359.9372,-22.1044 1369.8728,-18.4256 1359.8117,-15.1055 1359.9372,-22.1044"/>
</g>
<!-- app/reference_gen&#45;&gt;defaults -->
<g id="edge41" class="edge">
<title>app/reference_gen&#45;&gt;defaults</title>
<path fill="none" stroke="#000000" d="M947.4751,-431.8875C977.5264,-421.4667 1015.9398,-408.0824 1050.0533,-396 1052.7846,-395.0326 1055.5982,-394.0317 1058.4329,-393.02"/>
<polygon fill="#000000" stroke="#000000" points="1059.828,-396.2382 1068.0628,-389.572 1057.4682,-389.6479 1059.828,-396.2382"/>
</g>
<!-- app/reference_gen&#45;&gt;mdb -->
<g id="edge42" class="edge">
<title>app/reference_gen&#45;&gt;mdb</title>
<path fill="none" stroke="#000000" d="M893.3584,-431.8783C891.2464,-400.7081 890.4108,-335.6996 914.0533,-288 920.6492,-274.6926 931.9118,-262.8535 942.6147,-253.6769"/>
<polygon fill="#000000" stroke="#000000" points="945.0412,-256.2155 950.6037,-247.1983 940.6321,-250.7785 945.0412,-256.2155"/>
</g>
<!-- app/reference_gen&#45;&gt;replace_part -->
<g id="edge43" class="edge">
<title>app/reference_gen&#45;&gt;replace_part</title>
<path fill="none" stroke="#000000" d="M917.0071,-431.8314C928.1318,-422.6247 941.7717,-411.3365 953.6829,-401.479"/>
<polygon fill="#000000" stroke="#000000" points="956.1282,-403.9984 961.6007,-394.9263 951.6652,-398.6056 956.1282,-403.9984"/>
</g>
<!-- test/system/core -->
<g id="node19" class="node">
<title>test/system/core</title>
<polygon fill="none" stroke="#000000" points="220.2499,-252 113.8567,-252 113.8567,-216 220.2499,-216 220.2499,-252"/>
<text text-anchor="middle" x="167.0533" y="-229.8" font-family="Times,serif" font-size="14.00" fill="#000000">test/system/core</text>
</g>
<!-- test/system/core&#45;&gt;system_test -->
<g id="edge44" class="edge">
<title>test/system/core&#45;&gt;system_test</title>
<path fill="none" stroke="#000000" d="M198.5961,-215.8314C215.841,-205.8983 237.2926,-193.5422 255.2928,-183.1741"/>
<polygon fill="#000000" stroke="#000000" points="257.4321,-185.9809 264.3505,-177.9568 253.9383,-179.9152 257.4321,-185.9809"/>
</g>
<!-- test/system/mdb -->
<g id="node20" class="node">
<title>test/system/mdb</title>
<polygon fill="none" stroke="#000000" points="345.5505,-252 238.5561,-252 238.5561,-216 345.5505,-216 345.5505,-252"/>
<text text-anchor="middle" x="292.0533" y="-229.8" font-family="Times,serif" font-size="14.00" fill="#000000">test/system/mdb</text>
</g>
<!-- test/system/mdb&#45;&gt;system_test -->
<g id="edge45" class="edge">
<title>test/system/mdb&#45;&gt;system_test</title>
<path fill="none" stroke="#000000" d="M292.0533,-215.8314C292.0533,-208.131 292.0533,-198.9743 292.0533,-190.4166"/>
<polygon fill="#000000" stroke="#000000" points="295.5534,-190.4132 292.0533,-180.4133 288.5534,-190.4133 295.5534,-190.4132"/>
</g>
<!-- test/system/pdb -->
<g id="node21" class="node">
<title>test/system/pdb</title>
<polygon fill="none" stroke="#000000" points="466.66,-252 363.4466,-252 363.4466,-216 466.66,-216 466.66,-252"/>
<text text-anchor="middle" x="415.0533" y="-229.8" font-family="Times,serif" font-size="14.00" fill="#000000">test/system/pdb</text>
</g>
<!-- test/system/pdb&#45;&gt;system_test -->
<g id="edge46" class="edge">
<title>test/system/pdb&#45;&gt;system_test</title>
<path fill="none" stroke="#000000" d="M384.0152,-215.8314C367.0462,-205.8983 345.9379,-193.5422 328.2257,-183.1741"/>
<polygon fill="#000000" stroke="#000000" points="329.7111,-179.9881 319.3128,-177.9568 326.1748,-186.0292 329.7111,-179.9881"/>
</g>
<!-- test/system/pp -->
<g id="node22" class="node">
<title>test/system/pp</title>
<polygon fill="none" stroke="#000000" points="96.16,-252 -.0534,-252 -.0534,-216 96.16,-216 96.16,-252"/>
<text text-anchor="middle" x="48.0533" y="-229.8" font-family="Times,serif" font-size="14.00" fill="#000000">test/system/pp</text>
</g>
<!-- test/system/pp&#45;&gt;pattern -->
<g id="edge47" class="edge">
<title>test/system/pp&#45;&gt;pattern</title>
<path fill="none" stroke="#000000" d="M68.5707,-215.7623C98.0825,-189.5296 152.4812,-141.1752 184.5436,-112.6753"/>
<polygon fill="#000000" stroke="#000000" points="187.0362,-115.1425 192.1851,-105.8829 182.3857,-109.9106 187.0362,-115.1425"/>
</g>
<!-- test/system/pp&#45;&gt;system_test -->
<g id="edge48" class="edge">
<title>test/system/pp&#45;&gt;system_test</title>
<path fill="none" stroke="#000000" d="M96.2294,-218.6943C99.2129,-217.775 102.1725,-216.8707 105.0533,-216 150.4841,-202.2695 202.3515,-187.3512 239.9185,-176.6813"/>
<polygon fill="#000000" stroke="#000000" points="240.9666,-180.0221 249.6322,-173.9265 239.0567,-173.2877 240.9666,-180.0221"/>
</g>
<!-- test/unit/core -->
<g id="node23" class="node">
<title>test/unit/core</title>
<polygon fill="none" stroke="#000000" points="1685.6459,-252 1596.4607,-252 1596.4607,-216 1685.6459,-216 1685.6459,-252"/>
<text text-anchor="middle" x="1641.0533" y="-229.8" font-family="Times,serif" font-size="14.00" fill="#000000">test/unit/core</text>
</g>
<!-- test/unit/core&#45;&gt;core -->
<g id="edge49" class="edge">
<title>test/unit/core&#45;&gt;core</title>
<path fill="none" stroke="#000000" d="M1596.1861,-224.919C1581.2158,-221.9698 1564.4333,-218.7508 1549.0533,-216 1441.961,-196.8456 1314.9578,-177.0573 1253.3222,-167.6397"/>
<polygon fill="#000000" stroke="#000000" points="1253.7112,-164.1587 1243.2979,-166.1115 1252.6562,-171.0787 1253.7112,-164.1587"/>
</g>
<!-- test/unit/core&#45;&gt;data -->
<g id="edge50" class="edge">
<title>test/unit/core&#45;&gt;data</title>
<path fill="none" stroke="#000000" d="M1620.6697,-215.9555C1575.9528,-176.3701 1469.4103,-82.0537 1421.3302,-39.491"/>
<polygon fill="#000000" stroke="#000000" points="1423.4036,-36.6521 1413.596,-32.6443 1418.7637,-41.8934 1423.4036,-36.6521"/>
</g>
<!-- test/unit/core&#45;&gt;mock -->
<g id="edge51" class="edge">
<title>test/unit/core&#45;&gt;mock</title>
<path fill="none" stroke="#000000" d="M1657.9602,-215.8314C1666.4027,-206.7588 1676.7263,-195.6649 1685.8032,-185.9106"/>
<polygon fill="#000000" stroke="#000000" points="1688.5055,-188.1443 1692.7556,-178.4393 1683.381,-183.3757 1688.5055,-188.1443"/>
</g>
<!-- test/unit/data -->
<g id="node24" class="node">
<title>test/unit/data</title>
<polygon fill="none" stroke="#000000" points="2136.3765,-108 2047.7301,-108 2047.7301,-72 2136.3765,-72 2136.3765,-108"/>
<text text-anchor="middle" x="2092.0533" y="-85.8" font-family="Times,serif" font-size="14.00" fill="#000000">test/unit/data</text>
</g>
<!-- test/unit/data&#45;&gt;data -->
<g id="edge52" class="edge">
<title>test/unit/data&#45;&gt;data</title>
<path fill="none" stroke="#000000" d="M2047.6538,-75.1565C2043.0941,-73.953 2038.5029,-72.8684 2034.0533,-72 1917.7389,-49.2991 1552.2034,-26.8944 1434.1879,-20.089"/>
<polygon fill="#000000" stroke="#000000" points="1434.3764,-16.5942 1424.1924,-19.5159 1433.9756,-23.5827 1434.3764,-16.5942"/>
</g>
<!-- test/unit/engine/vc -->
<g id="node25" class="node">
<title>test/unit/engine/vc</title>
<polygon fill="none" stroke="#000000" points="866.9819,-324 747.1247,-324 747.1247,-288 866.9819,-288 866.9819,-324"/>
<text text-anchor="middle" x="807.0533" y="-301.8" font-family="Times,serif" font-size="14.00" fill="#000000">test/unit/engine/vc</text>
</g>
<!-- test/unit/engine/vc&#45;&gt;data -->
<g id="edge53" class="edge">
<title>test/unit/engine/vc&#45;&gt;data</title>
<path fill="none" stroke="#000000" d="M825.3273,-287.5995C835.1115,-277.4238 847.1519,-264.3679 857.0533,-252 917.7662,-176.1635 898.1496,-122.638 981.0533,-72 1044.2752,-33.3838 1269.7396,-22.0405 1359.6479,-19.0106"/>
<polygon fill="#000000" stroke="#000000" points="1359.7889,-22.508 1369.6714,-18.6887 1359.5641,-15.5116 1359.7889,-22.508"/>
</g>
<!-- test/unit/engine/vc&#45;&gt;engine/vc -->
<g id="edge54" class="edge">
<title>test/unit/engine/vc&#45;&gt;engine/vc</title>
<path fill="none" stroke="#000000" d="M805.0346,-287.8314C804.179,-280.131 803.1616,-270.9743 802.2107,-262.4166"/>
<polygon fill="#000000" stroke="#000000" points="805.6822,-261.9656 801.0992,-252.4133 798.725,-262.7386 805.6822,-261.9656"/>
</g>
<!-- test/unit/main_shell -->
<g id="node26" class="node">
<title>test/unit/main_shell</title>
<polygon fill="none" stroke="#000000" points="1728.4931,-324 1601.6135,-324 1601.6135,-288 1728.4931,-288 1728.4931,-324"/>
<text text-anchor="middle" x="1665.0533" y="-301.8" font-family="Times,serif" font-size="14.00" fill="#000000">test/unit/main_shell</text>
</g>
<!-- test/unit/main_shell&#45;&gt;core -->
<g id="edge55" class="edge">
<title>test/unit/main_shell&#45;&gt;core</title>
<path fill="none" stroke="#000000" d="M1601.7859,-295.0864C1552.8878,-285.8583 1483.8516,-271.0923 1425.0533,-252 1360.0035,-230.8777 1287.3543,-197.1647 1247.1325,-177.5497"/>
<polygon fill="#000000" stroke="#000000" points="1248.6238,-174.3828 1238.1047,-173.1177 1245.5389,-180.6665 1248.6238,-174.3828"/>
</g>
<!-- test/unit/main_shell&#45;&gt;data -->
<g id="edge56" class="edge">
<title>test/unit/main_shell&#45;&gt;data</title>
<path fill="none" stroke="#000000" d="M1728.3774,-299.867C1789.1294,-292.5192 1874.5789,-277.8382 1895.0533,-252 1904.9903,-239.4598 1901.905,-230.4587 1895.0533,-216 1851.4777,-124.0449 1809.9271,-113.5816 1717.0533,-72 1666.9386,-49.5626 1507.6315,-29.9881 1434.4582,-21.924"/>
<polygon fill="#000000" stroke="#000000" points="1434.6306,-18.4222 1424.3104,-20.8188 1433.8726,-25.381 1434.6306,-18.4222"/>
</g>
<!-- test/unit/main_shell&#45;&gt;engine/constant -->
<g id="edge57" class="edge">
<title>test/unit/main_shell&#45;&gt;engine/constant</title>
<path fill="none" stroke="#000000" d="M1702.6523,-287.8314C1723.6985,-277.6614 1750.0012,-264.9513 1771.763,-254.4356"/>
<polygon fill="#000000" stroke="#000000" points="1773.3018,-257.5793 1780.7829,-250.077 1770.2562,-251.2765 1773.3018,-257.5793"/>
</g>
<!-- test/unit/main_shell&#45;&gt;iface -->
<g id="edge58" class="edge">
<title>test/unit/main_shell&#45;&gt;iface</title>
<path fill="none" stroke="#000000" d="M1636.5043,-287.7585C1621.4013,-277.7339 1602.7806,-264.7692 1587.0533,-252 1568.9922,-237.336 1566.4627,-231.432 1549.0533,-216 1505.913,-177.7596 1453.8504,-135.3809 1423.2096,-110.807"/>
<polygon fill="#000000" stroke="#000000" points="1425.1553,-107.8814 1415.1605,-104.3663 1420.7818,-113.347 1425.1553,-107.8814"/>
</g>
<!-- test/unit/main_shell&#45;&gt;main_shell -->
<g id="edge59" class="edge">
<title>test/unit/main_shell&#45;&gt;main_shell</title>
<path fill="none" stroke="#000000" d="M1620.1364,-287.8314C1592.8021,-276.7748 1558.0458,-262.7161 1530.9072,-251.7387"/>
<polygon fill="#000000" stroke="#000000" points="1531.8641,-248.3503 1521.2813,-247.845 1529.2392,-254.8395 1531.8641,-248.3503"/>
</g>
<!-- test/unit/main_shell&#45;&gt;mock -->
<g id="edge60" class="edge">
<title>test/unit/main_shell&#45;&gt;mock</title>
<path fill="none" stroke="#000000" d="M1677.3665,-287.7856C1683.6321,-277.6644 1690.8035,-264.6012 1695.0533,-252 1701.8116,-231.9609 1705.0566,-208.2505 1706.6146,-190.1979"/>
<polygon fill="#000000" stroke="#000000" points="1710.1192,-190.2642 1707.367,-180.0331 1703.1383,-189.7475 1710.1192,-190.2642"/>
</g>
<!-- test/unit/mdb -->
<g id="node27" class="node">
<title>test/unit/mdb</title>
<polygon fill="none" stroke="#000000" points="1374.9468,-324 1285.1598,-324 1285.1598,-288 1374.9468,-288 1374.9468,-324"/>
<text text-anchor="middle" x="1330.0533" y="-301.8" font-family="Times,serif" font-size="14.00" fill="#000000">test/unit/mdb</text>
</g>
<!-- test/unit/mdb&#45;&gt;core -->
<g id="edge61" class="edge">
<title>test/unit/mdb&#45;&gt;core</title>
<path fill="none" stroke="#000000" d="M1310.9777,-287.7043C1300.7815,-277.5593 1288.2623,-264.4993 1278.0533,-252 1261.0343,-231.1629 1243.8472,-205.797 1231.8997,-187.3121"/>
<polygon fill="#000000" stroke="#000000" points="1234.8169,-185.3773 1226.4791,-178.8404 1228.9206,-189.1501 1234.8169,-185.3773"/>
</g>
<!-- test/unit/mdb&#45;&gt;data -->
<g id="edge62" class="edge">
<title>test/unit/mdb&#45;&gt;data</title>
<path fill="none" stroke="#000000" d="M1329.2042,-287.9476C1327.943,-247.6707 1328.3624,-148.0335 1358.0533,-72 1362.2611,-61.2244 1369.1352,-50.625 1375.9494,-41.7093"/>
<polygon fill="#000000" stroke="#000000" points="1378.8313,-43.711 1382.3753,-33.7264 1373.3784,-39.3216 1378.8313,-43.711"/>
</g>
<!-- test/unit/mdb&#45;&gt;engine/constant -->
<g id="edge63" class="edge">
<title>test/unit/mdb&#45;&gt;engine/constant</title>
<path fill="none" stroke="#000000" d="M1375.0136,-299.3962C1443.9116,-289.2657 1579.7513,-269.2495 1695.0533,-252 1710.3945,-249.7049 1726.8454,-247.2272 1742.4723,-244.8658"/>
<polygon fill="#000000" stroke="#000000" points="1743.2383,-248.2899 1752.6025,-243.334 1742.1916,-241.3686 1743.2383,-248.2899"/>
</g>
<!-- test/unit/mdb&#45;&gt;iface -->
<g id="edge64" class="edge">
<title>test/unit/mdb&#45;&gt;iface</title>
<path fill="none" stroke="#000000" d="M1335.6504,-287.9555C1347.38,-250.1409 1374.6013,-162.3825 1388.5219,-117.5042"/>
<polygon fill="#000000" stroke="#000000" points="1391.8994,-118.4293 1391.5192,-107.8413 1385.2137,-116.3554 1391.8994,-118.4293"/>
</g>
<!-- test/unit/mdb&#45;&gt;mdb -->
<g id="edge65" class="edge">
<title>test/unit/mdb&#45;&gt;mdb</title>
<path fill="none" stroke="#000000" d="M1284.8236,-296.9541C1212.9423,-282.5778 1073.9682,-254.783 1007.3872,-241.4668"/>
<polygon fill="#000000" stroke="#000000" points="1007.8365,-237.9874 997.3443,-239.4582 1006.4636,-244.8515 1007.8365,-237.9874"/>
</g>
<!-- test/unit/pragma -->
<g id="node28" class="node">
<title>test/unit/pragma</title>
<polygon fill="none" stroke="#000000" points="1719.5365,-396 1612.5701,-396 1612.5701,-360 1719.5365,-360 1719.5365,-396"/>
<text text-anchor="middle" x="1666.0533" y="-373.8" font-family="Times,serif" font-size="14.00" fill="#000000">test/unit/pragma</text>
</g>
<!-- test/unit/pragma&#45;&gt;core -->
<g id="edge66" class="edge">
<title>test/unit/pragma&#45;&gt;core</title>
<path fill="none" stroke="#000000" d="M1612.2832,-373.6096C1511.4764,-364.9384 1301.8725,-344.6581 1276.0533,-324 1234.9161,-291.0858 1221.9834,-227.0664 1217.9176,-190.1259"/>
<polygon fill="#000000" stroke="#000000" points="1221.3887,-189.656 1216.9542,-180.034 1214.4204,-190.3213 1221.3887,-189.656"/>
</g>
<!-- test/unit/pragma&#45;&gt;data -->
<g id="edge67" class="edge">
<title>test/unit/pragma&#45;&gt;data</title>
<path fill="none" stroke="#000000" d="M1719.7565,-371.7893C1760.0092,-365.0908 1814.9939,-351.4341 1856.0533,-324 1889.9892,-301.3255 1899.6419,-290.5475 1913.0533,-252 1929.726,-204.0788 1909.6778,-181.9975 1876.0533,-144 1838.3117,-101.3499 1823.1461,-92.606 1770.0533,-72 1709.1214,-48.3515 1516.1298,-28.7266 1434.3033,-21.2475"/>
<polygon fill="#000000" stroke="#000000" points="1434.2505,-17.7286 1423.9761,-20.3143 1433.6205,-24.7002 1434.2505,-17.7286"/>
</g>
<!-- test/unit/pragma&#45;&gt;engine/constant -->
<g id="edge68" class="edge">
<title>test/unit/pragma&#45;&gt;engine/constant</title>
<path fill="none" stroke="#000000" d="M1692.7554,-359.764C1706.5463,-349.8423 1723.3152,-336.9703 1737.0533,-324 1758.1885,-304.0461 1779.4593,-278.6887 1794.2723,-259.9785"/>
<polygon fill="#000000" stroke="#000000" points="1797.1933,-261.925 1800.6002,-251.8929 1791.6808,-257.6108 1797.1933,-261.925"/>
</g>
<!-- test/unit/pragma&#45;&gt;main_shell -->
<g id="edge69" class="edge">
<title>test/unit/pragma&#45;&gt;main_shell</title>
<path fill="none" stroke="#000000" d="M1640.7384,-359.9146C1626.5444,-349.6154 1608.6171,-336.3411 1593.0533,-324 1565.545,-302.1877 1535.0845,-276.1148 1513.9023,-257.6604"/>
<polygon fill="#000000" stroke="#000000" points="1516.0969,-254.9301 1506.2638,-250.9853 1511.4907,-260.2011 1516.0969,-254.9301"/>
</g>
<!-- test/unit/pragma&#45;&gt;mock -->
<g id="edge70" class="edge">
<title>test/unit/pragma&#45;&gt;mock</title>
<path fill="none" stroke="#000000" d="M1719.7657,-365.5726C1774.9078,-349.6197 1857.7622,-316.0084 1895.0533,-252 1928.7109,-194.2283 1815.3097,-172.921 1750.3672,-165.5697"/>
<polygon fill="#000000" stroke="#000000" points="1750.705,-162.086 1740.3903,-164.5063 1749.963,-169.0465 1750.705,-162.086"/>
</g>
<!-- test/unit/pragma&#45;&gt;pragma -->
<g id="edge71" class="edge">
<title>test/unit/pragma&#45;&gt;pragma</title>
<path fill="none" stroke="#000000" d="M1612.1043,-375.4209C1476.8659,-368.6547 1126.0855,-349.1663 1012.0533,-324 1008.8231,-323.2871 1005.5179,-322.4116 1002.2248,-321.4343"/>
<polygon fill="#000000" stroke="#000000" points="1003.061,-318.0258 992.4687,-318.2581 1000.894,-324.6819 1003.061,-318.0258"/>
</g>
<!-- test/unit/replace_part -->
<g id="node29" class="node">
<title>test/unit/replace_part</title>
<polygon fill="none" stroke="#000000" points="1107.2316,-468 972.875,-468 972.875,-432 1107.2316,-432 1107.2316,-468"/>
<text text-anchor="middle" x="1040.0533" y="-445.8" font-family="Times,serif" font-size="14.00" fill="#000000">test/unit/replace_part</text>
</g>
<!-- test/unit/replace_part&#45;&gt;replace_part -->
<g id="edge72" class="edge">
<title>test/unit/replace_part&#45;&gt;replace_part</title>
<path fill="none" stroke="#000000" d="M1025.4175,-431.8314C1018.5652,-423.3251 1010.2815,-413.0419 1002.798,-403.752"/>
<polygon fill="#000000" stroke="#000000" points="1005.4825,-401.5053 996.4835,-395.9134 1000.0312,-405.8966 1005.4825,-401.5053"/>
</g>
<!-- test/unit/system_test -->
<g id="node30" class="node">
<title>test/unit/system_test</title>
<polygon fill="none" stroke="#000000" points="615.3819,-252 484.7247,-252 484.7247,-216 615.3819,-216 615.3819,-252"/>
<text text-anchor="middle" x="550.0533" y="-229.8" font-family="Times,serif" font-size="14.00" fill="#000000">test/unit/system_test</text>
</g>
<!-- test/unit/system_test&#45;&gt;system_test -->
<g id="edge73" class="edge">
<title>test/unit/system_test&#45;&gt;system_test</title>
<path fill="none" stroke="#000000" d="M485.282,-215.9243C441.7066,-203.7637 385.0038,-187.9397 344.3098,-176.5832"/>
<polygon fill="#000000" stroke="#000000" points="345.1595,-173.1867 334.5867,-173.8698 343.2779,-179.929 345.1595,-173.1867"/>
</g>
</g>
</svg>
