<?xml version="1.0" encoding="UTF-8" standalone="no"?>
<!DOCTYPE svg PUBLIC "-//W3C//DTD SVG 1.1//EN"
 "http://www.w3.org/Graphics/SVG/1.1/DTD/svg11.dtd">
<!-- Generated by graphviz version 2.40.1
 -->
<!-- Title: %3 Pages: 1 -->
<svg width="2248pt" height="476pt"
 viewBox="0.00 0.00 2248.47 476.00" xmlns="http://www.w3.org/2000/svg" xmlns:xlink="http://www.w3.org/1999/xlink">
<g id="graph0" class="graph" transform="scale(1 1) rotate(0) translate(4 472)">
<title>%3</title>
<polygon fill="#ffffff" stroke="transparent" points="-4,4 -4,-472 2244.467,-472 2244.467,4 -4,4"/>
<!-- compiler_stub -->
<g id="node1" class="node">
<title>compiler_stub</title>
<ellipse fill="#ffffff" stroke="#000000" cx="1913.0869" cy="-90" rx="66.0723" ry="18"/>
<text text-anchor="middle" x="1913.0869" y="-85.8" font-family="Times,serif" font-size="14.00" fill="#000000">compiler_stub</text>
</g>
<!-- data -->
<g id="node3" class="node">
<title>data</title>
<ellipse fill="#ffffff" stroke="#000000" cx="1438.0869" cy="-18" rx="27.2447" ry="18"/>
<text text-anchor="middle" x="1438.0869" y="-13.8" font-family="Times,serif" font-size="14.00" fill="#000000">data</text>
</g>
<!-- compiler_stub&#45;&gt;data -->
<g id="edge1" class="edge">
<title>compiler_stub&#45;&gt;data</title>
<path fill="none" stroke="#000000" d="M1854.8426,-81.1714C1755.6391,-66.1342 1556.6778,-35.9759 1474.689,-23.5481"/>
<polygon fill="#000000" stroke="#000000" points="1475.0117,-20.0571 1464.6001,-22.0188 1473.9626,-26.9781 1475.0117,-20.0571"/>
</g>
<!-- core -->
<g id="node2" class="node">
<title>core</title>
<ellipse fill="#ffffff" stroke="#000000" cx="538.0869" cy="-162" rx="27.8073" ry="18"/>
<text text-anchor="middle" x="538.0869" y="-157.8" font-family="Times,serif" font-size="14.00" fill="#000000">core</text>
</g>
<!-- iface -->
<g id="node12" class="node">
<title>iface</title>
<ellipse fill="#ffffff" stroke="#000000" cx="463.0869" cy="-90" rx="29.5916" ry="18"/>
<text text-anchor="middle" x="463.0869" y="-85.8" font-family="Times,serif" font-size="14.00" fill="#000000">iface</text>
</g>
<!-- core&#45;&gt;iface -->
<g id="edge2" class="edge">
<title>core&#45;&gt;iface</title>
<path fill="none" stroke="#000000" d="M522.5469,-147.0816C512.1287,-137.0801 498.2191,-123.7269 486.4728,-112.4504"/>
<polygon fill="#000000" stroke="#000000" points="488.7623,-109.7966 479.1246,-105.3961 483.9146,-114.8463 488.7623,-109.7966"/>
</g>
<!-- defaults -->
<g id="node4" class="node">
<title>defaults</title>
<ellipse fill="#ffffff" stroke="#000000" cx="791.0869" cy="-378" rx="41.7095" ry="18"/>
<text text-anchor="middle" x="791.0869" y="-373.8" font-family="Times,serif" font-size="14.00" fill="#000000">defaults</text>
</g>
<!-- engine/gcc -->
<g id="node7" class="node">
<title>engine/gcc</title>
<ellipse fill="#ffffff" stroke="#000000" cx="1122.0869" cy="-306" rx="52.7295" ry="18"/>
<text text-anchor="middle" x="1122.0869" y="-301.8" font-family="Times,serif" font-size="14.00" fill="#000000">engine/gcc</text>
</g>
<!-- defaults&#45;&gt;engine/gcc -->
<g id="edge3" class="edge">
<title>defaults&#45;&gt;engine/gcc</title>
<path fill="none" stroke="#000000" d="M826.7295,-368.4562C838.0007,-365.5749 850.5307,-362.5124 862.0869,-360 949.488,-340.9988 973.0242,-344.4958 1060.0869,-324 1064.1987,-323.032 1068.4435,-321.959 1072.6931,-320.8327"/>
<polygon fill="#000000" stroke="#000000" points="1073.836,-324.1487 1082.5572,-318.1327 1071.9879,-317.3971 1073.836,-324.1487"/>
</g>
<!-- engine/null -->
<g id="node8" class="node">
<title>engine/null</title>
<ellipse fill="#ffffff" stroke="#000000" cx="579.0869" cy="-234" rx="54.4739" ry="18"/>
<text text-anchor="middle" x="579.0869" y="-229.8" font-family="Times,serif" font-size="14.00" fill="#000000">engine/null</text>
</g>
<!-- defaults&#45;&gt;engine/null -->
<g id="edge4" class="edge">
<title>defaults&#45;&gt;engine/null</title>
<path fill="none" stroke="#000000" d="M753.8695,-369.7691C700.8749,-357.7251 608.8535,-335.4874 598.0869,-324 582.6992,-307.582 578.4946,-281.9713 577.8242,-262.2615"/>
<polygon fill="#000000" stroke="#000000" points="581.3228,-261.9947 577.7667,-252.0145 574.3229,-262.034 581.3228,-261.9947"/>
</g>
<!-- engine/templight -->
<g id="node9" class="node">
<title>engine/templight</title>
<ellipse fill="#ffffff" stroke="#000000" cx="683.0869" cy="-306" rx="76.4632" ry="18"/>
<text text-anchor="middle" x="683.0869" y="-301.8" font-family="Times,serif" font-size="14.00" fill="#000000">engine/templight</text>
</g>
<!-- defaults&#45;&gt;engine/templight -->
<g id="edge5" class="edge">
<title>defaults&#45;&gt;engine/templight</title>
<path fill="none" stroke="#000000" d="M768.1829,-362.7307C753.3137,-352.8178 733.6728,-339.7239 717.0072,-328.6135"/>
<polygon fill="#000000" stroke="#000000" points="718.8665,-325.6466 708.6045,-323.0117 714.9835,-331.4709 718.8665,-325.6466"/>
</g>
<!-- engine/vc -->
<g id="node10" class="node">
<title>engine/vc</title>
<ellipse fill="#ffffff" stroke="#000000" cx="1244.0869" cy="-234" rx="48.6559" ry="18"/>
<text text-anchor="middle" x="1244.0869" y="-229.8" font-family="Times,serif" font-size="14.00" fill="#000000">engine/vc</text>
</g>
<!-- defaults&#45;&gt;engine/vc -->
<g id="edge6" class="edge">
<title>defaults&#45;&gt;engine/vc</title>
<path fill="none" stroke="#000000" d="M825.8674,-367.9256C837.3163,-364.9476 850.1669,-361.9628 862.0869,-360 912.6732,-351.6705 1287.2784,-361.6392 1322.0869,-324 1332.9503,-312.2532 1329.5127,-302.1725 1322.0869,-288 1314.111,-272.7773 1299.6786,-260.9928 1285.3781,-252.3727"/>
<polygon fill="#000000" stroke="#000000" points="1286.9824,-249.2596 1276.5499,-247.412 1283.5532,-255.3621 1286.9824,-249.2596"/>
</g>
<!-- engine/wave -->
<g id="node11" class="node">
<title>engine/wave</title>
<ellipse fill="#ffffff" stroke="#000000" cx="837.0869" cy="-306" rx="59.6723" ry="18"/>
<text text-anchor="middle" x="837.0869" y="-301.8" font-family="Times,serif" font-size="14.00" fill="#000000">engine/wave</text>
</g>
<!-- defaults&#45;&gt;engine/wave -->
<g id="edge7" class="edge">
<title>defaults&#45;&gt;engine/wave</title>
<path fill="none" stroke="#000000" d="M802.2223,-360.5708C807.6224,-352.1184 814.2242,-341.7851 820.2247,-332.3931"/>
<polygon fill="#000000" stroke="#000000" points="823.3001,-334.0802 825.7346,-323.7689 817.4012,-330.3115 823.3001,-334.0802"/>
</g>
<!-- pragma -->
<g id="node17" class="node">
<title>pragma</title>
<ellipse fill="#ffffff" stroke="#000000" cx="511.0869" cy="-306" rx="39.9876" ry="18"/>
<text text-anchor="middle" x="511.0869" y="-301.8" font-family="Times,serif" font-size="14.00" fill="#000000">pragma</text>
</g>
<!-- defaults&#45;&gt;pragma -->
<g id="edge8" class="edge">
<title>defaults&#45;&gt;pragma</title>
<path fill="none" stroke="#000000" d="M753.6362,-370.1012C708.595,-360.3605 630.8362,-342.7746 565.0869,-324 561.0247,-322.84 556.8133,-321.5655 552.6159,-320.2471"/>
<polygon fill="#000000" stroke="#000000" points="553.5155,-316.8598 542.924,-317.1242 551.3686,-323.5225 553.5155,-316.8598"/>
</g>
<!-- engine/clang -->
<g id="node5" class="node">
<title>engine/clang</title>
<ellipse fill="#ffffff" stroke="#000000" cx="910.0869" cy="-234" rx="60.2537" ry="18"/>
<text text-anchor="middle" x="910.0869" y="-229.8" font-family="Times,serif" font-size="14.00" fill="#000000">engine/clang</text>
</g>
<!-- engine/clang&#45;&gt;core -->
<g id="edge9" class="edge">
<title>engine/clang&#45;&gt;core</title>
<path fill="none" stroke="#000000" d="M859.1419,-224.1397C783.0223,-209.4068 641.4283,-182.0016 574.6881,-169.0841"/>
<polygon fill="#000000" stroke="#000000" points="575.1238,-165.6035 564.6409,-167.1395 573.7936,-172.476 575.1238,-165.6035"/>
</g>
<!-- process -->
<g id="node18" class="node">
<title>process</title>
<ellipse fill="#ffffff" stroke="#000000" cx="1402.0869" cy="-162" rx="39.9857" ry="18"/>
<text text-anchor="middle" x="1402.0869" y="-157.8" font-family="Times,serif" font-size="14.00" fill="#000000">process</text>
</g>
<!-- engine/clang&#45;&gt;process -->
<g id="edge10" class="edge">
<title>engine/clang&#45;&gt;process</title>
<path fill="none" stroke="#000000" d="M964.6194,-226.0196C1061.3437,-211.8649 1261.4188,-182.5856 1353.6217,-169.0925"/>
<polygon fill="#000000" stroke="#000000" points="1354.4016,-172.5157 1363.7893,-167.6045 1353.3879,-165.5895 1354.4016,-172.5157"/>
</g>
<!-- engine/constant -->
<g id="node6" class="node">
<title>engine/constant</title>
<ellipse fill="#ffffff" stroke="#000000" cx="174.0869" cy="-306" rx="71.7892" ry="18"/>
<text text-anchor="middle" x="174.0869" y="-301.8" font-family="Times,serif" font-size="14.00" fill="#000000">engine/constant</text>
</g>
<!-- engine/constant&#45;&gt;core -->
<g id="edge11" class="edge">
<title>engine/constant&#45;&gt;core</title>
<path fill="none" stroke="#000000" d="M212.6967,-290.7258C284.5461,-262.3019 437.5906,-201.7568 505.0174,-175.0824"/>
<polygon fill="#000000" stroke="#000000" points="506.3133,-178.3338 514.3246,-171.4005 503.7382,-171.8246 506.3133,-178.3338"/>
</g>
<!-- engine/gcc&#45;&gt;engine/clang -->
<g id="edge12" class="edge">
<title>engine/gcc&#45;&gt;engine/clang</title>
<path fill="none" stroke="#000000" d="M1084.1856,-293.1278C1049.5282,-281.3574 998.028,-263.8668 960.0254,-250.9602"/>
<polygon fill="#000000" stroke="#000000" points="960.7769,-247.5192 950.1825,-247.6174 958.5258,-254.1473 960.7769,-247.5192"/>
</g>
<!-- engine/null&#45;&gt;core -->
<g id="edge13" class="edge">
<title>engine/null&#45;&gt;core</title>
<path fill="none" stroke="#000000" d="M568.9521,-216.2022C564.1146,-207.7071 558.232,-197.3767 552.9052,-188.0223"/>
<polygon fill="#000000" stroke="#000000" points="555.8128,-186.0551 547.8229,-179.0972 549.7298,-189.519 555.8128,-186.0551"/>
</g>
<!-- engine/templight&#45;&gt;engine/clang -->
<g id="edge14" class="edge">
<title>engine/templight&#45;&gt;engine/clang</title>
<path fill="none" stroke="#000000" d="M728.7507,-291.5163C766.4664,-279.5536 819.9673,-262.5842 859.0812,-250.178"/>
<polygon fill="#000000" stroke="#000000" points="860.2232,-253.4877 868.6971,-247.1281 858.1068,-246.8153 860.2232,-253.4877"/>
</g>
<!-- engine/vc&#45;&gt;core -->
<g id="edge15" class="edge">
<title>engine/vc&#45;&gt;core</title>
<path fill="none" stroke="#000000" d="M1197.2176,-229.2201C1065.6795,-215.8055 694.919,-177.9942 575.5894,-165.8246"/>
<polygon fill="#000000" stroke="#000000" points="575.789,-162.3269 565.4855,-164.7942 575.0788,-169.2908 575.789,-162.3269"/>
</g>
<!-- engine/vc&#45;&gt;process -->
<g id="edge16" class="edge">
<title>engine/vc&#45;&gt;process</title>
<path fill="none" stroke="#000000" d="M1274.926,-219.9468C1300.6331,-208.2321 1337.3425,-191.5038 1364.7165,-179.0296"/>
<polygon fill="#000000" stroke="#000000" points="1366.3279,-182.1416 1373.9763,-174.8099 1363.4252,-175.7718 1366.3279,-182.1416"/>
</g>
<!-- engine/wave&#45;&gt;engine/clang -->
<g id="edge17" class="edge">
<title>engine/wave&#45;&gt;engine/clang</title>
<path fill="none" stroke="#000000" d="M854.7582,-288.5708C863.9043,-279.55 875.2224,-268.387 885.2344,-258.5121"/>
<polygon fill="#000000" stroke="#000000" points="887.9165,-260.7827 892.5784,-251.2687 883.001,-255.799 887.9165,-260.7827"/>
</g>
<!-- iface&#45;&gt;data -->
<g id="edge18" class="edge">
<title>iface&#45;&gt;data</title>
<path fill="none" stroke="#000000" d="M492.7991,-87.8059C634.7483,-77.3235 1243.4423,-32.3738 1400.8246,-20.7517"/>
<polygon fill="#000000" stroke="#000000" points="1401.2321,-24.2312 1410.9472,-20.0042 1400.7166,-17.2502 1401.2321,-24.2312"/>
</g>
<!-- main_shell -->
<g id="node13" class="node">
<title>main_shell</title>
<ellipse fill="#ffffff" stroke="#000000" cx="400.0869" cy="-306" rx="53.3283" ry="18"/>
<text text-anchor="middle" x="400.0869" y="-301.8" font-family="Times,serif" font-size="14.00" fill="#000000">main_shell</text>
</g>
<!-- main_shell&#45;&gt;core -->
<g id="edge19" class="edge">
<title>main_shell&#45;&gt;core</title>
<path fill="none" stroke="#000000" d="M427.6353,-290.5056C443.5062,-280.7481 463.1957,-267.1548 478.0869,-252 496.863,-232.8917 513.3448,-207.1321 524.2588,-188.0677"/>
<polygon fill="#000000" stroke="#000000" points="527.3325,-189.742 529.155,-179.3051 521.2218,-186.3275 527.3325,-189.742"/>
</g>
<!-- mdb -->
<g id="node14" class="node">
<title>mdb</title>
<ellipse fill="#ffffff" stroke="#000000" cx="441.0869" cy="-234" rx="28.4127" ry="18"/>
<text text-anchor="middle" x="441.0869" y="-229.8" font-family="Times,serif" font-size="14.00" fill="#000000">mdb</text>
</g>
<!-- mdb&#45;&gt;core -->
<g id="edge20" class="edge">
<title>mdb&#45;&gt;core</title>
<path fill="none" stroke="#000000" d="M459.7895,-220.1177C474.5101,-209.191 495.2102,-193.8261 511.6292,-181.6387"/>
<polygon fill="#000000" stroke="#000000" points="513.8271,-184.3662 519.7707,-175.5955 509.6549,-178.7454 513.8271,-184.3662"/>
</g>
<!-- mock -->
<g id="node15" class="node">
<title>mock</title>
<ellipse fill="#ffffff" stroke="#000000" cx="296.0869" cy="-306" rx="32.4846" ry="18"/>
<text text-anchor="middle" x="296.0869" y="-301.8" font-family="Times,serif" font-size="14.00" fill="#000000">mock</text>
</g>
<!-- mock&#45;&gt;iface -->
<g id="edge21" class="edge">
<title>mock&#45;&gt;iface</title>
<path fill="none" stroke="#000000" d="M308.9139,-289.4095C338.189,-251.5446 410.0369,-158.6156 444.3083,-114.2885"/>
<polygon fill="#000000" stroke="#000000" points="447.0973,-116.4034 450.4449,-106.3514 441.5594,-112.1218 447.0973,-116.4034"/>
</g>
<!-- pattern -->
<g id="node16" class="node">
<title>pattern</title>
<ellipse fill="#ffffff" stroke="#000000" cx="1598.0869" cy="-162" rx="37.6986" ry="18"/>
<text text-anchor="middle" x="1598.0869" y="-157.8" font-family="Times,serif" font-size="14.00" fill="#000000">pattern</text>
</g>
<!-- pragma&#45;&gt;mdb -->
<g id="edge22" class="edge">
<title>pragma&#45;&gt;mdb</title>
<path fill="none" stroke="#000000" d="M494.8516,-289.3008C485.4916,-279.6734 473.5897,-267.4314 463.3646,-256.9142"/>
<polygon fill="#000000" stroke="#000000" points="465.7562,-254.3531 456.2759,-249.6229 460.7372,-259.2327 465.7562,-254.3531"/>
</g>
<!-- process&#45;&gt;data -->
<g id="edge23" class="edge">
<title>process&#45;&gt;data</title>
<path fill="none" stroke="#000000" d="M1405.3637,-143.9501C1408.803,-125.6925 1414.6041,-96.7149 1421.0869,-72 1423.3562,-63.3486 1426.1603,-54.0245 1428.8322,-45.5991"/>
<polygon fill="#000000" stroke="#000000" points="1432.2306,-46.4652 1431.9809,-35.8733 1425.5709,-44.3091 1432.2306,-46.4652"/>
</g>
<!-- readline -->
<g id="node19" class="node">
<title>readline</title>
<ellipse fill="#ffffff" stroke="#000000" cx="98.0869" cy="-234" rx="42.2719" ry="18"/>
<text text-anchor="middle" x="98.0869" y="-229.8" font-family="Times,serif" font-size="14.00" fill="#000000">readline</text>
</g>
<!-- readline&#45;&gt;iface -->
<g id="edge24" class="edge">
<title>readline&#45;&gt;iface</title>
<path fill="none" stroke="#000000" d="M125.7,-220.1329C163.4076,-201.4871 233.3812,-167.9169 295.0869,-144 339.5456,-126.768 392.041,-110.5296 426.3688,-100.4458"/>
<polygon fill="#000000" stroke="#000000" points="427.3574,-103.8034 435.9782,-97.6445 425.3983,-97.0831 427.3574,-103.8034"/>
</g>
<!-- replace_part -->
<g id="node20" class="node">
<title>replace_part</title>
<ellipse fill="#ffffff" stroke="#000000" cx="930.0869" cy="-378" rx="58.5059" ry="18"/>
<text text-anchor="middle" x="930.0869" y="-373.8" font-family="Times,serif" font-size="14.00" fill="#000000">replace_part</text>
</g>
<!-- system_test -->
<g id="node21" class="node">
<title>system_test</title>
<ellipse fill="#ffffff" stroke="#000000" cx="1698.0869" cy="-234" rx="56.1937" ry="18"/>
<text text-anchor="middle" x="1698.0869" y="-229.8" font-family="Times,serif" font-size="14.00" fill="#000000">system_test</text>
</g>
<!-- system_test&#45;&gt;pattern -->
<g id="edge25" class="edge">
<title>system_test&#45;&gt;pattern</title>
<path fill="none" stroke="#000000" d="M1674.8936,-217.3008C1660.81,-207.1606 1642.6979,-194.1199 1627.5994,-183.249"/>
<polygon fill="#000000" stroke="#000000" points="1629.2716,-180.1402 1619.1112,-177.1374 1625.1815,-185.8209 1629.2716,-180.1402"/>
</g>
<!-- system_test&#45;&gt;process -->
<g id="edge26" class="edge">
<title>system_test&#45;&gt;process</title>
<path fill="none" stroke="#000000" d="M1655.8458,-222.0353C1648.2818,-219.9691 1640.4617,-217.8823 1633.0869,-216 1569.1406,-199.6788 1494.7404,-182.6323 1448.0282,-172.1633"/>
<polygon fill="#000000" stroke="#000000" points="1448.7307,-168.734 1438.2079,-169.9679 1447.2034,-175.5654 1448.7307,-168.734"/>
</g>
<!-- app/config_tester -->
<g id="node22" class="node">
<title>app/config_tester</title>
<polygon fill="none" stroke="#000000" points="1754.7737,-324 1641.4002,-324 1641.4002,-288 1754.7737,-288 1754.7737,-324"/>
<text text-anchor="middle" x="1698.0869" y="-301.8" font-family="Times,serif" font-size="14.00" fill="#000000">app/config_tester</text>
</g>
<!-- app/config_tester&#45;&gt;system_test -->
<g id="edge27" class="edge">
<title>app/config_tester&#45;&gt;system_test</title>
<path fill="none" stroke="#000000" d="M1698.0869,-287.8314C1698.0869,-280.131 1698.0869,-270.9743 1698.0869,-262.4166"/>
<polygon fill="#000000" stroke="#000000" points="1701.587,-262.4132 1698.0869,-252.4133 1694.587,-262.4133 1701.587,-262.4132"/>
</g>
<!-- app/metashell -->
<g id="node23" class="node">
<title>app/metashell</title>
<polygon fill="none" stroke="#000000" points="726.8433,-468 633.3306,-468 633.3306,-432 726.8433,-432 726.8433,-468"/>
<text text-anchor="middle" x="680.0869" y="-445.8" font-family="Times,serif" font-size="14.00" fill="#000000">app/metashell</text>
</g>
<!-- app/metashell&#45;&gt;defaults -->
<g id="edge28" class="edge">
<title>app/metashell&#45;&gt;defaults</title>
<path fill="none" stroke="#000000" d="M708.0969,-431.8314C723.7034,-421.7082 743.1898,-409.0684 759.3577,-398.5811"/>
<polygon fill="#000000" stroke="#000000" points="761.4679,-401.3842 767.9528,-393.0059 757.6585,-395.5115 761.4679,-401.3842"/>
</g>
<!-- app/metashell&#45;&gt;main_shell -->
<g id="edge29" class="edge">
<title>app/metashell&#45;&gt;main_shell</title>
<path fill="none" stroke="#000000" d="M685.0094,-431.9949C689.3249,-411.8474 692.5038,-379.4843 675.0869,-360 643.0945,-324.21 508.8816,-334.7098 462.0869,-324 457.9693,-323.0576 453.7203,-322.0026 449.4678,-320.8885"/>
<polygon fill="#000000" stroke="#000000" points="450.1674,-317.4517 439.5995,-318.207 448.3318,-324.2068 450.1674,-317.4517"/>
</g>
<!-- app/metashell&#45;&gt;readline -->
<g id="edge30" class="edge">
<title>app/metashell&#45;&gt;readline</title>
<path fill="none" stroke="#000000" d="M633.3004,-447.9375C485.0391,-441.1783 34.1321,-418.8179 13.0869,-396 -25.9138,-353.7141 32.8166,-290.1742 70.5122,-256.6201"/>
<polygon fill="#000000" stroke="#000000" points="72.9491,-259.1391 78.194,-249.9336 68.3532,-253.8592 72.9491,-259.1391"/>
</g>
<!-- app/reference_gen -->
<g id="node24" class="node">
<title>app/reference_gen</title>
<polygon fill="none" stroke="#000000" points="864.9621,-468 745.2118,-468 745.2118,-432 864.9621,-432 864.9621,-468"/>
<text text-anchor="middle" x="805.0869" y="-445.8" font-family="Times,serif" font-size="14.00" fill="#000000">app/reference_gen</text>
</g>
<!-- app/reference_gen&#45;&gt;defaults -->
<g id="edge31" class="edge">
<title>app/reference_gen&#45;&gt;defaults</title>
<path fill="none" stroke="#000000" d="M801.5542,-431.8314C800.0569,-424.131 798.2764,-414.9743 796.6124,-406.4166"/>
<polygon fill="#000000" stroke="#000000" points="800.0117,-405.5614 794.6673,-396.4133 793.1404,-406.8975 800.0117,-405.5614"/>
</g>
<!-- app/reference_gen&#45;&gt;replace_part -->
<g id="edge32" class="edge">
<title>app/reference_gen&#45;&gt;replace_part</title>
<path fill="none" stroke="#000000" d="M836.6297,-431.8314C853.8746,-421.8983 875.3262,-409.5422 893.3264,-399.1741"/>
<polygon fill="#000000" stroke="#000000" points="895.4658,-401.9809 902.3842,-393.9568 891.9719,-395.9152 895.4658,-401.9809"/>
</g>
<!-- app/stub/apple_clang -->
<g id="node25" class="node">
<title>app/stub/apple_clang</title>
<polygon fill="none" stroke="#000000" points="1788.5575,-180 1653.6163,-180 1653.6163,-144 1788.5575,-144 1788.5575,-180"/>
<text text-anchor="middle" x="1721.0869" y="-157.8" font-family="Times,serif" font-size="14.00" fill="#000000">app/stub/apple_clang</text>
</g>
<!-- app/stub/apple_clang&#45;&gt;compiler_stub -->
<g id="edge33" class="edge">
<title>app/stub/apple_clang&#45;&gt;compiler_stub</title>
<path fill="none" stroke="#000000" d="M1769.5367,-143.8314C1798.5808,-132.9398 1835.3935,-119.135 1864.4678,-108.2322"/>
<polygon fill="#000000" stroke="#000000" points="1865.8743,-111.4428 1874.0087,-104.6543 1863.4164,-104.8885 1865.8743,-111.4428"/>
</g>
<!-- app/stub/cl_de -->
<g id="node26" class="node">
<title>app/stub/cl_de</title>
<polygon fill="none" stroke="#000000" points="1903.7384,-180 1806.4355,-180 1806.4355,-144 1903.7384,-144 1903.7384,-180"/>
<text text-anchor="middle" x="1855.0869" y="-157.8" font-family="Times,serif" font-size="14.00" fill="#000000">app/stub/cl_de</text>
</g>
<!-- app/stub/cl_de&#45;&gt;compiler_stub -->
<g id="edge34" class="edge">
<title>app/stub/cl_de&#45;&gt;compiler_stub</title>
<path fill="none" stroke="#000000" d="M1869.7228,-143.8314C1876.575,-135.3251 1884.8587,-125.0419 1892.3423,-115.752"/>
<polygon fill="#000000" stroke="#000000" points="1895.109,-117.8966 1898.6567,-107.9134 1889.6577,-113.5053 1895.109,-117.8966"/>
</g>
<!-- app/stub/cl_en -->
<g id="node27" class="node">
<title>app/stub/cl_en</title>
<polygon fill="none" stroke="#000000" points="2019.7384,-180 1922.4355,-180 1922.4355,-144 2019.7384,-144 2019.7384,-180"/>
<text text-anchor="middle" x="1971.0869" y="-157.8" font-family="Times,serif" font-size="14.00" fill="#000000">app/stub/cl_en</text>
</g>
<!-- app/stub/cl_en&#45;&gt;compiler_stub -->
<g id="edge35" class="edge">
<title>app/stub/cl_en&#45;&gt;compiler_stub</title>
<path fill="none" stroke="#000000" d="M1956.4511,-143.8314C1949.5988,-135.3251 1941.3152,-125.0419 1933.8316,-115.752"/>
<polygon fill="#000000" stroke="#000000" points="1936.5162,-113.5053 1927.5172,-107.9134 1931.0649,-117.8966 1936.5162,-113.5053"/>
</g>
<!-- app/stub/clang -->
<g id="node28" class="node">
<title>app/stub/clang</title>
<polygon fill="none" stroke="#000000" points="2135.7384,-180 2038.4355,-180 2038.4355,-144 2135.7384,-144 2135.7384,-180"/>
<text text-anchor="middle" x="2087.0869" y="-157.8" font-family="Times,serif" font-size="14.00" fill="#000000">app/stub/clang</text>
</g>
<!-- app/stub/clang&#45;&gt;compiler_stub -->
<g id="edge36" class="edge">
<title>app/stub/clang&#45;&gt;compiler_stub</title>
<path fill="none" stroke="#000000" d="M2043.1794,-143.8314C2017.4457,-133.1829 1984.9825,-119.7499 1958.9228,-108.9666"/>
<polygon fill="#000000" stroke="#000000" points="1960.2144,-105.7132 1949.6359,-105.1237 1957.5379,-112.1814 1960.2144,-105.7132"/>
</g>
<!-- app/stub/gcc -->
<g id="node29" class="node">
<title>app/stub/gcc</title>
<polygon fill="none" stroke="#000000" points="2240.3475,-180 2153.8264,-180 2153.8264,-144 2240.3475,-144 2240.3475,-180"/>
<text text-anchor="middle" x="2197.0869" y="-157.8" font-family="Times,serif" font-size="14.00" fill="#000000">app/stub/gcc</text>
</g>
<!-- app/stub/gcc&#45;&gt;compiler_stub -->
<g id="edge37" class="edge">
<title>app/stub/gcc&#45;&gt;compiler_stub</title>
<path fill="none" stroke="#000000" d="M2153.7838,-146.631C2150.8512,-145.7074 2147.9324,-144.8212 2145.0869,-144 2088.6364,-127.7084 2023.3869,-112.8676 1976.4919,-102.8852"/>
<polygon fill="#000000" stroke="#000000" points="1976.984,-99.412 1966.4763,-100.7676 1975.536,-106.2606 1976.984,-99.412"/>
</g>
<!-- test/system/auto_engine -->
<g id="node30" class="node">
<title>test/system/auto_engine</title>
<polygon fill="none" stroke="#000000" points="1624.1193,-252 1474.0546,-252 1474.0546,-216 1624.1193,-216 1624.1193,-252"/>
<text text-anchor="middle" x="1549.0869" y="-229.8" font-family="Times,serif" font-size="14.00" fill="#000000">test/system/auto_engine</text>
</g>
<!-- test/system/auto_engine&#45;&gt;process -->
<g id="edge38" class="edge">
<title>test/system/auto_engine&#45;&gt;process</title>
<path fill="none" stroke="#000000" d="M1511.9926,-215.8314C1489.5172,-204.823 1460.9656,-190.8385 1438.5967,-179.8823"/>
<polygon fill="#000000" stroke="#000000" points="1439.9444,-176.6452 1429.4242,-175.3897 1436.8653,-182.9316 1439.9444,-176.6452"/>
</g>
<!-- test/system/core -->
<g id="node31" class="node">
<title>test/system/core</title>
<polygon fill="none" stroke="#000000" points="1475.2835,-324 1368.8904,-324 1368.8904,-288 1475.2835,-288 1475.2835,-324"/>
<text text-anchor="middle" x="1422.0869" y="-301.8" font-family="Times,serif" font-size="14.00" fill="#000000">test/system/core</text>
</g>
<!-- test/system/core&#45;&gt;core -->
<g id="edge39" class="edge">
<title>test/system/core&#45;&gt;core</title>
<path fill="none" stroke="#000000" d="M1391.9891,-287.9662C1376.0875,-278.0005 1356.516,-265.0258 1340.0869,-252 1321.857,-237.5464 1323.3816,-225.3687 1302.0869,-216 1235.2958,-186.6148 721.338,-167.9204 576.1644,-163.1877"/>
<polygon fill="#000000" stroke="#000000" points="576.0789,-159.6832 565.9712,-162.8587 575.853,-166.6796 576.0789,-159.6832"/>
</g>
<!-- test/system/core&#45;&gt;system_test -->
<g id="edge40" class="edge">
<title>test/system/core&#45;&gt;system_test</title>
<path fill="none" stroke="#000000" d="M1475.4782,-290.3322C1478.3868,-289.5309 1481.2706,-288.7486 1484.0869,-288 1549.9282,-270.4981 1567.1385,-269.0933 1633.0869,-252 1637.3464,-250.896 1641.7559,-249.7282 1646.1797,-248.5393"/>
<polygon fill="#000000" stroke="#000000" points="1647.1,-251.9162 1655.8341,-245.919 1645.2664,-245.1606 1647.1,-251.9162"/>
</g>
<!-- test/system/mdb -->
<g id="node32" class="node">
<title>test/system/mdb</title>
<polygon fill="none" stroke="#000000" points="1879.5841,-324 1772.5897,-324 1772.5897,-288 1879.5841,-288 1879.5841,-324"/>
<text text-anchor="middle" x="1826.0869" y="-301.8" font-family="Times,serif" font-size="14.00" fill="#000000">test/system/mdb</text>
</g>
<!-- test/system/mdb&#45;&gt;system_test -->
<g id="edge41" class="edge">
<title>test/system/mdb&#45;&gt;system_test</title>
<path fill="none" stroke="#000000" d="M1793.7871,-287.8314C1775.8391,-277.7356 1753.441,-265.1367 1734.8267,-254.6661"/>
<polygon fill="#000000" stroke="#000000" points="1736.4605,-251.5694 1726.0288,-249.7173 1733.0286,-257.6705 1736.4605,-251.5694"/>
</g>
<!-- test/system/pdb -->
<g id="node33" class="node">
<title>test/system/pdb</title>
<polygon fill="none" stroke="#000000" points="2000.6936,-324 1897.4803,-324 1897.4803,-288 2000.6936,-288 2000.6936,-324"/>
<text text-anchor="middle" x="1949.0869" y="-301.8" font-family="Times,serif" font-size="14.00" fill="#000000">test/system/pdb</text>
</g>
<!-- test/system/pdb&#45;&gt;system_test -->
<g id="edge42" class="edge">
<title>test/system/pdb&#45;&gt;system_test</title>
<path fill="none" stroke="#000000" d="M1897.5129,-290.7419C1894.3243,-289.8108 1891.1626,-288.8908 1888.0869,-288 1841.5225,-274.5131 1788.4463,-259.4547 1750.2495,-248.6731"/>
<polygon fill="#000000" stroke="#000000" points="1750.956,-245.2359 1740.3813,-245.8894 1749.0554,-251.9729 1750.956,-245.2359"/>
</g>
<!-- test/system/pp -->
<g id="node34" class="node">
<title>test/system/pp</title>
<polygon fill="none" stroke="#000000" points="2115.1936,-324 2018.9803,-324 2018.9803,-288 2115.1936,-288 2115.1936,-324"/>
<text text-anchor="middle" x="2067.0869" y="-301.8" font-family="Times,serif" font-size="14.00" fill="#000000">test/system/pp</text>
</g>
<!-- test/system/pp&#45;&gt;system_test -->
<g id="edge43" class="edge">
<title>test/system/pp&#45;&gt;system_test</title>
<path fill="none" stroke="#000000" d="M2019.0132,-290.3186C2016.0043,-289.4925 2013.0111,-288.7114 2010.0869,-288 1924.4507,-267.1678 1823.7068,-251.2492 1760.3658,-242.2604"/>
<polygon fill="#000000" stroke="#000000" points="1760.5338,-238.7497 1750.144,-240.824 1759.5596,-245.6816 1760.5338,-238.7497"/>
</g>
<!-- test/unit/core -->
<g id="node35" class="node">
<title>test/unit/core</title>
<polygon fill="none" stroke="#000000" points="218.6796,-396 129.4943,-396 129.4943,-360 218.6796,-360 218.6796,-396"/>
<text text-anchor="middle" x="174.0869" y="-373.8" font-family="Times,serif" font-size="14.00" fill="#000000">test/unit/core</text>
</g>
<!-- test/unit/core&#45;&gt;engine/constant -->
<g id="edge44" class="edge">
<title>test/unit/core&#45;&gt;engine/constant</title>
<path fill="none" stroke="#000000" d="M174.0869,-359.8314C174.0869,-352.131 174.0869,-342.9743 174.0869,-334.4166"/>
<polygon fill="#000000" stroke="#000000" points="177.587,-334.4132 174.0869,-324.4133 170.587,-334.4133 177.587,-334.4132"/>
</g>
<!-- test/unit/core&#45;&gt;mock -->
<g id="edge45" class="edge">
<title>test/unit/core&#45;&gt;mock</title>
<path fill="none" stroke="#000000" d="M204.8727,-359.8314C223.314,-348.9479 246.6843,-335.1557 265.1521,-324.2566"/>
<polygon fill="#000000" stroke="#000000" points="266.948,-327.2608 273.7812,-319.164 263.3902,-321.2324 266.948,-327.2608"/>
</g>
<!-- test/unit/data -->
<g id="node36" class="node">
<title>test/unit/data</title>
<polygon fill="none" stroke="#000000" points="1518.4101,-108 1429.7638,-108 1429.7638,-72 1518.4101,-72 1518.4101,-108"/>
<text text-anchor="middle" x="1474.0869" y="-85.8" font-family="Times,serif" font-size="14.00" fill="#000000">test/unit/data</text>
</g>
<!-- test/unit/data&#45;&gt;data -->
<g id="edge46" class="edge">
<title>test/unit/data&#45;&gt;data</title>
<path fill="none" stroke="#000000" d="M1465.0026,-71.8314C1460.8595,-63.5451 1455.8733,-53.5727 1451.3243,-44.4748"/>
<polygon fill="#000000" stroke="#000000" points="1454.3985,-42.7967 1446.7958,-35.4177 1448.1375,-45.9273 1454.3985,-42.7967"/>
</g>
<!-- test/unit/engine/clang -->
<g id="node37" class="node">
<title>test/unit/engine/clang</title>
<polygon fill="none" stroke="#000000" points="1051.1207,-324 915.0531,-324 915.0531,-288 1051.1207,-288 1051.1207,-324"/>
<text text-anchor="middle" x="983.0869" y="-301.8" font-family="Times,serif" font-size="14.00" fill="#000000">test/unit/engine/clang</text>
</g>
<!-- test/unit/engine/clang&#45;&gt;engine/clang -->
<g id="edge47" class="edge">
<title>test/unit/engine/clang&#45;&gt;engine/clang</title>
<path fill="none" stroke="#000000" d="M964.666,-287.8314C955.6456,-278.9346 944.6544,-268.0939 934.9059,-258.4789"/>
<polygon fill="#000000" stroke="#000000" points="937.324,-255.948 927.7466,-251.4177 932.4085,-260.9318 937.324,-255.948"/>
</g>
<!-- test/unit/engine/templight -->
<g id="node38" class="node">
<title>test/unit/engine/templight</title>
<polygon fill="none" stroke="#000000" points="665.9678,-396 506.2061,-396 506.2061,-360 665.9678,-360 665.9678,-396"/>
<text text-anchor="middle" x="586.0869" y="-373.8" font-family="Times,serif" font-size="14.00" fill="#000000">test/unit/engine/templight</text>
</g>
<!-- test/unit/engine/templight&#45;&gt;engine/templight -->
<g id="edge48" class="edge">
<title>test/unit/engine/templight&#45;&gt;engine/templight</title>
<path fill="none" stroke="#000000" d="M610.5641,-359.8314C623.1131,-350.5167 638.5326,-339.0712 651.9223,-329.1325"/>
<polygon fill="#000000" stroke="#000000" points="654.0095,-331.9421 659.9532,-323.1715 649.8374,-326.3213 654.0095,-331.9421"/>
</g>
<!-- test/unit/engine/templight&#45;&gt;mock -->
<g id="edge49" class="edge">
<title>test/unit/engine/templight&#45;&gt;mock</title>
<path fill="none" stroke="#000000" d="M506.0733,-361.3718C439.8679,-347.481 354.1662,-329.1443 338.0869,-324 335.6407,-323.2174 333.1415,-322.3448 330.6419,-321.4176"/>
<polygon fill="#000000" stroke="#000000" points="331.6958,-318.0706 321.1095,-317.645 329.1198,-324.5794 331.6958,-318.0706"/>
</g>
<!-- test/unit/engine/vc -->
<g id="node39" class="node">
<title>test/unit/engine/vc</title>
<polygon fill="none" stroke="#000000" points="1313.0155,-324 1193.1584,-324 1193.1584,-288 1313.0155,-288 1313.0155,-324"/>
<text text-anchor="middle" x="1253.0869" y="-301.8" font-family="Times,serif" font-size="14.00" fill="#000000">test/unit/engine/vc</text>
</g>
<!-- test/unit/engine/vc&#45;&gt;engine/vc -->
<g id="edge50" class="edge">
<title>test/unit/engine/vc&#45;&gt;engine/vc</title>
<path fill="none" stroke="#000000" d="M1250.8159,-287.8314C1249.8533,-280.131 1248.7087,-270.9743 1247.639,-262.4166"/>
<polygon fill="#000000" stroke="#000000" points="1251.102,-261.9019 1246.3886,-252.4133 1244.1561,-262.7702 1251.102,-261.9019"/>
</g>
<!-- test/unit/main_shell -->
<g id="node40" class="node">
<title>test/unit/main_shell</title>
<polygon fill="none" stroke="#000000" points="363.5267,-396 236.6472,-396 236.6472,-360 363.5267,-360 363.5267,-396"/>
<text text-anchor="middle" x="300.0869" y="-373.8" font-family="Times,serif" font-size="14.00" fill="#000000">test/unit/main_shell</text>
</g>
<!-- test/unit/main_shell&#45;&gt;engine/constant -->
<g id="edge51" class="edge">
<title>test/unit/main_shell&#45;&gt;engine/constant</title>
<path fill="none" stroke="#000000" d="M268.2918,-359.8314C251.2814,-350.1111 230.2105,-338.0706 212.3127,-327.8433"/>
<polygon fill="#000000" stroke="#000000" points="213.6998,-324.6048 203.2808,-322.6822 210.2268,-330.6825 213.6998,-324.6048"/>
</g>
<!-- test/unit/main_shell&#45;&gt;main_shell -->
<g id="edge52" class="edge">
<title>test/unit/main_shell&#45;&gt;main_shell</title>
<path fill="none" stroke="#000000" d="M325.3212,-359.8314C338.5457,-350.3097 354.8626,-338.5615 368.8756,-328.4722"/>
<polygon fill="#000000" stroke="#000000" points="371.1843,-331.1227 377.2546,-322.4393 367.0942,-325.442 371.1843,-331.1227"/>
</g>
<!-- test/unit/main_shell&#45;&gt;mock -->
<g id="edge53" class="edge">
<title>test/unit/main_shell&#45;&gt;mock</title>
<path fill="none" stroke="#000000" d="M299.0776,-359.8314C298.6498,-352.131 298.1411,-342.9743 297.6656,-334.4166"/>
<polygon fill="#000000" stroke="#000000" points="301.1593,-334.2037 297.1099,-324.4133 294.1701,-334.592 301.1593,-334.2037"/>
</g>
<!-- test/unit/mdb -->
<g id="node41" class="node">
<title>test/unit/mdb</title>
<polygon fill="none" stroke="#000000" points="111.9804,-396 22.1935,-396 22.1935,-360 111.9804,-360 111.9804,-396"/>
<text text-anchor="middle" x="67.0869" y="-373.8" font-family="Times,serif" font-size="14.00" fill="#000000">test/unit/mdb</text>
</g>
<!-- test/unit/mdb&#45;&gt;engine/constant -->
<g id="edge54" class="edge">
<title>test/unit/mdb&#45;&gt;engine/constant</title>
<path fill="none" stroke="#000000" d="M94.0876,-359.8314C108.1643,-350.3591 125.5156,-338.6835 140.4569,-328.6296"/>
<polygon fill="#000000" stroke="#000000" points="142.59,-331.4129 148.9326,-322.9263 138.682,-325.6053 142.59,-331.4129"/>
</g>
<!-- test/unit/mdb&#45;&gt;mdb -->
<g id="edge55" class="edge">
<title>test/unit/mdb&#45;&gt;mdb</title>
<path fill="none" stroke="#000000" d="M66.9208,-359.8066C67.7889,-339.171 72.5767,-306.0527 93.0869,-288 138.4917,-248.0358 321.6027,-237.59 402.4249,-234.9067"/>
<polygon fill="#000000" stroke="#000000" points="402.7837,-238.3974 412.6708,-234.5902 402.5675,-231.4007 402.7837,-238.3974"/>
</g>
<!-- test/unit/pragma -->
<g id="node42" class="node">
<title>test/unit/pragma</title>
<polygon fill="none" stroke="#000000" points="488.5701,-396 381.6037,-396 381.6037,-360 488.5701,-360 488.5701,-396"/>
<text text-anchor="middle" x="435.0869" y="-373.8" font-family="Times,serif" font-size="14.00" fill="#000000">test/unit/pragma</text>
</g>
<!-- test/unit/pragma&#45;&gt;engine/constant -->
<g id="edge56" class="edge">
<title>test/unit/pragma&#45;&gt;engine/constant</title>
<path fill="none" stroke="#000000" d="M381.4831,-362.6371C378.305,-361.741 375.1547,-360.8565 372.0869,-360 325.4226,-346.9709 272.469,-332.5478 233.0727,-321.8875"/>
<polygon fill="#000000" stroke="#000000" points="233.9278,-318.4931 223.3608,-319.2615 232.1006,-325.2505 233.9278,-318.4931"/>
</g>
<!-- test/unit/pragma&#45;&gt;main_shell -->
<g id="edge57" class="edge">
<title>test/unit/pragma&#45;&gt;main_shell</title>
<path fill="none" stroke="#000000" d="M426.255,-359.8314C422.3288,-351.7547 417.6239,-342.0761 413.293,-333.1668"/>
<polygon fill="#000000" stroke="#000000" points="416.3146,-331.3769 408.7949,-323.9134 410.019,-334.4373 416.3146,-331.3769"/>
</g>
<!-- test/unit/pragma&#45;&gt;mock -->
<g id="edge58" class="edge">
<title>test/unit/pragma&#45;&gt;mock</title>
<path fill="none" stroke="#000000" d="M400.0114,-359.8314C378.2935,-348.5818 350.5756,-334.2244 329.2281,-323.1667"/>
<polygon fill="#000000" stroke="#000000" points="330.6989,-319.9869 320.2096,-318.4952 327.4793,-326.2025 330.6989,-319.9869"/>
</g>
<!-- test/unit/pragma&#45;&gt;pragma -->
<g id="edge59" class="edge">
<title>test/unit/pragma&#45;&gt;pragma</title>
<path fill="none" stroke="#000000" d="M454.265,-359.8314C464.0312,-350.5792 476.0164,-339.2247 486.458,-329.3327"/>
<polygon fill="#000000" stroke="#000000" points="488.8819,-331.8576 493.7344,-322.4393 484.0677,-326.7759 488.8819,-331.8576"/>
</g>
<!-- test/unit/process -->
<g id="node43" class="node">
<title>test/unit/process</title>
<polygon fill="none" stroke="#000000" points="1455.5687,-252 1348.6051,-252 1348.6051,-216 1455.5687,-216 1455.5687,-252"/>
<text text-anchor="middle" x="1402.0869" y="-229.8" font-family="Times,serif" font-size="14.00" fill="#000000">test/unit/process</text>
</g>
<!-- test/unit/process&#45;&gt;process -->
<g id="edge60" class="edge">
<title>test/unit/process&#45;&gt;process</title>
<path fill="none" stroke="#000000" d="M1402.0869,-215.8314C1402.0869,-208.131 1402.0869,-198.9743 1402.0869,-190.4166"/>
<polygon fill="#000000" stroke="#000000" points="1405.587,-190.4132 1402.0869,-180.4133 1398.587,-190.4133 1405.587,-190.4132"/>
</g>
<!-- test/unit/replace_part -->
<g id="node44" class="node">
<title>test/unit/replace_part</title>
<polygon fill="none" stroke="#000000" points="1017.2653,-468 882.9086,-468 882.9086,-432 1017.2653,-432 1017.2653,-468"/>
<text text-anchor="middle" x="950.0869" y="-445.8" font-family="Times,serif" font-size="14.00" fill="#000000">test/unit/replace_part</text>
</g>
<!-- test/unit/replace_part&#45;&gt;replace_part -->
<g id="edge61" class="edge">
<title>test/unit/replace_part&#45;&gt;replace_part</title>
<path fill="none" stroke="#000000" d="M945.0401,-431.8314C942.8776,-424.0463 940.3016,-414.7729 937.9021,-406.1347"/>
<polygon fill="#000000" stroke="#000000" points="941.2506,-405.1117 935.2017,-396.4133 934.5059,-406.9852 941.2506,-405.1117"/>
</g>
<!-- test/unit/system_test -->
<g id="node45" class="node">
<title>test/unit/system_test</title>
<polygon fill="none" stroke="#000000" points="1623.4156,-324 1492.7583,-324 1492.7583,-288 1623.4156,-288 1623.4156,-324"/>
<text text-anchor="middle" x="1558.0869" y="-301.8" font-family="Times,serif" font-size="14.00" fill="#000000">test/unit/system_test</text>
</g>
<!-- test/unit/system_test&#45;&gt;system_test -->
<g id="edge62" class="edge">
<title>test/unit/system_test&#45;&gt;system_test</title>
<path fill="none" stroke="#000000" d="M1593.4149,-287.8314C1613.3645,-277.5715 1638.3408,-264.7266 1658.8919,-254.1575"/>
<polygon fill="#000000" stroke="#000000" points="1660.6968,-257.165 1667.989,-249.479 1657.4953,-250.94 1660.6968,-257.165"/>
</g>
</g>
</svg>
