<?xml version="1.0" encoding="UTF-8" standalone="no"?>
<!DOCTYPE svg PUBLIC "-//W3C//DTD SVG 1.1//EN"
 "http://www.w3.org/Graphics/SVG/1.1/DTD/svg11.dtd">
<!-- Generated by graphviz version 2.40.1
 -->
<!-- Title: %3 Pages: 1 -->
<svg width="798pt" height="332pt"
 viewBox="0.00 0.00 798.25 332.00" xmlns="http://www.w3.org/2000/svg" xmlns:xlink="http://www.w3.org/1999/xlink">
<g id="graph0" class="graph" transform="scale(1 1) rotate(0) translate(4 328)">
<title>%3</title>
<polygon fill="#ffffff" stroke="transparent" points="-4,4 -4,-328 794.2532,-328 794.2532,4 -4,4"/>
<!-- boost -->
<g id="node1" class="node">
<title>boost</title>
<ellipse fill="#ffffff" stroke="#000000" cx="183.1641" cy="-18" rx="31.9224" ry="18"/>
<text text-anchor="middle" x="183.1641" y="-13.8" font-family="Times,serif" font-size="14.00" fill="#000000">boost</text>
</g>
<!-- core -->
<g id="node2" class="node">
<title>core</title>
<ellipse fill="#ffffff" stroke="#000000" cx="373.1641" cy="-162" rx="27.8073" ry="18"/>
<text text-anchor="middle" x="373.1641" y="-157.8" font-family="Times,serif" font-size="14.00" fill="#000000">core</text>
</g>
<!-- data -->
<g id="node3" class="node">
<title>data</title>
<ellipse fill="#ffffff" stroke="#000000" cx="321.1641" cy="-18" rx="27.2447" ry="18"/>
<text text-anchor="middle" x="321.1641" y="-13.8" font-family="Times,serif" font-size="14.00" fill="#000000">data</text>
</g>
<!-- core&#45;&gt;data -->
<g id="edge1" class="edge">
<title>core&#45;&gt;data</title>
<path fill="none" stroke="#000000" d="M387.932,-146.5019C403.5586,-128.1328 424.1695,-96.8795 410.1641,-72 398.5071,-51.2923 375.3466,-37.611 355.5743,-29.2011"/>
<polygon fill="#000000" stroke="#000000" points="356.7914,-25.9187 346.2053,-25.4883 354.2125,-32.4263 356.7914,-25.9187"/>
</g>
<!-- iface -->
<g id="node4" class="node">
<title>iface</title>
<ellipse fill="#ffffff" stroke="#000000" cx="183.1641" cy="-90" rx="29.5916" ry="18"/>
<text text-anchor="middle" x="183.1641" y="-85.8" font-family="Times,serif" font-size="14.00" fill="#000000">iface</text>
</g>
<!-- core&#45;&gt;iface -->
<g id="edge2" class="edge">
<title>core&#45;&gt;iface</title>
<path fill="none" stroke="#000000" d="M349.1005,-152.8812C316.0095,-140.3414 256.2402,-117.692 218.1895,-103.2728"/>
<polygon fill="#000000" stroke="#000000" points="219.1349,-99.8882 208.5435,-99.6175 216.6544,-106.434 219.1349,-99.8882"/>
</g>
<!-- process -->
<g id="node7" class="node">
<title>process</title>
<ellipse fill="#ffffff" stroke="#000000" cx="497.1641" cy="-90" rx="39.9857" ry="18"/>
<text text-anchor="middle" x="497.1641" y="-85.8" font-family="Times,serif" font-size="14.00" fill="#000000">process</text>
</g>
<!-- core&#45;&gt;process -->
<g id="edge3" class="edge">
<title>core&#45;&gt;process</title>
<path fill="none" stroke="#000000" d="M393.9189,-149.9488C412.9461,-138.9008 441.4581,-122.3454 463.7018,-109.4297"/>
<polygon fill="#000000" stroke="#000000" points="465.6073,-112.3706 472.4977,-104.3224 462.0923,-106.3171 465.6073,-112.3706"/>
</g>
<!-- iface&#45;&gt;boost -->
<g id="edge4" class="edge">
<title>iface&#45;&gt;boost</title>
<path fill="none" stroke="#000000" d="M183.1641,-71.8314C183.1641,-64.131 183.1641,-54.9743 183.1641,-46.4166"/>
<polygon fill="#000000" stroke="#000000" points="186.6642,-46.4132 183.1641,-36.4133 179.6642,-46.4133 186.6642,-46.4132"/>
</g>
<!-- iface&#45;&gt;data -->
<g id="edge5" class="edge">
<title>iface&#45;&gt;data</title>
<path fill="none" stroke="#000000" d="M205.952,-78.1107C229.1336,-66.0159 265.1947,-47.2014 290.7919,-33.8464"/>
<polygon fill="#000000" stroke="#000000" points="292.4589,-36.9244 299.7057,-29.1957 289.2209,-30.7183 292.4589,-36.9244"/>
</g>
<!-- mock -->
<g id="node5" class="node">
<title>mock</title>
<ellipse fill="#ffffff" stroke="#000000" cx="117.1641" cy="-162" rx="32.4846" ry="18"/>
<text text-anchor="middle" x="117.1641" y="-157.8" font-family="Times,serif" font-size="14.00" fill="#000000">mock</text>
</g>
<!-- mock&#45;&gt;iface -->
<g id="edge6" class="edge">
<title>mock&#45;&gt;iface</title>
<path fill="none" stroke="#000000" d="M132.1405,-145.6621C140.869,-136.1401 152.0243,-123.9707 161.677,-113.4405"/>
<polygon fill="#000000" stroke="#000000" points="164.5233,-115.5151 168.7005,-105.7784 159.3632,-110.785 164.5233,-115.5151"/>
</g>
<!-- pattern -->
<g id="node6" class="node">
<title>pattern</title>
<ellipse fill="#ffffff" stroke="#000000" cx="495.1641" cy="-162" rx="37.6986" ry="18"/>
<text text-anchor="middle" x="495.1641" y="-157.8" font-family="Times,serif" font-size="14.00" fill="#000000">pattern</text>
</g>
<!-- process&#45;&gt;data -->
<g id="edge7" class="edge">
<title>process&#45;&gt;data</title>
<path fill="none" stroke="#000000" d="M467.3081,-77.7862C435.8449,-64.9149 386.4328,-44.7008 353.9177,-31.3992"/>
<polygon fill="#000000" stroke="#000000" points="354.9886,-28.0558 344.4078,-27.5088 352.3381,-34.5346 354.9886,-28.0558"/>
</g>
<!-- readline -->
<g id="node8" class="node">
<title>readline</title>
<ellipse fill="#ffffff" stroke="#000000" cx="247.1641" cy="-162" rx="42.2719" ry="18"/>
<text text-anchor="middle" x="247.1641" y="-157.8" font-family="Times,serif" font-size="14.00" fill="#000000">readline</text>
</g>
<!-- readline&#45;&gt;data -->
<g id="edge8" class="edge">
<title>readline&#45;&gt;data</title>
<path fill="none" stroke="#000000" d="M249.3801,-143.7878C252.2661,-124.889 258.5178,-94.9424 271.1641,-72 277.7174,-60.1113 287.4438,-48.7893 296.5805,-39.6114"/>
<polygon fill="#000000" stroke="#000000" points="299.254,-41.8962 304.0341,-32.441 294.401,-36.8516 299.254,-41.8962"/>
</g>
<!-- readline&#45;&gt;iface -->
<g id="edge9" class="edge">
<title>readline&#45;&gt;iface</title>
<path fill="none" stroke="#000000" d="M231.997,-144.937C223.6315,-135.5259 213.1205,-123.701 203.9951,-113.4349"/>
<polygon fill="#000000" stroke="#000000" points="206.605,-111.1028 197.3454,-105.954 201.3732,-115.7534 206.605,-111.1028"/>
</g>
<!-- replace_part -->
<g id="node9" class="node">
<title>replace_part</title>
<ellipse fill="#ffffff" stroke="#000000" cx="692.1641" cy="-162" rx="58.5059" ry="18"/>
<text text-anchor="middle" x="692.1641" y="-157.8" font-family="Times,serif" font-size="14.00" fill="#000000">replace_part</text>
</g>
<!-- system_test -->
<g id="node10" class="node">
<title>system_test</title>
<ellipse fill="#ffffff" stroke="#000000" cx="387.1641" cy="-234" rx="56.1937" ry="18"/>
<text text-anchor="middle" x="387.1641" y="-229.8" font-family="Times,serif" font-size="14.00" fill="#000000">system_test</text>
</g>
<!-- system_test&#45;&gt;core -->
<g id="edge10" class="edge">
<title>system_test&#45;&gt;core</title>
<path fill="none" stroke="#000000" d="M383.6313,-215.8314C382.0943,-207.9266 380.2588,-198.4872 378.5573,-189.7365"/>
<polygon fill="#000000" stroke="#000000" points="381.9917,-189.0615 376.6473,-179.9134 375.1204,-190.3976 381.9917,-189.0615"/>
</g>
<!-- system_test&#45;&gt;pattern -->
<g id="edge11" class="edge">
<title>system_test&#45;&gt;pattern</title>
<path fill="none" stroke="#000000" d="M411.671,-217.6621C427.3582,-207.2039 447.8356,-193.5523 464.5846,-182.3863"/>
<polygon fill="#000000" stroke="#000000" points="466.5792,-185.2631 472.9583,-176.8039 462.6963,-179.4388 466.5792,-185.2631"/>
</g>
<!-- system_test&#45;&gt;process -->
<g id="edge12" class="edge">
<title>system_test&#45;&gt;process</title>
<path fill="none" stroke="#000000" d="M398.1531,-216.2312C409.8572,-197.6942 429.2646,-168.0389 448.1641,-144 456.2329,-133.7371 465.7523,-122.9799 474.2443,-113.792"/>
<polygon fill="#000000" stroke="#000000" points="476.8024,-116.1808 481.0816,-106.4886 471.6922,-111.3968 476.8024,-116.1808"/>
</g>
<!-- app/metashell -->
<g id="node11" class="node">
<title>app/metashell</title>
<polygon fill="none" stroke="#000000" points="302.9204,-252 209.4078,-252 209.4078,-216 302.9204,-216 302.9204,-252"/>
<text text-anchor="middle" x="256.1641" y="-229.8" font-family="Times,serif" font-size="14.00" fill="#000000">app/metashell</text>
</g>
<!-- app/metashell&#45;&gt;core -->
<g id="edge13" class="edge">
<title>app/metashell&#45;&gt;core</title>
<path fill="none" stroke="#000000" d="M285.6881,-215.8314C303.5588,-204.834 326.2558,-190.8666 344.0516,-179.9154"/>
<polygon fill="#000000" stroke="#000000" points="346.1772,-182.717 352.8594,-174.4952 342.5085,-176.7554 346.1772,-182.717"/>
</g>
<!-- app/metashell&#45;&gt;data -->
<g id="edge14" class="edge">
<title>app/metashell&#45;&gt;data</title>
<path fill="none" stroke="#000000" d="M274.8989,-215.7729C283.6256,-206.0467 293.1665,-193.3472 298.1641,-180 315.0215,-134.9785 295.5458,-119.2952 304.1641,-72 305.7675,-63.2009 308.3791,-53.834 311.0795,-45.4149"/>
<polygon fill="#000000" stroke="#000000" points="314.4708,-46.3116 314.3556,-35.7174 307.839,-44.0711 314.4708,-46.3116"/>
</g>
<!-- app/metashell&#45;&gt;iface -->
<g id="edge15" class="edge">
<title>app/metashell&#45;&gt;iface</title>
<path fill="none" stroke="#000000" d="M228.5215,-215.8372C216.6383,-206.5552 203.759,-194.2145 196.1641,-180 186.0268,-161.0272 182.9979,-136.7544 182.3823,-118.1985"/>
<polygon fill="#000000" stroke="#000000" points="185.88,-117.9753 182.2632,-108.017 178.8805,-118.0573 185.88,-117.9753"/>
</g>
<!-- app/metashell&#45;&gt;readline -->
<g id="edge16" class="edge">
<title>app/metashell&#45;&gt;readline</title>
<path fill="none" stroke="#000000" d="M253.893,-215.8314C252.9305,-208.131 251.7859,-198.9743 250.7162,-190.4166"/>
<polygon fill="#000000" stroke="#000000" points="254.1792,-189.9019 249.4658,-180.4133 247.2332,-190.7702 254.1792,-189.9019"/>
</g>
<!-- app/reference_gen -->
<g id="node12" class="node">
<title>app/reference_gen</title>
<polygon fill="none" stroke="#000000" points="638.0393,-252 518.2889,-252 518.2889,-216 638.0393,-216 638.0393,-252"/>
<text text-anchor="middle" x="578.1641" y="-229.8" font-family="Times,serif" font-size="14.00" fill="#000000">app/reference_gen</text>
</g>
<!-- app/reference_gen&#45;&gt;core -->
<g id="edge17" class="edge">
<title>app/reference_gen&#45;&gt;core</title>
<path fill="none" stroke="#000000" d="M526.6986,-215.9243C489.294,-202.7871 439.7161,-185.3744 407.1534,-173.9377"/>
<polygon fill="#000000" stroke="#000000" points="408.2212,-170.6032 397.6264,-170.5916 405.9015,-177.2077 408.2212,-170.6032"/>
</g>
<!-- app/reference_gen&#45;&gt;data -->
<g id="edge18" class="edge">
<title>app/reference_gen&#45;&gt;data</title>
<path fill="none" stroke="#000000" d="M580.3353,-215.8719C583.2319,-182.6051 584.1898,-111.5988 546.1641,-72 520.494,-45.2679 414.9403,-29.0178 357.9932,-22.027"/>
<polygon fill="#000000" stroke="#000000" points="358.3001,-18.5389 347.9558,-20.829 357.4705,-25.4895 358.3001,-18.5389"/>
</g>
<!-- app/reference_gen&#45;&gt;replace_part -->
<g id="edge19" class="edge">
<title>app/reference_gen&#45;&gt;replace_part</title>
<path fill="none" stroke="#000000" d="M606.9311,-215.8314C622.4029,-206.0597 641.5874,-193.9432 657.8357,-183.6811"/>
<polygon fill="#000000" stroke="#000000" points="659.9322,-186.4967 666.5181,-178.1975 656.1942,-180.5782 659.9322,-186.4967"/>
</g>
<!-- test/system/core -->
<g id="node13" class="node">
<title>test/system/core</title>
<polygon fill="none" stroke="#000000" points="254.3607,-324 147.9675,-324 147.9675,-288 254.3607,-288 254.3607,-324"/>
<text text-anchor="middle" x="201.1641" y="-301.8" font-family="Times,serif" font-size="14.00" fill="#000000">test/system/core</text>
</g>
<!-- test/system/core&#45;&gt;system_test -->
<g id="edge20" class="edge">
<title>test/system/core&#45;&gt;system_test</title>
<path fill="none" stroke="#000000" d="M248.0998,-287.8314C276.6915,-276.7636 313.0547,-262.6875 341.4256,-251.7052"/>
<polygon fill="#000000" stroke="#000000" points="343.0394,-254.8337 351.1016,-247.9597 340.5124,-248.3057 343.0394,-254.8337"/>
</g>
<!-- test/system/mdb -->
<g id="node14" class="node">
<title>test/system/mdb</title>
<polygon fill="none" stroke="#000000" points="379.6613,-324 272.6669,-324 272.6669,-288 379.6613,-288 379.6613,-324"/>
<text text-anchor="middle" x="326.1641" y="-301.8" font-family="Times,serif" font-size="14.00" fill="#000000">test/system/mdb</text>
</g>
<!-- test/system/mdb&#45;&gt;system_test -->
<g id="edge21" class="edge">
<title>test/system/mdb&#45;&gt;system_test</title>
<path fill="none" stroke="#000000" d="M341.557,-287.8314C348.8728,-279.1962 357.7401,-268.7299 365.7036,-259.3304"/>
<polygon fill="#000000" stroke="#000000" points="368.6137,-261.31 372.4074,-251.4177 363.2728,-256.7851 368.6137,-261.31"/>
</g>
<!-- test/system/pdb -->
<g id="node15" class="node">
<title>test/system/pdb</title>
<polygon fill="none" stroke="#000000" points="500.7708,-324 397.5574,-324 397.5574,-288 500.7708,-288 500.7708,-324"/>
<text text-anchor="middle" x="449.1641" y="-301.8" font-family="Times,serif" font-size="14.00" fill="#000000">test/system/pdb</text>
</g>
<!-- test/system/pdb&#45;&gt;system_test -->
<g id="edge22" class="edge">
<title>test/system/pdb&#45;&gt;system_test</title>
<path fill="none" stroke="#000000" d="M433.5189,-287.8314C426.008,-279.109 416.8882,-268.5183 408.7314,-259.0459"/>
<polygon fill="#000000" stroke="#000000" points="411.3402,-256.7116 402.1627,-251.4177 406.0358,-261.2793 411.3402,-256.7116"/>
</g>
<!-- test/system/pp -->
<g id="node16" class="node">
<title>test/system/pp</title>
<polygon fill="none" stroke="#000000" points="615.2708,-324 519.0574,-324 519.0574,-288 615.2708,-288 615.2708,-324"/>
<text text-anchor="middle" x="567.1641" y="-301.8" font-family="Times,serif" font-size="14.00" fill="#000000">test/system/pp</text>
</g>
<!-- test/system/pp&#45;&gt;pattern -->
<g id="edge23" class="edge">
<title>test/system/pp&#45;&gt;pattern</title>
<path fill="none" stroke="#000000" d="M540.8078,-287.8638C529.2525,-278.5078 516.6427,-266.0986 509.1641,-252 499.1294,-233.0825 495.7936,-208.9945 494.8774,-190.5001"/>
<polygon fill="#000000" stroke="#000000" points="498.3713,-190.2338 494.5852,-180.3385 491.3742,-190.435 498.3713,-190.2338"/>
</g>
<!-- test/system/pp&#45;&gt;system_test -->
<g id="edge24" class="edge">
<title>test/system/pp&#45;&gt;system_test</title>
<path fill="none" stroke="#000000" d="M521.7425,-287.8314C494.1662,-276.8008 459.1198,-262.7823 431.7048,-251.8163"/>
<polygon fill="#000000" stroke="#000000" points="432.9354,-248.539 422.3508,-248.0747 430.3356,-255.0383 432.9354,-248.539"/>
</g>
<!-- test/unit/core -->
<g id="node17" class="node">
<title>test/unit/core</title>
<polygon fill="none" stroke="#000000" points="131.7567,-252 42.5715,-252 42.5715,-216 131.7567,-216 131.7567,-252"/>
<text text-anchor="middle" x="87.1641" y="-229.8" font-family="Times,serif" font-size="14.00" fill="#000000">test/unit/core</text>
</g>
<!-- test/unit/core&#45;&gt;core -->
<g id="edge25" class="edge">
<title>test/unit/core&#45;&gt;core</title>
<path fill="none" stroke="#000000" d="M131.8516,-222.75C188.5565,-208.4746 285.2359,-184.1358 337.349,-171.0164"/>
<polygon fill="#000000" stroke="#000000" points="338.3094,-174.3839 347.1523,-168.5484 336.6004,-167.5957 338.3094,-174.3839"/>
</g>
<!-- test/unit/core&#45;&gt;data -->
<g id="edge26" class="edge">
<title>test/unit/core&#45;&gt;data</title>
<path fill="none" stroke="#000000" d="M76.0017,-215.8037C66.101,-197.1793 54.7023,-167.6897 65.1641,-144 84.3554,-100.5433 102.8811,-95.5054 144.1641,-72 189.2066,-46.3541 247.7739,-31.586 284.9303,-24.1707"/>
<polygon fill="#000000" stroke="#000000" points="285.6538,-27.5958 294.8135,-22.2713 284.3326,-20.7216 285.6538,-27.5958"/>
</g>
<!-- test/unit/core&#45;&gt;iface -->
<g id="edge27" class="edge">
<title>test/unit/core&#45;&gt;iface</title>
<path fill="none" stroke="#000000" d="M78.5392,-215.6484C70.8524,-196.3633 62.7155,-165.8514 76.1641,-144 91.1178,-119.7032 120.7465,-105.9425 145.0413,-98.4014"/>
<polygon fill="#000000" stroke="#000000" points="146.0774,-101.7455 154.7271,-95.6274 144.15,-95.0161 146.0774,-101.7455"/>
</g>
<!-- test/unit/core&#45;&gt;mock -->
<g id="edge28" class="edge">
<title>test/unit/core&#45;&gt;mock</title>
<path fill="none" stroke="#000000" d="M94.7344,-215.8314C98.0996,-207.7547 102.1324,-198.0761 105.8446,-189.1668"/>
<polygon fill="#000000" stroke="#000000" points="109.0847,-190.4904 109.7002,-179.9134 102.6232,-187.798 109.0847,-190.4904"/>
</g>
<!-- test/unit/data -->
<g id="node18" class="node">
<title>test/unit/data</title>
<polygon fill="none" stroke="#000000" points="401.4873,-108 312.8409,-108 312.8409,-72 401.4873,-72 401.4873,-108"/>
<text text-anchor="middle" x="357.1641" y="-85.8" font-family="Times,serif" font-size="14.00" fill="#000000">test/unit/data</text>
</g>
<!-- test/unit/data&#45;&gt;data -->
<g id="edge29" class="edge">
<title>test/unit/data&#45;&gt;data</title>
<path fill="none" stroke="#000000" d="M348.0798,-71.8314C343.9367,-63.5451 338.9504,-53.5727 334.4015,-44.4748"/>
<polygon fill="#000000" stroke="#000000" points="337.4756,-42.7967 329.873,-35.4177 331.2146,-45.9273 337.4756,-42.7967"/>
</g>
<!-- test/unit/replace_part -->
<g id="node19" class="node">
<title>test/unit/replace_part</title>
<polygon fill="none" stroke="#000000" points="790.3424,-252 655.9858,-252 655.9858,-216 790.3424,-216 790.3424,-252"/>
<text text-anchor="middle" x="723.1641" y="-229.8" font-family="Times,serif" font-size="14.00" fill="#000000">test/unit/replace_part</text>
</g>
<!-- test/unit/replace_part&#45;&gt;replace_part -->
<g id="edge30" class="edge">
<title>test/unit/replace_part&#45;&gt;replace_part</title>
<path fill="none" stroke="#000000" d="M715.3415,-215.8314C711.864,-207.7547 707.6969,-198.0761 703.8609,-189.1668"/>
<polygon fill="#000000" stroke="#000000" points="707.0462,-187.7141 699.8768,-179.9134 700.6168,-190.4824 707.0462,-187.7141"/>
</g>
<!-- test/unit/system_test -->
<g id="node20" class="node">
<title>test/unit/system_test</title>
<polygon fill="none" stroke="#000000" points="130.4927,-324 -.1645,-324 -.1645,-288 130.4927,-288 130.4927,-324"/>
<text text-anchor="middle" x="65.1641" y="-301.8" font-family="Times,serif" font-size="14.00" fill="#000000">test/unit/system_test</text>
</g>
<!-- test/unit/system_test&#45;&gt;system_test -->
<g id="edge31" class="edge">
<title>test/unit/system_test&#45;&gt;system_test</title>
<path fill="none" stroke="#000000" d="M130.5062,-289.9805C133.4303,-289.3032 136.3266,-288.6401 139.1641,-288 215.7747,-270.7165 235.5271,-269.1661 312.1641,-252 318.7485,-250.5251 325.6467,-248.9335 332.4801,-247.3281"/>
<polygon fill="#000000" stroke="#000000" points="333.477,-250.6889 342.4012,-244.9784 331.8637,-243.8774 333.477,-250.6889"/>
</g>
</g>
</svg>
