<?xml version="1.0" encoding="UTF-8" standalone="no"?>
<!DOCTYPE svg PUBLIC "-//W3C//DTD SVG 1.1//EN"
 "http://www.w3.org/Graphics/SVG/1.1/DTD/svg11.dtd">
<!-- Generated by graphviz version 2.40.1
 -->
<!-- Title: %3 Pages: 1 -->
<svg width="1026pt" height="476pt"
 viewBox="0.00 0.00 1025.55 476.00" xmlns="http://www.w3.org/2000/svg" xmlns:xlink="http://www.w3.org/1999/xlink">
<g id="graph0" class="graph" transform="scale(1 1) rotate(0) translate(4 472)">
<title>%3</title>
<polygon fill="#ffffff" stroke="transparent" points="-4,4 -4,-472 1021.5533,-472 1021.5533,4 -4,4"/>
<!-- boost -->
<g id="node1" class="node">
<title>boost</title>
<ellipse fill="#ffffff" stroke="#000000" cx="538" cy="-18" rx="31.9224" ry="18"/>
<text text-anchor="middle" x="538" y="-13.8" font-family="Times,serif" font-size="14.00" fill="#000000">boost</text>
</g>
<!-- core -->
<g id="node2" class="node">
<title>core</title>
<ellipse fill="#ff0000" stroke="#000000" cx="382" cy="-306" rx="27.8073" ry="18"/>
<text text-anchor="middle" x="382" y="-301.8" font-family="Times,serif" font-size="14.00" fill="#000000">core</text>
</g>
<!-- core&#45;&gt;boost -->
<g id="edge1" class="edge">
<title>core&#45;&gt;boost</title>
<path fill="none" stroke="#000000" d="M371.8401,-289.0501C354.9967,-258.5807 325.3761,-193.1525 349,-144 378.4433,-82.7395 453.9096,-46.8545 500.0824,-29.9444"/>
<polygon fill="#000000" stroke="#000000" points="501.4837,-33.1613 509.7434,-26.526 499.1486,-26.5622 501.4837,-33.1613"/>
</g>
<!-- data -->
<g id="node3" class="node">
<title>data</title>
<ellipse fill="#ff0000" stroke="#000000" cx="385" cy="-162" rx="27.2447" ry="18"/>
<text text-anchor="middle" x="385" y="-157.8" font-family="Times,serif" font-size="14.00" fill="#000000">data</text>
</g>
<!-- core&#45;&gt;data -->
<g id="edge2" class="edge">
<title>core&#45;&gt;data</title>
<path fill="none" stroke="#ff0000" d="M377.7301,-288.0535C375.7457,-263.4514 376.3948,-219.0071 378.9423,-190.0057"/>
<polygon fill="#ff0000" stroke="#ff0000" points="382.4587,-190.0283 380.0101,-179.7204 375.4961,-189.3055 382.4587,-190.0283"/>
</g>
<!-- iface -->
<g id="node4" class="node">
<title>iface</title>
<ellipse fill="#ff0000" stroke="#000000" cx="242" cy="-90" rx="29.5916" ry="18"/>
<text text-anchor="middle" x="242" y="-85.8" font-family="Times,serif" font-size="14.00" fill="#000000">iface</text>
</g>
<!-- core&#45;&gt;iface -->
<g id="edge3" class="edge">
<title>core&#45;&gt;iface</title>
<path fill="none" stroke="#ff0000" d="M359.2669,-295.7363C334.1303,-283.9677 295.8713,-264.6717 286,-252 255.2938,-212.5828 245.9816,-153.3031 243.1799,-118.4441"/>
<polygon fill="#ff0000" stroke="#ff0000" points="246.6435,-117.7831 242.4802,-108.0405 239.6592,-118.2529 246.6435,-117.7831"/>
</g>
<!-- process -->
<g id="node6" class="node">
<title>process</title>
<ellipse fill="#ff0000" stroke="#000000" cx="538" cy="-234" rx="39.9857" ry="18"/>
<text text-anchor="middle" x="538" y="-229.8" font-family="Times,serif" font-size="14.00" fill="#000000">process</text>
</g>
<!-- core&#45;&gt;process -->
<g id="edge4" class="edge">
<title>core&#45;&gt;process</title>
<path fill="none" stroke="#ff0000" d="M404.6837,-295.5306C429.8469,-283.9168 470.8345,-264.9995 500.7285,-251.2022"/>
<polygon fill="#ff0000" stroke="#ff0000" points="502.3976,-254.2868 510.0104,-246.9183 499.4641,-247.931 502.3976,-254.2868"/>
</g>
<!-- data&#45;&gt;boost -->
<g id="edge5" class="edge">
<title>data&#45;&gt;boost</title>
<path fill="none" stroke="#000000" d="M400.7974,-147.1318C427.5438,-121.9588 481.9196,-70.7816 513.5955,-40.9689"/>
<polygon fill="#000000" stroke="#000000" points="516.2458,-43.2809 521.129,-33.8786 511.4482,-38.1835 516.2458,-43.2809"/>
</g>
<!-- data&#45;&gt;core -->
<g id="edge6" class="edge">
<title>data&#45;&gt;core</title>
<path fill="none" stroke="#ff0000" d="M389.2881,-180.1727C391.2456,-204.7613 390.6005,-248.8705 388.0758,-277.7871"/>
<polygon fill="#ff0000" stroke="#ff0000" points="384.5615,-277.7473 387.0177,-288.0535 391.5246,-278.465 384.5615,-277.7473"/>
</g>
<!-- data&#45;&gt;iface -->
<g id="edge7" class="edge">
<title>data&#45;&gt;iface</title>
<path fill="none" stroke="#ff0000" d="M361.574,-152.5873C336.8822,-141.2668 298.2619,-122.0213 271.5376,-107.8535"/>
<polygon fill="#ff0000" stroke="#ff0000" points="273.0906,-104.7148 262.6234,-103.0752 269.7835,-110.8844 273.0906,-104.7148"/>
</g>
<!-- iface&#45;&gt;boost -->
<g id="edge8" class="edge">
<title>iface&#45;&gt;boost</title>
<path fill="none" stroke="#000000" d="M266.3873,-79.1265C272.6958,-76.563 279.5339,-73.9981 286,-72 358.8356,-49.4928 446.3449,-33.0252 496.7327,-24.5277"/>
<polygon fill="#000000" stroke="#000000" points="497.6126,-27.9295 506.9028,-22.8361 496.464,-21.0244 497.6126,-27.9295"/>
</g>
<!-- iface&#45;&gt;data -->
<g id="edge9" class="edge">
<title>iface&#45;&gt;data</title>
<path fill="none" stroke="#ff0000" d="M266.8725,-100.0776C291.8635,-111.5938 330.041,-130.6448 356.2785,-144.5796"/>
<polygon fill="#ff0000" stroke="#ff0000" points="354.8926,-147.8082 365.3581,-149.4586 358.206,-141.642 354.8926,-147.8082"/>
</g>
<!-- pattern -->
<g id="node5" class="node">
<title>pattern</title>
<ellipse fill="#ffffff" stroke="#000000" cx="618" cy="-306" rx="37.6986" ry="18"/>
<text text-anchor="middle" x="618" y="-301.8" font-family="Times,serif" font-size="14.00" fill="#000000">pattern</text>
</g>
<!-- process&#45;&gt;boost -->
<g id="edge10" class="edge">
<title>process&#45;&gt;boost</title>
<path fill="none" stroke="#000000" d="M538,-215.9555C538,-178.3938 538,-91.5541 538,-46.4103"/>
<polygon fill="#000000" stroke="#000000" points="541.5001,-46.145 538,-36.1451 534.5001,-46.1451 541.5001,-46.145"/>
</g>
<!-- process&#45;&gt;data -->
<g id="edge11" class="edge">
<title>process&#45;&gt;data</title>
<path fill="none" stroke="#ff0000" d="M510.2929,-220.9613C483.948,-208.5638 444.3531,-189.9309 416.7483,-176.9404"/>
<polygon fill="#ff0000" stroke="#ff0000" points="418.0641,-173.6914 407.5256,-172.6003 415.0835,-180.0252 418.0641,-173.6914"/>
</g>
<!-- readline -->
<g id="node7" class="node">
<title>readline</title>
<ellipse fill="#ffffff" stroke="#000000" cx="268" cy="-378" rx="42.2719" ry="18"/>
<text text-anchor="middle" x="268" y="-373.8" font-family="Times,serif" font-size="14.00" fill="#000000">readline</text>
</g>
<!-- readline&#45;&gt;core -->
<g id="edge12" class="edge">
<title>readline&#45;&gt;core</title>
<path fill="none" stroke="#000000" d="M291.6209,-363.0816C309.5246,-351.774 334.212,-336.1819 353.2614,-324.1507"/>
<polygon fill="#000000" stroke="#000000" points="355.2526,-327.0327 361.8385,-318.7336 351.5146,-321.1143 355.2526,-327.0327"/>
</g>
<!-- readline&#45;&gt;iface -->
<g id="edge13" class="edge">
<title>readline&#45;&gt;iface</title>
<path fill="none" stroke="#000000" d="M268.4271,-359.5068C268.6467,-349.08 268.8906,-335.814 269,-324 269.1481,-308.0007 270.8856,-303.8885 269,-288 263.1817,-238.9727 249.0906,-228.9942 243,-180 240.4338,-159.3568 240.2661,-135.8455 240.6964,-118.0314"/>
<polygon fill="#000000" stroke="#000000" points="244.1954,-118.1159 241.0152,-108.0096 237.1989,-117.8932 244.1954,-118.1159"/>
</g>
<!-- replace_part -->
<g id="node8" class="node">
<title>replace_part</title>
<ellipse fill="#ffffff" stroke="#000000" cx="201" cy="-306" rx="58.5059" ry="18"/>
<text text-anchor="middle" x="201" y="-301.8" font-family="Times,serif" font-size="14.00" fill="#000000">replace_part</text>
</g>
<!-- replace_part&#45;&gt;boost -->
<g id="edge14" class="edge">
<title>replace_part&#45;&gt;boost</title>
<path fill="none" stroke="#000000" d="M194.3111,-288.1077C179.4894,-245.0413 149.257,-134.5562 203,-72 221.9328,-49.9625 410.6145,-29.8229 496.1877,-21.7424"/>
<polygon fill="#000000" stroke="#000000" points="496.7059,-25.2093 506.3373,-20.795 496.0552,-18.2396 496.7059,-25.2093"/>
</g>
<!-- system_test -->
<g id="node9" class="node">
<title>system_test</title>
<ellipse fill="#ffffff" stroke="#000000" cx="676" cy="-378" rx="56.1937" ry="18"/>
<text text-anchor="middle" x="676" y="-373.8" font-family="Times,serif" font-size="14.00" fill="#000000">system_test</text>
</g>
<!-- system_test&#45;&gt;boost -->
<g id="edge15" class="edge">
<title>system_test&#45;&gt;boost</title>
<path fill="none" stroke="#000000" d="M685.7554,-359.9518C699.2583,-333.2403 722,-281.2402 722,-234 722,-234 722,-234 722,-162 722,-88.6804 630.2736,-47.1102 576.3485,-29.0065"/>
<polygon fill="#000000" stroke="#000000" points="577.3419,-25.6494 566.75,-25.8969 575.1845,-32.3086 577.3419,-25.6494"/>
</g>
<!-- system_test&#45;&gt;core -->
<g id="edge16" class="edge">
<title>system_test&#45;&gt;core</title>
<path fill="none" stroke="#000000" d="M631.3477,-367.0647C572.9456,-352.7622 471.7559,-327.981 417.9934,-314.8147"/>
<polygon fill="#000000" stroke="#000000" points="418.7593,-311.3989 408.2137,-312.4197 417.0941,-318.198 418.7593,-311.3989"/>
</g>
<!-- system_test&#45;&gt;pattern -->
<g id="edge17" class="edge">
<title>system_test&#45;&gt;pattern</title>
<path fill="none" stroke="#000000" d="M661.9598,-360.5708C654.8356,-351.7269 646.0526,-340.8239 638.215,-331.0945"/>
<polygon fill="#000000" stroke="#000000" points="640.9099,-328.8606 631.9109,-323.2687 635.4586,-333.2519 640.9099,-328.8606"/>
</g>
<!-- system_test&#45;&gt;process -->
<g id="edge18" class="edge">
<title>system_test&#45;&gt;process</title>
<path fill="none" stroke="#000000" d="M678.7391,-359.8349C680.6737,-340.1413 680.6189,-308.7521 665,-288 646.1372,-262.9378 613.3517,-249.3865 585.8175,-242.1274"/>
<polygon fill="#000000" stroke="#000000" points="586.4902,-238.689 575.9464,-239.7279 584.8367,-245.491 586.4902,-238.689"/>
</g>
<!-- app/metashell -->
<g id="node10" class="node">
<title>app/metashell</title>
<polygon fill="none" stroke="#000000" points="314.7563,-468 221.2437,-468 221.2437,-432 314.7563,-432 314.7563,-468"/>
<text text-anchor="middle" x="268" y="-445.8" font-family="Times,serif" font-size="14.00" fill="#000000">app/metashell</text>
</g>
<!-- app/metashell&#45;&gt;boost -->
<g id="edge19" class="edge">
<title>app/metashell&#45;&gt;boost</title>
<path fill="none" stroke="#000000" d="M221.0113,-445.8977C144.15,-436.3301 0,-405.1674 0,-306 0,-306 0,-306 0,-162 0,-59.489 369.0915,-28.0028 495.8541,-20.212"/>
<polygon fill="#000000" stroke="#000000" points="496.1827,-23.6987 505.9568,-19.61 495.7663,-16.7111 496.1827,-23.6987"/>
</g>
<!-- app/metashell&#45;&gt;core -->
<g id="edge20" class="edge">
<title>app/metashell&#45;&gt;core</title>
<path fill="none" stroke="#000000" d="M286.638,-431.6214C296.6174,-421.4521 308.8986,-408.3954 319,-396 336.0848,-375.0353 353.5716,-349.6832 365.7734,-331.2359"/>
<polygon fill="#000000" stroke="#000000" points="368.7586,-333.0662 371.314,-322.7841 362.9044,-329.2284 368.7586,-333.0662"/>
</g>
<!-- app/metashell&#45;&gt;data -->
<g id="edge21" class="edge">
<title>app/metashell&#45;&gt;data</title>
<path fill="none" stroke="#000000" d="M314.9403,-445.5849C374.7378,-438.8778 472.9955,-423.8531 495,-396 549.4529,-327.074 456.3917,-226.7999 409.5131,-183.3723"/>
<polygon fill="#000000" stroke="#000000" points="411.6296,-180.566 401.8784,-176.4231 406.9177,-185.7427 411.6296,-180.566"/>
</g>
<!-- app/metashell&#45;&gt;iface -->
<g id="edge22" class="edge">
<title>app/metashell&#45;&gt;iface</title>
<path fill="none" stroke="#000000" d="M220.9732,-442.5607C192.2966,-435.5051 157.3586,-421.9251 137,-396 117.007,-370.5406 128.4515,-356.2783 126,-324 119.7031,-241.0896 125.6905,-209.4302 177,-144 187.2243,-130.9619 201.0781,-118.9179 213.369,-109.5284"/>
<polygon fill="#000000" stroke="#000000" points="215.602,-112.2303 221.5646,-103.4726 211.442,-106.6005 215.602,-112.2303"/>
</g>
<!-- app/metashell&#45;&gt;readline -->
<g id="edge23" class="edge">
<title>app/metashell&#45;&gt;readline</title>
<path fill="none" stroke="#000000" d="M268,-431.8314C268,-424.131 268,-414.9743 268,-406.4166"/>
<polygon fill="#000000" stroke="#000000" points="271.5001,-406.4132 268,-396.4133 264.5001,-406.4133 271.5001,-406.4132"/>
</g>
<!-- app/reference_gen -->
<g id="node11" class="node">
<title>app/reference_gen</title>
<polygon fill="none" stroke="#000000" points="485.8752,-396 366.1248,-396 366.1248,-360 485.8752,-360 485.8752,-396"/>
<text text-anchor="middle" x="426" y="-373.8" font-family="Times,serif" font-size="14.00" fill="#000000">app/reference_gen</text>
</g>
<!-- app/reference_gen&#45;&gt;boost -->
<g id="edge24" class="edge">
<title>app/reference_gen&#45;&gt;boost</title>
<path fill="none" stroke="#000000" d="M448.0873,-359.7838C470.5164,-341.3969 506.3552,-312.3209 538,-288 559.4265,-271.5325 574.7956,-276.1107 587,-252 622.263,-182.3354 579.2411,-88.6978 553.9465,-43.938"/>
<polygon fill="#000000" stroke="#000000" points="556.8972,-42.0493 548.8525,-35.1549 550.8419,-45.5613 556.8972,-42.0493"/>
</g>
<!-- app/reference_gen&#45;&gt;core -->
<g id="edge25" class="edge">
<title>app/reference_gen&#45;&gt;core</title>
<path fill="none" stroke="#000000" d="M414.8969,-359.8314C409.6494,-351.2444 403.2952,-340.8466 397.5759,-331.4878"/>
<polygon fill="#000000" stroke="#000000" points="400.5449,-329.634 392.3438,-322.9263 394.5719,-333.2842 400.5449,-329.634"/>
</g>
<!-- app/reference_gen&#45;&gt;data -->
<g id="edge26" class="edge">
<title>app/reference_gen&#45;&gt;data</title>
<path fill="none" stroke="#000000" d="M425.5395,-359.6662C424.3787,-329.263 420.301,-266.7325 406,-216 403.4892,-207.0929 400.0708,-197.6136 396.7215,-189.1238"/>
<polygon fill="#000000" stroke="#000000" points="399.8976,-187.6431 392.88,-179.7056 393.416,-190.2869 399.8976,-187.6431"/>
</g>
<!-- app/reference_gen&#45;&gt;replace_part -->
<g id="edge27" class="edge">
<title>app/reference_gen&#45;&gt;replace_part</title>
<path fill="none" stroke="#000000" d="M369.5134,-359.9243C333.2222,-348.3111 286.4901,-333.3568 251.4475,-322.1432"/>
<polygon fill="#000000" stroke="#000000" points="252.483,-318.7998 241.8921,-319.0855 250.3496,-325.4668 252.483,-318.7998"/>
</g>
<!-- test/system/core -->
<g id="node12" class="node">
<title>test/system/core</title>
<polygon fill="none" stroke="#000000" points="771.1966,-468 664.8034,-468 664.8034,-432 771.1966,-432 771.1966,-468"/>
<text text-anchor="middle" x="718" y="-445.8" font-family="Times,serif" font-size="14.00" fill="#000000">test/system/core</text>
</g>
<!-- test/system/core&#45;&gt;boost -->
<g id="edge28" class="edge">
<title>test/system/core&#45;&gt;boost</title>
<path fill="none" stroke="#000000" d="M726.9071,-431.8553C739.2358,-405.0234 760,-352.875 760,-306 760,-306 760,-306 760,-162 760,-76.5305 642.7487,-39.2353 578.6698,-25.2349"/>
<polygon fill="#000000" stroke="#000000" points="579.373,-21.8063 568.8681,-23.1841 577.9394,-28.658 579.373,-21.8063"/>
</g>
<!-- test/system/core&#45;&gt;system_test -->
<g id="edge29" class="edge">
<title>test/system/core&#45;&gt;system_test</title>
<path fill="none" stroke="#000000" d="M707.4016,-431.8314C702.59,-423.5829 696.8037,-413.6635 691.5162,-404.5992"/>
<polygon fill="#000000" stroke="#000000" points="694.5115,-402.7876 686.4495,-395.9134 688.465,-406.3148 694.5115,-402.7876"/>
</g>
<!-- test/system/mdb -->
<g id="node13" class="node">
<title>test/system/mdb</title>
<polygon fill="none" stroke="#000000" points="896.4972,-468 789.5028,-468 789.5028,-432 896.4972,-432 896.4972,-468"/>
<text text-anchor="middle" x="843" y="-445.8" font-family="Times,serif" font-size="14.00" fill="#000000">test/system/mdb</text>
</g>
<!-- test/system/mdb&#45;&gt;boost -->
<g id="edge30" class="edge">
<title>test/system/mdb&#45;&gt;boost</title>
<path fill="none" stroke="#000000" d="M838.4416,-431.9498C831.9977,-404.8059 821,-351.775 821,-306 821,-306 821,-306 821,-162 821,-55.1652 658.8157,-27.5591 580.0028,-20.4511"/>
<polygon fill="#000000" stroke="#000000" points="580.1692,-16.953 569.9136,-19.6124 579.5892,-23.9289 580.1692,-16.953"/>
</g>
<!-- test/system/mdb&#45;&gt;system_test -->
<g id="edge31" class="edge">
<title>test/system/mdb&#45;&gt;system_test</title>
<path fill="none" stroke="#000000" d="M800.8588,-431.8314C775.8403,-421.0449 744.1946,-407.4012 719.0227,-396.5487"/>
<polygon fill="#000000" stroke="#000000" points="720.2882,-393.2829 709.7196,-392.5378 717.5168,-399.7109 720.2882,-393.2829"/>
</g>
<!-- test/system/pdb -->
<g id="node14" class="node">
<title>test/system/pdb</title>
<polygon fill="none" stroke="#000000" points="1017.6067,-468 914.3933,-468 914.3933,-432 1017.6067,-432 1017.6067,-468"/>
<text text-anchor="middle" x="966" y="-445.8" font-family="Times,serif" font-size="14.00" fill="#000000">test/system/pdb</text>
</g>
<!-- test/system/pdb&#45;&gt;boost -->
<g id="edge32" class="edge">
<title>test/system/pdb&#45;&gt;boost</title>
<path fill="none" stroke="#000000" d="M954.4998,-431.6962C938.9121,-405.088 913,-353.6848 913,-306 913,-306 913,-306 913,-162 913,-97.0974 856.8742,-99.3161 798,-72 725.8604,-38.5291 632.8886,-25.6471 579.9139,-20.8045"/>
<polygon fill="#000000" stroke="#000000" points="580.1338,-17.3105 569.8703,-19.9394 579.533,-24.2847 580.1338,-17.3105"/>
</g>
<!-- test/system/pdb&#45;&gt;system_test -->
<g id="edge33" class="edge">
<title>test/system/pdb&#45;&gt;system_test</title>
<path fill="none" stroke="#000000" d="M914.1408,-434.485C911.0528,-433.6271 907.9884,-432.7926 905,-432 846.5146,-416.4881 779.039,-400.8474 732.5594,-390.4207"/>
<polygon fill="#000000" stroke="#000000" points="733.2017,-386.978 722.679,-388.2118 731.6744,-393.8093 733.2017,-386.978"/>
</g>
<!-- test/system/pp -->
<g id="node15" class="node">
<title>test/system/pp</title>
<polygon fill="none" stroke="#000000" points="527.1067,-468 430.8933,-468 430.8933,-432 527.1067,-432 527.1067,-468"/>
<text text-anchor="middle" x="479" y="-445.8" font-family="Times,serif" font-size="14.00" fill="#000000">test/system/pp</text>
</g>
<!-- test/system/pp&#45;&gt;boost -->
<g id="edge34" class="edge">
<title>test/system/pp&#45;&gt;boost</title>
<path fill="none" stroke="#000000" d="M492.2774,-431.8922C499.6112,-421.5859 508.6887,-408.3121 516,-396 543.5034,-349.6848 539.6507,-331.8036 571,-288 583.9873,-269.8532 596.8941,-272.373 606,-252 638.7732,-178.6755 630.2665,-141.4923 590,-72 583.1007,-60.0931 573.0299,-48.81 563.5844,-39.6667"/>
<polygon fill="#000000" stroke="#000000" points="565.9245,-37.0634 556.2158,-32.8216 561.1602,-42.192 565.9245,-37.0634"/>
</g>
<!-- test/system/pp&#45;&gt;pattern -->
<g id="edge35" class="edge">
<title>test/system/pp&#45;&gt;pattern</title>
<path fill="none" stroke="#000000" d="M517.0265,-431.7804C533.4324,-422.6389 552.0215,-410.4269 566,-396 583.7246,-377.7067 597.7122,-352.225 606.6952,-333.0433"/>
<polygon fill="#000000" stroke="#000000" points="609.8868,-334.4799 610.8136,-323.9256 603.5073,-331.5983 609.8868,-334.4799"/>
</g>
<!-- test/system/pp&#45;&gt;system_test -->
<g id="edge36" class="edge">
<title>test/system/pp&#45;&gt;system_test</title>
<path fill="none" stroke="#000000" d="M527.1916,-432.3868C558.2328,-421.0418 598.3858,-406.3666 629.1578,-395.12"/>
<polygon fill="#000000" stroke="#000000" points="630.6048,-398.3176 638.7957,-391.5975 628.2018,-391.743 630.6048,-398.3176"/>
</g>
<!-- test/system/self -->
<g id="node16" class="node">
<title>test/system/self</title>
<polygon fill="none" stroke="#000000" points="647.3175,-468 544.6825,-468 544.6825,-432 647.3175,-432 647.3175,-468"/>
<text text-anchor="middle" x="596" y="-445.8" font-family="Times,serif" font-size="14.00" fill="#000000">test/system/self</text>
</g>
<!-- test/system/self&#45;&gt;system_test -->
<g id="edge37" class="edge">
<title>test/system/self&#45;&gt;system_test</title>
<path fill="none" stroke="#000000" d="M616.1874,-431.8314C626.2441,-422.7803 638.5362,-411.7174 649.3557,-401.9799"/>
<polygon fill="#000000" stroke="#000000" points="651.829,-404.4627 656.9206,-395.1715 647.1462,-399.2596 651.829,-404.4627"/>
</g>
<!-- test/unit -->
<g id="node17" class="node">
<title>test/unit</title>
<polygon fill="none" stroke="#000000" points="207.6123,-396 146.3877,-396 146.3877,-360 207.6123,-360 207.6123,-396"/>
<text text-anchor="middle" x="177" y="-373.8" font-family="Times,serif" font-size="14.00" fill="#000000">test/unit</text>
</g>
<!-- test/unit&#45;&gt;boost -->
<g id="edge38" class="edge">
<title>test/unit&#45;&gt;boost</title>
<path fill="none" stroke="#000000" d="M153.1509,-359.928C142.7058,-350.5042 131.574,-338.02 126,-324 94.284,-244.227 57.5385,-182.8471 179,-72 202.1746,-50.8506 406.4829,-29.9328 496.1342,-21.681"/>
<polygon fill="#000000" stroke="#000000" points="496.5845,-25.1546 506.2255,-20.7612 495.9491,-18.1835 496.5845,-25.1546"/>
</g>
<!-- test/unit&#45;&gt;core -->
<g id="edge39" class="edge">
<title>test/unit&#45;&gt;core</title>
<path fill="none" stroke="#000000" d="M207.871,-363.7165C210.9371,-362.416 214.0176,-361.1553 217,-360 261.0647,-342.9307 313.0426,-326.5152 346.714,-316.3548"/>
<polygon fill="#000000" stroke="#000000" points="347.9723,-319.6316 356.547,-313.4086 345.9631,-312.9261 347.9723,-319.6316"/>
</g>
<!-- test/unit&#45;&gt;data -->
<g id="edge40" class="edge">
<title>test/unit&#45;&gt;data</title>
<path fill="none" stroke="#000000" d="M207.7095,-364.0848C226.6898,-354.5369 250.8113,-340.6105 269,-324 313.7115,-283.1681 351.5124,-222.4349 370.9492,-188.1061"/>
<polygon fill="#000000" stroke="#000000" points="374.1229,-189.601 375.9349,-179.1622 368.0087,-186.1926 374.1229,-189.601"/>
</g>
<!-- test/unit&#45;&gt;iface -->
<g id="edge41" class="edge">
<title>test/unit&#45;&gt;iface</title>
<path fill="none" stroke="#000000" d="M156.5974,-359.5625C147.5059,-349.9675 137.7838,-337.4441 133,-324 127.6362,-308.9258 129.0165,-303.4962 133,-288 150.427,-220.2074 196.4914,-150.7545 222.8222,-114.8712"/>
<polygon fill="#000000" stroke="#000000" points="225.8959,-116.6038 229.0619,-106.493 220.2817,-112.4226 225.8959,-116.6038"/>
</g>
<!-- test/unit&#45;&gt;replace_part -->
<g id="edge42" class="edge">
<title>test/unit&#45;&gt;replace_part</title>
<path fill="none" stroke="#000000" d="M183.0562,-359.8314C185.7198,-351.8406 188.906,-342.2819 191.8495,-333.4514"/>
<polygon fill="#000000" stroke="#000000" points="195.1869,-334.5071 195.0289,-323.9134 188.5461,-332.2934 195.1869,-334.5071"/>
</g>
</g>
</svg>
