<?xml version="1.0" encoding="UTF-8" standalone="no"?>
<!DOCTYPE svg PUBLIC "-//W3C//DTD SVG 1.1//EN"
 "http://www.w3.org/Graphics/SVG/1.1/DTD/svg11.dtd">
<!-- Generated by graphviz version 2.40.1
 -->
<!-- Title: %3 Pages: 1 -->
<svg width="2075pt" height="476pt"
 viewBox="0.00 0.00 2075.09 476.00" xmlns="http://www.w3.org/2000/svg" xmlns:xlink="http://www.w3.org/1999/xlink">
<g id="graph0" class="graph" transform="scale(1 1) rotate(0) translate(4 472)">
<title>%3</title>
<polygon fill="#ffffff" stroke="transparent" points="-4,4 -4,-472 2071.0936,-472 2071.0936,4 -4,4"/>
<!-- compiler_stub -->
<g id="node1" class="node">
<title>compiler_stub</title>
<ellipse fill="#ffffff" stroke="#000000" cx="1739.7135" cy="-90" rx="66.0723" ry="18"/>
<text text-anchor="middle" x="1739.7135" y="-85.8" font-family="Times,serif" font-size="14.00" fill="#000000">compiler_stub</text>
</g>
<!-- data -->
<g id="node3" class="node">
<title>data</title>
<ellipse fill="#ffffff" stroke="#000000" cx="1149.7135" cy="-18" rx="27.2447" ry="18"/>
<text text-anchor="middle" x="1149.7135" y="-13.8" font-family="Times,serif" font-size="14.00" fill="#000000">data</text>
</g>
<!-- compiler_stub&#45;&gt;data -->
<g id="edge1" class="edge">
<title>compiler_stub&#45;&gt;data</title>
<path fill="none" stroke="#000000" d="M1679.0708,-82.5995C1557.2128,-67.7287 1285.8364,-34.6116 1186.8026,-22.5261"/>
<polygon fill="#000000" stroke="#000000" points="1187.0294,-19.0279 1176.679,-21.2907 1186.1814,-25.9764 1187.0294,-19.0279"/>
</g>
<!-- core -->
<g id="node2" class="node">
<title>core</title>
<ellipse fill="#ffffff" stroke="#000000" cx="535.7135" cy="-162" rx="27.8073" ry="18"/>
<text text-anchor="middle" x="535.7135" y="-157.8" font-family="Times,serif" font-size="14.00" fill="#000000">core</text>
</g>
<!-- iface -->
<g id="node12" class="node">
<title>iface</title>
<ellipse fill="#ffffff" stroke="#000000" cx="419.7135" cy="-90" rx="29.5916" ry="18"/>
<text text-anchor="middle" x="419.7135" y="-85.8" font-family="Times,serif" font-size="14.00" fill="#000000">iface</text>
</g>
<!-- core&#45;&gt;iface -->
<g id="edge2" class="edge">
<title>core&#45;&gt;iface</title>
<path fill="none" stroke="#000000" d="M515.5078,-149.4586C497.3006,-138.1575 470.2923,-121.3937 449.5904,-108.5443"/>
<polygon fill="#000000" stroke="#000000" points="451.2054,-105.4273 440.8632,-103.1274 447.5138,-111.3748 451.2054,-105.4273"/>
</g>
<!-- defaults -->
<g id="node4" class="node">
<title>defaults</title>
<ellipse fill="#ffffff" stroke="#000000" cx="818.7135" cy="-378" rx="41.7095" ry="18"/>
<text text-anchor="middle" x="818.7135" y="-373.8" font-family="Times,serif" font-size="14.00" fill="#000000">defaults</text>
</g>
<!-- engine/gcc -->
<g id="node7" class="node">
<title>engine/gcc</title>
<ellipse fill="#ffffff" stroke="#000000" cx="1157.7135" cy="-306" rx="52.7295" ry="18"/>
<text text-anchor="middle" x="1157.7135" y="-301.8" font-family="Times,serif" font-size="14.00" fill="#000000">engine/gcc</text>
</g>
<!-- defaults&#45;&gt;engine/gcc -->
<g id="edge3" class="edge">
<title>defaults&#45;&gt;engine/gcc</title>
<path fill="none" stroke="#000000" d="M853.0852,-367.6053C862.6275,-364.9187 873.0282,-362.174 882.7135,-360 976.3919,-338.973 1002.1241,-345.4197 1095.7135,-324 1100.0087,-323.017 1104.4468,-321.9114 1108.8826,-320.744"/>
<polygon fill="#000000" stroke="#000000" points="1109.8059,-324.1202 1118.5335,-318.1135 1107.965,-317.3665 1109.8059,-324.1202"/>
</g>
<!-- engine/null -->
<g id="node8" class="node">
<title>engine/null</title>
<ellipse fill="#ffffff" stroke="#000000" cx="576.7135" cy="-234" rx="54.4739" ry="18"/>
<text text-anchor="middle" x="576.7135" y="-229.8" font-family="Times,serif" font-size="14.00" fill="#000000">engine/null</text>
</g>
<!-- defaults&#45;&gt;engine/null -->
<g id="edge4" class="edge">
<title>defaults&#45;&gt;engine/null</title>
<path fill="none" stroke="#000000" d="M782.0538,-369.2522C718.976,-354.183 596.5372,-324.8485 595.7135,-324 579.9663,-307.7809 575.8247,-281.9798 575.2688,-262.1529"/>
<polygon fill="#000000" stroke="#000000" points="578.7687,-262.1326 575.27,-252.1321 571.7687,-262.1317 578.7687,-262.1326"/>
</g>
<!-- engine/templight -->
<g id="node9" class="node">
<title>engine/templight</title>
<ellipse fill="#ffffff" stroke="#000000" cx="818.7135" cy="-306" rx="76.4632" ry="18"/>
<text text-anchor="middle" x="818.7135" y="-301.8" font-family="Times,serif" font-size="14.00" fill="#000000">engine/templight</text>
</g>
<!-- defaults&#45;&gt;engine/templight -->
<g id="edge5" class="edge">
<title>defaults&#45;&gt;engine/templight</title>
<path fill="none" stroke="#000000" d="M818.7135,-359.8314C818.7135,-352.131 818.7135,-342.9743 818.7135,-334.4166"/>
<polygon fill="#000000" stroke="#000000" points="822.2136,-334.4132 818.7135,-324.4133 815.2136,-334.4133 822.2136,-334.4132"/>
</g>
<!-- engine/vc -->
<g id="node10" class="node">
<title>engine/vc</title>
<ellipse fill="#ffffff" stroke="#000000" cx="794.7135" cy="-234" rx="48.6559" ry="18"/>
<text text-anchor="middle" x="794.7135" y="-229.8" font-family="Times,serif" font-size="14.00" fill="#000000">engine/vc</text>
</g>
<!-- defaults&#45;&gt;engine/vc -->
<g id="edge6" class="edge">
<title>defaults&#45;&gt;engine/vc</title>
<path fill="none" stroke="#000000" d="M851.4,-366.5013C870.349,-357.9507 892.6006,-344.2258 903.7135,-324 911.4181,-309.9772 912.1502,-301.5949 903.7135,-288 890.9577,-267.4453 867.7935,-254.4735 846.0895,-246.414"/>
<polygon fill="#000000" stroke="#000000" points="847.1832,-243.089 836.5885,-243.1501 844.9088,-249.7092 847.1832,-243.089"/>
</g>
<!-- engine/wave -->
<g id="node11" class="node">
<title>engine/wave</title>
<ellipse fill="#ffffff" stroke="#000000" cx="1288.7135" cy="-306" rx="59.6723" ry="18"/>
<text text-anchor="middle" x="1288.7135" y="-301.8" font-family="Times,serif" font-size="14.00" fill="#000000">engine/wave</text>
</g>
<!-- defaults&#45;&gt;engine/wave -->
<g id="edge7" class="edge">
<title>defaults&#45;&gt;engine/wave</title>
<path fill="none" stroke="#000000" d="M852.6709,-367.3069C862.303,-364.5867 872.853,-361.8994 882.7135,-360 1030.6243,-331.5086 1071.5388,-351.086 1219.7135,-324 1224.7598,-323.0775 1229.9804,-321.9821 1235.1865,-320.7938"/>
<polygon fill="#000000" stroke="#000000" points="1236.2192,-324.1456 1245.1307,-318.4154 1234.5908,-317.3376 1236.2192,-324.1456"/>
</g>
<!-- pragma -->
<g id="node17" class="node">
<title>pragma</title>
<ellipse fill="#ffffff" stroke="#000000" cx="508.7135" cy="-306" rx="39.9876" ry="18"/>
<text text-anchor="middle" x="508.7135" y="-301.8" font-family="Times,serif" font-size="14.00" fill="#000000">pragma</text>
</g>
<!-- defaults&#45;&gt;pragma -->
<g id="edge8" class="edge">
<title>defaults&#45;&gt;pragma</title>
<path fill="none" stroke="#000000" d="M782.4345,-369.1333C769.8761,-366.1369 755.6959,-362.8347 742.7135,-360 663.0071,-342.5961 641.5647,-344.9401 562.7135,-324 558.5767,-322.9014 554.2939,-321.6593 550.033,-320.3537"/>
<polygon fill="#000000" stroke="#000000" points="550.8,-316.925 540.2095,-317.2297 548.6785,-323.5958 550.8,-316.925"/>
</g>
<!-- engine/clang -->
<g id="node5" class="node">
<title>engine/clang</title>
<ellipse fill="#ffffff" stroke="#000000" cx="1018.7135" cy="-234" rx="60.2537" ry="18"/>
<text text-anchor="middle" x="1018.7135" y="-229.8" font-family="Times,serif" font-size="14.00" fill="#000000">engine/clang</text>
</g>
<!-- engine/clang&#45;&gt;core -->
<g id="edge9" class="edge">
<title>engine/clang&#45;&gt;core</title>
<path fill="none" stroke="#000000" d="M964.2461,-225.8806C865.0125,-211.0881 657.2217,-180.113 572.6799,-167.5105"/>
<polygon fill="#000000" stroke="#000000" points="573.1682,-164.0447 562.7615,-166.032 572.1361,-170.9682 573.1682,-164.0447"/>
</g>
<!-- process -->
<g id="node18" class="node">
<title>process</title>
<ellipse fill="#ffffff" stroke="#000000" cx="1113.7135" cy="-162" rx="39.9857" ry="18"/>
<text text-anchor="middle" x="1113.7135" y="-157.8" font-family="Times,serif" font-size="14.00" fill="#000000">process</text>
</g>
<!-- engine/clang&#45;&gt;process -->
<g id="edge10" class="edge">
<title>engine/clang&#45;&gt;process</title>
<path fill="none" stroke="#000000" d="M1041.2271,-216.937C1054.2224,-207.0879 1070.7059,-194.5952 1084.6695,-184.0122"/>
<polygon fill="#000000" stroke="#000000" points="1087.1289,-186.54 1092.9845,-177.7103 1082.9007,-180.9612 1087.1289,-186.54"/>
</g>
<!-- engine/constant -->
<g id="node6" class="node">
<title>engine/constant</title>
<ellipse fill="#ffffff" stroke="#000000" cx="171.7135" cy="-306" rx="71.7892" ry="18"/>
<text text-anchor="middle" x="171.7135" y="-301.8" font-family="Times,serif" font-size="14.00" fill="#000000">engine/constant</text>
</g>
<!-- engine/constant&#45;&gt;core -->
<g id="edge11" class="edge">
<title>engine/constant&#45;&gt;core</title>
<path fill="none" stroke="#000000" d="M225.2619,-293.8905C234.4115,-291.8815 243.8288,-289.8513 252.7135,-288 334.7167,-270.913 364.6297,-292.93 437.7135,-252 456.6509,-241.3942 454.9963,-230.9694 470.7135,-216 483.0567,-204.244 497.5849,-192.0358 509.7722,-182.2075"/>
<polygon fill="#000000" stroke="#000000" points="512.1461,-184.791 517.78,-175.8183 507.7803,-179.3193 512.1461,-184.791"/>
</g>
<!-- engine/gcc&#45;&gt;engine/clang -->
<g id="edge12" class="edge">
<title>engine/gcc&#45;&gt;engine/clang</title>
<path fill="none" stroke="#000000" d="M1128.5745,-290.9064C1108.1439,-280.3237 1080.5921,-266.0523 1058.1914,-254.449"/>
<polygon fill="#000000" stroke="#000000" points="1059.7472,-251.3133 1049.2579,-249.8216 1056.5276,-257.5289 1059.7472,-251.3133"/>
</g>
<!-- engine/null&#45;&gt;core -->
<g id="edge13" class="edge">
<title>engine/null&#45;&gt;core</title>
<path fill="none" stroke="#000000" d="M566.5786,-216.2022C561.7411,-207.7071 555.8585,-197.3767 550.5317,-188.0223"/>
<polygon fill="#000000" stroke="#000000" points="553.4393,-186.0551 545.4494,-179.0972 547.3564,-189.519 553.4393,-186.0551"/>
</g>
<!-- engine/templight&#45;&gt;engine/clang -->
<g id="edge14" class="edge">
<title>engine/templight&#45;&gt;engine/clang</title>
<path fill="none" stroke="#000000" d="M860.64,-290.9064C892.6456,-279.3844 936.7969,-263.49 970.3049,-251.4271"/>
<polygon fill="#000000" stroke="#000000" points="971.6715,-254.6551 979.8948,-247.9747 969.3004,-248.0689 971.6715,-254.6551"/>
</g>
<!-- engine/vc&#45;&gt;core -->
<g id="edge15" class="edge">
<title>engine/vc&#45;&gt;core</title>
<path fill="none" stroke="#000000" d="M755.6581,-223.1429C705.5239,-209.206 619.2676,-185.2274 571.0174,-171.8142"/>
<polygon fill="#000000" stroke="#000000" points="571.897,-168.4261 561.3249,-169.1198 570.0221,-175.1703 571.897,-168.4261"/>
</g>
<!-- engine/vc&#45;&gt;process -->
<g id="edge16" class="edge">
<title>engine/vc&#45;&gt;process</title>
<path fill="none" stroke="#000000" d="M836.4171,-224.5873C896.249,-211.0829 1006.047,-186.3009 1068.0163,-172.3141"/>
<polygon fill="#000000" stroke="#000000" points="1068.9202,-175.6982 1077.9042,-170.0823 1067.379,-168.87 1068.9202,-175.6982"/>
</g>
<!-- engine/wave&#45;&gt;engine/clang -->
<g id="edge17" class="edge">
<title>engine/wave&#45;&gt;engine/clang</title>
<path fill="none" stroke="#000000" d="M1243.8254,-294.0298C1197.1527,-281.5838 1124.0344,-262.0856 1073.8718,-248.7089"/>
<polygon fill="#000000" stroke="#000000" points="1074.7241,-245.3139 1064.1599,-246.1191 1072.9205,-252.0776 1074.7241,-245.3139"/>
</g>
<!-- iface&#45;&gt;data -->
<g id="edge18" class="edge">
<title>iface&#45;&gt;data</title>
<path fill="none" stroke="#000000" d="M449.2345,-87.0883C564.5588,-75.7139 984.5969,-34.2855 1112.5003,-21.6703"/>
<polygon fill="#000000" stroke="#000000" points="1112.9733,-25.1408 1122.5814,-20.676 1112.2862,-18.1746 1112.9733,-25.1408"/>
</g>
<!-- main_shell -->
<g id="node13" class="node">
<title>main_shell</title>
<ellipse fill="#ffffff" stroke="#000000" cx="397.7135" cy="-306" rx="53.3283" ry="18"/>
<text text-anchor="middle" x="397.7135" y="-301.8" font-family="Times,serif" font-size="14.00" fill="#000000">main_shell</text>
</g>
<!-- main_shell&#45;&gt;core -->
<g id="edge19" class="edge">
<title>main_shell&#45;&gt;core</title>
<path fill="none" stroke="#000000" d="M423.2296,-289.9937C437.9915,-280.0602 456.4161,-266.4614 470.7135,-252 490.0445,-232.4472 508.0154,-206.7384 520.1392,-187.8063"/>
<polygon fill="#000000" stroke="#000000" points="523.2446,-189.4427 525.6016,-179.1133 517.3176,-185.7183 523.2446,-189.4427"/>
</g>
<!-- mdb -->
<g id="node14" class="node">
<title>mdb</title>
<ellipse fill="#ffffff" stroke="#000000" cx="400.7135" cy="-234" rx="28.4127" ry="18"/>
<text text-anchor="middle" x="400.7135" y="-229.8" font-family="Times,serif" font-size="14.00" fill="#000000">mdb</text>
</g>
<!-- mdb&#45;&gt;core -->
<g id="edge20" class="edge">
<title>mdb&#45;&gt;core</title>
<path fill="none" stroke="#000000" d="M422.4035,-222.432C444.7422,-210.518 479.7549,-191.8446 504.949,-178.4077"/>
<polygon fill="#000000" stroke="#000000" points="506.9007,-181.3335 514.0772,-173.5393 503.6066,-175.157 506.9007,-181.3335"/>
</g>
<!-- mock -->
<g id="node15" class="node">
<title>mock</title>
<ellipse fill="#ffffff" stroke="#000000" cx="293.7135" cy="-306" rx="32.4846" ry="18"/>
<text text-anchor="middle" x="293.7135" y="-301.8" font-family="Times,serif" font-size="14.00" fill="#000000">mock</text>
</g>
<!-- mock&#45;&gt;iface -->
<g id="edge21" class="edge">
<title>mock&#45;&gt;iface</title>
<path fill="none" stroke="#000000" d="M303.8116,-288.6889C325.8918,-250.837 378.5688,-160.5338 404.6101,-115.8915"/>
<polygon fill="#000000" stroke="#000000" points="407.7266,-117.495 409.7422,-107.0937 401.6802,-113.9679 407.7266,-117.495"/>
</g>
<!-- pattern -->
<g id="node16" class="node">
<title>pattern</title>
<ellipse fill="#ffffff" stroke="#000000" cx="1424.7135" cy="-162" rx="37.6986" ry="18"/>
<text text-anchor="middle" x="1424.7135" y="-157.8" font-family="Times,serif" font-size="14.00" fill="#000000">pattern</text>
</g>
<!-- pragma&#45;&gt;mdb -->
<g id="edge22" class="edge">
<title>pragma&#45;&gt;mdb</title>
<path fill="none" stroke="#000000" d="M486.0731,-290.9064C469.534,-279.8804 446.9888,-264.8502 429.2216,-253.0054"/>
<polygon fill="#000000" stroke="#000000" points="430.6852,-249.7747 420.4232,-247.1398 426.8023,-255.5991 430.6852,-249.7747"/>
</g>
<!-- process&#45;&gt;data -->
<g id="edge23" class="edge">
<title>process&#45;&gt;data</title>
<path fill="none" stroke="#000000" d="M1116.9902,-143.9501C1120.4295,-125.6925 1126.2307,-96.7149 1132.7135,-72 1134.9827,-63.3486 1137.7868,-54.0245 1140.4587,-45.5991"/>
<polygon fill="#000000" stroke="#000000" points="1143.8571,-46.4652 1143.6074,-35.8733 1137.1974,-44.3091 1143.8571,-46.4652"/>
</g>
<!-- readline -->
<g id="node19" class="node">
<title>readline</title>
<ellipse fill="#ffffff" stroke="#000000" cx="110.7135" cy="-234" rx="42.2719" ry="18"/>
<text text-anchor="middle" x="110.7135" y="-229.8" font-family="Times,serif" font-size="14.00" fill="#000000">readline</text>
</g>
<!-- readline&#45;&gt;iface -->
<g id="edge24" class="edge">
<title>readline&#45;&gt;iface</title>
<path fill="none" stroke="#000000" d="M139.2296,-220.7109C196.6661,-193.9444 325.9792,-133.682 386.8513,-105.3144"/>
<polygon fill="#000000" stroke="#000000" points="388.4261,-108.442 396.0117,-101.0455 385.4692,-102.0971 388.4261,-108.442"/>
</g>
<!-- replace_part -->
<g id="node20" class="node">
<title>replace_part</title>
<ellipse fill="#ffffff" stroke="#000000" cx="950.7135" cy="-378" rx="58.5059" ry="18"/>
<text text-anchor="middle" x="950.7135" y="-373.8" font-family="Times,serif" font-size="14.00" fill="#000000">replace_part</text>
</g>
<!-- system_test -->
<g id="node21" class="node">
<title>system_test</title>
<ellipse fill="#ffffff" stroke="#000000" cx="1544.7135" cy="-234" rx="56.1937" ry="18"/>
<text text-anchor="middle" x="1544.7135" y="-229.8" font-family="Times,serif" font-size="14.00" fill="#000000">system_test</text>
</g>
<!-- system_test&#45;&gt;pattern -->
<g id="edge25" class="edge">
<title>system_test&#45;&gt;pattern</title>
<path fill="none" stroke="#000000" d="M1518.0816,-218.0209C1500.0798,-207.2198 1476.2021,-192.8932 1457.1,-181.4319"/>
<polygon fill="#000000" stroke="#000000" points="1458.8018,-178.3713 1448.4261,-176.2276 1455.2003,-184.3738 1458.8018,-178.3713"/>
</g>
<!-- system_test&#45;&gt;process -->
<g id="edge26" class="edge">
<title>system_test&#45;&gt;process</title>
<path fill="none" stroke="#000000" d="M1494.8512,-225.6703C1411.2331,-211.7017 1243.8333,-183.737 1161.574,-169.9953"/>
<polygon fill="#000000" stroke="#000000" points="1161.9399,-166.508 1151.4998,-168.3123 1160.7864,-173.4123 1161.9399,-166.508"/>
</g>
<!-- app/metashell -->
<g id="node22" class="node">
<title>app/metashell</title>
<polygon fill="none" stroke="#000000" points="562.4698,-468 468.9571,-468 468.9571,-432 562.4698,-432 562.4698,-468"/>
<text text-anchor="middle" x="515.7135" y="-445.8" font-family="Times,serif" font-size="14.00" fill="#000000">app/metashell</text>
</g>
<!-- app/metashell&#45;&gt;defaults -->
<g id="edge27" class="edge">
<title>app/metashell&#45;&gt;defaults</title>
<path fill="none" stroke="#000000" d="M562.7248,-438.829C619.8035,-425.2657 715.4634,-402.5347 772.2802,-389.0337"/>
<polygon fill="#000000" stroke="#000000" points="773.1575,-392.4227 782.0774,-386.7056 771.5391,-385.6124 773.1575,-392.4227"/>
</g>
<!-- app/metashell&#45;&gt;main_shell -->
<g id="edge28" class="edge">
<title>app/metashell&#45;&gt;main_shell</title>
<path fill="none" stroke="#000000" d="M516.1809,-431.9814C515.7899,-412.4161 512.444,-381.1387 496.7135,-360 484.115,-343.0702 464.5746,-330.8237 446.1716,-322.3181"/>
<polygon fill="#000000" stroke="#000000" points="447.5468,-319.0995 436.9805,-318.3228 444.7562,-325.5192 447.5468,-319.0995"/>
</g>
<!-- app/metashell&#45;&gt;readline -->
<g id="edge29" class="edge">
<title>app/metashell&#45;&gt;readline</title>
<path fill="none" stroke="#000000" d="M468.6707,-448.4595C349.4795,-444.0745 42.9051,-429.6064 12.7135,-396 -27.2402,-351.5275 39.0406,-288.4784 80.7736,-255.695"/>
<polygon fill="#000000" stroke="#000000" points="82.9617,-258.4276 88.7541,-249.5564 78.6938,-252.8792 82.9617,-258.4276"/>
</g>
<!-- app/reference_gen -->
<g id="node23" class="node">
<title>app/reference_gen</title>
<polygon fill="none" stroke="#000000" points="878.5886,-468 758.8383,-468 758.8383,-432 878.5886,-432 878.5886,-468"/>
<text text-anchor="middle" x="818.7135" y="-445.8" font-family="Times,serif" font-size="14.00" fill="#000000">app/reference_gen</text>
</g>
<!-- app/reference_gen&#45;&gt;defaults -->
<g id="edge30" class="edge">
<title>app/reference_gen&#45;&gt;defaults</title>
<path fill="none" stroke="#000000" d="M818.7135,-431.8314C818.7135,-424.131 818.7135,-414.9743 818.7135,-406.4166"/>
<polygon fill="#000000" stroke="#000000" points="822.2136,-406.4132 818.7135,-396.4133 815.2136,-406.4133 822.2136,-406.4132"/>
</g>
<!-- app/reference_gen&#45;&gt;replace_part -->
<g id="edge31" class="edge">
<title>app/reference_gen&#45;&gt;replace_part</title>
<path fill="none" stroke="#000000" d="M852.0226,-431.8314C870.6157,-421.6897 893.8396,-409.0221 913.0871,-398.5235"/>
<polygon fill="#000000" stroke="#000000" points="914.7955,-401.5785 921.8984,-393.7173 911.4435,-395.4332 914.7955,-401.5785"/>
</g>
<!-- app/stub/apple_clang -->
<g id="node24" class="node">
<title>app/stub/apple_clang</title>
<polygon fill="none" stroke="#000000" points="1615.1841,-180 1480.2429,-180 1480.2429,-144 1615.1841,-144 1615.1841,-180"/>
<text text-anchor="middle" x="1547.7135" y="-157.8" font-family="Times,serif" font-size="14.00" fill="#000000">app/stub/apple_clang</text>
</g>
<!-- app/stub/apple_clang&#45;&gt;compiler_stub -->
<g id="edge32" class="edge">
<title>app/stub/apple_clang&#45;&gt;compiler_stub</title>
<path fill="none" stroke="#000000" d="M1596.1632,-143.8314C1625.2073,-132.9398 1662.02,-119.135 1691.0943,-108.2322"/>
<polygon fill="#000000" stroke="#000000" points="1692.5009,-111.4428 1700.6352,-104.6543 1690.043,-104.8885 1692.5009,-111.4428"/>
</g>
<!-- app/stub/cl_de -->
<g id="node25" class="node">
<title>app/stub/cl_de</title>
<polygon fill="none" stroke="#000000" points="1730.3649,-180 1633.062,-180 1633.062,-144 1730.3649,-144 1730.3649,-180"/>
<text text-anchor="middle" x="1681.7135" y="-157.8" font-family="Times,serif" font-size="14.00" fill="#000000">app/stub/cl_de</text>
</g>
<!-- app/stub/cl_de&#45;&gt;compiler_stub -->
<g id="edge33" class="edge">
<title>app/stub/cl_de&#45;&gt;compiler_stub</title>
<path fill="none" stroke="#000000" d="M1696.3493,-143.8314C1703.2016,-135.3251 1711.4852,-125.0419 1718.9688,-115.752"/>
<polygon fill="#000000" stroke="#000000" points="1721.7355,-117.8966 1725.2832,-107.9134 1716.2842,-113.5053 1721.7355,-117.8966"/>
</g>
<!-- app/stub/cl_en -->
<g id="node26" class="node">
<title>app/stub/cl_en</title>
<polygon fill="none" stroke="#000000" points="1846.3649,-180 1749.062,-180 1749.062,-144 1846.3649,-144 1846.3649,-180"/>
<text text-anchor="middle" x="1797.7135" y="-157.8" font-family="Times,serif" font-size="14.00" fill="#000000">app/stub/cl_en</text>
</g>
<!-- app/stub/cl_en&#45;&gt;compiler_stub -->
<g id="edge34" class="edge">
<title>app/stub/cl_en&#45;&gt;compiler_stub</title>
<path fill="none" stroke="#000000" d="M1783.0776,-143.8314C1776.2254,-135.3251 1767.9417,-125.0419 1760.4581,-115.752"/>
<polygon fill="#000000" stroke="#000000" points="1763.1427,-113.5053 1754.1437,-107.9134 1757.6914,-117.8966 1763.1427,-113.5053"/>
</g>
<!-- app/stub/clang -->
<g id="node27" class="node">
<title>app/stub/clang</title>
<polygon fill="none" stroke="#000000" points="1962.3649,-180 1865.062,-180 1865.062,-144 1962.3649,-144 1962.3649,-180"/>
<text text-anchor="middle" x="1913.7135" y="-157.8" font-family="Times,serif" font-size="14.00" fill="#000000">app/stub/clang</text>
</g>
<!-- app/stub/clang&#45;&gt;compiler_stub -->
<g id="edge35" class="edge">
<title>app/stub/clang&#45;&gt;compiler_stub</title>
<path fill="none" stroke="#000000" d="M1869.8059,-143.8314C1844.0722,-133.1829 1811.609,-119.7499 1785.5493,-108.9666"/>
<polygon fill="#000000" stroke="#000000" points="1786.8409,-105.7132 1776.2625,-105.1237 1784.1644,-112.1814 1786.8409,-105.7132"/>
</g>
<!-- app/stub/gcc -->
<g id="node28" class="node">
<title>app/stub/gcc</title>
<polygon fill="none" stroke="#000000" points="2066.974,-180 1980.4529,-180 1980.4529,-144 2066.974,-144 2066.974,-180"/>
<text text-anchor="middle" x="2023.7135" y="-157.8" font-family="Times,serif" font-size="14.00" fill="#000000">app/stub/gcc</text>
</g>
<!-- app/stub/gcc&#45;&gt;compiler_stub -->
<g id="edge36" class="edge">
<title>app/stub/gcc&#45;&gt;compiler_stub</title>
<path fill="none" stroke="#000000" d="M1980.4104,-146.631C1977.4777,-145.7074 1974.5589,-144.8212 1971.7135,-144 1915.2629,-127.7084 1850.0134,-112.8676 1803.1184,-102.8852"/>
<polygon fill="#000000" stroke="#000000" points="1803.6106,-99.412 1793.1028,-100.7676 1802.1625,-106.2606 1803.6106,-99.412"/>
</g>
<!-- test/system/auto_engine -->
<g id="node29" class="node">
<title>test/system/auto_engine</title>
<polygon fill="none" stroke="#000000" points="1284.7458,-252 1134.6811,-252 1134.6811,-216 1284.7458,-216 1284.7458,-252"/>
<text text-anchor="middle" x="1209.7135" y="-229.8" font-family="Times,serif" font-size="14.00" fill="#000000">test/system/auto_engine</text>
</g>
<!-- test/system/auto_engine&#45;&gt;process -->
<g id="edge37" class="edge">
<title>test/system/auto_engine&#45;&gt;process</title>
<path fill="none" stroke="#000000" d="M1185.4886,-215.8314C1172.425,-206.0337 1156.2182,-193.8786 1142.5123,-183.5991"/>
<polygon fill="#000000" stroke="#000000" points="1144.4521,-180.679 1134.3521,-177.479 1140.2521,-186.279 1144.4521,-180.679"/>
</g>
<!-- test/system/core -->
<g id="node30" class="node">
<title>test/system/core</title>
<polygon fill="none" stroke="#000000" points="1472.91,-324 1366.5169,-324 1366.5169,-288 1472.91,-288 1472.91,-324"/>
<text text-anchor="middle" x="1419.7135" y="-301.8" font-family="Times,serif" font-size="14.00" fill="#000000">test/system/core</text>
</g>
<!-- test/system/core&#45;&gt;core -->
<g id="edge38" class="edge">
<title>test/system/core&#45;&gt;core</title>
<path fill="none" stroke="#000000" d="M1366.3916,-290.0473C1363.4652,-289.3195 1360.5585,-288.631 1357.7135,-288 1255.8436,-265.4071 1219.3893,-297.9645 1125.7135,-252 1104.8278,-241.7519 1108.8799,-225.6548 1087.7135,-216 995.7228,-174.0396 683.1873,-164.5831 573.8558,-162.5395"/>
<polygon fill="#000000" stroke="#000000" points="573.6855,-159.0361 563.6253,-162.3591 573.562,-166.035 573.6855,-159.0361"/>
</g>
<!-- test/system/core&#45;&gt;system_test -->
<g id="edge39" class="edge">
<title>test/system/core&#45;&gt;system_test</title>
<path fill="none" stroke="#000000" d="M1451.2562,-287.8314C1468.5011,-277.8983 1489.9527,-265.5422 1507.9529,-255.1741"/>
<polygon fill="#000000" stroke="#000000" points="1510.0923,-257.9809 1517.0107,-249.9568 1506.5984,-251.9152 1510.0923,-257.9809"/>
</g>
<!-- test/system/mdb -->
<g id="node31" class="node">
<title>test/system/mdb</title>
<polygon fill="none" stroke="#000000" points="1598.2107,-324 1491.2163,-324 1491.2163,-288 1598.2107,-288 1598.2107,-324"/>
<text text-anchor="middle" x="1544.7135" y="-301.8" font-family="Times,serif" font-size="14.00" fill="#000000">test/system/mdb</text>
</g>
<!-- test/system/mdb&#45;&gt;system_test -->
<g id="edge40" class="edge">
<title>test/system/mdb&#45;&gt;system_test</title>
<path fill="none" stroke="#000000" d="M1544.7135,-287.8314C1544.7135,-280.131 1544.7135,-270.9743 1544.7135,-262.4166"/>
<polygon fill="#000000" stroke="#000000" points="1548.2136,-262.4132 1544.7135,-252.4133 1541.2136,-262.4133 1548.2136,-262.4132"/>
</g>
<!-- test/system/pdb -->
<g id="node32" class="node">
<title>test/system/pdb</title>
<polygon fill="none" stroke="#000000" points="1719.3201,-324 1616.1068,-324 1616.1068,-288 1719.3201,-288 1719.3201,-324"/>
<text text-anchor="middle" x="1667.7135" y="-301.8" font-family="Times,serif" font-size="14.00" fill="#000000">test/system/pdb</text>
</g>
<!-- test/system/pdb&#45;&gt;system_test -->
<g id="edge41" class="edge">
<title>test/system/pdb&#45;&gt;system_test</title>
<path fill="none" stroke="#000000" d="M1636.6754,-287.8314C1619.7064,-277.8983 1598.598,-265.5422 1580.8858,-255.1741"/>
<polygon fill="#000000" stroke="#000000" points="1582.3713,-251.9881 1571.973,-249.9568 1578.835,-258.0292 1582.3713,-251.9881"/>
</g>
<!-- test/system/pp -->
<g id="node33" class="node">
<title>test/system/pp</title>
<polygon fill="none" stroke="#000000" points="1833.8201,-324 1737.6068,-324 1737.6068,-288 1833.8201,-288 1833.8201,-324"/>
<text text-anchor="middle" x="1785.7135" y="-301.8" font-family="Times,serif" font-size="14.00" fill="#000000">test/system/pp</text>
</g>
<!-- test/system/pp&#45;&gt;system_test -->
<g id="edge42" class="edge">
<title>test/system/pp&#45;&gt;system_test</title>
<path fill="none" stroke="#000000" d="M1737.5329,-290.7091C1734.5505,-289.7861 1731.5924,-288.8769 1728.7135,-288 1684.3204,-274.4779 1633.7179,-259.6711 1596.8303,-248.9879"/>
<polygon fill="#000000" stroke="#000000" points="1597.3851,-245.5049 1586.8064,-246.0885 1595.4401,-252.2293 1597.3851,-245.5049"/>
</g>
<!-- test/unit/core -->
<g id="node34" class="node">
<title>test/unit/core</title>
<polygon fill="none" stroke="#000000" points="218.3061,-396 129.1208,-396 129.1208,-360 218.3061,-360 218.3061,-396"/>
<text text-anchor="middle" x="173.7135" y="-373.8" font-family="Times,serif" font-size="14.00" fill="#000000">test/unit/core</text>
</g>
<!-- test/unit/core&#45;&gt;engine/constant -->
<g id="edge43" class="edge">
<title>test/unit/core&#45;&gt;engine/constant</title>
<path fill="none" stroke="#000000" d="M173.2088,-359.8314C172.9949,-352.131 172.7405,-342.9743 172.5028,-334.4166"/>
<polygon fill="#000000" stroke="#000000" points="176.0014,-334.3122 172.2249,-324.4133 169.0041,-334.5066 176.0014,-334.3122"/>
</g>
<!-- test/unit/core&#45;&gt;mock -->
<g id="edge44" class="edge">
<title>test/unit/core&#45;&gt;mock</title>
<path fill="none" stroke="#000000" d="M203.9945,-359.8314C221.8504,-349.1178 244.4042,-335.5855 262.4316,-324.7691"/>
<polygon fill="#000000" stroke="#000000" points="264.6231,-327.5359 271.3973,-319.3897 261.0216,-321.5335 264.6231,-327.5359"/>
</g>
<!-- test/unit/data -->
<g id="node35" class="node">
<title>test/unit/data</title>
<polygon fill="none" stroke="#000000" points="1230.0367,-108 1141.3903,-108 1141.3903,-72 1230.0367,-72 1230.0367,-108"/>
<text text-anchor="middle" x="1185.7135" y="-85.8" font-family="Times,serif" font-size="14.00" fill="#000000">test/unit/data</text>
</g>
<!-- test/unit/data&#45;&gt;data -->
<g id="edge45" class="edge">
<title>test/unit/data&#45;&gt;data</title>
<path fill="none" stroke="#000000" d="M1176.6291,-71.8314C1172.486,-63.5451 1167.4998,-53.5727 1162.9509,-44.4748"/>
<polygon fill="#000000" stroke="#000000" points="1166.025,-42.7967 1158.4223,-35.4177 1159.764,-45.9273 1166.025,-42.7967"/>
</g>
<!-- test/unit/engine/clang -->
<g id="node36" class="node">
<title>test/unit/engine/clang</title>
<polygon fill="none" stroke="#000000" points="1086.7473,-324 950.6797,-324 950.6797,-288 1086.7473,-288 1086.7473,-324"/>
<text text-anchor="middle" x="1018.7135" y="-301.8" font-family="Times,serif" font-size="14.00" fill="#000000">test/unit/engine/clang</text>
</g>
<!-- test/unit/engine/clang&#45;&gt;engine/clang -->
<g id="edge46" class="edge">
<title>test/unit/engine/clang&#45;&gt;engine/clang</title>
<path fill="none" stroke="#000000" d="M1018.7135,-287.8314C1018.7135,-280.131 1018.7135,-270.9743 1018.7135,-262.4166"/>
<polygon fill="#000000" stroke="#000000" points="1022.2136,-262.4132 1018.7135,-252.4133 1015.2136,-262.4133 1022.2136,-262.4132"/>
</g>
<!-- test/unit/engine/templight -->
<g id="node37" class="node">
<title>test/unit/engine/templight</title>
<polygon fill="none" stroke="#000000" points="733.5943,-396 573.8326,-396 573.8326,-360 733.5943,-360 733.5943,-396"/>
<text text-anchor="middle" x="653.7135" y="-373.8" font-family="Times,serif" font-size="14.00" fill="#000000">test/unit/engine/templight</text>
</g>
<!-- test/unit/engine/templight&#45;&gt;engine/templight -->
<g id="edge47" class="edge">
<title>test/unit/engine/templight&#45;&gt;engine/templight</title>
<path fill="none" stroke="#000000" d="M695.3499,-359.8314C718.9486,-349.5338 748.515,-336.632 772.7864,-326.0409"/>
<polygon fill="#000000" stroke="#000000" points="774.3802,-329.1642 782.1458,-321.9568 771.5806,-322.7484 774.3802,-329.1642"/>
</g>
<!-- test/unit/engine/templight&#45;&gt;mock -->
<g id="edge48" class="edge">
<title>test/unit/engine/templight&#45;&gt;mock</title>
<path fill="none" stroke="#000000" d="M573.7931,-369.7436C508.7581,-361.7645 415.0778,-347.3854 335.7135,-324 333.2498,-323.2741 330.7376,-322.4439 328.2285,-321.5474"/>
<polygon fill="#000000" stroke="#000000" points="329.2646,-318.1952 318.6757,-317.8415 326.7329,-324.7214 329.2646,-318.1952"/>
</g>
<!-- test/unit/engine/vc -->
<g id="node38" class="node">
<title>test/unit/engine/vc</title>
<polygon fill="none" stroke="#000000" points="724.642,-324 604.7849,-324 604.7849,-288 724.642,-288 724.642,-324"/>
<text text-anchor="middle" x="664.7135" y="-301.8" font-family="Times,serif" font-size="14.00" fill="#000000">test/unit/engine/vc</text>
</g>
<!-- test/unit/engine/vc&#45;&gt;engine/vc -->
<g id="edge49" class="edge">
<title>test/unit/engine/vc&#45;&gt;engine/vc</title>
<path fill="none" stroke="#000000" d="M697.5179,-287.8314C716.2189,-277.4739 739.6767,-264.4819 758.8617,-253.8563"/>
<polygon fill="#000000" stroke="#000000" points="760.5673,-256.9127 767.6194,-249.0059 757.1757,-250.7892 760.5673,-256.9127"/>
</g>
<!-- test/unit/main_shell -->
<g id="node39" class="node">
<title>test/unit/main_shell</title>
<polygon fill="none" stroke="#000000" points="363.1532,-396 236.2737,-396 236.2737,-360 363.1532,-360 363.1532,-396"/>
<text text-anchor="middle" x="299.7135" y="-373.8" font-family="Times,serif" font-size="14.00" fill="#000000">test/unit/main_shell</text>
</g>
<!-- test/unit/main_shell&#45;&gt;engine/constant -->
<g id="edge50" class="edge">
<title>test/unit/main_shell&#45;&gt;engine/constant</title>
<path fill="none" stroke="#000000" d="M267.4137,-359.8314C249.9273,-349.9953 228.217,-337.7832 209.8972,-327.4783"/>
<polygon fill="#000000" stroke="#000000" points="211.3705,-324.2914 200.9388,-322.4393 207.9387,-330.3925 211.3705,-324.2914"/>
</g>
<!-- test/unit/main_shell&#45;&gt;main_shell -->
<g id="edge51" class="edge">
<title>test/unit/main_shell&#45;&gt;main_shell</title>
<path fill="none" stroke="#000000" d="M324.443,-359.8314C337.4031,-350.3097 353.3936,-338.5615 367.1263,-328.4722"/>
<polygon fill="#000000" stroke="#000000" points="369.3512,-331.1807 375.3378,-322.4393 365.2067,-325.5395 369.3512,-331.1807"/>
</g>
<!-- test/unit/main_shell&#45;&gt;mock -->
<g id="edge52" class="edge">
<title>test/unit/main_shell&#45;&gt;mock</title>
<path fill="none" stroke="#000000" d="M298.1994,-359.8314C297.5577,-352.131 296.7947,-342.9743 296.0815,-334.4166"/>
<polygon fill="#000000" stroke="#000000" points="299.5664,-334.088 295.2479,-324.4133 292.5905,-334.6694 299.5664,-334.088"/>
</g>
<!-- test/unit/mdb -->
<g id="node40" class="node">
<title>test/unit/mdb</title>
<polygon fill="none" stroke="#000000" points="111.6069,-396 21.82,-396 21.82,-360 111.6069,-360 111.6069,-396"/>
<text text-anchor="middle" x="66.7135" y="-373.8" font-family="Times,serif" font-size="14.00" fill="#000000">test/unit/mdb</text>
</g>
<!-- test/unit/mdb&#45;&gt;engine/constant -->
<g id="edge53" class="edge">
<title>test/unit/mdb&#45;&gt;engine/constant</title>
<path fill="none" stroke="#000000" d="M93.2094,-359.8314C107.023,-350.3591 124.05,-338.6835 138.712,-328.6296"/>
<polygon fill="#000000" stroke="#000000" points="140.7613,-331.4682 147.0293,-322.9263 136.8026,-325.6951 140.7613,-331.4682"/>
</g>
<!-- test/unit/mdb&#45;&gt;mdb -->
<g id="edge54" class="edge">
<title>test/unit/mdb&#45;&gt;mdb</title>
<path fill="none" stroke="#000000" d="M66.1683,-359.9103C66.6015,-339.3721 70.6756,-306.3452 90.7135,-288 129.8383,-252.1801 287.9962,-239.6307 362.0777,-235.6591"/>
<polygon fill="#000000" stroke="#000000" points="362.5649,-239.1389 372.3735,-235.1336 362.208,-232.148 362.5649,-239.1389"/>
</g>
<!-- test/unit/pragma -->
<g id="node41" class="node">
<title>test/unit/pragma</title>
<polygon fill="none" stroke="#000000" points="488.1967,-396 381.2303,-396 381.2303,-360 488.1967,-360 488.1967,-396"/>
<text text-anchor="middle" x="434.7135" y="-373.8" font-family="Times,serif" font-size="14.00" fill="#000000">test/unit/pragma</text>
</g>
<!-- test/unit/pragma&#45;&gt;engine/constant -->
<g id="edge55" class="edge">
<title>test/unit/pragma&#45;&gt;engine/constant</title>
<path fill="none" stroke="#000000" d="M381.1122,-362.6279C377.9334,-361.7341 374.7823,-360.8526 371.7135,-360 324.4339,-346.8638 270.7414,-332.3913 230.9012,-321.7381"/>
<polygon fill="#000000" stroke="#000000" points="231.6477,-318.3148 221.0831,-319.1151 229.8409,-325.0776 231.6477,-318.3148"/>
</g>
<!-- test/unit/pragma&#45;&gt;main_shell -->
<g id="edge56" class="edge">
<title>test/unit/pragma&#45;&gt;main_shell</title>
<path fill="none" stroke="#000000" d="M425.3768,-359.8314C421.1821,-351.6688 416.1467,-341.87 411.5282,-332.8827"/>
<polygon fill="#000000" stroke="#000000" points="414.6027,-331.208 406.919,-323.9134 408.3767,-334.4075 414.6027,-331.208"/>
</g>
<!-- test/unit/pragma&#45;&gt;mock -->
<g id="edge57" class="edge">
<title>test/unit/pragma&#45;&gt;mock</title>
<path fill="none" stroke="#000000" d="M399.1332,-359.8314C376.9607,-348.5092 348.6231,-334.039 326.9132,-322.9531"/>
<polygon fill="#000000" stroke="#000000" points="328.2498,-319.7057 317.752,-318.275 325.0663,-325.94 328.2498,-319.7057"/>
</g>
<!-- test/unit/pragma&#45;&gt;pragma -->
<g id="edge58" class="edge">
<title>test/unit/pragma&#45;&gt;pragma</title>
<path fill="none" stroke="#000000" d="M453.3868,-359.8314C462.8037,-350.669 474.3395,-339.445 484.4361,-329.6213"/>
<polygon fill="#000000" stroke="#000000" points="487.091,-331.9214 491.8175,-322.4393 482.2095,-326.9043 487.091,-331.9214"/>
</g>
<!-- test/unit/replace_part -->
<g id="node42" class="node">
<title>test/unit/replace_part</title>
<polygon fill="none" stroke="#000000" points="1030.8918,-468 896.5351,-468 896.5351,-432 1030.8918,-432 1030.8918,-468"/>
<text text-anchor="middle" x="963.7135" y="-445.8" font-family="Times,serif" font-size="14.00" fill="#000000">test/unit/replace_part</text>
</g>
<!-- test/unit/replace_part&#45;&gt;replace_part -->
<g id="edge59" class="edge">
<title>test/unit/replace_part&#45;&gt;replace_part</title>
<path fill="none" stroke="#000000" d="M960.433,-431.8314C959.0427,-424.131 957.3894,-414.9743 955.8442,-406.4166"/>
<polygon fill="#000000" stroke="#000000" points="959.2593,-405.6322 954.0381,-396.4133 952.3707,-406.8761 959.2593,-405.6322"/>
</g>
<!-- test/unit/system_test -->
<g id="node43" class="node">
<title>test/unit/system_test</title>
<polygon fill="none" stroke="#000000" points="1982.0421,-324 1851.3848,-324 1851.3848,-288 1982.0421,-288 1982.0421,-324"/>
<text text-anchor="middle" x="1916.7135" y="-301.8" font-family="Times,serif" font-size="14.00" fill="#000000">test/unit/system_test</text>
</g>
<!-- test/unit/system_test&#45;&gt;system_test -->
<g id="edge60" class="edge">
<title>test/unit/system_test&#45;&gt;system_test</title>
<path fill="none" stroke="#000000" d="M1851.3915,-289.8882C1848.462,-289.2359 1845.559,-288.6033 1842.7135,-288 1760.7848,-270.6286 1665.441,-253.9688 1605.0941,-243.8602"/>
<polygon fill="#000000" stroke="#000000" points="1605.4212,-240.3665 1594.9815,-242.1727 1604.269,-247.271 1605.4212,-240.3665"/>
</g>
</g>
</svg>
