<?xml version="1.0" encoding="UTF-8" standalone="no"?>
<!DOCTYPE svg PUBLIC "-//W3C//DTD SVG 1.1//EN"
 "http://www.w3.org/Graphics/SVG/1.1/DTD/svg11.dtd">
<!-- Generated by graphviz version 2.40.1
 -->
<!-- Title: %3 Pages: 1 -->
<svg width="1991pt" height="476pt"
 viewBox="0.00 0.00 1991.04 476.00" xmlns="http://www.w3.org/2000/svg" xmlns:xlink="http://www.w3.org/1999/xlink">
<g id="graph0" class="graph" transform="scale(1 1) rotate(0) translate(4 472)">
<title>%3</title>
<polygon fill="#ffffff" stroke="transparent" points="-4,4 -4,-472 1987.0426,-472 1987.0426,4 -4,4"/>
<!-- core -->
<g id="node1" class="node">
<title>core</title>
<ellipse fill="#ffffff" stroke="#000000" cx="506.4893" cy="-162" rx="27.8073" ry="18"/>
<text text-anchor="middle" x="506.4893" y="-157.8" font-family="Times,serif" font-size="14.00" fill="#000000">core</text>
</g>
<!-- iface -->
<g id="node11" class="node">
<title>iface</title>
<ellipse fill="#ffffff" stroke="#000000" cx="427.4893" cy="-90" rx="29.5916" ry="18"/>
<text text-anchor="middle" x="427.4893" y="-85.8" font-family="Times,serif" font-size="14.00" fill="#000000">iface</text>
</g>
<!-- core&#45;&gt;iface -->
<g id="edge1" class="edge">
<title>core&#45;&gt;iface</title>
<path fill="none" stroke="#000000" d="M490.1204,-147.0816C478.9673,-136.9167 464.0152,-123.2895 451.5175,-111.8991"/>
<polygon fill="#000000" stroke="#000000" points="453.8575,-109.2963 444.1089,-105.147 449.1423,-114.47 453.8575,-109.2963"/>
</g>
<!-- data -->
<g id="node2" class="node">
<title>data</title>
<ellipse fill="#ffffff" stroke="#000000" cx="664.4893" cy="-18" rx="27.2447" ry="18"/>
<text text-anchor="middle" x="664.4893" y="-13.8" font-family="Times,serif" font-size="14.00" fill="#000000">data</text>
</g>
<!-- defaults -->
<g id="node3" class="node">
<title>defaults</title>
<ellipse fill="#ffffff" stroke="#000000" cx="766.4893" cy="-378" rx="41.7095" ry="18"/>
<text text-anchor="middle" x="766.4893" y="-373.8" font-family="Times,serif" font-size="14.00" fill="#000000">defaults</text>
</g>
<!-- engine/gcc -->
<g id="node6" class="node">
<title>engine/gcc</title>
<ellipse fill="#ffffff" stroke="#000000" cx="1121.4893" cy="-306" rx="52.7295" ry="18"/>
<text text-anchor="middle" x="1121.4893" y="-301.8" font-family="Times,serif" font-size="14.00" fill="#000000">engine/gcc</text>
</g>
<!-- defaults&#45;&gt;engine/gcc -->
<g id="edge2" class="edge">
<title>defaults&#45;&gt;engine/gcc</title>
<path fill="none" stroke="#000000" d="M800.5121,-367.6253C810.1448,-364.9081 820.6788,-362.1428 830.4893,-360 931.1439,-338.0144 958.9277,-346.4075 1059.4893,-324 1063.7901,-323.0417 1068.2321,-321.9532 1072.6704,-320.7972"/>
<polygon fill="#000000" stroke="#000000" points="1073.5874,-324.175 1082.3249,-318.1827 1071.7577,-317.4183 1073.5874,-324.175"/>
</g>
<!-- engine/null -->
<g id="node7" class="node">
<title>engine/null</title>
<ellipse fill="#ffffff" stroke="#000000" cx="707.4893" cy="-234" rx="54.4739" ry="18"/>
<text text-anchor="middle" x="707.4893" y="-229.8" font-family="Times,serif" font-size="14.00" fill="#000000">engine/null</text>
</g>
<!-- defaults&#45;&gt;engine/null -->
<g id="edge3" class="edge">
<title>defaults&#45;&gt;engine/null</title>
<path fill="none" stroke="#000000" d="M759.1362,-360.0535C749.0226,-335.3696 730.7251,-290.7111 718.8454,-261.7167"/>
<polygon fill="#000000" stroke="#000000" points="721.9651,-260.0992 714.935,-252.1727 715.4877,-262.7531 721.9651,-260.0992"/>
</g>
<!-- engine/templight -->
<g id="node8" class="node">
<title>engine/templight</title>
<ellipse fill="#ffffff" stroke="#000000" cx="644.4893" cy="-306" rx="76.4632" ry="18"/>
<text text-anchor="middle" x="644.4893" y="-301.8" font-family="Times,serif" font-size="14.00" fill="#000000">engine/templight</text>
</g>
<!-- defaults&#45;&gt;engine/templight -->
<g id="edge4" class="edge">
<title>defaults&#45;&gt;engine/templight</title>
<path fill="none" stroke="#000000" d="M741.8007,-363.4297C724.5323,-353.2385 701.1597,-339.4448 681.6487,-327.9302"/>
<polygon fill="#000000" stroke="#000000" points="683.3828,-324.8895 672.9918,-322.8212 679.825,-330.918 683.3828,-324.8895"/>
</g>
<!-- engine/vc -->
<g id="node9" class="node">
<title>engine/vc</title>
<ellipse fill="#ffffff" stroke="#000000" cx="1087.4893" cy="-234" rx="48.6559" ry="18"/>
<text text-anchor="middle" x="1087.4893" y="-229.8" font-family="Times,serif" font-size="14.00" fill="#000000">engine/vc</text>
</g>
<!-- defaults&#45;&gt;engine/vc -->
<g id="edge5" class="edge">
<title>defaults&#45;&gt;engine/vc</title>
<path fill="none" stroke="#000000" d="M800.109,-367.3699C809.8302,-364.6172 820.5109,-361.8973 830.4893,-360 907.9527,-345.2709 1130.637,-382.5164 1183.4893,-324 1194.2137,-312.1262 1191.5668,-301.8114 1183.4893,-288 1172.9182,-269.9252 1153.8266,-257.4331 1135.4374,-249.0549"/>
<polygon fill="#000000" stroke="#000000" points="1136.7948,-245.8289 1126.2215,-245.1536 1134.0659,-252.2751 1136.7948,-245.8289"/>
</g>
<!-- engine/wave -->
<g id="node10" class="node">
<title>engine/wave</title>
<ellipse fill="#ffffff" stroke="#000000" cx="990.4893" cy="-306" rx="59.6723" ry="18"/>
<text text-anchor="middle" x="990.4893" y="-301.8" font-family="Times,serif" font-size="14.00" fill="#000000">engine/wave</text>
</g>
<!-- defaults&#45;&gt;engine/wave -->
<g id="edge6" class="edge">
<title>defaults&#45;&gt;engine/wave</title>
<path fill="none" stroke="#000000" d="M800.0243,-367.2209C837.0499,-355.3198 897.0668,-336.0287 939.8306,-322.2831"/>
<polygon fill="#000000" stroke="#000000" points="941.0415,-325.5704 949.4908,-319.1781 938.8994,-318.9061 941.0415,-325.5704"/>
</g>
<!-- pragma -->
<g id="node16" class="node">
<title>pragma</title>
<ellipse fill="#ffffff" stroke="#000000" cx="472.4893" cy="-306" rx="39.9876" ry="18"/>
<text text-anchor="middle" x="472.4893" y="-301.8" font-family="Times,serif" font-size="14.00" fill="#000000">pragma</text>
</g>
<!-- defaults&#45;&gt;pragma -->
<g id="edge7" class="edge">
<title>defaults&#45;&gt;pragma</title>
<path fill="none" stroke="#000000" d="M734.8499,-366.1678C728.484,-363.9759 721.8078,-361.8099 715.4893,-360 679.0629,-349.5656 578.5236,-328.0891 518.7951,-315.5937"/>
<polygon fill="#000000" stroke="#000000" points="519.3633,-312.1369 508.859,-313.5191 517.9326,-318.9891 519.3633,-312.1369"/>
</g>
<!-- engine/clang -->
<g id="node4" class="node">
<title>engine/clang</title>
<ellipse fill="#ffffff" stroke="#000000" cx="884.4893" cy="-234" rx="60.2537" ry="18"/>
<text text-anchor="middle" x="884.4893" y="-229.8" font-family="Times,serif" font-size="14.00" fill="#000000">engine/clang</text>
</g>
<!-- engine/clang&#45;&gt;core -->
<g id="edge8" class="edge">
<title>engine/clang&#45;&gt;core</title>
<path fill="none" stroke="#000000" d="M833.5105,-224.2898C756.231,-209.5699 611.2593,-181.9562 543.3505,-169.0212"/>
<polygon fill="#000000" stroke="#000000" points="543.6136,-165.5085 533.1353,-167.0754 542.3038,-172.3848 543.6136,-165.5085"/>
</g>
<!-- process -->
<g id="node17" class="node">
<title>process</title>
<ellipse fill="#ffffff" stroke="#000000" cx="1005.4893" cy="-162" rx="39.9857" ry="18"/>
<text text-anchor="middle" x="1005.4893" y="-157.8" font-family="Times,serif" font-size="14.00" fill="#000000">process</text>
</g>
<!-- engine/clang&#45;&gt;process -->
<g id="edge9" class="edge">
<title>engine/clang&#45;&gt;process</title>
<path fill="none" stroke="#000000" d="M911.644,-217.8418C929.6894,-207.1041 953.4905,-192.9414 972.6074,-181.5661"/>
<polygon fill="#000000" stroke="#000000" points="974.4923,-184.5173 981.2962,-176.3959 970.9127,-178.5017 974.4923,-184.5173"/>
</g>
<!-- engine/constant -->
<g id="node5" class="node">
<title>engine/constant</title>
<ellipse fill="#ffffff" stroke="#000000" cx="135.4893" cy="-306" rx="71.7892" ry="18"/>
<text text-anchor="middle" x="135.4893" y="-301.8" font-family="Times,serif" font-size="14.00" fill="#000000">engine/constant</text>
</g>
<!-- engine/constant&#45;&gt;core -->
<g id="edge10" class="edge">
<title>engine/constant&#45;&gt;core</title>
<path fill="none" stroke="#000000" d="M173.375,-290.6111C218.1852,-272.4795 295.0847,-241.5834 361.4893,-216 399.5495,-201.3367 443.4698,-185.0712 472.9102,-174.2624"/>
<polygon fill="#000000" stroke="#000000" points="474.1257,-177.5446 482.3098,-170.8161 471.7161,-170.9724 474.1257,-177.5446"/>
</g>
<!-- engine/gcc&#45;&gt;engine/clang -->
<g id="edge11" class="edge">
<title>engine/gcc&#45;&gt;engine/clang</title>
<path fill="none" stroke="#000000" d="M1081.8208,-293.9488C1042.0056,-281.8531 980.4607,-263.1559 936.699,-249.8612"/>
<polygon fill="#000000" stroke="#000000" points="937.6777,-246.5006 927.0921,-246.9426 935.6429,-253.1984 937.6777,-246.5006"/>
</g>
<!-- engine/null&#45;&gt;core -->
<g id="edge12" class="edge">
<title>engine/null&#45;&gt;core</title>
<path fill="none" stroke="#000000" d="M670.1538,-220.6261C633.0026,-207.3182 576.4855,-187.0733 540.5329,-174.1947"/>
<polygon fill="#000000" stroke="#000000" points="541.5655,-170.8469 530.9709,-170.7695 539.2048,-177.4369 541.5655,-170.8469"/>
</g>
<!-- engine/templight&#45;&gt;engine/clang -->
<g id="edge13" class="edge">
<title>engine/templight&#45;&gt;engine/clang</title>
<path fill="none" stroke="#000000" d="M691.9055,-291.7751C732.2492,-279.672 790.1254,-262.3092 831.8859,-249.781"/>
<polygon fill="#000000" stroke="#000000" points="833.029,-253.0923 841.6015,-246.8663 831.0175,-246.3875 833.029,-253.0923"/>
</g>
<!-- engine/vc&#45;&gt;core -->
<g id="edge14" class="edge">
<title>engine/vc&#45;&gt;core</title>
<path fill="none" stroke="#000000" d="M1041.9232,-227.7262C1016.0083,-224.1964 982.9437,-219.7572 953.4893,-216 801.6728,-196.6341 620.6127,-175.3043 543.8429,-166.3423"/>
<polygon fill="#000000" stroke="#000000" points="544.0545,-162.8434 533.7164,-165.1613 543.2436,-169.7962 544.0545,-162.8434"/>
</g>
<!-- engine/vc&#45;&gt;process -->
<g id="edge15" class="edge">
<title>engine/vc&#45;&gt;process</title>
<path fill="none" stroke="#000000" d="M1068.4707,-217.3008C1057.4485,-207.6228 1043.4172,-195.3026 1031.3972,-184.7484"/>
<polygon fill="#000000" stroke="#000000" points="1033.6643,-182.0814 1023.8406,-178.1134 1029.0457,-187.3415 1033.6643,-182.0814"/>
</g>
<!-- engine/wave&#45;&gt;engine/clang -->
<g id="edge16" class="edge">
<title>engine/wave&#45;&gt;engine/clang</title>
<path fill="none" stroke="#000000" d="M966.1707,-289.4817C951.7305,-279.6733 933.2253,-267.1037 917.4811,-256.4096"/>
<polygon fill="#000000" stroke="#000000" points="919.3005,-253.4143 909.0617,-250.6907 915.3673,-259.2049 919.3005,-253.4143"/>
</g>
<!-- iface&#45;&gt;data -->
<g id="edge17" class="edge">
<title>iface&#45;&gt;data</title>
<path fill="none" stroke="#000000" d="M454.2155,-81.8806C497.3886,-68.7648 582.438,-42.927 630.0792,-28.4537"/>
<polygon fill="#000000" stroke="#000000" points="631.0982,-31.8022 639.649,-25.5464 629.0634,-25.1044 631.0982,-31.8022"/>
</g>
<!-- main_shell -->
<g id="node12" class="node">
<title>main_shell</title>
<ellipse fill="#ffffff" stroke="#000000" cx="278.4893" cy="-306" rx="53.3283" ry="18"/>
<text text-anchor="middle" x="278.4893" y="-301.8" font-family="Times,serif" font-size="14.00" fill="#000000">main_shell</text>
</g>
<!-- main_shell&#45;&gt;core -->
<g id="edge18" class="edge">
<title>main_shell&#45;&gt;core</title>
<path fill="none" stroke="#000000" d="M303.7604,-290.0393C346.4975,-263.0475 432.7739,-208.5571 477.7481,-180.1523"/>
<polygon fill="#000000" stroke="#000000" points="479.8416,-182.9697 486.4276,-174.6705 476.1037,-177.0513 479.8416,-182.9697"/>
</g>
<!-- mdb -->
<g id="node13" class="node">
<title>mdb</title>
<ellipse fill="#ffffff" stroke="#000000" cx="472.4893" cy="-234" rx="28.4127" ry="18"/>
<text text-anchor="middle" x="472.4893" y="-229.8" font-family="Times,serif" font-size="14.00" fill="#000000">mdb</text>
</g>
<!-- mdb&#45;&gt;core -->
<g id="edge19" class="edge">
<title>mdb&#45;&gt;core</title>
<path fill="none" stroke="#000000" d="M480.7197,-216.5708C484.6872,-208.1691 489.5322,-197.9091 493.946,-188.5623"/>
<polygon fill="#000000" stroke="#000000" points="497.2294,-189.8057 498.3346,-179.2687 490.8996,-186.8166 497.2294,-189.8057"/>
</g>
<!-- mock -->
<g id="node14" class="node">
<title>mock</title>
<ellipse fill="#ffffff" stroke="#000000" cx="382.4893" cy="-306" rx="32.4846" ry="18"/>
<text text-anchor="middle" x="382.4893" y="-301.8" font-family="Times,serif" font-size="14.00" fill="#000000">mock</text>
</g>
<!-- mock&#45;&gt;iface -->
<g id="edge20" class="edge">
<title>mock&#45;&gt;iface</title>
<path fill="none" stroke="#000000" d="M386.2485,-287.9555C394.0904,-250.3144 412.242,-163.1867 421.63,-118.1246"/>
<polygon fill="#000000" stroke="#000000" points="425.0958,-118.6487 423.709,-108.1451 418.243,-117.221 425.0958,-118.6487"/>
</g>
<!-- pattern -->
<g id="node15" class="node">
<title>pattern</title>
<ellipse fill="#ffffff" stroke="#000000" cx="1615.4893" cy="-162" rx="37.6986" ry="18"/>
<text text-anchor="middle" x="1615.4893" y="-157.8" font-family="Times,serif" font-size="14.00" fill="#000000">pattern</text>
</g>
<!-- pragma&#45;&gt;mdb -->
<g id="edge21" class="edge">
<title>pragma&#45;&gt;mdb</title>
<path fill="none" stroke="#000000" d="M472.4893,-287.8314C472.4893,-280.131 472.4893,-270.9743 472.4893,-262.4166"/>
<polygon fill="#000000" stroke="#000000" points="475.9894,-262.4132 472.4893,-252.4133 468.9894,-262.4133 475.9894,-262.4132"/>
</g>
<!-- process&#45;&gt;data -->
<g id="edge22" class="edge">
<title>process&#45;&gt;data</title>
<path fill="none" stroke="#000000" d="M965.5563,-160.7538C888.4782,-157.5029 723.2763,-146.1539 683.4893,-108 667.0753,-92.2598 663.0433,-66.1816 662.6969,-46.1376"/>
<polygon fill="#000000" stroke="#000000" points="666.198,-46.0511 662.8167,-36.0103 659.1985,-45.9681 666.198,-46.0511"/>
</g>
<!-- readline -->
<g id="node18" class="node">
<title>readline</title>
<ellipse fill="#ffffff" stroke="#000000" cx="163.4893" cy="-162" rx="42.2719" ry="18"/>
<text text-anchor="middle" x="163.4893" y="-157.8" font-family="Times,serif" font-size="14.00" fill="#000000">readline</text>
</g>
<!-- readline&#45;&gt;iface -->
<g id="edge23" class="edge">
<title>readline&#45;&gt;iface</title>
<path fill="none" stroke="#000000" d="M199.0935,-152.2898C248.9972,-138.6796 339.3181,-114.0467 390.1431,-100.1853"/>
<polygon fill="#000000" stroke="#000000" points="391.3325,-103.4889 400.0592,-97.4809 389.4906,-96.7355 391.3325,-103.4889"/>
</g>
<!-- replace_part -->
<g id="node19" class="node">
<title>replace_part</title>
<ellipse fill="#ffffff" stroke="#000000" cx="898.4893" cy="-378" rx="58.5059" ry="18"/>
<text text-anchor="middle" x="898.4893" y="-373.8" font-family="Times,serif" font-size="14.00" fill="#000000">replace_part</text>
</g>
<!-- system_test -->
<g id="node20" class="node">
<title>system_test</title>
<ellipse fill="#ffffff" stroke="#000000" cx="1615.4893" cy="-234" rx="56.1937" ry="18"/>
<text text-anchor="middle" x="1615.4893" y="-229.8" font-family="Times,serif" font-size="14.00" fill="#000000">system_test</text>
</g>
<!-- system_test&#45;&gt;pattern -->
<g id="edge24" class="edge">
<title>system_test&#45;&gt;pattern</title>
<path fill="none" stroke="#000000" d="M1615.4893,-215.8314C1615.4893,-208.131 1615.4893,-198.9743 1615.4893,-190.4166"/>
<polygon fill="#000000" stroke="#000000" points="1618.9894,-190.4132 1615.4893,-180.4133 1611.9894,-190.4133 1618.9894,-190.4132"/>
</g>
<!-- system_test&#45;&gt;process -->
<g id="edge25" class="edge">
<title>system_test&#45;&gt;process</title>
<path fill="none" stroke="#000000" d="M1562.6882,-227.7677C1445.9313,-213.9866 1167.2566,-181.0938 1054.2967,-167.7609"/>
<polygon fill="#000000" stroke="#000000" points="1054.5532,-164.2669 1044.2118,-166.5705 1053.7326,-171.2187 1054.5532,-164.2669"/>
</g>
<!-- app/metashell -->
<g id="node21" class="node">
<title>app/metashell</title>
<polygon fill="none" stroke="#000000" points="334.2456,-468 240.7329,-468 240.7329,-432 334.2456,-432 334.2456,-468"/>
<text text-anchor="middle" x="287.4893" y="-445.8" font-family="Times,serif" font-size="14.00" fill="#000000">app/metashell</text>
</g>
<!-- app/metashell&#45;&gt;defaults -->
<g id="edge26" class="edge">
<title>app/metashell&#45;&gt;defaults</title>
<path fill="none" stroke="#000000" d="M334.3043,-447.3758C413.6474,-442.2015 579.2014,-428.256 715.4893,-396 718.8814,-395.1972 722.3622,-394.2486 725.8347,-393.2135"/>
<polygon fill="#000000" stroke="#000000" points="727.0598,-396.4965 735.5182,-390.1164 724.9273,-389.8292 727.0598,-396.4965"/>
</g>
<!-- app/metashell&#45;&gt;main_shell -->
<g id="edge27" class="edge">
<title>app/metashell&#45;&gt;main_shell</title>
<path fill="none" stroke="#000000" d="M286.3494,-431.7623C284.8143,-407.201 282.0672,-363.2474 280.2614,-334.3541"/>
<polygon fill="#000000" stroke="#000000" points="283.7369,-333.8518 279.6199,-324.0896 276.7506,-334.2885 283.7369,-333.8518"/>
</g>
<!-- app/metashell&#45;&gt;readline -->
<g id="edge28" class="edge">
<title>app/metashell&#45;&gt;readline</title>
<path fill="none" stroke="#000000" d="M240.4533,-447.5908C170.5036,-442.913 44.2927,-429.8902 16.4893,-396 -42.822,-323.7042 73.4004,-225.8472 132.2428,-183.2629"/>
<polygon fill="#000000" stroke="#000000" points="134.3692,-186.0454 140.4804,-177.3907 130.3059,-180.3454 134.3692,-186.0454"/>
</g>
<!-- app/reference_gen -->
<g id="node22" class="node">
<title>app/reference_gen</title>
<polygon fill="none" stroke="#000000" points="826.3644,-468 706.6141,-468 706.6141,-432 826.3644,-432 826.3644,-468"/>
<text text-anchor="middle" x="766.4893" y="-445.8" font-family="Times,serif" font-size="14.00" fill="#000000">app/reference_gen</text>
</g>
<!-- app/reference_gen&#45;&gt;defaults -->
<g id="edge29" class="edge">
<title>app/reference_gen&#45;&gt;defaults</title>
<path fill="none" stroke="#000000" d="M766.4893,-431.8314C766.4893,-424.131 766.4893,-414.9743 766.4893,-406.4166"/>
<polygon fill="#000000" stroke="#000000" points="769.9894,-406.4132 766.4893,-396.4133 762.9894,-406.4133 769.9894,-406.4132"/>
</g>
<!-- app/reference_gen&#45;&gt;replace_part -->
<g id="edge30" class="edge">
<title>app/reference_gen&#45;&gt;replace_part</title>
<path fill="none" stroke="#000000" d="M799.7984,-431.8314C818.3915,-421.6897 841.6154,-409.0221 860.8629,-398.5235"/>
<polygon fill="#000000" stroke="#000000" points="862.5713,-401.5785 869.6742,-393.7173 859.2193,-395.4332 862.5713,-401.5785"/>
</g>
<!-- test/system/core -->
<g id="node23" class="node">
<title>test/system/core</title>
<polygon fill="none" stroke="#000000" points="1736.6858,-324 1630.2927,-324 1630.2927,-288 1736.6858,-288 1736.6858,-324"/>
<text text-anchor="middle" x="1683.4893" y="-301.8" font-family="Times,serif" font-size="14.00" fill="#000000">test/system/core</text>
</g>
<!-- test/system/core&#45;&gt;system_test -->
<g id="edge31" class="edge">
<title>test/system/core&#45;&gt;system_test</title>
<path fill="none" stroke="#000000" d="M1666.33,-287.8314C1658.0098,-279.0218 1647.8896,-268.3063 1638.8757,-258.7621"/>
<polygon fill="#000000" stroke="#000000" points="1641.3501,-256.2847 1631.9393,-251.4177 1636.261,-261.0911 1641.3501,-256.2847"/>
</g>
<!-- test/system/mdb -->
<g id="node24" class="node">
<title>test/system/mdb</title>
<polygon fill="none" stroke="#000000" points="1861.9865,-324 1754.9921,-324 1754.9921,-288 1861.9865,-288 1861.9865,-324"/>
<text text-anchor="middle" x="1808.4893" y="-301.8" font-family="Times,serif" font-size="14.00" fill="#000000">test/system/mdb</text>
</g>
<!-- test/system/mdb&#45;&gt;system_test -->
<g id="edge32" class="edge">
<title>test/system/mdb&#45;&gt;system_test</title>
<path fill="none" stroke="#000000" d="M1759.7872,-287.8314C1729.7892,-276.6404 1691.5468,-262.3738 1661.9692,-251.3397"/>
<polygon fill="#000000" stroke="#000000" points="1662.8878,-247.9468 1652.2952,-247.7307 1660.4411,-254.5053 1662.8878,-247.9468"/>
</g>
<!-- test/system/pdb -->
<g id="node25" class="node">
<title>test/system/pdb</title>
<polygon fill="none" stroke="#000000" points="1983.0959,-324 1879.8826,-324 1879.8826,-288 1983.0959,-288 1983.0959,-324"/>
<text text-anchor="middle" x="1931.4893" y="-301.8" font-family="Times,serif" font-size="14.00" fill="#000000">test/system/pdb</text>
</g>
<!-- test/system/pdb&#45;&gt;system_test -->
<g id="edge33" class="edge">
<title>test/system/pdb&#45;&gt;system_test</title>
<path fill="none" stroke="#000000" d="M1879.6512,-290.4035C1876.5578,-289.5661 1873.4865,-288.7583 1870.4893,-288 1803.6557,-271.0904 1726.062,-255.1831 1674.1828,-245.0734"/>
<polygon fill="#000000" stroke="#000000" points="1674.644,-241.5977 1664.1606,-243.1302 1673.3115,-248.4697 1674.644,-241.5977"/>
</g>
<!-- test/system/pp -->
<g id="node26" class="node">
<title>test/system/pp</title>
<polygon fill="none" stroke="#000000" points="1464.5959,-324 1368.3826,-324 1368.3826,-288 1464.5959,-288 1464.5959,-324"/>
<text text-anchor="middle" x="1416.4893" y="-301.8" font-family="Times,serif" font-size="14.00" fill="#000000">test/system/pp</text>
</g>
<!-- test/system/pp&#45;&gt;system_test -->
<g id="edge34" class="edge">
<title>test/system/pp&#45;&gt;system_test</title>
<path fill="none" stroke="#000000" d="M1464.6616,-288.5708C1496.1116,-277.1919 1536.9828,-262.4043 1568.245,-251.0934"/>
<polygon fill="#000000" stroke="#000000" points="1569.8207,-254.2454 1578.0333,-247.5519 1567.4391,-247.663 1569.8207,-254.2454"/>
</g>
<!-- test/unit/core -->
<g id="node27" class="node">
<title>test/unit/core</title>
<polygon fill="none" stroke="#000000" points="529.0819,-396 439.8966,-396 439.8966,-360 529.0819,-360 529.0819,-396"/>
<text text-anchor="middle" x="484.4893" y="-373.8" font-family="Times,serif" font-size="14.00" fill="#000000">test/unit/core</text>
</g>
<!-- test/unit/core&#45;&gt;core -->
<g id="edge35" class="edge">
<title>test/unit/core&#45;&gt;core</title>
<path fill="none" stroke="#000000" d="M500.9174,-359.989C508.7918,-350.1289 517.3872,-337.2441 521.4893,-324 535.5902,-278.4731 524.5855,-222.5807 515.4448,-189.7669"/>
<polygon fill="#000000" stroke="#000000" points="518.7446,-188.5808 512.5767,-179.9663 512.0263,-190.5469 518.7446,-188.5808"/>
</g>
<!-- test/unit/core&#45;&gt;mock -->
<g id="edge36" class="edge">
<title>test/unit/core&#45;&gt;mock</title>
<path fill="none" stroke="#000000" d="M458.7504,-359.8314C444.246,-349.593 426.0948,-336.7804 411.1397,-326.2239"/>
<polygon fill="#000000" stroke="#000000" points="412.9436,-323.2131 402.7555,-320.3056 408.9068,-328.9318 412.9436,-323.2131"/>
</g>
<!-- test/unit/data -->
<g id="node28" class="node">
<title>test/unit/data</title>
<polygon fill="none" stroke="#000000" points="780.8125,-108 692.1661,-108 692.1661,-72 780.8125,-72 780.8125,-108"/>
<text text-anchor="middle" x="736.4893" y="-85.8" font-family="Times,serif" font-size="14.00" fill="#000000">test/unit/data</text>
</g>
<!-- test/unit/data&#45;&gt;data -->
<g id="edge37" class="edge">
<title>test/unit/data&#45;&gt;data</title>
<path fill="none" stroke="#000000" d="M718.3206,-71.8314C708.7599,-62.2706 696.9543,-50.4651 686.8374,-40.3481"/>
<polygon fill="#000000" stroke="#000000" points="689.0412,-37.6021 679.4952,-33.0059 684.0914,-42.5519 689.0412,-37.6021"/>
</g>
<!-- test/unit/engine/clang -->
<g id="node29" class="node">
<title>test/unit/engine/clang</title>
<polygon fill="none" stroke="#000000" points="912.5231,-324 776.4555,-324 776.4555,-288 912.5231,-288 912.5231,-324"/>
<text text-anchor="middle" x="844.4893" y="-301.8" font-family="Times,serif" font-size="14.00" fill="#000000">test/unit/engine/clang</text>
</g>
<!-- test/unit/engine/clang&#45;&gt;engine/clang -->
<g id="edge38" class="edge">
<title>test/unit/engine/clang&#45;&gt;engine/clang</title>
<path fill="none" stroke="#000000" d="M854.5829,-287.8314C859.1177,-279.6688 864.5615,-269.87 869.5544,-260.8827"/>
<polygon fill="#000000" stroke="#000000" points="872.7404,-262.3548 874.5374,-251.9134 866.6213,-258.9552 872.7404,-262.3548"/>
</g>
<!-- test/unit/engine/templight -->
<g id="node30" class="node">
<title>test/unit/engine/templight</title>
<polygon fill="none" stroke="#000000" points="706.3701,-396 546.6084,-396 546.6084,-360 706.3701,-360 706.3701,-396"/>
<text text-anchor="middle" x="626.4893" y="-373.8" font-family="Times,serif" font-size="14.00" fill="#000000">test/unit/engine/templight</text>
</g>
<!-- test/unit/engine/templight&#45;&gt;engine/templight -->
<g id="edge39" class="edge">
<title>test/unit/engine/templight&#45;&gt;engine/templight</title>
<path fill="none" stroke="#000000" d="M631.0314,-359.8314C632.9777,-352.0463 635.296,-342.7729 637.4556,-334.1347"/>
<polygon fill="#000000" stroke="#000000" points="640.856,-334.9636 639.8859,-324.4133 634.065,-333.2658 640.856,-334.9636"/>
</g>
<!-- test/unit/engine/templight&#45;&gt;mock -->
<g id="edge40" class="edge">
<title>test/unit/engine/templight&#45;&gt;mock</title>
<path fill="none" stroke="#000000" d="M547.0678,-359.8799C509.2308,-350.4866 463.5877,-338.0419 423.4893,-324 421.2607,-323.2196 418.9837,-322.3709 416.7012,-321.4813"/>
<polygon fill="#000000" stroke="#000000" points="417.9771,-318.2216 407.397,-317.6625 415.3191,-324.6974 417.9771,-318.2216"/>
</g>
<!-- test/unit/engine/vc -->
<g id="node31" class="node">
<title>test/unit/engine/vc</title>
<polygon fill="none" stroke="#000000" points="1350.4178,-324 1230.5607,-324 1230.5607,-288 1350.4178,-288 1350.4178,-324"/>
<text text-anchor="middle" x="1290.4893" y="-301.8" font-family="Times,serif" font-size="14.00" fill="#000000">test/unit/engine/vc</text>
</g>
<!-- test/unit/engine/vc&#45;&gt;engine/vc -->
<g id="edge41" class="edge">
<title>test/unit/engine/vc&#45;&gt;engine/vc</title>
<path fill="none" stroke="#000000" d="M1239.5258,-287.9243C1206.5307,-276.2216 1163.9699,-261.1262 1132.2751,-249.8846"/>
<polygon fill="#000000" stroke="#000000" points="1133.4049,-246.5718 1122.8102,-246.5276 1131.065,-253.1691 1133.4049,-246.5718"/>
</g>
<!-- test/unit/main_shell -->
<g id="node32" class="node">
<title>test/unit/main_shell</title>
<polygon fill="none" stroke="#000000" points="259.929,-396 133.0495,-396 133.0495,-360 259.929,-360 259.929,-396"/>
<text text-anchor="middle" x="196.4893" y="-373.8" font-family="Times,serif" font-size="14.00" fill="#000000">test/unit/main_shell</text>
</g>
<!-- test/unit/main_shell&#45;&gt;engine/constant -->
<g id="edge42" class="edge">
<title>test/unit/main_shell&#45;&gt;engine/constant</title>
<path fill="none" stroke="#000000" d="M181.0964,-359.8314C173.8897,-351.3251 165.1776,-341.0419 157.3069,-331.752"/>
<polygon fill="#000000" stroke="#000000" points="159.8006,-329.2808 150.6659,-323.9134 154.4597,-333.8057 159.8006,-329.2808"/>
</g>
<!-- test/unit/main_shell&#45;&gt;main_shell -->
<g id="edge43" class="edge">
<title>test/unit/main_shell&#45;&gt;main_shell</title>
<path fill="none" stroke="#000000" d="M217.1813,-359.8314C227.5658,-350.7132 240.2757,-339.5534 251.425,-329.7637"/>
<polygon fill="#000000" stroke="#000000" points="254.007,-332.1544 259.2121,-322.9263 249.3884,-326.8943 254.007,-332.1544"/>
</g>
<!-- test/unit/main_shell&#45;&gt;mock -->
<g id="edge44" class="edge">
<title>test/unit/main_shell&#45;&gt;mock</title>
<path fill="none" stroke="#000000" d="M246.357,-359.9429C274.1791,-349.7076 309.3939,-336.486 340.4893,-324 342.7254,-323.1021 345.0222,-322.1639 347.3337,-321.2075"/>
<polygon fill="#000000" stroke="#000000" points="348.9375,-324.3302 356.802,-317.2309 346.2268,-317.8763 348.9375,-324.3302"/>
</g>
<!-- test/unit/mdb -->
<g id="node33" class="node">
<title>test/unit/mdb</title>
<polygon fill="none" stroke="#000000" points="115.3827,-396 25.5958,-396 25.5958,-360 115.3827,-360 115.3827,-396"/>
<text text-anchor="middle" x="70.4893" y="-373.8" font-family="Times,serif" font-size="14.00" fill="#000000">test/unit/mdb</text>
</g>
<!-- test/unit/mdb&#45;&gt;engine/constant -->
<g id="edge45" class="edge">
<title>test/unit/mdb&#45;&gt;engine/constant</title>
<path fill="none" stroke="#000000" d="M86.8915,-359.8314C94.6483,-351.2392 104.0419,-340.834 112.4948,-331.4708"/>
<polygon fill="#000000" stroke="#000000" points="115.2143,-333.6815 119.3174,-323.9134 110.0184,-328.9907 115.2143,-333.6815"/>
</g>
<!-- test/unit/mdb&#45;&gt;mdb -->
<g id="edge46" class="edge">
<title>test/unit/mdb&#45;&gt;mdb</title>
<path fill="none" stroke="#000000" d="M59.4976,-359.7866C48.9867,-339.7541 37.0953,-307.7855 54.4893,-288 79.3987,-259.6656 335.4567,-241.9378 434.0673,-236.1163"/>
<polygon fill="#000000" stroke="#000000" points="434.4206,-239.6017 444.2006,-235.5274 434.0144,-232.6135 434.4206,-239.6017"/>
</g>
<!-- test/unit/pragma -->
<g id="node34" class="node">
<title>test/unit/pragma</title>
<polygon fill="none" stroke="#000000" points="421.9725,-396 315.0061,-396 315.0061,-360 421.9725,-360 421.9725,-396"/>
<text text-anchor="middle" x="368.4893" y="-373.8" font-family="Times,serif" font-size="14.00" fill="#000000">test/unit/pragma</text>
</g>
<!-- test/unit/pragma&#45;&gt;engine/constant -->
<g id="edge47" class="edge">
<title>test/unit/pragma&#45;&gt;engine/constant</title>
<path fill="none" stroke="#000000" d="M314.7418,-361.3913C277.4838,-349.8781 228.0204,-334.5933 190.4922,-322.9966"/>
<polygon fill="#000000" stroke="#000000" points="191.3222,-319.5899 180.7346,-319.9814 189.2555,-326.2778 191.3222,-319.5899"/>
</g>
<!-- test/unit/pragma&#45;&gt;main_shell -->
<g id="edge48" class="edge">
<title>test/unit/pragma&#45;&gt;main_shell</title>
<path fill="none" stroke="#000000" d="M345.7785,-359.8314C334.0741,-350.4678 319.6783,-338.9512 307.2097,-328.9764"/>
<polygon fill="#000000" stroke="#000000" points="309.3372,-326.1962 299.342,-322.6822 304.9643,-331.6623 309.3372,-326.1962"/>
</g>
<!-- test/unit/pragma&#45;&gt;mock -->
<g id="edge49" class="edge">
<title>test/unit/pragma&#45;&gt;mock</title>
<path fill="none" stroke="#000000" d="M372.0221,-359.8314C373.5591,-351.9266 375.3945,-342.4872 377.0961,-333.7365"/>
<polygon fill="#000000" stroke="#000000" points="380.533,-334.3976 379.0061,-323.9134 373.6617,-333.0615 380.533,-334.3976"/>
</g>
<!-- test/unit/pragma&#45;&gt;pragma -->
<g id="edge50" class="edge">
<title>test/unit/pragma&#45;&gt;pragma</title>
<path fill="none" stroke="#000000" d="M394.7329,-359.8314C409.1192,-349.8716 427.0243,-337.4758 442.0251,-327.0905"/>
<polygon fill="#000000" stroke="#000000" points="444.2436,-329.8117 450.4733,-321.2418 440.2591,-324.0563 444.2436,-329.8117"/>
</g>
<!-- test/unit/replace_part -->
<g id="node35" class="node">
<title>test/unit/replace_part</title>
<polygon fill="none" stroke="#000000" points="978.6676,-468 844.3109,-468 844.3109,-432 978.6676,-432 978.6676,-468"/>
<text text-anchor="middle" x="911.4893" y="-445.8" font-family="Times,serif" font-size="14.00" fill="#000000">test/unit/replace_part</text>
</g>
<!-- test/unit/replace_part&#45;&gt;replace_part -->
<g id="edge51" class="edge">
<title>test/unit/replace_part&#45;&gt;replace_part</title>
<path fill="none" stroke="#000000" d="M908.2088,-431.8314C906.8185,-424.131 905.1652,-414.9743 903.62,-406.4166"/>
<polygon fill="#000000" stroke="#000000" points="907.0351,-405.6322 901.8139,-396.4133 900.1465,-406.8761 907.0351,-405.6322"/>
</g>
<!-- test/unit/system_test -->
<g id="node36" class="node">
<title>test/unit/system_test</title>
<polygon fill="none" stroke="#000000" points="1612.8179,-324 1482.1606,-324 1482.1606,-288 1612.8179,-288 1612.8179,-324"/>
<text text-anchor="middle" x="1547.4893" y="-301.8" font-family="Times,serif" font-size="14.00" fill="#000000">test/unit/system_test</text>
</g>
<!-- test/unit/system_test&#45;&gt;system_test -->
<g id="edge52" class="edge">
<title>test/unit/system_test&#45;&gt;system_test</title>
<path fill="none" stroke="#000000" d="M1564.6485,-287.8314C1572.9687,-279.0218 1583.0889,-268.3063 1592.1029,-258.7621"/>
<polygon fill="#000000" stroke="#000000" points="1594.7175,-261.0911 1599.0392,-251.4177 1589.6284,-256.2847 1594.7175,-261.0911"/>
</g>
</g>
</svg>
