<?xml version="1.0" encoding="UTF-8" standalone="no"?>
<!DOCTYPE svg PUBLIC "-//W3C//DTD SVG 1.1//EN"
 "http://www.w3.org/Graphics/SVG/1.1/DTD/svg11.dtd">
<!-- Generated by graphviz version 2.40.1
 -->
<!-- Title: %3 Pages: 1 -->
<svg width="1069pt" height="476pt"
 viewBox="0.00 0.00 1069.05 476.00" xmlns="http://www.w3.org/2000/svg" xmlns:xlink="http://www.w3.org/1999/xlink">
<g id="graph0" class="graph" transform="scale(1 1) rotate(0) translate(4 472)">
<title>%3</title>
<polygon fill="#ffffff" stroke="transparent" points="-4,4 -4,-472 1065.0533,-472 1065.0533,4 -4,4"/>
<!-- boost -->
<g id="node1" class="node">
<title>boost</title>
<ellipse fill="#ffffff" stroke="#000000" cx="478" cy="-18" rx="31.9224" ry="18"/>
<text text-anchor="middle" x="478" y="-13.8" font-family="Times,serif" font-size="14.00" fill="#000000">boost</text>
</g>
<!-- core -->
<g id="node2" class="node">
<title>core</title>
<ellipse fill="#ffffff" stroke="#000000" cx="458" cy="-306" rx="27.8073" ry="18"/>
<text text-anchor="middle" x="458" y="-301.8" font-family="Times,serif" font-size="14.00" fill="#000000">core</text>
</g>
<!-- core&#45;&gt;boost -->
<g id="edge1" class="edge">
<title>core&#45;&gt;boost</title>
<path fill="none" stroke="#000000" d="M459.2511,-287.9843C462.6324,-239.2939 471.9725,-104.7961 476.0516,-46.0573"/>
<polygon fill="#000000" stroke="#000000" points="479.5481,-46.2274 476.7494,-36.0089 472.5649,-45.7424 479.5481,-46.2274"/>
</g>
<!-- data -->
<g id="node3" class="node">
<title>data</title>
<ellipse fill="#ff0000" stroke="#000000" cx="421" cy="-162" rx="27.2447" ry="18"/>
<text text-anchor="middle" x="421" y="-157.8" font-family="Times,serif" font-size="14.00" fill="#000000">data</text>
</g>
<!-- core&#45;&gt;data -->
<g id="edge2" class="edge">
<title>core&#45;&gt;data</title>
<path fill="none" stroke="#000000" d="M453.3887,-288.0535C447.074,-263.4774 435.6717,-219.1008 428.2195,-190.0974"/>
<polygon fill="#000000" stroke="#000000" points="431.5479,-188.9871 425.6694,-180.1727 424.7682,-190.7291 431.5479,-188.9871"/>
</g>
<!-- iface -->
<g id="node4" class="node">
<title>iface</title>
<ellipse fill="#ff0000" stroke="#000000" cx="364" cy="-90" rx="29.5916" ry="18"/>
<text text-anchor="middle" x="364" y="-85.8" font-family="Times,serif" font-size="14.00" fill="#000000">iface</text>
</g>
<!-- core&#45;&gt;iface -->
<g id="edge3" class="edge">
<title>core&#45;&gt;iface</title>
<path fill="none" stroke="#000000" d="M446.1434,-289.294C430.0685,-265.9098 401.4801,-221.6023 385,-180 377.0472,-159.9239 371.6522,-136.0819 368.3237,-117.9825"/>
<polygon fill="#000000" stroke="#000000" points="371.7601,-117.3141 366.599,-108.0613 364.8635,-118.5131 371.7601,-117.3141"/>
</g>
<!-- process -->
<g id="node6" class="node">
<title>process</title>
<ellipse fill="#ffffff" stroke="#000000" cx="584" cy="-234" rx="39.9857" ry="18"/>
<text text-anchor="middle" x="584" y="-229.8" font-family="Times,serif" font-size="14.00" fill="#000000">process</text>
</g>
<!-- core&#45;&gt;process -->
<g id="edge4" class="edge">
<title>core&#45;&gt;process</title>
<path fill="none" stroke="#000000" d="M478.8063,-294.1107C498.0964,-283.0878 527.154,-266.4834 549.8449,-253.5172"/>
<polygon fill="#000000" stroke="#000000" points="551.8731,-256.3894 558.819,-248.3891 548.4001,-250.3117 551.8731,-256.3894"/>
</g>
<!-- data&#45;&gt;boost -->
<g id="edge5" class="edge">
<title>data&#45;&gt;boost</title>
<path fill="none" stroke="#000000" d="M427.9893,-144.3428C437.7753,-119.6202 455.6509,-74.4608 467.1685,-45.3639"/>
<polygon fill="#000000" stroke="#000000" points="470.5273,-46.3879 470.9535,-35.8017 464.0186,-43.8115 470.5273,-46.3879"/>
</g>
<!-- data&#45;&gt;iface -->
<g id="edge6" class="edge">
<title>data&#45;&gt;iface</title>
<path fill="none" stroke="#ff0000" d="M404.2349,-147.7751C395.8141,-138.6559 385.898,-126.5507 377.905,-115.7773"/>
<polygon fill="#ff0000" stroke="#ff0000" points="380.6445,-113.5916 371.9723,-107.5053 374.9562,-117.6713 380.6445,-113.5916"/>
</g>
<!-- iface&#45;&gt;boost -->
<g id="edge7" class="edge">
<title>iface&#45;&gt;boost</title>
<path fill="none" stroke="#000000" d="M384.6445,-76.9613C402.2273,-65.8564 427.7313,-49.7487 447.6406,-37.1744"/>
<polygon fill="#000000" stroke="#000000" points="449.7599,-39.9755 456.3458,-31.6763 446.0219,-34.0571 449.7599,-39.9755"/>
</g>
<!-- iface&#45;&gt;data -->
<g id="edge8" class="edge">
<title>iface&#45;&gt;data</title>
<path fill="none" stroke="#ff0000" d="M381.3281,-104.8366C389.6824,-113.9432 399.4125,-125.8513 407.2563,-136.4403"/>
<polygon fill="#ff0000" stroke="#ff0000" points="404.4116,-138.4793 413.0801,-144.5708 410.1023,-134.403 404.4116,-138.4793"/>
</g>
<!-- pattern -->
<g id="node5" class="node">
<title>pattern</title>
<ellipse fill="#ffffff" stroke="#000000" cx="812" cy="-306" rx="37.6986" ry="18"/>
<text text-anchor="middle" x="812" y="-301.8" font-family="Times,serif" font-size="14.00" fill="#000000">pattern</text>
</g>
<!-- process&#45;&gt;boost -->
<g id="edge9" class="edge">
<title>process&#45;&gt;boost</title>
<path fill="none" stroke="#000000" d="M575.3256,-216.3238C556.7613,-178.4948 513.0883,-89.5007 491.1138,-44.7225"/>
<polygon fill="#000000" stroke="#000000" points="494.1932,-43.0528 486.6456,-35.6175 487.9091,-46.1367 494.1932,-43.0528"/>
</g>
<!-- process&#45;&gt;data -->
<g id="edge10" class="edge">
<title>process&#45;&gt;data</title>
<path fill="none" stroke="#000000" d="M555.2341,-221.2936C526.659,-208.6714 482.9269,-189.3542 453.205,-176.2255"/>
<polygon fill="#000000" stroke="#000000" points="454.2662,-172.8681 443.7046,-172.029 451.4378,-179.2712 454.2662,-172.8681"/>
</g>
<!-- readline -->
<g id="node7" class="node">
<title>readline</title>
<ellipse fill="#ffffff" stroke="#000000" cx="388" cy="-378" rx="42.2719" ry="18"/>
<text text-anchor="middle" x="388" y="-373.8" font-family="Times,serif" font-size="14.00" fill="#000000">readline</text>
</g>
<!-- readline&#45;&gt;core -->
<g id="edge11" class="edge">
<title>readline&#45;&gt;core</title>
<path fill="none" stroke="#000000" d="M404.2354,-361.3008C413.5953,-351.6734 425.4972,-339.4314 435.7223,-328.9142"/>
<polygon fill="#000000" stroke="#000000" points="438.3497,-331.2327 442.811,-321.6229 433.3307,-326.3531 438.3497,-331.2327"/>
</g>
<!-- readline&#45;&gt;iface -->
<g id="edge12" class="edge">
<title>readline&#45;&gt;iface</title>
<path fill="none" stroke="#000000" d="M386.4046,-359.9859C383.3349,-325.2027 376.4299,-246.3661 371,-180 369.3173,-159.4329 367.5137,-136.2134 366.1588,-118.5111"/>
<polygon fill="#000000" stroke="#000000" points="369.6285,-117.9798 365.3782,-108.2749 362.6488,-118.5122 369.6285,-117.9798"/>
</g>
<!-- replace_part -->
<g id="node8" class="node">
<title>replace_part</title>
<ellipse fill="#ffffff" stroke="#000000" cx="163" cy="-306" rx="58.5059" ry="18"/>
<text text-anchor="middle" x="163" y="-301.8" font-family="Times,serif" font-size="14.00" fill="#000000">replace_part</text>
</g>
<!-- replace_part&#45;&gt;boost -->
<g id="edge13" class="edge">
<title>replace_part&#45;&gt;boost</title>
<path fill="none" stroke="#000000" d="M159.4586,-287.8033C152.0963,-244.0612 140.2896,-132.1894 198,-72 230.1826,-38.4349 365.9085,-25.0528 435.8847,-20.3068"/>
<polygon fill="#000000" stroke="#000000" points="436.3664,-23.783 446.1186,-19.6426 435.9129,-16.7977 436.3664,-23.783"/>
</g>
<!-- system_test -->
<g id="node9" class="node">
<title>system_test</title>
<ellipse fill="#ffffff" stroke="#000000" cx="774" cy="-378" rx="56.1937" ry="18"/>
<text text-anchor="middle" x="774" y="-373.8" font-family="Times,serif" font-size="14.00" fill="#000000">system_test</text>
</g>
<!-- system_test&#45;&gt;boost -->
<g id="edge14" class="edge">
<title>system_test&#45;&gt;boost</title>
<path fill="none" stroke="#000000" d="M766.1533,-359.746C755.2922,-332.7781 737,-280.4617 737,-234 737,-234 737,-234 737,-162 737,-119.3959 735.8341,-100.3143 704,-72 677.0422,-48.0229 577.4262,-31.1896 519.8448,-23.2225"/>
<polygon fill="#000000" stroke="#000000" points="519.9882,-19.7101 509.6093,-21.8383 519.05,-26.647 519.9882,-19.7101"/>
</g>
<!-- system_test&#45;&gt;core -->
<g id="edge15" class="edge">
<title>system_test&#45;&gt;core</title>
<path fill="none" stroke="#000000" d="M728.0509,-367.5306C664.7507,-353.1078 552.0144,-327.421 494.2745,-314.2651"/>
<polygon fill="#000000" stroke="#000000" points="495.0192,-310.8451 484.4915,-312.036 493.4641,-317.6702 495.0192,-310.8451"/>
</g>
<!-- system_test&#45;&gt;pattern -->
<g id="edge16" class="edge">
<title>system_test&#45;&gt;pattern</title>
<path fill="none" stroke="#000000" d="M783.3933,-360.2022C787.7649,-351.9192 793.0573,-341.8915 797.8953,-332.7248"/>
<polygon fill="#000000" stroke="#000000" points="801.1425,-334.0706 802.7148,-323.593 794.9518,-330.8032 801.1425,-334.0706"/>
</g>
<!-- system_test&#45;&gt;process -->
<g id="edge17" class="edge">
<title>system_test&#45;&gt;process</title>
<path fill="none" stroke="#000000" d="M751.8327,-361.1995C717.3409,-335.0584 650.837,-284.6554 612.7169,-255.7644"/>
<polygon fill="#000000" stroke="#000000" points="614.6648,-252.8491 604.581,-249.5982 610.4366,-258.4279 614.6648,-252.8491"/>
</g>
<!-- app/metashell -->
<g id="node10" class="node">
<title>app/metashell</title>
<polygon fill="none" stroke="#000000" points="434.7563,-468 341.2437,-468 341.2437,-432 434.7563,-432 434.7563,-468"/>
<text text-anchor="middle" x="388" y="-445.8" font-family="Times,serif" font-size="14.00" fill="#000000">app/metashell</text>
</g>
<!-- app/metashell&#45;&gt;boost -->
<g id="edge18" class="edge">
<title>app/metashell&#45;&gt;boost</title>
<path fill="none" stroke="#000000" d="M341.1053,-447.258C260.5302,-441.7655 100.0196,-427.1695 54,-396 15.3776,-369.8407 0,-352.6476 0,-306 0,-306 0,-306 0,-162 0,-103.1904 43.9024,-97.2826 97,-72 156.3507,-43.74 349.5972,-27.0178 435.811,-20.7945"/>
<polygon fill="#000000" stroke="#000000" points="436.2952,-24.269 446.0226,-20.0705 435.8001,-17.2865 436.2952,-24.269"/>
</g>
<!-- app/metashell&#45;&gt;core -->
<g id="edge19" class="edge">
<title>app/metashell&#45;&gt;core</title>
<path fill="none" stroke="#000000" d="M410.0682,-431.8366C420.3599,-422.218 431.8806,-409.5939 439,-396 449.0333,-376.8423 453.7684,-352.7682 456.003,-334.3402"/>
<polygon fill="#000000" stroke="#000000" points="459.502,-334.5297 457.0509,-324.2223 452.5392,-333.8085 459.502,-334.5297"/>
</g>
<!-- app/metashell&#45;&gt;data -->
<g id="edge20" class="edge">
<title>app/metashell&#45;&gt;data</title>
<path fill="none" stroke="#000000" d="M417.8381,-431.8661C431.613,-422.4282 447.437,-409.95 459,-396 481.8316,-368.4551 486.7801,-358.82 495,-324 507.3904,-271.5133 468.5485,-215.3489 442.5326,-184.8812"/>
<polygon fill="#000000" stroke="#000000" points="445.1425,-182.549 435.9111,-177.3498 439.8854,-187.171 445.1425,-182.549"/>
</g>
<!-- app/metashell&#45;&gt;iface -->
<g id="edge21" class="edge">
<title>app/metashell&#45;&gt;iface</title>
<path fill="none" stroke="#000000" d="M341.0629,-445.06C271.6079,-437.0743 145.5146,-419.7879 107,-396 64.1171,-369.5141 38,-356.4028 38,-306 38,-306 38,-306 38,-234 38,-171.6456 240.084,-118.2142 326.0381,-98.3079"/>
<polygon fill="#000000" stroke="#000000" points="326.9548,-101.6887 335.9233,-96.0481 325.3947,-94.8648 326.9548,-101.6887"/>
</g>
<!-- app/metashell&#45;&gt;readline -->
<g id="edge22" class="edge">
<title>app/metashell&#45;&gt;readline</title>
<path fill="none" stroke="#000000" d="M388,-431.8314C388,-424.131 388,-414.9743 388,-406.4166"/>
<polygon fill="#000000" stroke="#000000" points="391.5001,-406.4132 388,-396.4133 384.5001,-406.4133 391.5001,-406.4132"/>
</g>
<!-- app/reference_gen -->
<g id="node11" class="node">
<title>app/reference_gen</title>
<polygon fill="none" stroke="#000000" points="235.8752,-396 116.1248,-396 116.1248,-360 235.8752,-360 235.8752,-396"/>
<text text-anchor="middle" x="176" y="-373.8" font-family="Times,serif" font-size="14.00" fill="#000000">app/reference_gen</text>
</g>
<!-- app/reference_gen&#45;&gt;boost -->
<g id="edge23" class="edge">
<title>app/reference_gen&#45;&gt;boost</title>
<path fill="none" stroke="#000000" d="M136.35,-359.8759C121.2533,-351.084 105.2374,-339.1119 95,-324 72.0711,-290.1537 76,-274.8816 76,-234 76,-234 76,-234 76,-162 76,-103.8389 119.0469,-98.1455 171,-72 216.9018,-48.8998 363.649,-30.3554 436.3593,-22.32"/>
<polygon fill="#000000" stroke="#000000" points="436.9672,-25.7746 446.529,-21.2114 436.2086,-18.8158 436.9672,-25.7746"/>
</g>
<!-- app/reference_gen&#45;&gt;core -->
<g id="edge24" class="edge">
<title>app/reference_gen&#45;&gt;core</title>
<path fill="none" stroke="#000000" d="M235.8049,-362.7307C292.4398,-348.2707 375.5866,-327.0417 422.4574,-315.0747"/>
<polygon fill="#000000" stroke="#000000" points="423.3408,-318.4615 432.1641,-312.5964 421.609,-311.6791 423.3408,-318.4615"/>
</g>
<!-- app/reference_gen&#45;&gt;data -->
<g id="edge25" class="edge">
<title>app/reference_gen&#45;&gt;data</title>
<path fill="none" stroke="#000000" d="M196.4672,-359.9555C241.3673,-320.3701 348.3464,-226.0537 396.6236,-183.491"/>
<polygon fill="#000000" stroke="#000000" points="399.2031,-185.8829 404.3895,-176.6443 394.5738,-180.6322 399.2031,-185.8829"/>
</g>
<!-- app/reference_gen&#45;&gt;replace_part -->
<g id="edge26" class="edge">
<title>app/reference_gen&#45;&gt;replace_part</title>
<path fill="none" stroke="#000000" d="M172.7196,-359.8314C171.3292,-352.131 169.6759,-342.9743 168.1308,-334.4166"/>
<polygon fill="#000000" stroke="#000000" points="171.5458,-333.6322 166.3246,-324.4133 164.6572,-334.8761 171.5458,-333.6322"/>
</g>
<!-- test/system/core -->
<g id="node12" class="node">
<title>test/system/core</title>
<polygon fill="none" stroke="#000000" points="579.1966,-468 472.8034,-468 472.8034,-432 579.1966,-432 579.1966,-468"/>
<text text-anchor="middle" x="526" y="-445.8" font-family="Times,serif" font-size="14.00" fill="#000000">test/system/core</text>
</g>
<!-- test/system/core&#45;&gt;boost -->
<g id="edge27" class="edge">
<title>test/system/core&#45;&gt;boost</title>
<path fill="none" stroke="#000000" d="M558.1211,-431.9113C595.4518,-408.2362 652,-362.9709 652,-306 652,-306 652,-306 652,-162 652,-91.8248 566.9627,-49.3908 515.7847,-30.2071"/>
<polygon fill="#000000" stroke="#000000" points="516.9376,-26.9022 506.3434,-26.7865 514.5531,-33.4836 516.9376,-26.9022"/>
</g>
<!-- test/system/core&#45;&gt;system_test -->
<g id="edge28" class="edge">
<title>test/system/core&#45;&gt;system_test</title>
<path fill="none" stroke="#000000" d="M579.2022,-434.5542C621.6296,-422.2366 680.6868,-405.0909 722.6265,-392.9149"/>
<polygon fill="#000000" stroke="#000000" points="723.7383,-396.2367 732.3659,-390.0873 721.7866,-389.5143 723.7383,-396.2367"/>
</g>
<!-- test/system/mdb -->
<g id="node13" class="node">
<title>test/system/mdb</title>
<polygon fill="none" stroke="#000000" points="704.4972,-468 597.5028,-468 597.5028,-432 704.4972,-432 704.4972,-468"/>
<text text-anchor="middle" x="651" y="-445.8" font-family="Times,serif" font-size="14.00" fill="#000000">test/system/mdb</text>
</g>
<!-- test/system/mdb&#45;&gt;boost -->
<g id="edge29" class="edge">
<title>test/system/mdb&#45;&gt;boost</title>
<path fill="none" stroke="#000000" d="M659.2709,-431.7881C670.719,-404.8727 690,-352.6212 690,-306 690,-306 690,-306 690,-162 690,-79.8135 579.6255,-41.259 518.158,-26.1603"/>
<polygon fill="#000000" stroke="#000000" points="518.9108,-22.7419 508.3744,-23.8532 517.3042,-29.555 518.9108,-22.7419"/>
</g>
<!-- test/system/mdb&#45;&gt;system_test -->
<g id="edge30" class="edge">
<title>test/system/mdb&#45;&gt;system_test</title>
<path fill="none" stroke="#000000" d="M682.0381,-431.8314C699.0071,-421.8983 720.1154,-409.5422 737.8276,-399.1741"/>
<polygon fill="#000000" stroke="#000000" points="739.8785,-402.0292 746.7405,-393.9568 736.3422,-395.9881 739.8785,-402.0292"/>
</g>
<!-- test/system/pdb -->
<g id="node14" class="node">
<title>test/system/pdb</title>
<polygon fill="none" stroke="#000000" points="946.6067,-468 843.3933,-468 843.3933,-432 946.6067,-432 946.6067,-468"/>
<text text-anchor="middle" x="895" y="-445.8" font-family="Times,serif" font-size="14.00" fill="#000000">test/system/pdb</text>
</g>
<!-- test/system/pdb&#45;&gt;boost -->
<g id="edge31" class="edge">
<title>test/system/pdb&#45;&gt;boost</title>
<path fill="none" stroke="#000000" d="M895.2072,-431.8149C895.5001,-404.4989 896,-351.2511 896,-306 896,-306 896,-306 896,-162 896,-82.8903 624.979,-37.8156 519.3988,-23.2575"/>
<polygon fill="#000000" stroke="#000000" points="519.7975,-19.7796 509.4179,-21.9045 518.8571,-26.7162 519.7975,-19.7796"/>
</g>
<!-- test/system/pdb&#45;&gt;system_test -->
<g id="edge32" class="edge">
<title>test/system/pdb&#45;&gt;system_test</title>
<path fill="none" stroke="#000000" d="M864.4666,-431.8314C847.7735,-421.8983 827.0084,-409.5422 809.5842,-399.1741"/>
<polygon fill="#000000" stroke="#000000" points="811.1997,-396.0626 800.8163,-393.9568 807.6202,-402.0782 811.1997,-396.0626"/>
</g>
<!-- test/system/pp -->
<g id="node15" class="node">
<title>test/system/pp</title>
<polygon fill="none" stroke="#000000" points="1061.1067,-468 964.8933,-468 964.8933,-432 1061.1067,-432 1061.1067,-468"/>
<text text-anchor="middle" x="1013" y="-445.8" font-family="Times,serif" font-size="14.00" fill="#000000">test/system/pp</text>
</g>
<!-- test/system/pp&#45;&gt;boost -->
<g id="edge33" class="edge">
<title>test/system/pp&#45;&gt;boost</title>
<path fill="none" stroke="#000000" d="M1004.7291,-431.7881C993.281,-404.8727 974,-352.6212 974,-306 974,-306 974,-306 974,-162 974,-67.7794 639.7354,-31.2107 520.0196,-21.1351"/>
<polygon fill="#000000" stroke="#000000" points="520.0345,-17.6246 509.7816,-20.2943 519.4615,-24.6011 520.0345,-17.6246"/>
</g>
<!-- test/system/pp&#45;&gt;pattern -->
<g id="edge34" class="edge">
<title>test/system/pp&#45;&gt;pattern</title>
<path fill="none" stroke="#000000" d="M987.5432,-431.7623C950.2235,-405.0258 880.8285,-355.31 841.3903,-327.0557"/>
<polygon fill="#000000" stroke="#000000" points="843.1505,-324.0113 832.983,-321.0326 839.0738,-329.7017 843.1505,-324.0113"/>
</g>
<!-- test/system/pp&#45;&gt;system_test -->
<g id="edge35" class="edge">
<title>test/system/pp&#45;&gt;system_test</title>
<path fill="none" stroke="#000000" d="M964.8163,-434.7192C961.8347,-433.7937 958.8776,-432.8812 956,-432 912.0709,-418.548 862.0201,-403.735 825.5388,-393.0315"/>
<polygon fill="#000000" stroke="#000000" points="826.2062,-389.5799 815.6254,-390.1261 824.2374,-396.2974 826.2062,-389.5799"/>
</g>
<!-- test/system/self -->
<g id="node16" class="node">
<title>test/system/self</title>
<polygon fill="none" stroke="#000000" points="825.3175,-468 722.6825,-468 722.6825,-432 825.3175,-432 825.3175,-468"/>
<text text-anchor="middle" x="774" y="-445.8" font-family="Times,serif" font-size="14.00" fill="#000000">test/system/self</text>
</g>
<!-- test/system/self&#45;&gt;system_test -->
<g id="edge36" class="edge">
<title>test/system/self&#45;&gt;system_test</title>
<path fill="none" stroke="#000000" d="M774,-431.8314C774,-424.131 774,-414.9743 774,-406.4166"/>
<polygon fill="#000000" stroke="#000000" points="777.5001,-406.4132 774,-396.4133 770.5001,-406.4133 777.5001,-406.4132"/>
</g>
<!-- test/unit -->
<g id="node17" class="node">
<title>test/unit</title>
<polygon fill="none" stroke="#000000" points="327.6123,-396 266.3877,-396 266.3877,-360 327.6123,-360 327.6123,-396"/>
<text text-anchor="middle" x="297" y="-373.8" font-family="Times,serif" font-size="14.00" fill="#000000">test/unit</text>
</g>
<!-- test/unit&#45;&gt;boost -->
<g id="edge37" class="edge">
<title>test/unit&#45;&gt;boost</title>
<path fill="none" stroke="#000000" d="M292.56,-359.7417C281.1922,-308.2623 256.5193,-159.9861 325,-72 339.1552,-53.813 397.725,-36.8134 438.1474,-26.9139"/>
<polygon fill="#000000" stroke="#000000" points="439.0864,-30.288 447.9952,-24.5536 437.4548,-23.4808 439.0864,-30.288"/>
</g>
<!-- test/unit&#45;&gt;core -->
<g id="edge38" class="edge">
<title>test/unit&#45;&gt;core</title>
<path fill="none" stroke="#000000" d="M327.5705,-364.2316C330.7541,-362.8012 333.9423,-361.3703 337,-360 367.0224,-346.5458 401.264,-331.2709 425.6408,-320.4087"/>
<polygon fill="#000000" stroke="#000000" points="427.0838,-323.5975 434.794,-316.3309 424.2351,-317.2034 427.0838,-323.5975"/>
</g>
<!-- test/unit&#45;&gt;data -->
<g id="edge39" class="edge">
<title>test/unit&#45;&gt;data</title>
<path fill="none" stroke="#000000" d="M313.1307,-359.726C321.6666,-349.5874 332.0051,-336.5265 340,-324 368.8228,-278.8402 395.1579,-222.0364 409.5502,-189.0899"/>
<polygon fill="#000000" stroke="#000000" points="412.8668,-190.2382 413.6229,-179.6704 406.4417,-187.4602 412.8668,-190.2382"/>
</g>
<!-- test/unit&#45;&gt;iface -->
<g id="edge40" class="edge">
<title>test/unit&#45;&gt;iface</title>
<path fill="none" stroke="#000000" d="M301.1912,-359.9843C312.5184,-311.2939 343.8078,-176.7961 357.4728,-118.0573"/>
<polygon fill="#000000" stroke="#000000" points="360.9534,-118.5419 359.8104,-108.0089 354.1355,-116.9557 360.9534,-118.5419"/>
</g>
<!-- test/unit&#45;&gt;replace_part -->
<g id="edge41" class="edge">
<title>test/unit&#45;&gt;replace_part</title>
<path fill="none" stroke="#000000" d="M266.2577,-361.4817C246.873,-351.0661 221.6937,-337.5369 201.0526,-326.4462"/>
<polygon fill="#000000" stroke="#000000" points="202.6862,-323.3507 192.2206,-321.7006 199.3729,-329.517 202.6862,-323.3507"/>
</g>
</g>
</svg>
