<?xml version="1.0" encoding="UTF-8" standalone="no"?>
<!DOCTYPE svg PUBLIC "-//W3C//DTD SVG 1.1//EN"
 "http://www.w3.org/Graphics/SVG/1.1/DTD/svg11.dtd">
<!-- Generated by graphviz version 2.40.1
 -->
<!-- Title: %3 Pages: 1 -->
<svg width="786pt" height="404pt"
 viewBox="0.00 0.00 785.54 404.00" xmlns="http://www.w3.org/2000/svg" xmlns:xlink="http://www.w3.org/1999/xlink">
<g id="graph0" class="graph" transform="scale(1 1) rotate(0) translate(4 400)">
<title>%3</title>
<polygon fill="#ffffff" stroke="transparent" points="-4,4 -4,-400 781.5435,-400 781.5435,4 -4,4"/>
<!-- boost -->
<g id="node1" class="node">
<title>boost</title>
<ellipse fill="#ffffff" stroke="#000000" cx="111.4902" cy="-18" rx="31.9224" ry="18"/>
<text text-anchor="middle" x="111.4902" y="-13.8" font-family="Times,serif" font-size="14.00" fill="#000000">boost</text>
</g>
<!-- core -->
<g id="node2" class="node">
<title>core</title>
<ellipse fill="#ffffff" stroke="#000000" cx="131.4902" cy="-234" rx="27.8073" ry="18"/>
<text text-anchor="middle" x="131.4902" y="-229.8" font-family="Times,serif" font-size="14.00" fill="#000000">core</text>
</g>
<!-- core&#45;&gt;boost -->
<g id="edge1" class="edge">
<title>core&#45;&gt;boost</title>
<path fill="none" stroke="#000000" d="M129.8194,-215.9555C126.3341,-178.3144 118.2667,-91.1867 114.0943,-46.1246"/>
<polygon fill="#000000" stroke="#000000" points="117.5774,-45.7797 113.1703,-36.1451 110.6073,-46.4252 117.5774,-45.7797"/>
</g>
<!-- data -->
<g id="node3" class="node">
<title>data</title>
<ellipse fill="#ffffff" stroke="#000000" cx="187.4902" cy="-90" rx="27.2447" ry="18"/>
<text text-anchor="middle" x="187.4902" y="-85.8" font-family="Times,serif" font-size="14.00" fill="#000000">data</text>
</g>
<!-- core&#45;&gt;data -->
<g id="edge2" class="edge">
<title>core&#45;&gt;data</title>
<path fill="none" stroke="#000000" d="M138.3569,-216.3428C147.9712,-191.6202 165.5332,-146.4608 176.8487,-117.3639"/>
<polygon fill="#000000" stroke="#000000" points="180.2048,-118.3903 180.5673,-107.8017 173.6808,-115.8531 180.2048,-118.3903"/>
</g>
<!-- iface -->
<g id="node4" class="node">
<title>iface</title>
<ellipse fill="#ffffff" stroke="#000000" cx="53.4902" cy="-162" rx="29.5916" ry="18"/>
<text text-anchor="middle" x="53.4902" y="-157.8" font-family="Times,serif" font-size="14.00" fill="#000000">iface</text>
</g>
<!-- core&#45;&gt;iface -->
<g id="edge3" class="edge">
<title>core&#45;&gt;iface</title>
<path fill="none" stroke="#000000" d="M115.3285,-219.0816C104.4204,-209.0125 89.832,-195.5463 77.5641,-184.2221"/>
<polygon fill="#000000" stroke="#000000" points="79.6215,-181.3581 69.8995,-177.147 74.8735,-186.5017 79.6215,-181.3581"/>
</g>
<!-- process -->
<g id="node6" class="node">
<title>process</title>
<ellipse fill="#ffffff" stroke="#000000" cx="369.4902" cy="-162" rx="39.9857" ry="18"/>
<text text-anchor="middle" x="369.4902" y="-157.8" font-family="Times,serif" font-size="14.00" fill="#000000">process</text>
</g>
<!-- core&#45;&gt;process -->
<g id="edge4" class="edge">
<title>core&#45;&gt;process</title>
<path fill="none" stroke="#000000" d="M156.9603,-226.2947C197.4602,-214.0427 277.0052,-189.9787 326.4621,-175.0169"/>
<polygon fill="#000000" stroke="#000000" points="327.6748,-178.3068 336.2329,-172.061 325.6478,-171.6066 327.6748,-178.3068"/>
</g>
<!-- data&#45;&gt;boost -->
<g id="edge5" class="edge">
<title>data&#45;&gt;boost</title>
<path fill="none" stroke="#000000" d="M171.7429,-75.0816C161.2572,-65.1477 147.2811,-51.9072 135.4294,-40.6793"/>
<polygon fill="#000000" stroke="#000000" points="137.6726,-37.9831 128.0059,-33.6465 132.8584,-43.0648 137.6726,-37.9831"/>
</g>
<!-- iface&#45;&gt;boost -->
<g id="edge6" class="edge">
<title>iface&#45;&gt;boost</title>
<path fill="none" stroke="#000000" d="M60.6021,-144.3428C70.5598,-119.6202 88.749,-74.4608 100.4686,-45.3639"/>
<polygon fill="#000000" stroke="#000000" points="103.8304,-46.3852 104.3201,-35.8017 97.3373,-43.7699 103.8304,-46.3852"/>
</g>
<!-- iface&#45;&gt;data -->
<g id="edge7" class="edge">
<title>iface&#45;&gt;data</title>
<path fill="none" stroke="#000000" d="M75.9188,-149.9488C98.2487,-137.9506 132.6672,-119.4571 157.37,-106.184"/>
<polygon fill="#000000" stroke="#000000" points="159.1641,-109.1933 166.3164,-101.3769 155.8508,-103.027 159.1641,-109.1933"/>
</g>
<!-- pattern -->
<g id="node5" class="node">
<title>pattern</title>
<ellipse fill="#ffffff" stroke="#000000" cx="563.4902" cy="-234" rx="37.6986" ry="18"/>
<text text-anchor="middle" x="563.4902" y="-229.8" font-family="Times,serif" font-size="14.00" fill="#000000">pattern</text>
</g>
<!-- process&#45;&gt;data -->
<g id="edge8" class="edge">
<title>process&#45;&gt;data</title>
<path fill="none" stroke="#000000" d="M339.4366,-150.1107C306.6311,-137.1327 254.2683,-116.4177 220.3833,-103.0127"/>
<polygon fill="#000000" stroke="#000000" points="221.5118,-99.6952 210.9254,-99.2711 218.9367,-106.2044 221.5118,-99.6952"/>
</g>
<!-- readline -->
<g id="node7" class="node">
<title>readline</title>
<ellipse fill="#ffffff" stroke="#000000" cx="60.4902" cy="-306" rx="42.2719" ry="18"/>
<text text-anchor="middle" x="60.4902" y="-301.8" font-family="Times,serif" font-size="14.00" fill="#000000">readline</text>
</g>
<!-- readline&#45;&gt;core -->
<g id="edge9" class="edge">
<title>readline&#45;&gt;core</title>
<path fill="none" stroke="#000000" d="M76.9575,-289.3008C86.4511,-279.6734 98.5231,-267.4314 108.8942,-256.9142"/>
<polygon fill="#000000" stroke="#000000" points="111.5549,-259.2008 116.0842,-249.6229 106.5706,-254.2858 111.5549,-259.2008"/>
</g>
<!-- readline&#45;&gt;iface -->
<g id="edge10" class="edge">
<title>readline&#45;&gt;iface</title>
<path fill="none" stroke="#000000" d="M59.6036,-287.7623C58.4097,-263.201 56.273,-219.2474 54.8685,-190.3541"/>
<polygon fill="#000000" stroke="#000000" points="58.351,-189.9079 54.3695,-180.0896 51.3593,-190.2478 58.351,-189.9079"/>
</g>
<!-- replace_part -->
<g id="node8" class="node">
<title>replace_part</title>
<ellipse fill="#ffffff" stroke="#000000" cx="274.4902" cy="-234" rx="58.5059" ry="18"/>
<text text-anchor="middle" x="274.4902" y="-229.8" font-family="Times,serif" font-size="14.00" fill="#000000">replace_part</text>
</g>
<!-- system_test -->
<g id="node9" class="node">
<title>system_test</title>
<ellipse fill="#ffffff" stroke="#000000" cx="521.4902" cy="-306" rx="56.1937" ry="18"/>
<text text-anchor="middle" x="521.4902" y="-301.8" font-family="Times,serif" font-size="14.00" fill="#000000">system_test</text>
</g>
<!-- system_test&#45;&gt;core -->
<g id="edge11" class="edge">
<title>system_test&#45;&gt;core</title>
<path fill="none" stroke="#000000" d="M470.5595,-298.325C408.115,-288.6721 299.1564,-271.0413 206.4902,-252 193.6811,-249.368 179.7306,-246.1247 167.3735,-243.1195"/>
<polygon fill="#000000" stroke="#000000" points="167.9753,-239.6631 157.4284,-240.6698 166.301,-246.46 167.9753,-239.6631"/>
</g>
<!-- system_test&#45;&gt;pattern -->
<g id="edge12" class="edge">
<title>system_test&#45;&gt;pattern</title>
<path fill="none" stroke="#000000" d="M531.8722,-288.2022C536.7549,-279.832 542.6767,-269.6802 548.0694,-260.4356"/>
<polygon fill="#000000" stroke="#000000" points="551.212,-261.9944 553.2276,-251.593 545.1656,-258.4673 551.212,-261.9944"/>
</g>
<!-- system_test&#45;&gt;process -->
<g id="edge13" class="edge">
<title>system_test&#45;&gt;process</title>
<path fill="none" stroke="#000000" d="M503.4569,-288.9158C476.3436,-263.2296 424.9968,-214.5852 394.3493,-185.5507"/>
<polygon fill="#000000" stroke="#000000" points="396.6975,-182.9541 387.0309,-178.6175 391.8833,-188.0358 396.6975,-182.9541"/>
</g>
<!-- app/metashell -->
<g id="node10" class="node">
<title>app/metashell</title>
<polygon fill="none" stroke="#000000" points="142.2465,-396 48.7339,-396 48.7339,-360 142.2465,-360 142.2465,-396"/>
<text text-anchor="middle" x="95.4902" y="-373.8" font-family="Times,serif" font-size="14.00" fill="#000000">app/metashell</text>
</g>
<!-- app/metashell&#45;&gt;core -->
<g id="edge14" class="edge">
<title>app/metashell&#45;&gt;core</title>
<path fill="none" stroke="#000000" d="M101.2886,-359.5941C104.4778,-349.1946 108.402,-335.9268 111.4902,-324 116.8313,-303.3721 122.0258,-279.8602 125.7819,-262.0419"/>
<polygon fill="#000000" stroke="#000000" points="129.2572,-262.521 127.8702,-252.0173 122.4043,-261.0934 129.2572,-262.521"/>
</g>
<!-- app/metashell&#45;&gt;data -->
<g id="edge15" class="edge">
<title>app/metashell&#45;&gt;data</title>
<path fill="none" stroke="#000000" d="M142.4286,-368.1918C155.4011,-365.5074 169.4863,-362.6173 182.4902,-360 264.1803,-343.5584 303.2285,-378.2362 366.4902,-324 418.149,-279.7113 406.759,-247.0261 418.4902,-180 421.2486,-164.2396 428.4332,-156.5354 418.4902,-144 394.7079,-114.017 283.7189,-99.1082 224.6708,-93.1885"/>
<polygon fill="#000000" stroke="#000000" points="224.9169,-89.6961 214.6267,-92.2181 224.2437,-96.6636 224.9169,-89.6961"/>
</g>
<!-- app/metashell&#45;&gt;iface -->
<g id="edge16" class="edge">
<title>app/metashell&#45;&gt;iface</title>
<path fill="none" stroke="#000000" d="M49.0148,-359.9715C33.6112,-351.5066 18.1911,-339.7373 9.4902,-324 -15.129,-279.4714 14.2953,-220.3329 35.5004,-187.2215"/>
<polygon fill="#000000" stroke="#000000" points="38.6034,-188.8751 41.2117,-178.6064 32.769,-185.0073 38.6034,-188.8751"/>
</g>
<!-- app/metashell&#45;&gt;readline -->
<g id="edge17" class="edge">
<title>app/metashell&#45;&gt;readline</title>
<path fill="none" stroke="#000000" d="M86.6582,-359.8314C82.7321,-351.7547 78.0272,-342.0761 73.6963,-333.1668"/>
<polygon fill="#000000" stroke="#000000" points="76.7179,-331.3769 69.1981,-323.9134 70.4223,-334.4373 76.7179,-331.3769"/>
</g>
<!-- app/reference_gen -->
<g id="node11" class="node">
<title>app/reference_gen</title>
<polygon fill="none" stroke="#000000" points="357.3654,-324 237.615,-324 237.615,-288 357.3654,-288 357.3654,-324"/>
<text text-anchor="middle" x="297.4902" y="-301.8" font-family="Times,serif" font-size="14.00" fill="#000000">app/reference_gen</text>
</g>
<!-- app/reference_gen&#45;&gt;core -->
<g id="edge18" class="edge">
<title>app/reference_gen&#45;&gt;core</title>
<path fill="none" stroke="#000000" d="M255.6014,-287.8314C227.326,-275.5673 190.5346,-259.6096 164.3683,-248.2604"/>
<polygon fill="#000000" stroke="#000000" points="165.4669,-244.9219 154.8999,-244.1536 162.6814,-251.3438 165.4669,-244.9219"/>
</g>
<!-- app/reference_gen&#45;&gt;data -->
<g id="edge19" class="edge">
<title>app/reference_gen&#45;&gt;data</title>
<path fill="none" stroke="#000000" d="M318.348,-287.6461C327.6442,-278.0709 337.588,-265.54 342.4902,-252 347.937,-236.9557 349.3648,-230.4478 342.4902,-216 317.0094,-162.4489 256.4063,-124.2179 218.9744,-104.7351"/>
<polygon fill="#000000" stroke="#000000" points="220.4953,-101.5821 209.9925,-100.1879 217.3334,-107.8274 220.4953,-101.5821"/>
</g>
<!-- app/reference_gen&#45;&gt;replace_part -->
<g id="edge20" class="edge">
<title>app/reference_gen&#45;&gt;replace_part</title>
<path fill="none" stroke="#000000" d="M291.6863,-287.8314C289.1994,-280.0463 286.2371,-270.7729 283.4777,-262.1347"/>
<polygon fill="#000000" stroke="#000000" points="286.7492,-260.874 280.3722,-252.4133 280.0812,-263.0041 286.7492,-260.874"/>
</g>
<!-- test/system/core -->
<g id="node12" class="node">
<title>test/system/core</title>
<polygon fill="none" stroke="#000000" points="663.6868,-396 557.2936,-396 557.2936,-360 663.6868,-360 663.6868,-396"/>
<text text-anchor="middle" x="610.4902" y="-373.8" font-family="Times,serif" font-size="14.00" fill="#000000">test/system/core</text>
</g>
<!-- test/system/core&#45;&gt;system_test -->
<g id="edge21" class="edge">
<title>test/system/core&#45;&gt;system_test</title>
<path fill="none" stroke="#000000" d="M588.0317,-359.8314C576.6513,-350.6247 562.6978,-339.3365 550.5128,-329.479"/>
<polygon fill="#000000" stroke="#000000" points="552.3888,-326.4947 542.413,-322.9263 547.9861,-331.9369 552.3888,-326.4947"/>
</g>
<!-- test/system/mdb -->
<g id="node13" class="node">
<title>test/system/mdb</title>
<polygon fill="none" stroke="#000000" points="297.9874,-396 190.993,-396 190.993,-360 297.9874,-360 297.9874,-396"/>
<text text-anchor="middle" x="244.4902" y="-373.8" font-family="Times,serif" font-size="14.00" fill="#000000">test/system/mdb</text>
</g>
<!-- test/system/mdb&#45;&gt;system_test -->
<g id="edge22" class="edge">
<title>test/system/mdb&#45;&gt;system_test</title>
<path fill="none" stroke="#000000" d="M298.2225,-362.2606C301.0158,-361.4861 303.7844,-360.7284 306.4902,-360 370.6087,-342.7401 387.113,-340.2684 451.4902,-324 456.7366,-322.6742 462.2019,-321.2843 467.6634,-319.8895"/>
<polygon fill="#000000" stroke="#000000" points="468.6224,-323.2569 477.442,-317.3863 466.8864,-316.4756 468.6224,-323.2569"/>
</g>
<!-- test/system/pdb -->
<g id="node14" class="node">
<title>test/system/pdb</title>
<polygon fill="none" stroke="#000000" points="419.0968,-396 315.8835,-396 315.8835,-360 419.0968,-360 419.0968,-396"/>
<text text-anchor="middle" x="367.4902" y="-373.8" font-family="Times,serif" font-size="14.00" fill="#000000">test/system/pdb</text>
</g>
<!-- test/system/pdb&#45;&gt;system_test -->
<g id="edge23" class="edge">
<title>test/system/pdb&#45;&gt;system_test</title>
<path fill="none" stroke="#000000" d="M406.3509,-359.8314C428.9053,-349.2864 457.3005,-336.0107 480.2487,-325.2817"/>
<polygon fill="#000000" stroke="#000000" points="481.8177,-328.4119 489.3942,-321.0059 478.853,-322.0707 481.8177,-328.4119"/>
</g>
<!-- test/system/pp -->
<g id="node15" class="node">
<title>test/system/pp</title>
<polygon fill="none" stroke="#000000" points="777.5968,-396 681.3835,-396 681.3835,-360 777.5968,-360 777.5968,-396"/>
<text text-anchor="middle" x="729.4902" y="-373.8" font-family="Times,serif" font-size="14.00" fill="#000000">test/system/pp</text>
</g>
<!-- test/system/pp&#45;&gt;pattern -->
<g id="edge24" class="edge">
<title>test/system/pp&#45;&gt;pattern</title>
<path fill="none" stroke="#000000" d="M708.4662,-359.7623C678.2257,-333.5296 622.4838,-285.1752 589.6298,-256.6753"/>
<polygon fill="#000000" stroke="#000000" points="591.647,-253.7918 581.7996,-249.8829 587.06,-259.0795 591.647,-253.7918"/>
</g>
<!-- test/system/pp&#45;&gt;system_test -->
<g id="edge25" class="edge">
<title>test/system/pp&#45;&gt;system_test</title>
<path fill="none" stroke="#000000" d="M681.248,-361.3008C647.6057,-349.6554 602.9116,-334.1843 569.3529,-322.5679"/>
<polygon fill="#000000" stroke="#000000" points="570.3565,-319.2116 559.7617,-319.2478 568.0667,-325.8265 570.3565,-319.2116"/>
</g>
<!-- test/system/self -->
<g id="node16" class="node">
<title>test/system/self</title>
<polygon fill="none" stroke="#000000" points="539.8077,-396 437.1727,-396 437.1727,-360 539.8077,-360 539.8077,-396"/>
<text text-anchor="middle" x="488.4902" y="-373.8" font-family="Times,serif" font-size="14.00" fill="#000000">test/system/self</text>
</g>
<!-- test/system/self&#45;&gt;system_test -->
<g id="edge26" class="edge">
<title>test/system/self&#45;&gt;system_test</title>
<path fill="none" stroke="#000000" d="M496.8175,-359.8314C500.5193,-351.7547 504.9553,-342.0761 509.0387,-333.1668"/>
<polygon fill="#000000" stroke="#000000" points="512.295,-334.4624 513.2799,-323.9134 505.9315,-331.5458 512.295,-334.4624"/>
</g>
<!-- test/unit -->
<g id="node17" class="node">
<title>test/unit</title>
<polygon fill="none" stroke="#000000" points="220.1025,-324 158.8779,-324 158.8779,-288 220.1025,-288 220.1025,-324"/>
<text text-anchor="middle" x="189.4902" y="-301.8" font-family="Times,serif" font-size="14.00" fill="#000000">test/unit</text>
</g>
<!-- test/unit&#45;&gt;core -->
<g id="edge27" class="edge">
<title>test/unit&#45;&gt;core</title>
<path fill="none" stroke="#000000" d="M174.8543,-287.8314C167.5134,-278.7185 158.5296,-267.5661 150.6467,-257.7805"/>
<polygon fill="#000000" stroke="#000000" points="153.3432,-255.5487 144.3443,-249.9568 147.8919,-259.94 153.3432,-255.5487"/>
</g>
<!-- test/unit&#45;&gt;data -->
<g id="edge28" class="edge">
<title>test/unit&#45;&gt;data</title>
<path fill="none" stroke="#000000" d="M189.3231,-287.9555C188.9753,-250.3938 188.1712,-163.5541 187.7532,-118.4103"/>
<polygon fill="#000000" stroke="#000000" points="191.2507,-118.1122 187.6582,-108.1451 184.251,-118.1771 191.2507,-118.1122"/>
</g>
<!-- test/unit&#45;&gt;iface -->
<g id="edge29" class="edge">
<title>test/unit&#45;&gt;iface</title>
<path fill="none" stroke="#000000" d="M158.8057,-294.4728C138.3824,-285.5035 112.1567,-271.3212 94.4902,-252 78.2852,-234.2773 67.5491,-209.0559 61.1431,-189.8195"/>
<polygon fill="#000000" stroke="#000000" points="64.4301,-188.6037 58.1022,-180.1061 57.7498,-190.6951 64.4301,-188.6037"/>
</g>
<!-- test/unit&#45;&gt;replace_part -->
<g id="edge30" class="edge">
<title>test/unit&#45;&gt;replace_part</title>
<path fill="none" stroke="#000000" d="M210.9393,-287.8314C221.7283,-278.6924 234.9388,-267.5024 246.515,-257.6967"/>
<polygon fill="#000000" stroke="#000000" points="248.8501,-260.3056 254.2183,-251.1715 244.3256,-254.9643 248.8501,-260.3056"/>
</g>
</g>
</svg>
