<?xml version="1.0" encoding="UTF-8" standalone="no"?>
<!DOCTYPE svg PUBLIC "-//W3C//DTD SVG 1.1//EN"
 "http://www.w3.org/Graphics/SVG/1.1/DTD/svg11.dtd">
<!-- Generated by graphviz version 2.40.1
 -->
<!-- Title: %3 Pages: 1 -->
<svg width="987pt" height="404pt"
 viewBox="0.00 0.00 986.77 404.00" xmlns="http://www.w3.org/2000/svg" xmlns:xlink="http://www.w3.org/1999/xlink">
<g id="graph0" class="graph" transform="scale(1 1) rotate(0) translate(4 400)">
<title>%3</title>
<polygon fill="#ffffff" stroke="transparent" points="-4,4 -4,-400 982.7729,-400 982.7729,4 -4,4"/>
<!-- boost -->
<g id="node1" class="node">
<title>boost</title>
<ellipse fill="#ffffff" stroke="#000000" cx="202.6144" cy="-18" rx="31.9224" ry="18"/>
<text text-anchor="middle" x="202.6144" y="-13.8" font-family="Times,serif" font-size="14.00" fill="#000000">boost</text>
</g>
<!-- core -->
<g id="node2" class="node">
<title>core</title>
<ellipse fill="#ffffff" stroke="#000000" cx="258.6144" cy="-234" rx="27.8073" ry="18"/>
<text text-anchor="middle" x="258.6144" y="-229.8" font-family="Times,serif" font-size="14.00" fill="#000000">core</text>
</g>
<!-- core&#45;&gt;boost -->
<g id="edge1" class="edge">
<title>core&#45;&gt;boost</title>
<path fill="none" stroke="#000000" d="M259.0578,-215.8652C259.2268,-185.2219 257.0551,-121.681 238.6144,-72 234.7916,-61.7009 228.6588,-51.4139 222.53,-42.6238"/>
<polygon fill="#000000" stroke="#000000" points="225.2253,-40.3806 216.4883,-34.3875 219.581,-44.5209 225.2253,-40.3806"/>
</g>
<!-- data -->
<g id="node3" class="node">
<title>data</title>
<ellipse fill="#ffffff" stroke="#000000" cx="202.6144" cy="-90" rx="27.2447" ry="18"/>
<text text-anchor="middle" x="202.6144" y="-85.8" font-family="Times,serif" font-size="14.00" fill="#000000">data</text>
</g>
<!-- core&#45;&gt;data -->
<g id="edge2" class="edge">
<title>core&#45;&gt;data</title>
<path fill="none" stroke="#000000" d="M251.7477,-216.3428C242.1334,-191.6202 224.5714,-146.4608 213.256,-117.3639"/>
<polygon fill="#000000" stroke="#000000" points="216.4239,-115.8531 209.5373,-107.8017 209.8998,-118.3903 216.4239,-115.8531"/>
</g>
<!-- iface -->
<g id="node4" class="node">
<title>iface</title>
<ellipse fill="#ffffff" stroke="#000000" cx="144.6144" cy="-162" rx="29.5916" ry="18"/>
<text text-anchor="middle" x="144.6144" y="-157.8" font-family="Times,serif" font-size="14.00" fill="#000000">iface</text>
</g>
<!-- core&#45;&gt;iface -->
<g id="edge3" class="edge">
<title>core&#45;&gt;iface</title>
<path fill="none" stroke="#000000" d="M238.7572,-221.4586C220.8639,-210.1575 194.3212,-193.3937 173.9763,-180.5443"/>
<polygon fill="#000000" stroke="#000000" points="175.7234,-177.5082 165.3995,-175.1274 171.9854,-183.4266 175.7234,-177.5082"/>
</g>
<!-- process -->
<g id="node6" class="node">
<title>process</title>
<ellipse fill="#ffffff" stroke="#000000" cx="346.6144" cy="-162" rx="39.9857" ry="18"/>
<text text-anchor="middle" x="346.6144" y="-157.8" font-family="Times,serif" font-size="14.00" fill="#000000">process</text>
</g>
<!-- core&#45;&gt;process -->
<g id="edge4" class="edge">
<title>core&#45;&gt;process</title>
<path fill="none" stroke="#000000" d="M276.0004,-219.7751C288.3107,-209.703 305.0731,-195.9884 319.177,-184.4488"/>
<polygon fill="#000000" stroke="#000000" points="321.597,-186.9911 327.1202,-177.9498 317.1643,-181.5734 321.597,-186.9911"/>
</g>
<!-- data&#45;&gt;boost -->
<g id="edge5" class="edge">
<title>data&#45;&gt;boost</title>
<path fill="none" stroke="#000000" d="M202.6144,-71.8314C202.6144,-64.131 202.6144,-54.9743 202.6144,-46.4166"/>
<polygon fill="#000000" stroke="#000000" points="206.1145,-46.4132 202.6144,-36.4133 199.1145,-46.4133 206.1145,-46.4132"/>
</g>
<!-- iface&#45;&gt;boost -->
<g id="edge6" class="edge">
<title>iface&#45;&gt;boost</title>
<path fill="none" stroke="#000000" d="M147.1522,-143.8123C150.1833,-125.1947 156.1998,-95.7105 166.6144,-72 171.0324,-61.9419 177.3071,-51.7123 183.3833,-42.9008"/>
<polygon fill="#000000" stroke="#000000" points="186.3369,-44.788 189.3173,-34.621 180.6472,-40.7103 186.3369,-44.788"/>
</g>
<!-- iface&#45;&gt;data -->
<g id="edge7" class="edge">
<title>iface&#45;&gt;data</title>
<path fill="none" stroke="#000000" d="M157.7755,-145.6621C165.2654,-136.3644 174.7885,-124.5426 183.1302,-114.1873"/>
<polygon fill="#000000" stroke="#000000" points="185.9577,-116.2565 189.5054,-106.2733 180.5065,-111.8652 185.9577,-116.2565"/>
</g>
<!-- pattern -->
<g id="node5" class="node">
<title>pattern</title>
<ellipse fill="#ffffff" stroke="#000000" cx="515.6144" cy="-234" rx="37.6986" ry="18"/>
<text text-anchor="middle" x="515.6144" y="-229.8" font-family="Times,serif" font-size="14.00" fill="#000000">pattern</text>
</g>
<!-- process&#45;&gt;data -->
<g id="edge8" class="edge">
<title>process&#45;&gt;data</title>
<path fill="none" stroke="#000000" d="M319.5292,-148.4574C295.1113,-136.2484 259.2184,-118.302 233.6519,-105.5187"/>
<polygon fill="#000000" stroke="#000000" points="234.9138,-102.2366 224.4043,-100.8949 231.7833,-108.4976 234.9138,-102.2366"/>
</g>
<!-- readline -->
<g id="node7" class="node">
<title>readline</title>
<ellipse fill="#ffffff" stroke="#000000" cx="56.6144" cy="-234" rx="42.2719" ry="18"/>
<text text-anchor="middle" x="56.6144" y="-229.8" font-family="Times,serif" font-size="14.00" fill="#000000">readline</text>
</g>
<!-- readline&#45;&gt;data -->
<g id="edge9" class="edge">
<title>readline&#45;&gt;data</title>
<path fill="none" stroke="#000000" d="M62.956,-215.8736C70.5716,-196.2139 84.9554,-164.8543 105.6144,-144 123.6478,-125.7962 149.1111,-111.9362 169.4239,-102.8178"/>
<polygon fill="#000000" stroke="#000000" points="170.8412,-106.0182 178.6373,-98.8439 168.0688,-99.5906 170.8412,-106.0182"/>
</g>
<!-- readline&#45;&gt;iface -->
<g id="edge10" class="edge">
<title>readline&#45;&gt;iface</title>
<path fill="none" stroke="#000000" d="M76.1445,-218.0209C88.6405,-207.7969 104.9973,-194.414 118.5901,-183.2926"/>
<polygon fill="#000000" stroke="#000000" points="121.1139,-185.7499 126.6372,-176.7087 116.6812,-180.3322 121.1139,-185.7499"/>
</g>
<!-- replace_part -->
<g id="node8" class="node">
<title>replace_part</title>
<ellipse fill="#ffffff" stroke="#000000" cx="362.6144" cy="-234" rx="58.5059" ry="18"/>
<text text-anchor="middle" x="362.6144" y="-229.8" font-family="Times,serif" font-size="14.00" fill="#000000">replace_part</text>
</g>
<!-- system_test -->
<g id="node9" class="node">
<title>system_test</title>
<ellipse fill="#ffffff" stroke="#000000" cx="569.6144" cy="-306" rx="56.1937" ry="18"/>
<text text-anchor="middle" x="569.6144" y="-301.8" font-family="Times,serif" font-size="14.00" fill="#000000">system_test</text>
</g>
<!-- system_test&#45;&gt;core -->
<g id="edge11" class="edge">
<title>system_test&#45;&gt;core</title>
<path fill="none" stroke="#000000" d="M516.5642,-299.9022C460.3589,-292.4515 369.5589,-277.5676 294.6144,-252 292.7792,-251.3739 290.9189,-250.672 289.0604,-249.9182"/>
<polygon fill="#000000" stroke="#000000" points="290.4663,-246.7129 279.9086,-245.8258 287.6087,-253.1031 290.4663,-246.7129"/>
</g>
<!-- system_test&#45;&gt;pattern -->
<g id="edge12" class="edge">
<title>system_test&#45;&gt;pattern</title>
<path fill="none" stroke="#000000" d="M556.2661,-288.2022C549.6956,-279.4416 541.6614,-268.7293 534.4756,-259.1482"/>
<polygon fill="#000000" stroke="#000000" points="537.2374,-256.9972 528.4374,-251.0972 531.6374,-261.1973 537.2374,-256.9972"/>
</g>
<!-- system_test&#45;&gt;process -->
<g id="edge13" class="edge">
<title>system_test&#45;&gt;process</title>
<path fill="none" stroke="#000000" d="M573.8543,-287.8176C577.3661,-267.8129 579.4085,-235.8692 562.6144,-216 541.3556,-190.8485 452.7026,-175.2554 395.7893,-167.6392"/>
<polygon fill="#000000" stroke="#000000" points="395.9228,-164.1272 385.5551,-166.3094 395.0207,-171.0689 395.9228,-164.1272"/>
</g>
<!-- app/metashell -->
<g id="node10" class="node">
<title>app/metashell</title>
<polygon fill="none" stroke="#000000" points="151.3708,-324 57.8581,-324 57.8581,-288 151.3708,-288 151.3708,-324"/>
<text text-anchor="middle" x="104.6144" y="-301.8" font-family="Times,serif" font-size="14.00" fill="#000000">app/metashell</text>
</g>
<!-- app/metashell&#45;&gt;core -->
<g id="edge14" class="edge">
<title>app/metashell&#45;&gt;core</title>
<path fill="none" stroke="#000000" d="M143.4752,-287.8314C169.2763,-275.7685 202.7209,-260.1321 226.9109,-248.8225"/>
<polygon fill="#000000" stroke="#000000" points="228.4388,-251.9718 236.0153,-244.5658 225.4741,-245.6306 228.4388,-251.9718"/>
</g>
<!-- app/metashell&#45;&gt;data -->
<g id="edge15" class="edge">
<title>app/metashell&#45;&gt;data</title>
<path fill="none" stroke="#000000" d="M57.8005,-292.4119C38.069,-284.1118 17.0575,-271.2763 5.6144,-252 -2.553,-238.2416 -.5085,-230.7821 5.6144,-216 33.391,-148.9415 118.4523,-114.0934 167.239,-99.172"/>
<polygon fill="#000000" stroke="#000000" points="168.4569,-102.4622 177.0653,-96.286 166.4842,-95.7459 168.4569,-102.4622"/>
</g>
<!-- app/metashell&#45;&gt;iface -->
<g id="edge16" class="edge">
<title>app/metashell&#45;&gt;iface</title>
<path fill="none" stroke="#000000" d="M109.6805,-287.7623C116.5331,-263.0928 128.8201,-218.8598 136.8441,-189.9731"/>
<polygon fill="#000000" stroke="#000000" points="140.2854,-190.6616 139.5896,-180.0896 133.5407,-188.788 140.2854,-190.6616"/>
</g>
<!-- app/metashell&#45;&gt;readline -->
<g id="edge17" class="edge">
<title>app/metashell&#45;&gt;readline</title>
<path fill="none" stroke="#000000" d="M92.502,-287.8314C86.8616,-279.3707 80.0491,-269.1521 73.882,-259.9014"/>
<polygon fill="#000000" stroke="#000000" points="76.6855,-257.7968 68.2263,-251.4177 70.8611,-261.6797 76.6855,-257.7968"/>
</g>
<!-- app/reference_gen -->
<g id="node11" class="node">
<title>app/reference_gen</title>
<polygon fill="none" stroke="#000000" points="422.4896,-324 302.7393,-324 302.7393,-288 422.4896,-288 422.4896,-324"/>
<text text-anchor="middle" x="362.6144" y="-301.8" font-family="Times,serif" font-size="14.00" fill="#000000">app/reference_gen</text>
</g>
<!-- app/reference_gen&#45;&gt;core -->
<g id="edge18" class="edge">
<title>app/reference_gen&#45;&gt;core</title>
<path fill="none" stroke="#000000" d="M336.3709,-287.8314C321.0791,-277.2448 301.8117,-263.9058 286.2824,-253.1547"/>
<polygon fill="#000000" stroke="#000000" points="287.8433,-249.9785 277.6292,-247.164 283.8588,-255.7338 287.8433,-249.9785"/>
</g>
<!-- app/reference_gen&#45;&gt;data -->
<g id="edge19" class="edge">
<title>app/reference_gen&#45;&gt;data</title>
<path fill="none" stroke="#000000" d="M396.7034,-287.9135C409.8352,-279.0032 423.4041,-266.9331 430.6144,-252 452.5539,-206.5617 434.3502,-176.3344 395.6144,-144 371.8619,-124.1728 287.9623,-105.8318 238.9509,-96.4814"/>
<polygon fill="#000000" stroke="#000000" points="239.5301,-93.0291 229.0562,-94.6253 238.2394,-99.9091 239.5301,-93.0291"/>
</g>
<!-- app/reference_gen&#45;&gt;replace_part -->
<g id="edge20" class="edge">
<title>app/reference_gen&#45;&gt;replace_part</title>
<path fill="none" stroke="#000000" d="M362.6144,-287.8314C362.6144,-280.131 362.6144,-270.9743 362.6144,-262.4166"/>
<polygon fill="#000000" stroke="#000000" points="366.1145,-262.4132 362.6144,-252.4133 359.1145,-262.4133 366.1145,-262.4132"/>
</g>
<!-- test/system/core -->
<g id="node12" class="node">
<title>test/system/core</title>
<polygon fill="none" stroke="#000000" points="611.811,-396 505.4179,-396 505.4179,-360 611.811,-360 611.811,-396"/>
<text text-anchor="middle" x="558.6144" y="-373.8" font-family="Times,serif" font-size="14.00" fill="#000000">test/system/core</text>
</g>
<!-- test/system/core&#45;&gt;system_test -->
<g id="edge21" class="edge">
<title>test/system/core&#45;&gt;system_test</title>
<path fill="none" stroke="#000000" d="M561.3902,-359.8314C562.5667,-352.131 563.9656,-342.9743 565.273,-334.4166"/>
<polygon fill="#000000" stroke="#000000" points="568.7508,-334.8272 566.8013,-324.4133 561.8311,-333.7699 568.7508,-334.8272"/>
</g>
<!-- test/system/mdb -->
<g id="node13" class="node">
<title>test/system/mdb</title>
<polygon fill="none" stroke="#000000" points="737.1116,-396 630.1172,-396 630.1172,-360 737.1116,-360 737.1116,-396"/>
<text text-anchor="middle" x="683.6144" y="-373.8" font-family="Times,serif" font-size="14.00" fill="#000000">test/system/mdb</text>
</g>
<!-- test/system/mdb&#45;&gt;system_test -->
<g id="edge22" class="edge">
<title>test/system/mdb&#45;&gt;system_test</title>
<path fill="none" stroke="#000000" d="M654.8474,-359.8314C639.3757,-350.0597 620.1911,-337.9432 603.9429,-327.6811"/>
<polygon fill="#000000" stroke="#000000" points="605.5843,-324.5782 595.2604,-322.1975 601.8463,-330.4967 605.5843,-324.5782"/>
</g>
<!-- test/system/pdb -->
<g id="node14" class="node">
<title>test/system/pdb</title>
<polygon fill="none" stroke="#000000" points="858.2211,-396 755.0078,-396 755.0078,-360 858.2211,-360 858.2211,-396"/>
<text text-anchor="middle" x="806.6144" y="-373.8" font-family="Times,serif" font-size="14.00" fill="#000000">test/system/pdb</text>
</g>
<!-- test/system/pdb&#45;&gt;system_test -->
<g id="edge23" class="edge">
<title>test/system/pdb&#45;&gt;system_test</title>
<path fill="none" stroke="#000000" d="M754.8967,-362.2883C714.9686,-350.1582 660.0214,-333.4654 620.344,-321.4115"/>
<polygon fill="#000000" stroke="#000000" points="621.1896,-318.0105 610.604,-318.4525 619.1548,-324.7082 621.1896,-318.0105"/>
</g>
<!-- test/system/pp -->
<g id="node15" class="node">
<title>test/system/pp</title>
<polygon fill="none" stroke="#000000" points="487.7211,-396 391.5078,-396 391.5078,-360 487.7211,-360 487.7211,-396"/>
<text text-anchor="middle" x="439.6144" y="-373.8" font-family="Times,serif" font-size="14.00" fill="#000000">test/system/pp</text>
</g>
<!-- test/system/pp&#45;&gt;pattern -->
<g id="edge24" class="edge">
<title>test/system/pp&#45;&gt;pattern</title>
<path fill="none" stroke="#000000" d="M449.2399,-359.7623C462.4459,-334.7405 486.2742,-289.5921 501.4992,-260.7447"/>
<polygon fill="#000000" stroke="#000000" points="504.7326,-262.1167 506.3049,-251.6392 498.5419,-258.8494 504.7326,-262.1167"/>
</g>
<!-- test/system/pp&#45;&gt;system_test -->
<g id="edge25" class="edge">
<title>test/system/pp&#45;&gt;system_test</title>
<path fill="none" stroke="#000000" d="M472.4189,-359.8314C490.6475,-349.7356 513.3954,-337.1367 532.3006,-326.6661"/>
<polygon fill="#000000" stroke="#000000" points="534.1838,-329.6241 541.236,-321.7173 530.7923,-323.5006 534.1838,-329.6241"/>
</g>
<!-- test/system/self -->
<g id="node16" class="node">
<title>test/system/self</title>
<polygon fill="none" stroke="#000000" points="978.9319,-396 876.297,-396 876.297,-360 978.9319,-360 978.9319,-396"/>
<text text-anchor="middle" x="927.6144" y="-373.8" font-family="Times,serif" font-size="14.00" fill="#000000">test/system/self</text>
</g>
<!-- test/system/self&#45;&gt;system_test -->
<g id="edge26" class="edge">
<title>test/system/self&#45;&gt;system_test</title>
<path fill="none" stroke="#000000" d="M876.3304,-362.2022C873.3903,-361.4253 870.4698,-360.6847 867.6144,-360 786.5359,-340.557 691.5599,-324.4815 631.0139,-315.0619"/>
<polygon fill="#000000" stroke="#000000" points="631.2779,-311.5613 620.861,-313.4946 630.2099,-318.4793 631.2779,-311.5613"/>
</g>
<!-- test/unit -->
<g id="node17" class="node">
<title>test/unit</title>
<polygon fill="none" stroke="#000000" points="255.2268,-324 194.0021,-324 194.0021,-288 255.2268,-288 255.2268,-324"/>
<text text-anchor="middle" x="224.6144" y="-301.8" font-family="Times,serif" font-size="14.00" fill="#000000">test/unit</text>
</g>
<!-- test/unit&#45;&gt;core -->
<g id="edge27" class="edge">
<title>test/unit&#45;&gt;core</title>
<path fill="none" stroke="#000000" d="M233.1941,-287.8314C237.107,-279.5451 241.8162,-269.5727 246.1125,-260.4748"/>
<polygon fill="#000000" stroke="#000000" points="249.2842,-261.9547 250.3894,-251.4177 242.9544,-258.9657 249.2842,-261.9547"/>
</g>
<!-- test/unit&#45;&gt;data -->
<g id="edge28" class="edge">
<title>test/unit&#45;&gt;data</title>
<path fill="none" stroke="#000000" d="M222.7766,-287.9555C218.9428,-250.3144 210.0686,-163.1867 205.479,-118.1246"/>
<polygon fill="#000000" stroke="#000000" points="208.9579,-117.7389 204.4626,-108.1451 201.9939,-118.4483 208.9579,-117.7389"/>
</g>
<!-- test/unit&#45;&gt;iface -->
<g id="edge29" class="edge">
<title>test/unit&#45;&gt;iface</title>
<path fill="none" stroke="#000000" d="M211.6628,-287.891C204.5168,-277.5845 195.6853,-264.3107 188.6144,-252 176.774,-231.3853 165.0338,-207.1266 156.6623,-188.9922"/>
<polygon fill="#000000" stroke="#000000" points="159.7158,-187.2529 152.3789,-179.6096 153.348,-190.1601 159.7158,-187.2529"/>
</g>
<!-- test/unit&#45;&gt;replace_part -->
<g id="edge30" class="edge">
<title>test/unit&#45;&gt;replace_part</title>
<path fill="none" stroke="#000000" d="M255.2411,-290.0209C275.3904,-279.5082 301.9411,-265.6557 323.5988,-254.356"/>
<polygon fill="#000000" stroke="#000000" points="325.3013,-257.4155 332.5482,-249.6867 322.0633,-251.2094 325.3013,-257.4155"/>
</g>
</g>
</svg>
