<?xml version="1.0" encoding="UTF-8" standalone="no"?>
<!DOCTYPE svg PUBLIC "-//W3C//DTD SVG 1.1//EN"
 "http://www.w3.org/Graphics/SVG/1.1/DTD/svg11.dtd">
<!-- Generated by graphviz version 2.40.1
 -->
<!-- Title: %3 Pages: 1 -->
<svg width="1339pt" height="332pt"
 viewBox="0.00 0.00 1339.19 332.00" xmlns="http://www.w3.org/2000/svg" xmlns:xlink="http://www.w3.org/1999/xlink">
<g id="graph0" class="graph" transform="scale(1 1) rotate(0) translate(4 328)">
<title>%3</title>
<polygon fill="#ffffff" stroke="transparent" points="-4,4 -4,-328 1335.189,-328 1335.189,4 -4,4"/>
<!-- boost -->
<g id="node1" class="node">
<title>boost</title>
<ellipse fill="#ffffff" stroke="#000000" cx="212.1357" cy="-18" rx="31.9224" ry="18"/>
<text text-anchor="middle" x="212.1357" y="-13.8" font-family="Times,serif" font-size="14.00" fill="#000000">boost</text>
</g>
<!-- core -->
<g id="node2" class="node">
<title>core</title>
<ellipse fill="#ffffff" stroke="#000000" cx="402.1357" cy="-162" rx="27.8073" ry="18"/>
<text text-anchor="middle" x="402.1357" y="-157.8" font-family="Times,serif" font-size="14.00" fill="#000000">core</text>
</g>
<!-- data -->
<g id="node3" class="node">
<title>data</title>
<ellipse fill="#ffffff" stroke="#000000" cx="346.1357" cy="-18" rx="27.2447" ry="18"/>
<text text-anchor="middle" x="346.1357" y="-13.8" font-family="Times,serif" font-size="14.00" fill="#000000">data</text>
</g>
<!-- core&#45;&gt;data -->
<g id="edge1" class="edge">
<title>core&#45;&gt;data</title>
<path fill="none" stroke="#000000" d="M390.4989,-145.1245C383.7897,-134.7817 375.6235,-121.0606 370.1357,-108 361.705,-87.9353 355.5055,-64.0928 351.5213,-45.9902"/>
<polygon fill="#000000" stroke="#000000" points="354.9172,-45.131 349.4313,-36.067 348.0675,-46.5737 354.9172,-45.131"/>
</g>
<!-- iface -->
<g id="node5" class="node">
<title>iface</title>
<ellipse fill="#ffffff" stroke="#000000" cx="212.1357" cy="-90" rx="29.5916" ry="18"/>
<text text-anchor="middle" x="212.1357" y="-85.8" font-family="Times,serif" font-size="14.00" fill="#000000">iface</text>
</g>
<!-- core&#45;&gt;iface -->
<g id="edge2" class="edge">
<title>core&#45;&gt;iface</title>
<path fill="none" stroke="#000000" d="M379.1235,-151.8675C372.9821,-149.2375 366.3306,-146.4555 360.1357,-144 322.0999,-128.9237 277.9811,-113.0285 247.8757,-102.4191"/>
<polygon fill="#000000" stroke="#000000" points="248.8271,-99.0437 238.2322,-99.0326 246.5077,-105.6483 248.8271,-99.0437"/>
</g>
<!-- process -->
<g id="node8" class="node">
<title>process</title>
<ellipse fill="#ffffff" stroke="#000000" cx="558.1357" cy="-90" rx="39.9857" ry="18"/>
<text text-anchor="middle" x="558.1357" y="-85.8" font-family="Times,serif" font-size="14.00" fill="#000000">process</text>
</g>
<!-- core&#45;&gt;process -->
<g id="edge3" class="edge">
<title>core&#45;&gt;process</title>
<path fill="none" stroke="#000000" d="M424.8195,-151.5306C449.9826,-139.9168 490.9702,-120.9995 520.8642,-107.2022"/>
<polygon fill="#000000" stroke="#000000" points="522.5333,-110.2868 530.1462,-102.9183 519.5998,-103.931 522.5333,-110.2868"/>
</g>
<!-- defaults -->
<g id="node4" class="node">
<title>defaults</title>
<ellipse fill="#ffffff" stroke="#000000" cx="416.1357" cy="-234" rx="41.7095" ry="18"/>
<text text-anchor="middle" x="416.1357" y="-229.8" font-family="Times,serif" font-size="14.00" fill="#000000">defaults</text>
</g>
<!-- defaults&#45;&gt;core -->
<g id="edge4" class="edge">
<title>defaults&#45;&gt;core</title>
<path fill="none" stroke="#000000" d="M412.6029,-215.8314C411.0659,-207.9266 409.2305,-198.4872 407.5289,-189.7365"/>
<polygon fill="#000000" stroke="#000000" points="410.9633,-189.0615 405.6189,-179.9134 404.092,-190.3976 410.9633,-189.0615"/>
</g>
<!-- defaults&#45;&gt;data -->
<g id="edge5" class="edge">
<title>defaults&#45;&gt;data</title>
<path fill="none" stroke="#000000" d="M427.0193,-216.6124C437.1203,-198.1325 449.1954,-168.2863 439.1357,-144 430.4766,-123.095 417.2753,-125.6656 403.1357,-108 386.8223,-87.6184 371.1697,-62.3512 360.4087,-43.7824"/>
<polygon fill="#000000" stroke="#000000" points="363.392,-41.9486 355.3937,-35.0003 357.3132,-45.4198 363.392,-41.9486"/>
</g>
<!-- defaults&#45;&gt;iface -->
<g id="edge6" class="edge">
<title>defaults&#45;&gt;iface</title>
<path fill="none" stroke="#000000" d="M394.3042,-218.5895C356.9756,-192.2399 280.9489,-138.574 239.9031,-109.6005"/>
<polygon fill="#000000" stroke="#000000" points="241.89,-106.7189 231.7019,-103.8114 237.8532,-112.4377 241.89,-106.7189"/>
</g>
<!-- iface&#45;&gt;boost -->
<g id="edge7" class="edge">
<title>iface&#45;&gt;boost</title>
<path fill="none" stroke="#000000" d="M212.1357,-71.8314C212.1357,-64.131 212.1357,-54.9743 212.1357,-46.4166"/>
<polygon fill="#000000" stroke="#000000" points="215.6358,-46.4132 212.1357,-36.4133 208.6358,-46.4133 215.6358,-46.4132"/>
</g>
<!-- iface&#45;&gt;data -->
<g id="edge8" class="edge">
<title>iface&#45;&gt;data</title>
<path fill="none" stroke="#000000" d="M234.5643,-77.9488C256.8943,-65.9506 291.3127,-47.4571 316.0155,-34.184"/>
<polygon fill="#000000" stroke="#000000" points="317.8096,-37.1933 324.962,-29.3769 314.4964,-31.027 317.8096,-37.1933"/>
</g>
<!-- mock -->
<g id="node6" class="node">
<title>mock</title>
<ellipse fill="#ffffff" stroke="#000000" cx="172.1357" cy="-162" rx="32.4846" ry="18"/>
<text text-anchor="middle" x="172.1357" y="-157.8" font-family="Times,serif" font-size="14.00" fill="#000000">mock</text>
</g>
<!-- mock&#45;&gt;iface -->
<g id="edge9" class="edge">
<title>mock&#45;&gt;iface</title>
<path fill="none" stroke="#000000" d="M181.8186,-144.5708C186.5354,-136.0807 192.3064,-125.6929 197.5427,-116.2674"/>
<polygon fill="#000000" stroke="#000000" points="200.7451,-117.71 202.542,-107.2687 194.626,-114.3105 200.7451,-117.71"/>
</g>
<!-- pattern -->
<g id="node7" class="node">
<title>pattern</title>
<ellipse fill="#ffffff" stroke="#000000" cx="1044.1357" cy="-162" rx="37.6986" ry="18"/>
<text text-anchor="middle" x="1044.1357" y="-157.8" font-family="Times,serif" font-size="14.00" fill="#000000">pattern</text>
</g>
<!-- process&#45;&gt;data -->
<g id="edge10" class="edge">
<title>process&#45;&gt;data</title>
<path fill="none" stroke="#000000" d="M527.0841,-78.4226C521.1384,-76.2542 514.9539,-74.0318 509.1357,-72 464.8832,-56.5463 413.5004,-39.705 380.4399,-29.0103"/>
<polygon fill="#000000" stroke="#000000" points="381.3878,-25.6385 370.7962,-25.897 379.2372,-32.3 381.3878,-25.6385"/>
</g>
<!-- readline -->
<g id="node9" class="node">
<title>readline</title>
<ellipse fill="#ffffff" stroke="#000000" cx="42.1357" cy="-162" rx="42.2719" ry="18"/>
<text text-anchor="middle" x="42.1357" y="-157.8" font-family="Times,serif" font-size="14.00" fill="#000000">readline</text>
</g>
<!-- readline&#45;&gt;data -->
<g id="edge11" class="edge">
<title>readline&#45;&gt;data</title>
<path fill="none" stroke="#000000" d="M61.4042,-145.9882C85.9857,-126.2382 130.4469,-92.7401 173.1357,-72 218.3409,-50.0373 274.4864,-34.4588 310.3204,-25.8481"/>
<polygon fill="#000000" stroke="#000000" points="311.3735,-29.1961 320.3084,-23.5024 309.773,-22.3815 311.3735,-29.1961"/>
</g>
<!-- readline&#45;&gt;iface -->
<g id="edge12" class="edge">
<title>readline&#45;&gt;iface</title>
<path fill="none" stroke="#000000" d="M72.137,-149.2936C101.8108,-136.7259 147.1565,-117.5206 178.146,-104.3956"/>
<polygon fill="#000000" stroke="#000000" points="179.8219,-107.4869 187.6651,-100.364 177.0919,-101.0412 179.8219,-107.4869"/>
</g>
<!-- replace_part -->
<g id="node10" class="node">
<title>replace_part</title>
<ellipse fill="#ffffff" stroke="#000000" cx="713.1357" cy="-234" rx="58.5059" ry="18"/>
<text text-anchor="middle" x="713.1357" y="-229.8" font-family="Times,serif" font-size="14.00" fill="#000000">replace_part</text>
</g>
<!-- system_test -->
<g id="node11" class="node">
<title>system_test</title>
<ellipse fill="#ffffff" stroke="#000000" cx="955.1357" cy="-234" rx="56.1937" ry="18"/>
<text text-anchor="middle" x="955.1357" y="-229.8" font-family="Times,serif" font-size="14.00" fill="#000000">system_test</text>
</g>
<!-- system_test&#45;&gt;core -->
<g id="edge13" class="edge">
<title>system_test&#45;&gt;core</title>
<path fill="none" stroke="#000000" d="M903.1108,-227.2264C792.4514,-212.8187 535.9816,-179.4266 439.6261,-166.8812"/>
<polygon fill="#000000" stroke="#000000" points="439.8491,-163.3808 429.4809,-165.5603 438.9453,-170.3222 439.8491,-163.3808"/>
</g>
<!-- system_test&#45;&gt;pattern -->
<g id="edge14" class="edge">
<title>system_test&#45;&gt;pattern</title>
<path fill="none" stroke="#000000" d="M976.2275,-216.937C988.402,-207.0879 1003.8444,-194.5952 1016.9262,-184.0122"/>
<polygon fill="#000000" stroke="#000000" points="1019.1428,-186.7209 1024.716,-177.7103 1014.7402,-181.2788 1019.1428,-186.7209"/>
</g>
<!-- system_test&#45;&gt;process -->
<g id="edge15" class="edge">
<title>system_test&#45;&gt;process</title>
<path fill="none" stroke="#000000" d="M917.7869,-220.4528C843.1893,-193.3947 676.2926,-132.8579 598.9391,-104.8002"/>
<polygon fill="#000000" stroke="#000000" points="600.1137,-101.5032 589.5195,-101.3835 597.7268,-108.0837 600.1137,-101.5032"/>
</g>
<!-- app/metashell -->
<g id="node12" class="node">
<title>app/metashell</title>
<polygon fill="none" stroke="#000000" points="354.892,-324 261.3794,-324 261.3794,-288 354.892,-288 354.892,-324"/>
<text text-anchor="middle" x="308.1357" y="-301.8" font-family="Times,serif" font-size="14.00" fill="#000000">app/metashell</text>
</g>
<!-- app/metashell&#45;&gt;core -->
<g id="edge16" class="edge">
<title>app/metashell&#45;&gt;core</title>
<path fill="none" stroke="#000000" d="M319.3017,-287.9479C330.6582,-269.6886 348.8532,-240.7098 365.1357,-216 371.4856,-206.3637 378.6197,-195.8755 384.9167,-186.7276"/>
<polygon fill="#000000" stroke="#000000" points="387.8387,-188.6556 390.6446,-178.4391 382.08,-184.676 387.8387,-188.6556"/>
</g>
<!-- app/metashell&#45;&gt;data -->
<g id="edge17" class="edge">
<title>app/metashell&#45;&gt;data</title>
<path fill="none" stroke="#000000" d="M310.5128,-287.9843C316.9372,-239.2939 334.6835,-104.7961 342.4337,-46.0573"/>
<polygon fill="#000000" stroke="#000000" points="345.9213,-46.3808 343.7596,-36.0089 338.9814,-45.4651 345.9213,-46.3808"/>
</g>
<!-- app/metashell&#45;&gt;defaults -->
<g id="edge18" class="edge">
<title>app/metashell&#45;&gt;defaults</title>
<path fill="none" stroke="#000000" d="M335.3887,-287.8314C350.4679,-277.7785 369.2699,-265.2439 384.9359,-254.7999"/>
<polygon fill="#000000" stroke="#000000" points="386.8939,-257.7011 393.273,-249.2418 383.011,-251.8767 386.8939,-257.7011"/>
</g>
<!-- app/metashell&#45;&gt;iface -->
<g id="edge19" class="edge">
<title>app/metashell&#45;&gt;iface</title>
<path fill="none" stroke="#000000" d="M261.3094,-293.7289C235.1095,-285.1669 203.0176,-271.6952 179.1357,-252 149.4649,-227.5306 142.2806,-216.809 131.1357,-180 126.4992,-164.6865 123.586,-158.1068 131.1357,-144 140.9598,-125.6436 160.0851,-112.4495 177.2853,-103.7"/>
<polygon fill="#000000" stroke="#000000" points="179.0386,-106.742 186.5716,-99.2918 176.0368,-100.4183 179.0386,-106.742"/>
</g>
<!-- app/metashell&#45;&gt;readline -->
<g id="edge20" class="edge">
<title>app/metashell&#45;&gt;readline</title>
<path fill="none" stroke="#000000" d="M261.2215,-298.1345C207.5809,-288.4261 123.8593,-270.8717 98.1357,-252 76.7134,-236.2839 61.6428,-209.6694 52.5731,-189.4477"/>
<polygon fill="#000000" stroke="#000000" points="55.7363,-187.9421 48.6013,-180.11 49.2948,-190.6821 55.7363,-187.9421"/>
</g>
<!-- app/reference_gen -->
<g id="node13" class="node">
<title>app/reference_gen</title>
<polygon fill="none" stroke="#000000" points="546.0109,-324 426.2605,-324 426.2605,-288 546.0109,-288 546.0109,-324"/>
<text text-anchor="middle" x="486.1357" y="-301.8" font-family="Times,serif" font-size="14.00" fill="#000000">app/reference_gen</text>
</g>
<!-- app/reference_gen&#45;&gt;core -->
<g id="edge21" class="edge">
<title>app/reference_gen&#45;&gt;core</title>
<path fill="none" stroke="#000000" d="M485.7586,-287.8215C484.6078,-268.681 480.5815,-238.2885 467.1357,-216 458.3923,-201.5065 444.3274,-189.1087 431.5136,-179.8615"/>
<polygon fill="#000000" stroke="#000000" points="433.1509,-176.7406 422.9231,-173.9759 429.1944,-182.5153 433.1509,-176.7406"/>
</g>
<!-- app/reference_gen&#45;&gt;data -->
<g id="edge22" class="edge">
<title>app/reference_gen&#45;&gt;data</title>
<path fill="none" stroke="#000000" d="M508.8953,-287.8003C558.0189,-246.3686 665.0364,-143.1064 607.1357,-72 579.3899,-37.926 449.1544,-24.6886 383.7755,-20.1252"/>
<polygon fill="#000000" stroke="#000000" points="383.6985,-16.6125 373.4884,-19.4417 383.2343,-23.5971 383.6985,-16.6125"/>
</g>
<!-- app/reference_gen&#45;&gt;defaults -->
<g id="edge23" class="edge">
<title>app/reference_gen&#45;&gt;defaults</title>
<path fill="none" stroke="#000000" d="M468.4718,-287.8314C459.7791,-278.8903 449.1777,-267.986 439.7953,-258.3355"/>
<polygon fill="#000000" stroke="#000000" points="442.0722,-255.6565 432.5919,-250.9263 437.0532,-260.5361 442.0722,-255.6565"/>
</g>
<!-- app/reference_gen&#45;&gt;replace_part -->
<g id="edge24" class="edge">
<title>app/reference_gen&#45;&gt;replace_part</title>
<path fill="none" stroke="#000000" d="M543.1244,-287.9243C579.8583,-276.273 627.195,-261.2587 662.5872,-250.033"/>
<polygon fill="#000000" stroke="#000000" points="663.7603,-253.3328 672.2341,-246.9732 661.6439,-246.6604 663.7603,-253.3328"/>
</g>
<!-- test/system/core -->
<g id="node14" class="node">
<title>test/system/core</title>
<polygon fill="none" stroke="#000000" points="822.3323,-324 715.9392,-324 715.9392,-288 822.3323,-288 822.3323,-324"/>
<text text-anchor="middle" x="769.1357" y="-301.8" font-family="Times,serif" font-size="14.00" fill="#000000">test/system/core</text>
</g>
<!-- test/system/core&#45;&gt;system_test -->
<g id="edge25" class="edge">
<title>test/system/core&#45;&gt;system_test</title>
<path fill="none" stroke="#000000" d="M816.0714,-287.8314C844.6632,-276.7636 881.0263,-262.6875 909.3972,-251.7052"/>
<polygon fill="#000000" stroke="#000000" points="911.011,-254.8337 919.0732,-247.9597 908.484,-248.3057 911.011,-254.8337"/>
</g>
<!-- test/system/mdb -->
<g id="node15" class="node">
<title>test/system/mdb</title>
<polygon fill="none" stroke="#000000" points="947.6329,-324 840.6385,-324 840.6385,-288 947.6329,-288 947.6329,-324"/>
<text text-anchor="middle" x="894.1357" y="-301.8" font-family="Times,serif" font-size="14.00" fill="#000000">test/system/mdb</text>
</g>
<!-- test/system/mdb&#45;&gt;system_test -->
<g id="edge26" class="edge">
<title>test/system/mdb&#45;&gt;system_test</title>
<path fill="none" stroke="#000000" d="M909.5286,-287.8314C916.8445,-279.1962 925.7118,-268.7299 933.6752,-259.3304"/>
<polygon fill="#000000" stroke="#000000" points="936.5853,-261.31 940.3791,-251.4177 931.2444,-256.7851 936.5853,-261.31"/>
</g>
<!-- test/system/pdb -->
<g id="node16" class="node">
<title>test/system/pdb</title>
<polygon fill="none" stroke="#000000" points="1068.7424,-324 965.5291,-324 965.5291,-288 1068.7424,-288 1068.7424,-324"/>
<text text-anchor="middle" x="1017.1357" y="-301.8" font-family="Times,serif" font-size="14.00" fill="#000000">test/system/pdb</text>
</g>
<!-- test/system/pdb&#45;&gt;system_test -->
<g id="edge27" class="edge">
<title>test/system/pdb&#45;&gt;system_test</title>
<path fill="none" stroke="#000000" d="M1001.4905,-287.8314C993.9796,-279.109 984.8598,-268.5183 976.703,-259.0459"/>
<polygon fill="#000000" stroke="#000000" points="979.3118,-256.7116 970.1343,-251.4177 974.0074,-261.2793 979.3118,-256.7116"/>
</g>
<!-- test/system/pp -->
<g id="node17" class="node">
<title>test/system/pp</title>
<polygon fill="none" stroke="#000000" points="1331.2424,-324 1235.0291,-324 1235.0291,-288 1331.2424,-288 1331.2424,-324"/>
<text text-anchor="middle" x="1283.1357" y="-301.8" font-family="Times,serif" font-size="14.00" fill="#000000">test/system/pp</text>
</g>
<!-- test/system/pp&#45;&gt;pattern -->
<g id="edge28" class="edge">
<title>test/system/pp&#45;&gt;pattern</title>
<path fill="none" stroke="#000000" d="M1252.8662,-287.7623C1207.6472,-260.5173 1122.8242,-209.4106 1076.446,-181.4673"/>
<polygon fill="#000000" stroke="#000000" points="1078.0778,-178.3643 1067.7061,-176.2014 1074.4652,-184.3601 1078.0778,-178.3643"/>
</g>
<!-- test/system/pp&#45;&gt;system_test -->
<g id="edge29" class="edge">
<title>test/system/pp&#45;&gt;system_test</title>
<path fill="none" stroke="#000000" d="M1235.0403,-290.4057C1232.0367,-289.558 1229.0507,-288.7483 1226.1357,-288 1154.3952,-269.5836 1070.6195,-253.74 1015.4183,-244.0643"/>
<polygon fill="#000000" stroke="#000000" points="1015.9049,-240.5964 1005.4529,-242.3301 1014.7048,-247.4928 1015.9049,-240.5964"/>
</g>
<!-- test/unit/core -->
<g id="node18" class="node">
<title>test/unit/core</title>
<polygon fill="none" stroke="#000000" points="277.7284,-252 188.5431,-252 188.5431,-216 277.7284,-216 277.7284,-252"/>
<text text-anchor="middle" x="233.1357" y="-229.8" font-family="Times,serif" font-size="14.00" fill="#000000">test/unit/core</text>
</g>
<!-- test/unit/core&#45;&gt;core -->
<g id="edge30" class="edge">
<title>test/unit/core&#45;&gt;core</title>
<path fill="none" stroke="#000000" d="M275.7816,-215.8314C304.8689,-203.4391 342.8085,-187.2755 369.4955,-175.9059"/>
<polygon fill="#000000" stroke="#000000" points="370.9532,-179.0893 378.7812,-171.9499 368.2095,-172.6494 370.9532,-179.0893"/>
</g>
<!-- test/unit/core&#45;&gt;data -->
<g id="edge31" class="edge">
<title>test/unit/core&#45;&gt;data</title>
<path fill="none" stroke="#000000" d="M237.3749,-215.893C245.2098,-184.745 263.965,-119.7691 294.1357,-72 301.7037,-60.0177 312.2417,-48.4588 321.8538,-39.1311"/>
<polygon fill="#000000" stroke="#000000" points="324.3859,-41.555 329.2897,-32.1633 319.5995,-36.447 324.3859,-41.555"/>
</g>
<!-- test/unit/core&#45;&gt;iface -->
<g id="edge32" class="edge">
<title>test/unit/core&#45;&gt;iface</title>
<path fill="none" stroke="#000000" d="M230.4761,-215.7623C226.8942,-191.201 220.4843,-147.2474 216.2707,-118.3541"/>
<polygon fill="#000000" stroke="#000000" points="219.6803,-117.4798 214.7738,-108.0896 212.7536,-118.4901 219.6803,-117.4798"/>
</g>
<!-- test/unit/core&#45;&gt;mock -->
<g id="edge33" class="edge">
<title>test/unit/core&#45;&gt;mock</title>
<path fill="none" stroke="#000000" d="M217.7429,-215.8314C210.1325,-206.8486 200.8433,-195.8843 192.6391,-186.2007"/>
<polygon fill="#000000" stroke="#000000" points="195.1981,-183.8067 186.0635,-178.4393 189.8572,-188.3316 195.1981,-183.8067"/>
</g>
<!-- test/unit/data -->
<g id="node19" class="node">
<title>test/unit/data</title>
<polygon fill="none" stroke="#000000" points="500.4589,-108 411.8125,-108 411.8125,-72 500.4589,-72 500.4589,-108"/>
<text text-anchor="middle" x="456.1357" y="-85.8" font-family="Times,serif" font-size="14.00" fill="#000000">test/unit/data</text>
</g>
<!-- test/unit/data&#45;&gt;data -->
<g id="edge34" class="edge">
<title>test/unit/data&#45;&gt;data</title>
<path fill="none" stroke="#000000" d="M428.3781,-71.8314C411.8382,-61.0052 390.9008,-47.3008 374.2911,-36.429"/>
<polygon fill="#000000" stroke="#000000" points="375.848,-33.2649 365.5641,-30.7168 372.0143,-39.1218 375.848,-33.2649"/>
</g>
<!-- test/unit/replace_part -->
<g id="node20" class="node">
<title>test/unit/replace_part</title>
<polygon fill="none" stroke="#000000" points="698.3141,-324 563.9574,-324 563.9574,-288 698.3141,-288 698.3141,-324"/>
<text text-anchor="middle" x="631.1357" y="-301.8" font-family="Times,serif" font-size="14.00" fill="#000000">test/unit/replace_part</text>
</g>
<!-- test/unit/replace_part&#45;&gt;replace_part -->
<g id="edge35" class="edge">
<title>test/unit/replace_part&#45;&gt;replace_part</title>
<path fill="none" stroke="#000000" d="M651.8278,-287.8314C662.136,-278.7803 674.7354,-267.7174 685.8253,-257.9799"/>
<polygon fill="#000000" stroke="#000000" points="688.3742,-260.3996 693.5793,-251.1715 683.7556,-255.1395 688.3742,-260.3996"/>
</g>
<!-- test/unit/system_test -->
<g id="node21" class="node">
<title>test/unit/system_test</title>
<polygon fill="none" stroke="#000000" points="1217.4643,-324 1086.8071,-324 1086.8071,-288 1217.4643,-288 1217.4643,-324"/>
<text text-anchor="middle" x="1152.1357" y="-301.8" font-family="Times,serif" font-size="14.00" fill="#000000">test/unit/system_test</text>
</g>
<!-- test/unit/system_test&#45;&gt;system_test -->
<g id="edge36" class="edge">
<title>test/unit/system_test&#45;&gt;system_test</title>
<path fill="none" stroke="#000000" d="M1102.6786,-287.9243C1071.7224,-276.6103 1032.0896,-262.1253 1001.6971,-251.0174"/>
<polygon fill="#000000" stroke="#000000" points="1002.7707,-247.6833 992.1768,-247.5379 1000.3677,-254.258 1002.7707,-247.6833"/>
</g>
</g>
</svg>
