<?xml version="1.0" encoding="UTF-8" standalone="no"?>
<!DOCTYPE svg PUBLIC "-//W3C//DTD SVG 1.1//EN"
 "http://www.w3.org/Graphics/SVG/1.1/DTD/svg11.dtd">
<!-- Generated by graphviz version 2.40.1
 -->
<!-- Title: %3 Pages: 1 -->
<svg width="2150pt" height="476pt"
 viewBox="0.00 0.00 2149.54 476.00" xmlns="http://www.w3.org/2000/svg" xmlns:xlink="http://www.w3.org/1999/xlink">
<g id="graph0" class="graph" transform="scale(1 1) rotate(0) translate(4 472)">
<title>%3</title>
<polygon fill="#ffffff" stroke="transparent" points="-4,4 -4,-472 2145.5442,-472 2145.5442,4 -4,4"/>
<!-- compiler_stub -->
<g id="node1" class="node">
<title>compiler_stub</title>
<ellipse fill="#ffffff" stroke="#000000" cx="269.3801" cy="-90" rx="66.0723" ry="18"/>
<text text-anchor="middle" x="269.3801" y="-85.8" font-family="Times,serif" font-size="14.00" fill="#000000">compiler_stub</text>
</g>
<!-- data -->
<g id="node3" class="node">
<title>data</title>
<ellipse fill="#ffffff" stroke="#000000" cx="529.3801" cy="-18" rx="27.2447" ry="18"/>
<text text-anchor="middle" x="529.3801" y="-13.8" font-family="Times,serif" font-size="14.00" fill="#000000">data</text>
</g>
<!-- compiler_stub&#45;&gt;data -->
<g id="edge1" class="edge">
<title>compiler_stub&#45;&gt;data</title>
<path fill="none" stroke="#000000" d="M315.8629,-77.1278C367.0575,-62.9509 448.2185,-40.4755 494.3281,-27.7067"/>
<polygon fill="#000000" stroke="#000000" points="495.4571,-31.0259 504.1603,-24.9839 493.5889,-24.2797 495.4571,-31.0259"/>
</g>
<!-- core -->
<g id="node2" class="node">
<title>core</title>
<ellipse fill="#ffffff" stroke="#000000" cx="660.3801" cy="-162" rx="27.8073" ry="18"/>
<text text-anchor="middle" x="660.3801" y="-157.8" font-family="Times,serif" font-size="14.00" fill="#000000">core</text>
</g>
<!-- iface -->
<g id="node13" class="node">
<title>iface</title>
<ellipse fill="#ffffff" stroke="#000000" cx="500.3801" cy="-90" rx="29.5916" ry="18"/>
<text text-anchor="middle" x="500.3801" y="-85.8" font-family="Times,serif" font-size="14.00" fill="#000000">iface</text>
</g>
<!-- core&#45;&gt;iface -->
<g id="edge2" class="edge">
<title>core&#45;&gt;iface</title>
<path fill="none" stroke="#000000" d="M637.456,-151.6842C610.2048,-139.4211 564.5166,-118.8614 533.4441,-104.8788"/>
<polygon fill="#000000" stroke="#000000" points="534.8622,-101.6789 524.3067,-100.767 531.9896,-108.0624 534.8622,-101.6789"/>
</g>
<!-- defaults -->
<g id="node4" class="node">
<title>defaults</title>
<ellipse fill="#ffffff" stroke="#000000" cx="905.3801" cy="-378" rx="41.7095" ry="18"/>
<text text-anchor="middle" x="905.3801" y="-373.8" font-family="Times,serif" font-size="14.00" fill="#000000">defaults</text>
</g>
<!-- engine/auto -->
<g id="node5" class="node">
<title>engine/auto</title>
<ellipse fill="#ffffff" stroke="#000000" cx="897.3801" cy="-234" rx="56.1802" ry="18"/>
<text text-anchor="middle" x="897.3801" y="-229.8" font-family="Times,serif" font-size="14.00" fill="#000000">engine/auto</text>
</g>
<!-- defaults&#45;&gt;engine/auto -->
<g id="edge3" class="edge">
<title>defaults&#45;&gt;engine/auto</title>
<path fill="none" stroke="#000000" d="M904.3669,-359.7623C903.0024,-335.201 900.5605,-291.2474 898.9553,-262.3541"/>
<polygon fill="#000000" stroke="#000000" points="902.4345,-261.88 898.3851,-252.0896 895.4453,-262.2684 902.4345,-261.88"/>
</g>
<!-- engine/gcc -->
<g id="node8" class="node">
<title>engine/gcc</title>
<ellipse fill="#ffffff" stroke="#000000" cx="1141.3801" cy="-306" rx="52.7295" ry="18"/>
<text text-anchor="middle" x="1141.3801" y="-301.8" font-family="Times,serif" font-size="14.00" fill="#000000">engine/gcc</text>
</g>
<!-- defaults&#45;&gt;engine/gcc -->
<g id="edge4" class="edge">
<title>defaults&#45;&gt;engine/gcc</title>
<path fill="none" stroke="#000000" d="M939.4445,-367.6075C979.5211,-355.3807 1046.3799,-334.9831 1092.1049,-321.0331"/>
<polygon fill="#000000" stroke="#000000" points="1093.2665,-324.3381 1101.8099,-318.0723 1091.2238,-317.6427 1093.2665,-324.3381"/>
</g>
<!-- engine/null -->
<g id="node9" class="node">
<title>engine/null</title>
<ellipse fill="#ffffff" stroke="#000000" cx="759.3801" cy="-234" rx="54.4739" ry="18"/>
<text text-anchor="middle" x="759.3801" y="-229.8" font-family="Times,serif" font-size="14.00" fill="#000000">engine/null</text>
</g>
<!-- defaults&#45;&gt;engine/null -->
<g id="edge5" class="edge">
<title>defaults&#45;&gt;engine/null</title>
<path fill="none" stroke="#000000" d="M897.3873,-360.0413C888.0312,-340.5284 871.0241,-309.2966 849.3801,-288 835.3525,-274.1975 817.1426,-262.4301 800.7759,-253.4371"/>
<polygon fill="#000000" stroke="#000000" points="802.3848,-250.3287 791.9111,-248.7312 799.1026,-256.5115 802.3848,-250.3287"/>
</g>
<!-- engine/templight -->
<g id="node10" class="node">
<title>engine/templight</title>
<ellipse fill="#ffffff" stroke="#000000" cx="764.3801" cy="-306" rx="76.4632" ry="18"/>
<text text-anchor="middle" x="764.3801" y="-301.8" font-family="Times,serif" font-size="14.00" fill="#000000">engine/templight</text>
</g>
<!-- defaults&#45;&gt;engine/templight -->
<g id="edge6" class="edge">
<title>defaults&#45;&gt;engine/templight</title>
<path fill="none" stroke="#000000" d="M878.1939,-364.1177C857.5649,-353.5837 828.8576,-338.9247 805.4358,-326.9646"/>
<polygon fill="#000000" stroke="#000000" points="806.9171,-323.7911 796.4193,-322.3604 803.7336,-330.0254 806.9171,-323.7911"/>
</g>
<!-- engine/vc -->
<g id="node11" class="node">
<title>engine/vc</title>
<ellipse fill="#ffffff" stroke="#000000" cx="1311.3801" cy="-234" rx="48.6559" ry="18"/>
<text text-anchor="middle" x="1311.3801" y="-229.8" font-family="Times,serif" font-size="14.00" fill="#000000">engine/vc</text>
</g>
<!-- defaults&#45;&gt;engine/vc -->
<g id="edge7" class="edge">
<title>defaults&#45;&gt;engine/vc</title>
<path fill="none" stroke="#000000" d="M938.9632,-367.1687C948.6838,-364.4128 959.3734,-361.7416 969.3801,-360 1025.3464,-350.2593 1440.651,-365.5592 1479.3801,-324 1490.2882,-312.2948 1488.8051,-300.9294 1479.3801,-288 1478.4416,-286.7126 1407.7379,-264.2822 1358.3637,-248.7396"/>
<polygon fill="#000000" stroke="#000000" points="1359.3896,-245.3934 1348.8002,-245.7313 1357.2891,-252.0708 1359.3896,-245.3934"/>
</g>
<!-- engine/wave -->
<g id="node12" class="node">
<title>engine/wave</title>
<ellipse fill="#ffffff" stroke="#000000" cx="1272.3801" cy="-306" rx="59.6723" ry="18"/>
<text text-anchor="middle" x="1272.3801" y="-301.8" font-family="Times,serif" font-size="14.00" fill="#000000">engine/wave</text>
</g>
<!-- defaults&#45;&gt;engine/wave -->
<g id="edge8" class="edge">
<title>defaults&#45;&gt;engine/wave</title>
<path fill="none" stroke="#000000" d="M939.3984,-367.6042C949.0311,-364.8869 959.5662,-362.1268 969.3801,-360 1072.2166,-337.7145 1100.3366,-345.3084 1203.3801,-324 1208.3299,-322.9764 1213.4559,-321.8215 1218.5761,-320.6032"/>
<polygon fill="#000000" stroke="#000000" points="1219.4898,-323.9829 1228.3672,-318.1999 1217.8211,-317.1846 1219.4898,-323.9829"/>
</g>
<!-- pragma -->
<g id="node18" class="node">
<title>pragma</title>
<ellipse fill="#ffffff" stroke="#000000" cx="592.3801" cy="-306" rx="39.9876" ry="18"/>
<text text-anchor="middle" x="592.3801" y="-301.8" font-family="Times,serif" font-size="14.00" fill="#000000">pragma</text>
</g>
<!-- defaults&#45;&gt;pragma -->
<g id="edge9" class="edge">
<title>defaults&#45;&gt;pragma</title>
<path fill="none" stroke="#000000" d="M873.6841,-366.2999C867.0265,-364.0481 860.0118,-361.8256 853.3801,-360 853.2172,-359.9552 714.0914,-331.1756 639.0585,-315.6552"/>
<polygon fill="#000000" stroke="#000000" points="639.4192,-312.1558 628.9175,-313.5575 638.0012,-319.0106 639.4192,-312.1558"/>
</g>
<!-- engine/auto&#45;&gt;core -->
<g id="edge10" class="edge">
<title>engine/auto&#45;&gt;core</title>
<path fill="none" stroke="#000000" d="M856.6383,-221.6228C811.1817,-207.8131 738.3937,-185.7003 695.3998,-172.6389"/>
<polygon fill="#000000" stroke="#000000" points="696.249,-169.239 685.6634,-169.681 694.2142,-175.9367 696.249,-169.239"/>
</g>
<!-- engine/clang -->
<g id="node6" class="node">
<title>engine/clang</title>
<ellipse fill="#ffffff" stroke="#000000" cx="1086.3801" cy="-234" rx="60.2537" ry="18"/>
<text text-anchor="middle" x="1086.3801" y="-229.8" font-family="Times,serif" font-size="14.00" fill="#000000">engine/clang</text>
</g>
<!-- engine/clang&#45;&gt;core -->
<g id="edge11" class="edge">
<title>engine/clang&#45;&gt;core</title>
<path fill="none" stroke="#000000" d="M1033.7169,-225.0992C946.2276,-210.3123 773.0755,-181.0471 697.3218,-168.2437"/>
<polygon fill="#000000" stroke="#000000" points="697.7415,-164.765 687.298,-166.5495 696.5749,-171.6672 697.7415,-164.765"/>
</g>
<!-- process -->
<g id="node19" class="node">
<title>process</title>
<ellipse fill="#ffffff" stroke="#000000" cx="1311.3801" cy="-162" rx="39.9857" ry="18"/>
<text text-anchor="middle" x="1311.3801" y="-157.8" font-family="Times,serif" font-size="14.00" fill="#000000">process</text>
</g>
<!-- engine/clang&#45;&gt;process -->
<g id="edge12" class="edge">
<title>engine/clang&#45;&gt;process</title>
<path fill="none" stroke="#000000" d="M1127.6486,-220.7941C1167.8491,-207.9299 1228.6644,-188.469 1269.1798,-175.5041"/>
<polygon fill="#000000" stroke="#000000" points="1270.3071,-178.8183 1278.7646,-172.437 1268.1736,-172.1513 1270.3071,-178.8183"/>
</g>
<!-- engine/constant -->
<g id="node7" class="node">
<title>engine/constant</title>
<ellipse fill="#ffffff" stroke="#000000" cx="342.3801" cy="-306" rx="71.7892" ry="18"/>
<text text-anchor="middle" x="342.3801" y="-301.8" font-family="Times,serif" font-size="14.00" fill="#000000">engine/constant</text>
</g>
<!-- engine/constant&#45;&gt;core -->
<g id="edge13" class="edge">
<title>engine/constant&#45;&gt;core</title>
<path fill="none" stroke="#000000" d="M377.3213,-290.1776C439.3723,-262.079 567.9139,-203.8715 628.046,-176.6418"/>
<polygon fill="#000000" stroke="#000000" points="629.7637,-179.7062 637.4294,-172.3928 626.8761,-173.3296 629.7637,-179.7062"/>
</g>
<!-- engine/gcc&#45;&gt;engine/clang -->
<g id="edge14" class="edge">
<title>engine/gcc&#45;&gt;engine/clang</title>
<path fill="none" stroke="#000000" d="M1128.0661,-288.5708C1121.4763,-279.9441 1113.3898,-269.3582 1106.0986,-259.8134"/>
<polygon fill="#000000" stroke="#000000" points="1108.8053,-257.591 1099.9535,-251.7689 1103.2426,-261.8403 1108.8053,-257.591"/>
</g>
<!-- engine/null&#45;&gt;core -->
<g id="edge15" class="edge">
<title>engine/null&#45;&gt;core</title>
<path fill="none" stroke="#000000" d="M736.4187,-217.3008C721.6709,-206.5751 702.461,-192.6043 687.0395,-181.3887"/>
<polygon fill="#000000" stroke="#000000" points="689.0601,-178.5305 678.9141,-175.4793 684.9429,-184.1916 689.0601,-178.5305"/>
</g>
<!-- engine/templight&#45;&gt;engine/clang -->
<g id="edge16" class="edge">
<title>engine/templight&#45;&gt;engine/clang</title>
<path fill="none" stroke="#000000" d="M820.1006,-293.5408C878.2093,-280.5475 968.9006,-260.2687 1027.9857,-247.0571"/>
<polygon fill="#000000" stroke="#000000" points="1028.9151,-250.4358 1037.9104,-244.838 1027.3876,-243.6045 1028.9151,-250.4358"/>
</g>
<!-- engine/vc&#45;&gt;core -->
<g id="edge17" class="edge">
<title>engine/vc&#45;&gt;core</title>
<path fill="none" stroke="#000000" d="M1264.9715,-228.5687C1233.9509,-224.9571 1192.2265,-220.1355 1155.3801,-216 984.6066,-196.833 780.5786,-174.8724 697.912,-166.0139"/>
<polygon fill="#000000" stroke="#000000" points="698.0699,-162.5109 687.754,-164.9259 697.3244,-169.4711 698.0699,-162.5109"/>
</g>
<!-- engine/vc&#45;&gt;process -->
<g id="edge18" class="edge">
<title>engine/vc&#45;&gt;process</title>
<path fill="none" stroke="#000000" d="M1311.3801,-215.8314C1311.3801,-208.131 1311.3801,-198.9743 1311.3801,-190.4166"/>
<polygon fill="#000000" stroke="#000000" points="1314.8802,-190.4132 1311.3801,-180.4133 1307.8802,-190.4133 1314.8802,-190.4132"/>
</g>
<!-- engine/wave&#45;&gt;engine/clang -->
<g id="edge19" class="edge">
<title>engine/wave&#45;&gt;engine/clang</title>
<path fill="none" stroke="#000000" d="M1235.6325,-291.7751C1206.1771,-280.373 1164.6625,-264.3029 1132.892,-252.0046"/>
<polygon fill="#000000" stroke="#000000" points="1133.9584,-248.6644 1123.3692,-248.3184 1131.4314,-255.1924 1133.9584,-248.6644"/>
</g>
<!-- iface&#45;&gt;data -->
<g id="edge20" class="edge">
<title>iface&#45;&gt;data</title>
<path fill="none" stroke="#000000" d="M507.5486,-72.2022C510.8498,-64.0064 514.8389,-54.1024 518.4992,-45.0145"/>
<polygon fill="#000000" stroke="#000000" points="521.8044,-46.1766 522.294,-35.593 515.3113,-43.5612 521.8044,-46.1766"/>
</g>
<!-- main_shell -->
<g id="node14" class="node">
<title>main_shell</title>
<ellipse fill="#ffffff" stroke="#000000" cx="199.3801" cy="-306" rx="53.3283" ry="18"/>
<text text-anchor="middle" x="199.3801" y="-301.8" font-family="Times,serif" font-size="14.00" fill="#000000">main_shell</text>
</g>
<!-- main_shell&#45;&gt;core -->
<g id="edge21" class="edge">
<title>main_shell&#45;&gt;core</title>
<path fill="none" stroke="#000000" d="M235.2874,-292.6661C285.2052,-274.3374 378.5557,-240.8118 459.3801,-216 516.5772,-198.4414 583.8755,-181.005 624.2777,-170.8788"/>
<polygon fill="#000000" stroke="#000000" points="625.3373,-174.2218 634.1928,-168.4053 623.6429,-167.43 625.3373,-174.2218"/>
</g>
<!-- mdb -->
<g id="node15" class="node">
<title>mdb</title>
<ellipse fill="#ffffff" stroke="#000000" cx="592.3801" cy="-234" rx="28.4127" ry="18"/>
<text text-anchor="middle" x="592.3801" y="-229.8" font-family="Times,serif" font-size="14.00" fill="#000000">mdb</text>
</g>
<!-- mdb&#45;&gt;core -->
<g id="edge22" class="edge">
<title>mdb&#45;&gt;core</title>
<path fill="none" stroke="#000000" d="M607.1351,-218.3771C616.3133,-208.659 628.2812,-195.987 638.5454,-185.1191"/>
<polygon fill="#000000" stroke="#000000" points="641.3322,-187.2658 645.6539,-177.5924 636.2431,-182.4594 641.3322,-187.2658"/>
</g>
<!-- mock -->
<g id="node16" class="node">
<title>mock</title>
<ellipse fill="#ffffff" stroke="#000000" cx="464.3801" cy="-306" rx="32.4846" ry="18"/>
<text text-anchor="middle" x="464.3801" y="-301.8" font-family="Times,serif" font-size="14.00" fill="#000000">mock</text>
</g>
<!-- mock&#45;&gt;iface -->
<g id="edge23" class="edge">
<title>mock&#45;&gt;iface</title>
<path fill="none" stroke="#000000" d="M467.3875,-287.9555C473.661,-250.3144 488.1823,-163.1867 495.6927,-118.1246"/>
<polygon fill="#000000" stroke="#000000" points="499.1642,-118.5844 497.3559,-108.1451 492.2595,-117.4336 499.1642,-118.5844"/>
</g>
<!-- pattern -->
<g id="node17" class="node">
<title>pattern</title>
<ellipse fill="#ffffff" stroke="#000000" cx="1765.3801" cy="-162" rx="37.6986" ry="18"/>
<text text-anchor="middle" x="1765.3801" y="-157.8" font-family="Times,serif" font-size="14.00" fill="#000000">pattern</text>
</g>
<!-- pragma&#45;&gt;mdb -->
<g id="edge24" class="edge">
<title>pragma&#45;&gt;mdb</title>
<path fill="none" stroke="#000000" d="M592.3801,-287.8314C592.3801,-280.131 592.3801,-270.9743 592.3801,-262.4166"/>
<polygon fill="#000000" stroke="#000000" points="595.8802,-262.4132 592.3801,-252.4133 588.8802,-262.4133 595.8802,-262.4132"/>
</g>
<!-- process&#45;&gt;data -->
<g id="edge25" class="edge">
<title>process&#45;&gt;data</title>
<path fill="none" stroke="#000000" d="M1271.2717,-161.2904C1126.4084,-158.4244 635.7047,-145.9743 577.3801,-108 555.6997,-93.8842 543.132,-66.5689 536.3369,-45.7166"/>
<polygon fill="#000000" stroke="#000000" points="539.674,-44.6595 533.4503,-36.0853 532.9687,-46.6692 539.674,-44.6595"/>
</g>
<!-- readline -->
<g id="node20" class="node">
<title>readline</title>
<ellipse fill="#ffffff" stroke="#000000" cx="206.3801" cy="-234" rx="42.2719" ry="18"/>
<text text-anchor="middle" x="206.3801" y="-229.8" font-family="Times,serif" font-size="14.00" fill="#000000">readline</text>
</g>
<!-- readline&#45;&gt;iface -->
<g id="edge26" class="edge">
<title>readline&#45;&gt;iface</title>
<path fill="none" stroke="#000000" d="M240.438,-223.3931C249.179,-220.8244 258.5948,-218.1905 267.3801,-216 344.8502,-196.6842 377.6644,-225.345 443.3801,-180 465.4889,-164.7446 480.8577,-137.8318 490.0183,-117.3986"/>
<polygon fill="#000000" stroke="#000000" points="493.3357,-118.5405 494.0189,-107.9677 486.8916,-115.8068 493.3357,-118.5405"/>
</g>
<!-- replace_part -->
<g id="node21" class="node">
<title>replace_part</title>
<ellipse fill="#ffffff" stroke="#000000" cx="1037.3801" cy="-378" rx="58.5059" ry="18"/>
<text text-anchor="middle" x="1037.3801" y="-373.8" font-family="Times,serif" font-size="14.00" fill="#000000">replace_part</text>
</g>
<!-- system_test -->
<g id="node22" class="node">
<title>system_test</title>
<ellipse fill="#ffffff" stroke="#000000" cx="1765.3801" cy="-234" rx="56.1937" ry="18"/>
<text text-anchor="middle" x="1765.3801" y="-229.8" font-family="Times,serif" font-size="14.00" fill="#000000">system_test</text>
</g>
<!-- system_test&#45;&gt;pattern -->
<g id="edge27" class="edge">
<title>system_test&#45;&gt;pattern</title>
<path fill="none" stroke="#000000" d="M1765.3801,-215.8314C1765.3801,-208.131 1765.3801,-198.9743 1765.3801,-190.4166"/>
<polygon fill="#000000" stroke="#000000" points="1768.8802,-190.4132 1765.3801,-180.4133 1761.8802,-190.4133 1768.8802,-190.4132"/>
</g>
<!-- system_test&#45;&gt;process -->
<g id="edge28" class="edge">
<title>system_test&#45;&gt;process</title>
<path fill="none" stroke="#000000" d="M1715.0595,-226.0196C1626.8742,-212.0343 1445.5901,-183.2844 1359.2,-169.5838"/>
<polygon fill="#000000" stroke="#000000" points="1359.5725,-166.0992 1349.1477,-167.9896 1358.476,-173.0128 1359.5725,-166.0992"/>
</g>
<!-- app/metashell -->
<g id="node23" class="node">
<title>app/metashell</title>
<polygon fill="none" stroke="#000000" points="220.1364,-468 126.6238,-468 126.6238,-432 220.1364,-432 220.1364,-468"/>
<text text-anchor="middle" x="173.3801" y="-445.8" font-family="Times,serif" font-size="14.00" fill="#000000">app/metashell</text>
</g>
<!-- app/metashell&#45;&gt;defaults -->
<g id="edge29" class="edge">
<title>app/metashell&#45;&gt;defaults</title>
<path fill="none" stroke="#000000" d="M220.5176,-447.8168C353.865,-441.3933 731.9567,-421.4042 853.3801,-396 857.0562,-395.2309 860.8295,-394.2735 864.5835,-393.2039"/>
<polygon fill="#000000" stroke="#000000" points="865.8801,-396.4663 874.3953,-390.1622 863.8074,-389.7802 865.8801,-396.4663"/>
</g>
<!-- app/metashell&#45;&gt;main_shell -->
<g id="edge30" class="edge">
<title>app/metashell&#45;&gt;main_shell</title>
<path fill="none" stroke="#000000" d="M176.673,-431.7623C181.1272,-407.0928 189.1138,-362.8598 194.3294,-333.9731"/>
<polygon fill="#000000" stroke="#000000" points="197.7813,-334.5524 196.1139,-324.0896 190.8927,-333.3086 197.7813,-334.5524"/>
</g>
<!-- app/metashell&#45;&gt;readline -->
<g id="edge31" class="edge">
<title>app/metashell&#45;&gt;readline</title>
<path fill="none" stroke="#000000" d="M161.9446,-431.8417C144.0296,-400.8925 113.7189,-336.5633 137.3801,-288 144.3634,-273.6671 157.1948,-262.0188 169.915,-253.2593"/>
<polygon fill="#000000" stroke="#000000" points="172.1094,-256.0096 178.6302,-247.6592 168.3252,-250.1206 172.1094,-256.0096"/>
</g>
<!-- app/reference_gen -->
<g id="node24" class="node">
<title>app/reference_gen</title>
<polygon fill="none" stroke="#000000" points="965.2553,-468 845.5049,-468 845.5049,-432 965.2553,-432 965.2553,-468"/>
<text text-anchor="middle" x="905.3801" y="-445.8" font-family="Times,serif" font-size="14.00" fill="#000000">app/reference_gen</text>
</g>
<!-- app/reference_gen&#45;&gt;defaults -->
<g id="edge32" class="edge">
<title>app/reference_gen&#45;&gt;defaults</title>
<path fill="none" stroke="#000000" d="M905.3801,-431.8314C905.3801,-424.131 905.3801,-414.9743 905.3801,-406.4166"/>
<polygon fill="#000000" stroke="#000000" points="908.8802,-406.4132 905.3801,-396.4133 901.8802,-406.4133 908.8802,-406.4132"/>
</g>
<!-- app/reference_gen&#45;&gt;replace_part -->
<g id="edge33" class="edge">
<title>app/reference_gen&#45;&gt;replace_part</title>
<path fill="none" stroke="#000000" d="M938.6893,-431.8314C957.2824,-421.6897 980.5063,-409.0221 999.7537,-398.5235"/>
<polygon fill="#000000" stroke="#000000" points="1001.4621,-401.5785 1008.5651,-393.7173 998.1101,-395.4332 1001.4621,-401.5785"/>
</g>
<!-- app/stub/cl_de -->
<g id="node25" class="node">
<title>app/stub/cl_de</title>
<polygon fill="none" stroke="#000000" points="202.0315,-180 104.7287,-180 104.7287,-144 202.0315,-144 202.0315,-180"/>
<text text-anchor="middle" x="153.3801" y="-157.8" font-family="Times,serif" font-size="14.00" fill="#000000">app/stub/cl_de</text>
</g>
<!-- app/stub/cl_de&#45;&gt;compiler_stub -->
<g id="edge34" class="edge">
<title>app/stub/cl_de&#45;&gt;compiler_stub</title>
<path fill="none" stroke="#000000" d="M182.6518,-143.8314C198.1685,-134.2003 217.3552,-122.2913 233.7339,-112.1252"/>
<polygon fill="#000000" stroke="#000000" points="235.8525,-114.9296 242.5032,-106.6822 232.161,-108.9822 235.8525,-114.9296"/>
</g>
<!-- app/stub/cl_en -->
<g id="node26" class="node">
<title>app/stub/cl_en</title>
<polygon fill="none" stroke="#000000" points="318.0315,-180 220.7287,-180 220.7287,-144 318.0315,-144 318.0315,-180"/>
<text text-anchor="middle" x="269.3801" y="-157.8" font-family="Times,serif" font-size="14.00" fill="#000000">app/stub/cl_en</text>
</g>
<!-- app/stub/cl_en&#45;&gt;compiler_stub -->
<g id="edge35" class="edge">
<title>app/stub/cl_en&#45;&gt;compiler_stub</title>
<path fill="none" stroke="#000000" d="M269.3801,-143.8314C269.3801,-136.131 269.3801,-126.9743 269.3801,-118.4166"/>
<polygon fill="#000000" stroke="#000000" points="272.8802,-118.4132 269.3801,-108.4133 265.8802,-118.4133 272.8802,-118.4132"/>
</g>
<!-- app/stub/clang -->
<g id="node27" class="node">
<title>app/stub/clang</title>
<polygon fill="none" stroke="#000000" points="434.0315,-180 336.7287,-180 336.7287,-144 434.0315,-144 434.0315,-180"/>
<text text-anchor="middle" x="385.3801" y="-157.8" font-family="Times,serif" font-size="14.00" fill="#000000">app/stub/clang</text>
</g>
<!-- app/stub/clang&#45;&gt;compiler_stub -->
<g id="edge36" class="edge">
<title>app/stub/clang&#45;&gt;compiler_stub</title>
<path fill="none" stroke="#000000" d="M356.1084,-143.8314C340.5917,-134.2003 321.405,-122.2913 305.0263,-112.1252"/>
<polygon fill="#000000" stroke="#000000" points="306.5992,-108.9822 296.257,-106.6822 302.9077,-114.9296 306.5992,-108.9822"/>
</g>
<!-- app/stub/gcc -->
<g id="node28" class="node">
<title>app/stub/gcc</title>
<polygon fill="none" stroke="#000000" points="86.6406,-180 .1196,-180 .1196,-144 86.6406,-144 86.6406,-180"/>
<text text-anchor="middle" x="43.3801" y="-157.8" font-family="Times,serif" font-size="14.00" fill="#000000">app/stub/gcc</text>
</g>
<!-- app/stub/gcc&#45;&gt;compiler_stub -->
<g id="edge37" class="edge">
<title>app/stub/gcc&#45;&gt;compiler_stub</title>
<path fill="none" stroke="#000000" d="M86.7562,-146.8678C89.6713,-145.8871 92.5662,-144.9234 95.3801,-144 135.3152,-130.8951 180.6739,-116.8454 215.0657,-106.3627"/>
<polygon fill="#000000" stroke="#000000" points="216.3654,-109.6258 224.914,-103.367 214.3282,-102.9287 216.3654,-109.6258"/>
</g>
<!-- test/system/auto_engine -->
<g id="node29" class="node">
<title>test/system/auto_engine</title>
<polygon fill="none" stroke="#000000" points="1528.4124,-252 1378.3478,-252 1378.3478,-216 1528.4124,-216 1528.4124,-252"/>
<text text-anchor="middle" x="1453.3801" y="-229.8" font-family="Times,serif" font-size="14.00" fill="#000000">test/system/auto_engine</text>
</g>
<!-- test/system/auto_engine&#45;&gt;process -->
<g id="edge38" class="edge">
<title>test/system/auto_engine&#45;&gt;process</title>
<path fill="none" stroke="#000000" d="M1417.5475,-215.8314C1396.0766,-204.9447 1368.8653,-191.1474 1347.3669,-180.2468"/>
<polygon fill="#000000" stroke="#000000" points="1348.7371,-177.0174 1338.2353,-175.6167 1345.5715,-183.2607 1348.7371,-177.0174"/>
</g>
<!-- test/system/core -->
<g id="node30" class="node">
<title>test/system/core</title>
<polygon fill="none" stroke="#000000" points="1632.5767,-324 1526.1835,-324 1526.1835,-288 1632.5767,-288 1632.5767,-324"/>
<text text-anchor="middle" x="1579.3801" y="-301.8" font-family="Times,serif" font-size="14.00" fill="#000000">test/system/core</text>
</g>
<!-- test/system/core&#45;&gt;system_test -->
<g id="edge39" class="edge">
<title>test/system/core&#45;&gt;system_test</title>
<path fill="none" stroke="#000000" d="M1626.3158,-287.8314C1654.9075,-276.7636 1691.2707,-262.6875 1719.6416,-251.7052"/>
<polygon fill="#000000" stroke="#000000" points="1721.2554,-254.8337 1729.3176,-247.9597 1718.7284,-248.3057 1721.2554,-254.8337"/>
</g>
<!-- test/system/mdb -->
<g id="node31" class="node">
<title>test/system/mdb</title>
<polygon fill="none" stroke="#000000" points="1757.8773,-324 1650.8829,-324 1650.8829,-288 1757.8773,-288 1757.8773,-324"/>
<text text-anchor="middle" x="1704.3801" y="-301.8" font-family="Times,serif" font-size="14.00" fill="#000000">test/system/mdb</text>
</g>
<!-- test/system/mdb&#45;&gt;system_test -->
<g id="edge40" class="edge">
<title>test/system/mdb&#45;&gt;system_test</title>
<path fill="none" stroke="#000000" d="M1719.773,-287.8314C1727.0888,-279.1962 1735.9561,-268.7299 1743.9196,-259.3304"/>
<polygon fill="#000000" stroke="#000000" points="1746.8297,-261.31 1750.6234,-251.4177 1741.4888,-256.7851 1746.8297,-261.31"/>
</g>
<!-- test/system/pdb -->
<g id="node32" class="node">
<title>test/system/pdb</title>
<polygon fill="none" stroke="#000000" points="1878.9868,-324 1775.7734,-324 1775.7734,-288 1878.9868,-288 1878.9868,-324"/>
<text text-anchor="middle" x="1827.3801" y="-301.8" font-family="Times,serif" font-size="14.00" fill="#000000">test/system/pdb</text>
</g>
<!-- test/system/pdb&#45;&gt;system_test -->
<g id="edge41" class="edge">
<title>test/system/pdb&#45;&gt;system_test</title>
<path fill="none" stroke="#000000" d="M1811.7349,-287.8314C1804.224,-279.109 1795.1042,-268.5183 1786.9474,-259.0459"/>
<polygon fill="#000000" stroke="#000000" points="1789.5562,-256.7116 1780.3787,-251.4177 1784.2518,-261.2793 1789.5562,-256.7116"/>
</g>
<!-- test/system/pp -->
<g id="node33" class="node">
<title>test/system/pp</title>
<polygon fill="none" stroke="#000000" points="1993.4868,-324 1897.2734,-324 1897.2734,-288 1993.4868,-288 1993.4868,-324"/>
<text text-anchor="middle" x="1945.3801" y="-301.8" font-family="Times,serif" font-size="14.00" fill="#000000">test/system/pp</text>
</g>
<!-- test/system/pp&#45;&gt;system_test -->
<g id="edge42" class="edge">
<title>test/system/pp&#45;&gt;system_test</title>
<path fill="none" stroke="#000000" d="M1899.9585,-287.8314C1872.3822,-276.8008 1837.3358,-262.7823 1809.9208,-251.8163"/>
<polygon fill="#000000" stroke="#000000" points="1811.1514,-248.539 1800.5668,-248.0747 1808.5516,-255.0383 1811.1514,-248.539"/>
</g>
<!-- test/unit/core -->
<g id="node34" class="node">
<title>test/unit/core</title>
<polygon fill="none" stroke="#000000" points="666.9727,-396 577.7875,-396 577.7875,-360 666.9727,-360 666.9727,-396"/>
<text text-anchor="middle" x="622.3801" y="-373.8" font-family="Times,serif" font-size="14.00" fill="#000000">test/unit/core</text>
</g>
<!-- test/unit/core&#45;&gt;core -->
<g id="edge43" class="edge">
<title>test/unit/core&#45;&gt;core</title>
<path fill="none" stroke="#000000" d="M629.9174,-359.8051C633.9085,-349.4716 638.5553,-336.1996 641.3801,-324 652.0549,-277.8981 656.8894,-222.9543 658.9597,-190.3566"/>
<polygon fill="#000000" stroke="#000000" points="662.4636,-190.3927 659.5603,-180.2035 655.4758,-189.9793 662.4636,-190.3927"/>
</g>
<!-- test/unit/core&#45;&gt;mock -->
<g id="edge44" class="edge">
<title>test/unit/core&#45;&gt;mock</title>
<path fill="none" stroke="#000000" d="M582.51,-359.8314C556.8458,-348.1362 523.8105,-333.0822 499.2031,-321.8687"/>
<polygon fill="#000000" stroke="#000000" points="500.4373,-318.5849 489.8862,-317.623 497.5346,-324.9547 500.4373,-318.5849"/>
</g>
<!-- test/unit/data -->
<g id="node35" class="node">
<title>test/unit/data</title>
<polygon fill="none" stroke="#000000" points="674.7033,-108 586.0569,-108 586.0569,-72 674.7033,-72 674.7033,-108"/>
<text text-anchor="middle" x="630.3801" y="-85.8" font-family="Times,serif" font-size="14.00" fill="#000000">test/unit/data</text>
</g>
<!-- test/unit/data&#45;&gt;data -->
<g id="edge45" class="edge">
<title>test/unit/data&#45;&gt;data</title>
<path fill="none" stroke="#000000" d="M604.8935,-71.8314C590.1406,-61.3144 571.5773,-48.0812 556.548,-37.3672"/>
<polygon fill="#000000" stroke="#000000" points="558.3373,-34.3445 548.1629,-31.3897 554.274,-40.0445 558.3373,-34.3445"/>
</g>
<!-- test/unit/engine/clang -->
<g id="node36" class="node">
<title>test/unit/engine/clang</title>
<polygon fill="none" stroke="#000000" points="1070.4139,-324 934.3463,-324 934.3463,-288 1070.4139,-288 1070.4139,-324"/>
<text text-anchor="middle" x="1002.3801" y="-301.8" font-family="Times,serif" font-size="14.00" fill="#000000">test/unit/engine/clang</text>
</g>
<!-- test/unit/engine/clang&#45;&gt;engine/clang -->
<g id="edge46" class="edge">
<title>test/unit/engine/clang&#45;&gt;engine/clang</title>
<path fill="none" stroke="#000000" d="M1023.5768,-287.8314C1034.2389,-278.6924 1047.294,-267.5024 1058.734,-257.6967"/>
<polygon fill="#000000" stroke="#000000" points="1061.0319,-260.3368 1066.3467,-251.1715 1056.4764,-255.022 1061.0319,-260.3368"/>
</g>
<!-- test/unit/engine/templight -->
<g id="node37" class="node">
<title>test/unit/engine/templight</title>
<polygon fill="none" stroke="#000000" points="844.2609,-396 684.4993,-396 684.4993,-360 844.2609,-360 844.2609,-396"/>
<text text-anchor="middle" x="764.3801" y="-373.8" font-family="Times,serif" font-size="14.00" fill="#000000">test/unit/engine/templight</text>
</g>
<!-- test/unit/engine/templight&#45;&gt;engine/templight -->
<g id="edge47" class="edge">
<title>test/unit/engine/templight&#45;&gt;engine/templight</title>
<path fill="none" stroke="#000000" d="M764.3801,-359.8314C764.3801,-352.131 764.3801,-342.9743 764.3801,-334.4166"/>
<polygon fill="#000000" stroke="#000000" points="767.8802,-334.4132 764.3801,-324.4133 760.8802,-334.4133 767.8802,-334.4132"/>
</g>
<!-- test/unit/engine/templight&#45;&gt;mock -->
<g id="edge48" class="edge">
<title>test/unit/engine/templight&#45;&gt;mock</title>
<path fill="none" stroke="#000000" d="M689.0647,-359.9243C630.3671,-345.8369 551.1848,-326.8331 504.1876,-315.5538"/>
<polygon fill="#000000" stroke="#000000" points="504.9237,-312.1311 494.383,-313.2007 503.29,-318.9379 504.9237,-312.1311"/>
</g>
<!-- test/unit/engine/vc -->
<g id="node38" class="node">
<title>test/unit/engine/vc</title>
<polygon fill="none" stroke="#000000" points="1470.3087,-324 1350.4515,-324 1350.4515,-288 1470.3087,-288 1470.3087,-324"/>
<text text-anchor="middle" x="1410.3801" y="-301.8" font-family="Times,serif" font-size="14.00" fill="#000000">test/unit/engine/vc</text>
</g>
<!-- test/unit/engine/vc&#45;&gt;engine/vc -->
<g id="edge49" class="edge">
<title>test/unit/engine/vc&#45;&gt;engine/vc</title>
<path fill="none" stroke="#000000" d="M1385.3982,-287.8314C1372.211,-278.2407 1355.9179,-266.3911 1341.9781,-256.2531"/>
<polygon fill="#000000" stroke="#000000" points="1343.7976,-253.2486 1333.6516,-250.1975 1339.6804,-258.9098 1343.7976,-253.2486"/>
</g>
<!-- test/unit/main_shell -->
<g id="node39" class="node">
<title>test/unit/main_shell</title>
<polygon fill="none" stroke="#000000" points="327.8199,-396 200.9403,-396 200.9403,-360 327.8199,-360 327.8199,-396"/>
<text text-anchor="middle" x="264.3801" y="-373.8" font-family="Times,serif" font-size="14.00" fill="#000000">test/unit/main_shell</text>
</g>
<!-- test/unit/main_shell&#45;&gt;engine/constant -->
<g id="edge50" class="edge">
<title>test/unit/main_shell&#45;&gt;engine/constant</title>
<path fill="none" stroke="#000000" d="M284.0628,-359.8314C293.701,-350.9346 305.445,-340.0939 315.8613,-330.4789"/>
<polygon fill="#000000" stroke="#000000" points="318.5368,-332.7724 323.5109,-323.4177 313.7889,-327.6287 318.5368,-332.7724"/>
</g>
<!-- test/unit/main_shell&#45;&gt;main_shell -->
<g id="edge51" class="edge">
<title>test/unit/main_shell&#45;&gt;main_shell</title>
<path fill="none" stroke="#000000" d="M247.9779,-359.8314C240.1035,-351.109 230.5424,-340.5183 221.991,-331.0459"/>
<polygon fill="#000000" stroke="#000000" points="224.4034,-328.495 215.1044,-323.4177 219.2075,-333.1858 224.4034,-328.495"/>
</g>
<!-- test/unit/main_shell&#45;&gt;mock -->
<g id="edge52" class="edge">
<title>test/unit/main_shell&#45;&gt;mock</title>
<path fill="none" stroke="#000000" d="M321.4711,-359.9332C351.9451,-349.9581 389.9559,-336.985 423.3801,-324 425.4407,-323.1995 427.5495,-322.3547 429.6703,-321.4853"/>
<polygon fill="#000000" stroke="#000000" points="431.0798,-324.6895 438.9331,-317.5778 428.359,-318.2398 431.0798,-324.6895"/>
</g>
<!-- test/unit/mdb -->
<g id="node40" class="node">
<title>test/unit/mdb</title>
<polygon fill="none" stroke="#000000" points="560.2736,-396 470.4866,-396 470.4866,-360 560.2736,-360 560.2736,-396"/>
<text text-anchor="middle" x="515.3801" y="-373.8" font-family="Times,serif" font-size="14.00" fill="#000000">test/unit/mdb</text>
</g>
<!-- test/unit/mdb&#45;&gt;engine/constant -->
<g id="edge53" class="edge">
<title>test/unit/mdb&#45;&gt;engine/constant</title>
<path fill="none" stroke="#000000" d="M471.7249,-359.8314C446.5176,-349.3405 414.8159,-336.1467 389.1066,-325.4468"/>
<polygon fill="#000000" stroke="#000000" points="390.1498,-322.0901 379.5726,-321.479 387.4601,-328.5527 390.1498,-322.0901"/>
</g>
<!-- test/unit/mdb&#45;&gt;mdb -->
<g id="edge54" class="edge">
<title>test/unit/mdb&#45;&gt;mdb</title>
<path fill="none" stroke="#000000" d="M518.6123,-359.8171C522.5069,-340.9423 530.2253,-311.015 543.3801,-288 550.0547,-276.3224 559.6295,-265.0362 568.5473,-255.8281"/>
<polygon fill="#000000" stroke="#000000" points="571.177,-258.1493 575.8057,-248.6191 566.2441,-253.1827 571.177,-258.1493"/>
</g>
<!-- test/unit/pragma -->
<g id="node41" class="node">
<title>test/unit/pragma</title>
<polygon fill="none" stroke="#000000" points="452.8633,-396 345.8969,-396 345.8969,-360 452.8633,-360 452.8633,-396"/>
<text text-anchor="middle" x="399.3801" y="-373.8" font-family="Times,serif" font-size="14.00" fill="#000000">test/unit/pragma</text>
</g>
<!-- test/unit/pragma&#45;&gt;engine/constant -->
<g id="edge55" class="edge">
<title>test/unit/pragma&#45;&gt;engine/constant</title>
<path fill="none" stroke="#000000" d="M384.9966,-359.8314C378.3305,-351.411 370.286,-341.2495 362.9902,-332.0338"/>
<polygon fill="#000000" stroke="#000000" points="365.5128,-329.5814 356.5616,-323.9134 360.0244,-333.9264 365.5128,-329.5814"/>
</g>
<!-- test/unit/pragma&#45;&gt;main_shell -->
<g id="edge56" class="edge">
<title>test/unit/pragma&#45;&gt;main_shell</title>
<path fill="none" stroke="#000000" d="M349.1698,-359.9243C317.4289,-348.4976 276.7029,-333.8362 245.7308,-322.6862"/>
<polygon fill="#000000" stroke="#000000" points="246.6358,-319.2922 236.0414,-319.1981 244.2647,-325.8784 246.6358,-319.2922"/>
</g>
<!-- test/unit/pragma&#45;&gt;mock -->
<g id="edge57" class="edge">
<title>test/unit/pragma&#45;&gt;mock</title>
<path fill="none" stroke="#000000" d="M415.7823,-359.8314C423.9728,-350.7588 433.9882,-339.6649 442.7942,-329.9106"/>
<polygon fill="#000000" stroke="#000000" points="445.436,-332.2074 449.5391,-322.4393 440.2401,-327.5166 445.436,-332.2074"/>
</g>
<!-- test/unit/pragma&#45;&gt;pragma -->
<g id="edge58" class="edge">
<title>test/unit/pragma&#45;&gt;pragma</title>
<path fill="none" stroke="#000000" d="M448.0821,-359.8314C480.2259,-347.8399 521.8355,-332.3171 552.1078,-321.0238"/>
<polygon fill="#000000" stroke="#000000" points="553.3659,-324.2902 561.5118,-317.5156 550.9191,-317.7317 553.3659,-324.2902"/>
</g>
<!-- test/unit/replace_part -->
<g id="node42" class="node">
<title>test/unit/replace_part</title>
<polygon fill="none" stroke="#000000" points="1117.5584,-468 983.2018,-468 983.2018,-432 1117.5584,-432 1117.5584,-468"/>
<text text-anchor="middle" x="1050.3801" y="-445.8" font-family="Times,serif" font-size="14.00" fill="#000000">test/unit/replace_part</text>
</g>
<!-- test/unit/replace_part&#45;&gt;replace_part -->
<g id="edge59" class="edge">
<title>test/unit/replace_part&#45;&gt;replace_part</title>
<path fill="none" stroke="#000000" d="M1047.0997,-431.8314C1045.7093,-424.131 1044.056,-414.9743 1042.5109,-406.4166"/>
<polygon fill="#000000" stroke="#000000" points="1045.9259,-405.6322 1040.7047,-396.4133 1039.0373,-406.8761 1045.9259,-405.6322"/>
</g>
<!-- test/unit/system_test -->
<g id="node43" class="node">
<title>test/unit/system_test</title>
<polygon fill="none" stroke="#000000" points="2141.7087,-324 2011.0515,-324 2011.0515,-288 2141.7087,-288 2141.7087,-324"/>
<text text-anchor="middle" x="2076.3801" y="-301.8" font-family="Times,serif" font-size="14.00" fill="#000000">test/unit/system_test</text>
</g>
<!-- test/unit/system_test&#45;&gt;system_test -->
<g id="edge60" class="edge">
<title>test/unit/system_test&#45;&gt;system_test</title>
<path fill="none" stroke="#000000" d="M2011.0225,-290.0475C2008.1026,-289.3521 2005.2114,-288.6669 2002.3801,-288 1940.6388,-273.4579 1869.6968,-257.3766 1821.6429,-246.5768"/>
<polygon fill="#000000" stroke="#000000" points="1822.2715,-243.1308 1811.7476,-244.3548 1820.7378,-249.9608 1822.2715,-243.1308"/>
</g>
</g>
</svg>
