<?xml version="1.0" encoding="UTF-8" standalone="no"?>
<!DOCTYPE svg PUBLIC "-//W3C//DTD SVG 1.1//EN"
 "http://www.w3.org/Graphics/SVG/1.1/DTD/svg11.dtd">
<!-- Generated by graphviz version 2.40.1
 -->
<!-- Title: %3 Pages: 1 -->
<svg width="2063pt" height="476pt"
 viewBox="0.00 0.00 2063.09 476.00" xmlns="http://www.w3.org/2000/svg" xmlns:xlink="http://www.w3.org/1999/xlink">
<g id="graph0" class="graph" transform="scale(1 1) rotate(0) translate(4 472)">
<title>%3</title>
<polygon fill="#ffffff" stroke="transparent" points="-4,4 -4,-472 2059.0891,-472 2059.0891,4 -4,4"/>
<!-- core -->
<g id="node1" class="node">
<title>core</title>
<ellipse fill="#ffffff" stroke="#000000" cx="818.0891" cy="-162" rx="27.8073" ry="18"/>
<text text-anchor="middle" x="818.0891" y="-157.8" font-family="Times,serif" font-size="14.00" fill="#000000">core</text>
</g>
<!-- data -->
<g id="node2" class="node">
<title>data</title>
<ellipse fill="#ffffff" stroke="#000000" cx="1054.0891" cy="-18" rx="27.2447" ry="18"/>
<text text-anchor="middle" x="1054.0891" y="-13.8" font-family="Times,serif" font-size="14.00" fill="#000000">data</text>
</g>
<!-- core&#45;&gt;data -->
<g id="edge1" class="edge">
<title>core&#45;&gt;data</title>
<path fill="none" stroke="#000000" d="M838.6197,-149.4729C880.761,-123.7595 977.1122,-64.969 1025.3982,-35.5063"/>
<polygon fill="#000000" stroke="#000000" points="1027.3944,-38.3884 1034.1078,-30.192 1023.7483,-32.4129 1027.3944,-38.3884"/>
</g>
<!-- iface -->
<g id="node6" class="node">
<title>iface</title>
<ellipse fill="#ffffff" stroke="#000000" cx="760.0891" cy="-90" rx="29.5916" ry="18"/>
<text text-anchor="middle" x="760.0891" y="-85.8" font-family="Times,serif" font-size="14.00" fill="#000000">iface</text>
</g>
<!-- core&#45;&gt;iface -->
<g id="edge2" class="edge">
<title>core&#45;&gt;iface</title>
<path fill="none" stroke="#000000" d="M805.217,-146.0209C797.7382,-136.7368 788.1611,-124.848 779.7552,-114.413"/>
<polygon fill="#000000" stroke="#000000" points="782.3263,-112.0255 773.3273,-106.4336 776.875,-116.4169 782.3263,-112.0255"/>
</g>
<!-- process -->
<g id="node12" class="node">
<title>process</title>
<ellipse fill="#ffffff" stroke="#000000" cx="1122.0891" cy="-90" rx="39.9857" ry="18"/>
<text text-anchor="middle" x="1122.0891" y="-85.8" font-family="Times,serif" font-size="14.00" fill="#000000">process</text>
</g>
<!-- core&#45;&gt;process -->
<g id="edge3" class="edge">
<title>core&#45;&gt;process</title>
<path fill="none" stroke="#000000" d="M842.0118,-152.8397C850.4881,-149.7857 860.1423,-146.5223 869.0891,-144 939.66,-124.1047 1023.1113,-107.6239 1074.3161,-98.2936"/>
<polygon fill="#000000" stroke="#000000" points="1075.2063,-101.6896 1084.4252,-96.4682 1073.9624,-94.8009 1075.2063,-101.6896"/>
</g>
<!-- defaults -->
<g id="node3" class="node">
<title>defaults</title>
<ellipse fill="#ffffff" stroke="#000000" cx="571.0891" cy="-378" rx="41.7095" ry="18"/>
<text text-anchor="middle" x="571.0891" y="-373.8" font-family="Times,serif" font-size="14.00" fill="#000000">defaults</text>
</g>
<!-- defaults&#45;&gt;core -->
<g id="edge4" class="edge">
<title>defaults&#45;&gt;core</title>
<path fill="none" stroke="#000000" d="M604.7077,-367.0817C651.5377,-350.1069 735.7462,-312.8592 781.0891,-252 795.0557,-233.254 804.734,-208.4782 810.6792,-189.6681"/>
<polygon fill="#000000" stroke="#000000" points="814.086,-190.4917 813.6015,-179.908 807.3801,-188.4838 814.086,-190.4917"/>
</g>
<!-- engine/null -->
<g id="node5" class="node">
<title>engine/null</title>
<ellipse fill="#ffffff" stroke="#000000" cx="629.0891" cy="-306" rx="54.4739" ry="18"/>
<text text-anchor="middle" x="629.0891" y="-301.8" font-family="Times,serif" font-size="14.00" fill="#000000">engine/null</text>
</g>
<!-- defaults&#45;&gt;engine/null -->
<g id="edge5" class="edge">
<title>defaults&#45;&gt;engine/null</title>
<path fill="none" stroke="#000000" d="M584.8343,-360.937C591.9528,-352.1003 600.7856,-341.1354 608.6835,-331.3311"/>
<polygon fill="#000000" stroke="#000000" points="611.492,-333.4239 615.0397,-323.4407 606.0407,-329.0326 611.492,-333.4239"/>
</g>
<!-- defaults&#45;&gt;iface -->
<g id="edge6" class="edge">
<title>defaults&#45;&gt;iface</title>
<path fill="none" stroke="#000000" d="M530.9445,-373.1229C470.6756,-365.1343 360.5177,-347.7417 329.0891,-324 288.3682,-293.2388 275.3003,-264.844 290.0891,-216 301.234,-179.191 305.4032,-164.2669 338.0891,-144 401.4797,-104.6946 627.5066,-93.7974 720.097,-90.9484"/>
<polygon fill="#000000" stroke="#000000" points="720.2972,-94.4441 730.1907,-90.6537 720.0928,-87.4471 720.2972,-94.4441"/>
</g>
<!-- pragma -->
<g id="node11" class="node">
<title>pragma</title>
<ellipse fill="#ffffff" stroke="#000000" cx="513.0891" cy="-306" rx="39.9876" ry="18"/>
<text text-anchor="middle" x="513.0891" y="-301.8" font-family="Times,serif" font-size="14.00" fill="#000000">pragma</text>
</g>
<!-- defaults&#45;&gt;pragma -->
<g id="edge7" class="edge">
<title>defaults&#45;&gt;pragma</title>
<path fill="none" stroke="#000000" d="M557.3439,-360.937C550.1207,-351.9703 541.1324,-340.8124 533.1469,-330.8993"/>
<polygon fill="#000000" stroke="#000000" points="535.7346,-328.5324 526.7356,-322.9405 530.2833,-332.9237 535.7346,-328.5324"/>
</g>
<!-- engine/constant -->
<g id="node4" class="node">
<title>engine/constant</title>
<ellipse fill="#ffffff" stroke="#000000" cx="635.0891" cy="-234" rx="71.7892" ry="18"/>
<text text-anchor="middle" x="635.0891" y="-229.8" font-family="Times,serif" font-size="14.00" fill="#000000">engine/constant</text>
</g>
<!-- engine/constant&#45;&gt;core -->
<g id="edge8" class="edge">
<title>engine/constant&#45;&gt;core</title>
<path fill="none" stroke="#000000" d="M673.8987,-218.7307C706.8446,-205.7683 753.6157,-187.3666 784.861,-175.0733"/>
<polygon fill="#000000" stroke="#000000" points="786.3986,-178.2296 794.4229,-171.3113 783.8357,-171.7156 786.3986,-178.2296"/>
</g>
<!-- engine/constant&#45;&gt;data -->
<g id="edge9" class="edge">
<title>engine/constant&#45;&gt;data</title>
<path fill="none" stroke="#000000" d="M638.8818,-215.9838C647.1543,-181.5852 670.2967,-106.879 721.0891,-72 768.6416,-39.3458 940.1785,-24.9719 1016.7395,-20.08"/>
<polygon fill="#000000" stroke="#000000" points="1017.1249,-23.563 1026.8895,-19.4518 1016.6924,-16.5764 1017.1249,-23.563"/>
</g>
<!-- engine/constant&#45;&gt;iface -->
<g id="edge10" class="edge">
<title>engine/constant&#45;&gt;iface</title>
<path fill="none" stroke="#000000" d="M650.4166,-216.3428C672.8224,-190.5312 714.5658,-142.4428 739.5895,-113.6155"/>
<polygon fill="#000000" stroke="#000000" points="742.2619,-115.8761 746.1741,-106.03 736.9757,-111.2874 742.2619,-115.8761"/>
</g>
<!-- engine/null&#45;&gt;core -->
<g id="edge11" class="edge">
<title>engine/null&#45;&gt;core</title>
<path fill="none" stroke="#000000" d="M669.0786,-293.645C693.8099,-284.7017 725.2689,-270.8632 749.0891,-252 771.6079,-234.1673 790.87,-207.4295 803.2736,-187.7285"/>
<polygon fill="#000000" stroke="#000000" points="806.4041,-189.3181 808.6364,-178.9611 800.4326,-185.6655 806.4041,-189.3181"/>
</g>
<!-- iface&#45;&gt;data -->
<g id="edge12" class="edge">
<title>iface&#45;&gt;data</title>
<path fill="none" stroke="#000000" d="M787.7479,-83.2264C841.2823,-70.1159 959.0051,-41.2859 1018.3686,-26.7479"/>
<polygon fill="#000000" stroke="#000000" points="1019.5233,-30.0686 1028.4037,-24.2903 1017.8582,-23.2695 1019.5233,-30.0686"/>
</g>
<!-- main_shell -->
<g id="node7" class="node">
<title>main_shell</title>
<ellipse fill="#ffffff" stroke="#000000" cx="1190.0891" cy="-234" rx="53.3283" ry="18"/>
<text text-anchor="middle" x="1190.0891" y="-229.8" font-family="Times,serif" font-size="14.00" fill="#000000">main_shell</text>
</g>
<!-- main_shell&#45;&gt;core -->
<g id="edge13" class="edge">
<title>main_shell&#45;&gt;core</title>
<path fill="none" stroke="#000000" d="M1141.0793,-226.8159C1064.4063,-215.3973 919.6307,-193.0659 869.0891,-180 863.3237,-178.5095 857.2847,-176.6528 851.4617,-174.7028"/>
<polygon fill="#000000" stroke="#000000" points="852.5469,-171.3745 841.9521,-171.3811 850.2386,-177.983 852.5469,-171.3745"/>
</g>
<!-- main_shell&#45;&gt;data -->
<g id="edge14" class="edge">
<title>main_shell&#45;&gt;data</title>
<path fill="none" stroke="#000000" d="M1193.2512,-215.9333C1197.845,-183.6929 1202.6816,-115.5518 1171.0891,-72 1152.0445,-45.7461 1117.0463,-31.9096 1090.2723,-24.8462"/>
<polygon fill="#000000" stroke="#000000" points="1091.0081,-21.4231 1080.464,-22.4589 1089.3526,-28.2246 1091.0081,-21.4231"/>
</g>
<!-- main_shell&#45;&gt;iface -->
<g id="edge15" class="edge">
<title>main_shell&#45;&gt;iface</title>
<path fill="none" stroke="#000000" d="M1161.3059,-218.7218C1123.411,-199.1234 1054.2953,-165.1445 992.0891,-144 925.6567,-121.419 845.3746,-105.0499 798.782,-96.5775"/>
<polygon fill="#000000" stroke="#000000" points="799.2697,-93.1092 788.8093,-94.7914 798.0356,-99.9996 799.2697,-93.1092"/>
</g>
<!-- mdb -->
<g id="node8" class="node">
<title>mdb</title>
<ellipse fill="#ffffff" stroke="#000000" cx="327.0891" cy="-234" rx="28.4127" ry="18"/>
<text text-anchor="middle" x="327.0891" y="-229.8" font-family="Times,serif" font-size="14.00" fill="#000000">mdb</text>
</g>
<!-- mdb&#45;&gt;core -->
<g id="edge16" class="edge">
<title>mdb&#45;&gt;core</title>
<path fill="none" stroke="#000000" d="M354.8942,-229.9227C438.2907,-217.6935 686.3721,-181.3149 780.9218,-167.4502"/>
<polygon fill="#000000" stroke="#000000" points="781.5047,-170.9022 790.891,-165.9883 780.489,-163.9763 781.5047,-170.9022"/>
</g>
<!-- mdb&#45;&gt;data -->
<g id="edge17" class="edge">
<title>mdb&#45;&gt;data</title>
<path fill="none" stroke="#000000" d="M326.0291,-215.8275C325.6589,-196.9611 327.1611,-167.0407 338.0891,-144 357.0827,-103.9539 367.083,-91.0776 407.0891,-72 462.135,-45.7504 886.4964,-25.2907 1016.414,-19.5912"/>
<polygon fill="#000000" stroke="#000000" points="1016.8196,-23.0769 1026.6581,-19.1457 1016.5154,-16.0836 1016.8196,-23.0769"/>
</g>
<!-- mdb&#45;&gt;iface -->
<g id="edge18" class="edge">
<title>mdb&#45;&gt;iface</title>
<path fill="none" stroke="#000000" d="M330.2201,-215.8764C334.8481,-194.9824 345.6414,-161.3018 369.0891,-144 424.1946,-103.3383 631.6008,-93.253 719.8949,-90.7853"/>
<polygon fill="#000000" stroke="#000000" points="720.1484,-94.2799 730.0538,-90.5205 719.9659,-87.2823 720.1484,-94.2799"/>
</g>
<!-- mock -->
<g id="node9" class="node">
<title>mock</title>
<ellipse fill="#ffffff" stroke="#000000" cx="910.0891" cy="-162" rx="32.4846" ry="18"/>
<text text-anchor="middle" x="910.0891" y="-157.8" font-family="Times,serif" font-size="14.00" fill="#000000">mock</text>
</g>
<!-- mock&#45;&gt;iface -->
<g id="edge19" class="edge">
<title>mock&#45;&gt;iface</title>
<path fill="none" stroke="#000000" d="M885.3197,-150.1107C860.1606,-138.0343 821.0447,-119.2587 793.2295,-105.9074"/>
<polygon fill="#000000" stroke="#000000" points="794.4335,-102.603 783.9037,-101.431 791.4043,-108.9137 794.4335,-102.603"/>
</g>
<!-- pattern -->
<g id="node10" class="node">
<title>pattern</title>
<ellipse fill="#ffffff" stroke="#000000" cx="1809.0891" cy="-90" rx="37.6986" ry="18"/>
<text text-anchor="middle" x="1809.0891" y="-85.8" font-family="Times,serif" font-size="14.00" fill="#000000">pattern</text>
</g>
<!-- pragma&#45;&gt;core -->
<g id="edge20" class="edge">
<title>pragma&#45;&gt;core</title>
<path fill="none" stroke="#000000" d="M544.6077,-294.7656C551.6397,-292.4076 559.0877,-290.0244 566.0891,-288 631.9509,-268.9561 657.0115,-286.7891 716.0891,-252 734.7923,-240.9862 733.1553,-230.7385 749.0891,-216 762.28,-203.7987 777.9887,-191.36 791.0831,-181.5009"/>
<polygon fill="#000000" stroke="#000000" points="793.3212,-184.1983 799.2578,-175.4229 789.1445,-178.5809 793.3212,-184.1983"/>
</g>
<!-- pragma&#45;&gt;data -->
<g id="edge21" class="edge">
<title>pragma&#45;&gt;data</title>
<path fill="none" stroke="#000000" d="M504.8376,-288.3776C491.1442,-256.2486 468.2242,-187.4617 500.0891,-144 562.0889,-59.4362 903.2318,-28.4262 1017.0861,-20.3439"/>
<polygon fill="#000000" stroke="#000000" points="1017.3348,-23.8351 1027.0693,-19.653 1016.8515,-16.8518 1017.3348,-23.8351"/>
</g>
<!-- pragma&#45;&gt;iface -->
<g id="edge22" class="edge">
<title>pragma&#45;&gt;iface</title>
<path fill="none" stroke="#000000" d="M507.6814,-287.9348C499.0624,-255.0861 486.483,-185.1723 521.0891,-144 546.3161,-113.9865 659.1321,-99.1977 720.3181,-93.2699"/>
<polygon fill="#000000" stroke="#000000" points="720.7607,-96.7439 730.3918,-92.3288 720.1096,-89.7742 720.7607,-96.7439"/>
</g>
<!-- pragma&#45;&gt;mdb -->
<g id="edge23" class="edge">
<title>pragma&#45;&gt;mdb</title>
<path fill="none" stroke="#000000" d="M482.375,-294.1107C448.9424,-281.169 395.6345,-260.5337 360.9966,-247.1255"/>
<polygon fill="#000000" stroke="#000000" points="361.911,-243.7264 351.3219,-243.3804 359.384,-250.2544 361.911,-243.7264"/>
</g>
<!-- process&#45;&gt;data -->
<g id="edge24" class="edge">
<title>process&#45;&gt;data</title>
<path fill="none" stroke="#000000" d="M1106.3176,-73.3008C1097.2251,-63.6734 1085.6632,-51.4314 1075.7303,-40.9142"/>
<polygon fill="#000000" stroke="#000000" points="1078.2549,-38.4899 1068.8441,-33.6229 1073.1658,-43.2963 1078.2549,-38.4899"/>
</g>
<!-- readline -->
<g id="node13" class="node">
<title>readline</title>
<ellipse fill="#ffffff" stroke="#000000" cx="1417.0891" cy="-162" rx="42.2719" ry="18"/>
<text text-anchor="middle" x="1417.0891" y="-157.8" font-family="Times,serif" font-size="14.00" fill="#000000">readline</text>
</g>
<!-- readline&#45;&gt;data -->
<g id="edge25" class="edge">
<title>readline&#45;&gt;data</title>
<path fill="none" stroke="#000000" d="M1438.4984,-146.269C1461.6448,-127.3964 1492.6428,-95.3797 1472.0891,-72 1447.0631,-43.533 1188.7207,-25.7722 1091.1375,-20.0353"/>
<polygon fill="#000000" stroke="#000000" points="1091.3154,-16.5399 1081.1298,-19.4562 1090.9109,-23.5282 1091.3154,-16.5399"/>
</g>
<!-- readline&#45;&gt;iface -->
<g id="edge26" class="edge">
<title>readline&#45;&gt;iface</title>
<path fill="none" stroke="#000000" d="M1375.9908,-157.4961C1257.6243,-144.5244 916.9662,-107.192 800.0443,-94.3787"/>
<polygon fill="#000000" stroke="#000000" points="800.0835,-90.8621 789.7617,-93.2518 799.3209,-97.8204 800.0835,-90.8621"/>
</g>
<!-- replace_part -->
<g id="node14" class="node">
<title>replace_part</title>
<ellipse fill="#ffffff" stroke="#000000" cx="77.0891" cy="-378" rx="58.5059" ry="18"/>
<text text-anchor="middle" x="77.0891" y="-373.8" font-family="Times,serif" font-size="14.00" fill="#000000">replace_part</text>
</g>
<!-- system_test -->
<g id="node15" class="node">
<title>system_test</title>
<ellipse fill="#ffffff" stroke="#000000" cx="1724.0891" cy="-162" rx="56.1937" ry="18"/>
<text text-anchor="middle" x="1724.0891" y="-157.8" font-family="Times,serif" font-size="14.00" fill="#000000">system_test</text>
</g>
<!-- system_test&#45;&gt;pattern -->
<g id="edge27" class="edge">
<title>system_test&#45;&gt;pattern</title>
<path fill="none" stroke="#000000" d="M1744.2329,-144.937C1755.7506,-135.1808 1770.3306,-122.8307 1782.7482,-112.3123"/>
<polygon fill="#000000" stroke="#000000" points="1785.1739,-114.8445 1790.5422,-105.7103 1780.6495,-109.5032 1785.1739,-114.8445"/>
</g>
<!-- system_test&#45;&gt;process -->
<g id="edge28" class="edge">
<title>system_test&#45;&gt;process</title>
<path fill="none" stroke="#000000" d="M1671.4562,-155.705C1556.1633,-141.9159 1282.7085,-109.2103 1170.9541,-95.8443"/>
<polygon fill="#000000" stroke="#000000" points="1171.3151,-92.3626 1160.9702,-94.6502 1170.4838,-99.3131 1171.3151,-92.3626"/>
</g>
<!-- app/metashell -->
<g id="node16" class="node">
<title>app/metashell</title>
<polygon fill="none" stroke="#000000" points="1300.8454,-468 1207.3328,-468 1207.3328,-432 1300.8454,-432 1300.8454,-468"/>
<text text-anchor="middle" x="1254.0891" y="-445.8" font-family="Times,serif" font-size="14.00" fill="#000000">app/metashell</text>
</g>
<!-- app/metashell&#45;&gt;core -->
<g id="edge29" class="edge">
<title>app/metashell&#45;&gt;core</title>
<path fill="none" stroke="#000000" d="M1261.04,-431.8749C1276.4434,-388.2918 1307.8698,-276.7462 1252.0891,-216 1194.2695,-153.0334 952.5796,-198.364 869.0891,-180 863.2144,-178.7078 857.0862,-176.9352 851.1992,-175.0035"/>
<polygon fill="#000000" stroke="#000000" points="852.2019,-171.6464 841.607,-171.659 849.8973,-178.2562 852.2019,-171.6464"/>
</g>
<!-- app/metashell&#45;&gt;data -->
<g id="edge30" class="edge">
<title>app/metashell&#45;&gt;data</title>
<path fill="none" stroke="#000000" d="M1300.9103,-446.5814C1472.2369,-433.4563 2055.0891,-383.1365 2055.0891,-306 2055.0891,-306 2055.0891,-306 2055.0891,-162 2055.0891,-64.9309 1950.2363,-95.6372 1856.0891,-72 1708.3453,-34.9066 1229.3425,-21.8075 1091.51,-18.7547"/>
<polygon fill="#000000" stroke="#000000" points="1091.5177,-15.2541 1081.4441,-18.5363 1091.3658,-22.2524 1091.5177,-15.2541"/>
</g>
<!-- app/metashell&#45;&gt;defaults -->
<g id="edge31" class="edge">
<title>app/metashell&#45;&gt;defaults</title>
<path fill="none" stroke="#000000" d="M1207.1437,-445.0511C1083.5836,-432.0258 750.0806,-396.8688 622.0737,-383.3747"/>
<polygon fill="#000000" stroke="#000000" points="622.0862,-379.8567 611.7744,-382.2889 621.3523,-386.8181 622.0862,-379.8567"/>
</g>
<!-- app/metashell&#45;&gt;iface -->
<g id="edge32" class="edge">
<title>app/metashell&#45;&gt;iface</title>
<path fill="none" stroke="#000000" d="M1207.0892,-448.0545C1107.0541,-443.3174 876.464,-429.0596 806.0891,-396 742.9187,-366.3248 753.1103,-321.8752 692.0891,-288 636.67,-257.2347 592.8422,-302.1595 554.0891,-252 499.3608,-181.1632 650.4287,-123.5224 723.2932,-100.6342"/>
<polygon fill="#000000" stroke="#000000" points="724.4989,-103.9253 733.0262,-97.6375 722.439,-97.2352 724.4989,-103.9253"/>
</g>
<!-- app/metashell&#45;&gt;main_shell -->
<g id="edge33" class="edge">
<title>app/metashell&#45;&gt;main_shell</title>
<path fill="none" stroke="#000000" d="M1248.7426,-431.9555C1237.5661,-394.235 1211.6651,-306.8188 1198.338,-261.8399"/>
<polygon fill="#000000" stroke="#000000" points="1201.6622,-260.7387 1195.4654,-252.1451 1194.9506,-262.7274 1201.6622,-260.7387"/>
</g>
<!-- app/metashell&#45;&gt;readline -->
<g id="edge34" class="edge">
<title>app/metashell&#45;&gt;readline</title>
<path fill="none" stroke="#000000" d="M1265.5818,-431.6194C1272.0136,-421.2279 1280.1167,-407.9596 1287.0891,-396 1330.4839,-321.566 1379.2067,-232.2163 1402.781,-188.5936"/>
<polygon fill="#000000" stroke="#000000" points="1405.8825,-190.2161 1407.5521,-179.7536 1399.7224,-186.8913 1405.8825,-190.2161"/>
</g>
<!-- app/reference_gen -->
<g id="node17" class="node">
<title>app/reference_gen</title>
<polygon fill="none" stroke="#000000" points="271.9643,-468 152.2139,-468 152.2139,-432 271.9643,-432 271.9643,-468"/>
<text text-anchor="middle" x="212.0891" y="-445.8" font-family="Times,serif" font-size="14.00" fill="#000000">app/reference_gen</text>
</g>
<!-- app/reference_gen&#45;&gt;data -->
<g id="edge35" class="edge">
<title>app/reference_gen&#45;&gt;data</title>
<path fill="none" stroke="#000000" d="M204.0303,-431.7668C192.8757,-404.8248 174.0891,-352.5405 174.0891,-306 174.0891,-306 174.0891,-306 174.0891,-162 174.0891,-88.4032 243.3139,-95.4076 313.0891,-72 445.5644,-27.5582 884.5584,-19.6624 1016.3548,-18.2852"/>
<polygon fill="#000000" stroke="#000000" points="1016.7628,-21.7815 1026.7281,-18.1839 1016.6944,-14.7818 1016.7628,-21.7815"/>
</g>
<!-- app/reference_gen&#45;&gt;defaults -->
<g id="edge36" class="edge">
<title>app/reference_gen&#45;&gt;defaults</title>
<path fill="none" stroke="#000000" d="M272.1776,-437.9488C342.6606,-423.813 458.0983,-400.6611 522.9587,-387.6529"/>
<polygon fill="#000000" stroke="#000000" points="523.803,-391.0533 532.9195,-385.6552 522.4265,-384.19 523.803,-391.0533"/>
</g>
<!-- app/reference_gen&#45;&gt;mdb -->
<g id="edge37" class="edge">
<title>app/reference_gen&#45;&gt;mdb</title>
<path fill="none" stroke="#000000" d="M221.6961,-431.9555C242.0142,-393.7928 289.4147,-304.7624 313.0997,-260.2757"/>
<polygon fill="#000000" stroke="#000000" points="316.3002,-261.7119 317.9103,-251.2401 310.1213,-258.4222 316.3002,-261.7119"/>
</g>
<!-- app/reference_gen&#45;&gt;replace_part -->
<g id="edge38" class="edge">
<title>app/reference_gen&#45;&gt;replace_part</title>
<path fill="none" stroke="#000000" d="M178.0229,-431.8314C159.0072,-421.6897 135.2555,-409.0221 115.5706,-398.5235"/>
<polygon fill="#000000" stroke="#000000" points="117.0296,-395.335 106.559,-393.7173 113.7355,-401.5115 117.0296,-395.335"/>
</g>
<!-- test/system/core -->
<g id="node18" class="node">
<title>test/system/core</title>
<polygon fill="none" stroke="#000000" points="1913.2857,-252 1806.8925,-252 1806.8925,-216 1913.2857,-216 1913.2857,-252"/>
<text text-anchor="middle" x="1860.0891" y="-229.8" font-family="Times,serif" font-size="14.00" fill="#000000">test/system/core</text>
</g>
<!-- test/system/core&#45;&gt;system_test -->
<g id="edge39" class="edge">
<title>test/system/core&#45;&gt;system_test</title>
<path fill="none" stroke="#000000" d="M1825.7706,-215.8314C1806.4782,-205.6177 1782.3467,-192.8423 1762.4343,-182.3004"/>
<polygon fill="#000000" stroke="#000000" points="1763.8027,-179.0646 1753.3271,-177.479 1760.5274,-185.2512 1763.8027,-179.0646"/>
</g>
<!-- test/system/mdb -->
<g id="node19" class="node">
<title>test/system/mdb</title>
<polygon fill="none" stroke="#000000" points="1519.5863,-252 1412.5919,-252 1412.5919,-216 1519.5863,-216 1519.5863,-252"/>
<text text-anchor="middle" x="1466.0891" y="-229.8" font-family="Times,serif" font-size="14.00" fill="#000000">test/system/mdb</text>
</g>
<!-- test/system/mdb&#45;&gt;system_test -->
<g id="edge40" class="edge">
<title>test/system/mdb&#45;&gt;system_test</title>
<path fill="none" stroke="#000000" d="M1519.8447,-218.3447C1522.6319,-217.5482 1525.3928,-216.7628 1528.0891,-216 1576.6186,-202.2709 1632.0368,-187.0444 1671.5342,-176.2693"/>
<polygon fill="#000000" stroke="#000000" points="1672.4915,-179.6362 1681.2191,-173.6294 1670.6506,-172.8826 1672.4915,-179.6362"/>
</g>
<!-- test/system/pdb -->
<g id="node20" class="node">
<title>test/system/pdb</title>
<polygon fill="none" stroke="#000000" points="1640.6958,-252 1537.4824,-252 1537.4824,-216 1640.6958,-216 1640.6958,-252"/>
<text text-anchor="middle" x="1589.0891" y="-229.8" font-family="Times,serif" font-size="14.00" fill="#000000">test/system/pdb</text>
</g>
<!-- test/system/pdb&#45;&gt;system_test -->
<g id="edge41" class="edge">
<title>test/system/pdb&#45;&gt;system_test</title>
<path fill="none" stroke="#000000" d="M1623.1553,-215.8314C1642.3058,-205.6177 1666.2598,-192.8423 1686.0258,-182.3004"/>
<polygon fill="#000000" stroke="#000000" points="1687.8896,-185.2731 1695.066,-177.479 1684.5954,-179.0967 1687.8896,-185.2731"/>
</g>
<!-- test/system/pp -->
<g id="node21" class="node">
<title>test/system/pp</title>
<polygon fill="none" stroke="#000000" points="2027.1958,-252 1930.9824,-252 1930.9824,-216 2027.1958,-216 2027.1958,-252"/>
<text text-anchor="middle" x="1979.0891" y="-229.8" font-family="Times,serif" font-size="14.00" fill="#000000">test/system/pp</text>
</g>
<!-- test/system/pp&#45;&gt;pattern -->
<g id="edge42" class="edge">
<title>test/system/pp&#45;&gt;pattern</title>
<path fill="none" stroke="#000000" d="M1957.5585,-215.7623C1926.5893,-189.5296 1869.5043,-141.1752 1835.8585,-112.6753"/>
<polygon fill="#000000" stroke="#000000" points="1837.7324,-109.6757 1827.8397,-105.8829 1833.208,-115.017 1837.7324,-109.6757"/>
</g>
<!-- test/system/pp&#45;&gt;system_test -->
<g id="edge43" class="edge">
<title>test/system/pp&#45;&gt;system_test</title>
<path fill="none" stroke="#000000" d="M1930.9281,-218.6438C1927.9408,-217.737 1924.9763,-216.8492 1922.0891,-216 1873.4031,-201.6798 1817.602,-186.5788 1777.6735,-175.9986"/>
<polygon fill="#000000" stroke="#000000" points="1778.4405,-172.5812 1767.8781,-173.4093 1776.6516,-179.3488 1778.4405,-172.5812"/>
</g>
<!-- test/unit/core -->
<g id="node22" class="node">
<title>test/unit/core</title>
<polygon fill="none" stroke="#000000" points="1042.6817,-252 953.4965,-252 953.4965,-216 1042.6817,-216 1042.6817,-252"/>
<text text-anchor="middle" x="998.0891" y="-229.8" font-family="Times,serif" font-size="14.00" fill="#000000">test/unit/core</text>
</g>
<!-- test/unit/core&#45;&gt;core -->
<g id="edge44" class="edge">
<title>test/unit/core&#45;&gt;core</title>
<path fill="none" stroke="#000000" d="M953.1318,-216.0171C921.6478,-203.4235 880.2554,-186.8665 851.6363,-175.4189"/>
<polygon fill="#000000" stroke="#000000" points="852.668,-172.062 842.0833,-171.5977 850.0682,-178.5613 852.668,-172.062"/>
</g>
<!-- test/unit/core&#45;&gt;data -->
<g id="edge45" class="edge">
<title>test/unit/core&#45;&gt;data</title>
<path fill="none" stroke="#000000" d="M1002.7673,-215.9555C1012.5504,-178.2205 1035.2275,-90.7518 1046.8847,-45.7882"/>
<polygon fill="#000000" stroke="#000000" points="1050.3419,-46.3996 1049.4636,-35.8413 1043.5659,-44.6428 1050.3419,-46.3996"/>
</g>
<!-- test/unit/core&#45;&gt;mock -->
<g id="edge46" class="edge">
<title>test/unit/core&#45;&gt;mock</title>
<path fill="none" stroke="#000000" d="M975.883,-215.8314C963.8539,-205.9894 948.9175,-193.7687 936.3179,-183.4599"/>
<polygon fill="#000000" stroke="#000000" points="938.3856,-180.6295 928.4297,-177.0059 933.9529,-186.0472 938.3856,-180.6295"/>
</g>
<!-- test/unit/data -->
<g id="node23" class="node">
<title>test/unit/data</title>
<polygon fill="none" stroke="#000000" points="1463.4123,-108 1374.7659,-108 1374.7659,-72 1463.4123,-72 1463.4123,-108"/>
<text text-anchor="middle" x="1419.0891" y="-85.8" font-family="Times,serif" font-size="14.00" fill="#000000">test/unit/data</text>
</g>
<!-- test/unit/data&#45;&gt;data -->
<g id="edge47" class="edge">
<title>test/unit/data&#45;&gt;data</title>
<path fill="none" stroke="#000000" d="M1374.9165,-75.6581C1370.2701,-74.3396 1365.5979,-73.0915 1361.0891,-72 1264.7812,-48.6851 1149.1864,-31.0968 1091.1637,-22.9706"/>
<polygon fill="#000000" stroke="#000000" points="1091.4031,-19.4704 1081.0172,-21.5641 1090.4419,-26.4041 1091.4031,-19.4704"/>
</g>
<!-- test/unit/main_shell -->
<g id="node24" class="node">
<title>test/unit/main_shell</title>
<polygon fill="none" stroke="#000000" points="1131.5289,-324 1004.6493,-324 1004.6493,-288 1131.5289,-288 1131.5289,-324"/>
<text text-anchor="middle" x="1068.0891" y="-301.8" font-family="Times,serif" font-size="14.00" fill="#000000">test/unit/main_shell</text>
</g>
<!-- test/unit/main_shell&#45;&gt;core -->
<g id="edge48" class="edge">
<title>test/unit/main_shell&#45;&gt;core</title>
<path fill="none" stroke="#000000" d="M1020.4482,-287.9914C996.9033,-278.4109 968.4,-265.7741 944.0891,-252 907.4752,-231.2553 868.525,-202.2277 843.7866,-182.8042"/>
<polygon fill="#000000" stroke="#000000" points="845.6682,-179.8296 835.6562,-176.3637 841.3216,-185.3166 845.6682,-179.8296"/>
</g>
<!-- test/unit/main_shell&#45;&gt;data -->
<g id="edge49" class="edge">
<title>test/unit/main_shell&#45;&gt;data</title>
<path fill="none" stroke="#000000" d="M1131.7792,-295.6207C1178.9309,-286.4855 1237.4238,-271.5878 1252.0891,-252 1261.6784,-239.192 1255.1336,-231.7077 1252.0891,-216 1238.9603,-148.2643 1243.2358,-120.4262 1194.0891,-72 1165.914,-44.2379 1121.9117,-30.4117 1090.7682,-23.7564"/>
<polygon fill="#000000" stroke="#000000" points="1091.2311,-20.2801 1080.7408,-21.7646 1089.8672,-27.146 1091.2311,-20.2801"/>
</g>
<!-- test/unit/main_shell&#45;&gt;engine/constant -->
<g id="edge50" class="edge">
<title>test/unit/main_shell&#45;&gt;engine/constant</title>
<path fill="none" stroke="#000000" d="M1004.6635,-295.4535C924.7248,-282.1611 787.7821,-259.3901 704.9268,-245.6127"/>
<polygon fill="#000000" stroke="#000000" points="705.2884,-242.1249 694.8497,-243.9371 704.1401,-249.0301 705.2884,-242.1249"/>
</g>
<!-- test/unit/main_shell&#45;&gt;iface -->
<g id="edge51" class="edge">
<title>test/unit/main_shell&#45;&gt;iface</title>
<path fill="none" stroke="#000000" d="M1075.2979,-287.8149C1081.7202,-268.3908 1088.1323,-237.5023 1074.0891,-216 1052.3248,-182.6756 1025.6601,-201.3819 992.0891,-180 971.6356,-166.9729 972.393,-155.5843 951.0891,-144 902.2139,-117.4234 839.0207,-102.8911 799.0073,-95.7815"/>
<polygon fill="#000000" stroke="#000000" points="799.5562,-92.3247 789.1096,-94.0906 798.3773,-99.2247 799.5562,-92.3247"/>
</g>
<!-- test/unit/main_shell&#45;&gt;main_shell -->
<g id="edge52" class="edge">
<title>test/unit/main_shell&#45;&gt;main_shell</title>
<path fill="none" stroke="#000000" d="M1098.8749,-287.8314C1115.8261,-277.8273 1136.9419,-265.3655 1154.5868,-254.9522"/>
<polygon fill="#000000" stroke="#000000" points="1156.6238,-257.8141 1163.457,-249.7173 1153.066,-251.7856 1156.6238,-257.8141"/>
</g>
<!-- test/unit/main_shell&#45;&gt;mock -->
<g id="edge53" class="edge">
<title>test/unit/main_shell&#45;&gt;mock</title>
<path fill="none" stroke="#000000" d="M1069.7773,-287.9736C1070.6312,-268.1087 1068.8921,-236.2898 1052.0891,-216 1048.5437,-211.7189 988.0773,-189.6549 947.2028,-175.0881"/>
<polygon fill="#000000" stroke="#000000" points="948.1293,-171.703 937.5346,-171.6519 945.7851,-178.2988 948.1293,-171.703"/>
</g>
<!-- test/unit/mdb -->
<g id="node25" class="node">
<title>test/unit/mdb</title>
<polygon fill="none" stroke="#000000" points="427.9826,-324 338.1956,-324 338.1956,-288 427.9826,-288 427.9826,-324"/>
<text text-anchor="middle" x="383.0891" y="-301.8" font-family="Times,serif" font-size="14.00" fill="#000000">test/unit/mdb</text>
</g>
<!-- test/unit/mdb&#45;&gt;core -->
<g id="edge54" class="edge">
<title>test/unit/mdb&#45;&gt;core</title>
<path fill="none" stroke="#000000" d="M411.2955,-287.9469C444.2955,-267.6004 501.1712,-234.905 554.0891,-216 632.1931,-188.0972 728.7309,-172.9433 780.713,-166.2623"/>
<polygon fill="#000000" stroke="#000000" points="781.3133,-169.7146 790.8017,-165.0008 780.4446,-162.7687 781.3133,-169.7146"/>
</g>
<!-- test/unit/mdb&#45;&gt;data -->
<g id="edge55" class="edge">
<title>test/unit/mdb&#45;&gt;data</title>
<path fill="none" stroke="#000000" d="M337.819,-291.1657C319.627,-282.7233 300.5221,-270.1221 290.0891,-252 254.8024,-190.7071 293.4782,-115.2396 355.0891,-72 409.4644,-33.8385 879.4392,-21.4931 1016.6371,-18.6852"/>
<polygon fill="#000000" stroke="#000000" points="1016.7411,-22.1839 1026.6692,-18.4849 1016.6013,-15.1853 1016.7411,-22.1839"/>
</g>
<!-- test/unit/mdb&#45;&gt;engine/constant -->
<g id="edge56" class="edge">
<title>test/unit/mdb&#45;&gt;engine/constant</title>
<path fill="none" stroke="#000000" d="M428.1416,-293.1278C469.9517,-281.1821 532.3833,-263.3445 577.7358,-250.3867"/>
<polygon fill="#000000" stroke="#000000" points="578.7746,-253.73 587.4283,-247.6174 576.8515,-246.9993 578.7746,-253.73"/>
</g>
<!-- test/unit/mdb&#45;&gt;iface -->
<g id="edge57" class="edge">
<title>test/unit/mdb&#45;&gt;iface</title>
<path fill="none" stroke="#000000" d="M390.7694,-287.7469C406.1307,-253.6194 444.0459,-180.3222 500.0891,-144 536.095,-120.6642 657.1966,-102.7149 720.6122,-94.6561"/>
<polygon fill="#000000" stroke="#000000" points="721.1534,-98.1158 730.6423,-93.4029 720.2855,-91.1698 721.1534,-98.1158"/>
</g>
<!-- test/unit/mdb&#45;&gt;mdb -->
<g id="edge58" class="edge">
<title>test/unit/mdb&#45;&gt;mdb</title>
<path fill="none" stroke="#000000" d="M368.9579,-287.8314C362.0412,-278.9385 353.614,-268.1034 346.1381,-258.4916"/>
<polygon fill="#000000" stroke="#000000" points="348.7774,-256.184 339.8752,-250.4393 343.2519,-260.4816 348.7774,-256.184"/>
</g>
<!-- test/unit/pragma -->
<g id="node26" class="node">
<title>test/unit/pragma</title>
<polygon fill="none" stroke="#000000" points="921.5723,-396 814.6059,-396 814.6059,-360 921.5723,-360 921.5723,-396"/>
<text text-anchor="middle" x="868.0891" y="-373.8" font-family="Times,serif" font-size="14.00" fill="#000000">test/unit/pragma</text>
</g>
<!-- test/unit/pragma&#45;&gt;core -->
<g id="edge59" class="edge">
<title>test/unit/pragma&#45;&gt;core</title>
<path fill="none" stroke="#000000" d="M863.9121,-359.9555C855.1772,-322.2205 834.9298,-234.7518 824.5216,-189.7882"/>
<polygon fill="#000000" stroke="#000000" points="827.8841,-188.7943 822.219,-179.8413 821.0644,-190.373 827.8841,-188.7943"/>
</g>
<!-- test/unit/pragma&#45;&gt;data -->
<g id="edge60" class="edge">
<title>test/unit/pragma&#45;&gt;data</title>
<path fill="none" stroke="#000000" d="M921.7784,-375.5399C983.6164,-371.1046 1087.2078,-358.693 1169.0891,-324 1219.5155,-302.6344 1244.1211,-300.7433 1269.0891,-252 1306.7335,-178.5094 1285.1967,-126.4116 1223.0891,-72 1185.8174,-39.3467 1128.6504,-26.4082 1091.3123,-21.3012"/>
<polygon fill="#000000" stroke="#000000" points="1091.6959,-17.8221 1081.3398,-20.0586 1090.8303,-24.7683 1091.6959,-17.8221"/>
</g>
<!-- test/unit/pragma&#45;&gt;engine/constant -->
<g id="edge61" class="edge">
<title>test/unit/pragma&#45;&gt;engine/constant</title>
<path fill="none" stroke="#000000" d="M853.7579,-359.8495C837.1639,-339.8735 808.1105,-307.9553 777.0891,-288 751.7028,-271.6696 720.635,-259.1481 694.0392,-250.2937"/>
<polygon fill="#000000" stroke="#000000" points="695.0537,-246.9433 684.4619,-247.1971 692.9001,-253.6039 695.0537,-246.9433"/>
</g>
<!-- test/unit/pragma&#45;&gt;main_shell -->
<g id="edge62" class="edge">
<title>test/unit/pragma&#45;&gt;main_shell</title>
<path fill="none" stroke="#000000" d="M921.7336,-372.7209C990.7851,-365.0281 1105.949,-348.8837 1140.0891,-324 1160.9724,-308.7788 1174.215,-282.0456 1181.7866,-261.6577"/>
<polygon fill="#000000" stroke="#000000" points="1185.1821,-262.5483 1185.1481,-251.9535 1178.5677,-260.257 1185.1821,-262.5483"/>
</g>
<!-- test/unit/pragma&#45;&gt;mock -->
<g id="edge63" class="edge">
<title>test/unit/pragma&#45;&gt;mock</title>
<path fill="none" stroke="#000000" d="M871.5978,-359.9555C878.9169,-322.3144 895.8584,-235.1867 904.6204,-190.1246"/>
<polygon fill="#000000" stroke="#000000" points="908.0878,-190.6293 906.5609,-180.1451 901.2165,-189.2932 908.0878,-190.6293"/>
</g>
<!-- test/unit/pragma&#45;&gt;pragma -->
<g id="edge64" class="edge">
<title>test/unit/pragma&#45;&gt;pragma</title>
<path fill="none" stroke="#000000" d="M814.3769,-370.8888C753.5781,-362.265 651.8369,-346.0932 566.0891,-324 562.0662,-322.9635 557.9089,-321.7712 553.7743,-320.5041"/>
<polygon fill="#000000" stroke="#000000" points="554.8331,-317.1681 544.242,-317.4497 552.697,-323.8342 554.8331,-317.1681"/>
</g>
<!-- test/unit/replace_part -->
<g id="node27" class="node">
<title>test/unit/replace_part</title>
<polygon fill="none" stroke="#000000" points="134.2674,-468 -.0892,-468 -.0892,-432 134.2674,-432 134.2674,-468"/>
<text text-anchor="middle" x="67.0891" y="-445.8" font-family="Times,serif" font-size="14.00" fill="#000000">test/unit/replace_part</text>
</g>
<!-- test/unit/replace_part&#45;&gt;replace_part -->
<g id="edge65" class="edge">
<title>test/unit/replace_part&#45;&gt;replace_part</title>
<path fill="none" stroke="#000000" d="M69.6125,-431.8314C70.682,-424.131 71.9538,-414.9743 73.1423,-406.4166"/>
<polygon fill="#000000" stroke="#000000" points="76.6227,-406.7997 74.5317,-396.4133 69.6892,-405.8367 76.6227,-406.7997"/>
</g>
<!-- test/unit/system_test -->
<g id="node28" class="node">
<title>test/unit/system_test</title>
<polygon fill="none" stroke="#000000" points="1789.4177,-252 1658.7605,-252 1658.7605,-216 1789.4177,-216 1789.4177,-252"/>
<text text-anchor="middle" x="1724.0891" y="-229.8" font-family="Times,serif" font-size="14.00" fill="#000000">test/unit/system_test</text>
</g>
<!-- test/unit/system_test&#45;&gt;system_test -->
<g id="edge66" class="edge">
<title>test/unit/system_test&#45;&gt;system_test</title>
<path fill="none" stroke="#000000" d="M1724.0891,-215.8314C1724.0891,-208.131 1724.0891,-198.9743 1724.0891,-190.4166"/>
<polygon fill="#000000" stroke="#000000" points="1727.5892,-190.4132 1724.0891,-180.4133 1720.5892,-190.4133 1727.5892,-190.4132"/>
</g>
</g>
</svg>
