<?xml version="1.0" encoding="UTF-8" standalone="no"?>
<!DOCTYPE svg PUBLIC "-//W3C//DTD SVG 1.1//EN"
 "http://www.w3.org/Graphics/SVG/1.1/DTD/svg11.dtd">
<!-- Generated by graphviz version 2.40.1
 -->
<!-- Title: %3 Pages: 1 -->
<svg width="2293pt" height="476pt"
 viewBox="0.00 0.00 2292.99 476.00" xmlns="http://www.w3.org/2000/svg" xmlns:xlink="http://www.w3.org/1999/xlink">
<g id="graph0" class="graph" transform="scale(1 1) rotate(0) translate(4 472)">
<title>%3</title>
<polygon fill="#ffffff" stroke="transparent" points="-4,4 -4,-472 2288.9895,-472 2288.9895,4 -4,4"/>
<!-- compiler_stub -->
<g id="node1" class="node">
<title>compiler_stub</title>
<ellipse fill="#ffffff" stroke="#000000" cx="268.8254" cy="-90" rx="66.0723" ry="18"/>
<text text-anchor="middle" x="268.8254" y="-85.8" font-family="Times,serif" font-size="14.00" fill="#000000">compiler_stub</text>
</g>
<!-- data -->
<g id="node3" class="node">
<title>data</title>
<ellipse fill="#ffffff" stroke="#000000" cx="528.8254" cy="-18" rx="27.2447" ry="18"/>
<text text-anchor="middle" x="528.8254" y="-13.8" font-family="Times,serif" font-size="14.00" fill="#000000">data</text>
</g>
<!-- compiler_stub&#45;&gt;data -->
<g id="edge1" class="edge">
<title>compiler_stub&#45;&gt;data</title>
<path fill="none" stroke="#000000" d="M315.3082,-77.1278C366.5028,-62.9509 447.6638,-40.4755 493.7734,-27.7067"/>
<polygon fill="#000000" stroke="#000000" points="494.9024,-31.0259 503.6056,-24.9839 493.0342,-24.2797 494.9024,-31.0259"/>
</g>
<!-- core -->
<g id="node2" class="node">
<title>core</title>
<ellipse fill="#ffffff" stroke="#000000" cx="790.8254" cy="-162" rx="27.8073" ry="18"/>
<text text-anchor="middle" x="790.8254" y="-157.8" font-family="Times,serif" font-size="14.00" fill="#000000">core</text>
</g>
<!-- iface -->
<g id="node13" class="node">
<title>iface</title>
<ellipse fill="#ffffff" stroke="#000000" cx="499.8254" cy="-90" rx="29.5916" ry="18"/>
<text text-anchor="middle" x="499.8254" y="-85.8" font-family="Times,serif" font-size="14.00" fill="#000000">iface</text>
</g>
<!-- core&#45;&gt;iface -->
<g id="edge2" class="edge">
<title>core&#45;&gt;iface</title>
<path fill="none" stroke="#000000" d="M763.7477,-157.6629C717.8692,-149.9649 622.1993,-132.3966 543.8254,-108 540.4935,-106.9628 537.0619,-105.7772 533.6545,-104.5206"/>
<polygon fill="#000000" stroke="#000000" points="534.8072,-101.2136 524.2185,-100.8549 532.2724,-107.7385 534.8072,-101.2136"/>
</g>
<!-- defaults -->
<g id="node4" class="node">
<title>defaults</title>
<ellipse fill="#ffffff" stroke="#000000" cx="1025.8254" cy="-378" rx="41.7095" ry="18"/>
<text text-anchor="middle" x="1025.8254" y="-373.8" font-family="Times,serif" font-size="14.00" fill="#000000">defaults</text>
</g>
<!-- engine/auto -->
<g id="node5" class="node">
<title>engine/auto</title>
<ellipse fill="#ffffff" stroke="#000000" cx="841.8254" cy="-234" rx="56.1802" ry="18"/>
<text text-anchor="middle" x="841.8254" y="-229.8" font-family="Times,serif" font-size="14.00" fill="#000000">engine/auto</text>
</g>
<!-- defaults&#45;&gt;engine/auto -->
<g id="edge3" class="edge">
<title>defaults&#45;&gt;engine/auto</title>
<path fill="none" stroke="#000000" d="M990.1511,-368.3675C944.3491,-355.6929 869.6821,-333.8711 860.8254,-324 845.8881,-307.3517 841.6083,-281.9801 840.7955,-262.414"/>
<polygon fill="#000000" stroke="#000000" points="844.2927,-262.1842 840.655,-252.2335 837.2934,-262.2809 844.2927,-262.1842"/>
</g>
<!-- engine/gcc -->
<g id="node8" class="node">
<title>engine/gcc</title>
<ellipse fill="#ffffff" stroke="#000000" cx="1130.8254" cy="-306" rx="52.7295" ry="18"/>
<text text-anchor="middle" x="1130.8254" y="-301.8" font-family="Times,serif" font-size="14.00" fill="#000000">engine/gcc</text>
</g>
<!-- defaults&#45;&gt;engine/gcc -->
<g id="edge4" class="edge">
<title>defaults&#45;&gt;engine/gcc</title>
<path fill="none" stroke="#000000" d="M1048.0932,-362.7307C1062.857,-352.6069 1082.4594,-339.1653 1098.8775,-327.9071"/>
<polygon fill="#000000" stroke="#000000" points="1100.8625,-330.7899 1107.1304,-322.248 1096.9038,-325.0168 1100.8625,-330.7899"/>
</g>
<!-- engine/null -->
<g id="node9" class="node">
<title>engine/null</title>
<ellipse fill="#ffffff" stroke="#000000" cx="1016.8254" cy="-234" rx="54.4739" ry="18"/>
<text text-anchor="middle" x="1016.8254" y="-229.8" font-family="Times,serif" font-size="14.00" fill="#000000">engine/null</text>
</g>
<!-- defaults&#45;&gt;engine/null -->
<g id="edge5" class="edge">
<title>defaults&#45;&gt;engine/null</title>
<path fill="none" stroke="#000000" d="M1028.7436,-360.0017C1031.2478,-341.7843 1033.9927,-312.8374 1030.8254,-288 1029.74,-279.4887 1027.7292,-270.4011 1025.5634,-262.1555"/>
<polygon fill="#000000" stroke="#000000" points="1028.8617,-260.9542 1022.7952,-252.2681 1022.1209,-262.8414 1028.8617,-260.9542"/>
</g>
<!-- engine/templight -->
<g id="node10" class="node">
<title>engine/templight</title>
<ellipse fill="#ffffff" stroke="#000000" cx="945.8254" cy="-306" rx="76.4632" ry="18"/>
<text text-anchor="middle" x="945.8254" y="-301.8" font-family="Times,serif" font-size="14.00" fill="#000000">engine/templight</text>
</g>
<!-- defaults&#45;&gt;engine/templight -->
<g id="edge6" class="edge">
<title>defaults&#45;&gt;engine/templight</title>
<path fill="none" stroke="#000000" d="M1007.6722,-361.6621C997.4091,-352.4253 984.3781,-340.6974 972.9266,-330.3911"/>
<polygon fill="#000000" stroke="#000000" points="975.0788,-327.6193 965.3045,-323.5312 970.3961,-332.8224 975.0788,-327.6193"/>
</g>
<!-- engine/vc -->
<g id="node11" class="node">
<title>engine/vc</title>
<ellipse fill="#ffffff" stroke="#000000" cx="1419.8254" cy="-234" rx="48.6559" ry="18"/>
<text text-anchor="middle" x="1419.8254" y="-229.8" font-family="Times,serif" font-size="14.00" fill="#000000">engine/vc</text>
</g>
<!-- defaults&#45;&gt;engine/vc -->
<g id="edge7" class="edge">
<title>defaults&#45;&gt;engine/vc</title>
<path fill="none" stroke="#000000" d="M1059.4051,-367.1491C1069.1256,-364.3929 1079.8161,-361.7265 1089.8254,-360 1148.3188,-349.9108 1582.2924,-367.363 1622.8254,-324 1633.7513,-312.3113 1632.6296,-300.6443 1622.8254,-288 1583.4575,-237.2282 1544.8292,-268.8264 1482.8254,-252 1477.9419,-250.6747 1472.8532,-249.2665 1467.7782,-247.8442"/>
<polygon fill="#000000" stroke="#000000" points="1468.6679,-244.4586 1458.0931,-245.1098 1466.7659,-251.1953 1468.6679,-244.4586"/>
</g>
<!-- engine/wave -->
<g id="node12" class="node">
<title>engine/wave</title>
<ellipse fill="#ffffff" stroke="#000000" cx="1261.8254" cy="-306" rx="59.6723" ry="18"/>
<text text-anchor="middle" x="1261.8254" y="-301.8" font-family="Times,serif" font-size="14.00" fill="#000000">engine/wave</text>
</g>
<!-- defaults&#45;&gt;engine/wave -->
<g id="edge8" class="edge">
<title>defaults&#45;&gt;engine/wave</title>
<path fill="none" stroke="#000000" d="M1059.8898,-367.6075C1099.2529,-355.5984 1164.453,-335.7068 1210.0881,-321.7843"/>
<polygon fill="#000000" stroke="#000000" points="1211.2562,-325.0872 1219.7996,-318.8214 1209.2135,-318.3919 1211.2562,-325.0872"/>
</g>
<!-- pragma -->
<g id="node18" class="node">
<title>pragma</title>
<ellipse fill="#ffffff" stroke="#000000" cx="735.8254" cy="-306" rx="39.9876" ry="18"/>
<text text-anchor="middle" x="735.8254" y="-301.8" font-family="Times,serif" font-size="14.00" fill="#000000">pragma</text>
</g>
<!-- defaults&#45;&gt;pragma -->
<g id="edge9" class="edge">
<title>defaults&#45;&gt;pragma</title>
<path fill="none" stroke="#000000" d="M989.6831,-369.0267C936.8293,-355.9044 838.5011,-331.4919 780.9641,-317.2069"/>
<polygon fill="#000000" stroke="#000000" points="781.6089,-313.7607 771.0601,-314.7479 779.9221,-320.5545 781.6089,-313.7607"/>
</g>
<!-- engine/auto&#45;&gt;core -->
<g id="edge10" class="edge">
<title>engine/auto&#45;&gt;core</title>
<path fill="none" stroke="#000000" d="M829.2187,-216.2022C822.9855,-207.4025 815.3577,-196.6338 808.5481,-187.0202"/>
<polygon fill="#000000" stroke="#000000" points="811.2242,-184.743 802.5879,-178.6058 805.512,-188.7892 811.2242,-184.743"/>
</g>
<!-- engine/clang -->
<g id="node6" class="node">
<title>engine/clang</title>
<ellipse fill="#ffffff" stroke="#000000" cx="1162.8254" cy="-234" rx="60.2537" ry="18"/>
<text text-anchor="middle" x="1162.8254" y="-229.8" font-family="Times,serif" font-size="14.00" fill="#000000">engine/clang</text>
</g>
<!-- engine/clang&#45;&gt;core -->
<g id="edge11" class="edge">
<title>engine/clang&#45;&gt;core</title>
<path fill="none" stroke="#000000" d="M1114.1583,-223.2C1102.8976,-220.7694 1090.9544,-218.246 1079.8254,-216 989.343,-197.7392 882.4772,-178.3302 827.5293,-168.5081"/>
<polygon fill="#000000" stroke="#000000" points="828.0298,-165.0422 817.5705,-166.7313 826.8003,-171.9334 828.0298,-165.0422"/>
</g>
<!-- process -->
<g id="node19" class="node">
<title>process</title>
<ellipse fill="#ffffff" stroke="#000000" cx="1419.8254" cy="-162" rx="39.9857" ry="18"/>
<text text-anchor="middle" x="1419.8254" y="-157.8" font-family="Times,serif" font-size="14.00" fill="#000000">process</text>
</g>
<!-- engine/clang&#45;&gt;process -->
<g id="edge12" class="edge">
<title>engine/clang&#45;&gt;process</title>
<path fill="none" stroke="#000000" d="M1207.0053,-221.6228C1254.2032,-208.4 1328.5735,-187.5647 1375.7365,-174.3518"/>
<polygon fill="#000000" stroke="#000000" points="1376.9723,-177.6404 1385.6573,-171.5724 1375.0839,-170.8999 1376.9723,-177.6404"/>
</g>
<!-- engine/constant -->
<g id="node7" class="node">
<title>engine/constant</title>
<ellipse fill="#ffffff" stroke="#000000" cx="605.8254" cy="-306" rx="71.7892" ry="18"/>
<text text-anchor="middle" x="605.8254" y="-301.8" font-family="Times,serif" font-size="14.00" fill="#000000">engine/constant</text>
</g>
<!-- engine/constant&#45;&gt;core -->
<g id="edge13" class="edge">
<title>engine/constant&#45;&gt;core</title>
<path fill="none" stroke="#000000" d="M622.7762,-288.3083C641.4462,-269.3062 672.8144,-238.7759 702.8254,-216 721.0172,-202.1939 742.8979,-188.7549 760.2899,-178.737"/>
<polygon fill="#000000" stroke="#000000" points="762.4703,-181.5239 769.4384,-173.543 759.0142,-175.4366 762.4703,-181.5239"/>
</g>
<!-- engine/gcc&#45;&gt;engine/clang -->
<g id="edge14" class="edge">
<title>engine/gcc&#45;&gt;engine/clang</title>
<path fill="none" stroke="#000000" d="M1138.7355,-288.2022C1142.3238,-280.1287 1146.6487,-270.3976 1150.6378,-261.422"/>
<polygon fill="#000000" stroke="#000000" points="1153.9209,-262.6527 1154.784,-252.0931 1147.5242,-259.8097 1153.9209,-262.6527"/>
</g>
<!-- engine/null&#45;&gt;core -->
<g id="edge15" class="edge">
<title>engine/null&#45;&gt;core</title>
<path fill="none" stroke="#000000" d="M977.4592,-221.4586C934.4648,-207.7612 866.2806,-186.0388 825.3149,-172.9878"/>
<polygon fill="#000000" stroke="#000000" points="826.3569,-169.6465 815.7663,-169.9458 824.232,-176.3162 826.3569,-169.6465"/>
</g>
<!-- engine/templight&#45;&gt;engine/clang -->
<g id="edge16" class="edge">
<title>engine/templight&#45;&gt;engine/clang</title>
<path fill="none" stroke="#000000" d="M990.2622,-291.256C1025.7756,-279.4727 1075.555,-262.9561 1112.5273,-250.6888"/>
<polygon fill="#000000" stroke="#000000" points="1113.7239,-253.9795 1122.1128,-247.5083 1111.5194,-247.3356 1113.7239,-253.9795"/>
</g>
<!-- engine/vc&#45;&gt;core -->
<g id="edge17" class="edge">
<title>engine/vc&#45;&gt;core</title>
<path fill="none" stroke="#000000" d="M1373.3181,-228.6764C1253.8077,-214.9964 937.7054,-178.813 828.5376,-166.3168"/>
<polygon fill="#000000" stroke="#000000" points="828.6683,-162.809 818.3351,-165.149 827.8722,-169.7636 828.6683,-162.809"/>
</g>
<!-- engine/vc&#45;&gt;process -->
<g id="edge18" class="edge">
<title>engine/vc&#45;&gt;process</title>
<path fill="none" stroke="#000000" d="M1419.8254,-215.8314C1419.8254,-208.131 1419.8254,-198.9743 1419.8254,-190.4166"/>
<polygon fill="#000000" stroke="#000000" points="1423.3255,-190.4132 1419.8254,-180.4133 1416.3255,-190.4133 1423.3255,-190.4132"/>
</g>
<!-- engine/wave&#45;&gt;engine/clang -->
<g id="edge19" class="edge">
<title>engine/wave&#45;&gt;engine/clang</title>
<path fill="none" stroke="#000000" d="M1238.864,-289.3008C1225.5897,-279.6468 1208.7005,-267.3637 1194.2126,-256.827"/>
<polygon fill="#000000" stroke="#000000" points="1196.1512,-253.9092 1186.0052,-250.8581 1192.034,-259.5704 1196.1512,-253.9092"/>
</g>
<!-- iface&#45;&gt;data -->
<g id="edge20" class="edge">
<title>iface&#45;&gt;data</title>
<path fill="none" stroke="#000000" d="M506.9939,-72.2022C510.2951,-64.0064 514.2842,-54.1024 517.9445,-45.0145"/>
<polygon fill="#000000" stroke="#000000" points="521.2497,-46.1766 521.7393,-35.593 514.7566,-43.5612 521.2497,-46.1766"/>
</g>
<!-- main_shell -->
<g id="node14" class="node">
<title>main_shell</title>
<ellipse fill="#ffffff" stroke="#000000" cx="379.8254" cy="-306" rx="53.3283" ry="18"/>
<text text-anchor="middle" x="379.8254" y="-301.8" font-family="Times,serif" font-size="14.00" fill="#000000">main_shell</text>
</g>
<!-- main_shell&#45;&gt;core -->
<g id="edge21" class="edge">
<title>main_shell&#45;&gt;core</title>
<path fill="none" stroke="#000000" d="M417.0238,-292.967C496.0717,-265.2714 679.7901,-200.9029 756.359,-174.0758"/>
<polygon fill="#000000" stroke="#000000" points="757.725,-177.3059 766.0052,-170.6961 755.4104,-170.6996 757.725,-177.3059"/>
</g>
<!-- mdb -->
<g id="node15" class="node">
<title>mdb</title>
<ellipse fill="#ffffff" stroke="#000000" cx="739.8254" cy="-234" rx="28.4127" ry="18"/>
<text text-anchor="middle" x="739.8254" y="-229.8" font-family="Times,serif" font-size="14.00" fill="#000000">mdb</text>
</g>
<!-- mdb&#45;&gt;core -->
<g id="edge22" class="edge">
<title>mdb&#45;&gt;core</title>
<path fill="none" stroke="#000000" d="M751.654,-217.3008C758.0265,-208.3043 766.0162,-197.0247 773.115,-187.0029"/>
<polygon fill="#000000" stroke="#000000" points="776.1368,-188.792 779.0609,-178.6087 770.4246,-184.7458 776.1368,-188.792"/>
</g>
<!-- mock -->
<g id="node16" class="node">
<title>mock</title>
<ellipse fill="#ffffff" stroke="#000000" cx="483.8254" cy="-306" rx="32.4846" ry="18"/>
<text text-anchor="middle" x="483.8254" y="-301.8" font-family="Times,serif" font-size="14.00" fill="#000000">mock</text>
</g>
<!-- mock&#45;&gt;iface -->
<g id="edge23" class="edge">
<title>mock&#45;&gt;iface</title>
<path fill="none" stroke="#000000" d="M485.162,-287.9555C487.9503,-250.3144 494.4042,-163.1867 497.7421,-118.1246"/>
<polygon fill="#000000" stroke="#000000" points="501.2329,-118.3763 498.4813,-108.1451 494.2521,-117.8592 501.2329,-118.3763"/>
</g>
<!-- pattern -->
<g id="node17" class="node">
<title>pattern</title>
<ellipse fill="#ffffff" stroke="#000000" cx="1908.8254" cy="-162" rx="37.6986" ry="18"/>
<text text-anchor="middle" x="1908.8254" y="-157.8" font-family="Times,serif" font-size="14.00" fill="#000000">pattern</text>
</g>
<!-- pragma&#45;&gt;mdb -->
<g id="edge24" class="edge">
<title>pragma&#45;&gt;mdb</title>
<path fill="none" stroke="#000000" d="M736.8348,-287.8314C737.2626,-280.131 737.7713,-270.9743 738.2467,-262.4166"/>
<polygon fill="#000000" stroke="#000000" points="741.7423,-262.592 738.8024,-252.4133 734.753,-262.2037 741.7423,-262.592"/>
</g>
<!-- process&#45;&gt;data -->
<g id="edge25" class="edge">
<title>process&#45;&gt;data</title>
<path fill="none" stroke="#000000" d="M1379.8806,-160.5205C1217.1207,-154.3541 610.9579,-129.9938 576.8254,-108 555.0784,-93.987 542.5201,-66.6571 535.7454,-45.7734"/>
<polygon fill="#000000" stroke="#000000" points="539.0804,-44.7091 532.8693,-36.1258 532.3722,-46.709 539.0804,-44.7091"/>
</g>
<!-- readline -->
<g id="node20" class="node">
<title>readline</title>
<ellipse fill="#ffffff" stroke="#000000" cx="228.8254" cy="-234" rx="42.2719" ry="18"/>
<text text-anchor="middle" x="228.8254" y="-229.8" font-family="Times,serif" font-size="14.00" fill="#000000">readline</text>
</g>
<!-- readline&#45;&gt;iface -->
<g id="edge26" class="edge">
<title>readline&#45;&gt;iface</title>
<path fill="none" stroke="#000000" d="M262.1445,-222.7658C269.5737,-220.4078 277.4387,-218.0245 284.8254,-216 354.2857,-196.9623 384.005,-221.561 442.8254,-180 464.763,-164.4994 480.1549,-137.6196 489.3675,-117.2609"/>
<polygon fill="#000000" stroke="#000000" points="492.6705,-118.4389 493.3952,-107.8689 486.2371,-115.6799 492.6705,-118.4389"/>
</g>
<!-- replace_part -->
<g id="node21" class="node">
<title>replace_part</title>
<ellipse fill="#ffffff" stroke="#000000" cx="1157.8254" cy="-378" rx="58.5059" ry="18"/>
<text text-anchor="middle" x="1157.8254" y="-373.8" font-family="Times,serif" font-size="14.00" fill="#000000">replace_part</text>
</g>
<!-- system_test -->
<g id="node22" class="node">
<title>system_test</title>
<ellipse fill="#ffffff" stroke="#000000" cx="1908.8254" cy="-234" rx="56.1937" ry="18"/>
<text text-anchor="middle" x="1908.8254" y="-229.8" font-family="Times,serif" font-size="14.00" fill="#000000">system_test</text>
</g>
<!-- system_test&#45;&gt;pattern -->
<g id="edge27" class="edge">
<title>system_test&#45;&gt;pattern</title>
<path fill="none" stroke="#000000" d="M1908.8254,-215.8314C1908.8254,-208.131 1908.8254,-198.9743 1908.8254,-190.4166"/>
<polygon fill="#000000" stroke="#000000" points="1912.3255,-190.4132 1908.8254,-180.4133 1905.3255,-190.4133 1912.3255,-190.4132"/>
</g>
<!-- system_test&#45;&gt;process -->
<g id="edge28" class="edge">
<title>system_test&#45;&gt;process</title>
<path fill="none" stroke="#000000" d="M1857.4181,-226.4308C1762.4044,-212.4411 1560.5803,-182.7246 1468.0279,-169.0973"/>
<polygon fill="#000000" stroke="#000000" points="1468.4945,-165.6284 1458.0913,-167.6342 1467.4748,-172.5537 1468.4945,-165.6284"/>
</g>
<!-- app/metashell -->
<g id="node23" class="node">
<title>app/metashell</title>
<polygon fill="none" stroke="#000000" points="425.5817,-468 332.0691,-468 332.0691,-432 425.5817,-432 425.5817,-468"/>
<text text-anchor="middle" x="378.8254" y="-445.8" font-family="Times,serif" font-size="14.00" fill="#000000">app/metashell</text>
</g>
<!-- app/metashell&#45;&gt;defaults -->
<g id="edge29" class="edge">
<title>app/metashell&#45;&gt;defaults</title>
<path fill="none" stroke="#000000" d="M425.6321,-447.9459C523.899,-443.1191 758.6581,-428.8859 952.8254,-396 961.9932,-394.4473 971.7112,-392.3649 980.9634,-390.168"/>
<polygon fill="#000000" stroke="#000000" points="981.8956,-393.5431 990.7721,-387.7587 980.2258,-386.7452 981.8956,-393.5431"/>
</g>
<!-- app/metashell&#45;&gt;main_shell -->
<g id="edge30" class="edge">
<title>app/metashell&#45;&gt;main_shell</title>
<path fill="none" stroke="#000000" d="M378.9521,-431.7623C379.1226,-407.201 379.4278,-363.2474 379.6285,-334.3541"/>
<polygon fill="#000000" stroke="#000000" points="383.1302,-334.1137 379.6998,-324.0896 376.1303,-334.065 383.1302,-334.1137"/>
</g>
<!-- app/metashell&#45;&gt;readline -->
<g id="edge31" class="edge">
<title>app/metashell&#45;&gt;readline</title>
<path fill="none" stroke="#000000" d="M331.7603,-442.1415C303.8556,-434.951 270.2489,-421.3773 250.8254,-396 221.1213,-357.1907 221.4228,-297.2993 224.804,-262.2432"/>
<polygon fill="#000000" stroke="#000000" points="228.2928,-262.5381 225.9225,-252.2118 221.3359,-261.7624 228.2928,-262.5381"/>
</g>
<!-- app/reference_gen -->
<g id="node24" class="node">
<title>app/reference_gen</title>
<polygon fill="none" stroke="#000000" points="1085.7006,-468 965.9502,-468 965.9502,-432 1085.7006,-432 1085.7006,-468"/>
<text text-anchor="middle" x="1025.8254" y="-445.8" font-family="Times,serif" font-size="14.00" fill="#000000">app/reference_gen</text>
</g>
<!-- app/reference_gen&#45;&gt;defaults -->
<g id="edge32" class="edge">
<title>app/reference_gen&#45;&gt;defaults</title>
<path fill="none" stroke="#000000" d="M1025.8254,-431.8314C1025.8254,-424.131 1025.8254,-414.9743 1025.8254,-406.4166"/>
<polygon fill="#000000" stroke="#000000" points="1029.3255,-406.4132 1025.8254,-396.4133 1022.3255,-406.4133 1029.3255,-406.4132"/>
</g>
<!-- app/reference_gen&#45;&gt;replace_part -->
<g id="edge33" class="edge">
<title>app/reference_gen&#45;&gt;replace_part</title>
<path fill="none" stroke="#000000" d="M1059.1346,-431.8314C1077.7277,-421.6897 1100.9516,-409.0221 1120.199,-398.5235"/>
<polygon fill="#000000" stroke="#000000" points="1121.9074,-401.5785 1129.0104,-393.7173 1118.5554,-395.4332 1121.9074,-401.5785"/>
</g>
<!-- app/stub/cl_de -->
<g id="node25" class="node">
<title>app/stub/cl_de</title>
<polygon fill="none" stroke="#000000" points="317.4768,-180 220.174,-180 220.174,-144 317.4768,-144 317.4768,-180"/>
<text text-anchor="middle" x="268.8254" y="-157.8" font-family="Times,serif" font-size="14.00" fill="#000000">app/stub/cl_de</text>
</g>
<!-- app/stub/cl_de&#45;&gt;compiler_stub -->
<g id="edge34" class="edge">
<title>app/stub/cl_de&#45;&gt;compiler_stub</title>
<path fill="none" stroke="#000000" d="M268.8254,-143.8314C268.8254,-136.131 268.8254,-126.9743 268.8254,-118.4166"/>
<polygon fill="#000000" stroke="#000000" points="272.3255,-118.4132 268.8254,-108.4133 265.3255,-118.4133 272.3255,-118.4132"/>
</g>
<!-- app/stub/cl_en -->
<g id="node26" class="node">
<title>app/stub/cl_en</title>
<polygon fill="none" stroke="#000000" points="433.4768,-180 336.174,-180 336.174,-144 433.4768,-144 433.4768,-180"/>
<text text-anchor="middle" x="384.8254" y="-157.8" font-family="Times,serif" font-size="14.00" fill="#000000">app/stub/cl_en</text>
</g>
<!-- app/stub/cl_en&#45;&gt;compiler_stub -->
<g id="edge35" class="edge">
<title>app/stub/cl_en&#45;&gt;compiler_stub</title>
<path fill="none" stroke="#000000" d="M355.5537,-143.8314C340.037,-134.2003 320.8503,-122.2913 304.4716,-112.1252"/>
<polygon fill="#000000" stroke="#000000" points="306.0445,-108.9822 295.7023,-106.6822 302.353,-114.9296 306.0445,-108.9822"/>
</g>
<!-- app/stub/clang -->
<g id="node27" class="node">
<title>app/stub/clang</title>
<polygon fill="none" stroke="#000000" points="97.4768,-180 .174,-180 .174,-144 97.4768,-144 97.4768,-180"/>
<text text-anchor="middle" x="48.8254" y="-157.8" font-family="Times,serif" font-size="14.00" fill="#000000">app/stub/clang</text>
</g>
<!-- app/stub/clang&#45;&gt;compiler_stub -->
<g id="edge36" class="edge">
<title>app/stub/clang&#45;&gt;compiler_stub</title>
<path fill="none" stroke="#000000" d="M97.6505,-146.0209C132.9423,-134.4708 180.5524,-118.8893 216.6023,-107.0912"/>
<polygon fill="#000000" stroke="#000000" points="218.0285,-110.3072 226.4438,-103.8703 215.8512,-103.6544 218.0285,-110.3072"/>
</g>
<!-- app/stub/gcc -->
<g id="node28" class="node">
<title>app/stub/gcc</title>
<polygon fill="none" stroke="#000000" points="202.0859,-180 115.5649,-180 115.5649,-144 202.0859,-144 202.0859,-180"/>
<text text-anchor="middle" x="158.8254" y="-157.8" font-family="Times,serif" font-size="14.00" fill="#000000">app/stub/gcc</text>
</g>
<!-- app/stub/gcc&#45;&gt;compiler_stub -->
<g id="edge37" class="edge">
<title>app/stub/gcc&#45;&gt;compiler_stub</title>
<path fill="none" stroke="#000000" d="M186.583,-143.8314C201.1609,-134.2895 219.1548,-122.5117 234.5909,-112.4081"/>
<polygon fill="#000000" stroke="#000000" points="236.8885,-115.0873 243.3387,-106.6822 233.0548,-109.2304 236.8885,-115.0873"/>
</g>
<!-- test/system/auto_engine -->
<g id="node29" class="node">
<title>test/system/auto_engine</title>
<polygon fill="none" stroke="#000000" points="1674.8577,-252 1524.7931,-252 1524.7931,-216 1674.8577,-216 1674.8577,-252"/>
<text text-anchor="middle" x="1599.8254" y="-229.8" font-family="Times,serif" font-size="14.00" fill="#000000">test/system/auto_engine</text>
</g>
<!-- test/system/auto_engine&#45;&gt;process -->
<g id="edge38" class="edge">
<title>test/system/auto_engine&#45;&gt;process</title>
<path fill="none" stroke="#000000" d="M1554.4038,-215.8314C1525.1506,-204.1301 1487.4911,-189.0663 1459.4527,-177.8509"/>
<polygon fill="#000000" stroke="#000000" points="1460.5507,-174.5205 1449.966,-174.0563 1457.9509,-181.0199 1460.5507,-174.5205"/>
</g>
<!-- test/system/core -->
<g id="node30" class="node">
<title>test/system/core</title>
<polygon fill="none" stroke="#000000" points="1776.022,-324 1669.6288,-324 1669.6288,-288 1776.022,-288 1776.022,-324"/>
<text text-anchor="middle" x="1722.8254" y="-301.8" font-family="Times,serif" font-size="14.00" fill="#000000">test/system/core</text>
</g>
<!-- test/system/core&#45;&gt;core -->
<g id="edge39" class="edge">
<title>test/system/core&#45;&gt;core</title>
<path fill="none" stroke="#000000" d="M1669.5697,-293.5657C1612.8391,-280.089 1529.3419,-259.5035 1515.8254,-252 1495.485,-240.7083 1499.083,-225.4525 1477.8254,-216 1418.4209,-189.5848 964.615,-169.0964 828.988,-163.5137"/>
<polygon fill="#000000" stroke="#000000" points="828.8178,-160.0039 818.6834,-163.0931 828.5323,-166.9981 828.8178,-160.0039"/>
</g>
<!-- test/system/core&#45;&gt;system_test -->
<g id="edge40" class="edge">
<title>test/system/core&#45;&gt;system_test</title>
<path fill="none" stroke="#000000" d="M1769.7611,-287.8314C1798.3528,-276.7636 1834.716,-262.6875 1863.0869,-251.7052"/>
<polygon fill="#000000" stroke="#000000" points="1864.7007,-254.8337 1872.7629,-247.9597 1862.1737,-248.3057 1864.7007,-254.8337"/>
</g>
<!-- test/system/mdb -->
<g id="node31" class="node">
<title>test/system/mdb</title>
<polygon fill="none" stroke="#000000" points="1901.3226,-324 1794.3282,-324 1794.3282,-288 1901.3226,-288 1901.3226,-324"/>
<text text-anchor="middle" x="1847.8254" y="-301.8" font-family="Times,serif" font-size="14.00" fill="#000000">test/system/mdb</text>
</g>
<!-- test/system/mdb&#45;&gt;system_test -->
<g id="edge41" class="edge">
<title>test/system/mdb&#45;&gt;system_test</title>
<path fill="none" stroke="#000000" d="M1863.2183,-287.8314C1870.5341,-279.1962 1879.4014,-268.7299 1887.3649,-259.3304"/>
<polygon fill="#000000" stroke="#000000" points="1890.275,-261.31 1894.0687,-251.4177 1884.9341,-256.7851 1890.275,-261.31"/>
</g>
<!-- test/system/pdb -->
<g id="node32" class="node">
<title>test/system/pdb</title>
<polygon fill="none" stroke="#000000" points="2022.4321,-324 1919.2187,-324 1919.2187,-288 2022.4321,-288 2022.4321,-324"/>
<text text-anchor="middle" x="1970.8254" y="-301.8" font-family="Times,serif" font-size="14.00" fill="#000000">test/system/pdb</text>
</g>
<!-- test/system/pdb&#45;&gt;system_test -->
<g id="edge42" class="edge">
<title>test/system/pdb&#45;&gt;system_test</title>
<path fill="none" stroke="#000000" d="M1955.1802,-287.8314C1947.6693,-279.109 1938.5495,-268.5183 1930.3927,-259.0459"/>
<polygon fill="#000000" stroke="#000000" points="1933.0015,-256.7116 1923.824,-251.4177 1927.6971,-261.2793 1933.0015,-256.7116"/>
</g>
<!-- test/system/pp -->
<g id="node33" class="node">
<title>test/system/pp</title>
<polygon fill="none" stroke="#000000" points="2136.9321,-324 2040.7187,-324 2040.7187,-288 2136.9321,-288 2136.9321,-324"/>
<text text-anchor="middle" x="2088.8254" y="-301.8" font-family="Times,serif" font-size="14.00" fill="#000000">test/system/pp</text>
</g>
<!-- test/system/pp&#45;&gt;system_test -->
<g id="edge43" class="edge">
<title>test/system/pp&#45;&gt;system_test</title>
<path fill="none" stroke="#000000" d="M2043.4038,-287.8314C2015.8275,-276.8008 1980.7811,-262.7823 1953.3661,-251.8163"/>
<polygon fill="#000000" stroke="#000000" points="1954.5967,-248.539 1944.0121,-248.0747 1951.9969,-255.0383 1954.5967,-248.539"/>
</g>
<!-- test/unit/core -->
<g id="node34" class="node">
<title>test/unit/core</title>
<polygon fill="none" stroke="#000000" points="349.418,-396 260.2328,-396 260.2328,-360 349.418,-360 349.418,-396"/>
<text text-anchor="middle" x="304.8254" y="-373.8" font-family="Times,serif" font-size="14.00" fill="#000000">test/unit/core</text>
</g>
<!-- test/unit/core&#45;&gt;core -->
<g id="edge44" class="edge">
<title>test/unit/core&#45;&gt;core</title>
<path fill="none" stroke="#000000" d="M302.2891,-359.9102C300.5514,-339.9885 301.0319,-308.1189 317.8254,-288 374.4973,-220.1061 651.6751,-179.3239 753.3448,-166.4469"/>
<polygon fill="#000000" stroke="#000000" points="753.9721,-169.8959 763.4619,-165.1847 753.1054,-162.9497 753.9721,-169.8959"/>
</g>
<!-- test/unit/core&#45;&gt;mock -->
<g id="edge45" class="edge">
<title>test/unit/core&#45;&gt;mock</title>
<path fill="none" stroke="#000000" d="M349.3817,-360.8197C376.2395,-350.3688 411.0879,-336.6411 441.8254,-324 444.054,-323.0835 446.345,-322.131 448.6522,-321.1641"/>
<polygon fill="#000000" stroke="#000000" points="450.2645,-324.2824 458.1103,-317.1625 447.5369,-317.8357 450.2645,-324.2824"/>
</g>
<!-- test/unit/data -->
<g id="node35" class="node">
<title>test/unit/data</title>
<polygon fill="none" stroke="#000000" points="674.1486,-108 585.5022,-108 585.5022,-72 674.1486,-72 674.1486,-108"/>
<text text-anchor="middle" x="629.8254" y="-85.8" font-family="Times,serif" font-size="14.00" fill="#000000">test/unit/data</text>
</g>
<!-- test/unit/data&#45;&gt;data -->
<g id="edge46" class="edge">
<title>test/unit/data&#45;&gt;data</title>
<path fill="none" stroke="#000000" d="M604.3388,-71.8314C589.5859,-61.3144 571.0226,-48.0812 555.9933,-37.3672"/>
<polygon fill="#000000" stroke="#000000" points="557.7826,-34.3445 547.6082,-31.3897 553.7193,-40.0445 557.7826,-34.3445"/>
</g>
<!-- test/unit/engine/clang -->
<g id="node36" class="node">
<title>test/unit/engine/clang</title>
<polygon fill="none" stroke="#000000" points="1475.8592,-324 1339.7916,-324 1339.7916,-288 1475.8592,-288 1475.8592,-324"/>
<text text-anchor="middle" x="1407.8254" y="-301.8" font-family="Times,serif" font-size="14.00" fill="#000000">test/unit/engine/clang</text>
</g>
<!-- test/unit/engine/clang&#45;&gt;engine/clang -->
<g id="edge47" class="edge">
<title>test/unit/engine/clang&#45;&gt;engine/clang</title>
<path fill="none" stroke="#000000" d="M1346.3178,-287.9243C1306.1113,-276.1085 1254.1358,-260.8341 1215.772,-249.5598"/>
<polygon fill="#000000" stroke="#000000" points="1216.4125,-246.1001 1205.8314,-246.6385 1214.4388,-252.8161 1216.4125,-246.1001"/>
</g>
<!-- test/unit/engine/templight -->
<g id="node37" class="node">
<title>test/unit/engine/templight</title>
<polygon fill="none" stroke="#000000" points="835.7062,-396 675.9446,-396 675.9446,-360 835.7062,-360 835.7062,-396"/>
<text text-anchor="middle" x="755.8254" y="-373.8" font-family="Times,serif" font-size="14.00" fill="#000000">test/unit/engine/templight</text>
</g>
<!-- test/unit/engine/templight&#45;&gt;engine/templight -->
<g id="edge48" class="edge">
<title>test/unit/engine/templight&#45;&gt;engine/templight</title>
<path fill="none" stroke="#000000" d="M803.7704,-359.8314C831.9194,-349.1644 867.4423,-335.7031 895.9234,-324.9102"/>
<polygon fill="#000000" stroke="#000000" points="897.1806,-328.1768 905.2914,-321.3603 894.7,-321.631 897.1806,-328.1768"/>
</g>
<!-- test/unit/engine/templight&#45;&gt;mock -->
<g id="edge49" class="edge">
<title>test/unit/engine/templight&#45;&gt;mock</title>
<path fill="none" stroke="#000000" d="M675.7029,-360.9118C620.6066,-348.8481 552.5672,-333.2447 524.8254,-324 522.5852,-323.2535 520.2994,-322.4307 518.0104,-321.5603"/>
<polygon fill="#000000" stroke="#000000" points="519.2732,-318.2956 508.6906,-317.787 516.6462,-324.784 519.2732,-318.2956"/>
</g>
<!-- test/unit/engine/vc -->
<g id="node38" class="node">
<title>test/unit/engine/vc</title>
<polygon fill="none" stroke="#000000" points="1613.754,-324 1493.8968,-324 1493.8968,-288 1613.754,-288 1613.754,-324"/>
<text text-anchor="middle" x="1553.8254" y="-301.8" font-family="Times,serif" font-size="14.00" fill="#000000">test/unit/engine/vc</text>
</g>
<!-- test/unit/engine/vc&#45;&gt;engine/vc -->
<g id="edge50" class="edge">
<title>test/unit/engine/vc&#45;&gt;engine/vc</title>
<path fill="none" stroke="#000000" d="M1520.0115,-287.8314C1500.7351,-277.4739 1476.5556,-264.4819 1456.7803,-253.8563"/>
<polygon fill="#000000" stroke="#000000" points="1458.2186,-250.656 1447.7531,-249.0059 1454.9054,-256.8223 1458.2186,-250.656"/>
</g>
<!-- test/unit/main_shell -->
<g id="node39" class="node">
<title>test/unit/main_shell</title>
<polygon fill="none" stroke="#000000" points="533.2652,-396 406.3856,-396 406.3856,-360 533.2652,-360 533.2652,-396"/>
<text text-anchor="middle" x="469.8254" y="-373.8" font-family="Times,serif" font-size="14.00" fill="#000000">test/unit/main_shell</text>
</g>
<!-- test/unit/main_shell&#45;&gt;engine/constant -->
<g id="edge51" class="edge">
<title>test/unit/main_shell&#45;&gt;engine/constant</title>
<path fill="none" stroke="#000000" d="M504.1439,-359.8314C522.8929,-349.9055 546.2121,-337.56 565.7876,-327.1965"/>
<polygon fill="#000000" stroke="#000000" points="567.5732,-330.2115 574.7734,-322.4393 564.2979,-324.0249 567.5732,-330.2115"/>
</g>
<!-- test/unit/main_shell&#45;&gt;main_shell -->
<g id="edge52" class="edge">
<title>test/unit/main_shell&#45;&gt;main_shell</title>
<path fill="none" stroke="#000000" d="M447.1146,-359.8314C435.4102,-350.4678 421.0144,-338.9512 408.5458,-328.9764"/>
<polygon fill="#000000" stroke="#000000" points="410.6733,-326.1962 400.6782,-322.6822 406.3004,-331.6623 410.6733,-326.1962"/>
</g>
<!-- test/unit/main_shell&#45;&gt;mock -->
<g id="edge53" class="edge">
<title>test/unit/main_shell&#45;&gt;mock</title>
<path fill="none" stroke="#000000" d="M473.3582,-359.8314C474.8952,-351.9266 476.7307,-342.4872 478.4322,-333.7365"/>
<polygon fill="#000000" stroke="#000000" points="481.8691,-334.3976 480.3422,-323.9134 474.9978,-333.0615 481.8691,-334.3976"/>
</g>
<!-- test/unit/mdb -->
<g id="node40" class="node">
<title>test/unit/mdb</title>
<polygon fill="none" stroke="#000000" points="943.7189,-396 853.9319,-396 853.9319,-360 943.7189,-360 943.7189,-396"/>
<text text-anchor="middle" x="898.8254" y="-373.8" font-family="Times,serif" font-size="14.00" fill="#000000">test/unit/mdb</text>
</g>
<!-- test/unit/mdb&#45;&gt;engine/constant -->
<g id="edge54" class="edge">
<title>test/unit/mdb&#45;&gt;engine/constant</title>
<path fill="none" stroke="#000000" d="M853.8475,-362.6351C850.8043,-361.7106 847.7762,-360.823 844.8254,-360 836.27,-357.614 737.1292,-335.3521 669.2559,-320.1674"/>
<polygon fill="#000000" stroke="#000000" points="670.006,-316.7488 659.4832,-317.9816 668.4781,-323.58 670.006,-316.7488"/>
</g>
<!-- test/unit/mdb&#45;&gt;mdb -->
<g id="edge55" class="edge">
<title>test/unit/mdb&#45;&gt;mdb</title>
<path fill="none" stroke="#000000" d="M873.1423,-359.8738C859.3267,-349.7784 842.219,-336.7118 827.8254,-324 803.604,-302.6087 778.0025,-275.9005 760.6971,-257.1553"/>
<polygon fill="#000000" stroke="#000000" points="763.1535,-254.6553 753.8166,-249.6479 757.9929,-259.3849 763.1535,-254.6553"/>
</g>
<!-- test/unit/pragma -->
<g id="node41" class="node">
<title>test/unit/pragma</title>
<polygon fill="none" stroke="#000000" points="658.3086,-396 551.3422,-396 551.3422,-360 658.3086,-360 658.3086,-396"/>
<text text-anchor="middle" x="604.8254" y="-373.8" font-family="Times,serif" font-size="14.00" fill="#000000">test/unit/pragma</text>
</g>
<!-- test/unit/pragma&#45;&gt;engine/constant -->
<g id="edge56" class="edge">
<title>test/unit/pragma&#45;&gt;engine/constant</title>
<path fill="none" stroke="#000000" d="M605.0777,-359.8314C605.1847,-352.131 605.3119,-342.9743 605.4307,-334.4166"/>
<polygon fill="#000000" stroke="#000000" points="608.9303,-334.4609 605.5697,-324.4133 601.931,-334.3637 608.9303,-334.4609"/>
</g>
<!-- test/unit/pragma&#45;&gt;main_shell -->
<g id="edge57" class="edge">
<title>test/unit/pragma&#45;&gt;main_shell</title>
<path fill="none" stroke="#000000" d="M551.2182,-360.8457C513.9115,-348.9076 464.5717,-333.1188 428.4133,-321.5481"/>
<polygon fill="#000000" stroke="#000000" points="429.1763,-318.1175 418.5853,-318.4032 427.0428,-324.7845 429.1763,-318.1175"/>
</g>
<!-- test/unit/pragma&#45;&gt;mock -->
<g id="edge58" class="edge">
<title>test/unit/pragma&#45;&gt;mock</title>
<path fill="none" stroke="#000000" d="M574.292,-359.8314C556.2873,-349.1178 533.5456,-335.5855 515.3679,-324.7691"/>
<polygon fill="#000000" stroke="#000000" points="516.711,-321.4955 506.3275,-319.3897 513.1314,-327.5111 516.711,-321.4955"/>
</g>
<!-- test/unit/pragma&#45;&gt;pragma -->
<g id="edge59" class="edge">
<title>test/unit/pragma&#45;&gt;pragma</title>
<path fill="none" stroke="#000000" d="M637.8822,-359.8314C657.2505,-349.1862 681.6822,-335.7581 701.2988,-324.9765"/>
<polygon fill="#000000" stroke="#000000" points="703.1396,-327.9586 710.2173,-320.0747 699.7679,-321.8241 703.1396,-327.9586"/>
</g>
<!-- test/unit/replace_part -->
<g id="node42" class="node">
<title>test/unit/replace_part</title>
<polygon fill="none" stroke="#000000" points="1238.0037,-468 1103.6471,-468 1103.6471,-432 1238.0037,-432 1238.0037,-468"/>
<text text-anchor="middle" x="1170.8254" y="-445.8" font-family="Times,serif" font-size="14.00" fill="#000000">test/unit/replace_part</text>
</g>
<!-- test/unit/replace_part&#45;&gt;replace_part -->
<g id="edge60" class="edge">
<title>test/unit/replace_part&#45;&gt;replace_part</title>
<path fill="none" stroke="#000000" d="M1167.545,-431.8314C1166.1546,-424.131 1164.5013,-414.9743 1162.9562,-406.4166"/>
<polygon fill="#000000" stroke="#000000" points="1166.3712,-405.6322 1161.15,-396.4133 1159.4826,-406.8761 1166.3712,-405.6322"/>
</g>
<!-- test/unit/system_test -->
<g id="node43" class="node">
<title>test/unit/system_test</title>
<polygon fill="none" stroke="#000000" points="2285.154,-324 2154.4968,-324 2154.4968,-288 2285.154,-288 2285.154,-324"/>
<text text-anchor="middle" x="2219.8254" y="-301.8" font-family="Times,serif" font-size="14.00" fill="#000000">test/unit/system_test</text>
</g>
<!-- test/unit/system_test&#45;&gt;system_test -->
<g id="edge61" class="edge">
<title>test/unit/system_test&#45;&gt;system_test</title>
<path fill="none" stroke="#000000" d="M2154.4678,-290.0475C2151.5479,-289.3521 2148.6567,-288.6669 2145.8254,-288 2084.0841,-273.4579 2013.1421,-257.3766 1965.0882,-246.5768"/>
<polygon fill="#000000" stroke="#000000" points="1965.7168,-243.1308 1955.1929,-244.3548 1964.1831,-249.9608 1965.7168,-243.1308"/>
</g>
</g>
</svg>
