<?xml version="1.0" encoding="UTF-8" standalone="no"?>
<!DOCTYPE svg PUBLIC "-//W3C//DTD SVG 1.1//EN"
 "http://www.w3.org/Graphics/SVG/1.1/DTD/svg11.dtd">
<!-- Generated by graphviz version 2.40.1
 -->
<!-- Title: %3 Pages: 1 -->
<svg width="1431pt" height="476pt"
 viewBox="0.00 0.00 1431.06 476.00" xmlns="http://www.w3.org/2000/svg" xmlns:xlink="http://www.w3.org/1999/xlink">
<g id="graph0" class="graph" transform="scale(1 1) rotate(0) translate(4 472)">
<title>%3</title>
<polygon fill="#ffffff" stroke="transparent" points="-4,4 -4,-472 1427.0603,-472 1427.0603,4 -4,4"/>
<!-- boost -->
<g id="node1" class="node">
<title>boost</title>
<ellipse fill="#ffffff" stroke="#000000" cx="283.9712" cy="-18" rx="31.9224" ry="18"/>
<text text-anchor="middle" x="283.9712" y="-13.8" font-family="Times,serif" font-size="14.00" fill="#000000">boost</text>
</g>
<!-- core -->
<g id="node2" class="node">
<title>core</title>
<ellipse fill="#ffffff" stroke="#000000" cx="908.9712" cy="-162" rx="27.8073" ry="18"/>
<text text-anchor="middle" x="908.9712" y="-157.8" font-family="Times,serif" font-size="14.00" fill="#000000">core</text>
</g>
<!-- data -->
<g id="node3" class="node">
<title>data</title>
<ellipse fill="#ffffff" stroke="#000000" cx="708.9712" cy="-18" rx="27.2447" ry="18"/>
<text text-anchor="middle" x="708.9712" y="-13.8" font-family="Times,serif" font-size="14.00" fill="#000000">data</text>
</g>
<!-- core&#45;&gt;data -->
<g id="edge1" class="edge">
<title>core&#45;&gt;data</title>
<path fill="none" stroke="#000000" d="M894.7942,-146.2882C876.9781,-127.1458 844.8559,-94.5723 812.9712,-72 790.3643,-55.9957 762.3878,-41.741 741.1473,-31.9017"/>
<polygon fill="#000000" stroke="#000000" points="742.4576,-28.6527 731.9056,-27.7011 739.5611,-35.0254 742.4576,-28.6527"/>
</g>
<!-- iface -->
<g id="node5" class="node">
<title>iface</title>
<ellipse fill="#ffffff" stroke="#000000" cx="283.9712" cy="-90" rx="29.5916" ry="18"/>
<text text-anchor="middle" x="283.9712" y="-85.8" font-family="Times,serif" font-size="14.00" fill="#000000">iface</text>
</g>
<!-- core&#45;&gt;iface -->
<g id="edge2" class="edge">
<title>core&#45;&gt;iface</title>
<path fill="none" stroke="#000000" d="M886.7544,-150.9503C880.4935,-148.2611 873.5839,-145.6788 866.9712,-144 763.5488,-117.7432 437.6544,-98.2343 323.7453,-92.0648"/>
<polygon fill="#000000" stroke="#000000" points="323.8833,-88.5673 313.7101,-91.5262 323.5081,-95.5572 323.8833,-88.5673"/>
</g>
<!-- process -->
<g id="node10" class="node">
<title>process</title>
<ellipse fill="#ffffff" stroke="#000000" cx="657.9712" cy="-90" rx="39.9857" ry="18"/>
<text text-anchor="middle" x="657.9712" y="-85.8" font-family="Times,serif" font-size="14.00" fill="#000000">process</text>
</g>
<!-- core&#45;&gt;process -->
<g id="edge3" class="edge">
<title>core&#45;&gt;process</title>
<path fill="none" stroke="#000000" d="M886.1553,-151.3218C880.0123,-148.6961 873.311,-146.0525 866.9712,-144 797.626,-121.5493 776.8854,-128.6107 706.9712,-108 704.0238,-107.1311 700.9975,-106.1766 697.9651,-105.1744"/>
<polygon fill="#000000" stroke="#000000" points="698.9418,-101.8091 688.3471,-101.8576 696.6597,-108.4266 698.9418,-101.8091"/>
</g>
<!-- defaults -->
<g id="node4" class="node">
<title>defaults</title>
<ellipse fill="#ffffff" stroke="#000000" cx="958.9712" cy="-378" rx="41.7095" ry="18"/>
<text text-anchor="middle" x="958.9712" y="-373.8" font-family="Times,serif" font-size="14.00" fill="#000000">defaults</text>
</g>
<!-- defaults&#45;&gt;core -->
<g id="edge4" class="edge">
<title>defaults&#45;&gt;core</title>
<path fill="none" stroke="#000000" d="M979.3473,-362.1088C990.0761,-352.4054 1002.1807,-338.9984 1007.9712,-324 1013.7339,-309.0738 1013.201,-303.1211 1007.9712,-288 993.2839,-245.5342 957.7201,-206.4967 933.4701,-183.4662"/>
<polygon fill="#000000" stroke="#000000" points="935.7461,-180.8035 926.035,-176.5672 930.9848,-185.9348 935.7461,-180.8035"/>
</g>
<!-- defaults&#45;&gt;iface -->
<g id="edge5" class="edge">
<title>defaults&#45;&gt;iface</title>
<path fill="none" stroke="#000000" d="M917.3231,-376.589C762.1977,-371.1348 225.571,-350.4146 200.9712,-324 171.7975,-292.674 219.4451,-245.7734 246.9712,-180 255.8309,-158.8298 265.7064,-134.7851 273.0249,-116.8775"/>
<polygon fill="#000000" stroke="#000000" points="276.266,-118.1986 276.805,-107.6175 269.7852,-115.553 276.266,-118.1986"/>
</g>
<!-- pragma -->
<g id="node9" class="node">
<title>pragma</title>
<ellipse fill="#ffffff" stroke="#000000" cx="958.9712" cy="-306" rx="39.9876" ry="18"/>
<text text-anchor="middle" x="958.9712" y="-301.8" font-family="Times,serif" font-size="14.00" fill="#000000">pragma</text>
</g>
<!-- defaults&#45;&gt;pragma -->
<g id="edge6" class="edge">
<title>defaults&#45;&gt;pragma</title>
<path fill="none" stroke="#000000" d="M958.9712,-359.8314C958.9712,-352.131 958.9712,-342.9743 958.9712,-334.4166"/>
<polygon fill="#000000" stroke="#000000" points="962.4713,-334.4132 958.9712,-324.4133 955.4713,-334.4133 962.4713,-334.4132"/>
</g>
<!-- iface&#45;&gt;boost -->
<g id="edge7" class="edge">
<title>iface&#45;&gt;boost</title>
<path fill="none" stroke="#000000" d="M283.9712,-71.8314C283.9712,-64.131 283.9712,-54.9743 283.9712,-46.4166"/>
<polygon fill="#000000" stroke="#000000" points="287.4713,-46.4132 283.9712,-36.4133 280.4713,-46.4133 287.4713,-46.4132"/>
</g>
<!-- iface&#45;&gt;data -->
<g id="edge8" class="edge">
<title>iface&#45;&gt;data</title>
<path fill="none" stroke="#000000" d="M307.806,-78.9972C314.242,-76.3739 321.2796,-73.8128 327.9712,-72 450.9994,-38.6708 602.2718,-25.0268 671.3525,-20.2386"/>
<polygon fill="#000000" stroke="#000000" points="671.9731,-23.7049 681.7169,-19.5445 671.5053,-16.7206 671.9731,-23.7049"/>
</g>
<!-- mdb -->
<g id="node6" class="node">
<title>mdb</title>
<ellipse fill="#ffffff" stroke="#000000" cx="1060.9712" cy="-234" rx="28.4127" ry="18"/>
<text text-anchor="middle" x="1060.9712" y="-229.8" font-family="Times,serif" font-size="14.00" fill="#000000">mdb</text>
</g>
<!-- mdb&#45;&gt;core -->
<g id="edge9" class="edge">
<title>mdb&#45;&gt;core</title>
<path fill="none" stroke="#000000" d="M1038.2153,-223.2209C1012.3216,-210.9555 969.8569,-190.8406 940.7154,-177.0367"/>
<polygon fill="#000000" stroke="#000000" points="941.9223,-173.7356 931.3866,-172.6178 938.9256,-180.0618 941.9223,-173.7356"/>
</g>
<!-- mdb&#45;&gt;data -->
<g id="edge10" class="edge">
<title>mdb&#45;&gt;data</title>
<path fill="none" stroke="#000000" d="M1050.3348,-216.9478C1037.4677,-197.3841 1014.2374,-165.2717 987.9712,-144 911.7619,-82.2817 800.4697,-44.075 744.2584,-27.5499"/>
<polygon fill="#000000" stroke="#000000" points="745.0026,-24.122 734.4244,-24.7159 743.0641,-30.8483 745.0026,-24.122"/>
</g>
<!-- mdb&#45;&gt;iface -->
<g id="edge11" class="edge">
<title>mdb&#45;&gt;iface</title>
<path fill="none" stroke="#000000" d="M1046.8158,-218.246C1026.7402,-197.1092 987.7642,-160.3408 945.9712,-144 888.1346,-121.3862 458.8903,-98.5942 324.2474,-91.9361"/>
<polygon fill="#000000" stroke="#000000" points="324.1297,-88.4262 313.9699,-91.431 323.786,-95.4177 324.1297,-88.4262"/>
</g>
<!-- mock -->
<g id="node7" class="node">
<title>mock</title>
<ellipse fill="#ffffff" stroke="#000000" cx="205.9712" cy="-162" rx="32.4846" ry="18"/>
<text text-anchor="middle" x="205.9712" y="-157.8" font-family="Times,serif" font-size="14.00" fill="#000000">mock</text>
</g>
<!-- mock&#45;&gt;iface -->
<g id="edge12" class="edge">
<title>mock&#45;&gt;iface</title>
<path fill="none" stroke="#000000" d="M222.896,-146.3771C233.7754,-136.3346 248.072,-123.1377 260.0979,-112.0369"/>
<polygon fill="#000000" stroke="#000000" points="262.6398,-114.4537 267.6139,-105.099 257.8919,-109.3101 262.6398,-114.4537"/>
</g>
<!-- pattern -->
<g id="node8" class="node">
<title>pattern</title>
<ellipse fill="#ffffff" stroke="#000000" cx="476.9712" cy="-162" rx="37.6986" ry="18"/>
<text text-anchor="middle" x="476.9712" y="-157.8" font-family="Times,serif" font-size="14.00" fill="#000000">pattern</text>
</g>
<!-- pragma&#45;&gt;core -->
<g id="edge13" class="edge">
<title>pragma&#45;&gt;core</title>
<path fill="none" stroke="#000000" d="M952.7398,-288.0535C944.1221,-263.2347 928.4929,-218.2224 918.4305,-189.2428"/>
<polygon fill="#000000" stroke="#000000" points="921.7106,-188.019 915.1241,-179.7204 915.0979,-190.3152 921.7106,-188.019"/>
</g>
<!-- pragma&#45;&gt;data -->
<g id="edge14" class="edge">
<title>pragma&#45;&gt;data</title>
<path fill="none" stroke="#000000" d="M993.9316,-297.2455C1030.9931,-287.1741 1085.836,-269.7332 1097.9712,-252 1107.0071,-238.7958 1104.4348,-230.6363 1097.9712,-216 1036.2572,-76.2546 830.5176,-33.8183 745.8528,-22.0924"/>
<polygon fill="#000000" stroke="#000000" points="746.2819,-18.6188 735.91,-20.7807 745.3663,-25.5587 746.2819,-18.6188"/>
</g>
<!-- pragma&#45;&gt;iface -->
<g id="edge15" class="edge">
<title>pragma&#45;&gt;iface</title>
<path fill="none" stroke="#000000" d="M929.9001,-293.6074C860.6405,-264.4306 680.0122,-190.3791 523.9712,-144 453.9847,-123.1983 370.443,-106.0978 322.6611,-97.0317"/>
<polygon fill="#000000" stroke="#000000" points="323.2145,-93.5746 312.7401,-95.1676 321.9218,-100.4542 323.2145,-93.5746"/>
</g>
<!-- pragma&#45;&gt;mdb -->
<g id="edge16" class="edge">
<title>pragma&#45;&gt;mdb</title>
<path fill="none" stroke="#000000" d="M980.6028,-290.7307C996.0403,-279.8336 1016.9238,-265.0923 1033.5335,-253.3678"/>
<polygon fill="#000000" stroke="#000000" points="1035.627,-256.1742 1041.7783,-247.5479 1031.5902,-250.4554 1035.627,-256.1742"/>
</g>
<!-- process&#45;&gt;data -->
<g id="edge17" class="edge">
<title>process&#45;&gt;data</title>
<path fill="none" stroke="#000000" d="M670.3169,-72.5708C676.6099,-63.6866 684.3747,-52.7245 691.2902,-42.9615"/>
<polygon fill="#000000" stroke="#000000" points="694.1663,-44.9563 697.0904,-34.7729 688.4541,-40.9101 694.1663,-44.9563"/>
</g>
<!-- readline -->
<g id="node11" class="node">
<title>readline</title>
<ellipse fill="#ffffff" stroke="#000000" cx="75.9712" cy="-162" rx="42.2719" ry="18"/>
<text text-anchor="middle" x="75.9712" y="-157.8" font-family="Times,serif" font-size="14.00" fill="#000000">readline</text>
</g>
<!-- readline&#45;&gt;data -->
<g id="edge18" class="edge">
<title>readline&#45;&gt;data</title>
<path fill="none" stroke="#000000" d="M98.2744,-146.5868C129.5183,-125.8454 188.8072,-89.5337 244.9712,-72 324.6252,-47.133 576.0447,-27.3512 671.6118,-20.5476"/>
<polygon fill="#000000" stroke="#000000" points="671.956,-24.0321 681.6851,-19.8376 671.4638,-17.0494 671.956,-24.0321"/>
</g>
<!-- readline&#45;&gt;iface -->
<g id="edge19" class="edge">
<title>readline&#45;&gt;iface</title>
<path fill="none" stroke="#000000" d="M108.9294,-150.5914C146.971,-137.4231 209.3045,-115.8462 248.4134,-102.3085"/>
<polygon fill="#000000" stroke="#000000" points="249.7623,-105.5454 258.0672,-98.9668 247.4725,-98.9305 249.7623,-105.5454"/>
</g>
<!-- replace_part -->
<g id="node12" class="node">
<title>replace_part</title>
<ellipse fill="#ffffff" stroke="#000000" cx="1355.9712" cy="-378" rx="58.5059" ry="18"/>
<text text-anchor="middle" x="1355.9712" y="-373.8" font-family="Times,serif" font-size="14.00" fill="#000000">replace_part</text>
</g>
<!-- system_test -->
<g id="node13" class="node">
<title>system_test</title>
<ellipse fill="#ffffff" stroke="#000000" cx="509.9712" cy="-234" rx="56.1937" ry="18"/>
<text text-anchor="middle" x="509.9712" y="-229.8" font-family="Times,serif" font-size="14.00" fill="#000000">system_test</text>
</g>
<!-- system_test&#45;&gt;core -->
<g id="edge20" class="edge">
<title>system_test&#45;&gt;core</title>
<path fill="none" stroke="#000000" d="M558.8964,-225.1714C639.8193,-210.5688 799.7655,-181.7063 872.013,-168.6692"/>
<polygon fill="#000000" stroke="#000000" points="872.7968,-172.0843 882.0163,-166.864 871.5536,-165.1956 872.7968,-172.0843"/>
</g>
<!-- system_test&#45;&gt;pattern -->
<g id="edge21" class="edge">
<title>system_test&#45;&gt;pattern</title>
<path fill="none" stroke="#000000" d="M501.6439,-215.8314C497.9421,-207.7547 493.5061,-198.0761 489.4227,-189.1668"/>
<polygon fill="#000000" stroke="#000000" points="492.5299,-187.5458 485.1815,-179.9134 486.1664,-190.4624 492.5299,-187.5458"/>
</g>
<!-- system_test&#45;&gt;process -->
<g id="edge22" class="edge">
<title>system_test&#45;&gt;process</title>
<path fill="none" stroke="#000000" d="M527.8235,-216.6302C554.2185,-190.9485 603.7342,-142.7712 633.4953,-113.8143"/>
<polygon fill="#000000" stroke="#000000" points="636.2435,-116.0238 640.97,-106.5417 631.362,-111.0067 636.2435,-116.0238"/>
</g>
<!-- app/metashell -->
<g id="node14" class="node">
<title>app/metashell</title>
<polygon fill="none" stroke="#000000" points="103.7275,-468 10.2149,-468 10.2149,-432 103.7275,-432 103.7275,-468"/>
<text text-anchor="middle" x="56.9712" y="-445.8" font-family="Times,serif" font-size="14.00" fill="#000000">app/metashell</text>
</g>
<!-- app/metashell&#45;&gt;core -->
<g id="edge23" class="edge">
<title>app/metashell&#45;&gt;core</title>
<path fill="none" stroke="#000000" d="M103.9508,-448.3738C254.3188,-442.2745 720.5549,-416.1588 833.9712,-324 876.1136,-289.7564 895.7016,-226.5049 903.8681,-189.9908"/>
<polygon fill="#000000" stroke="#000000" points="907.3336,-190.5186 905.9634,-180.0128 900.483,-189.0801 907.3336,-190.5186"/>
</g>
<!-- app/metashell&#45;&gt;data -->
<g id="edge24" class="edge">
<title>app/metashell&#45;&gt;data</title>
<path fill="none" stroke="#000000" d="M47.9893,-431.8087C24.6605,-381.7339 -32.1906,-239.2697 24.9712,-144 59.9569,-85.6905 94.8889,-91.7053 159.9712,-72 256.3314,-42.8245 564.7182,-25.1483 671.8676,-19.7622"/>
<polygon fill="#000000" stroke="#000000" points="672.0729,-23.2564 681.8871,-19.265 671.7259,-16.265 672.0729,-23.2564"/>
</g>
<!-- app/metashell&#45;&gt;defaults -->
<g id="edge25" class="edge">
<title>app/metashell&#45;&gt;defaults</title>
<path fill="none" stroke="#000000" d="M103.7437,-448.9521C228.3285,-445.714 578.3876,-433.6963 866.9712,-396 881.6454,-394.0832 897.5022,-391.2571 911.8502,-388.4096"/>
<polygon fill="#000000" stroke="#000000" points="912.8917,-391.7694 921.9926,-386.345 911.4953,-384.9101 912.8917,-391.7694"/>
</g>
<!-- app/metashell&#45;&gt;iface -->
<g id="edge26" class="edge">
<title>app/metashell&#45;&gt;iface</title>
<path fill="none" stroke="#000000" d="M57.7958,-431.7234C61.193,-378.898 78.422,-224.6587 164.9712,-144 187.9752,-122.5616 220.9521,-108.5084 246.3598,-100.1276"/>
<polygon fill="#000000" stroke="#000000" points="247.5464,-103.4236 256.0368,-97.086 245.4474,-96.7457 247.5464,-103.4236"/>
</g>
<!-- app/metashell&#45;&gt;readline -->
<g id="edge27" class="edge">
<title>app/metashell&#45;&gt;readline</title>
<path fill="none" stroke="#000000" d="M58.1597,-431.9843C61.3719,-383.2939 70.2451,-248.7961 74.1202,-190.0573"/>
<polygon fill="#000000" stroke="#000000" points="77.6171,-190.2176 74.7831,-180.0089 70.6323,-189.7568 77.6171,-190.2176"/>
</g>
<!-- app/reference_gen -->
<g id="node15" class="node">
<title>app/reference_gen</title>
<polygon fill="none" stroke="#000000" points="1162.8464,-468 1043.096,-468 1043.096,-432 1162.8464,-432 1162.8464,-468"/>
<text text-anchor="middle" x="1102.9712" y="-445.8" font-family="Times,serif" font-size="14.00" fill="#000000">app/reference_gen</text>
</g>
<!-- app/reference_gen&#45;&gt;core -->
<g id="edge28" class="edge">
<title>app/reference_gen&#45;&gt;core</title>
<path fill="none" stroke="#000000" d="M1098.0167,-431.997C1085.7641,-390.0885 1050.6364,-284.3823 990.9712,-216 983.0508,-206.9224 958.8772,-191.4061 938.8138,-179.3289"/>
<polygon fill="#000000" stroke="#000000" points="940.3409,-176.1648 929.9578,-174.0574 936.7605,-182.1798 940.3409,-176.1648"/>
</g>
<!-- app/reference_gen&#45;&gt;data -->
<g id="edge29" class="edge">
<title>app/reference_gen&#45;&gt;data</title>
<path fill="none" stroke="#000000" d="M1151.8788,-431.8165C1200.8447,-410.0691 1268.9712,-368.569 1268.9712,-306 1268.9712,-306 1268.9712,-306 1268.9712,-162 1268.9712,-53.8502 872.2535,-25.7422 746.6364,-19.5529"/>
<polygon fill="#000000" stroke="#000000" points="746.5147,-16.0433 736.3603,-19.0661 746.1834,-23.0355 746.5147,-16.0433"/>
</g>
<!-- app/reference_gen&#45;&gt;defaults -->
<g id="edge30" class="edge">
<title>app/reference_gen&#45;&gt;defaults</title>
<path fill="none" stroke="#000000" d="M1066.6339,-431.8314C1044.7629,-420.8959 1017.0184,-407.0236 995.172,-396.1004"/>
<polygon fill="#000000" stroke="#000000" points="996.7142,-392.9584 986.2046,-391.6167 993.5836,-399.2194 996.7142,-392.9584"/>
</g>
<!-- app/reference_gen&#45;&gt;mdb -->
<g id="edge31" class="edge">
<title>app/reference_gen&#45;&gt;mdb</title>
<path fill="none" stroke="#000000" d="M1101.3245,-431.8243C1098.3581,-401.6484 1091.2546,-339.4371 1078.9712,-288 1076.8824,-279.2532 1074.0042,-269.9015 1071.1617,-261.4802"/>
<polygon fill="#000000" stroke="#000000" points="1074.372,-260.0572 1067.7677,-251.7726 1067.7642,-262.3675 1074.372,-260.0572"/>
</g>
<!-- app/reference_gen&#45;&gt;replace_part -->
<g id="edge32" class="edge">
<title>app/reference_gen&#45;&gt;replace_part</title>
<path fill="none" stroke="#000000" d="M1162.9287,-432.937C1205.4516,-420.8356 1261.9985,-404.7432 1302.8908,-393.1059"/>
<polygon fill="#000000" stroke="#000000" points="1304.0099,-396.4265 1312.6699,-390.3229 1302.0938,-389.6938 1304.0099,-396.4265"/>
</g>
<!-- test/system/core -->
<g id="node16" class="node">
<title>test/system/core</title>
<polygon fill="none" stroke="#000000" points="825.1678,-324 718.7746,-324 718.7746,-288 825.1678,-288 825.1678,-324"/>
<text text-anchor="middle" x="771.9712" y="-301.8" font-family="Times,serif" font-size="14.00" fill="#000000">test/system/core</text>
</g>
<!-- test/system/core&#45;&gt;system_test -->
<g id="edge33" class="edge">
<title>test/system/core&#45;&gt;system_test</title>
<path fill="none" stroke="#000000" d="M718.5551,-290.4229C715.653,-289.5982 712.7773,-288.7861 709.9712,-288 660.3252,-274.0924 603.5668,-258.828 563.2286,-248.0872"/>
<polygon fill="#000000" stroke="#000000" points="563.9049,-244.6455 553.3412,-245.4576 562.1057,-251.4103 563.9049,-244.6455"/>
</g>
<!-- test/system/mdb -->
<g id="node17" class="node">
<title>test/system/mdb</title>
<polygon fill="none" stroke="#000000" points="431.4684,-324 324.474,-324 324.474,-288 431.4684,-288 431.4684,-324"/>
<text text-anchor="middle" x="377.9712" y="-301.8" font-family="Times,serif" font-size="14.00" fill="#000000">test/system/mdb</text>
</g>
<!-- test/system/mdb&#45;&gt;system_test -->
<g id="edge34" class="edge">
<title>test/system/mdb&#45;&gt;system_test</title>
<path fill="none" stroke="#000000" d="M411.2804,-287.8314C429.8735,-277.6897 453.0974,-265.0221 472.3448,-254.5235"/>
<polygon fill="#000000" stroke="#000000" points="474.0532,-257.5785 481.1562,-249.7173 470.7012,-251.4332 474.0532,-257.5785"/>
</g>
<!-- test/system/pdb -->
<g id="node18" class="node">
<title>test/system/pdb</title>
<polygon fill="none" stroke="#000000" points="552.5779,-324 449.3645,-324 449.3645,-288 552.5779,-288 552.5779,-324"/>
<text text-anchor="middle" x="500.9712" y="-301.8" font-family="Times,serif" font-size="14.00" fill="#000000">test/system/pdb</text>
</g>
<!-- test/system/pdb&#45;&gt;system_test -->
<g id="edge35" class="edge">
<title>test/system/pdb&#45;&gt;system_test</title>
<path fill="none" stroke="#000000" d="M503.2423,-287.8314C504.2048,-280.131 505.3494,-270.9743 506.4191,-262.4166"/>
<polygon fill="#000000" stroke="#000000" points="509.9021,-262.7702 507.6695,-252.4133 502.9561,-261.9019 509.9021,-262.7702"/>
</g>
<!-- test/system/pp -->
<g id="node19" class="node">
<title>test/system/pp</title>
<polygon fill="none" stroke="#000000" points="306.0779,-324 209.8645,-324 209.8645,-288 306.0779,-288 306.0779,-324"/>
<text text-anchor="middle" x="257.9712" y="-301.8" font-family="Times,serif" font-size="14.00" fill="#000000">test/system/pp</text>
</g>
<!-- test/system/pp&#45;&gt;pattern -->
<g id="edge36" class="edge">
<title>test/system/pp&#45;&gt;pattern</title>
<path fill="none" stroke="#000000" d="M306.3325,-289.1841C338.8231,-277.4119 378.2852,-262.0513 392.9712,-252 419.0531,-234.1492 443.0311,-206.8912 458.6331,-187.05"/>
<polygon fill="#000000" stroke="#000000" points="461.4645,-189.1097 464.7886,-179.0498 455.9166,-184.8411 461.4645,-189.1097"/>
</g>
<!-- test/system/pp&#45;&gt;system_test -->
<g id="edge37" class="edge">
<title>test/system/pp&#45;&gt;system_test</title>
<path fill="none" stroke="#000000" d="M306.045,-290.9611C309.4009,-289.9481 312.7346,-288.9525 315.9712,-288 363.3842,-274.0474 417.5916,-259.0376 456.6312,-248.393"/>
<polygon fill="#000000" stroke="#000000" points="457.9882,-251.651 466.7181,-245.6477 456.1499,-244.8967 457.9882,-251.651"/>
</g>
<!-- test/unit/core -->
<g id="node20" class="node">
<title>test/unit/core</title>
<polygon fill="none" stroke="#000000" points="349.5639,-252 260.3786,-252 260.3786,-216 349.5639,-216 349.5639,-252"/>
<text text-anchor="middle" x="304.9712" y="-229.8" font-family="Times,serif" font-size="14.00" fill="#000000">test/unit/core</text>
</g>
<!-- test/unit/core&#45;&gt;core -->
<g id="edge38" class="edge">
<title>test/unit/core&#45;&gt;core</title>
<path fill="none" stroke="#000000" d="M349.7196,-228.1076C377.1939,-224.5244 413.1069,-219.9024 444.9712,-216 603.4788,-196.5874 792.6632,-175.0901 871.5544,-166.2002"/>
<polygon fill="#000000" stroke="#000000" points="871.9553,-169.6773 881.5009,-165.0804 871.172,-162.7212 871.9553,-169.6773"/>
</g>
<!-- test/unit/core&#45;&gt;data -->
<g id="edge39" class="edge">
<title>test/unit/core&#45;&gt;data</title>
<path fill="none" stroke="#000000" d="M306.0885,-215.7853C309.2253,-181.7225 321.1118,-108.53 365.9712,-72 412.3284,-34.2503 592.7516,-22.5807 671.6686,-19.239"/>
<polygon fill="#000000" stroke="#000000" points="671.8115,-22.7362 681.663,-18.8377 671.5306,-15.7418 671.8115,-22.7362"/>
</g>
<!-- test/unit/core&#45;&gt;iface -->
<g id="edge40" class="edge">
<title>test/unit/core&#45;&gt;iface</title>
<path fill="none" stroke="#000000" d="M302.3115,-215.7623C298.7297,-191.201 292.3198,-147.2474 288.1062,-118.3541"/>
<polygon fill="#000000" stroke="#000000" points="291.5158,-117.4798 286.6093,-108.0896 284.5891,-118.4901 291.5158,-117.4798"/>
</g>
<!-- test/unit/core&#45;&gt;mock -->
<g id="edge41" class="edge">
<title>test/unit/core&#45;&gt;mock</title>
<path fill="none" stroke="#000000" d="M279.9893,-215.8314C266.0074,-205.6627 248.5338,-192.9546 234.0757,-182.4396"/>
<polygon fill="#000000" stroke="#000000" points="236.1066,-179.589 225.9606,-176.5378 231.9894,-185.2501 236.1066,-179.589"/>
</g>
<!-- test/unit/data -->
<g id="node21" class="node">
<title>test/unit/data</title>
<polygon fill="none" stroke="#000000" points="804.2944,-108 715.648,-108 715.648,-72 804.2944,-72 804.2944,-108"/>
<text text-anchor="middle" x="759.9712" y="-85.8" font-family="Times,serif" font-size="14.00" fill="#000000">test/unit/data</text>
</g>
<!-- test/unit/data&#45;&gt;data -->
<g id="edge42" class="edge">
<title>test/unit/data&#45;&gt;data</title>
<path fill="none" stroke="#000000" d="M747.1017,-71.8314C740.8662,-63.0283 733.2827,-52.3221 726.526,-42.7832"/>
<polygon fill="#000000" stroke="#000000" points="729.252,-40.5765 720.6157,-34.4393 723.5398,-44.6226 729.252,-40.5765"/>
</g>
<!-- test/unit/mdb -->
<g id="node22" class="node">
<title>test/unit/mdb</title>
<polygon fill="none" stroke="#000000" points="1229.8647,-324 1140.0777,-324 1140.0777,-288 1229.8647,-288 1229.8647,-324"/>
<text text-anchor="middle" x="1184.9712" y="-301.8" font-family="Times,serif" font-size="14.00" fill="#000000">test/unit/mdb</text>
</g>
<!-- test/unit/mdb&#45;&gt;core -->
<g id="edge43" class="edge">
<title>test/unit/mdb&#45;&gt;core</title>
<path fill="none" stroke="#000000" d="M1172.0216,-287.6993C1156.6339,-267.2807 1129.0934,-234.6692 1097.9712,-216 1050.1541,-187.3161 986.3803,-173.2493 946.4997,-166.8258"/>
<polygon fill="#000000" stroke="#000000" points="946.8235,-163.3347 936.4092,-165.2819 945.7647,-170.2542 946.8235,-163.3347"/>
</g>
<!-- test/unit/mdb&#45;&gt;data -->
<g id="edge44" class="edge">
<title>test/unit/mdb&#45;&gt;data</title>
<path fill="none" stroke="#000000" d="M1183.1132,-287.8108C1180.4618,-268.6613 1174.2238,-238.2615 1159.9712,-216 1104.3557,-129.1327 1072.2227,-113.9006 977.9712,-72 900.0329,-37.3516 799.5167,-24.7543 746.1386,-20.312"/>
<polygon fill="#000000" stroke="#000000" points="746.3545,-16.8183 736.1121,-19.5281 745.8089,-23.797 746.3545,-16.8183"/>
</g>
<!-- test/unit/mdb&#45;&gt;iface -->
<g id="edge45" class="edge">
<title>test/unit/mdb&#45;&gt;iface</title>
<path fill="none" stroke="#000000" d="M1178.1593,-287.6939C1170.0055,-267.877 1154.6784,-236.3803 1132.9712,-216 1080.5155,-166.7508 1057.3409,-163.1031 987.9712,-144 923.9736,-126.3763 464.2674,-99.9165 324.3044,-92.1905"/>
<polygon fill="#000000" stroke="#000000" points="324.2062,-88.6799 314.0291,-91.6253 323.8217,-95.6694 324.2062,-88.6799"/>
</g>
<!-- test/unit/mdb&#45;&gt;mdb -->
<g id="edge46" class="edge">
<title>test/unit/mdb&#45;&gt;mdb</title>
<path fill="none" stroke="#000000" d="M1153.6808,-287.8314C1134.4439,-276.6615 1109.9301,-262.4277 1090.9418,-251.4023"/>
<polygon fill="#000000" stroke="#000000" points="1092.5169,-248.2696 1082.1115,-246.275 1089.0019,-254.3232 1092.5169,-248.2696"/>
</g>
<!-- test/unit/pragma -->
<g id="node23" class="node">
<title>test/unit/pragma</title>
<polygon fill="none" stroke="#000000" points="514.4544,-396 407.488,-396 407.488,-360 514.4544,-360 514.4544,-396"/>
<text text-anchor="middle" x="460.9712" y="-373.8" font-family="Times,serif" font-size="14.00" fill="#000000">test/unit/pragma</text>
</g>
<!-- test/unit/pragma&#45;&gt;core -->
<g id="edge47" class="edge">
<title>test/unit/pragma&#45;&gt;core</title>
<path fill="none" stroke="#000000" d="M514.7791,-376.4035C605.6629,-372.712 784.5244,-360.8533 833.9712,-324 877.6229,-291.4658 896.6819,-227.3049 904.3452,-190.2381"/>
<polygon fill="#000000" stroke="#000000" points="907.8414,-190.591 906.2941,-180.1098 900.9675,-189.2683 907.8414,-190.591"/>
</g>
<!-- test/unit/pragma&#45;&gt;data -->
<g id="edge48" class="edge">
<title>test/unit/pragma&#45;&gt;data</title>
<path fill="none" stroke="#000000" d="M407.2942,-374.6243C338.9009,-369.0744 226.4669,-355.3351 200.9712,-324 190.8731,-311.5892 190.993,-300.5074 200.9712,-288 245.8867,-231.6994 299.7997,-293.0597 358.9712,-252 406.1653,-219.2515 386.2854,-181.3002 429.9712,-144 504.5507,-80.3219 616.5625,-42.9804 673.3028,-27.0915"/>
<polygon fill="#000000" stroke="#000000" points="674.5119,-30.3893 683.2327,-24.3728 672.6634,-23.6378 674.5119,-30.3893"/>
</g>
<!-- test/unit/pragma&#45;&gt;mock -->
<g id="edge49" class="edge">
<title>test/unit/pragma&#45;&gt;mock</title>
<path fill="none" stroke="#000000" d="M407.4224,-373.0424C318.3507,-364.2507 147.7191,-344.878 129.9712,-324 93.4939,-281.0895 146.7935,-217.7125 181.0101,-184.3753"/>
<polygon fill="#000000" stroke="#000000" points="183.5644,-186.7762 188.399,-177.3488 178.7406,-181.7037 183.5644,-186.7762"/>
</g>
<!-- test/unit/pragma&#45;&gt;pragma -->
<g id="edge50" class="edge">
<title>test/unit/pragma&#45;&gt;pragma</title>
<path fill="none" stroke="#000000" d="M514.5283,-374.9659C598.5647,-369.4285 766.1481,-355.2461 904.9712,-324 909.3187,-323.0215 913.81,-321.8292 918.2597,-320.5288"/>
<polygon fill="#000000" stroke="#000000" points="919.3481,-323.8558 927.8623,-317.5503 917.2743,-317.17 919.3481,-323.8558"/>
</g>
<!-- test/unit/replace_part -->
<g id="node24" class="node">
<title>test/unit/replace_part</title>
<polygon fill="none" stroke="#000000" points="1423.1495,-468 1288.7929,-468 1288.7929,-432 1423.1495,-432 1423.1495,-468"/>
<text text-anchor="middle" x="1355.9712" y="-445.8" font-family="Times,serif" font-size="14.00" fill="#000000">test/unit/replace_part</text>
</g>
<!-- test/unit/replace_part&#45;&gt;replace_part -->
<g id="edge51" class="edge">
<title>test/unit/replace_part&#45;&gt;replace_part</title>
<path fill="none" stroke="#000000" d="M1355.9712,-431.8314C1355.9712,-424.131 1355.9712,-414.9743 1355.9712,-406.4166"/>
<polygon fill="#000000" stroke="#000000" points="1359.4713,-406.4132 1355.9712,-396.4133 1352.4713,-406.4133 1359.4713,-406.4132"/>
</g>
<!-- test/unit/system_test -->
<g id="node25" class="node">
<title>test/unit/system_test</title>
<polygon fill="none" stroke="#000000" points="701.2998,-324 570.6426,-324 570.6426,-288 701.2998,-288 701.2998,-324"/>
<text text-anchor="middle" x="635.9712" y="-301.8" font-family="Times,serif" font-size="14.00" fill="#000000">test/unit/system_test</text>
</g>
<!-- test/unit/system_test&#45;&gt;system_test -->
<g id="edge52" class="edge">
<title>test/unit/system_test&#45;&gt;system_test</title>
<path fill="none" stroke="#000000" d="M604.1761,-287.8314C586.5887,-277.7815 564.6607,-265.2512 546.387,-254.809"/>
<polygon fill="#000000" stroke="#000000" points="547.8954,-251.6399 537.4765,-249.7173 544.4224,-257.7176 547.8954,-251.6399"/>
</g>
</g>
</svg>
